<?xml version="1.0" encoding="utf-8"?>
<!-- Generator: Adobe Illustrator 25.2.2, SVG Export Plug-In . SVG Version: 6.00 Build 0)  -->
<svg version="1.1" id="Layer_1" xmlns="http://www.w3.org/2000/svg" xmlns:xlink="http://www.w3.org/1999/xlink" x="0px" y="0px"
	 viewBox="0 0 1920 1080" style="enable-background:new 0 0 1920 1080;" xml:space="preserve">
<style type="text/css">
	.st0{fill:#FFFFFF;}
</style>
<g>
	<g>
		<path class="st0" d="M1469.77,483.39v1.53c5.31-1.46,13.45-2,15.37,7.42v15.37l30.74-20.49v-35.86L1469.77,483.39z"/>
		<path class="st0" d="M1459.52,555.53v1.57c6.07-1.56,15.37-1.71,15.37,12.1c0,20.49,0,71.73,0,71.73h40.99V517.96L1459.52,555.53z
			"/>
	</g>
	<path class="st0" d="M619.51,620.43l-0.21-81.97l-40.99-20.49l-61.48,40.99v51.23c0,0,0,33.39,36.02,33.39
		c25.54,0,30.21-11.58,30.21-11.58s0.82,8.92,5.5,8.92c9.58,0,32.9,0,35.86,0v-5.14C619.3,635.78,619.51,620.43,619.51,620.43z
		 M578.31,615.3c0,0,0.21,10.25-10.04,10.25c-10.25,0-10.46-10.25-10.46-10.25v-81.97l20.49,10.25V615.3z"/>
	<path class="st0" d="M1254.59,548.7v-10.25l-40.99-20.49l-61.48,40.99v5.12c0,25.62,25.62,25.62,25.62,25.62h25.62
		c10.25,0,10.25,10.25,10.25,10.25v15.37c0,0,0,10.25-10.25,10.25c-10.25,0-10.25-10.25-10.25-10.25l-0.01-12.61h0.01v-2.76h-40.99
		v2.59h-0.01c0,40.99,40.98,41.06,40.98,41.06h20.49c40.99,0,40.99-30.82,40.99-30.82l0.01-7.71c0-25.62-25.62-25.62-25.62-25.62
		h-25.62c-10.25,0-10.25-10.25-10.25-10.25v-35.86l20.49,5.12v33.3L1254.59,548.7z"/>
	<path class="st0" d="M486.79,529.96l-35.62,35.62v-47.62l-56.36,37.57v1.57c6.07-1.56,15.37-1.71,15.37,12.1
		c0,20.49,0,71.73,0,71.73h40.99v-65.27c1.76-2.87,13.15-18.86,35.8,3.79l24.74-24.74L486.79,529.96z"/>
	<path class="st0" d="M1321.19,517.96v-66.6l-46.11,32.04v1.53c5.31-1.46,13.45-2,15.37,7.42v10.25c0,20.96-30.74,20.96-30.74,20.96
		v4.66h20.7v112.71h41.52c0.05-9.53,0.09-87.63,0.09-97.34c0-20.96,20.49-20.49,20.49-20.49v-5.12H1321.19z"/>
	<path class="st0" d="M332.39,553.58V451.36l20.49,10.25v35.86l20.49,15.37l35.86-17.93v-1.07c-6.07,0.83-15.37-1.28-15.37-21.99
		v-15.37l-40.99-20.49l-76.85,51.23v1.57c6.07-1.56,15.37-1.71,15.37,12.1c0,3.13,0,140.04,0,140.04h40.99v-77.27
		c1.76-2.87,13.15-18.86,35.8,3.79l24.74-24.74l-24.92-24.74L332.39,553.58z"/>
	<path class="st0" d="M885.71,553.82l-30.74-35.86l-40.99,30.69v-97.29l-56.36,32.45v1.05c6.06-1.61,15.54-1.88,15.54,12.05
		c0,20.49-0.17,144.01-0.17,144.01h40.99V592.6c20.49,3.8,20.49,27.82,20.49,27.82v20.49l40.99-0.25
		c0-51.13-40.99-50.98-40.99-50.98H814.5l60.97-35.86H885.71z M813.99,587.07V553.6c6.63-2.3,16.7-3.76,20.49,5.35
		C838.55,568.74,827.29,577.29,813.99,587.07z"/>
	<path class="st0" d="M1106.02,517.96l-40.99,15.37l-20.49-15.37l-35.86,17.93v1.07c6.07-0.83,15.37,1.28,15.37,21.99v81.97h40.99
		V538.45c20.49-5.12,20.49,10.25,20.49,10.25v92.22h40.99V538.45L1106.02,517.96z"/>
	<path class="st0" d="M1623.47,517.96l-40.99,15.37l-20.49-15.37l-35.86,17.93v1.07c6.07-0.83,15.37,1.28,15.37,21.99v81.97h40.99
		V538.45c20.49-5.12,20.49,10.25,20.49,10.25v92.22h40.99V538.45L1623.47,517.96z"/>
	<path class="st0" d="M727.84,517.96l-40.99,15.37l-20.49-15.37l-35.86,17.93v1.07c6.07-0.83,15.37,1.28,15.37,21.99v81.97h40.99
		V538.45c20.49-5.12,20.49,10.25,20.49,10.25v92.22h40.99V538.45L727.84,517.96z"/>
	<path class="st0" d="M957.44,586.27l40.99-27.32v-20.49l-40.99-20.49l-61.48,40.99v35.86c0,46.11,40.99,48.22,40.99,48.22h20.49
		c40.99,0,40.99-43.1,40.99-43.1h-40.99v15.37c0,0,0,10.25-10.25,10.25c-10.25,0-10.25-10.25-10.25-10.25v-29.02L957.44,586.27z
		 M957.44,543.58v25.6c0,9.98-20.49,10.26-20.49,10.26v-46.11L957.44,543.58z"/>
	<path class="st0" d="M1408.29,586.27l40.99-27.32v-20.49l-40.99-20.49l-61.48,40.99v35.86c0,46.11,40.99,48.22,40.99,48.22h20.49
		c40.99,0,40.99-43.1,40.99-43.1h-40.99v15.37c0,0,0,10.25-10.25,10.25c-10.25,0-10.25-10.25-10.25-10.25v-29.02L1408.29,586.27z
		 M1408.29,543.58v25.6c0,9.98-20.49,10.26-20.49,10.26v-46.11L1408.29,543.58z"/>
</g>
</svg>
