<?xml version="1.0" encoding="utf-8"?>
<!-- Generator: Adobe Illustrator 25.2.2, SVG Export Plug-In . SVG Version: 6.00 Build 0)  -->
<svg version="1.1" id="Layer_1" xmlns="http://www.w3.org/2000/svg" xmlns:xlink="http://www.w3.org/1999/xlink" x="0px" y="0px"
	 viewBox="0 0 1367.93 208.03" style="enable-background:new 0 0 1367.93 208.03;" xml:space="preserve">
<style type="text/css">
	.st0{fill:#FFFFFF;}
</style>
<g>
	<g>
		<path class="st0" d="M1209.11,56.36v15.37l30.74-20.49V15.37l-46.11,32.04v1.53C1199.04,47.48,1207.19,46.94,1209.11,56.36z"/>
	</g>
	<g>
		<path class="st0" d="M1239.85,81.97l-56.36,37.57v1.57c6.07-1.56,15.37-1.71,15.37,12.1c0,5.24,0,12.48,0,20.36h40.99V81.97z"/>
	</g>
	<g>
		<polygon class="st0" points="281.78,97.34 302.28,107.59 302.28,153.57 343.39,153.57 343.26,102.47 302.28,81.97 240.8,122.96 
			240.8,153.57 281.78,153.57 		"/>
	</g>
	<g>
		<path class="st0" d="M952.94,143.45h-25.62c-10.25,0-10.25-10.25-10.25-10.25V97.34l20.49,5.12v33.3l40.99-23.05v-10.25
			l-40.99-20.49l-61.48,40.99v5.12c0,21.24,17.6,24.87,23.62,25.49h74.35C966.71,143.47,952.94,143.45,952.94,143.45z"/>
	</g>
	<g>
		<path class="st0" d="M175.14,139.67c1.76-2.87,13.15-18.86,35.8,3.79l24.74-24.74l-24.92-24.74l-35.62,35.62V81.97l-56.36,37.57
			v1.57c6.07-1.56,15.37-1.71,15.37,12.1c0,5.24,0,12.48,0,20.36h40.99V139.67z"/>
	</g>
	<g>
		<path class="st0" d="M1046,107.59c0-20.96,20.49-20.49,20.49-20.49v-5.12h-21.33v-66.6l-46.11,32.04v1.53
			c5.31-1.46,13.45-2,15.37,7.42V66.6c0,20.96-30.74,20.96-30.74,20.96v4.66h20.7v61.35h41.59
			C1045.99,132.59,1046,112.24,1046,107.59z"/>
	</g>
	<g>
		<path class="st0" d="M56.36,127.66c1.76-2.87,13.15-18.86,35.8,3.79l24.74-24.74L91.97,81.97l-35.62,35.62V15.37l20.49,10.25
			v35.86l20.49,15.37l35.86-17.93v-1.07c-6.07,0.83-15.37-1.28-15.37-21.99V20.49L76.85,0L0,51.23v1.57
			c6.07-1.56,15.37-1.71,15.37,12.1c0,1.83,0,49.46,0,88.67h40.99V127.66z"/>
	</g>
	<g>
		<path class="st0" d="M599.43,117.84h10.25l-30.74-35.86l-40.99,30.69V15.37l-56.36,32.45v1.05c6.06-1.61,15.54-1.88,15.54,12.05
			c0,11.59-0.05,56.13-0.1,92.65h41.65L599.43,117.84z M537.95,117.61c6.63-2.3,16.7-3.76,20.49,5.35
			c4.08,9.79-7.19,18.34-20.49,28.13V117.61z"/>
	</g>
	<g>
		<path class="st0" d="M788.99,102.47c20.49-5.12,20.49,10.25,20.49,10.25v40.86h40.99v-51.1l-20.49-20.49l-40.99,15.37L768.5,81.97
			l-35.86,17.93v1.07c6.07-0.83,15.37,1.28,15.37,21.99v30.61h40.99V102.47z"/>
	</g>
	<g>
		<path class="st0" d="M1306.45,102.47c20.49-5.12,20.49,10.25,20.49,10.25v40.86h40.99v-51.1l-20.49-20.49l-40.99,15.37
			l-20.49-15.37l-35.86,17.93v1.07c6.07-0.83,15.37,1.28,15.37,21.99v30.61h40.99V102.47z"/>
	</g>
	<g>
		<path class="st0" d="M410.81,102.47c20.49-5.12,20.49,10.25,20.49,10.25v40.86h40.99v-51.1L451.8,81.97l-40.99,15.37l-20.49-15.37
			l-35.86,17.93v1.07c6.07-0.83,15.37,1.28,15.37,21.99v30.61h40.99V102.47z"/>
	</g>
	<g>
		<path class="st0" d="M660.91,150.3l20.49-0.02l40.99-27.32v-20.49L681.4,81.97l-61.48,40.99v30.61h40.99V150.3z M660.91,97.34
			l20.49,10.25v25.6c0,9.98-20.49,10.26-20.49,10.26V97.34z"/>
	</g>
	<g>
		<path class="st0" d="M1111.76,150.3l20.49-0.02l40.99-27.32v-20.49l-40.99-20.49l-61.48,40.99v30.61h40.99V150.3z M1111.76,97.34
			l20.49,10.25v25.6c0,9.98-20.49,10.26-20.49,10.26V97.34z"/>
	</g>
</g>
</svg>
