<?xml version="1.0" encoding="utf-8"?>
<!-- Generator: Adobe Illustrator 25.2.2, SVG Export Plug-In . SVG Version: 6.00 Build 0)  -->
<svg version="1.1" id="Layer_1" xmlns="http://www.w3.org/2000/svg" xmlns:xlink="http://www.w3.org/1999/xlink" x="0px" y="0px"
	 viewBox="0 0 1367.93 208.03" style="enable-background:new 0 0 1367.93 208.03;" xml:space="preserve">
<style type="text/css">
	.st0{fill:#FFFFFF;}
</style>
<g>
	<path class="st0" d="M927.32,153.7c10.25,0,10.25,10.25,10.25,10.25v15.37c0,0,0,10.25-10.25,10.25s-10.25-10.25-10.25-10.25
		l-0.01-12.61h0.01v-2.76h-40.99v2.59h-0.01c0,40.99,40.98,41.06,40.98,41.06h20.49c40.99,0,40.99-30.82,40.99-30.82l0.01-7.71
		c0-6.83-1.83-11.83-4.5-15.5h-74.35c1.24,0.13,2,0.13,2,0.13H927.32z"/>
</g>
<g>
	<g>
		<path class="st0" d="M1239.85,204.93v-51.36h-40.99c0,22.97,0,51.36,0,51.36H1239.85z"/>
	</g>
	<g>
		<path class="st0" d="M1239.85,204.93v-51.36h-40.99c0,22.97,0,51.36,0,51.36H1239.85z"/>
	</g>
	<g>
		<path class="st0" d="M276.82,207.59c25.54,0,30.21-11.58,30.21-11.58s0.82,8.92,5.5,8.92c9.58,0,32.9,0,35.86,0v-5.14
			c-5.12,0-4.91-15.35-4.91-15.35l-0.08-30.87h-41.12v25.75c0,0,0.21,10.25-10.04,10.25c-10.25,0-10.46-10.25-10.46-10.25v-25.75
			H240.8v20.62C240.8,174.19,240.8,207.59,276.82,207.59z"/>
	</g>
	<g>
		<path class="st0" d="M276.82,207.59c25.54,0,30.21-11.58,30.21-11.58s0.82,8.92,5.5,8.92c9.58,0,32.9,0,35.86,0v-5.14
			c-5.12,0-4.91-15.35-4.91-15.35l-0.08-30.87h-41.12v25.75c0,0,0.21,10.25-10.04,10.25c-10.25,0-10.46-10.25-10.46-10.25v-25.75
			H240.8v20.62C240.8,174.19,240.8,207.59,276.82,207.59z"/>
	</g>
	<g>
		<path class="st0" d="M927.32,153.7c10.25,0,10.25,10.25,10.25,10.25v15.37c0,0,0,10.25-10.25,10.25s-10.25-10.25-10.25-10.25
			l-0.01-12.61h0.01v-2.76h-40.99v2.59h-0.01c0,40.99,40.98,41.06,40.98,41.06h20.49c40.99,0,40.99-30.82,40.99-30.82l0.01-7.71
			c0-6.83-1.83-11.83-4.5-15.5h-74.35c1.24,0.13,2,0.13,2,0.13H927.32z"/>
	</g>
	<g>
		<path class="st0" d="M175.14,204.93v-51.36h-40.99c0,22.97,0,51.36,0,51.36H175.14z"/>
	</g>
	<g>
		<path class="st0" d="M175.14,204.93v-51.36h-40.99c0,22.97,0,51.36,0,51.36H175.14z"/>
	</g>
	<g>
		<path class="st0" d="M1045.9,204.93c0.03-4.97,0.05-28.54,0.07-51.36h-41.59v51.36H1045.9z"/>
	</g>
	<g>
		<path class="st0" d="M1045.9,204.93c0.03-4.97,0.05-28.54,0.07-51.36h-41.59v51.36H1045.9z"/>
	</g>
	<g>
		<path class="st0" d="M56.36,204.93v-51.36H15.37c0,27.8,0,51.36,0,51.36H56.36z"/>
	</g>
	<g>
		<path class="st0" d="M56.36,204.93v-51.36H15.37c0,27.8,0,51.36,0,51.36H56.36z"/>
	</g>
	<g>
		<path class="st0" d="M537.95,204.93v-48.32c20.49,3.8,20.49,27.82,20.49,27.82v20.49l40.99-0.25c0-51.13-40.99-50.98-40.99-50.98
			h-19.98l0.22-0.13h-41.65c-0.04,28.05-0.07,51.36-0.07,51.36H537.95z"/>
	</g>
	<g>
		<path class="st0" d="M537.95,204.93v-48.32c20.49,3.8,20.49,27.82,20.49,27.82v20.49l40.99-0.25c0-51.13-40.99-50.98-40.99-50.98
			h-19.98l0.22-0.13h-41.65c-0.04,28.05-0.07,51.36-0.07,51.36H537.95z"/>
	</g>
	<g>
		<rect x="809.49" y="153.57" class="st0" width="40.99" height="51.36"/>
	</g>
	<g>
		<rect x="809.49" y="153.57" class="st0" width="40.99" height="51.36"/>
	</g>
	<g>
		<rect x="748.01" y="153.57" class="st0" width="40.99" height="51.36"/>
	</g>
	<g>
		<rect x="748.01" y="153.57" class="st0" width="40.99" height="51.36"/>
	</g>
	<g>
		<rect x="1265.46" y="153.57" class="st0" width="40.99" height="51.36"/>
	</g>
	<g>
		<rect x="1265.46" y="153.57" class="st0" width="40.99" height="51.36"/>
	</g>
	<g>
		<rect x="1326.94" y="153.57" class="st0" width="40.99" height="51.36"/>
	</g>
	<g>
		<rect x="1326.94" y="153.57" class="st0" width="40.99" height="51.36"/>
	</g>
	<g>
		<rect x="369.83" y="153.57" class="st0" width="40.99" height="51.36"/>
	</g>
	<g>
		<rect x="369.83" y="153.57" class="st0" width="40.99" height="51.36"/>
	</g>
	<g>
		<rect x="431.31" y="153.57" class="st0" width="40.99" height="51.36"/>
	</g>
	<g>
		<rect x="431.31" y="153.57" class="st0" width="40.99" height="51.36"/>
	</g>
	<g>
		<path class="st0" d="M660.91,207.05h20.49c40.99,0,40.99-43.1,40.99-43.1H681.4v15.37c0,0,0,10.25-10.25,10.25
			c-10.25,0-10.25-10.25-10.25-10.25v-25.75h-40.99v5.25C619.92,204.93,660.91,207.05,660.91,207.05z"/>
	</g>
	<g>
		<path class="st0" d="M660.91,207.05h20.49c40.99,0,40.99-43.1,40.99-43.1H681.4v15.37c0,0,0,10.25-10.25,10.25
			c-10.25,0-10.25-10.25-10.25-10.25v-25.75h-40.99v5.25C619.92,204.93,660.91,207.05,660.91,207.05z"/>
	</g>
	<g>
		<path class="st0" d="M1111.76,207.05h20.49c40.99,0,40.99-43.1,40.99-43.1h-40.99v15.37c0,0,0,10.25-10.25,10.25
			c-10.25,0-10.25-10.25-10.25-10.25v-25.75h-40.99v5.25C1070.78,204.93,1111.76,207.05,1111.76,207.05z"/>
	</g>
	<g>
		<path class="st0" d="M1111.76,207.05h20.49c40.99,0,40.99-43.1,40.99-43.1h-40.99v15.37c0,0,0,10.25-10.25,10.25
			c-10.25,0-10.25-10.25-10.25-10.25v-25.75h-40.99v5.25C1070.78,204.93,1111.76,207.05,1111.76,207.05z"/>
	</g>
</g>
</svg>
