<?xml version="1.0" encoding="utf-8"?>
<!-- Generator: Adobe Illustrator 25.2.2, SVG Export Plug-In . SVG Version: 6.00 Build 0)  -->
<svg version="1.1" id="Layer_1" xmlns="http://www.w3.org/2000/svg" xmlns:xlink="http://www.w3.org/1999/xlink" x="0px" y="0px"
	 viewBox="0 0 717.3 2404.98" style="enable-background:new 0 0 717.3 2404.98;" xml:space="preserve">
<style type="text/css">
	.st0{fill:url(#SVGID_1_);}
	.st1{fill:url(#SVGID_2_);}
	.st2{fill:url(#SVGID_3_);}
	.st3{fill:url(#SVGID_4_);}
	.st4{fill:url(#SVGID_5_);}
	.st5{fill:url(#SVGID_6_);}
	.st6{fill:url(#SVGID_7_);}
	.st7{fill:url(#SVGID_8_);}
	.st8{fill:url(#SVGID_9_);}
	.st9{fill:url(#SVGID_10_);}
	.st10{fill:url(#SVGID_11_);}
	.st11{fill:url(#SVGID_12_);}
	.st12{fill:url(#SVGID_13_);}
	.st13{fill:url(#SVGID_14_);}
	.st14{fill:url(#SVGID_15_);}
	.st15{fill:url(#SVGID_16_);}
	.st16{fill:url(#SVGID_17_);}
	.st17{fill:url(#SVGID_18_);}
	.st18{fill:url(#SVGID_19_);}
	.st19{fill:url(#SVGID_20_);}
	.st20{fill:url(#SVGID_21_);}
	.st21{fill:url(#SVGID_22_);}
	.st22{fill:url(#SVGID_23_);}
	.st23{fill:url(#SVGID_24_);}
	.st24{fill:url(#SVGID_25_);}
	.st25{fill:url(#SVGID_26_);}
</style>
<g>
	
		<linearGradient id="SVGID_1_" gradientUnits="userSpaceOnUse" x1="668.4954" y1="1822.3042" x2="335.4954" y2="1822.3042" gradientTransform="matrix(-1 0 0 1 694.6259 -21.7508)">
		<stop  offset="0" style="stop-color:#FFFFFF;stop-opacity:0.1"/>
		<stop  offset="1" style="stop-color:#090909;stop-opacity:0"/>
	</linearGradient>
	<path class="st0" d="M143.13,1835.82h-117v-72h108c36.82,0,36-36,36-36h9v36h180v0.37v71.63c0,0-153.93,0-171,0
		c-36.82,0-36,37.47-36,37.47h-9V1835.82z"/>
	
		<linearGradient id="SVGID_2_" gradientUnits="userSpaceOnUse" x1="551.4954" y1="2165.0388" x2="335.4954" y2="2165.0388" gradientTransform="matrix(-1 0 0 1 694.6259 -21.7508)">
		<stop  offset="0" style="stop-color:#FFFFFF;stop-opacity:0.1"/>
		<stop  offset="1" style="stop-color:#090909;stop-opacity:0"/>
	</linearGradient>
	<polygon class="st1" points="359.13,2179.29 359.13,2107.29 143.13,2107.29 143.13,2179.29 	"/>
	
		<linearGradient id="SVGID_3_" gradientUnits="userSpaceOnUse" x1="632.4954" y1="2165.0388" x2="569.4954" y2="2165.0388" gradientTransform="matrix(-1 0 0 1 694.6259 -21.7508)">
		<stop  offset="0" style="stop-color:#FFFFFF;stop-opacity:0.1"/>
		<stop  offset="1" style="stop-color:#090909;stop-opacity:0"/>
	</linearGradient>
	<polygon class="st2" points="62.13,2107.29 62.13,2179.29 125.13,2179.29 125.13,2107.29 	"/>
	
		<linearGradient id="SVGID_4_" gradientUnits="userSpaceOnUse" x1="695.4954" y1="140.0388" x2="335.4954" y2="140.0388" gradientTransform="matrix(-1 0 0 1 694.6259 -21.7508)">
		<stop  offset="0" style="stop-color:#FFFFFF;stop-opacity:0.1"/>
		<stop  offset="1" style="stop-color:#090909;stop-opacity:0"/>
	</linearGradient>
	<path class="st3" d="M134.13,208.29h-63c0,0-72,0-72-90s72-90,72-90h63h225v72h-135v63h-63v-63h-27h-63c0,0-18,0-18,18s18,18,18,18
		h63V208.29z"/>
	
		<linearGradient id="SVGID_5_" gradientUnits="userSpaceOnUse" x1="551.4954" y1="540.5388" x2="330.8321" y2="540.5388" gradientTransform="matrix(-1 0 0 1 694.6259 -21.7508)">
		<stop  offset="0" style="stop-color:#FFFFFF;stop-opacity:0.1"/>
		<stop  offset="1" style="stop-color:#090909;stop-opacity:0"/>
	</linearGradient>
	<path class="st4" d="M350.1,613.29h9.03c0-5.2,0-46.17,0-63c0-8.22-15.68-9.66-15.68-9.66s20.34-8.19,20.34-53.06
		c0-63.28-58.66-63.28-58.66-63.28h-90c0,0-72,0-72,72v18v18c0,72,72,72,72,72h108C323.13,604.29,350.1,604.29,350.1,613.29z
		 M314.13,532.29h-126c0,0-18,0-18-18s18-18,18-18h126c0,0,18,0.37,18,18.37S314.13,532.29,314.13,532.29z"/>
	
		<linearGradient id="SVGID_6_" gradientUnits="userSpaceOnUse" x1="551.4954" y1="761.0388" x2="335.4954" y2="761.0388" gradientTransform="matrix(-1 0 0 1 694.6259 -21.7508)">
		<stop  offset="0" style="stop-color:#FFFFFF;stop-opacity:0.1"/>
		<stop  offset="1" style="stop-color:#090909;stop-opacity:0"/>
	</linearGradient>
	<path class="st5" d="M143.13,775.29c0-45,36-54,36-54h-27v-72h207v72h-162c0,0-18,0-18,18s18,18,18,18h162v72h-171
		C188.13,829.29,143.13,829.29,143.13,775.29z"/>
	
		<linearGradient id="SVGID_7_" gradientUnits="userSpaceOnUse" x1="551.4954" y1="2336.0388" x2="335.4954" y2="2336.0388" gradientTransform="matrix(-1 0 0 1 694.6259 -21.7508)">
		<stop  offset="0" style="stop-color:#FFFFFF;stop-opacity:0.1"/>
		<stop  offset="1" style="stop-color:#090909;stop-opacity:0"/>
	</linearGradient>
	<path class="st6" d="M143.13,2350.29c0-45,36-54,36-54h-27v-72h207v72h-162c0,0-18,0-18,18s18,18,18,18h162v72h-171
		C188.13,2404.29,143.13,2404.29,143.13,2350.29z"/>
	
		<linearGradient id="SVGID_8_" gradientUnits="userSpaceOnUse" x1="551.4954" y1="1427.0388" x2="335.4954" y2="1427.0388" gradientTransform="matrix(-1 0 0 1 694.6259 -21.7508)">
		<stop  offset="0" style="stop-color:#FFFFFF;stop-opacity:0.1"/>
		<stop  offset="1" style="stop-color:#090909;stop-opacity:0"/>
	</linearGradient>
	<path class="st7" d="M143.13,1441.29c0-45,36-54,36-54h-27v-72h207v72h-162c0,0-18,0-18,18s18,18,18,18h162v72h-171
		C188.13,1495.29,143.13,1495.29,143.13,1441.29z"/>
	
		<linearGradient id="SVGID_9_" gradientUnits="userSpaceOnUse" x1="551.4954" y1="1202.0388" x2="331.7825" y2="1202.0388" gradientTransform="matrix(-1 0 0 1 694.6259 -21.7508)">
		<stop  offset="0" style="stop-color:#FFFFFF;stop-opacity:0.1"/>
		<stop  offset="1" style="stop-color:#090909;stop-opacity:0"/>
	</linearGradient>
	<path class="st8" d="M215.13,1270.29h45v-108h54c0,0,18,0,18,18s-18,18-18,18h-27v72c0,0,75.71,0,75.71-72v-36
		c0,0-3.71-72-84.71-72h-63c0,0-72,0-72,72v36C143.13,1270.29,215.13,1270.29,215.13,1270.29z M242.13,1198.29h-54c0,0-18,0-18-18
		s18-18,18-18h54V1198.29z"/>
	
		<linearGradient id="SVGID_10_" gradientUnits="userSpaceOnUse" x1="551.4954" y1="1994.0388" x2="331.7825" y2="1994.0388" gradientTransform="matrix(-1 0 0 1 694.6259 -21.7508)">
		<stop  offset="0" style="stop-color:#FFFFFF;stop-opacity:0.1"/>
		<stop  offset="1" style="stop-color:#090909;stop-opacity:0"/>
	</linearGradient>
	<path class="st9" d="M215.13,2062.29h45v-108h54c0,0,18,0,18,18s-18,18-18,18h-27v72c0,0,75.71,0,75.71-72v-36
		c0,0-3.71-72-84.71-72h-63c0,0-72,0-72,72v36C143.13,2062.29,215.13,2062.29,215.13,2062.29z M242.13,1990.29h-54c0,0-18,0-18-18
		s18-18,18-18h54V1990.29z"/>
	
		<linearGradient id="SVGID_11_" gradientUnits="userSpaceOnUse" x1="551.4954" y1="1652.0515" x2="331.7974" y2="1652.0515" gradientTransform="matrix(-1 0 0 1 694.6259 -21.7508)">
		<stop  offset="0" style="stop-color:#FFFFFF;stop-opacity:0.1"/>
		<stop  offset="1" style="stop-color:#090909;stop-opacity:0"/>
	</linearGradient>
	<path class="st10" d="M246.45,1675.3v-45c0-18-18-18-18-18h-13.32v-0.01h-22.32c0,0-18,0-18,18c0,0,0,0.01,0,0.01s0,0.01,0,0.01
		c0,18,18,18,18,18h27v71.33c-2.78,0.43-5.77,0.67-9,0.67l-13.54-0.01c0,0-54.13-0.01-54.13-72.01v-17.99v-17.99
		c0-72,54.13-72.01,54.13-72.01l13.54-0.01c1.49,0,2.93,0.06,4.32,0.15v-0.14h4.32c45,0,45,45,45,45v45c0,18,18,18,18,18h27
		c0,0,18,0,18-18h0c0,0,0-0.01,0-0.01c0-18-18-18-18-18h-27v-71.33c2.78-0.43,5.77-0.67,9-0.67l13.54,0.01
		c0,0,57.83-1.14,57.83,70.86v17.99v17.98c0,72-57.83,73.15-57.83,73.15l-13.54,0.01C246.45,1720.3,246.45,1675.3,246.45,1675.3z"/>
	
		<linearGradient id="SVGID_12_" gradientUnits="userSpaceOnUse" x1="551.4954" y1="333.5388" x2="335.4954" y2="333.5388" gradientTransform="matrix(-1 0 0 1 694.6259 -21.7508)">
		<stop  offset="0" style="stop-color:#FFFFFF;stop-opacity:0.1"/>
		<stop  offset="1" style="stop-color:#090909;stop-opacity:0"/>
	</linearGradient>
	<path class="st11" d="M152.13,379.29c0,0,0-72,36-72h-45v-72h216v72h-99c0,0-45,0-45,72v9h-63V379.29z"/>
	
		<linearGradient id="SVGID_13_" gradientUnits="userSpaceOnUse" x1="668.4954" y1="986.0388" x2="335.4954" y2="986.0388" gradientTransform="matrix(-1 0 0 1 694.6259 -21.7508)">
		<stop  offset="0" style="stop-color:#FFFFFF;stop-opacity:0.1"/>
		<stop  offset="1" style="stop-color:#090909;stop-opacity:0"/>
	</linearGradient>
	<path class="st12" d="M152.13,1054.29h-9v-72h9h54c0,0,36,0,36-36h-126h-90v-72h90h243v72h-72h-9l-8.98,0.9
		c-0.01-0.3-0.02-0.6-0.02-0.9v0.9v0l0.02,0c0.75,35.09,44.98,35.1,44.98,35.1h45l-0.45,72c-89.83,0-89.55-72-89.55-72v0
		C269.13,982.28,268.51,1054.29,152.13,1054.29z"/>
</g>
<g>
	<g>
		
			<linearGradient id="SVGID_14_" gradientUnits="userSpaceOnUse" x1="4.3222" y1="14503.6172" x2="103.3222" y2="14503.6172" gradientTransform="matrix(-1 0 0 -1 694.6259 16641.1172)">
			<stop  offset="0" style="stop-color:#FFFFFF;stop-opacity:0.1"/>
			<stop  offset="1" style="stop-color:#090909;stop-opacity:0"/>
		</linearGradient>
		<path class="st13" d="M634.03,2097h-2.69c2.56,9.32,3.52,23.63-13.03,27h-27l36,54h63L634.03,2097z"/>
		
			<linearGradient id="SVGID_15_" gradientUnits="userSpaceOnUse" x1="121.3222" y1="14512.6172" x2="337.3222" y2="14512.6172" gradientTransform="matrix(-1 0 0 -1 694.6259 16641.1172)">
			<stop  offset="0" style="stop-color:#FFFFFF;stop-opacity:0.1"/>
			<stop  offset="1" style="stop-color:#090909;stop-opacity:0"/>
		</linearGradient>
		<path class="st14" d="M507.3,2079h-2.75c2.75,10.66,3,27-21.25,27c-36,0-126,0-126,0v72h216L507.3,2079z"/>
	</g>
	
		<linearGradient id="SVGID_16_" gradientUnits="userSpaceOnUse" x1="121.3222" y1="16123.6172" x2="341.9856" y2="16123.6172" gradientTransform="matrix(-1 0 0 -1 694.6259 16641.1172)">
		<stop  offset="0" style="stop-color:#FFFFFF;stop-opacity:0.1"/>
		<stop  offset="1" style="stop-color:#090909;stop-opacity:0"/>
	</linearGradient>
	<path class="st15" d="M393.3,603.37l144-0.37l36-72l-72-108h-90c0,0-58.66,0-58.66,63.28c0,44.87,20.34,53.06,20.34,53.06
		s-15.68,1.44-15.68,9.66c0,16.83,0,57.8,0,63h9.03C366.33,603,393.3,603.37,393.3,603.37z M402.3,531c0,0-18,0.37-18-17.63
		s18-18.37,18-18.37h144l-18,36H402.3z"/>
	
		<linearGradient id="SVGID_17_" gradientUnits="userSpaceOnUse" x1="121.3222" y1="15012.123" x2="342.0004" y2="15012.123" gradientTransform="matrix(-1 0 0 -1 694.6259 16641.1172)">
		<stop  offset="0" style="stop-color:#FFFFFF;stop-opacity:0.1"/>
		<stop  offset="1" style="stop-color:#090909;stop-opacity:0"/>
	</linearGradient>
	<path class="st16" d="M519.3,1719h18l36-72l-72-108h-9c-45,0-45,45-45,45v45c0,18-18,18-18,18h-27c0,0-18,0-18-18s18-18,18-18
		l22.14-0.01v0.01h4.86v-72h-4.54v-0.01c-72,0-72.13,71.99-72.13,71.99v36c0,72,54.13,72.01,54.13,72.01l13.54,0.01
		c45,0,45-45,45-45v-45c0-18,18-18,18-18h63l-9,36h-58.5L519.3,1719z"/>
	
		<linearGradient id="SVGID_18_" gradientUnits="userSpaceOnUse" x1="121.3222" y1="16329.7852" x2="337.3222" y2="16329.7852" gradientTransform="matrix(-1 0 0 -1 694.6259 16641.1172)">
		<stop  offset="0" style="stop-color:#FFFFFF;stop-opacity:0.1"/>
		<stop  offset="1" style="stop-color:#090909;stop-opacity:0"/>
	</linearGradient>
	<path class="st17" d="M552.22,370.23l-62.57-62.57h83.66l-66-99h-2.75c2.75,10.66,3,27-21.25,27c-36,0-126,0-126,0v72h114.65
		c5.04,3.1,33.13,23.1-6.65,62.88L508.76,414L552.22,370.23z"/>
	
		<linearGradient id="SVGID_19_" gradientUnits="userSpaceOnUse" x1="4.3222" y1="14840.3828" x2="337.3222" y2="14840.3828" gradientTransform="matrix(-1 0 0 -1 694.6259 16641.1172)">
		<stop  offset="0" style="stop-color:#FFFFFF;stop-opacity:0.1"/>
		<stop  offset="1" style="stop-color:#090909;stop-opacity:0"/>
	</linearGradient>
	<path class="st18" d="M573.3,1836h117l-56.28-81h-2.69c2.56,9.32,3.52,23.63-13.03,27h-18c-36.82,0-36.82-54-36.82-54h-8.18v36.37
		h-198v72.94c16.75,0.08,153.93,0.16,171,0.16c36.82,0,36,36,36,36h9V1836z"/>
	
		<linearGradient id="SVGID_20_" gradientUnits="userSpaceOnUse" x1="-22.6778" y1="16524.1172" x2="337.3222" y2="16524.1172" gradientTransform="matrix(-1 0 0 -1 694.6259 16641.1172)">
		<stop  offset="0" style="stop-color:#FFFFFF;stop-opacity:0.1"/>
		<stop  offset="1" style="stop-color:#090909;stop-opacity:0"/>
	</linearGradient>
	<path class="st19" d="M510.73,99H690.3l-18,36h-63l-27,36l31.5,63h1.88c-1.46-10.66,2.24-27,38.62-27h27l36-72l-90-135h-2.75
		c2.75,10.66,3,27-21.25,27c-5.5,0-246,0-246,0v72h135.74c5.04,3.1,33.13,23.1-6.65,62.88l43.46,43.46l43.46-43.77L510.73,99z"/>
	
		<linearGradient id="SVGID_21_" gradientUnits="userSpaceOnUse" x1="4.3222" y1="15682.6172" x2="337.3222" y2="15682.6172" gradientTransform="matrix(-1 0 0 -1 694.6259 16641.1172)">
		<stop  offset="0" style="stop-color:#FFFFFF;stop-opacity:0.1"/>
		<stop  offset="1" style="stop-color:#090909;stop-opacity:0"/>
	</linearGradient>
	<path class="st20" d="M510.3,1071l63-54l-53.91-72H690.3l-57.01-99h-1.84c2.82,10.65,3.31,27.3-21.17,27.3
		c-36,0-252.98-0.3-252.98-0.3v72h84.88c-6.68,35.99-48.88,36-48.88,36h-36l0.45,72c89.83,0,89.55-72,89.55-72v-35.1l63,107.1V1071z
		 M451.89,945h58.81c4.04,11.65,6.6,29.34-9.4,36C484.11,988.16,469.09,968.37,451.89,945z"/>
	
		<linearGradient id="SVGID_22_" gradientUnits="userSpaceOnUse" x1="121.3222" y1="15250.6172" x2="337.3222" y2="15250.6172" gradientTransform="matrix(-1 0 0 -1 694.6259 16641.1172)">
		<stop  offset="0" style="stop-color:#FFFFFF;stop-opacity:0.1"/>
		<stop  offset="1" style="stop-color:#090909;stop-opacity:0"/>
	</linearGradient>
	<path class="st21" d="M573.3,1458l-27-72l27-36l-31.5-63h-1.88c1.46,10.66-2.24,27-38.62,27h-144v72h180c9,36-18,36-18,36h-162v72
		h180L573.3,1458z"/>
	
		<linearGradient id="SVGID_23_" gradientUnits="userSpaceOnUse" x1="121.3222" y1="14341.6172" x2="337.3222" y2="14341.6172" gradientTransform="matrix(-1 0 0 -1 694.6259 16641.1172)">
		<stop  offset="0" style="stop-color:#FFFFFF;stop-opacity:0.1"/>
		<stop  offset="1" style="stop-color:#090909;stop-opacity:0"/>
	</linearGradient>
	<path class="st22" d="M573.3,2367l-27-72l27-36l-31.5-63h-1.88c1.46,10.66-2.24,27-38.62,27h-144v72h180c9,36-18,36-18,36h-162v72
		h180L573.3,2367z"/>
	
		<linearGradient id="SVGID_24_" gradientUnits="userSpaceOnUse" x1="121.3222" y1="15914.9531" x2="337.3222" y2="15914.9531" gradientTransform="matrix(-1 0 0 -1 694.6259 16641.1172)">
		<stop  offset="0" style="stop-color:#FFFFFF;stop-opacity:0.1"/>
		<stop  offset="1" style="stop-color:#090909;stop-opacity:0"/>
	</linearGradient>
	<path class="st23" d="M573.3,793.66l-27-72l27-36l-31.5-63h-1.88c1.46,10.66-2.24,27-38.62,27h-144v72h180c9,36-18,36-18,36h-162
		v72h180L573.3,793.66z"/>
	
		<linearGradient id="SVGID_25_" gradientUnits="userSpaceOnUse" x1="121.3222" y1="15462.1172" x2="341.0351" y2="15462.1172" gradientTransform="matrix(-1 0 0 -1 694.6259 16641.1172)">
		<stop  offset="0" style="stop-color:#FFFFFF;stop-opacity:0.1"/>
		<stop  offset="1" style="stop-color:#090909;stop-opacity:0"/>
	</linearGradient>
	<path class="st24" d="M453.3,1197l48,72h36l36-72l-72-108h-63c-81,0-84.71,72-84.71,72v36c0,72,75.71,72,75.71,72v-72h-27
		c0,0-18,0-18-18s18-18,18-18h50.97L453.3,1197z M528.3,1197h-44.97c-17.53,0-18.03-36-18.03-36h81L528.3,1197z"/>
	
		<linearGradient id="SVGID_26_" gradientUnits="userSpaceOnUse" x1="121.3222" y1="14670.1172" x2="341.0351" y2="14670.1172" gradientTransform="matrix(-1 0 0 -1 694.6259 16641.1172)">
		<stop  offset="0" style="stop-color:#FFFFFF;stop-opacity:0.1"/>
		<stop  offset="1" style="stop-color:#090909;stop-opacity:0"/>
	</linearGradient>
	<path class="st25" d="M453.3,1989l48,72h36l36-72l-72-108h-63c-81,0-84.71,72-84.71,72v36c0,72,75.71,72,75.71,72v-72h-27
		c0,0-18,0-18-18s18-18,18-18h50.97L453.3,1989z M528.3,1989h-44.97c-17.53,0-18.03-36-18.03-36h81L528.3,1989z"/>
</g>
</svg>
