<?xml version="1.0" encoding="utf-8"?>
<!-- Generator: Adobe Illustrator 25.2.2, SVG Export Plug-In . SVG Version: 6.00 Build 0)  -->
<svg version="1.1" id="Layer_1" xmlns="http://www.w3.org/2000/svg" xmlns:xlink="http://www.w3.org/1999/xlink" x="0px" y="0px"
	 viewBox="0 0 234 361" style="enable-background:new 0 0 234 361;" xml:space="preserve">
<style type="text/css">
	.st0{fill:#FFFFFF;}
</style>
<path class="st0" d="M171,136l63-31.5v-1.88c-10.66,1.46-27-2.24-27-38.62V37L135,1L0,91v2.75c10.66-2.75,27-3,27,21.25
	c0,3.43,0,70.19,0,120c0,30.09,0,54,0,54c0,30.32-16.34,36.12-27,36.69v3.81L63,361l36-27v-45v-9v-45v-9.74
	c3.1-5.04,23.1-33.13,62.88,6.65l43.46-43.46L161.57,145L99,207.57V28l36,18v63L171,136z"/>
</svg>
