<?xml version="1.0" encoding="utf-8"?>
<!-- Generator: Adobe Illustrator 25.2.3, SVG Export Plug-In . SVG Version: 6.00 Build 0)  -->
<svg version="1.1" id="Layer_1" xmlns="http://www.w3.org/2000/svg" xmlns:xlink="http://www.w3.org/1999/xlink" x="0px" y="0px"
	 viewBox="0 0 1920 240.9" style="enable-background:new 0 0 1920 240.9;" xml:space="preserve">
<style type="text/css">
	.st0{opacity:0;}
	.st1{fill:none;stroke:#FF3000;stroke-miterlimit:10;}
	.st2{fill:#FFFFFF;}
</style>
<g>
	<path d="M1732.95-3799.62l-23.19,8.7l-11.6-8.7l-20.3,10.15v0.6c3.44-0.47,8.7,0.72,8.7,12.44v46.39h23.19v-57.99
		c11.6-2.9,11.6,5.8,11.6,5.8v52.19h23.19v-57.99L1732.95-3799.62z"/>
	<path d="M377.47-3774.62l-8.9-18.2l-6.25-3.2l-7.03-3.6l-16.61,16.99c0,0,6.64-3.4,9.97,3.4l14.25,29.15
		c-1.95,1.07-4.23,1.93-6.51,1.93h-15.1v18.12h15.1l8.25-16.49l8.06,16.49h26.58l-20.76-42.47c2.29-1.57,5.43-3.19,8.56-3.19h15.1
		v-18.12h-15.1L377.47-3774.62z"/>
	<path d="M283.3-3782.22v-5.8l-23.19-11.6l-34.79,23.19v2.9c0,14.5,14.5,14.5,14.5,14.5h14.5c5.8,0,5.8,5.8,5.8,5.8v8.7
		c0,0,0,5.8-5.8,5.8c-5.8,0-5.8-5.8-5.8-5.8l0-7.13h0v-1.56h-23.19v1.46h0c0,23.19,23.19,23.24,23.19,23.24h11.6
		c23.19,0,23.2-17.44,23.2-17.44l0-4.36c0-14.5-14.5-14.5-14.5-14.5h-14.5c-5.8,0-5.8-5.8-5.8-5.8v-20.3l11.6,2.9v18.85
		L283.3-3782.22z"/>
	<path d="M596.42-3799.62l-34.79,23.19v34.79l11.6,11.6l23.19-8.7v40.59c0,0,0,5.8-5.8,5.8c-5.8,0-5.8-5.8-5.8-5.8v-17.4h-23.19v8.7
		c0,0,0,23.19,23.19,23.19h11.6c23.19,0,23.19-23.19,23.19-23.19v-46.39v-34.79L596.42-3799.62z M596.42-3741.63
		c-11.6,2.9-11.6-5.8-11.6-5.8v-43.49l11.6,5.8V-3741.63z"/>
	<g>
		<path d="M883.45-3819.18v0.87c3-0.82,7.61-1.13,8.7,4.2v8.7l17.4-11.6v-20.3L883.45-3819.18z"/>
		<path d="M877.65-3778.35v0.89c3.44-0.89,8.7-0.97,8.7,6.84c0,11.6,0,40.59,0,40.59h23.19v-69.58L877.65-3778.35z"/>
	</g>
	<g>
		<path d="M521.04-3819.18v0.87c3-0.82,7.61-1.13,8.7,4.2v8.7l17.4-11.6v-20.3L521.04-3819.18z"/>
		<path d="M515.24-3778.35v0.89c3.44-0.89,8.7-0.97,8.7,6.84c0,11.6,0,40.59,0,40.59h23.19v-69.58L515.24-3778.35z"/>
	</g>
	<g>
		<path d="M297.79-3819.18v0.87c3-0.82,7.61-1.13,8.7,4.2v8.7l17.4-11.6v-20.3L297.79-3819.18z"/>
		<path d="M291.99-3778.35v0.89c3.44-0.89,8.7-0.97,8.7,6.84c0,11.6,0,40.59,0,40.59h23.19v-69.58L291.99-3778.35z"/>
	</g>
	<g>
		<path d="M1422.72-3819.18v0.87c3-0.82,7.61-1.13,8.7,4.2v8.7l17.4-11.6v-20.3L1422.72-3819.18z"/>
		<path d="M1416.92-3777.47c3.44-0.89,8.7-0.97,8.7,6.84c0,0.47,0,72.48,0,72.48s0,5.8-5.8,5.8c-5.8,0-5.8-5.8-5.8-5.8v-17.4h-23.19
			v8.7c0,0,0,23.19,23.19,23.19h11.6c23.19,0,23.19-23.19,23.19-23.19v-92.78l-31.89,21.26V-3777.47z"/>
	</g>
	<path d="M1669.28-3741.63l-0.12-46.39l-23.19-11.6l-34.79,23.19v28.99c0,0,0,18.9,20.38,18.9c14.45,0,17.09-6.55,17.09-6.55
		s0.46,5.05,3.11,5.05c5.42,0,18.62,0,20.3,0v-2.91C1669.16-3732.94,1669.28-3741.63,1669.28-3741.63z M1645.97-3744.53
		c0,0,0.12,5.8-5.68,5.8s-5.92-5.8-5.92-5.8v-46.39l11.6,5.8V-3744.53z"/>
	<path d="M1521.42-3741.63l-0.12-46.39l-23.19-11.6l-34.79,23.19v28.99c0,0,0,18.9,20.38,18.9c14.45,0,17.09-6.55,17.09-6.55
		s0.46,5.05,3.11,5.05c5.42,0,18.62,0,20.3,0v-2.91C1521.3-3732.94,1521.42-3741.63,1521.42-3741.63z M1498.1-3744.53
		c0,0,0.12,5.8-5.68,5.8c-5.8,0-5.92-5.8-5.92-5.8v-46.39l11.6,5.8V-3744.53z"/>
	<path d="M1100.9-3779.46v-57.85l11.6,5.8v20.29l11.6,8.7l20.3-10.15v-0.6c-3.44,0.47-8.7-0.72-8.7-12.44v-8.7l-23.19-11.6
		l-43.49,28.99v0.89c3.44-0.89,8.7-0.97,8.7,6.84c0,1.77,0,79.25,0,79.25h23.19v-43.73c1-1.62,7.44-10.67,20.26,2.14l14-14l-14.1-14
		L1100.9-3779.46z"/>
	<path d="M918.24-3827.64v0.89c3.44-0.89,8.7-0.97,8.7,6.84c0,11.6,0,89.88,0,89.88h23.19v-118.87L918.24-3827.64z"/>
	<path d="M1361.84-3799.62l-25.32,9.47l-9.47-9.47l-23.19,8.7l-11.6-8.7l-20.3,10.15v0.6c3.44-0.47,8.7,0.72,8.7,12.44v46.39h23.19
		v-57.99c11.6-2.9,11.6,5.8,11.6,5.8v52.19h23.19v-57.99c11.6-2.9,11.6,5.8,11.6,5.8v52.19h23.19v-57.99L1361.84-3799.62z"/>
	<path d="M695-3827.64v0.89c3.44-0.89,8.7,1.93,8.7,9.74c0,8.28,0,25.13,0,25.13l-11.6-7.73l-23.19,11.6l0,40.59
		c0,0-0.12,18.9,20.27,18.9c14.45,0,14.52-10.2,14.52-10.2l0,0c0,2.78,0,5.68,0,8.7h23.19v-118.87L695-3827.64z M703.69-3759.03
		c0,4.42,0,9.23,0,14.5c0,0,0,5.8-5.8,5.8c-5.8,0-5.8-5.8-5.8-5.8v-14.5v-4.77h0v-21.32l11.6-5.8c0,6.35,0,14.94,0,27.12
		C703.69-3762.26,703.69-3760.67,703.69-3759.03z"/>
	<path d="M483.35-3799.62l-11.6,7.73v-57.02l-31.89,21.26v0.89c3.44-0.89,8.7,1.93,8.7,9.74c0,6.43,0,86.98,0,86.98h23.19v-8.7l0,0
		c0,0,0.07,10.2,14.52,10.2c20.38,0,20.27-18.9,20.27-18.9l0-40.59L483.35-3799.62z M483.35-3744.53c0,0,0,5.8-5.8,5.8
		s-5.8-5.8-5.8-5.8v-46.39l11.6,5.8L483.35-3744.53z"/>
	<path d="M776.18-3760.96l23.19-15.46v-11.6l-23.19-11.6l-34.79,23.19v20.3c0,26.09,23.19,27.29,23.19,27.29h11.6
		c23.19,0,23.19-24.39,23.19-24.39h-23.19v8.7c0,0,0,5.8-5.8,5.8s-5.8-5.8-5.8-5.8v-16.42L776.18-3760.96z M776.18-3785.12v14.49
		c0,5.65-11.6,5.81-11.6,5.81v-26.09L776.18-3785.12z"/>
	<path d="M1022.62-3782.22v-5.8l-23.19-11.6l-34.79,23.19v2.9c0,14.5,14.5,14.5,14.5,14.5h14.5c5.8,0,5.8,5.8,5.8,5.8v8.7
		c0,0,0,5.8-5.8,5.8s-5.8-5.8-5.8-5.8l0-7.13h0v-1.56h-23.19v1.46h0c0,23.19,23.19,23.24,23.19,23.24h11.6
		c23.19,0,23.2-17.44,23.2-17.44l0-4.36c0-14.5-14.5-14.5-14.5-14.5h-14.5c-5.8,0-5.8-5.8-5.8-5.8v-20.3l11.6,2.9v18.85
		L1022.62-3782.22z"/>
	<path d="M1573.48-3799.62l-11.6,7.73v-10.63l-31.89,21.26v0.89c3.44-0.89,8.7-0.97,8.7,6.84c0,3.04,0,89.88,0,89.88h23.19v-46.39
		h11.6c23.19,0,23.19-23.19,23.19-23.19v-34.79L1573.48-3799.62z M1573.48-3744.53c0,0,0,5.8-5.8,5.8s-5.8-5.8-5.8-5.8v-46.39
		l11.6,5.8V-3744.53z"/>
	<path d="M1188.27-3792.82l-20.16,20.16v-26.95l-31.89,21.26v0.89c3.44-0.89,8.7-0.97,8.7,6.84c0,11.6,0,40.59,0,40.59h23.19v-36.93
		c1-1.62,7.44-10.67,20.26,2.14l14-14L1188.27-3792.82z"/>
	<path d="M857.85-3799.08l-14,14c0,0,16.23,11.44,13.54,22.98l-5.84,23.37l-14.5-20.3v-31.89l-11.6-8.7l-20.3,10.15v0.6
		c3.44-0.47,8.7,0.72,8.7,12.44h0.04l-0.04,23.19l17.4,23.19l24.02-0.11l16.54-54.87L857.85-3799.08z"/>
	<path d="M1242.96-3799.62l-34.79,23.19v24.58c0,0,0,23.19,23.19,23.19h5.8h5.8c23.19,0,23.19-23.19,23.19-23.19v-36.17
		L1242.96-3799.62z M1242.96-3743.15c0,0,0,5.8-5.8,5.8c-5.8,0-5.8-5.8-5.8-5.8v-47.77l11.6,5.8V-3743.15z"/>
</g>
<g>
	<g>
		<path d="M296.11-3586.76v0.87c3-0.82,7.61-1.13,8.7,4.2v8.7l17.4-11.6v-20.29L296.11-3586.76z"/>
		<path d="M290.31-3545.93v0.89c3.44-0.89,8.7-0.97,8.7,6.84c0,11.6,0,40.59,0,40.59h23.19v-69.58L290.31-3545.93z"/>
	</g>
	<path d="M1656.47-3509.21l-0.12-46.39l-23.19-11.6l-34.79,23.19v28.99c0,0,0,18.9,20.38,18.9c14.45,0,17.09-6.55,17.09-6.55
		s0.46,5.05,3.11,5.05c5.42,0,18.62,0,20.3,0v-2.91C1656.35-3500.52,1656.47-3509.21,1656.47-3509.21z M1633.16-3512.11
		c0,0,0.12,5.8-5.68,5.8s-5.92-5.8-5.92-5.8v-46.39l11.6,5.8V-3512.11z"/>
	<path d="M394.68-3544v-11.6l-23.19-11.6L336.7-3544v20.3c0,26.09,23.19,27.6,23.19,27.6h11.6c23.19,0,23.19-24.7,23.19-24.7h-23.19
		v8.7c0,0,0,5.8-5.8,5.8c-5.8,0-5.8-5.8-5.8-5.8v-46.39l11.6,5.8v24.16L394.68-3544z"/>
	<path d="M653.19-3547.04v-57.85l11.6,5.8v20.3l11.6,8.7l20.3-10.15v-0.6c-3.44,0.47-8.7-0.72-8.7-12.44v-8.7l-23.19-11.6
		l-43.49,28.99v0.89c3.44-0.89,8.7-0.97,8.7,6.84c0,1.77,0,79.25,0,79.25h23.19v-43.73c1-1.62,7.44-10.67,20.26,2.14l14-14l-14.1-14
		L653.19-3547.04z"/>
	<path d="M1096.79-3567.19l-20.3,12.92v-62.2l-31.89,21.26v0.89c3.44-0.89,8.7-0.97,8.7,6.84c0,11.6,0,89.88,0,89.88h23.19v-51.83
		c5.8-1.81,11.6-1.81,11.6,5.44v46.39h23.19V-3544h5.8L1096.79-3567.19z"/>
	<path d="M472.96-3546.9l-17.4-20.3l-23.19,17.37v-55.06l-31.89,18.36v0.59c3.43-0.91,8.79-1.07,8.79,6.82c0,11.6-0.1,81.5-0.1,81.5
		h23.19v-27.34c11.59,2.15,11.6,15.75,11.6,15.75v11.6l23.19-0.14c0-28.94-23.19-28.85-23.19-28.85h-11.31l34.5-20.29H472.96z
		 M432.37-3528.08v-18.94c3.75-1.3,9.45-2.13,11.6,3.03C446.28-3538.46,439.9-3533.62,432.37-3528.08z"/>
	<path d="M472.96-3595.22v0.89c3.44-0.89,8.7-0.97,8.7,6.84c0,11.6,0,89.88,0,89.88h23.19v-118.87L472.96-3595.22z"/>
	<path d="M1665.05-3595.22v0.89c3.44-0.89,8.7-0.97,8.7,6.84c0,11.6,0,89.88,0,89.88h23.19v-118.87L1665.05-3595.22z"/>
	<path d="M185.93-3567.19L151.14-3544v23.19c0,23.19,23.19,23.19,23.19,23.19h11.6v46.39h23.19v-104.38L185.93-3567.19z
		 M185.93-3512.11c0,0,0,5.8-5.8,5.8c-5.8,0-5.8-5.8-5.8-5.8v-46.39l11.6,5.8V-3512.11z"/>
	<path d="M554.14-3567.19v57.99c-11.6,2.9-11.6-5.8-11.6-5.8v-43.49v-0.97L519.35-3544v34.79l11.6,11.6l23.19-8.7v40.59
		c0,0,0,5.8-5.8,5.8c-5.8,0-5.8-5.8-5.8-5.8v-17.4h-23.19v8.7c0,0,0,23.19,23.19,23.19h5.8h5.8c23.19,0,23.19-23.19,23.19-23.19
		v-81.18L554.14-3567.19z"/>
	<path d="M281.61-3555.6l-23.19-11.59l0.07,55.09c0,0,0,5.8-5.8,5.8s-5.8-5.8-5.8-5.8l-0.07-47.36L223.62-3544l0.07,29
		c0,0-0.12,18.9,20.27,18.9c14.45,0,14.52-10.21,14.52-10.21l0,0v8.7h23.19L281.61-3555.6z"/>
	<path d="M1790.52-3505.61c-1.8,3.31-6.1,5.43-9.52,6.65l27.53-47.44c3.79-6.55,10.18-2.69,10.18-2.69l-15.39-18.11l-13.73,5.85
		c-11.63,0.23-22.76-5.83-22.76-5.83l-14.33,26.36l14.7,8l11.2-20.58c1.9-3.5,6.78-5.53,10.42-6.61l-36.2,62.4h52.59l11.2-20.58
		l-14.7-8L1790.52-3505.61z"/>
	<path d="M1737.53-3567.19v-37.69l-26.09,18.13v0.87c3-0.82,7.61-1.13,8.7,4.2v5.8c0,11.86-17.4,11.86-17.4,11.86v2.64h11.72v63.78
		h23.5c0.03-5.4,0.05-49.59,0.05-55.09c0-11.86,11.6-11.6,11.6-11.6v-2.9H1737.53z"/>
	<path d="M1372.22-3567.19v-37.69l-26.09,18.13v0.87c3-0.82,7.61-1.13,8.7,4.2v5.8c0,11.86-17.4,11.86-17.4,11.86v2.64h11.72v63.78
		h23.5c0.03-5.4,0.05-49.59,0.05-55.09c0-11.86,11.6-11.6,11.6-11.6v-2.9H1372.22z"/>
	<path d="M1001.11-3567.19v-37.69l-26.09,18.13v0.87c3-0.82,7.61-1.13,8.7,4.2v5.8c0,11.86-17.4,11.86-17.4,11.86v2.64h11.72v63.78
		h23.5c0.03-5.4,0.05-49.59,0.05-55.09c0-11.86,11.6-11.6,11.6-11.6v-2.9H1001.11z"/>
	<path d="M1578.6-3566.66l-14,14c0,0,16.23,11.44,13.54,22.98l-5.84,23.37l-14.5-20.3v-31.89l-11.6-8.7l-20.33,10.16v0.59
		c3.43-0.48,8.73,0.68,8.73,12.44h0.04l-0.03,14.5h-0.05c0,0.02,0.02,0.03,0.05,0.04l-0.02,8.66l4.87,6.49l-2,8.01l-14.5-20.3
		v-31.89l-11.6-8.7l-20.3,10.15v0.6c3.44-0.47,8.7,0.72,8.7,12.44h0.04l-0.04,23.19l17.4,23.19l24.02-0.11l3.07-10.19l7.73,10.31
		l24.02-0.11l16.54-54.87L1578.6-3566.66z"/>
	<path d="M1282.87-3566.66l-14,14c0,0,16.23,11.44,13.54,22.98l-5.84,23.37l-14.5-20.3v-31.89l-11.6-8.7l-20.33,10.16v0.59
		c3.43-0.48,8.73,0.68,8.73,12.44h0.04l-0.03,14.5h-0.05c0,0.02,0.02,0.03,0.05,0.04l-0.02,8.66l4.87,6.49l-2,8.01l-14.5-20.3
		v-31.89l-11.6-8.7l-20.3,10.15v0.6c3.44-0.47,8.7,0.72,8.7,12.44h0.04l-0.04,23.19l17.4,23.19l24.02-0.11l3.07-10.19l7.73,10.31
		l24.02-0.11l16.54-54.87L1282.87-3566.66z"/>
	<path d="M1163.47-3567.19l-34.79,23.19v24.58c0,0,0,23.19,23.19,23.19h5.8h5.8c23.19,0,23.19-23.19,23.19-23.19v-36.17
		L1163.47-3567.19z M1163.47-3510.73c0,0,0,5.8-5.8,5.8s-5.8-5.8-5.8-5.8v-47.77l11.6,5.8V-3510.73z"/>
	<path d="M937.32-3567.19L902.53-3544v24.58c0,0,0,23.19,23.19,23.19h5.8h5.8c23.19,0,23.19-23.19,23.19-23.19v-36.17
		L937.32-3567.19z M937.32-3510.73c0,0,0,5.8-5.8,5.8c-5.8,0-5.8-5.8-5.8-5.8v-47.77l11.6,5.8V-3510.73z"/>
	<path d="M864.84-3567.19L830.05-3544v34.79l11.6,11.6l23.19-8.7v40.59c0,0,0,5.8-5.8,5.8c-5.8,0-5.8-5.8-5.8-5.8v-17.4h-23.19v8.7
		c0,0,0,23.19,23.19,23.19h11.6c23.19,0,23.19-23.19,23.19-23.19v-46.39v-34.79L864.84-3567.19z M864.84-3509.21
		c-11.6,2.9-11.6-5.8-11.6-5.8v-43.49l11.6,5.8V-3509.21z"/>
	<path d="M809.62-3560.4l-20.16,20.16v-26.95l-31.89,21.26v0.89c3.44-0.89,8.7-0.97,8.7,6.84c0,11.6,0,40.59,0,40.59h23.19v-36.93
		c1-1.62,7.44-10.67,20.26,2.14l14-14L809.62-3560.4z"/>
	<path d="M725.68-3567.19L690.88-3544v24.58c0,0,0,23.19,23.19,23.19h5.8h5.8c23.19,0,23.19-23.19,23.19-23.19v-36.17
		L725.68-3567.19z M725.68-3510.73c0,0,0,5.8-5.8,5.8s-5.8-5.8-5.8-5.8v-47.77l11.6,5.8V-3510.73z"/>
	<path d="M1424.41-3567.19l-34.79,23.19v24.58c0,0,0,23.19,23.19,23.19h5.8h5.8c23.19,0,23.19-23.19,23.19-23.19v-36.17
		L1424.41-3567.19z M1424.41-3510.73c0,0,0,5.8-5.8,5.8c-5.8,0-5.8-5.8-5.8-5.8v-47.77l11.6,5.8V-3510.73z"/>
</g>
<g>
	<path d="M1035.9-2242.23l-23.19,8.7l-11.6-8.7l-20.3,10.15v0.6c3.44-0.47,8.7,0.72,8.7,12.44v46.39h23.19v-57.99
		c11.6-2.9,11.6,5.8,11.6,5.8v52.19h23.19v-57.99L1035.9-2242.23z"/>
	<path d="M812.65-2242.23l-23.19,8.7l-11.6-8.7l-20.3,10.15v0.6c3.44-0.47,8.7,0.72,8.7,12.44v46.39h23.19v-57.99
		c11.6-2.9,11.6,5.8,11.6,5.8v52.19h23.19v-57.99L812.65-2242.23z"/>
	<path d="M873.54-2242.23l-34.79,23.19v34.79l11.6,11.6l23.19-8.7v40.59c0,0,0,5.8-5.8,5.8c-5.8,0-5.8-5.8-5.8-5.8v-17.4h-23.19v8.7
		c0,0,0,23.19,23.19,23.19h11.6c23.19,0,23.19-23.19,23.19-23.19v-46.39v-34.79L873.54-2242.23z M873.54-2184.25
		c-11.6,2.9-11.6-5.8-11.6-5.8v-43.49l11.6,5.8V-2184.25z"/>
	<g>
		<path d="M946.02-2261.79v0.87c3-0.82,7.61-1.13,8.7,4.2v8.7l17.4-11.6v-20.29L946.02-2261.79z"/>
		<path d="M940.22-2220.97v0.89c3.44-0.89,8.7-0.97,8.7,6.84c0,11.6,0,40.59,0,40.59h23.19v-69.58L940.22-2220.97z"/>
	</g>
	<g>
		<path d="M722.78-2261.79v0.87c3-0.82,7.61-1.13,8.7,4.2v8.7l17.4-11.6v-20.29L722.78-2261.79z"/>
		<path d="M716.98-2220.97v0.89c3.44-0.89,8.7-0.97,8.7,6.84c0,11.6,0,40.59,0,40.59h23.19v-69.58L716.98-2220.97z"/>
	</g>
	<path d="M589.53-2184.25l-0.12-46.39l-23.19-11.6l-34.79,23.19v28.99c0,0,0,18.9,20.38,18.9c14.45,0,17.09-6.55,17.09-6.55
		s0.46,5.05,3.11,5.05c5.42,0,18.62,0,20.3,0v-2.91C589.41-2175.56,589.53-2184.25,589.53-2184.25z M566.21-2187.14
		c0,0,0.12,5.8-5.68,5.8s-5.92-5.8-5.92-5.8v-46.39l11.6,5.8V-2187.14z"/>
	<path d="M1186.66-2242.23l-20.3,12.92v-62.2l-31.89,21.26v0.89c3.44-0.89,8.7-0.97,8.7,6.84c0,11.6,0,89.88,0,89.88h23.19v-51.83
		c5.8-1.81,11.6-1.81,11.6,5.44v46.39h23.19v-46.39h5.8L1186.66-2242.23z"/>
	<path d="M711.18-2221.94l-17.4-20.29l-23.19,17.37v-55.06l-31.89,18.36v0.59c3.43-0.91,8.79-1.07,8.79,6.82
		c0,11.6-0.1,81.5-0.1,81.5h23.19v-27.34c11.59,2.15,11.6,15.75,11.6,15.75v11.6l23.19-0.14c0-28.94-23.19-28.85-23.19-28.85h-11.31
		l34.5-20.3H711.18z M670.59-2203.12v-18.94c3.75-1.3,9.45-2.13,11.6,3.03C684.49-2213.5,678.12-2208.66,670.59-2203.12z"/>
	<path d="M598.11-2270.26v0.89c3.44-0.89,8.7-0.97,8.7,6.84c0,11.6,0,89.88,0,89.88H630v-118.87L598.11-2270.26z"/>
	<path d="M1250.45-2203.57l23.19-15.46v-11.6l-23.19-11.6l-34.79,23.19v20.3c0,26.09,23.19,27.29,23.19,27.29h11.6
		c23.19,0,23.19-24.39,23.19-24.39h-23.19v8.7c0,0,0,5.8-5.8,5.8s-5.8-5.8-5.8-5.8v-16.42L1250.45-2203.57z M1250.45-2227.73v14.49
		c0,5.65-11.6,5.81-11.6,5.81v-26.09L1250.45-2227.73z"/>
	<path d="M1363.84-2180.65c-1.8,3.31-6.1,5.43-9.52,6.65l27.53-47.44c3.79-6.55,10.18-2.69,10.18-2.69l-15.39-18.11l-13.73,5.85
		c-11.63,0.23-22.76-5.83-22.76-5.83l-14.33,26.36l14.7,8l11.2-20.58c1.9-3.5,6.78-5.53,10.42-6.61l-36.2,62.4h52.59l11.2-20.58
		l-14.7-8L1363.84-2180.65z"/>
	<path d="M1122.88-2242.23v-37.69l-26.09,18.13v0.87c3-0.82,7.61-1.13,8.7,4.2v5.8c0,11.86-17.4,11.86-17.4,11.86v2.64h11.72v63.78
		h23.5c0.03-5.4,0.05-49.59,0.05-55.09c0-11.86,11.6-11.6,11.6-11.6v-2.9H1122.88z"/>
	<path d="M511.66-2241.7l-14,14c0,0,16.23,11.44,13.54,22.98l-5.84,23.37l-14.5-20.3v-31.89l-11.6-8.7l-20.33,10.16v0.59
		c3.43-0.48,8.73,0.68,8.73,12.44h0.04l-0.03,14.5h-0.05c0,0.02,0.02,0.03,0.05,0.04l-0.02,8.66l4.87,6.49l-2,8.01l-14.5-20.3
		v-31.89l-11.6-8.7l-20.3,10.15v0.6c3.44-0.47,8.7,0.72,8.7,12.44h0.04l-0.04,23.19l17.4,23.19l24.02-0.11l3.07-10.19l7.73,10.31
		l24.02-0.11l16.54-54.87L511.66-2241.7z"/>
	<path d="M1502.69-2242.23l-34.79,23.19v24.58c0,0,0,23.19,23.19,23.19h5.8h5.8c23.19,0,23.19-23.19,23.19-23.19v-36.17
		L1502.69-2242.23z M1502.69-2185.76c0,0,0,5.8-5.8,5.8s-5.8-5.8-5.8-5.8v-47.77l11.6,5.8V-2185.76z"/>
	<path d="M1433.11-2242.23l-34.79,23.19v24.58c0,0,0,23.19,23.19,23.19h5.8h5.8c23.19,0,23.19-23.19,23.19-23.19v-36.17
		L1433.11-2242.23z M1433.11-2185.76c0,0,0,5.8-5.8,5.8s-5.8-5.8-5.8-5.8v-47.77l11.6,5.8V-2185.76z"/>
</g>
<g>
	<path d="M441.31-1773.03l-23.19,8.7l-11.6-8.7l-20.3,10.15v0.6c3.44-0.47,8.7,0.72,8.7,12.44v46.39h23.19v-57.99
		c11.6-2.9,11.6,5.8,11.6,5.8v52.19h23.19v-57.99L441.31-1773.03z"/>
	<path d="M809.52-1773.03l-23.19,8.7l-11.6-8.7l-20.3,10.15v0.6c3.44-0.47,8.7,0.72,8.7,12.44v46.39h23.19v-57.99
		c11.6-2.9,11.6,5.8,11.6,5.8v52.19h23.19v-57.99L809.52-1773.03z"/>
	<path d="M377.64-1715.05l-0.12-46.39l-23.19-11.6l-34.79,23.19v28.99c0,0,0,18.9,20.38,18.9c14.45,0,17.09-6.55,17.09-6.55
		s0.46,5.05,3.11,5.05c5.42,0,18.62,0,20.3,0v-2.91C377.52-1706.36,377.64-1715.05,377.64-1715.05z M354.33-1717.95
		c0,0,0.12,5.8-5.68,5.8s-5.92-5.8-5.92-5.8v-46.39l11.6,5.8V-1717.95z"/>
	<path d="M960.76-1773.03l-20.3,12.92v-62.2l-31.89,21.26v0.89c3.44-0.89,8.7-0.97,8.7,6.84c0,11.6,0,89.88,0,89.88h23.19v-51.83
		c5.8-1.81,11.6-1.81,11.6,5.44v46.39h23.19v-46.39h5.8L960.76-1773.03z"/>
	<path d="M493.49-1801.06v0.89c3.44-0.89,8.7,1.93,8.7,9.74c0,8.28,0,25.13,0,25.13l-11.6-7.73l-23.19,11.6l0,40.59
		c0,0-0.12,18.9,20.27,18.9c14.45,0,14.52-10.2,14.52-10.2l0,0c0,2.78,0,5.68,0,8.7h23.19v-118.87L493.49-1801.06z M502.19-1732.44
		c0,4.42,0,9.23,0,14.5c0,0,0,5.8-5.8,5.8c-5.8,0-5.8-5.8-5.8-5.8v-14.5v-4.77h0v-21.32l11.6-5.8c0,6.35,0,14.94,0,27.12
		C502.19-1735.68,502.19-1734.09,502.19-1732.44z"/>
	<path d="M1021.64-1734.37l23.19-15.46v-11.6l-23.19-11.6l-34.79,23.19v20.3c0,26.09,23.19,27.29,23.19,27.29h11.6
		c23.19,0,23.19-24.39,23.19-24.39h-23.19v8.7c0,0,0,5.8-5.8,5.8s-5.8-5.8-5.8-5.8v-16.42L1021.64-1734.37z M1021.64-1758.54v14.49
		c0,5.65-11.6,5.81-11.6,5.81v-26.09L1021.64-1758.54z"/>
	<path d="M1155.01-1734.37l23.19-15.46v-11.6l-23.19-11.6l-34.79,23.19v20.3c0,26.09,23.19,27.29,23.19,27.29h11.6
		c23.19,0,23.19-24.39,23.19-24.39h-23.19v8.7c0,0,0,5.8-5.8,5.8c-5.8,0-5.8-5.8-5.8-5.8v-16.42L1155.01-1734.37z M1155.01-1758.54
		v14.49c0,5.65-11.6,5.81-11.6,5.81v-26.09L1155.01-1758.54z"/>
	<path d="M1102.68-1766.24l-20.16,20.16v-26.95l-31.89,21.26v0.89c3.44-0.89,8.7-0.97,8.7,6.84c0,11.6,0,40.59,0,40.59h23.19v-36.93
		c1-1.62,7.44-10.67,20.26,2.14l14-14L1102.68-1766.24z"/>
	<path d="M1363.76-1734.37l23.19-15.46v-11.6l-23.19-11.6l-34.79,23.19v20.3c0,26.09,23.19,27.29,23.19,27.29h11.6
		c23.19,0,23.19-24.39,23.19-24.39h-23.19v8.7c0,0,0,5.8-5.8,5.8s-5.8-5.8-5.8-5.8v-16.42L1363.76-1734.37z M1363.76-1758.54v14.49
		c0,5.65-11.6,5.81-11.6,5.81v-26.09L1363.76-1758.54z"/>
	<path d="M1497.13-1734.37l23.19-15.46v-11.6l-23.19-11.6l-34.79,23.19v20.3c0,26.09,23.19,27.29,23.19,27.29h11.6
		c23.19,0,23.19-24.39,23.19-24.39h-23.19v8.7c0,0,0,5.8-5.8,5.8c-5.8,0-5.8-5.8-5.8-5.8v-16.42L1497.13-1734.37z M1497.13-1758.54
		v14.49c0,5.65-11.6,5.81-11.6,5.81v-26.09L1497.13-1758.54z"/>
	<path d="M1444.8-1766.24l-20.16,20.16v-26.95l-31.89,21.26v0.89c3.44-0.89,8.7-0.97,8.7,6.84c0,11.6,0,40.59,0,40.59h23.19v-36.93
		c1-1.62,7.44-10.67,20.26,2.14l14-14L1444.8-1766.24z"/>
	<path d="M896.5-1773.03v-37.69l-26.09,18.13v0.87c3-0.82,7.61-1.13,8.7,4.2v5.8c0,11.86-17.4,11.86-17.4,11.86v2.64h11.72v63.78
		h23.5c0.03-5.4,0.05-49.59,0.05-55.09c0-11.86,11.6-11.6,11.6-11.6v-2.9H896.5z"/>
	<path d="M664.55-1773.03l-20.3,12.92v-62.2l-31.89,21.26v0.89c3.44-0.89,8.7-0.97,8.7,6.84c0,11.6,0,89.88,0,89.88h23.19v-51.83
		c5.8-1.81,11.6-1.81,11.6,5.44v46.39h23.19v-46.39h5.8L664.55-1773.03z"/>
	<path d="M725.44-1734.37l23.19-15.46v-11.6l-23.19-11.6l-34.79,23.19v20.3c0,26.09,23.19,27.29,23.19,27.29h11.6
		c23.19,0,23.19-24.39,23.19-24.39h-23.19v8.7c0,0,0,5.8-5.8,5.8c-5.8,0-5.8-5.8-5.8-5.8v-16.42L725.44-1734.37z M725.44-1758.54
		v14.49c0,5.65-11.6,5.81-11.6,5.81v-26.09L725.44-1758.54z"/>
	<path d="M600.3-1773.03v-37.69l-26.09,18.13v0.87c3-0.82,7.61-1.13,8.7,4.2v5.8c0,11.86-17.4,11.86-17.4,11.86v2.64h11.72v63.78
		h23.5c0.03-5.4,0.05-49.59,0.05-55.09c0-11.86,11.6-11.6,11.6-11.6v-2.9H600.3z"/>
	<path d="M1309.2-1772.5l-14,14c0,0,16.23,11.44,13.54,22.98l-5.84,23.37l-14.5-20.3v-31.89l-11.6-8.7l-20.33,10.16v0.59
		c3.43-0.48,8.73,0.68,8.73,12.44h0.04l-0.03,14.5l-0.05,0c0,0.02,0.02,0.03,0.05,0.04l-0.02,8.66l4.87,6.49l-2,8.01l-14.5-20.3
		v-31.89l-11.6-8.7l-20.3,10.15v0.6c3.44-0.47,8.7,0.72,8.7,12.44h0.04l-0.04,23.19l17.4,23.19l24.02-0.11l3.07-10.19l7.73,10.31
		l24.02-0.11l16.54-54.87L1309.2-1772.5z"/>
	<path d="M1630.49-1781.73v-17.4l-23.19-11.6l-34.79,23.19v20.3h23.19v-34.79l11.6,5.8v26.09c0,0,0,8.7-5.8,8.7v8.7
		c5.8,0,5.8,8.7,5.8,8.7v26.41c0,0,0,5.8-5.8,5.8s-5.8-5.8-5.8-5.8v-23.19h-23.19v14.5c0,0,0,24.72,23.19,24.72h11.6
		c23.19,0,23.2-24.72,23.2-24.72v-14.81c0,0,0-9.23-8.78-15.95C1630.49-1763.8,1630.49-1781.73,1630.49-1781.73z"/>
</g>
<g>
	<g>
		<path d="M1070.69-2496.36v0.87c3-0.82,7.61-1.13,8.7,4.2v8.7l17.4-11.6v-20.29L1070.69-2496.36z"/>
		<path d="M1064.89-2455.54v0.89c3.44-0.89,8.7-0.97,8.7,6.84c0,11.6,0,40.59,0,40.59h23.19v-69.58L1064.89-2455.54z"/>
	</g>
	<g>
		<path d="M548.82-2496.36v0.87c3-0.82,7.61-1.13,8.7,4.2v8.7l17.4-11.6v-20.29L548.82-2496.36z"/>
		<path d="M543.02-2455.54v0.89c3.44-0.89,8.7-0.97,8.7,6.84c0,11.6,0,40.59,0,40.59h23.19v-69.58L543.02-2455.54z"/>
	</g>
	<path d="M951.82-2504.82v0.89c3.44-0.89,8.7-0.97,8.7,6.84c0,11.6,0,89.88,0,89.88h23.19v-118.87L951.82-2504.82z"/>
	<path d="M502.43-2504.82v0.89c3.44-0.89,8.7-0.97,8.7,6.84c0,11.6,0,89.88,0,89.88h23.19v-118.87L502.43-2504.82z"/>
	<path d="M661.89-2504.82v0.89c3.44-0.89,8.7-0.97,8.7,6.84c0,11.6,0,89.88,0,89.88h23.19v-118.87L661.89-2504.82z"/>
	<path d="M1024.3-2504.82v0.89c3.44-0.89,8.7,1.93,8.7,9.74c0,8.28,0,25.13,0,25.13l-11.6-7.73l-23.19,11.6l0,40.59
		c0,0-0.12,18.9,20.27,18.9c14.45,0,14.52-10.2,14.52-10.2l0,0c0,2.78,0,5.68,0,8.7h23.19v-118.87L1024.3-2504.82z M1033-2436.21
		c0,4.42,0,9.23,0,14.5c0,0,0,5.8-5.8,5.8s-5.8-5.8-5.8-5.8v-14.5v-4.77h0v-21.32l11.6-5.8c0,6.35,0,14.94,0,27.12
		C1033-2439.44,1033-2437.85,1033-2436.21z"/>
	<path d="M1328.73-2476.8l-11.6,7.73v-57.02l-31.89,21.26v0.89c3.44-0.89,8.7,1.93,8.7,9.74c0,6.43,0,86.98,0,86.98h23.19v-8.7l0,0
		c0,0,0.07,10.2,14.53,10.2c20.38,0,20.27-18.9,20.27-18.9l0-40.59L1328.73-2476.8z M1328.73-2421.71c0,0,0,5.8-5.8,5.8
		s-5.8-5.8-5.8-5.8v-46.39l11.6,5.8L1328.73-2421.71z"/>
	<path d="M1146.07-2438.14l23.19-15.46v-11.6l-23.19-11.6l-34.79,23.19v20.3c0,26.09,23.19,27.29,23.19,27.29h11.6
		c23.19,0,23.19-24.39,23.19-24.39h-23.19v8.7c0,0,0,5.8-5.8,5.8s-5.8-5.8-5.8-5.8v-16.42L1146.07-2438.14z M1146.07-2462.3v14.49
		c0,5.65-11.6,5.81-11.6,5.81v-26.09L1146.07-2462.3z"/>
	<path d="M743.07-2438.14l23.19-15.46v-11.6l-23.19-11.6l-34.79,23.19v20.3c0,26.09,23.19,27.29,23.19,27.29h11.6
		c23.19,0,23.19-24.39,23.19-24.39h-23.19v8.7c0,0,0,5.8-5.8,5.8c-5.8,0-5.8-5.8-5.8-5.8v-16.42L743.07-2438.14z M743.07-2462.3
		v14.49c0,5.65-11.6,5.81-11.6,5.81v-26.09L743.07-2462.3z"/>
	<path d="M1473.7-2476.8v57.99c-11.6,2.9-11.6-5.8-11.6-5.8v-43.49v-0.97l-23.19,15.46v34.79l11.6,11.6l23.19-8.7v40.59
		c0,0,0,5.8-5.8,5.8s-5.8-5.8-5.8-5.8v-17.4h-23.19v8.7c0,0,0,23.19,23.19,23.19h5.8h5.8c23.19,0,23.19-23.19,23.19-23.19v-81.18
		L1473.7-2476.8z"/>
	<path d="M1569.37-2459.4v-5.8l-23.19-11.6l-34.79,23.19v2.9c0,14.5,14.5,14.5,14.5,14.5h14.5c5.8,0,5.8,5.8,5.8,5.8v8.7
		c0,0,0,5.8-5.8,5.8s-5.8-5.8-5.8-5.8l0-7.13h0v-1.56h-23.19v1.46h0c0,23.19,23.19,23.24,23.19,23.24h11.6
		c23.19,0,23.2-17.44,23.2-17.44l0-4.36c0-14.5-14.5-14.5-14.5-14.5h-14.5c-5.8,0-5.8-5.8-5.8-5.8v-20.3l11.6,2.9v18.85
		L1569.37-2459.4z"/>
	<path d="M876.44-2459.4v-5.8l-23.19-11.6l-34.79,23.19v2.9c0,14.5,14.5,14.5,14.5,14.5h14.5c5.8,0,5.8,5.8,5.8,5.8v8.7
		c0,0,0,5.8-5.8,5.8s-5.8-5.8-5.8-5.8l0-7.13h0v-1.56h-23.19v1.46h0c0,23.19,23.19,23.24,23.19,23.24h11.6
		c23.19,0,23.2-17.44,23.2-17.44l0-4.36c0-14.5-14.5-14.5-14.5-14.5h-14.5c-5.8,0-5.8-5.8-5.8-5.8v-20.3l11.6,2.9v18.85
		L876.44-2459.4z"/>
	<path d="M1227.12-2470l-20.16,20.16v-26.95l-31.89,21.26v0.89c3.44-0.89,8.7-0.97,8.7,6.84c0,11.6,0,40.59,0,40.59h23.19v-36.93
		c1-1.62,7.44-10.67,20.26,2.14l14-14L1227.12-2470z"/>
	<path d="M652.72-2476.8v-37.69l-26.09,18.13v0.87c3-0.82,7.61-1.13,8.7,4.2v2.9c0,11.11-15.26,11.58-17.19,11.6h-3.1v-37.69
		l-26.09,18.13v0.87c3-0.82,7.61-1.13,8.7,4.2v5.8c0,11.86-17.4,11.6-17.4,11.6v2.9h11.72v63.78h23.5
		c0.03-5.4,0.05-49.59,0.05-55.09c0-11.11,10.18-11.58,11.46-11.6h2.68v66.68h23.5c0.03-5.4,0.05-49.59,0.05-55.09
		c0-11.86,11.6-11.6,11.6-11.6v-2.9H652.72z"/>
	<path d="M1401.21-2476.8l-34.79,23.19v24.58c0,0,0,23.19,23.19,23.19h5.8h5.8c23.19,0,23.19-23.19,23.19-23.19v-36.17
		L1401.21-2476.8z M1401.21-2420.33c0,0,0,5.8-5.8,5.8s-5.8-5.8-5.8-5.8v-47.77l11.6,5.8V-2420.33z"/>
	<path d="M922.83-2478.18l-34.79,23.19v24.58c0,0,0,23.19,23.19,23.19h5.8h5.8c23.19,0,23.19-23.19,23.19-23.19v-36.17
		L922.83-2478.18z M922.83-2421.71c0,0,0,5.8-5.8,5.8c-5.8,0-5.8-5.8-5.8-5.8v-47.77l11.6,5.8V-2421.71z"/>
	<path d="M447.34-2444.9v-61.2l-11.6-8.7l-20.3,10.15v1.43c3.44,0.6,8.7,3.74,8.7,17.42v46.7l-11.6-5.8v-17.71v-17.4l-11.6-8.7
		l-20.3,10.15v1.23c3.44,0.18,8.7,2.05,8.7,11.82v23.51l23.19,11.6l11.6-7.73v30.93h23.19v-23.19l11.6-7.73v-0.97L447.34-2444.9z"/>
</g>
<g>
	<path d="M1559.22-2007.78l-23.19,8.7l-11.6-8.7l-20.3,10.15v0.6c3.44-0.47,8.7,0.72,8.7,12.44v46.39h23.19v-57.99
		c11.6-2.9,11.6,5.8,11.6,5.8v52.19h23.19v-57.99L1559.22-2007.78z"/>
	<path d="M1147.52-2007.78l-34.79,23.19v34.79l11.6,11.6l23.19-8.7v40.59c0,0,0,5.8-5.8,5.8s-5.8-5.8-5.8-5.8v-17.4h-23.19v8.7
		c0,0,0,23.19,23.19,23.19h11.6c23.19,0,23.19-23.19,23.19-23.19v-46.39v-34.79L1147.52-2007.78z M1147.52-1949.79
		c-11.6,2.9-11.6-5.8-11.6-5.8v-43.49l11.6,5.8V-1949.79z"/>
	<path d="M1220.01-2007.78l-34.79,23.19v34.79l11.6,11.6l23.19-8.7v40.59c0,0,0,5.8-5.8,5.8c-5.8,0-5.8-5.8-5.8-5.8v-17.4h-23.19
		v8.7c0,0,0,23.19,23.19,23.19h11.6c23.19,0,23.19-23.19,23.19-23.19v-46.39v-34.79L1220.01-2007.78z M1220.01-1949.79
		c-11.6,2.9-11.6-5.8-11.6-5.8v-43.49l11.6,5.8V-1949.79z"/>
	<g>
		<path d="M489.38-2027.34v0.87c3-0.82,7.61-1.13,8.7,4.2v8.7l17.4-11.6v-20.3L489.38-2027.34z"/>
		<path d="M483.58-1986.52v0.89c3.44-0.89,8.7-0.97,8.7,6.84c0,11.6,0,40.59,0,40.59h23.19v-69.58L483.58-1986.52z"/>
	</g>
	<path d="M840.85-1949.79l-0.12-46.39l-23.19-11.6l-34.79,23.19v28.99c0,0,0,18.9,20.38,18.9c14.45,0,17.09-6.55,17.09-6.55
		s0.46,5.05,3.11,5.05c5.42,0,18.62,0,20.3,0v-2.91C840.73-1941.1,840.85-1949.79,840.85-1949.79z M817.54-1952.69
		c0,0,0.12,5.8-5.68,5.8c-5.8,0-5.92-5.8-5.92-5.8v-46.39l11.6,5.8V-1952.69z"/>
	<path d="M364.83-1949.79l-0.12-46.39l-23.19-11.6l-34.79,23.19v28.99c0,0,0,18.9,20.38,18.9c14.45,0,17.09-6.55,17.09-6.55
		s0.46,5.05,3.11,5.05c5.42,0,18.62,0,20.3,0v-2.91C364.71-1941.1,364.83-1949.79,364.83-1949.79z M341.52-1952.69
		c0,0,0.12,5.8-5.68,5.8s-5.92-5.8-5.92-5.8v-46.39l11.6,5.8V-1952.69z"/>
	<path d="M1011.26-2007.78l-20.3,12.92v-62.2l-31.89,21.26v0.89c3.44-0.89,8.7-0.97,8.7,6.84c0,11.6,0,89.88,0,89.88h23.19v-51.83
		c5.8-1.81,11.6-1.81,11.6,5.44v46.39h23.19v-46.39h5.8L1011.26-2007.78z"/>
	<path d="M1353.37-2035.8v0.89c3.44-0.89,8.7,1.93,8.7,9.74c0,8.28,0,25.13,0,25.13l-11.6-7.73l-23.19,11.6l0,40.59
		c0,0-0.12,18.9,20.27,18.9c14.45,0,14.53-10.2,14.53-10.2l0,0c0,2.78,0,5.68,0,8.7h23.19v-118.87L1353.37-2035.8z M1362.07-1967.19
		c0,4.42,0,9.23,0,14.5c0,0,0,5.8-5.8,5.8s-5.8-5.8-5.8-5.8v-14.5v-4.77h0v-21.32l11.6-5.8c0,6.35,0,14.94,0,27.12
		C1362.07-1970.42,1362.07-1968.83,1362.07-1967.19z"/>
	<path d="M451.69-2007.78l-11.6,7.73v-57.02l-31.89,21.26v0.89c3.44-0.89,8.7,1.93,8.7,9.74c0,6.43,0,86.98,0,86.98h23.19v-8.7l0,0
		c0,0,0.07,10.2,14.52,10.2c20.38,0,20.27-18.9,20.27-18.9l0-40.59L451.69-2007.78z M451.69-1952.69c0,0,0,5.8-5.8,5.8
		s-5.8-5.8-5.8-5.8v-46.39l11.6,5.8L451.69-1952.69z"/>
	<path d="M747.42-1969.12l23.19-15.46v-11.6l-23.19-11.6l-34.79,23.19v20.3c0,26.09,23.19,27.29,23.19,27.29h11.6
		c23.19,0,23.19-24.39,23.19-24.39h-23.19v8.7c0,0,0,5.8-5.8,5.8c-5.8,0-5.8-5.8-5.8-5.8v-16.42L747.42-1969.12z M747.42-1993.28
		v14.49c0,5.65-11.6,5.81-11.6,5.81v-26.09L747.42-1993.28z"/>
	<path d="M1620.11-1969.12l23.19-15.46v-11.6l-23.19-11.6l-34.79,23.19v20.3c0,26.09,23.19,27.29,23.19,27.29h11.6
		c23.19,0,23.19-24.39,23.19-24.39h-23.19v8.7c0,0,0,5.8-5.8,5.8s-5.8-5.8-5.8-5.8v-16.42L1620.11-1969.12z M1620.11-1993.28v14.49
		c0,5.65-11.6,5.81-11.6,5.81v-26.09L1620.11-1993.28z"/>
	<path d="M1292.49-1969.12l23.19-15.46v-11.6l-23.19-11.6l-34.79,23.19v20.3c0,26.09,23.19,27.29,23.19,27.29h11.6
		c23.19,0,23.19-24.39,23.19-24.39h-23.19v8.7c0,0,0,5.8-5.8,5.8s-5.8-5.8-5.8-5.8v-16.42L1292.49-1969.12z M1292.49-1993.28v14.49
		c0,5.65-11.6,5.81-11.6,5.81v-26.09L1292.49-1993.28z"/>
	<path d="M1098.24-1996.18l-23.19-11.59l0.07,55.09c0,0,0,5.8-5.8,5.8c-5.8,0-5.8-5.8-5.8-5.8l-0.07-47.36l-23.19,15.46l0.07,29
		c0,0-0.12,18.9,20.27,18.9c14.45,0,14.53-10.2,14.53-10.2l0,0v8.7h23.19L1098.24-1996.18z"/>
	<path d="M901.48-2000.98l-20.16,20.16v-26.95l-31.89,21.26v0.89c3.44-0.89,8.7-0.97,8.7,6.84c0,11.6,0,40.59,0,40.59h23.19v-36.93
		c1-1.62,7.44-10.67,20.26,2.14l14-14L901.48-2000.98z"/>
	<path d="M1472.25-2007.78l-34.79,23.19v24.58c0,0,0,23.19,23.19,23.19h5.8h5.8c23.19,0,23.19-23.19,23.19-23.19v-36.17
		L1472.25-2007.78z M1472.25-1951.31c0,0,0,5.8-5.8,5.8c-5.8,0-5.8-5.8-5.8-5.8v-47.77l11.6,5.8V-1951.31z"/>
	<path d="M564.76-2007.78l-34.79,23.19v34.79l11.6,11.6l23.19-8.7v40.59c0,0,0,5.8-5.8,5.8s-5.8-5.8-5.8-5.8v-17.4h-23.19v8.7
		c0,0,0,23.19,23.19,23.19h11.6c23.19,0,23.19-23.19,23.19-23.19v-46.39v-34.79L564.76-2007.78z M564.76-1949.79
		c-11.6,2.9-11.6-5.8-11.6-5.8v-43.49l11.6,5.8V-1949.79z"/>
	<path d="M674.94-2007.78l-11.6,7.73v-57.02l-31.89,21.26v0.89c3.44-0.89,8.7,1.93,8.7,9.74c0,6.43,0,86.98,0,86.98h23.19v-8.7l0,0
		c0,0,0.07,10.2,14.52,10.2c20.38,0,20.27-18.9,20.27-18.9l0-40.59L674.94-2007.78z M674.94-1952.69c0,0,0,5.8-5.8,5.8
		s-5.8-5.8-5.8-5.8v-46.39l11.6,5.8L674.94-1952.69z"/>
</g>
<g class="st0">
	<g>
		<line class="st1" x1="1.11" y1="-314.54" x2="1918.76" y2="-314.54"/>
		<line class="st1" x1="1.11" y1="-268.15" x2="1918.76" y2="-268.15"/>
		<line class="st1" x1="1.11" y1="-384.12" x2="1918.76" y2="-384.12"/>
		<line class="st1" x1="1.11" y1="-433.41" x2="1918.76" y2="-433.41"/>
		<line class="st1" x1="1.11" y1="-421.81" x2="1918.76" y2="-421.81"/>
	</g>
	<rect x="1995.18" y="-268.15" class="st1" width="47.91" height="67.16"/>
	<g>
		<line class="st1" x1="1.11" y1="-79.97" x2="1918.76" y2="-79.97"/>
		<line class="st1" x1="1.11" y1="-33.58" x2="1918.76" y2="-33.58"/>
		<line class="st1" x1="1.11" y1="-149.55" x2="1918.76" y2="-149.55"/>
		<line class="st1" x1="1.11" y1="-198.84" x2="1918.76" y2="-198.84"/>
		<line class="st1" x1="1.11" y1="-187.24" x2="1918.76" y2="-187.24"/>
	</g>
	<rect x="1995.18" y="-33.58" class="st1" width="47.91" height="67.16"/>
	<g>
		<line class="st1" x1="1.11" y1="154.6" x2="1918.76" y2="154.6"/>
		<line class="st1" x1="1.11" y1="200.98" x2="1918.76" y2="200.98"/>
		<line class="st1" x1="1.11" y1="85.01" x2="1918.76" y2="85.01"/>
		<line class="st1" x1="1.11" y1="35.72" x2="1918.76" y2="35.72"/>
		<line class="st1" x1="1.11" y1="47.32" x2="1918.76" y2="47.32"/>
	</g>
	<rect x="1995.18" y="200.98" class="st1" width="47.91" height="67.16"/>
</g>
<g>
	<g>
		<g>
			<path class="st2" d="M1477.46-370.09v0.87c3-0.82,7.61-1.13,8.7,4.2v8.7l17.4-11.6v-20.3L1477.46-370.09z"/>
			<path class="st2" d="M1471.67-329.26v0.89c3.44-0.89,8.7-0.97,8.7,6.84c0,11.6,0,40.59,0,40.59h23.19v-69.58L1471.67-329.26z"/>
		</g>
		<g>
			<path class="st2" d="M1039.67-370.09v0.87c3-0.82,7.61-1.13,8.7,4.2v8.7l17.4-11.6v-20.3L1039.67-370.09z"/>
			<path class="st2" d="M1033.87-329.26v0.89c3.44-0.89,8.7-0.97,8.7,6.84c0,11.6,0,40.59,0,40.59h23.19v-69.58L1033.87-329.26z"/>
		</g>
		<path class="st2" d="M1431.08-378.55v0.89c3.44-0.89,8.7-0.97,8.7,6.84c0,11.6,0,89.88,0,89.88h23.19v-118.87L1431.08-378.55z"/>
		<path class="st2" d="M1402.08-350.52l-11.6,7.73v-57.02l-31.89,21.26v0.89c3.44-0.89,8.7,1.93,8.7,9.74c0,6.43,0,86.98,0,86.98
			h23.19v-8.7l0,0c0,0,0.07,10.2,14.53,10.2c20.38,0,20.27-18.9,20.27-18.9l0-40.59L1402.08-350.52z M1402.08-295.44
			c0,0,0,5.8-5.8,5.8s-5.8-5.8-5.8-5.8v-46.39l11.6,5.8L1402.08-295.44z"/>
		<path class="st2" d="M311.94-311.87l23.19-15.46v-11.6l-23.19-11.6l-34.79,23.19v20.3c0,26.09,23.19,27.29,23.19,27.29h11.6
			c23.19,0,23.19-24.39,23.19-24.39h-23.19v8.7c0,0,0,5.8-5.8,5.8s-5.8-5.8-5.8-5.8v-16.42L311.94-311.87z M311.94-336.03v14.49
			c0,5.65-11.6,5.81-11.6,5.81v-26.09L311.94-336.03z"/>
		<path class="st2" d="M448.21-311.87l23.19-15.46v-11.6l-23.19-11.6l-34.79,23.19v20.3c0,26.09,23.19,27.29,23.19,27.29h11.6
			c23.19,0,23.19-24.39,23.19-24.39h-23.19v8.7c0,0,0,5.8-5.8,5.8c-5.8,0-5.8-5.8-5.8-5.8v-16.42L448.21-311.87z M448.21-336.03
			v14.49c0,5.65-11.6,5.81-11.6,5.81v-26.09L448.21-336.03z"/>
		<path class="st2" d="M1291.91-311.87l23.19-15.46v-11.6l-23.19-11.6l-34.79,23.19v20.3c0,26.09,23.19,27.29,23.19,27.29h11.6
			c23.19,0,23.19-24.39,23.19-24.39h-23.19v8.7c0,0,0,5.8-5.8,5.8s-5.8-5.8-5.8-5.8v-16.42L1291.91-311.87z M1291.91-336.03v14.49
			c0,5.65-11.6,5.81-11.6,5.81v-26.09L1291.91-336.03z"/>
		<path class="st2" d="M1222.33-311.87l23.19-15.46v-11.6l-23.19-11.6l-34.79,23.19v20.3c0,26.09,23.19,27.29,23.19,27.29h11.6
			c23.19,0,23.19-24.39,23.19-24.39h-23.19v8.7c0,0,0,5.8-5.8,5.8c-5.8,0-5.8-5.8-5.8-5.8v-16.42L1222.33-311.87z M1222.33-336.03
			v14.49c0,5.65-11.6,5.81-11.6,5.81v-26.09L1222.33-336.03z"/>
		<path class="st2" d="M584.48-350.52v57.99c-11.6,2.9-11.6-5.8-11.6-5.8v-43.49v-0.97l-23.19,15.46v34.79l11.6,11.6l23.19-8.7
			v40.59c0,0,0,5.8-5.8,5.8c-5.8,0-5.8-5.8-5.8-5.8v-17.4h-23.19v8.7c0,0,0,23.19,23.19,23.19h5.8h5.8
			c23.19,0,23.19-23.19,23.19-23.19v-81.18L584.48-350.52z"/>
		<path class="st2" d="M1175.94-333.13v-5.8l-23.19-11.6l-34.79,23.19v2.9c0,14.5,14.5,14.5,14.5,14.5h14.5c5.8,0,5.8,5.8,5.8,5.8
			v8.7c0,0,0,5.8-5.8,5.8c-5.8,0-5.8-5.8-5.8-5.8l0-7.13h0v-1.56h-23.19v1.46h0c0,23.19,23.19,23.24,23.19,23.24h11.6
			c23.19,0,23.2-17.44,23.2-17.44l0-4.36c0-14.5-14.5-14.5-14.5-14.5h-14.5c-5.8,0-5.8-5.8-5.8-5.8v-20.3l11.6,2.9v18.85
			L1175.94-333.13z"/>
		<path class="st2" d="M1642.72-333.13v-5.8l-23.19-11.6l-34.79,23.19v2.9c0,14.5,14.5,14.5,14.5,14.5h14.5c5.8,0,5.8,5.8,5.8,5.8
			v8.7c0,0,0,5.8-5.8,5.8s-5.8-5.8-5.8-5.8l0-7.13h0v-1.56h-23.19v1.46h0c0,23.19,23.19,23.24,23.19,23.24h11.6
			c23.19,0,23.2-17.44,23.2-17.44l0-4.36c0-14.5-14.5-14.5-14.5-14.5h-14.5c-5.8,0-5.8-5.8-5.8-5.8v-20.3l11.6,2.9v18.85
			L1642.72-333.13z"/>
		<path class="st2" d="M1576.05-333.13v-5.8l-23.19-11.6l-34.79,23.19v2.9c0,14.5,14.5,14.5,14.5,14.5h14.5c5.8,0,5.8,5.8,5.8,5.8
			v8.7c0,0,0,5.8-5.8,5.8c-5.8,0-5.8-5.8-5.8-5.8l0-7.13h0v-1.56h-23.19v1.46h0c0,23.19,23.19,23.24,23.19,23.24h11.6
			c23.19,0,23.2-17.44,23.2-17.44l0-4.36c0-14.5-14.5-14.5-14.5-14.5h-14.5c-5.8,0-5.8-5.8-5.8-5.8v-20.3l11.6,2.9v18.85
			L1576.05-333.13z"/>
		<path class="st2" d="M529.25-343.73l-20.16,20.16v-26.95l-31.89,21.26v0.89c3.44-0.89,8.7-0.97,8.7,6.84c0,11.6,0,40.59,0,40.59
			h23.19v-36.93c1-1.62,7.44-10.67,20.26,2.14l14-14L529.25-343.73z"/>
		<path class="st2" d="M772.93-350.52l-20.3,12.92v-62.2l-31.89,21.26v0.89c3.44-0.89,8.7-0.97,8.7,6.84c0,11.6,0,89.88,0,89.88
			h23.19v-51.83c5.8-1.81,11.6-1.81,11.6,5.44v46.39h23.19v-46.39h5.8L772.93-350.52z"/>
		<path class="st2" d="M833.82-311.87l23.19-15.46v-11.6l-23.19-11.6l-34.79,23.19v20.3c0,26.09,23.19,27.29,23.19,27.29h11.6
			c23.19,0,23.19-24.39,23.19-24.39h-23.19v8.7c0,0,0,5.8-5.8,5.8c-5.8,0-5.8-5.8-5.8-5.8v-16.42L833.82-311.87z M833.82-336.03
			v14.49c0,5.65-11.6,5.81-11.6,5.81v-26.09L833.82-336.03z"/>
		<path class="st2" d="M967.19-311.87l23.19-15.46v-11.6l-23.19-11.6l-34.79,23.19v20.3c0,26.09,23.19,27.29,23.19,27.29h11.6
			c23.19,0,23.19-24.39,23.19-24.39h-23.19v8.7c0,0,0,5.8-5.8,5.8c-5.8,0-5.8-5.8-5.8-5.8v-16.42L967.19-311.87z M967.19-336.03
			v14.49c0,5.65-11.6,5.81-11.6,5.81v-26.09L967.19-336.03z"/>
		<path class="st2" d="M914.86-343.73l-20.16,20.16v-26.95l-31.89,21.26v0.89c3.44-0.89,8.7-0.97,8.7,6.84c0,11.6,0,40.59,0,40.59
			h23.19v-36.93c1-1.62,7.44-10.67,20.26,2.14l14-14L914.86-343.73z"/>
		<path class="st2" d="M393.62-349.99l-14,14c0,0,16.23,11.44,13.54,22.98l-5.84,23.37l-14.5-20.3v-31.89l-11.6-8.7l-20.3,10.15v0.6
			c3.44-0.47,8.7,0.72,8.7,12.44h0.04l-0.04,23.19l17.4,23.19l24.02-0.11l16.54-54.87L393.62-349.99z"/>
		<path class="st2" d="M703.88-349.99l-14,14c0,0,16.23,11.44,13.54,22.98l-5.84,23.37l-14.5-20.3v-31.89l-11.6-8.7l-20.33,10.16
			v0.59c3.43-0.48,8.73,0.68,8.73,12.44h0.04l-0.03,14.5l-0.05,0c0,0.02,0.02,0.03,0.05,0.04l-0.02,8.66l4.87,6.49l-2,8.01
			l-14.5-20.3v-31.89l-11.6-8.7l-20.3,10.15v0.6c3.44-0.47,8.7,0.72,8.7,12.44h0.04l-0.04,23.19l17.4,23.19l24.02-0.11l3.07-10.19
			l7.73,10.31l24.02-0.11l16.54-54.87L703.88-349.99z"/>
	</g>
	<g>
		<g>
			<path class="st2" d="M326.44,99.02v0.87c3-0.82,7.61-1.13,8.7,4.2v8.7l17.4-11.6v-20.3L326.44,99.02z"/>
			<path class="st2" d="M320.64,139.84v0.89c3.44-0.89,8.7-0.97,8.7,6.84c0,11.6,0,40.59,0,40.59h23.19v-69.58L320.64,139.84z"/>
		</g>
		<path class="st2" d="M845.53,176.57l-0.12-46.39l-23.19-11.6l-34.79,23.19v28.99c0,0,0,18.9,20.38,18.9
			c14.45,0,17.09-6.55,17.09-6.55s0.46,5.05,3.11,5.05c5.42,0,18.62,0,20.3,0v-2.91C845.42,185.25,845.53,176.57,845.53,176.57z
			 M822.22,173.67c0,0,0.12,5.8-5.68,5.8c-5.8,0-5.92-5.8-5.92-5.8v-46.39l11.6,5.8V173.67z"/>
		<path class="st2" d="M1274.53,141.8l0.01-11.6l-23.18-11.62l-34.81,23.16l-0.02,20.3c-0.03,26.09,23.17,27.62,23.17,27.62
			l11.6,0.01c23.19,0.02,23.22-24.67,23.22-24.67l-23.19-0.02l-0.01,8.7c0,0-0.01,5.8-5.8,5.79c-5.8-0.01-5.79-5.8-5.79-5.8
			l0.05-46.39l11.59,5.81l-0.02,24.16L1274.53,141.8z"/>
		<path class="st2" d="M772.93,141.77v-11.6l-23.19-11.6l-34.79,23.19v20.3c0,26.09,23.19,27.6,23.19,27.6h11.6
			c23.19,0,23.19-24.7,23.19-24.7h-23.19v8.7c0,0,0,5.8-5.8,5.8c-5.8,0-5.8-5.8-5.8-5.8v-46.39l11.6,5.8v24.16L772.93,141.77z"/>
		<path class="st2" d="M1280.31,90.55v0.89c3.44-0.89,8.7-0.97,8.7,6.84c0,11.6,0,89.88,0,89.88h23.19V69.29L1280.31,90.55z"/>
		<path class="st2" d="M923.7,90.55v0.89c3.44-0.89,8.7-0.97,8.7,6.84c0,11.6,0,89.88,0,89.88h23.19V69.29L923.7,90.55z"/>
		<path class="st2" d="M1425.28,91.95v0.89c3.44-0.89,8.7,1.93,8.7,9.74c0,8.28,0,25.13,0,25.13l-11.6-7.73l-23.19,11.6l0,40.59
			c0,0-0.12,18.9,20.27,18.9c14.45,0,14.53-10.2,14.53-10.2l0,0c0,2.78,0,5.68,0,8.7h23.19V70.69L1425.28,91.95z M1433.97,160.57
			c0,4.42,0,9.23,0,14.5c0,0,0,5.8-5.8,5.8s-5.8-5.8-5.8-5.8v-14.5v-4.77h0v-21.32l11.6-5.8c0,6.35,0,14.94,0,27.12
			C1433.97,157.33,1433.97,158.92,1433.97,160.57z"/>
		<path class="st2" d="M1567.34,90.55v0.89c3.44-0.89,8.7,1.93,8.7,9.74c0,8.28,0,25.13,0,25.13l-11.6-7.73l-23.19,11.6l0,40.59
			c0,0-0.12,18.9,20.27,18.9c14.45,0,14.53-10.2,14.53-10.2l0,0c0,2.78,0,5.68,0,8.7h23.19V69.29L1567.34,90.55z M1576.04,159.17
			c0,4.42,0,9.23,0,14.5c0,0,0,5.8-5.8,5.8c-5.8,0-5.8-5.8-5.8-5.8v-14.5v-4.77h0v-21.32l11.6-5.8c0,6.35,0,14.94,0,27.12
			C1576.04,155.93,1576.04,157.52,1576.04,159.17z"/>
		<path class="st2" d="M894.7,118.58l-11.6,7.73V69.29l-31.89,21.26v0.89c3.44-0.89,8.7,1.93,8.7,9.74c0,6.43,0,86.98,0,86.98h23.19
			v-8.7l0,0c0,0,0.07,10.2,14.53,10.2c20.38,0,20.27-18.9,20.27-18.9l0-40.59L894.7,118.58z M894.7,173.67c0,0,0,5.8-5.8,5.8
			s-5.8-5.8-5.8-5.8v-46.39l11.6,5.8L894.7,173.67z"/>
		<path class="st2" d="M1112.15,157.24l23.19-15.46v-11.6l-23.19-11.6l-34.79,23.19v20.3c0,26.09,23.19,27.29,23.19,27.29h11.6
			c23.19,0,23.19-24.39,23.19-24.39h-23.19v8.7c0,0,0,5.8-5.8,5.8s-5.8-5.8-5.8-5.8v-16.42L1112.15,157.24z M1112.15,133.08v14.49
			c0,5.65-11.6,5.81-11.6,5.81v-26.09L1112.15,133.08z"/>
		<path class="st2" d="M538.09,157.24l23.19-15.46v-11.6l-23.19-11.6l-34.79,23.19v20.3c0,26.09,23.19,27.29,23.19,27.29h11.6
			c23.19,0,23.19-24.39,23.19-24.39h-23.19v8.7c0,0,0,5.8-5.8,5.8c-5.8,0-5.8-5.8-5.8-5.8v-16.42L538.09,157.24z M538.09,133.08
			v14.49c0,5.65-11.6,5.81-11.6,5.81v-26.09L538.09,133.08z"/>
		<path class="st2" d="M1001.98,118.58v57.99c-11.6,2.9-11.6-5.8-11.6-5.8v-43.49v-0.97l-23.19,15.46v34.79l11.6,11.6l23.19-8.7
			v40.59c0,0,0,5.8-5.8,5.8c-5.8,0-5.8-5.8-5.8-5.8v-17.4h-23.19v8.7c0,0,0,23.19,23.19,23.19h5.8h5.8
			c23.19,0,23.19-23.19,23.19-23.19v-81.18L1001.98,118.58z"/>
		<path class="st2" d="M1384.61,130.17l-23.19-11.59l0.07,55.09c0,0,0,5.8-5.8,5.8c-5.8,0-5.8-5.8-5.8-5.8l-0.07-47.36l-23.19,15.46
			l0.07,29c0,0-0.12,18.9,20.27,18.9c14.45,0,14.53-10.2,14.53-10.2l0,0v8.7h23.19L1384.61,130.17z"/>
		<path class="st2" d="M1182.84,143.57l-8.9-18.2l-6.25-3.2l-7.03-3.6l-16.61,16.99c0,0,6.64-3.4,9.97,3.4l14.25,29.15
			c-1.95,1.07-4.23,1.93-6.51,1.93h-15.1v18.12h15.1l8.25-16.49l8.06,16.49h26.58l-20.76-42.47c2.29-1.57,5.43-3.19,8.56-3.19h15.1
			v-18.12h-15.1L1182.84,143.57z"/>
		<path class="st2" d="M413.82,125.37l-20.16,20.16v-26.95l-31.89,21.26v0.89c3.44-0.89,8.7-0.97,8.7,6.84c0,11.6,0,40.59,0,40.59
			h23.19v-36.93c1-1.62,7.44-10.67,20.26,2.14l14-14L413.82,125.37z"/>
		<path class="st2" d="M482.86,125.37l-20.16,20.16v-26.95l-31.89,21.26v0.89c3.44-0.89,8.7-0.97,8.7,6.84c0,11.6,0,40.59,0,40.59
			h23.19v-36.93c1-1.62,7.44-10.67,20.26,2.14l14-14L482.86,125.37z"/>
		<path class="st2" d="M619.77,119.12l-14,14c0,0,16.23,11.44,13.54,22.98l-5.84,23.37l-14.5-20.3v-31.89l-11.6-8.7l-20.3,10.15v0.6
			c3.44-0.47,8.7,0.72,8.7,12.44h0.04l-0.04,23.19l17.4,23.19l24.02-0.11l16.54-54.87L619.77,119.12z"/>
		<path class="st2" d="M677.26,118.58l-34.79,23.19v24.58c0,0,0,23.19,23.19,23.19h5.8h5.8c23.19,0,23.19-23.19,23.19-23.19v-36.17
			L677.26,118.58z M677.26,175.05c0,0,0,5.8-5.8,5.8s-5.8-5.8-5.8-5.8v-47.77l11.6,5.8V175.05z"/>
		<path class="st2" d="M1506.46,157.24l23.19-15.46v-11.6l-23.19-11.6l-34.79,23.19v20.3c0,26.09,23.19,27.29,23.19,27.29h11.6
			c23.19,0,23.19-24.39,23.19-24.39h-23.19v8.7c0,0,0,5.8-5.8,5.8s-5.8-5.8-5.8-5.8v-16.42L1506.46,157.24z M1506.46,133.08v14.49
			c0,5.65-11.6,5.81-11.6,5.81v-26.09L1506.46,133.08z"/>
	</g>
	<g>
		<g>
			<path class="st2" d="M1039.67-135.55v0.87c3-0.82,7.61-1.13,8.7,4.2v8.7l17.4-11.6v-20.3L1039.67-135.55z"/>
			<path class="st2" d="M1033.87-94.72v0.89c3.44-0.89,8.7-0.97,8.7,6.84c0,11.6,0,40.59,0,40.59h23.19v-69.58L1033.87-94.72z"/>
		</g>
		<g>
			<path class="st2" d="M801.93-135.55v0.87c3-0.82,7.61-1.13,8.7,4.2v8.7l17.4-11.6v-20.3L801.93-135.55z"/>
			<path class="st2" d="M796.13-94.72v0.89c3.44-0.89,8.7-0.97,8.7,6.84c0,11.6,0,40.59,0,40.59h23.19v-69.58L796.13-94.72z"/>
		</g>
		<path class="st2" d="M1176.06-58l-0.12-46.39l-23.19-11.6l-34.79,23.19v28.99c0,0,0,18.9,20.38,18.9
			c14.45,0,17.09-6.55,17.09-6.55s0.46,5.05,3.11,5.05c5.42,0,18.62,0,20.3,0v-2.91C1175.94-49.31,1176.06-58,1176.06-58z
			 M1152.74-60.9c0,0,0.12,5.8-5.68,5.8c-5.8,0-5.92-5.8-5.92-5.8v-46.39l11.6,5.8V-60.9z"/>
		<path class="st2" d="M1544.27-58l-0.12-46.39l-23.19-11.6l-34.79,23.19v28.99c0,0,0,18.9,20.38,18.9
			c14.45,0,17.09-6.55,17.09-6.55s0.46,5.05,3.11,5.05c5.42,0,18.62,0,20.3,0v-2.91C1544.15-49.31,1544.27-58,1544.27-58z
			 M1520.95-60.9c0,0,0.12,5.8-5.68,5.8s-5.92-5.8-5.92-5.8v-46.39l11.6,5.8V-60.9z"/>
		<path class="st2" d="M900.5-92.79v-11.6l-23.19-11.6l-34.79,23.19v20.3c0,26.09,23.19,27.6,23.19,27.6h11.6
			c23.19,0,23.19-24.7,23.19-24.7h-23.19v8.7c0,0,0,5.8-5.8,5.8c-5.8,0-5.8-5.8-5.8-5.8v-46.39l11.6,5.8v24.16L900.5-92.79z"/>
		<path class="st2" d="M1184.64-144.01v0.89c3.44-0.89,8.7-0.97,8.7,6.84c0,11.6,0,89.88,0,89.88h23.19v-118.87L1184.64-144.01z"/>
		<path class="st2" d="M1642.72-115.99l-25.32,9.47l-9.47-9.47l-23.19,8.7l-11.6-8.7l-20.3,10.15v0.6c3.44-0.47,8.7,0.72,8.7,12.44
			v46.39h23.19v-57.99c11.6-2.9,11.6,5.8,11.6,5.8v52.19h23.19v-57.99c11.6-2.9,11.6,5.8,11.6,5.8v52.19h23.19v-57.99
			L1642.72-115.99z"/>
		<path class="st2" d="M770.03-115.99l-20.3,12.92v-62.2l-31.89,21.26v0.89c3.44-0.89,8.7-0.97,8.7,6.84c0,11.6,0,89.88,0,89.88
			h23.19v-51.83c5.8-1.81,11.6-1.81,11.6,5.44v46.39h23.19v-46.39h5.8L770.03-115.99z"/>
		<path class="st2" d="M958.49-115.99l-20.3,12.92v-62.2l-31.89,21.26v0.89c3.44-0.89,8.7-0.97,8.7,6.84c0,11.6,0,89.88,0,89.88
			h23.19v-51.83c5.8-1.81,11.6-1.81,11.6,5.44v46.39h23.19v-46.39h5.8L958.49-115.99z"/>
		<path class="st2" d="M700.98-115.45l-14,14c0,0,16.23,11.44,13.54,22.98l-5.84,23.37l-14.5-20.3v-31.89l-11.6-8.7l-20.33,10.16
			v0.59c3.43-0.48,8.73,0.68,8.73,12.44h0.04l-0.03,14.5l-0.05,0c0,0.02,0.02,0.03,0.05,0.04l-0.02,8.66l4.87,6.49l-2,8.01
			l-14.5-20.3v-31.89l-11.6-8.7l-20.3,10.15v0.6c3.44-0.47,8.7,0.72,8.7,12.44h0.04l-0.04,23.19l17.4,23.19l24.02-0.11l3.07-10.19
			l7.73,10.31l24.02-0.11l16.54-54.87L700.98-115.45z"/>
		<path class="st2" d="M1352.79-115.99l-23.19,8.7l-11.6-8.7l-20.3,10.15v0.6c3.44-0.47,8.7,0.72,8.7,12.44v46.39h23.19v-57.99
			c11.6-2.9,11.6,5.8,11.6,5.8v52.19h23.19v-57.99L1352.79-115.99z"/>
		<path class="st2" d="M1410.78-77.33l23.19-15.46v-11.6l-23.19-11.6l-34.79,23.19v20.3c0,26.09,23.19,27.29,23.19,27.29h11.6
			c23.19,0,23.19-24.39,23.19-24.39h-23.19v8.7c0,0,0,5.8-5.8,5.8c-5.8,0-5.8-5.8-5.8-5.8v-16.42L1410.78-77.33z M1410.78-101.49
			V-87c0,5.65-11.6,5.81-11.6,5.81v-26.09L1410.78-101.49z"/>
		<path class="st2" d="M1265.82-115.99l-34.79,23.19v24.58c0,0,0,23.19,23.19,23.19h5.8h5.8c23.19,0,23.19-23.19,23.19-23.19v-36.17
			L1265.82-115.99z M1265.82-59.52c0,0,0,5.8-5.8,5.8s-5.8-5.8-5.8-5.8v-47.77l11.6,5.8V-59.52z"/>
		<path class="st2" d="M297.45-95.83v-57.85l11.6,5.8v20.3l11.6,8.7l20.3-10.15v-0.6c-3.44,0.47-8.7-0.72-8.7-12.44v-8.7
			l-23.19-11.6l-43.49,28.99v0.89c3.44-0.89,8.7-0.97,8.7,6.84c0,1.77,0,79.25,0,79.25h23.19v-43.73c1-1.62,7.44-10.67,20.26,2.14
			l14-14l-14.1-14L297.45-95.83z"/>
		<path class="st2" d="M558.39-115.99l-25.32,9.47l-9.47-9.47l-23.19,8.7l-11.6-8.7l-20.3,10.15v0.6c3.44-0.47,8.7,0.72,8.7,12.44
			v46.39h23.19v-57.99c11.6-2.9,11.6,5.8,11.6,5.8v52.19h23.19v-57.99c11.6-2.9,11.6,5.8,11.6,5.8v52.19h23.19v-57.99L558.39-115.99
			z"/>
		<path class="st2" d="M384.82-109.19l-20.16,20.16v-26.95l-31.89,21.26v0.89c3.44-0.89,8.7-0.97,8.7,6.84c0,11.6,0,40.59,0,40.59
			h23.19v-36.93c1-1.62,7.44-10.67,20.26,2.14l14-14L384.82-109.19z"/>
		<path class="st2" d="M439.51-115.99l-34.79,23.19v24.58c0,0,0,23.19,23.19,23.19h5.8h5.8c23.19,0,23.19-23.19,23.19-23.19v-36.17
			L439.51-115.99z M439.51-59.52c0,0,0,5.8-5.8,5.8s-5.8-5.8-5.8-5.8v-47.77l11.6,5.8V-59.52z"/>
	</g>
</g>
</svg>
