<?xml version="1.0" encoding="utf-8"?>
<!-- Generator: Adobe Illustrator 25.2.3, SVG Export Plug-In . SVG Version: 6.00 Build 0)  -->
<svg version="1.1" id="Layer_1" xmlns="http://www.w3.org/2000/svg" xmlns:xlink="http://www.w3.org/1999/xlink" x="0px" y="0px"
	 viewBox="0 0 1920 234.55" style="enable-background:new 0 0 1920 234.55;" xml:space="preserve">
<style type="text/css">
	.st0{opacity:0;}
	.st1{fill:none;stroke:#FF3000;stroke-miterlimit:10;}
	.st2{fill:#FFFFFF;}
</style>
<g>
	<path d="M1732.95-3565.06l-23.19,8.7l-11.6-8.7l-20.3,10.15v0.6c3.44-0.47,8.7,0.72,8.7,12.44v46.39h23.19v-57.99
		c11.6-2.9,11.6,5.8,11.6,5.8v52.19h23.19v-57.99L1732.95-3565.06z"/>
	<path d="M377.47-3540.07l-8.9-18.2l-6.25-3.2l-7.03-3.6l-16.61,16.99c0,0,6.64-3.4,9.97,3.4l14.25,29.15
		c-1.95,1.07-4.23,1.93-6.51,1.93h-15.1v18.12h15.1l8.25-16.49l8.06,16.49h26.58l-20.76-42.47c2.29-1.57,5.43-3.19,8.56-3.19h15.1
		v-18.12h-15.1L377.47-3540.07z"/>
	<path d="M283.3-3547.67v-5.8l-23.19-11.6l-34.79,23.19v2.9c0,14.5,14.5,14.5,14.5,14.5h14.5c5.8,0,5.8,5.8,5.8,5.8v8.7
		c0,0,0,5.8-5.8,5.8c-5.8,0-5.8-5.8-5.8-5.8l0-7.13h0v-1.56h-23.19v1.46h0c0,23.19,23.19,23.24,23.19,23.24h11.6
		c23.19,0,23.2-17.44,23.2-17.44l0-4.36c0-14.5-14.5-14.5-14.5-14.5h-14.5c-5.8,0-5.8-5.8-5.8-5.8v-20.29l11.6,2.9v18.85
		L283.3-3547.67z"/>
	<path d="M596.42-3565.06l-34.79,23.19v34.79l11.6,11.6l23.19-8.7v40.59c0,0,0,5.8-5.8,5.8c-5.8,0-5.8-5.8-5.8-5.8v-17.4h-23.19v8.7
		c0,0,0,23.19,23.19,23.19h11.6c23.19,0,23.19-23.19,23.19-23.19v-46.39v-34.79L596.42-3565.06z M596.42-3507.08
		c-11.6,2.9-11.6-5.8-11.6-5.8v-43.49l11.6,5.8V-3507.08z"/>
	<g>
		<path d="M883.45-3584.63v0.87c3-0.82,7.61-1.13,8.7,4.2v8.7l17.4-11.6v-20.3L883.45-3584.63z"/>
		<path d="M877.65-3543.8v0.89c3.44-0.89,8.7-0.97,8.7,6.84c0,11.6,0,40.59,0,40.59h23.19v-69.58L877.65-3543.8z"/>
	</g>
	<g>
		<path d="M521.04-3584.63v0.87c3-0.82,7.61-1.13,8.7,4.2v8.7l17.4-11.6v-20.3L521.04-3584.63z"/>
		<path d="M515.24-3543.8v0.89c3.44-0.89,8.7-0.97,8.7,6.84c0,11.6,0,40.59,0,40.59h23.19v-69.58L515.24-3543.8z"/>
	</g>
	<g>
		<path d="M297.79-3584.63v0.87c3-0.82,7.61-1.13,8.7,4.2v8.7l17.4-11.6v-20.3L297.79-3584.63z"/>
		<path d="M291.99-3543.8v0.89c3.44-0.89,8.7-0.97,8.7,6.84c0,11.6,0,40.59,0,40.59h23.19v-69.58L291.99-3543.8z"/>
	</g>
	<g>
		<path d="M1422.72-3584.63v0.87c3-0.82,7.61-1.13,8.7,4.2v8.7l17.4-11.6v-20.3L1422.72-3584.63z"/>
		<path d="M1416.92-3542.92c3.44-0.89,8.7-0.97,8.7,6.84c0,0.47,0,72.48,0,72.48s0,5.8-5.8,5.8c-5.8,0-5.8-5.8-5.8-5.8v-17.4h-23.19
			v8.7c0,0,0,23.19,23.19,23.19h11.6c23.19,0,23.19-23.19,23.19-23.19v-92.78l-31.89,21.26V-3542.92z"/>
	</g>
	<path d="M1669.28-3507.08l-0.12-46.39l-23.19-11.6l-34.79,23.19v28.99c0,0,0,18.9,20.38,18.9c14.45,0,17.09-6.55,17.09-6.55
		s0.46,5.05,3.11,5.05c5.42,0,18.62,0,20.3,0v-2.91C1669.16-3498.39,1669.28-3507.08,1669.28-3507.08z M1645.97-3509.98
		c0,0,0.12,5.8-5.68,5.8s-5.92-5.8-5.92-5.8v-46.39l11.6,5.8V-3509.98z"/>
	<path d="M1521.42-3507.08l-0.12-46.39l-23.19-11.6l-34.79,23.19v28.99c0,0,0,18.9,20.38,18.9c14.45,0,17.09-6.55,17.09-6.55
		s0.46,5.05,3.11,5.05c5.42,0,18.62,0,20.3,0v-2.91C1521.3-3498.39,1521.42-3507.08,1521.42-3507.08z M1498.1-3509.98
		c0,0,0.12,5.8-5.68,5.8c-5.8,0-5.92-5.8-5.92-5.8v-46.39l11.6,5.8V-3509.98z"/>
	<path d="M1100.9-3544.91v-57.85l11.6,5.8v20.3l11.6,8.7l20.3-10.15v-0.6c-3.44,0.47-8.7-0.72-8.7-12.44v-8.7l-23.19-11.6
		l-43.49,28.99v0.89c3.44-0.89,8.7-0.97,8.7,6.84c0,1.77,0,79.25,0,79.25h23.19v-43.73c1-1.62,7.44-10.67,20.26,2.14l14-14l-14.1-14
		L1100.9-3544.91z"/>
	<path d="M918.24-3593.09v0.89c3.44-0.89,8.7-0.97,8.7,6.84c0,11.6,0,89.88,0,89.88h23.19v-118.87L918.24-3593.09z"/>
	<path d="M1361.84-3565.06l-25.32,9.47l-9.47-9.47l-23.19,8.7l-11.6-8.7l-20.3,10.15v0.6c3.44-0.47,8.7,0.72,8.7,12.44v46.39h23.19
		v-57.99c11.6-2.9,11.6,5.8,11.6,5.8v52.19h23.19v-57.99c11.6-2.9,11.6,5.8,11.6,5.8v52.19h23.19v-57.99L1361.84-3565.06z"/>
	<path d="M695-3593.09v0.89c3.44-0.89,8.7,1.93,8.7,9.74c0,8.28,0,25.13,0,25.13l-11.6-7.73l-23.19,11.6l0,40.59
		c0,0-0.12,18.9,20.27,18.9c14.45,0,14.52-10.2,14.52-10.2l0,0c0,2.78,0,5.68,0,8.7h23.19v-118.87L695-3593.09z M703.69-3524.47
		c0,4.42,0,9.23,0,14.5c0,0,0,5.8-5.8,5.8c-5.8,0-5.8-5.8-5.8-5.8v-14.5v-4.77h0v-21.32l11.6-5.8c0,6.35,0,14.94,0,27.12
		C703.69-3527.71,703.69-3526.12,703.69-3524.47z"/>
	<path d="M483.35-3565.06l-11.6,7.73v-57.02l-31.89,21.26v0.89c3.44-0.89,8.7,1.93,8.7,9.74c0,6.43,0,86.98,0,86.98h23.19v-8.7l0,0
		c0,0,0.07,10.2,14.52,10.2c20.38,0,20.27-18.9,20.27-18.9l0-40.59L483.35-3565.06z M483.35-3509.98c0,0,0,5.8-5.8,5.8
		s-5.8-5.8-5.8-5.8v-46.39l11.6,5.8L483.35-3509.98z"/>
	<path d="M776.18-3526.41l23.19-15.46v-11.6l-23.19-11.6l-34.79,23.19v20.3c0,26.09,23.19,27.29,23.19,27.29h11.6
		c23.19,0,23.19-24.39,23.19-24.39h-23.19v8.7c0,0,0,5.8-5.8,5.8s-5.8-5.8-5.8-5.8v-16.42L776.18-3526.41z M776.18-3550.57v14.49
		c0,5.65-11.6,5.81-11.6,5.81v-26.09L776.18-3550.57z"/>
	<path d="M1022.62-3547.67v-5.8l-23.19-11.6l-34.79,23.19v2.9c0,14.5,14.5,14.5,14.5,14.5h14.5c5.8,0,5.8,5.8,5.8,5.8v8.7
		c0,0,0,5.8-5.8,5.8s-5.8-5.8-5.8-5.8l0-7.13h0v-1.56h-23.19v1.46h0c0,23.19,23.19,23.24,23.19,23.24h11.6
		c23.19,0,23.2-17.44,23.2-17.44l0-4.36c0-14.5-14.5-14.5-14.5-14.5h-14.5c-5.8,0-5.8-5.8-5.8-5.8v-20.29l11.6,2.9v18.85
		L1022.62-3547.67z"/>
	<path d="M1573.48-3565.06l-11.6,7.73v-10.63L1530-3546.7v0.89c3.44-0.89,8.7-0.97,8.7,6.84c0,3.04,0,89.88,0,89.88h23.19v-46.39
		h11.6c23.19,0,23.19-23.19,23.19-23.19v-34.79L1573.48-3565.06z M1573.48-3509.98c0,0,0,5.8-5.8,5.8s-5.8-5.8-5.8-5.8v-46.39
		l11.6,5.8V-3509.98z"/>
	<path d="M1188.27-3558.27l-20.16,20.16v-26.95l-31.89,21.26v0.89c3.44-0.89,8.7-0.97,8.7,6.84c0,11.6,0,40.59,0,40.59h23.19v-36.93
		c1-1.62,7.44-10.67,20.26,2.14l14-14L1188.27-3558.27z"/>
	<path d="M857.85-3564.53l-14,14c0,0,16.23,11.44,13.54,22.98l-5.84,23.37l-14.5-20.29v-31.89l-11.6-8.7l-20.3,10.15v0.6
		c3.44-0.47,8.7,0.72,8.7,12.44h0.04l-0.04,23.19l17.4,23.19l24.02-0.11l16.54-54.87L857.85-3564.53z"/>
	<path d="M1242.96-3565.06l-34.79,23.19v24.58c0,0,0,23.19,23.19,23.19h5.8h5.8c23.19,0,23.19-23.19,23.19-23.19v-36.17
		L1242.96-3565.06z M1242.96-3508.6c0,0,0,5.8-5.8,5.8c-5.8,0-5.8-5.8-5.8-5.8v-47.77l11.6,5.8V-3508.6z"/>
</g>
<g>
	<g>
		<path d="M296.11-3352.2v0.87c3-0.82,7.61-1.13,8.7,4.2v8.7l17.4-11.6v-20.3L296.11-3352.2z"/>
		<path d="M290.31-3311.38v0.89c3.44-0.89,8.7-0.97,8.7,6.84c0,11.6,0,40.59,0,40.59h23.19v-69.58L290.31-3311.38z"/>
	</g>
	<path d="M1656.47-3274.66l-0.12-46.39l-23.19-11.6l-34.79,23.19v28.99c0,0,0,18.9,20.38,18.9c14.45,0,17.09-6.55,17.09-6.55
		s0.46,5.05,3.11,5.05c5.42,0,18.62,0,20.3,0v-2.91C1656.35-3265.97,1656.47-3274.66,1656.47-3274.66z M1633.16-3277.56
		c0,0,0.12,5.8-5.68,5.8s-5.92-5.8-5.92-5.8v-46.39l11.6,5.8V-3277.56z"/>
	<path d="M394.68-3309.45v-11.6l-23.19-11.6l-34.79,23.19v20.3c0,26.09,23.19,27.6,23.19,27.6h11.6c23.19,0,23.19-24.7,23.19-24.7
		h-23.19v8.7c0,0,0,5.8-5.8,5.8c-5.8,0-5.8-5.8-5.8-5.8v-46.39l11.6,5.8v24.16L394.68-3309.45z"/>
	<path d="M653.19-3312.49v-57.85l11.6,5.8v20.3l11.6,8.7l20.3-10.15v-0.6c-3.44,0.47-8.7-0.72-8.7-12.44v-8.7l-23.19-11.6
		l-43.49,28.99v0.89c3.44-0.89,8.7-0.97,8.7,6.84c0,1.77,0,79.25,0,79.25h23.19v-43.73c1-1.62,7.44-10.67,20.26,2.14l14-14l-14.1-14
		L653.19-3312.49z"/>
	<path d="M1096.79-3332.64l-20.3,12.92v-62.2l-31.89,21.26v0.89c3.44-0.89,8.7-0.97,8.7,6.84c0,11.6,0,89.88,0,89.88h23.19v-51.82
		c5.8-1.81,11.6-1.81,11.6,5.44v46.39h23.19v-46.39h5.8L1096.79-3332.64z"/>
	<path d="M472.96-3312.35l-17.4-20.3l-23.19,17.37v-55.06l-31.89,18.36v0.59c3.43-0.91,8.79-1.07,8.79,6.82
		c0,11.6-0.1,81.5-0.1,81.5h23.19v-27.34c11.59,2.15,11.6,15.75,11.6,15.75v11.6l23.19-0.14c0-28.94-23.19-28.85-23.19-28.85h-11.31
		l34.5-20.3H472.96z M432.37-3293.53v-18.94c3.75-1.3,9.45-2.13,11.6,3.03C446.28-3303.91,439.9-3299.07,432.37-3293.53z"/>
	<path d="M472.96-3360.67v0.89c3.44-0.89,8.7-0.97,8.7,6.84c0,11.6,0,89.88,0,89.88h23.19v-118.87L472.96-3360.67z"/>
	<path d="M1665.05-3360.67v0.89c3.44-0.89,8.7-0.97,8.7,6.84c0,11.6,0,89.88,0,89.88h23.19v-118.87L1665.05-3360.67z"/>
	<path d="M185.93-3332.64l-34.79,23.19v23.19c0,23.19,23.19,23.19,23.19,23.19h11.6v46.39h23.19v-104.38L185.93-3332.64z
		 M185.93-3277.56c0,0,0,5.8-5.8,5.8c-5.8,0-5.8-5.8-5.8-5.8v-46.39l11.6,5.8V-3277.56z"/>
	<path d="M554.14-3332.64v57.99c-11.6,2.9-11.6-5.8-11.6-5.8v-43.49v-0.97l-23.19,15.46v34.79l11.6,11.6l23.19-8.7v40.59
		c0,0,0,5.8-5.8,5.8c-5.8,0-5.8-5.8-5.8-5.8v-17.4h-23.19v8.7c0,0,0,23.19,23.19,23.19h5.8h5.8c23.19,0,23.19-23.19,23.19-23.19
		v-81.18L554.14-3332.64z"/>
	<path d="M281.61-3321.05l-23.19-11.59l0.07,55.09c0,0,0,5.8-5.8,5.8s-5.8-5.8-5.8-5.8l-0.07-47.36l-23.19,15.46l0.07,29
		c0,0-0.12,18.9,20.27,18.9c14.45,0,14.52-10.2,14.52-10.2l0,0v8.7h23.19L281.61-3321.05z"/>
	<path d="M1790.52-3271.06c-1.8,3.31-6.1,5.43-9.52,6.65l27.53-47.44c3.79-6.55,10.18-2.69,10.18-2.69l-15.39-18.11l-13.73,5.85
		c-11.63,0.23-22.76-5.83-22.76-5.83l-14.33,26.36l14.7,8l11.2-20.58c1.9-3.5,6.78-5.53,10.42-6.61l-36.2,62.4h52.59l11.2-20.58
		l-14.7-8L1790.52-3271.06z"/>
	<path d="M1737.53-3332.64v-37.69l-26.09,18.13v0.87c3-0.82,7.61-1.13,8.7,4.2v5.8c0,11.86-17.4,11.86-17.4,11.86v2.64h11.72v63.78
		h23.5c0.03-5.4,0.05-49.59,0.05-55.09c0-11.86,11.6-11.6,11.6-11.6v-2.9H1737.53z"/>
	<path d="M1372.22-3332.64v-37.69l-26.09,18.13v0.87c3-0.82,7.61-1.13,8.7,4.2v5.8c0,11.86-17.4,11.86-17.4,11.86v2.64h11.72v63.78
		h23.5c0.03-5.4,0.05-49.59,0.05-55.09c0-11.86,11.6-11.6,11.6-11.6v-2.9H1372.22z"/>
	<path d="M1001.11-3332.64v-37.69l-26.09,18.13v0.87c3-0.82,7.61-1.13,8.7,4.2v5.8c0,11.86-17.4,11.86-17.4,11.86v2.64h11.72v63.78
		h23.5c0.03-5.4,0.05-49.59,0.05-55.09c0-11.86,11.6-11.6,11.6-11.6v-2.9H1001.11z"/>
	<path d="M1578.6-3332.11l-14,14c0,0,16.23,11.44,13.54,22.98l-5.84,23.37l-14.5-20.3v-31.89l-11.6-8.7l-20.33,10.16v0.59
		c3.43-0.48,8.73,0.68,8.73,12.44h0.04l-0.03,14.5l-0.05,0c0,0.02,0.02,0.03,0.05,0.04l-0.02,8.66l4.87,6.49l-2,8.01l-14.5-20.3
		v-31.89l-11.6-8.7l-20.3,10.15v0.6c3.44-0.47,8.7,0.72,8.7,12.44h0.04l-0.04,23.19l17.4,23.19l24.02-0.11l3.07-10.19l7.73,10.31
		l24.02-0.11l16.54-54.87L1578.6-3332.11z"/>
	<path d="M1282.87-3332.11l-14,14c0,0,16.23,11.44,13.54,22.98l-5.84,23.37l-14.5-20.3v-31.89l-11.6-8.7l-20.33,10.16v0.59
		c3.43-0.48,8.73,0.68,8.73,12.44h0.04l-0.03,14.5l-0.05,0c0,0.02,0.02,0.03,0.05,0.04l-0.02,8.66l4.87,6.49l-2,8.01l-14.5-20.3
		v-31.89l-11.6-8.7l-20.3,10.15v0.6c3.44-0.47,8.7,0.72,8.7,12.44h0.04l-0.04,23.19l17.4,23.19l24.02-0.11l3.07-10.19l7.73,10.31
		l24.02-0.11l16.54-54.87L1282.87-3332.11z"/>
	<path d="M1163.47-3332.64l-34.79,23.19v24.58c0,0,0,23.19,23.19,23.19h5.8h5.8c23.19,0,23.19-23.19,23.19-23.19v-36.17
		L1163.47-3332.64z M1163.47-3276.17c0,0,0,5.8-5.8,5.8s-5.8-5.8-5.8-5.8v-47.77l11.6,5.8V-3276.17z"/>
	<path d="M937.32-3332.64l-34.79,23.19v24.58c0,0,0,23.19,23.19,23.19h5.8h5.8c23.19,0,23.19-23.19,23.19-23.19v-36.17
		L937.32-3332.64z M937.32-3276.17c0,0,0,5.8-5.8,5.8c-5.8,0-5.8-5.8-5.8-5.8v-47.77l11.6,5.8V-3276.17z"/>
	<path d="M864.84-3332.64l-34.79,23.19v34.79l11.6,11.6l23.19-8.7v40.59c0,0,0,5.8-5.8,5.8c-5.8,0-5.8-5.8-5.8-5.8v-17.4h-23.19v8.7
		c0,0,0,23.19,23.19,23.19h11.6c23.19,0,23.19-23.19,23.19-23.19v-46.39v-34.79L864.84-3332.64z M864.84-3274.66
		c-11.6,2.9-11.6-5.8-11.6-5.8v-43.49l11.6,5.8V-3274.66z"/>
	<path d="M809.62-3325.85l-20.16,20.16v-26.95l-31.89,21.26v0.89c3.44-0.89,8.7-0.97,8.7,6.84c0,11.6,0,40.59,0,40.59h23.19v-36.93
		c1-1.62,7.44-10.67,20.26,2.14l14-14L809.62-3325.85z"/>
	<path d="M725.68-3332.64l-34.79,23.19v24.58c0,0,0,23.19,23.19,23.19h5.8h5.8c23.19,0,23.19-23.19,23.19-23.19v-36.17
		L725.68-3332.64z M725.68-3276.17c0,0,0,5.8-5.8,5.8s-5.8-5.8-5.8-5.8v-47.77l11.6,5.8V-3276.17z"/>
	<path d="M1424.41-3332.64l-34.79,23.19v24.58c0,0,0,23.19,23.19,23.19h5.8h5.8c23.19,0,23.19-23.19,23.19-23.19v-36.17
		L1424.41-3332.64z M1424.41-3276.17c0,0,0,5.8-5.8,5.8c-5.8,0-5.8-5.8-5.8-5.8v-47.77l11.6,5.8V-3276.17z"/>
</g>
<g>
	<path d="M1035.9-2007.68l-23.19,8.7l-11.6-8.7l-20.3,10.15v0.6c3.44-0.47,8.7,0.72,8.7,12.44v46.39h23.19v-57.99
		c11.6-2.9,11.6,5.8,11.6,5.8v52.19h23.19v-57.99L1035.9-2007.68z"/>
	<path d="M812.65-2007.68l-23.19,8.7l-11.6-8.7l-20.3,10.15v0.6c3.44-0.47,8.7,0.72,8.7,12.44v46.39h23.19v-57.99
		c11.6-2.9,11.6,5.8,11.6,5.8v52.19h23.19v-57.99L812.65-2007.68z"/>
	<path d="M873.54-2007.68l-34.79,23.19v34.79l11.6,11.6l23.19-8.7v40.59c0,0,0,5.8-5.8,5.8c-5.8,0-5.8-5.8-5.8-5.8v-17.4h-23.19v8.7
		c0,0,0,23.19,23.19,23.19h11.6c23.19,0,23.19-23.19,23.19-23.19v-46.39v-34.79L873.54-2007.68z M873.54-1949.69
		c-11.6,2.9-11.6-5.8-11.6-5.8v-43.49l11.6,5.8V-1949.69z"/>
	<g>
		<path d="M946.02-2027.24v0.87c3-0.82,7.61-1.13,8.7,4.2v8.7l17.4-11.6v-20.3L946.02-2027.24z"/>
		<path d="M940.22-1986.42v0.89c3.44-0.89,8.7-0.97,8.7,6.84c0,11.6,0,40.59,0,40.59h23.19v-69.58L940.22-1986.42z"/>
	</g>
	<g>
		<path d="M722.78-2027.24v0.87c3-0.82,7.61-1.13,8.7,4.2v8.7l17.4-11.6v-20.3L722.78-2027.24z"/>
		<path d="M716.98-1986.42v0.89c3.44-0.89,8.7-0.97,8.7,6.84c0,11.6,0,40.59,0,40.59h23.19v-69.58L716.98-1986.42z"/>
	</g>
	<path d="M589.53-1949.69l-0.12-46.39l-23.19-11.6l-34.79,23.19v28.99c0,0,0,18.9,20.38,18.9c14.45,0,17.09-6.55,17.09-6.55
		s0.46,5.05,3.11,5.05c5.42,0,18.62,0,20.3,0v-2.91C589.41-1941.01,589.53-1949.69,589.53-1949.69z M566.21-1952.59
		c0,0,0.12,5.8-5.68,5.8s-5.92-5.8-5.92-5.8v-46.39l11.6,5.8V-1952.59z"/>
	<path d="M1186.66-2007.68l-20.3,12.92v-62.2l-31.89,21.26v0.89c3.44-0.89,8.7-0.97,8.7,6.84c0,11.6,0,89.88,0,89.88h23.19v-51.82
		c5.8-1.81,11.6-1.81,11.6,5.44v46.39h23.19v-46.39h5.8L1186.66-2007.68z"/>
	<path d="M711.18-1987.38l-17.4-20.3l-23.19,17.37v-55.06l-31.89,18.36v0.59c3.43-0.91,8.79-1.07,8.79,6.82
		c0,11.6-0.1,81.5-0.1,81.5h23.19v-27.34c11.59,2.15,11.6,15.75,11.6,15.75v11.6l23.19-0.14c0-28.94-23.19-28.85-23.19-28.85h-11.31
		l34.5-20.3H711.18z M670.59-1968.57v-18.94c3.75-1.3,9.45-2.13,11.6,3.03C684.49-1978.94,678.12-1974.11,670.59-1968.57z"/>
	<path d="M598.11-2035.71v0.89c3.44-0.89,8.7-0.97,8.7,6.84c0,11.6,0,89.88,0,89.88H630v-118.87L598.11-2035.71z"/>
	<path d="M1250.45-1969.02l23.19-15.46v-11.6l-23.19-11.6l-34.79,23.19v20.3c0,26.09,23.19,27.29,23.19,27.29h11.6
		c23.19,0,23.19-24.39,23.19-24.39h-23.19v8.7c0,0,0,5.8-5.8,5.8s-5.8-5.8-5.8-5.8v-16.42L1250.45-1969.02z M1250.45-1993.18v14.49
		c0,5.65-11.6,5.81-11.6,5.81v-26.09L1250.45-1993.18z"/>
	<path d="M1363.84-1946.09c-1.8,3.31-6.1,5.43-9.52,6.65l27.53-47.44c3.79-6.55,10.18-2.69,10.18-2.69l-15.39-18.11l-13.73,5.85
		c-11.63,0.23-22.76-5.83-22.76-5.83l-14.33,26.36l14.7,8l11.2-20.58c1.9-3.5,6.78-5.53,10.42-6.61l-36.2,62.4h52.59l11.2-20.58
		l-14.7-8L1363.84-1946.09z"/>
	<path d="M1122.88-2007.68v-37.69l-26.09,18.13v0.87c3-0.82,7.61-1.13,8.7,4.2v5.8c0,11.86-17.4,11.86-17.4,11.86v2.64h11.72v63.78
		h23.5c0.03-5.4,0.05-49.59,0.05-55.09c0-11.86,11.6-11.6,11.6-11.6v-2.9H1122.88z"/>
	<path d="M511.66-2007.14l-14,14c0,0,16.23,11.44,13.54,22.98l-5.84,23.37l-14.5-20.3v-31.89l-11.6-8.7l-20.33,10.16v0.59
		c3.43-0.48,8.73,0.68,8.73,12.44h0.04l-0.03,14.5l-0.05,0c0,0.02,0.02,0.03,0.05,0.04l-0.02,8.66l4.87,6.49l-2,8.01l-14.5-20.3
		v-31.89l-11.6-8.7l-20.3,10.15v0.6c3.44-0.47,8.7,0.72,8.7,12.44h0.04l-0.04,23.19l17.4,23.19l24.02-0.11l3.07-10.19l7.73,10.31
		l24.02-0.11l16.54-54.87L511.66-2007.14z"/>
	<path d="M1502.69-2007.68l-34.79,23.19v24.58c0,0,0,23.19,23.19,23.19h5.8h5.8c23.19,0,23.19-23.19,23.19-23.19v-36.17
		L1502.69-2007.68z M1502.69-1951.21c0,0,0,5.8-5.8,5.8s-5.8-5.8-5.8-5.8v-47.77l11.6,5.8V-1951.21z"/>
	<path d="M1433.11-2007.68l-34.79,23.19v24.58c0,0,0,23.19,23.19,23.19h5.8h5.8c23.19,0,23.19-23.19,23.19-23.19v-36.17
		L1433.11-2007.68z M1433.11-1951.21c0,0,0,5.8-5.8,5.8s-5.8-5.8-5.8-5.8v-47.77l11.6,5.8V-1951.21z"/>
</g>
<g>
	<path d="M441.31-1538.48l-23.19,8.7l-11.6-8.7l-20.3,10.15v0.6c3.44-0.47,8.7,0.72,8.7,12.44v46.39h23.19v-57.99
		c11.6-2.9,11.6,5.8,11.6,5.8v52.19h23.19v-57.99L441.31-1538.48z"/>
	<path d="M809.52-1538.48l-23.19,8.7l-11.6-8.7l-20.3,10.15v0.6c3.44-0.47,8.7,0.72,8.7,12.44v46.39h23.19v-57.99
		c11.6-2.9,11.6,5.8,11.6,5.8v52.19h23.19v-57.99L809.52-1538.48z"/>
	<path d="M377.64-1480.49l-0.12-46.39l-23.19-11.6l-34.79,23.19v28.99c0,0,0,18.9,20.38,18.9c14.45,0,17.09-6.55,17.09-6.55
		s0.46,5.05,3.11,5.05c5.42,0,18.62,0,20.3,0v-2.91C377.52-1471.81,377.64-1480.49,377.64-1480.49z M354.33-1483.39
		c0,0,0.12,5.8-5.68,5.8s-5.92-5.8-5.92-5.8v-46.39l11.6,5.8V-1483.39z"/>
	<path d="M960.76-1538.48l-20.3,12.92v-62.2l-31.89,21.26v0.89c3.44-0.89,8.7-0.97,8.7,6.84c0,11.6,0,89.88,0,89.88h23.19v-51.83
		c5.8-1.81,11.6-1.81,11.6,5.44v46.39h23.19v-46.39h5.8L960.76-1538.48z"/>
	<path d="M493.49-1566.51v0.89c3.44-0.89,8.7,1.93,8.7,9.74c0,8.28,0,25.13,0,25.13l-11.6-7.73l-23.19,11.6l0,40.59
		c0,0-0.12,18.9,20.27,18.9c14.45,0,14.52-10.2,14.52-10.2l0,0c0,2.78,0,5.68,0,8.7h23.19v-118.87L493.49-1566.51z M502.19-1497.89
		c0,4.42,0,9.23,0,14.5c0,0,0,5.8-5.8,5.8c-5.8,0-5.8-5.8-5.8-5.8v-14.5v-4.77h0v-21.32l11.6-5.8c0,6.35,0,14.94,0,27.12
		C502.19-1501.13,502.19-1499.54,502.19-1497.89z"/>
	<path d="M1021.64-1499.82l23.19-15.46v-11.6l-23.19-11.6l-34.79,23.19v20.3c0,26.09,23.19,27.29,23.19,27.29h11.6
		c23.19,0,23.19-24.39,23.19-24.39h-23.19v8.7c0,0,0,5.8-5.8,5.8s-5.8-5.8-5.8-5.8v-16.42L1021.64-1499.82z M1021.64-1523.98v14.49
		c0,5.65-11.6,5.81-11.6,5.81v-26.09L1021.64-1523.98z"/>
	<path d="M1155.01-1499.82l23.19-15.46v-11.6l-23.19-11.6l-34.79,23.19v20.3c0,26.09,23.19,27.29,23.19,27.29h11.6
		c23.19,0,23.19-24.39,23.19-24.39h-23.19v8.7c0,0,0,5.8-5.8,5.8c-5.8,0-5.8-5.8-5.8-5.8v-16.42L1155.01-1499.82z M1155.01-1523.98
		v14.49c0,5.65-11.6,5.81-11.6,5.81v-26.09L1155.01-1523.98z"/>
	<path d="M1102.68-1531.69l-20.16,20.16v-26.95l-31.89,21.26v0.89c3.44-0.89,8.7-0.97,8.7,6.84c0,11.6,0,40.59,0,40.59h23.19v-36.93
		c1-1.62,7.44-10.67,20.26,2.14l14-14L1102.68-1531.69z"/>
	<path d="M1363.76-1499.82l23.19-15.46v-11.6l-23.19-11.6l-34.79,23.19v20.3c0,26.09,23.19,27.29,23.19,27.29h11.6
		c23.19,0,23.19-24.39,23.19-24.39h-23.19v8.7c0,0,0,5.8-5.8,5.8s-5.8-5.8-5.8-5.8v-16.42L1363.76-1499.82z M1363.76-1523.98v14.49
		c0,5.65-11.6,5.81-11.6,5.81v-26.09L1363.76-1523.98z"/>
	<path d="M1497.13-1499.82l23.19-15.46v-11.6l-23.19-11.6l-34.79,23.19v20.3c0,26.09,23.19,27.29,23.19,27.29h11.6
		c23.19,0,23.19-24.39,23.19-24.39h-23.19v8.7c0,0,0,5.8-5.8,5.8c-5.8,0-5.8-5.8-5.8-5.8v-16.42L1497.13-1499.82z M1497.13-1523.98
		v14.49c0,5.65-11.6,5.81-11.6,5.81v-26.09L1497.13-1523.98z"/>
	<path d="M1444.8-1531.69l-20.16,20.16v-26.95l-31.89,21.26v0.89c3.44-0.89,8.7-0.97,8.7,6.84c0,11.6,0,40.59,0,40.59h23.19v-36.93
		c1-1.62,7.44-10.67,20.26,2.14l14-14L1444.8-1531.69z"/>
	<path d="M896.5-1538.48v-37.69l-26.09,18.13v0.87c3-0.82,7.61-1.13,8.7,4.2v5.8c0,11.86-17.4,11.86-17.4,11.86v2.64h11.72v63.78
		h23.5c0.03-5.4,0.05-49.59,0.05-55.09c0-11.86,11.6-11.6,11.6-11.6v-2.9H896.5z"/>
	<path d="M664.55-1538.48l-20.3,12.92v-62.2l-31.89,21.26v0.89c3.44-0.89,8.7-0.97,8.7,6.84c0,11.6,0,89.88,0,89.88h23.19v-51.83
		c5.8-1.81,11.6-1.81,11.6,5.44v46.39h23.19v-46.39h5.8L664.55-1538.48z"/>
	<path d="M725.44-1499.82l23.19-15.46v-11.6l-23.19-11.6l-34.79,23.19v20.3c0,26.09,23.19,27.29,23.19,27.29h11.6
		c23.19,0,23.19-24.39,23.19-24.39h-23.19v8.7c0,0,0,5.8-5.8,5.8c-5.8,0-5.8-5.8-5.8-5.8v-16.42L725.44-1499.82z M725.44-1523.98
		v14.49c0,5.65-11.6,5.81-11.6,5.81v-26.09L725.44-1523.98z"/>
	<path d="M600.3-1538.48v-37.69l-26.09,18.13v0.87c3-0.82,7.61-1.13,8.7,4.2v5.8c0,11.86-17.4,11.86-17.4,11.86v2.64h11.72v63.78
		h23.5c0.03-5.4,0.05-49.59,0.05-55.09c0-11.86,11.6-11.6,11.6-11.6v-2.9H600.3z"/>
	<path d="M1309.2-1537.94l-14,14c0,0,16.23,11.44,13.54,22.98l-5.84,23.37l-14.5-20.3v-31.89l-11.6-8.7l-20.33,10.16v0.59
		c3.43-0.48,8.73,0.68,8.73,12.44h0.04l-0.03,14.5l-0.05,0c0,0.02,0.02,0.03,0.05,0.04l-0.02,8.66l4.87,6.49l-2,8.01l-14.5-20.3
		v-31.89l-11.6-8.7l-20.3,10.15v0.6c3.44-0.47,8.7,0.72,8.7,12.44h0.04l-0.04,23.19l17.4,23.19l24.02-0.11l3.07-10.19l7.73,10.31
		l24.02-0.11l16.54-54.87L1309.2-1537.94z"/>
	<path d="M1630.49-1547.18v-17.4l-23.19-11.6l-34.79,23.19v20.3h23.19v-34.79l11.6,5.8v26.09c0,0,0,8.7-5.8,8.7v8.7
		c5.8,0,5.8,8.7,5.8,8.7v26.41c0,0,0,5.8-5.8,5.8s-5.8-5.8-5.8-5.8v-23.19h-23.19v14.5c0,0,0,24.72,23.19,24.72h11.6
		c23.19,0,23.2-24.72,23.2-24.72v-14.81c0,0,0-9.23-8.78-15.95C1630.49-1529.25,1630.49-1547.18,1630.49-1547.18z"/>
</g>
<g>
	<g>
		<path d="M1070.69-2261.81v0.87c3-0.82,7.61-1.13,8.7,4.2v8.7l17.4-11.6v-20.3L1070.69-2261.81z"/>
		<path d="M1064.89-2220.98v0.89c3.44-0.89,8.7-0.97,8.7,6.84c0,11.6,0,40.59,0,40.59h23.19v-69.58L1064.89-2220.98z"/>
	</g>
	<g>
		<path d="M548.82-2261.81v0.87c3-0.82,7.61-1.13,8.7,4.2v8.7l17.4-11.6v-20.3L548.82-2261.81z"/>
		<path d="M543.02-2220.98v0.89c3.44-0.89,8.7-0.97,8.7,6.84c0,11.6,0,40.59,0,40.59h23.19v-69.58L543.02-2220.98z"/>
	</g>
	<path d="M951.82-2270.27v0.89c3.44-0.89,8.7-0.97,8.7,6.84c0,11.6,0,89.88,0,89.88h23.19v-118.87L951.82-2270.27z"/>
	<path d="M502.43-2270.27v0.89c3.44-0.89,8.7-0.97,8.7,6.84c0,11.6,0,89.88,0,89.88h23.19v-118.87L502.43-2270.27z"/>
	<path d="M661.89-2270.27v0.89c3.44-0.89,8.7-0.97,8.7,6.84c0,11.6,0,89.88,0,89.88h23.19v-118.87L661.89-2270.27z"/>
	<path d="M1024.3-2270.27v0.89c3.44-0.89,8.7,1.93,8.7,9.74c0,8.28,0,25.13,0,25.13l-11.6-7.73l-23.19,11.6l0,40.59
		c0,0-0.12,18.9,20.27,18.9c14.45,0,14.52-10.2,14.52-10.2l0,0c0,2.78,0,5.68,0,8.7h23.19v-118.87L1024.3-2270.27z M1033-2201.65
		c0,4.42,0,9.23,0,14.5c0,0,0,5.8-5.8,5.8s-5.8-5.8-5.8-5.8v-14.5v-4.77h0v-21.32l11.6-5.8c0,6.35,0,14.94,0,27.12
		C1033-2204.89,1033-2203.3,1033-2201.65z"/>
	<path d="M1328.73-2242.24l-11.6,7.73v-57.02l-31.89,21.26v0.89c3.44-0.89,8.7,1.93,8.7,9.74c0,6.43,0,86.98,0,86.98h23.19v-8.7l0,0
		c0,0,0.07,10.2,14.53,10.2c20.38,0,20.27-18.9,20.27-18.9l0-40.59L1328.73-2242.24z M1328.73-2187.16c0,0,0,5.8-5.8,5.8
		s-5.8-5.8-5.8-5.8v-46.39l11.6,5.8L1328.73-2187.16z"/>
	<path d="M1146.07-2203.59l23.19-15.46v-11.6l-23.19-11.6l-34.79,23.19v20.29c0,26.09,23.19,27.29,23.19,27.29h11.6
		c23.19,0,23.19-24.39,23.19-24.39h-23.19v8.7c0,0,0,5.8-5.8,5.8s-5.8-5.8-5.8-5.8v-16.42L1146.07-2203.59z M1146.07-2227.75v14.49
		c0,5.65-11.6,5.81-11.6,5.81v-26.09L1146.07-2227.75z"/>
	<path d="M743.07-2203.59l23.19-15.46v-11.6l-23.19-11.6l-34.79,23.19v20.29c0,26.09,23.19,27.29,23.19,27.29h11.6
		c23.19,0,23.19-24.39,23.19-24.39h-23.19v8.7c0,0,0,5.8-5.8,5.8c-5.8,0-5.8-5.8-5.8-5.8v-16.42L743.07-2203.59z M743.07-2227.75
		v14.49c0,5.65-11.6,5.81-11.6,5.81v-26.09L743.07-2227.75z"/>
	<path d="M1473.7-2242.24v57.99c-11.6,2.9-11.6-5.8-11.6-5.8v-43.49v-0.97l-23.19,15.46v34.79l11.6,11.6l23.19-8.7v40.59
		c0,0,0,5.8-5.8,5.8s-5.8-5.8-5.8-5.8v-17.4h-23.19v8.7c0,0,0,23.19,23.19,23.19h5.8h5.8c23.19,0,23.19-23.19,23.19-23.19v-81.18
		L1473.7-2242.24z"/>
	<path d="M1569.37-2224.85v-5.8l-23.19-11.6l-34.79,23.19v2.9c0,14.5,14.5,14.5,14.5,14.5h14.5c5.8,0,5.8,5.8,5.8,5.8v8.7
		c0,0,0,5.8-5.8,5.8s-5.8-5.8-5.8-5.8l0-7.13h0v-1.56h-23.19v1.46h0c0,23.19,23.19,23.24,23.19,23.24h11.6
		c23.19,0,23.2-17.44,23.2-17.44l0-4.36c0-14.5-14.5-14.5-14.5-14.5h-14.5c-5.8,0-5.8-5.8-5.8-5.8v-20.3l11.6,2.9v18.85
		L1569.37-2224.85z"/>
	<path d="M876.44-2224.85v-5.8l-23.19-11.6l-34.79,23.19v2.9c0,14.5,14.5,14.5,14.5,14.5h14.5c5.8,0,5.8,5.8,5.8,5.8v8.7
		c0,0,0,5.8-5.8,5.8s-5.8-5.8-5.8-5.8l0-7.13h0v-1.56h-23.19v1.46h0c0,23.19,23.19,23.24,23.19,23.24h11.6
		c23.19,0,23.2-17.44,23.2-17.44l0-4.36c0-14.5-14.5-14.5-14.5-14.5h-14.5c-5.8,0-5.8-5.8-5.8-5.8v-20.3l11.6,2.9v18.85
		L876.44-2224.85z"/>
	<path d="M1227.12-2235.45l-20.16,20.16v-26.95l-31.89,21.26v0.89c3.44-0.89,8.7-0.97,8.7,6.84c0,11.6,0,40.59,0,40.59h23.19v-36.93
		c1-1.62,7.44-10.67,20.26,2.14l14-14L1227.12-2235.45z"/>
	<path d="M652.72-2242.24v-37.69l-26.09,18.13v0.87c3-0.82,7.61-1.13,8.7,4.2v2.9c0,11.11-15.26,11.58-17.19,11.6h-3.1v-37.69
		l-26.09,18.13v0.87c3-0.82,7.61-1.13,8.7,4.2v5.8c0,11.86-17.4,11.6-17.4,11.6v2.9h11.72v63.78h23.5
		c0.03-5.4,0.05-49.59,0.05-55.09c0-11.11,10.18-11.58,11.46-11.6h2.68v66.68h23.5c0.03-5.4,0.05-49.59,0.05-55.09
		c0-11.86,11.6-11.6,11.6-11.6v-2.9H652.72z"/>
	<path d="M1401.21-2242.24l-34.79,23.19v24.58c0,0,0,23.19,23.19,23.19h5.8h5.8c23.19,0,23.19-23.19,23.19-23.19v-36.17
		L1401.21-2242.24z M1401.21-2185.78c0,0,0,5.8-5.8,5.8s-5.8-5.8-5.8-5.8v-47.77l11.6,5.8V-2185.78z"/>
	<path d="M922.83-2243.63l-34.79,23.19v24.58c0,0,0,23.19,23.19,23.19h5.8h5.8c23.19,0,23.19-23.19,23.19-23.19v-36.17
		L922.83-2243.63z M922.83-2187.16c0,0,0,5.8-5.8,5.8c-5.8,0-5.8-5.8-5.8-5.8v-47.77l11.6,5.8V-2187.16z"/>
	<path d="M447.34-2210.35v-61.2l-11.6-8.7l-20.3,10.15v1.43c3.44,0.6,8.7,3.74,8.7,17.41v46.7l-11.6-5.8v-17.71v-17.4l-11.6-8.7
		l-20.3,10.15v1.23c3.44,0.18,8.7,2.05,8.7,11.82v23.51l23.19,11.6l11.6-7.73v30.93h23.19v-23.19l11.6-7.73v-0.97L447.34-2210.35z"
		/>
</g>
<g>
	<path d="M1559.22-1773.23l-23.19,8.7l-11.6-8.7l-20.3,10.15v0.6c3.44-0.47,8.7,0.72,8.7,12.44v46.39h23.19v-57.99
		c11.6-2.9,11.6,5.8,11.6,5.8v52.19h23.19v-57.99L1559.22-1773.23z"/>
	<path d="M1147.52-1773.23l-34.79,23.19v34.79l11.6,11.6l23.19-8.7v40.59c0,0,0,5.8-5.8,5.8s-5.8-5.8-5.8-5.8v-17.4h-23.19v8.7
		c0,0,0,23.19,23.19,23.19h11.6c23.19,0,23.19-23.19,23.19-23.19v-46.39v-34.79L1147.52-1773.23z M1147.52-1715.24
		c-11.6,2.9-11.6-5.8-11.6-5.8v-43.49l11.6,5.8V-1715.24z"/>
	<path d="M1220.01-1773.23l-34.79,23.19v34.79l11.6,11.6l23.19-8.7v40.59c0,0,0,5.8-5.8,5.8c-5.8,0-5.8-5.8-5.8-5.8v-17.4h-23.19
		v8.7c0,0,0,23.19,23.19,23.19h11.6c23.19,0,23.19-23.19,23.19-23.19v-46.39v-34.79L1220.01-1773.23z M1220.01-1715.24
		c-11.6,2.9-11.6-5.8-11.6-5.8v-43.49l11.6,5.8V-1715.24z"/>
	<g>
		<path d="M489.38-1792.79v0.87c3-0.82,7.61-1.13,8.7,4.2v8.7l17.4-11.6v-20.3L489.38-1792.79z"/>
		<path d="M483.58-1751.96v0.89c3.44-0.89,8.7-0.97,8.7,6.84c0,11.6,0,40.59,0,40.59h23.19v-69.58L483.58-1751.96z"/>
	</g>
	<path d="M840.85-1715.24l-0.12-46.39l-23.19-11.6l-34.79,23.19v28.99c0,0,0,18.9,20.38,18.9c14.45,0,17.09-6.55,17.09-6.55
		s0.46,5.05,3.11,5.05c5.42,0,18.62,0,20.3,0v-2.91C840.73-1706.55,840.85-1715.24,840.85-1715.24z M817.54-1718.14
		c0,0,0.12,5.8-5.68,5.8c-5.8,0-5.92-5.8-5.92-5.8v-46.39l11.6,5.8V-1718.14z"/>
	<path d="M364.83-1715.24l-0.12-46.39l-23.19-11.6l-34.79,23.19v28.99c0,0,0,18.9,20.38,18.9c14.45,0,17.09-6.55,17.09-6.55
		s0.46,5.05,3.11,5.05c5.42,0,18.62,0,20.3,0v-2.91C364.71-1706.55,364.83-1715.24,364.83-1715.24z M341.52-1718.14
		c0,0,0.12,5.8-5.68,5.8s-5.92-5.8-5.92-5.8v-46.39l11.6,5.8V-1718.14z"/>
	<path d="M1011.26-1773.23l-20.3,12.92v-62.2l-31.89,21.26v0.89c3.44-0.89,8.7-0.97,8.7,6.84c0,11.6,0,89.88,0,89.88h23.19v-51.83
		c5.8-1.81,11.6-1.81,11.6,5.44v46.39h23.19v-46.39h5.8L1011.26-1773.23z"/>
	<path d="M1353.37-1801.25v0.89c3.44-0.89,8.7,1.93,8.7,9.74c0,8.28,0,25.13,0,25.13l-11.6-7.73l-23.19,11.6l0,40.59
		c0,0-0.12,18.9,20.27,18.9c14.45,0,14.53-10.2,14.53-10.2l0,0c0,2.78,0,5.68,0,8.7h23.19v-118.87L1353.37-1801.25z
		 M1362.07-1732.64c0,4.42,0,9.23,0,14.5c0,0,0,5.8-5.8,5.8s-5.8-5.8-5.8-5.8v-14.5v-4.77h0v-21.32l11.6-5.8c0,6.35,0,14.94,0,27.12
		C1362.07-1735.87,1362.07-1734.28,1362.07-1732.64z"/>
	<path d="M451.69-1773.23l-11.6,7.73v-57.02l-31.89,21.26v0.89c3.44-0.89,8.7,1.93,8.7,9.74c0,6.43,0,86.98,0,86.98h23.19v-8.7l0,0
		c0,0,0.07,10.2,14.52,10.2c20.38,0,20.27-18.9,20.27-18.9l0-40.59L451.69-1773.23z M451.69-1718.14c0,0,0,5.8-5.8,5.8
		s-5.8-5.8-5.8-5.8v-46.39l11.6,5.8L451.69-1718.14z"/>
	<path d="M747.42-1734.57l23.19-15.46v-11.6l-23.19-11.6l-34.79,23.19v20.3c0,26.09,23.19,27.29,23.19,27.29h11.6
		c23.19,0,23.19-24.39,23.19-24.39h-23.19v8.7c0,0,0,5.8-5.8,5.8c-5.8,0-5.8-5.8-5.8-5.8v-16.42L747.42-1734.57z M747.42-1758.73
		v14.49c0,5.65-11.6,5.81-11.6,5.81v-26.09L747.42-1758.73z"/>
	<path d="M1620.11-1734.57l23.19-15.46v-11.6l-23.19-11.6l-34.79,23.19v20.3c0,26.09,23.19,27.29,23.19,27.29h11.6
		c23.19,0,23.19-24.39,23.19-24.39h-23.19v8.7c0,0,0,5.8-5.8,5.8s-5.8-5.8-5.8-5.8v-16.42L1620.11-1734.57z M1620.11-1758.73v14.49
		c0,5.65-11.6,5.81-11.6,5.81v-26.09L1620.11-1758.73z"/>
	<path d="M1292.49-1734.57l23.19-15.46v-11.6l-23.19-11.6l-34.79,23.19v20.3c0,26.09,23.19,27.29,23.19,27.29h11.6
		c23.19,0,23.19-24.39,23.19-24.39h-23.19v8.7c0,0,0,5.8-5.8,5.8s-5.8-5.8-5.8-5.8v-16.42L1292.49-1734.57z M1292.49-1758.73v14.49
		c0,5.65-11.6,5.81-11.6,5.81v-26.09L1292.49-1758.73z"/>
	<path d="M1098.24-1761.63l-23.19-11.59l0.07,55.09c0,0,0,5.8-5.8,5.8c-5.8,0-5.8-5.8-5.8-5.8l-0.07-47.36l-23.19,15.46l0.07,29
		c0,0-0.12,18.9,20.27,18.9c14.45,0,14.53-10.21,14.53-10.21l0,0v8.7h23.19L1098.24-1761.63z"/>
	<path d="M901.48-1766.43l-20.16,20.16v-26.95l-31.89,21.26v0.89c3.44-0.89,8.7-0.97,8.7,6.84c0,11.6,0,40.59,0,40.59h23.19v-36.93
		c1-1.62,7.44-10.67,20.26,2.14l14-14L901.48-1766.43z"/>
	<path d="M1472.25-1773.23l-34.79,23.19v24.58c0,0,0,23.19,23.19,23.19h5.8h5.8c23.19,0,23.19-23.19,23.19-23.19v-36.17
		L1472.25-1773.23z M1472.25-1716.76c0,0,0,5.8-5.8,5.8c-5.8,0-5.8-5.8-5.8-5.8v-47.77l11.6,5.8V-1716.76z"/>
	<path d="M564.76-1773.23l-34.79,23.19v34.79l11.6,11.6l23.19-8.7v40.59c0,0,0,5.8-5.8,5.8s-5.8-5.8-5.8-5.8v-17.4h-23.19v8.7
		c0,0,0,23.19,23.19,23.19h11.6c23.19,0,23.19-23.19,23.19-23.19v-46.39v-34.79L564.76-1773.23z M564.76-1715.24
		c-11.6,2.9-11.6-5.8-11.6-5.8v-43.49l11.6,5.8V-1715.24z"/>
	<path d="M674.94-1773.23l-11.6,7.73v-57.02l-31.89,21.26v0.89c3.44-0.89,8.7,1.93,8.7,9.74c0,6.43,0,86.98,0,86.98h23.19v-8.7l0,0
		c0,0,0.07,10.2,14.52,10.2c20.38,0,20.27-18.9,20.27-18.9l0-40.59L674.94-1773.23z M674.94-1718.14c0,0,0,5.8-5.8,5.8
		s-5.8-5.8-5.8-5.8v-46.39l11.6,5.8L674.94-1718.14z"/>
</g>
<g class="st0">
	<g>
		<line class="st1" x1="1.11" y1="-79.98" x2="1918.76" y2="-79.98"/>
		<line class="st1" x1="1.11" y1="-33.59" x2="1918.76" y2="-33.59"/>
		<line class="st1" x1="1.11" y1="-149.57" x2="1918.76" y2="-149.57"/>
		<line class="st1" x1="1.11" y1="-198.85" x2="1918.76" y2="-198.85"/>
		<line class="st1" x1="1.11" y1="-187.26" x2="1918.76" y2="-187.26"/>
	</g>
	<rect x="1995.18" y="-33.59" class="st1" width="47.91" height="67.16"/>
	<g>
		<line class="st1" x1="1.11" y1="154.58" x2="1918.76" y2="154.58"/>
		<line class="st1" x1="1.11" y1="200.97" x2="1918.76" y2="200.97"/>
		<line class="st1" x1="1.11" y1="85" x2="1918.76" y2="85"/>
		<line class="st1" x1="1.11" y1="35.71" x2="1918.76" y2="35.71"/>
		<line class="st1" x1="1.11" y1="47.31" x2="1918.76" y2="47.31"/>
	</g>
	<rect x="1995.18" y="200.97" class="st1" width="47.91" height="67.16"/>
	<g>
		<line class="st1" x1="1.11" y1="389.15" x2="1918.76" y2="389.15"/>
		<line class="st1" x1="1.11" y1="435.54" x2="1918.76" y2="435.54"/>
		<line class="st1" x1="1.11" y1="319.56" x2="1918.76" y2="319.56"/>
		<line class="st1" x1="1.11" y1="270.28" x2="1918.76" y2="270.28"/>
		<line class="st1" x1="1.11" y1="281.87" x2="1918.76" y2="281.87"/>
	</g>
	<rect x="1995.18" y="435.54" class="st1" width="47.91" height="67.16"/>
</g>
<g>
	<g>
		<g>
			<path class="st2" d="M1477.46-135.53v0.87c3-0.82,7.61-1.13,8.7,4.2v8.7l17.4-11.6v-20.3L1477.46-135.53z"/>
			<path class="st2" d="M1471.67-94.71v0.89c3.44-0.89,8.7-0.97,8.7,6.84c0,11.6,0,40.59,0,40.59h23.19v-69.58L1471.67-94.71z"/>
		</g>
		<g>
			<path class="st2" d="M1039.67-135.53v0.87c3-0.82,7.61-1.13,8.7,4.2v8.7l17.4-11.6v-20.3L1039.67-135.53z"/>
			<path class="st2" d="M1033.87-94.71v0.89c3.44-0.89,8.7-0.97,8.7,6.84c0,11.6,0,40.59,0,40.59h23.19v-69.58L1033.87-94.71z"/>
		</g>
		<path class="st2" d="M1431.08-144v0.89c3.44-0.89,8.7-0.97,8.7,6.84c0,11.6,0,89.88,0,89.88h23.19v-118.87L1431.08-144z"/>
		<path class="st2" d="M1402.08-115.97l-11.6,7.73v-57.02L1358.59-144v0.89c3.44-0.89,8.7,1.93,8.7,9.74c0,6.43,0,86.98,0,86.98
			h23.19v-8.7l0,0c0,0,0.07,10.2,14.53,10.2c20.38,0,20.27-18.9,20.27-18.9l0-40.59L1402.08-115.97z M1402.08-60.89
			c0,0,0,5.8-5.8,5.8s-5.8-5.8-5.8-5.8v-46.39l11.6,5.8L1402.08-60.89z"/>
		<path class="st2" d="M311.94-77.31l23.19-15.46v-11.6l-23.19-11.6l-34.79,23.19v20.3c0,26.09,23.19,27.29,23.19,27.29h11.6
			c23.19,0,23.19-24.39,23.19-24.39h-23.19v8.7c0,0,0,5.8-5.8,5.8s-5.8-5.8-5.8-5.8v-16.42L311.94-77.31z M311.94-101.48v14.49
			c0,5.65-11.6,5.81-11.6,5.81v-26.09L311.94-101.48z"/>
		<path class="st2" d="M448.21-77.31l23.19-15.46v-11.6l-23.19-11.6l-34.79,23.19v20.3c0,26.09,23.19,27.29,23.19,27.29h11.6
			c23.19,0,23.19-24.39,23.19-24.39h-23.19v8.7c0,0,0,5.8-5.8,5.8c-5.8,0-5.8-5.8-5.8-5.8v-16.42L448.21-77.31z M448.21-101.48
			v14.49c0,5.65-11.6,5.81-11.6,5.81v-26.09L448.21-101.48z"/>
		<path class="st2" d="M1291.91-77.31l23.19-15.46v-11.6l-23.19-11.6l-34.79,23.19v20.3c0,26.09,23.19,27.29,23.19,27.29h11.6
			c23.19,0,23.19-24.39,23.19-24.39h-23.19v8.7c0,0,0,5.8-5.8,5.8s-5.8-5.8-5.8-5.8v-16.42L1291.91-77.31z M1291.91-101.48v14.49
			c0,5.65-11.6,5.81-11.6,5.81v-26.09L1291.91-101.48z"/>
		<path class="st2" d="M1222.33-77.31l23.19-15.46v-11.6l-23.19-11.6l-34.79,23.19v20.3c0,26.09,23.19,27.29,23.19,27.29h11.6
			c23.19,0,23.19-24.39,23.19-24.39h-23.19v8.7c0,0,0,5.8-5.8,5.8c-5.8,0-5.8-5.8-5.8-5.8v-16.42L1222.33-77.31z M1222.33-101.48
			v14.49c0,5.65-11.6,5.81-11.6,5.81v-26.09L1222.33-101.48z"/>
		<path class="st2" d="M584.48-115.97v57.99c-11.6,2.9-11.6-5.8-11.6-5.8v-43.49v-0.97l-23.19,15.46v34.79l11.6,11.6l23.19-8.7
			v40.59c0,0,0,5.8-5.8,5.8c-5.8,0-5.8-5.8-5.8-5.8v-17.4h-23.19v8.7c0,0,0,23.19,23.19,23.19h5.8h5.8
			c23.19,0,23.19-23.19,23.19-23.19v-81.18L584.48-115.97z"/>
		<path class="st2" d="M1175.94-98.58v-5.8l-23.19-11.6l-34.79,23.19v2.9c0,14.5,14.5,14.5,14.5,14.5h14.5c5.8,0,5.8,5.8,5.8,5.8
			v8.7c0,0,0,5.8-5.8,5.8c-5.8,0-5.8-5.8-5.8-5.8l0-7.13h0v-1.56h-23.19v1.46h0c0,23.19,23.19,23.24,23.19,23.24h11.6
			c23.19,0,23.2-17.44,23.2-17.44l0-4.36c0-14.5-14.5-14.5-14.5-14.5h-14.5c-5.8,0-5.8-5.8-5.8-5.8v-20.3l11.6,2.9v18.85
			L1175.94-98.58z"/>
		<path class="st2" d="M1642.72-98.58v-5.8l-23.19-11.6l-34.79,23.19v2.9c0,14.5,14.5,14.5,14.5,14.5h14.5c5.8,0,5.8,5.8,5.8,5.8
			v8.7c0,0,0,5.8-5.8,5.8s-5.8-5.8-5.8-5.8l0-7.13h0v-1.56h-23.19v1.46h0c0,23.19,23.19,23.24,23.19,23.24h11.6
			c23.19,0,23.2-17.44,23.2-17.44l0-4.36c0-14.5-14.5-14.5-14.5-14.5h-14.5c-5.8,0-5.8-5.8-5.8-5.8v-20.3l11.6,2.9v18.85
			L1642.72-98.58z"/>
		<path class="st2" d="M1576.05-98.58v-5.8l-23.19-11.6l-34.79,23.19v2.9c0,14.5,14.5,14.5,14.5,14.5h14.5c5.8,0,5.8,5.8,5.8,5.8
			v8.7c0,0,0,5.8-5.8,5.8c-5.8,0-5.8-5.8-5.8-5.8l0-7.13h0v-1.56h-23.19v1.46h0c0,23.19,23.19,23.24,23.19,23.24h11.6
			c23.19,0,23.2-17.44,23.2-17.44l0-4.36c0-14.5-14.5-14.5-14.5-14.5h-14.5c-5.8,0-5.8-5.8-5.8-5.8v-20.3l11.6,2.9v18.85
			L1576.05-98.58z"/>
		<path class="st2" d="M529.25-109.18L509.1-89.02v-26.95l-31.89,21.26v0.89c3.44-0.89,8.7-0.97,8.7,6.84c0,11.6,0,40.59,0,40.59
			h23.19v-36.93c1-1.62,7.44-10.67,20.26,2.14l14-14L529.25-109.18z"/>
		<path class="st2" d="M772.93-115.97l-20.3,12.92v-62.2L720.75-144v0.89c3.44-0.89,8.7-0.97,8.7,6.84c0,11.6,0,89.88,0,89.88h23.19
			v-51.83c5.8-1.81,11.6-1.81,11.6,5.44v46.39h23.19v-46.39h5.8L772.93-115.97z"/>
		<path class="st2" d="M833.82-77.31l23.19-15.46v-11.6l-23.19-11.6l-34.79,23.19v20.3c0,26.09,23.19,27.29,23.19,27.29h11.6
			c23.19,0,23.19-24.39,23.19-24.39h-23.19v8.7c0,0,0,5.8-5.8,5.8c-5.8,0-5.8-5.8-5.8-5.8v-16.42L833.82-77.31z M833.82-101.48
			v14.49c0,5.65-11.6,5.81-11.6,5.81v-26.09L833.82-101.48z"/>
		<path class="st2" d="M967.19-77.31l23.19-15.46v-11.6l-23.19-11.6L932.4-92.78v20.3c0,26.09,23.19,27.29,23.19,27.29h11.6
			c23.19,0,23.19-24.39,23.19-24.39h-23.19v8.7c0,0,0,5.8-5.8,5.8c-5.8,0-5.8-5.8-5.8-5.8v-16.42L967.19-77.31z M967.19-101.48
			v14.49c0,5.65-11.6,5.81-11.6,5.81v-26.09L967.19-101.48z"/>
		<path class="st2" d="M914.86-109.18L894.7-89.02v-26.95l-31.89,21.26v0.89c3.44-0.89,8.7-0.97,8.7,6.84c0,11.6,0,40.59,0,40.59
			h23.19v-36.93c1-1.62,7.44-10.67,20.26,2.14l14-14L914.86-109.18z"/>
		<path class="st2" d="M393.62-115.44l-14,14c0,0,16.23,11.44,13.54,22.98l-5.84,23.37l-14.5-20.3v-31.89l-11.6-8.7l-20.3,10.15v0.6
			c3.44-0.47,8.7,0.72,8.7,12.44h0.04l-0.04,23.19l17.4,23.19l24.02-0.11l16.54-54.87L393.62-115.44z"/>
		<path class="st2" d="M703.88-115.44l-14,14c0,0,16.23,11.44,13.54,22.98l-5.84,23.37l-14.5-20.3v-31.89l-11.6-8.7l-20.33,10.16
			v0.59c3.43-0.48,8.73,0.68,8.73,12.44h0.04l-0.03,14.5l-0.05,0c0,0.02,0.02,0.03,0.05,0.04l-0.02,8.66l4.87,6.49l-2,8.01
			l-14.5-20.3v-31.89l-11.6-8.7l-20.3,10.15v0.6c3.44-0.47,8.7,0.72,8.7,12.44h0.04l-0.04,23.19l17.4,23.19l24.02-0.11l3.07-10.19
			l7.73,10.31l24.02-0.11l16.54-54.87L703.88-115.44z"/>
	</g>
	<g>
		<g>
			<path class="st2" d="M326.44,333.57v0.87c3-0.82,7.61-1.13,8.7,4.2v8.7l17.4-11.6v-20.3L326.44,333.57z"/>
			<path class="st2" d="M320.64,374.39v0.89c3.44-0.89,8.7-0.97,8.7,6.84c0,11.6,0,40.59,0,40.59h23.19v-69.58L320.64,374.39z"/>
		</g>
		<path class="st2" d="M845.53,411.12l-0.12-46.39l-23.19-11.6l-34.79,23.19v28.99c0,0,0,18.9,20.38,18.9
			c14.45,0,17.09-6.55,17.09-6.55s0.46,5.05,3.11,5.05c5.42,0,18.62,0,20.3,0v-2.91C845.42,419.81,845.53,411.12,845.53,411.12z
			 M822.22,408.22c0,0,0.12,5.8-5.68,5.8c-5.8,0-5.92-5.8-5.92-5.8v-46.39l11.6,5.8V408.22z"/>
		<path class="st2" d="M1274.53,376.36l0.01-11.6l-23.18-11.62l-34.81,23.16l-0.02,20.3c-0.03,26.09,23.17,27.62,23.17,27.62
			l11.6,0.01c23.19,0.02,23.22-24.67,23.22-24.67l-23.19-0.02l-0.01,8.7c0,0-0.01,5.8-5.8,5.79c-5.8-0.01-5.79-5.8-5.79-5.8
			l0.05-46.39l11.59,5.81l-0.02,24.16L1274.53,376.36z"/>
		<path class="st2" d="M772.93,376.33v-11.6l-23.19-11.6l-34.79,23.19v20.3c0,26.09,23.19,27.6,23.19,27.6h11.6
			c23.19,0,23.19-24.7,23.19-24.7h-23.19v8.7c0,0,0,5.8-5.8,5.8c-5.8,0-5.8-5.8-5.8-5.8v-46.39l11.6,5.8v24.16L772.93,376.33z"/>
		<path class="st2" d="M1280.31,325.11v0.89c3.44-0.89,8.7-0.97,8.7,6.84c0,11.6,0,89.88,0,89.88h23.19V303.84L1280.31,325.11z"/>
		<path class="st2" d="M923.7,325.11v0.89c3.44-0.89,8.7-0.97,8.7,6.84c0,11.6,0,89.88,0,89.88h23.19V303.84L923.7,325.11z"/>
		<path class="st2" d="M1425.28,326.5v0.89c3.44-0.89,8.7,1.93,8.7,9.74c0,8.28,0,25.13,0,25.13l-11.6-7.73l-23.19,11.6l0,40.59
			c0,0-0.12,18.9,20.27,18.9c14.45,0,14.53-10.2,14.53-10.2l0,0c0,2.78,0,5.68,0,8.7h23.19V305.24L1425.28,326.5z M1433.97,395.12
			c0,4.42,0,9.23,0,14.5c0,0,0,5.8-5.8,5.8s-5.8-5.8-5.8-5.8v-14.5v-4.77h0v-21.32l11.6-5.8c0,6.35,0,14.94,0,27.12
			C1433.97,391.88,1433.97,393.47,1433.97,395.12z"/>
		<path class="st2" d="M1567.34,325.11v0.89c3.44-0.89,8.7,1.93,8.7,9.74c0,8.28,0,25.13,0,25.13l-11.6-7.73l-23.19,11.6l0,40.59
			c0,0-0.12,18.9,20.27,18.9c14.45,0,14.53-10.2,14.53-10.2l0,0c0,2.78,0,5.68,0,8.7h23.19V303.84L1567.34,325.11z M1576.04,393.72
			c0,4.42,0,9.23,0,14.5c0,0,0,5.8-5.8,5.8c-5.8,0-5.8-5.8-5.8-5.8v-14.5v-4.77h0v-21.32l11.6-5.8c0,6.35,0,14.94,0,27.12
			C1576.04,390.49,1576.04,392.08,1576.04,393.72z"/>
		<path class="st2" d="M894.7,353.13l-11.6,7.73v-57.02l-31.89,21.26v0.89c3.44-0.89,8.7,1.93,8.7,9.74c0,6.43,0,86.98,0,86.98
			h23.19v-8.7l0,0c0,0,0.07,10.2,14.53,10.2c20.38,0,20.27-18.9,20.27-18.9l0-40.59L894.7,353.13z M894.7,408.22c0,0,0,5.8-5.8,5.8
			s-5.8-5.8-5.8-5.8v-46.39l11.6,5.8L894.7,408.22z"/>
		<path class="st2" d="M1112.15,391.79l23.19-15.46v-11.6l-23.19-11.6l-34.79,23.19v20.3c0,26.09,23.19,27.29,23.19,27.29h11.6
			c23.19,0,23.19-24.39,23.19-24.39h-23.19v8.7c0,0,0,5.8-5.8,5.8s-5.8-5.8-5.8-5.8V391.8L1112.15,391.79z M1112.15,367.63v14.49
			c0,5.65-11.6,5.81-11.6,5.81v-26.09L1112.15,367.63z"/>
		<path class="st2" d="M538.09,391.79l23.19-15.46v-11.6l-23.19-11.6l-34.79,23.19v20.3c0,26.09,23.19,27.29,23.19,27.29h11.6
			c23.19,0,23.19-24.39,23.19-24.39h-23.19v8.7c0,0,0,5.8-5.8,5.8c-5.8,0-5.8-5.8-5.8-5.8V391.8L538.09,391.79z M538.09,367.63
			v14.49c0,5.65-11.6,5.81-11.6,5.81v-26.09L538.09,367.63z"/>
		<path class="st2" d="M1001.98,353.13v57.99c-11.6,2.9-11.6-5.8-11.6-5.8v-43.49v-0.97l-23.19,15.46v34.79l11.6,11.6l23.19-8.7
			v40.59c0,0,0,5.8-5.8,5.8c-5.8,0-5.8-5.8-5.8-5.8v-17.4h-23.19v8.7c0,0,0,23.19,23.19,23.19h5.8h5.8
			c23.19,0,23.19-23.19,23.19-23.19v-81.18L1001.98,353.13z"/>
		<path class="st2" d="M1384.61,364.73l-23.19-11.59l0.07,55.09c0,0,0,5.8-5.8,5.8c-5.8,0-5.8-5.8-5.8-5.8l-0.07-47.36l-23.19,15.46
			l0.07,29c0,0-0.12,18.9,20.27,18.9c14.45,0,14.53-10.2,14.53-10.2l0,0v8.7h23.19L1384.61,364.73z"/>
		<path class="st2" d="M1182.84,378.13l-8.9-18.2l-6.25-3.2l-7.03-3.6l-16.61,16.99c0,0,6.64-3.4,9.97,3.4l14.25,29.15
			c-1.95,1.07-4.23,1.93-6.51,1.93h-15.1v18.12h15.1l8.25-16.49l8.06,16.49h26.58l-20.76-42.47c2.29-1.57,5.43-3.19,8.56-3.19h15.1
			v-18.12h-15.1L1182.84,378.13z"/>
		<path class="st2" d="M413.82,359.93l-20.16,20.16v-26.95l-31.89,21.26v0.89c3.44-0.89,8.7-0.97,8.7,6.84c0,11.6,0,40.59,0,40.59
			h23.19v-36.93c1-1.62,7.44-10.67,20.26,2.14l14-14L413.82,359.93z"/>
		<path class="st2" d="M482.86,359.93l-20.16,20.16v-26.95l-31.89,21.26v0.89c3.44-0.89,8.7-0.97,8.7,6.84c0,11.6,0,40.59,0,40.59
			h23.19v-36.93c1-1.62,7.44-10.67,20.26,2.14l14-14L482.86,359.93z"/>
		<path class="st2" d="M619.77,353.67l-14,14c0,0,16.23,11.44,13.54,22.98l-5.84,23.37l-14.5-20.3v-31.89l-11.6-8.7l-20.3,10.15v0.6
			c3.44-0.47,8.7,0.72,8.7,12.44h0.04l-0.04,23.19l17.4,23.19l24.02-0.11l16.54-54.87L619.77,353.67z"/>
		<path class="st2" d="M677.26,353.13l-34.79,23.19v24.58c0,0,0,23.19,23.19,23.19h5.8h5.8c23.19,0,23.19-23.19,23.19-23.19v-36.17
			L677.26,353.13z M677.26,409.6c0,0,0,5.8-5.8,5.8s-5.8-5.8-5.8-5.8v-47.77l11.6,5.8V409.6z"/>
		<path class="st2" d="M1506.46,391.79l23.19-15.46v-11.6l-23.19-11.6l-34.79,23.19v20.3c0,26.09,23.19,27.29,23.19,27.29h11.6
			c23.19,0,23.19-24.39,23.19-24.39h-23.19v8.7c0,0,0,5.8-5.8,5.8s-5.8-5.8-5.8-5.8V391.8L1506.46,391.79z M1506.46,367.63v14.49
			c0,5.65-11.6,5.81-11.6,5.81v-26.09L1506.46,367.63z"/>
	</g>
	<g>
		<g>
			<path class="st2" d="M1039.67,99v0.87c3-0.82,7.61-1.13,8.7,4.2v8.7l17.4-11.6v-20.3L1039.67,99z"/>
			<path class="st2" d="M1033.87,139.83v0.89c3.44-0.89,8.7-0.97,8.7,6.84c0,11.6,0,40.59,0,40.59h23.19v-69.58L1033.87,139.83z"/>
		</g>
		<g>
			<path class="st2" d="M801.93,99v0.87c3-0.82,7.61-1.13,8.7,4.2v8.7l17.4-11.6v-20.3L801.93,99z"/>
			<path class="st2" d="M796.13,139.83v0.89c3.44-0.89,8.7-0.97,8.7,6.84c0,11.6,0,40.59,0,40.59h23.19v-69.58L796.13,139.83z"/>
		</g>
		<path class="st2" d="M1176.06,176.55l-0.12-46.39l-23.19-11.6l-34.79,23.19v28.99c0,0,0,18.9,20.38,18.9
			c14.45,0,17.09-6.55,17.09-6.55s0.46,5.05,3.11,5.05c5.42,0,18.62,0,20.3,0v-2.91C1175.94,185.24,1176.06,176.55,1176.06,176.55z
			 M1152.74,173.65c0,0,0.12,5.8-5.68,5.8c-5.8,0-5.92-5.8-5.92-5.8v-46.39l11.6,5.8V173.65z"/>
		<path class="st2" d="M1544.27,176.55l-0.12-46.39l-23.19-11.6l-34.79,23.19v28.99c0,0,0,18.9,20.38,18.9
			c14.45,0,17.09-6.55,17.09-6.55s0.46,5.05,3.11,5.05c5.42,0,18.62,0,20.3,0v-2.91C1544.15,185.24,1544.27,176.55,1544.27,176.55z
			 M1520.95,173.65c0,0,0.12,5.8-5.68,5.8s-5.92-5.8-5.92-5.8v-46.39l11.6,5.8V173.65z"/>
		<path class="st2" d="M900.5,141.76v-11.6l-23.19-11.6l-34.79,23.19v20.3c0,26.09,23.19,27.6,23.19,27.6h11.6
			c23.19,0,23.19-24.7,23.19-24.7h-23.19v8.7c0,0,0,5.8-5.8,5.8c-5.8,0-5.8-5.8-5.8-5.8v-46.39l11.6,5.8v24.16L900.5,141.76z"/>
		<path class="st2" d="M1184.64,90.54v0.89c3.44-0.89,8.7-0.97,8.7,6.84c0,11.6,0,89.88,0,89.88h23.19V69.28L1184.64,90.54z"/>
		<path class="st2" d="M1642.72,118.57l-25.32,9.47l-9.47-9.47l-23.19,8.7l-11.6-8.7l-20.3,10.15v0.6c3.44-0.47,8.7,0.72,8.7,12.44
			v46.39h23.19v-57.99c11.6-2.9,11.6,5.8,11.6,5.8v52.19h23.19v-57.99c11.6-2.9,11.6,5.8,11.6,5.8v52.19h23.19v-57.99
			L1642.72,118.57z"/>
		<path class="st2" d="M770.03,118.57l-20.3,12.92v-62.2l-31.89,21.26v0.89c3.44-0.89,8.7-0.97,8.7,6.84c0,11.6,0,89.88,0,89.88
			h23.19v-51.83c5.8-1.81,11.6-1.81,11.6,5.44v46.39h23.19v-46.39h5.8L770.03,118.57z"/>
		<path class="st2" d="M958.49,118.57l-20.3,12.92v-62.2L906.3,90.54v0.89c3.44-0.89,8.7-0.97,8.7,6.84c0,11.6,0,89.88,0,89.88
			h23.19v-51.83c5.8-1.81,11.6-1.81,11.6,5.44v46.39h23.19v-46.39h5.8L958.49,118.57z"/>
		<path class="st2" d="M700.98,119.1l-14,14c0,0,16.23,11.44,13.54,22.98l-5.84,23.37l-14.5-20.3v-31.89l-11.6-8.7l-20.33,10.16
			v0.59c3.43-0.48,8.73,0.68,8.73,12.44h0.04l-0.03,14.5l-0.05,0c0,0.02,0.02,0.03,0.05,0.04l-0.02,8.66l4.87,6.49l-2,8.01
			l-14.5-20.3v-31.89l-11.6-8.7l-20.3,10.15v0.6c3.44-0.47,8.7,0.72,8.7,12.44h0.04l-0.04,23.19l17.4,23.19l24.02-0.11l3.07-10.19
			l7.73,10.31l24.02-0.11l16.54-54.87L700.98,119.1z"/>
		<path class="st2" d="M1352.79,118.57l-23.19,8.7l-11.6-8.7l-20.3,10.15v0.6c3.44-0.47,8.7,0.72,8.7,12.44v46.39h23.19v-57.99
			c11.6-2.9,11.6,5.8,11.6,5.8v52.19h23.19v-57.99L1352.79,118.57z"/>
		<path class="st2" d="M1410.78,157.22l23.19-15.46v-11.6l-23.19-11.6l-34.79,23.19v20.3c0,26.09,23.19,27.29,23.19,27.29h11.6
			c23.19,0,23.19-24.39,23.19-24.39h-23.19v8.7c0,0,0,5.8-5.8,5.8c-5.8,0-5.8-5.8-5.8-5.8v-16.42L1410.78,157.22z M1410.78,133.06
			v14.49c0,5.65-11.6,5.81-11.6,5.81v-26.09L1410.78,133.06z"/>
		<path class="st2" d="M1265.82,118.57l-34.79,23.19v24.58c0,0,0,23.19,23.19,23.19h5.8h5.8c23.19,0,23.19-23.19,23.19-23.19v-36.17
			L1265.82,118.57z M1265.82,175.03c0,0,0,5.8-5.8,5.8s-5.8-5.8-5.8-5.8v-47.77l11.6,5.8V175.03z"/>
		<path class="st2" d="M297.45,138.72V80.88l11.6,5.8v20.3l11.6,8.7l20.3-10.15v-0.6c-3.44,0.47-8.7-0.72-8.7-12.44v-8.7
			l-23.19-11.6l-43.49,28.99v0.89c3.44-0.89,8.7-0.97,8.7,6.84c0,1.77,0,79.25,0,79.25h23.19v-43.73c1-1.62,7.44-10.67,20.26,2.14
			l14-14l-14.1-14L297.45,138.72z"/>
		<path class="st2" d="M558.39,118.57l-25.32,9.47l-9.47-9.47l-23.19,8.7l-11.6-8.7l-20.3,10.15v0.6c3.44-0.47,8.7,0.72,8.7,12.44
			v46.39h23.19v-57.99c11.6-2.9,11.6,5.8,11.6,5.8v52.19h23.19v-57.99c11.6-2.9,11.6,5.8,11.6,5.8v52.19h23.19v-57.99L558.39,118.57
			z"/>
		<path class="st2" d="M384.82,125.36l-20.16,20.16v-26.95l-31.89,21.26v0.89c3.44-0.89,8.7-0.97,8.7,6.84c0,11.6,0,40.59,0,40.59
			h23.19v-36.93c1-1.62,7.44-10.67,20.26,2.14l14-14L384.82,125.36z"/>
		<path class="st2" d="M439.51,118.57l-34.79,23.19v24.58c0,0,0,23.19,23.19,23.19h5.8h5.8c23.19,0,23.19-23.19,23.19-23.19v-36.17
			L439.51,118.57z M439.51,175.03c0,0,0,5.8-5.8,5.8s-5.8-5.8-5.8-5.8v-47.77l11.6,5.8V175.03z"/>
	</g>
</g>
</svg>
