<?xml version="1.0" encoding="utf-8"?>
<!-- Generator: Adobe Illustrator 25.2.3, SVG Export Plug-In . SVG Version: 6.00 Build 0)  -->
<svg version="1.1" id="Layer_1" xmlns="http://www.w3.org/2000/svg" xmlns:xlink="http://www.w3.org/1999/xlink" x="0px" y="0px"
	 viewBox="0 0 1920 748.73" style="enable-background:new 0 0 1920 748.73;" xml:space="preserve">
<style type="text/css">
	.st0{opacity:0;}
	.st1{fill:none;stroke:#FF3000;stroke-miterlimit:10;}
	.st2{fill:#FFFFFF;}
</style>
<g>
	<path d="M1732.95-3342.62l-23.19,8.7l-11.6-8.7l-20.3,10.15v0.6c3.44-0.47,8.7,0.72,8.7,12.44v46.39h23.19v-57.99
		c11.6-2.9,11.6,5.8,11.6,5.8v52.19h23.19v-57.99L1732.95-3342.62z"/>
	<path d="M377.47-3317.63l-8.9-18.2l-6.25-3.2l-7.03-3.6l-16.61,16.99c0,0,6.64-3.4,9.97,3.4l14.25,29.15
		c-1.95,1.07-4.23,1.93-6.51,1.93h-15.1v18.12h15.1l8.25-16.49l8.06,16.49h26.58l-20.76-42.47c2.29-1.57,5.43-3.19,8.56-3.19h15.1
		v-18.12h-15.1L377.47-3317.63z"/>
	<path d="M283.3-3325.22v-5.8l-23.19-11.6l-34.79,23.19v2.9c0,14.5,14.5,14.5,14.5,14.5h14.5c5.8,0,5.8,5.8,5.8,5.8v8.7
		c0,0,0,5.8-5.8,5.8c-5.8,0-5.8-5.8-5.8-5.8l0-7.13h0v-1.56h-23.19v1.46h0c0,23.19,23.19,23.24,23.19,23.24h11.6
		c23.19,0,23.2-17.44,23.2-17.44l0-4.36c0-14.5-14.5-14.5-14.5-14.5h-14.5c-5.8,0-5.8-5.8-5.8-5.8v-20.3l11.6,2.9v18.85
		L283.3-3325.22z"/>
	<path d="M596.42-3342.62l-34.79,23.19v34.79l11.6,11.6l23.19-8.7v40.59c0,0,0,5.8-5.8,5.8c-5.8,0-5.8-5.8-5.8-5.8v-17.4h-23.19v8.7
		c0,0,0,23.19,23.19,23.19h11.6c23.19,0,23.19-23.19,23.19-23.19v-46.39v-34.79L596.42-3342.62z M596.42-3284.63
		c-11.6,2.9-11.6-5.8-11.6-5.8v-43.49l11.6,5.8V-3284.63z"/>
	<g>
		<path d="M883.45-3362.18v0.87c3-0.82,7.61-1.13,8.7,4.2v8.7l17.4-11.6v-20.3L883.45-3362.18z"/>
		<path d="M877.65-3321.36v0.89c3.44-0.89,8.7-0.97,8.7,6.84c0,11.6,0,40.59,0,40.59h23.19v-69.58L877.65-3321.36z"/>
	</g>
	<g>
		<path d="M521.04-3362.18v0.87c3-0.82,7.61-1.13,8.7,4.2v8.7l17.4-11.6v-20.3L521.04-3362.18z"/>
		<path d="M515.24-3321.36v0.89c3.44-0.89,8.7-0.97,8.7,6.84c0,11.6,0,40.59,0,40.59h23.19v-69.58L515.24-3321.36z"/>
	</g>
	<g>
		<path d="M297.79-3362.18v0.87c3-0.82,7.61-1.13,8.7,4.2v8.7l17.4-11.6v-20.3L297.79-3362.18z"/>
		<path d="M291.99-3321.36v0.89c3.44-0.89,8.7-0.97,8.7,6.84c0,11.6,0,40.59,0,40.59h23.19v-69.58L291.99-3321.36z"/>
	</g>
	<g>
		<path d="M1422.72-3362.18v0.87c3-0.82,7.61-1.13,8.7,4.2v8.7l17.4-11.6v-20.3L1422.72-3362.18z"/>
		<path d="M1416.92-3320.47c3.44-0.89,8.7-0.97,8.7,6.84c0,0.47,0,72.48,0,72.48s0,5.8-5.8,5.8c-5.8,0-5.8-5.8-5.8-5.8v-17.4h-23.19
			v8.7c0,0,0,23.19,23.19,23.19h11.6c23.19,0,23.19-23.19,23.19-23.19v-92.78l-31.89,21.26V-3320.47z"/>
	</g>
	<path d="M1669.28-3284.63l-0.12-46.39l-23.19-11.6l-34.79,23.19v28.99c0,0,0,18.9,20.38,18.9c14.45,0,17.09-6.55,17.09-6.55
		s0.46,5.05,3.11,5.05c5.42,0,18.62,0,20.3,0v-2.91C1669.16-3275.95,1669.28-3284.63,1669.28-3284.63z M1645.97-3287.53
		c0,0,0.12,5.8-5.68,5.8s-5.92-5.8-5.92-5.8v-46.39l11.6,5.8V-3287.53z"/>
	<path d="M1521.42-3284.63l-0.12-46.39l-23.19-11.6l-34.79,23.19v28.99c0,0,0,18.9,20.38,18.9c14.45,0,17.09-6.55,17.09-6.55
		s0.46,5.05,3.11,5.05c5.42,0,18.62,0,20.3,0v-2.91C1521.3-3275.95,1521.42-3284.63,1521.42-3284.63z M1498.1-3287.53
		c0,0,0.12,5.8-5.68,5.8c-5.8,0-5.92-5.8-5.92-5.8v-46.39l11.6,5.8V-3287.53z"/>
	<path d="M1100.9-3322.46v-57.85l11.6,5.8v20.3l11.6,8.7l20.3-10.15v-0.6c-3.44,0.47-8.7-0.72-8.7-12.44v-8.7l-23.19-11.6
		l-43.49,28.99v0.89c3.44-0.89,8.7-0.97,8.7,6.84c0,1.77,0,79.25,0,79.25h23.19v-43.73c1-1.62,7.44-10.67,20.26,2.14l14-14l-14.1-14
		L1100.9-3322.46z"/>
	<path d="M918.24-3370.65v0.89c3.44-0.89,8.7-0.97,8.7,6.84c0,11.6,0,89.88,0,89.88h23.19v-118.87L918.24-3370.65z"/>
	<path d="M1361.84-3342.62l-25.32,9.47l-9.47-9.47l-23.19,8.7l-11.6-8.7l-20.3,10.15v0.6c3.44-0.47,8.7,0.72,8.7,12.44v46.39h23.19
		v-57.99c11.6-2.9,11.6,5.8,11.6,5.8v52.19h23.19v-57.99c11.6-2.9,11.6,5.8,11.6,5.8v52.19h23.19v-57.99L1361.84-3342.62z"/>
	<path d="M695-3370.65v0.89c3.44-0.89,8.7,1.93,8.7,9.74c0,8.28,0,25.13,0,25.13l-11.6-7.73l-23.19,11.6l0,40.59
		c0,0-0.12,18.9,20.27,18.9c14.45,0,14.52-10.2,14.52-10.2l0,0c0,2.78,0,5.68,0,8.7h23.19v-118.87L695-3370.65z M703.69-3302.03
		c0,4.42,0,9.23,0,14.5c0,0,0,5.8-5.8,5.8c-5.8,0-5.8-5.8-5.8-5.8v-14.5v-4.77h0v-21.32l11.6-5.8c0,6.35,0,14.94,0,27.12
		C703.69-3305.26,703.69-3303.67,703.69-3302.03z"/>
	<path d="M483.35-3342.62l-11.6,7.73v-57.02l-31.89,21.26v0.89c3.44-0.89,8.7,1.93,8.7,9.74c0,6.43,0,86.98,0,86.98h23.19v-8.7l0,0
		c0,0,0.07,10.2,14.52,10.2c20.38,0,20.27-18.9,20.27-18.9l0-40.59L483.35-3342.62z M483.35-3287.53c0,0,0,5.8-5.8,5.8
		s-5.8-5.8-5.8-5.8v-46.39l11.6,5.8L483.35-3287.53z"/>
	<path d="M776.18-3303.96l23.19-15.46v-11.6l-23.19-11.6l-34.79,23.19v20.3c0,26.09,23.19,27.29,23.19,27.29h11.6
		c23.19,0,23.19-24.39,23.19-24.39h-23.19v8.7c0,0,0,5.8-5.8,5.8s-5.8-5.8-5.8-5.8v-16.42L776.18-3303.96z M776.18-3328.12v14.49
		c0,5.65-11.6,5.81-11.6,5.81v-26.09L776.18-3328.12z"/>
	<path d="M1022.62-3325.22v-5.8l-23.19-11.6l-34.79,23.19v2.9c0,14.5,14.5,14.5,14.5,14.5h14.5c5.8,0,5.8,5.8,5.8,5.8v8.7
		c0,0,0,5.8-5.8,5.8s-5.8-5.8-5.8-5.8l0-7.13h0v-1.56h-23.19v1.46h0c0,23.19,23.19,23.24,23.19,23.24h11.6
		c23.19,0,23.2-17.44,23.2-17.44l0-4.36c0-14.5-14.5-14.5-14.5-14.5h-14.5c-5.8,0-5.8-5.8-5.8-5.8v-20.3l11.6,2.9v18.85
		L1022.62-3325.22z"/>
	<path d="M1573.48-3342.62l-11.6,7.73v-10.63l-31.89,21.26v0.89c3.44-0.89,8.7-0.97,8.7,6.84c0,3.04,0,89.88,0,89.88h23.19v-46.39
		h11.6c23.19,0,23.19-23.19,23.19-23.19v-34.79L1573.48-3342.62z M1573.48-3287.53c0,0,0,5.8-5.8,5.8s-5.8-5.8-5.8-5.8v-46.39
		l11.6,5.8V-3287.53z"/>
	<path d="M1188.27-3335.83l-20.16,20.16v-26.95l-31.89,21.26v0.89c3.44-0.89,8.7-0.97,8.7,6.84c0,11.6,0,40.59,0,40.59h23.19v-36.93
		c1-1.62,7.44-10.67,20.26,2.14l14-14L1188.27-3335.83z"/>
	<path d="M857.85-3342.08l-14,14c0,0,16.23,11.44,13.54,22.98l-5.84,23.37l-14.5-20.3v-31.89l-11.6-8.7l-20.3,10.15v0.6
		c3.44-0.47,8.7,0.72,8.7,12.44h0.04l-0.04,23.19l17.4,23.19l24.02-0.11l16.54-54.87L857.85-3342.08z"/>
	<path d="M1242.96-3342.62l-34.79,23.19v24.58c0,0,0,23.19,23.19,23.19h5.8h5.8c23.19,0,23.19-23.19,23.19-23.19v-36.17
		L1242.96-3342.62z M1242.96-3286.15c0,0,0,5.8-5.8,5.8c-5.8,0-5.8-5.8-5.8-5.8v-47.77l11.6,5.8V-3286.15z"/>
</g>
<g>
	<g>
		<path d="M296.11-3129.76v0.87c3-0.82,7.61-1.13,8.7,4.2v8.7l17.4-11.6v-20.3L296.11-3129.76z"/>
		<path d="M290.31-3088.94v0.89c3.44-0.89,8.7-0.97,8.7,6.84c0,11.6,0,40.59,0,40.59h23.19v-69.58L290.31-3088.94z"/>
	</g>
	<path d="M1656.47-3052.21l-0.12-46.39l-23.19-11.6l-34.79,23.19v28.99c0,0,0,18.9,20.38,18.9c14.45,0,17.09-6.55,17.09-6.55
		s0.46,5.05,3.11,5.05c5.42,0,18.62,0,20.3,0v-2.91C1656.35-3043.52,1656.47-3052.21,1656.47-3052.21z M1633.16-3055.11
		c0,0,0.12,5.8-5.68,5.8s-5.92-5.8-5.92-5.8v-46.39l11.6,5.8V-3055.11z"/>
	<path d="M394.68-3087v-11.6l-23.19-11.6L336.7-3087v20.29c0,26.09,23.19,27.6,23.19,27.6h11.6c23.19,0,23.19-24.7,23.19-24.7
		h-23.19v8.7c0,0,0,5.8-5.8,5.8c-5.8,0-5.8-5.8-5.8-5.8v-46.39l11.6,5.8v24.16L394.68-3087z"/>
	<path d="M653.19-3090.04v-57.85l11.6,5.8v20.3l11.6,8.7l20.3-10.15v-0.6c-3.44,0.47-8.7-0.72-8.7-12.44v-8.7l-23.19-11.6
		l-43.49,28.99v0.89c3.44-0.89,8.7-0.97,8.7,6.84c0,1.77,0,79.25,0,79.25h23.19v-43.73c1-1.62,7.44-10.67,20.26,2.14l14-14l-14.1-14
		L653.19-3090.04z"/>
	<path d="M1096.79-3110.2l-20.3,12.92v-62.2l-31.89,21.26v0.89c3.44-0.89,8.7-0.97,8.7,6.84c0,11.6,0,89.88,0,89.88h23.19v-51.82
		c5.8-1.81,11.6-1.81,11.6,5.44v46.39h23.19V-3087h5.8L1096.79-3110.2z"/>
	<path d="M472.96-3089.9l-17.4-20.3l-23.19,17.37v-55.06l-31.89,18.36v0.59c3.43-0.91,8.79-1.07,8.79,6.82c0,11.6-0.1,81.5-0.1,81.5
		h23.19v-27.34c11.59,2.15,11.6,15.75,11.6,15.75v11.6l23.19-0.14c0-28.94-23.19-28.85-23.19-28.85h-11.31l34.5-20.3H472.96z
		 M432.37-3071.09v-18.94c3.75-1.3,9.45-2.13,11.6,3.03C446.28-3081.46,439.9-3076.62,432.37-3071.09z"/>
	<path d="M472.96-3138.22v0.89c3.44-0.89,8.7-0.97,8.7,6.84c0,11.6,0,89.88,0,89.88h23.19v-118.87L472.96-3138.22z"/>
	<path d="M1665.05-3138.22v0.89c3.44-0.89,8.7-0.97,8.7,6.84c0,11.6,0,89.88,0,89.88h23.19v-118.87L1665.05-3138.22z"/>
	<path d="M185.93-3110.2L151.14-3087v23.19c0,23.19,23.19,23.19,23.19,23.19h11.6v46.39h23.19v-104.38L185.93-3110.2z
		 M185.93-3055.11c0,0,0,5.8-5.8,5.8c-5.8,0-5.8-5.8-5.8-5.8v-46.39l11.6,5.8V-3055.11z"/>
	<path d="M554.14-3110.2v57.99c-11.6,2.9-11.6-5.8-11.6-5.8v-43.49v-0.97L519.35-3087v34.79l11.6,11.6l23.19-8.7v40.59
		c0,0,0,5.8-5.8,5.8c-5.8,0-5.8-5.8-5.8-5.8v-17.4h-23.19v8.7c0,0,0,23.19,23.19,23.19h5.8h5.8c23.19,0,23.19-23.19,23.19-23.19
		v-81.18L554.14-3110.2z"/>
	<path d="M281.61-3098.6l-23.19-11.59l0.07,55.09c0,0,0,5.8-5.8,5.8s-5.8-5.8-5.8-5.8l-0.07-47.36l-23.19,15.46l0.07,29
		c0,0-0.12,18.9,20.27,18.9c14.45,0,14.52-10.2,14.52-10.2l0,0v8.7h23.19L281.61-3098.6z"/>
	<path d="M1790.52-3048.61c-1.8,3.31-6.1,5.43-9.52,6.65l27.53-47.44c3.79-6.55,10.18-2.69,10.18-2.69l-15.39-18.11l-13.73,5.85
		c-11.63,0.23-22.76-5.83-22.76-5.83l-14.33,26.36l14.7,8l11.2-20.58c1.9-3.5,6.78-5.53,10.42-6.61l-36.2,62.4h52.59l11.2-20.58
		l-14.7-8L1790.52-3048.61z"/>
	<path d="M1737.53-3110.2v-37.69l-26.09,18.13v0.87c3-0.82,7.61-1.13,8.7,4.2v5.8c0,11.86-17.4,11.86-17.4,11.86v2.64h11.72v63.78
		h23.5c0.03-5.4,0.05-49.59,0.05-55.09c0-11.86,11.6-11.6,11.6-11.6v-2.9H1737.53z"/>
	<path d="M1372.22-3110.2v-37.69l-26.09,18.13v0.87c3-0.82,7.61-1.13,8.7,4.2v5.8c0,11.86-17.4,11.86-17.4,11.86v2.64h11.72v63.78
		h23.5c0.03-5.4,0.05-49.59,0.05-55.09c0-11.86,11.6-11.6,11.6-11.6v-2.9H1372.22z"/>
	<path d="M1001.11-3110.2v-37.69l-26.09,18.13v0.87c3-0.82,7.61-1.13,8.7,4.2v5.8c0,11.86-17.4,11.86-17.4,11.86v2.64h11.72v63.78
		h23.5c0.03-5.4,0.05-49.59,0.05-55.09c0-11.86,11.6-11.6,11.6-11.6v-2.9H1001.11z"/>
	<path d="M1578.6-3109.66l-14,14c0,0,16.23,11.44,13.54,22.98l-5.84,23.37l-14.5-20.3v-31.89l-11.6-8.7l-20.33,10.16v0.59
		c3.43-0.48,8.73,0.68,8.73,12.44h0.04l-0.03,14.5l-0.05,0c0,0.02,0.02,0.03,0.05,0.04l-0.02,8.66l4.87,6.49l-2,8.01l-14.5-20.3
		v-31.89l-11.6-8.7l-20.3,10.15v0.6c3.44-0.47,8.7,0.72,8.7,12.44h0.04l-0.04,23.19l17.4,23.19l24.02-0.11l3.07-10.19l7.73,10.31
		l24.02-0.11l16.54-54.87L1578.6-3109.66z"/>
	<path d="M1282.87-3109.66l-14,14c0,0,16.23,11.44,13.54,22.98l-5.84,23.37l-14.5-20.3v-31.89l-11.6-8.7l-20.33,10.16v0.59
		c3.43-0.48,8.73,0.68,8.73,12.44h0.04l-0.03,14.5l-0.05,0c0,0.02,0.02,0.03,0.05,0.04l-0.02,8.66l4.87,6.49l-2,8.01l-14.5-20.3
		v-31.89l-11.6-8.7l-20.3,10.15v0.6c3.44-0.47,8.7,0.72,8.7,12.44h0.04l-0.04,23.19l17.4,23.19l24.02-0.11l3.07-10.19l7.73,10.31
		l24.02-0.11l16.54-54.87L1282.87-3109.66z"/>
	<path d="M1163.47-3110.2l-34.79,23.19v24.58c0,0,0,23.19,23.19,23.19h5.8h5.8c23.19,0,23.19-23.19,23.19-23.19v-36.17
		L1163.47-3110.2z M1163.47-3053.73c0,0,0,5.8-5.8,5.8s-5.8-5.8-5.8-5.8v-47.77l11.6,5.8V-3053.73z"/>
	<path d="M937.32-3110.2L902.53-3087v24.58c0,0,0,23.19,23.19,23.19h5.8h5.8c23.19,0,23.19-23.19,23.19-23.19v-36.17L937.32-3110.2z
		 M937.32-3053.73c0,0,0,5.8-5.8,5.8c-5.8,0-5.8-5.8-5.8-5.8v-47.77l11.6,5.8V-3053.73z"/>
	<path d="M864.84-3110.2L830.05-3087v34.79l11.6,11.6l23.19-8.7v40.59c0,0,0,5.8-5.8,5.8c-5.8,0-5.8-5.8-5.8-5.8v-17.4h-23.19v8.7
		c0,0,0,23.19,23.19,23.19h11.6c23.19,0,23.19-23.19,23.19-23.19v-46.39v-34.79L864.84-3110.2z M864.84-3052.21
		c-11.6,2.9-11.6-5.8-11.6-5.8v-43.49l11.6,5.8V-3052.21z"/>
	<path d="M809.62-3103.4l-20.16,20.16v-26.95l-31.89,21.26v0.89c3.44-0.89,8.7-0.97,8.7,6.84c0,11.6,0,40.59,0,40.59h23.19v-36.93
		c1-1.62,7.44-10.67,20.26,2.14l14-14L809.62-3103.4z"/>
	<path d="M725.68-3110.2L690.88-3087v24.58c0,0,0,23.19,23.19,23.19h5.8h5.8c23.19,0,23.19-23.19,23.19-23.19v-36.17L725.68-3110.2z
		 M725.68-3053.73c0,0,0,5.8-5.8,5.8s-5.8-5.8-5.8-5.8v-47.77l11.6,5.8V-3053.73z"/>
	<path d="M1424.41-3110.2l-34.79,23.19v24.58c0,0,0,23.19,23.19,23.19h5.8h5.8c23.19,0,23.19-23.19,23.19-23.19v-36.17
		L1424.41-3110.2z M1424.41-3053.73c0,0,0,5.8-5.8,5.8c-5.8,0-5.8-5.8-5.8-5.8v-47.77l11.6,5.8V-3053.73z"/>
</g>
<g>
	<path d="M1035.9-1785.23l-23.19,8.7l-11.6-8.7l-20.3,10.15v0.6c3.44-0.47,8.7,0.72,8.7,12.44v46.39h23.19v-57.99
		c11.6-2.9,11.6,5.8,11.6,5.8v52.19h23.19v-57.99L1035.9-1785.23z"/>
	<path d="M812.65-1785.23l-23.19,8.7l-11.6-8.7l-20.3,10.15v0.6c3.44-0.47,8.7,0.72,8.7,12.44v46.39h23.19v-57.99
		c11.6-2.9,11.6,5.8,11.6,5.8v52.19h23.19v-57.99L812.65-1785.23z"/>
	<path d="M873.54-1785.23l-34.79,23.19v34.79l11.6,11.6l23.19-8.7v40.59c0,0,0,5.8-5.8,5.8c-5.8,0-5.8-5.8-5.8-5.8v-17.4h-23.19v8.7
		c0,0,0,23.19,23.19,23.19h11.6c23.19,0,23.19-23.19,23.19-23.19v-46.39v-34.79L873.54-1785.23z M873.54-1727.25
		c-11.6,2.9-11.6-5.8-11.6-5.8v-43.49l11.6,5.8V-1727.25z"/>
	<g>
		<path d="M946.02-1804.8v0.87c3-0.82,7.61-1.13,8.7,4.2v8.7l17.4-11.6v-20.3L946.02-1804.8z"/>
		<path d="M940.22-1763.97v0.89c3.44-0.89,8.7-0.97,8.7,6.84c0,11.6,0,40.59,0,40.59h23.19v-69.58L940.22-1763.97z"/>
	</g>
	<g>
		<path d="M722.78-1804.8v0.87c3-0.82,7.61-1.13,8.7,4.2v8.7l17.4-11.6v-20.3L722.78-1804.8z"/>
		<path d="M716.98-1763.97v0.89c3.44-0.89,8.7-0.97,8.7,6.84c0,11.6,0,40.59,0,40.59h23.19v-69.58L716.98-1763.97z"/>
	</g>
	<path d="M589.53-1727.25l-0.12-46.39l-23.19-11.6l-34.79,23.19v28.99c0,0,0,18.9,20.38,18.9c14.45,0,17.09-6.55,17.09-6.55
		s0.46,5.05,3.11,5.05c5.42,0,18.62,0,20.3,0v-2.91C589.41-1718.56,589.53-1727.25,589.53-1727.25z M566.21-1730.15
		c0,0,0.12,5.8-5.68,5.8s-5.92-5.8-5.92-5.8v-46.39l11.6,5.8V-1730.15z"/>
	<path d="M1186.66-1785.23l-20.3,12.92v-62.2l-31.89,21.26v0.89c3.44-0.89,8.7-0.97,8.7,6.84c0,11.6,0,89.88,0,89.88h23.19v-51.83
		c5.8-1.81,11.6-1.81,11.6,5.44v46.39h23.19v-46.39h5.8L1186.66-1785.23z"/>
	<path d="M711.18-1764.94l-17.4-20.3l-23.19,17.37v-55.06l-31.89,18.36v0.59c3.43-0.91,8.79-1.07,8.79,6.82
		c0,11.6-0.1,81.5-0.1,81.5h23.19v-27.34c11.59,2.15,11.6,15.75,11.6,15.75v11.6l23.19-0.14c0-28.94-23.19-28.85-23.19-28.85h-11.31
		l34.5-20.3H711.18z M670.59-1746.12v-18.94c3.75-1.3,9.45-2.13,11.6,3.03C684.49-1756.5,678.12-1751.66,670.59-1746.12z"/>
	<path d="M598.11-1813.26v0.89c3.44-0.89,8.7-0.97,8.7,6.84c0,11.6,0,89.88,0,89.88H630v-118.87L598.11-1813.26z"/>
	<path d="M1250.45-1746.58l23.19-15.46v-11.6l-23.19-11.6l-34.79,23.19v20.3c0,26.09,23.19,27.29,23.19,27.29h11.6
		c23.19,0,23.19-24.39,23.19-24.39h-23.19v8.7c0,0,0,5.8-5.8,5.8s-5.8-5.8-5.8-5.8v-16.42L1250.45-1746.58z M1250.45-1770.74v14.49
		c0,5.65-11.6,5.81-11.6,5.81v-26.09L1250.45-1770.74z"/>
	<path d="M1363.84-1723.65c-1.8,3.31-6.1,5.43-9.52,6.65l27.53-47.44c3.79-6.55,10.18-2.69,10.18-2.69l-15.39-18.11l-13.73,5.85
		c-11.63,0.23-22.76-5.83-22.76-5.83l-14.33,26.36l14.7,8l11.2-20.58c1.9-3.5,6.78-5.53,10.42-6.61l-36.2,62.4h52.59l11.2-20.58
		l-14.7-8L1363.84-1723.65z"/>
	<path d="M1122.88-1785.23v-37.69l-26.09,18.13v0.87c3-0.82,7.61-1.13,8.7,4.2v5.8c0,11.86-17.4,11.86-17.4,11.86v2.64h11.72v63.78
		h23.5c0.03-5.4,0.05-49.59,0.05-55.09c0-11.86,11.6-11.6,11.6-11.6v-2.9H1122.88z"/>
	<path d="M511.66-1784.7l-14,14c0,0,16.23,11.44,13.54,22.98l-5.84,23.37l-14.5-20.3v-31.89l-11.6-8.7l-20.33,10.16v0.59
		c3.43-0.48,8.73,0.68,8.73,12.44h0.04l-0.03,14.5l-0.05,0c0,0.02,0.02,0.03,0.05,0.04l-0.02,8.66l4.87,6.49l-2,8.01l-14.5-20.3
		v-31.89l-11.6-8.7l-20.3,10.15v0.6c3.44-0.47,8.7,0.72,8.7,12.44h0.04l-0.04,23.19l17.4,23.19l24.02-0.11l3.07-10.19l7.73,10.31
		l24.02-0.11l16.54-54.87L511.66-1784.7z"/>
	<path d="M1502.69-1785.23l-34.79,23.19v24.58c0,0,0,23.19,23.19,23.19h5.8h5.8c23.19,0,23.19-23.19,23.19-23.19v-36.17
		L1502.69-1785.23z M1502.69-1728.77c0,0,0,5.8-5.8,5.8s-5.8-5.8-5.8-5.8v-47.77l11.6,5.8V-1728.77z"/>
	<path d="M1433.11-1785.23l-34.79,23.19v24.58c0,0,0,23.19,23.19,23.19h5.8h5.8c23.19,0,23.19-23.19,23.19-23.19v-36.17
		L1433.11-1785.23z M1433.11-1728.77c0,0,0,5.8-5.8,5.8s-5.8-5.8-5.8-5.8v-47.77l11.6,5.8V-1728.77z"/>
</g>
<g>
	<path d="M441.31-1316.04l-23.19,8.7l-11.6-8.7l-20.3,10.15v0.6c3.44-0.47,8.7,0.72,8.7,12.44v46.39h23.19v-57.99
		c11.6-2.9,11.6,5.8,11.6,5.8v52.19h23.19v-57.99L441.31-1316.04z"/>
	<path d="M809.52-1316.04l-23.19,8.7l-11.6-8.7l-20.3,10.15v0.6c3.44-0.47,8.7,0.72,8.7,12.44v46.39h23.19v-57.99
		c11.6-2.9,11.6,5.8,11.6,5.8v52.19h23.19v-57.99L809.52-1316.04z"/>
	<path d="M377.64-1258.05l-0.12-46.39l-23.19-11.6l-34.79,23.19v28.99c0,0,0,18.9,20.38,18.9c14.45,0,17.09-6.55,17.09-6.55
		s0.46,5.05,3.11,5.05c5.42,0,18.62,0,20.3,0v-2.91C377.52-1249.36,377.64-1258.05,377.64-1258.05z M354.33-1260.95
		c0,0,0.12,5.8-5.68,5.8s-5.92-5.8-5.92-5.8v-46.39l11.6,5.8V-1260.95z"/>
	<path d="M960.76-1316.04l-20.3,12.92v-62.2l-31.89,21.26v0.89c3.44-0.89,8.7-0.97,8.7,6.84c0,11.6,0,89.88,0,89.88h23.19v-51.83
		c5.8-1.81,11.6-1.81,11.6,5.44v46.39h23.19v-46.39h5.8L960.76-1316.04z"/>
	<path d="M493.49-1344.06v0.89c3.44-0.89,8.7,1.93,8.7,9.74c0,8.28,0,25.13,0,25.13l-11.6-7.73l-23.19,11.6l0,40.59
		c0,0-0.12,18.9,20.27,18.9c14.45,0,14.52-10.2,14.52-10.2l0,0c0,2.78,0,5.68,0,8.7h23.19v-118.87L493.49-1344.06z M502.19-1275.45
		c0,4.42,0,9.23,0,14.5c0,0,0,5.8-5.8,5.8c-5.8,0-5.8-5.8-5.8-5.8v-14.5v-4.77h0v-21.32l11.6-5.8c0,6.35,0,14.94,0,27.12
		C502.19-1278.68,502.19-1277.09,502.19-1275.45z"/>
	<path d="M1021.64-1277.38l23.19-15.46v-11.6l-23.19-11.6l-34.79,23.19v20.3c0,26.09,23.19,27.29,23.19,27.29h11.6
		c23.19,0,23.19-24.39,23.19-24.39h-23.19v8.7c0,0,0,5.8-5.8,5.8s-5.8-5.8-5.8-5.8v-16.42L1021.64-1277.38z M1021.64-1301.54v14.49
		c0,5.65-11.6,5.81-11.6,5.81v-26.09L1021.64-1301.54z"/>
	<path d="M1155.01-1277.38l23.19-15.46v-11.6l-23.19-11.6l-34.79,23.19v20.3c0,26.09,23.19,27.29,23.19,27.29h11.6
		c23.19,0,23.19-24.39,23.19-24.39h-23.19v8.7c0,0,0,5.8-5.8,5.8c-5.8,0-5.8-5.8-5.8-5.8v-16.42L1155.01-1277.38z M1155.01-1301.54
		v14.49c0,5.65-11.6,5.81-11.6,5.81v-26.09L1155.01-1301.54z"/>
	<path d="M1102.68-1309.24l-20.16,20.16v-26.95l-31.89,21.26v0.89c3.44-0.89,8.7-0.97,8.7,6.84c0,11.6,0,40.59,0,40.59h23.19v-36.93
		c1-1.62,7.44-10.67,20.26,2.14l14-14L1102.68-1309.24z"/>
	<path d="M1363.76-1277.38l23.19-15.46v-11.6l-23.19-11.6l-34.79,23.19v20.3c0,26.09,23.19,27.29,23.19,27.29h11.6
		c23.19,0,23.19-24.39,23.19-24.39h-23.19v8.7c0,0,0,5.8-5.8,5.8s-5.8-5.8-5.8-5.8v-16.42L1363.76-1277.38z M1363.76-1301.54v14.49
		c0,5.65-11.6,5.81-11.6,5.81v-26.09L1363.76-1301.54z"/>
	<path d="M1497.13-1277.38l23.19-15.46v-11.6l-23.19-11.6l-34.79,23.19v20.3c0,26.09,23.19,27.29,23.19,27.29h11.6
		c23.19,0,23.19-24.39,23.19-24.39h-23.19v8.7c0,0,0,5.8-5.8,5.8c-5.8,0-5.8-5.8-5.8-5.8v-16.42L1497.13-1277.38z M1497.13-1301.54
		v14.49c0,5.65-11.6,5.81-11.6,5.81v-26.09L1497.13-1301.54z"/>
	<path d="M1444.8-1309.24l-20.16,20.16v-26.95l-31.89,21.26v0.89c3.44-0.89,8.7-0.97,8.7,6.84c0,11.6,0,40.59,0,40.59h23.19v-36.93
		c1-1.62,7.44-10.67,20.26,2.14l14-14L1444.8-1309.24z"/>
	<path d="M896.5-1316.04v-37.69l-26.09,18.13v0.87c3-0.82,7.61-1.13,8.7,4.2v5.8c0,11.86-17.4,11.86-17.4,11.86v2.64h11.72v63.78
		h23.5c0.03-5.4,0.05-49.59,0.05-55.09c0-11.86,11.6-11.6,11.6-11.6v-2.9H896.5z"/>
	<path d="M664.55-1316.04l-20.3,12.92v-62.2l-31.89,21.26v0.89c3.44-0.89,8.7-0.97,8.7,6.84c0,11.6,0,89.88,0,89.88h23.19v-51.83
		c5.8-1.81,11.6-1.81,11.6,5.44v46.39h23.19v-46.39h5.8L664.55-1316.04z"/>
	<path d="M725.44-1277.38l23.19-15.46v-11.6l-23.19-11.6l-34.79,23.19v20.3c0,26.09,23.19,27.29,23.19,27.29h11.6
		c23.19,0,23.19-24.39,23.19-24.39h-23.19v8.7c0,0,0,5.8-5.8,5.8c-5.8,0-5.8-5.8-5.8-5.8v-16.42L725.44-1277.38z M725.44-1301.54
		v14.49c0,5.65-11.6,5.81-11.6,5.81v-26.09L725.44-1301.54z"/>
	<path d="M600.3-1316.04v-37.69l-26.09,18.13v0.87c3-0.82,7.61-1.13,8.7,4.2v5.8c0,11.86-17.4,11.86-17.4,11.86v2.64h11.72v63.78
		h23.5c0.03-5.4,0.05-49.59,0.05-55.09c0-11.86,11.6-11.6,11.6-11.6v-2.9H600.3z"/>
	<path d="M1309.2-1315.5l-14,14c0,0,16.23,11.44,13.54,22.98l-5.84,23.37l-14.5-20.3v-31.89l-11.6-8.7l-20.33,10.16v0.59
		c3.43-0.48,8.73,0.68,8.73,12.44h0.04l-0.03,14.5l-0.05,0c0,0.02,0.02,0.03,0.05,0.04l-0.02,8.66l4.87,6.49l-2,8.01l-14.5-20.3
		v-31.89l-11.6-8.7l-20.3,10.15v0.6c3.44-0.47,8.7,0.72,8.7,12.44h0.04l-0.04,23.19l17.4,23.19l24.02-0.11l3.07-10.19l7.73,10.31
		l24.02-0.11l16.54-54.87L1309.2-1315.5z"/>
	<path d="M1630.49-1324.73v-17.4l-23.19-11.6l-34.79,23.19v20.3h23.19v-34.79l11.6,5.8v26.09c0,0,0,8.7-5.8,8.7v8.7
		c5.8,0,5.8,8.7,5.8,8.7v26.41c0,0,0,5.8-5.8,5.8s-5.8-5.8-5.8-5.8v-23.19h-23.19v14.5c0,0,0,24.72,23.19,24.72h11.6
		c23.19,0,23.2-24.72,23.2-24.72v-14.81c0,0,0-9.23-8.78-15.95C1630.49-1306.81,1630.49-1324.73,1630.49-1324.73z"/>
</g>
<g>
	<g>
		<path d="M1070.69-2039.36v0.87c3-0.82,7.61-1.13,8.7,4.2v8.7l17.4-11.6v-20.3L1070.69-2039.36z"/>
		<path d="M1064.89-1998.54v0.89c3.44-0.89,8.7-0.97,8.7,6.84c0,11.6,0,40.59,0,40.59h23.19v-69.58L1064.89-1998.54z"/>
	</g>
	<g>
		<path d="M548.82-2039.36v0.87c3-0.82,7.61-1.13,8.7,4.2v8.7l17.4-11.6v-20.3L548.82-2039.36z"/>
		<path d="M543.02-1998.54v0.89c3.44-0.89,8.7-0.97,8.7,6.84c0,11.6,0,40.59,0,40.59h23.19v-69.58L543.02-1998.54z"/>
	</g>
	<path d="M951.82-2047.83v0.89c3.44-0.89,8.7-0.97,8.7,6.84c0,11.6,0,89.88,0,89.88h23.19v-118.87L951.82-2047.83z"/>
	<path d="M502.43-2047.83v0.89c3.44-0.89,8.7-0.97,8.7,6.84c0,11.6,0,89.88,0,89.88h23.19v-118.87L502.43-2047.83z"/>
	<path d="M661.89-2047.83v0.89c3.44-0.89,8.7-0.97,8.7,6.84c0,11.6,0,89.88,0,89.88h23.19v-118.87L661.89-2047.83z"/>
	<path d="M1024.3-2047.83v0.89c3.44-0.89,8.7,1.93,8.7,9.74c0,8.28,0,25.13,0,25.13l-11.6-7.73l-23.19,11.6l0,40.59
		c0,0-0.12,18.9,20.27,18.9c14.45,0,14.52-10.2,14.52-10.2l0,0c0,2.78,0,5.68,0,8.7h23.19v-118.87L1024.3-2047.83z M1033-1979.21
		c0,4.42,0,9.23,0,14.5c0,0,0,5.8-5.8,5.8s-5.8-5.8-5.8-5.8v-14.5v-4.77h0v-21.32l11.6-5.8c0,6.35,0,14.94,0,27.12
		C1033-1982.45,1033-1980.86,1033-1979.21z"/>
	<path d="M1328.73-2019.8l-11.6,7.73v-57.02l-31.89,21.26v0.89c3.44-0.89,8.7,1.93,8.7,9.74c0,6.43,0,86.98,0,86.98h23.19v-8.7l0,0
		c0,0,0.07,10.2,14.53,10.2c20.38,0,20.27-18.9,20.27-18.9l0-40.59L1328.73-2019.8z M1328.73-1964.71c0,0,0,5.8-5.8,5.8
		s-5.8-5.8-5.8-5.8v-46.39l11.6,5.8L1328.73-1964.71z"/>
	<path d="M1146.07-1981.14l23.19-15.46v-11.6l-23.19-11.6l-34.79,23.19v20.3c0,26.09,23.19,27.29,23.19,27.29h11.6
		c23.19,0,23.19-24.39,23.19-24.39h-23.19v8.7c0,0,0,5.8-5.8,5.8s-5.8-5.8-5.8-5.8v-16.42L1146.07-1981.14z M1146.07-2005.3v14.49
		c0,5.65-11.6,5.81-11.6,5.81v-26.09L1146.07-2005.3z"/>
	<path d="M743.07-1981.14l23.19-15.46v-11.6l-23.19-11.6l-34.79,23.19v20.3c0,26.09,23.19,27.29,23.19,27.29h11.6
		c23.19,0,23.19-24.39,23.19-24.39h-23.19v8.7c0,0,0,5.8-5.8,5.8c-5.8,0-5.8-5.8-5.8-5.8v-16.42L743.07-1981.14z M743.07-2005.3
		v14.49c0,5.65-11.6,5.81-11.6,5.81v-26.09L743.07-2005.3z"/>
	<path d="M1473.7-2019.8v57.99c-11.6,2.9-11.6-5.8-11.6-5.8v-43.49v-0.97l-23.19,15.46v34.79l11.6,11.6l23.19-8.7v40.59
		c0,0,0,5.8-5.8,5.8s-5.8-5.8-5.8-5.8v-17.4h-23.19v8.7c0,0,0,23.19,23.19,23.19h5.8h5.8c23.19,0,23.19-23.19,23.19-23.19v-81.18
		L1473.7-2019.8z"/>
	<path d="M1569.37-2002.4v-5.8l-23.19-11.6l-34.79,23.19v2.9c0,14.5,14.5,14.5,14.5,14.5h14.5c5.8,0,5.8,5.8,5.8,5.8v8.7
		c0,0,0,5.8-5.8,5.8s-5.8-5.8-5.8-5.8l0-7.13h0v-1.56h-23.19v1.46h0c0,23.19,23.19,23.24,23.19,23.24h11.6
		c23.19,0,23.2-17.44,23.2-17.44l0-4.36c0-14.5-14.5-14.5-14.5-14.5h-14.5c-5.8,0-5.8-5.8-5.8-5.8v-20.3l11.6,2.9v18.85
		L1569.37-2002.4z"/>
	<path d="M876.44-2002.4v-5.8l-23.19-11.6l-34.79,23.19v2.9c0,14.5,14.5,14.5,14.5,14.5h14.5c5.8,0,5.8,5.8,5.8,5.8v8.7
		c0,0,0,5.8-5.8,5.8s-5.8-5.8-5.8-5.8l0-7.13h0v-1.56h-23.19v1.46h0c0,23.19,23.19,23.24,23.19,23.24h11.6
		c23.19,0,23.2-17.44,23.2-17.44l0-4.36c0-14.5-14.5-14.5-14.5-14.5h-14.5c-5.8,0-5.8-5.8-5.8-5.8v-20.3l11.6,2.9v18.85
		L876.44-2002.4z"/>
	<path d="M1227.12-2013.01l-20.16,20.16v-26.95l-31.89,21.26v0.89c3.44-0.89,8.7-0.97,8.7,6.84c0,11.6,0,40.59,0,40.59h23.19v-36.93
		c1-1.62,7.44-10.67,20.26,2.14l14-14L1227.12-2013.01z"/>
	<path d="M652.72-2019.8v-37.69l-26.09,18.13v0.87c3-0.82,7.61-1.13,8.7,4.2v2.9c0,11.11-15.26,11.58-17.19,11.6h-3.1v-37.69
		l-26.09,18.13v0.87c3-0.82,7.61-1.13,8.7,4.2v5.8c0,11.86-17.4,11.6-17.4,11.6v2.9h11.72v63.78h23.5
		c0.03-5.4,0.05-49.59,0.05-55.09c0-11.11,10.18-11.58,11.46-11.6h2.68v66.68h23.5c0.03-5.4,0.05-49.59,0.05-55.09
		c0-11.86,11.6-11.6,11.6-11.6v-2.9H652.72z"/>
	<path d="M1401.21-2019.8l-34.79,23.19v24.58c0,0,0,23.19,23.19,23.19h5.8h5.8c23.19,0,23.19-23.19,23.19-23.19v-36.17
		L1401.21-2019.8z M1401.21-1963.33c0,0,0,5.8-5.8,5.8s-5.8-5.8-5.8-5.8v-47.77l11.6,5.8V-1963.33z"/>
	<path d="M922.83-2021.18l-34.79,23.19v24.58c0,0,0,23.19,23.19,23.19h5.8h5.8c23.19,0,23.19-23.19,23.19-23.19v-36.17
		L922.83-2021.18z M922.83-1964.71c0,0,0,5.8-5.8,5.8c-5.8,0-5.8-5.8-5.8-5.8v-47.77l11.6,5.8V-1964.71z"/>
	<path d="M447.34-1987.91v-61.2l-11.6-8.7l-20.3,10.15v1.43c3.44,0.6,8.7,3.74,8.7,17.41v46.7l-11.6-5.8v-17.71v-17.4l-11.6-8.7
		l-20.3,10.15v1.23c3.44,0.18,8.7,2.05,8.7,11.82v23.51l23.19,11.6l11.6-7.73v30.93h23.19v-23.19l11.6-7.73v-0.97L447.34-1987.91z"
		/>
</g>
<g>
	<path d="M1559.22-1550.78l-23.19,8.7l-11.6-8.7l-20.3,10.15v0.6c3.44-0.47,8.7,0.72,8.7,12.44v46.39h23.19v-57.99
		c11.6-2.9,11.6,5.8,11.6,5.8v52.19h23.19v-57.99L1559.22-1550.78z"/>
	<path d="M1147.52-1550.78l-34.79,23.19v34.79l11.6,11.6l23.19-8.7v40.59c0,0,0,5.8-5.8,5.8s-5.8-5.8-5.8-5.8v-17.4h-23.19v8.7
		c0,0,0,23.19,23.19,23.19h11.6c23.19,0,23.19-23.19,23.19-23.19v-46.39v-34.79L1147.52-1550.78z M1147.52-1492.8
		c-11.6,2.9-11.6-5.8-11.6-5.8v-43.49l11.6,5.8V-1492.8z"/>
	<path d="M1220.01-1550.78l-34.79,23.19v34.79l11.6,11.6l23.19-8.7v40.59c0,0,0,5.8-5.8,5.8c-5.8,0-5.8-5.8-5.8-5.8v-17.4h-23.19
		v8.7c0,0,0,23.19,23.19,23.19h11.6c23.19,0,23.19-23.19,23.19-23.19v-46.39v-34.79L1220.01-1550.78z M1220.01-1492.8
		c-11.6,2.9-11.6-5.8-11.6-5.8v-43.49l11.6,5.8V-1492.8z"/>
	<g>
		<path d="M489.38-1570.34v0.87c3-0.82,7.61-1.13,8.7,4.2v8.7l17.4-11.6v-20.3L489.38-1570.34z"/>
		<path d="M483.58-1529.52v0.89c3.44-0.89,8.7-0.97,8.7,6.84c0,11.6,0,40.59,0,40.59h23.19v-69.58L483.58-1529.52z"/>
	</g>
	<path d="M840.85-1492.8l-0.12-46.39l-23.19-11.6l-34.79,23.19v28.99c0,0,0,18.9,20.38,18.9c14.45,0,17.09-6.55,17.09-6.55
		s0.46,5.05,3.11,5.05c5.42,0,18.62,0,20.3,0v-2.91C840.73-1484.11,840.85-1492.8,840.85-1492.8z M817.54-1495.69
		c0,0,0.12,5.8-5.68,5.8c-5.8,0-5.92-5.8-5.92-5.8v-46.39l11.6,5.8V-1495.69z"/>
	<path d="M364.83-1492.8l-0.12-46.39l-23.19-11.6l-34.79,23.19v28.99c0,0,0,18.9,20.38,18.9c14.45,0,17.09-6.55,17.09-6.55
		s0.46,5.05,3.11,5.05c5.42,0,18.62,0,20.3,0v-2.91C364.71-1484.11,364.83-1492.8,364.83-1492.8z M341.52-1495.69
		c0,0,0.12,5.8-5.68,5.8s-5.92-5.8-5.92-5.8v-46.39l11.6,5.8V-1495.69z"/>
	<path d="M1011.26-1550.78l-20.3,12.92v-62.2l-31.89,21.26v0.89c3.44-0.89,8.7-0.97,8.7,6.84c0,11.6,0,89.88,0,89.88h23.19v-51.83
		c5.8-1.81,11.6-1.81,11.6,5.44v46.39h23.19v-46.39h5.8L1011.26-1550.78z"/>
	<path d="M1353.37-1578.81v0.89c3.44-0.89,8.7,1.93,8.7,9.74c0,8.28,0,25.13,0,25.13l-11.6-7.73l-23.19,11.6l0,40.59
		c0,0-0.12,18.9,20.27,18.9c14.45,0,14.53-10.2,14.53-10.2l0,0c0,2.78,0,5.68,0,8.7h23.19v-118.87L1353.37-1578.81z
		 M1362.07-1510.19c0,4.42,0,9.23,0,14.5c0,0,0,5.8-5.8,5.8s-5.8-5.8-5.8-5.8v-14.5v-4.77h0v-21.32l11.6-5.8c0,6.35,0,14.94,0,27.12
		C1362.07-1513.43,1362.07-1511.84,1362.07-1510.19z"/>
	<path d="M451.69-1550.78l-11.6,7.73v-57.02l-31.89,21.26v0.89c3.44-0.89,8.7,1.93,8.7,9.74c0,6.43,0,86.98,0,86.98h23.19v-8.7l0,0
		c0,0,0.07,10.2,14.52,10.2c20.38,0,20.27-18.9,20.27-18.9l0-40.59L451.69-1550.78z M451.69-1495.69c0,0,0,5.8-5.8,5.8
		s-5.8-5.8-5.8-5.8v-46.39l11.6,5.8L451.69-1495.69z"/>
	<path d="M747.42-1512.12l23.19-15.46v-11.6l-23.19-11.6l-34.79,23.19v20.3c0,26.09,23.19,27.29,23.19,27.29h11.6
		c23.19,0,23.19-24.39,23.19-24.39h-23.19v8.7c0,0,0,5.8-5.8,5.8c-5.8,0-5.8-5.8-5.8-5.8v-16.42L747.42-1512.12z M747.42-1536.28
		v14.49c0,5.65-11.6,5.81-11.6,5.81v-26.09L747.42-1536.28z"/>
	<path d="M1620.11-1512.12l23.19-15.46v-11.6l-23.19-11.6l-34.79,23.19v20.3c0,26.09,23.19,27.29,23.19,27.29h11.6
		c23.19,0,23.19-24.39,23.19-24.39h-23.19v8.7c0,0,0,5.8-5.8,5.8s-5.8-5.8-5.8-5.8v-16.42L1620.11-1512.12z M1620.11-1536.28v14.49
		c0,5.65-11.6,5.81-11.6,5.81v-26.09L1620.11-1536.28z"/>
	<path d="M1292.49-1512.12l23.19-15.46v-11.6l-23.19-11.6l-34.79,23.19v20.3c0,26.09,23.19,27.29,23.19,27.29h11.6
		c23.19,0,23.19-24.39,23.19-24.39h-23.19v8.7c0,0,0,5.8-5.8,5.8s-5.8-5.8-5.8-5.8v-16.42L1292.49-1512.12z M1292.49-1536.28v14.49
		c0,5.65-11.6,5.81-11.6,5.81v-26.09L1292.49-1536.28z"/>
	<path d="M1098.24-1539.19l-23.19-11.59l0.07,55.09c0,0,0,5.8-5.8,5.8c-5.8,0-5.8-5.8-5.8-5.8l-0.07-47.36l-23.19,15.46l0.07,29
		c0,0-0.12,18.9,20.27,18.9c14.45,0,14.53-10.2,14.53-10.2l0,0v8.7h23.19L1098.24-1539.19z"/>
	<path d="M901.48-1543.99l-20.16,20.16v-26.95l-31.89,21.26v0.89c3.44-0.89,8.7-0.97,8.7,6.84c0,11.6,0,40.59,0,40.59h23.19v-36.93
		c1-1.62,7.44-10.67,20.26,2.14l14-14L901.48-1543.99z"/>
	<path d="M1472.25-1550.78l-34.79,23.19v24.58c0,0,0,23.19,23.19,23.19h5.8h5.8c23.19,0,23.19-23.19,23.19-23.19v-36.17
		L1472.25-1550.78z M1472.25-1494.31c0,0,0,5.8-5.8,5.8c-5.8,0-5.8-5.8-5.8-5.8v-47.77l11.6,5.8V-1494.31z"/>
	<path d="M564.76-1550.78l-34.79,23.19v34.79l11.6,11.6l23.19-8.7v40.59c0,0,0,5.8-5.8,5.8s-5.8-5.8-5.8-5.8v-17.4h-23.19v8.7
		c0,0,0,23.19,23.19,23.19h11.6c23.19,0,23.19-23.19,23.19-23.19v-46.39v-34.79L564.76-1550.78z M564.76-1492.8
		c-11.6,2.9-11.6-5.8-11.6-5.8v-43.49l11.6,5.8V-1492.8z"/>
	<path d="M674.94-1550.78l-11.6,7.73v-57.02l-31.89,21.26v0.89c3.44-0.89,8.7,1.93,8.7,9.74c0,6.43,0,86.98,0,86.98h23.19v-8.7l0,0
		c0,0,0.07,10.2,14.52,10.2c20.38,0,20.27-18.9,20.27-18.9l0-40.59L674.94-1550.78z M674.94-1495.69c0,0,0,5.8-5.8,5.8
		s-5.8-5.8-5.8-5.8v-46.39l11.6,5.8L674.94-1495.69z"/>
</g>
<g class="st0">
	<g>
		<line class="st1" x1="1.11" y1="142.46" x2="1918.76" y2="142.46"/>
		<line class="st1" x1="1.11" y1="188.85" x2="1918.76" y2="188.85"/>
		<line class="st1" x1="1.11" y1="72.88" x2="1918.76" y2="72.88"/>
		<line class="st1" x1="1.11" y1="23.59" x2="1918.76" y2="23.59"/>
		<line class="st1" x1="1.11" y1="35.19" x2="1918.76" y2="35.19"/>
	</g>
	<rect x="1634.26" y="188.85" class="st1" width="47.91" height="67.16"/>
	<g>
		<line class="st1" x1="1.11" y1="377.03" x2="1918.76" y2="377.03"/>
		<line class="st1" x1="1.11" y1="423.42" x2="1918.76" y2="423.42"/>
		<line class="st1" x1="1.11" y1="307.44" x2="1918.76" y2="307.44"/>
		<line class="st1" x1="1.11" y1="258.16" x2="1918.76" y2="258.16"/>
		<line class="st1" x1="1.11" y1="269.75" x2="1918.76" y2="269.75"/>
	</g>
	<rect x="1634.26" y="423.42" class="st1" width="47.91" height="67.16"/>
	<g>
		<line class="st1" x1="1.11" y1="611.59" x2="1918.76" y2="611.59"/>
		<line class="st1" x1="1.11" y1="657.98" x2="1918.76" y2="657.98"/>
		<line class="st1" x1="1.11" y1="542.01" x2="1918.76" y2="542.01"/>
		<line class="st1" x1="1.11" y1="492.72" x2="1918.76" y2="492.72"/>
		<line class="st1" x1="1.11" y1="504.32" x2="1918.76" y2="504.32"/>
	</g>
	<rect x="1634.26" y="657.98" class="st1" width="47.91" height="67.16"/>
</g>
<g>
	<g>
		<g>
			<path class="st2" d="M1477.46,86.91v0.87c3-0.82,7.61-1.13,8.7,4.2v8.7l17.4-11.6v-20.3L1477.46,86.91z"/>
			<path class="st2" d="M1471.67,127.73v0.89c3.44-0.89,8.7-0.97,8.7,6.84c0,11.6,0,40.59,0,40.59h23.19v-69.58L1471.67,127.73z"/>
		</g>
		<g>
			<path class="st2" d="M1039.67,86.91v0.87c3-0.82,7.61-1.13,8.7,4.2v8.7l17.4-11.6v-20.3L1039.67,86.91z"/>
			<path class="st2" d="M1033.87,127.73v0.89c3.44-0.89,8.7-0.97,8.7,6.84c0,11.6,0,40.59,0,40.59h23.19v-69.58L1033.87,127.73z"/>
		</g>
		<path class="st2" d="M1431.08,78.45v0.89c3.44-0.89,8.7-0.97,8.7,6.84c0,11.6,0,89.88,0,89.88h23.19V57.18L1431.08,78.45z"/>
		<path class="st2" d="M1402.08,106.47l-11.6,7.73V57.18l-31.89,21.26v0.89c3.44-0.89,8.7,1.93,8.7,9.74c0,6.43,0,86.98,0,86.98
			h23.19v-8.7l0,0c0,0,0.07,10.2,14.53,10.2c20.38,0,20.27-18.9,20.27-18.9l0-40.59L1402.08,106.47z M1402.08,161.56
			c0,0,0,5.8-5.8,5.8s-5.8-5.8-5.8-5.8v-46.39l11.6,5.8L1402.08,161.56z"/>
		<path class="st2" d="M311.94,145.13l23.19-15.46v-11.6l-23.19-11.6l-34.79,23.19v20.3c0,26.09,23.19,27.29,23.19,27.29h11.6
			c23.19,0,23.19-24.39,23.19-24.39h-23.19v8.7c0,0,0,5.8-5.8,5.8s-5.8-5.8-5.8-5.8v-16.42L311.94,145.13z M311.94,120.97v14.49
			c0,5.65-11.6,5.81-11.6,5.81v-26.09L311.94,120.97z"/>
		<path class="st2" d="M448.21,145.13l23.19-15.46v-11.6l-23.19-11.6l-34.79,23.19v20.3c0,26.09,23.19,27.29,23.19,27.29h11.6
			c23.19,0,23.19-24.39,23.19-24.39h-23.19v8.7c0,0,0,5.8-5.8,5.8c-5.8,0-5.8-5.8-5.8-5.8v-16.42L448.21,145.13z M448.21,120.97
			v14.49c0,5.65-11.6,5.81-11.6,5.81v-26.09L448.21,120.97z"/>
		<path class="st2" d="M1291.91,145.13l23.19-15.46v-11.6l-23.19-11.6l-34.79,23.19v20.3c0,26.09,23.19,27.29,23.19,27.29h11.6
			c23.19,0,23.19-24.39,23.19-24.39h-23.19v8.7c0,0,0,5.8-5.8,5.8s-5.8-5.8-5.8-5.8v-16.42L1291.91,145.13z M1291.91,120.97v14.49
			c0,5.65-11.6,5.81-11.6,5.81v-26.09L1291.91,120.97z"/>
		<path class="st2" d="M1222.33,145.13l23.19-15.46v-11.6l-23.19-11.6l-34.79,23.19v20.3c0,26.09,23.19,27.29,23.19,27.29h11.6
			c23.19,0,23.19-24.39,23.19-24.39h-23.19v8.7c0,0,0,5.8-5.8,5.8c-5.8,0-5.8-5.8-5.8-5.8v-16.42L1222.33,145.13z M1222.33,120.97
			v14.49c0,5.65-11.6,5.81-11.6,5.81v-26.09L1222.33,120.97z"/>
		<path class="st2" d="M584.48,106.47v57.99c-11.6,2.9-11.6-5.8-11.6-5.8v-43.49v-0.97l-23.19,15.46v34.79l11.6,11.6l23.19-8.7
			v40.59c0,0,0,5.8-5.8,5.8c-5.8,0-5.8-5.8-5.8-5.8v-17.4h-23.19v8.7c0,0,0,23.19,23.19,23.19h5.8h5.8
			c23.19,0,23.19-23.19,23.19-23.19v-81.18L584.48,106.47z"/>
		<path class="st2" d="M1175.94,123.87v-5.8l-23.19-11.6l-34.79,23.19v2.9c0,14.5,14.5,14.5,14.5,14.5h14.5c5.8,0,5.8,5.8,5.8,5.8
			v8.7c0,0,0,5.8-5.8,5.8c-5.8,0-5.8-5.8-5.8-5.8l0-7.13h0v-1.56h-23.19v1.46h0c0,23.19,23.19,23.24,23.19,23.24h11.6
			c23.19,0,23.2-17.44,23.2-17.44l0-4.36c0-14.5-14.5-14.5-14.5-14.5h-14.5c-5.8,0-5.8-5.8-5.8-5.8v-20.3l11.6,2.9v18.85
			L1175.94,123.87z"/>
		<path class="st2" d="M1642.72,123.87v-5.8l-23.19-11.6l-34.79,23.19v2.9c0,14.5,14.5,14.5,14.5,14.5h14.5c5.8,0,5.8,5.8,5.8,5.8
			v8.7c0,0,0,5.8-5.8,5.8s-5.8-5.8-5.8-5.8l0-7.13h0v-1.56h-23.19v1.46h0c0,23.19,23.19,23.24,23.19,23.24h11.6
			c23.19,0,23.2-17.44,23.2-17.44l0-4.36c0-14.5-14.5-14.5-14.5-14.5h-14.5c-5.8,0-5.8-5.8-5.8-5.8v-20.3l11.6,2.9v18.85
			L1642.72,123.87z"/>
		<path class="st2" d="M1576.05,123.87v-5.8l-23.19-11.6l-34.79,23.19v2.9c0,14.5,14.5,14.5,14.5,14.5h14.5c5.8,0,5.8,5.8,5.8,5.8
			v8.7c0,0,0,5.8-5.8,5.8c-5.8,0-5.8-5.8-5.8-5.8l0-7.13h0v-1.56h-23.19v1.46h0c0,23.19,23.19,23.24,23.19,23.24h11.6
			c23.19,0,23.2-17.44,23.2-17.44l0-4.36c0-14.5-14.5-14.5-14.5-14.5h-14.5c-5.8,0-5.8-5.8-5.8-5.8v-20.3l11.6,2.9v18.85
			L1576.05,123.87z"/>
		<path class="st2" d="M529.25,113.27l-20.16,20.16v-26.95l-31.89,21.26v0.89c3.44-0.89,8.7-0.97,8.7,6.84c0,11.6,0,40.59,0,40.59
			h23.19v-36.93c1-1.62,7.44-10.67,20.26,2.14l14-14L529.25,113.27z"/>
		<path class="st2" d="M772.93,106.47l-20.3,12.92v-62.2l-31.89,21.26v0.89c3.44-0.89,8.7-0.97,8.7,6.84c0,11.6,0,89.88,0,89.88
			h23.19v-51.83c5.8-1.81,11.6-1.81,11.6,5.44v46.39h23.19v-46.39h5.8L772.93,106.47z"/>
		<path class="st2" d="M833.82,145.13l23.19-15.46v-11.6l-23.19-11.6l-34.79,23.19v20.3c0,26.09,23.19,27.29,23.19,27.29h11.6
			c23.19,0,23.19-24.39,23.19-24.39h-23.19v8.7c0,0,0,5.8-5.8,5.8c-5.8,0-5.8-5.8-5.8-5.8v-16.42L833.82,145.13z M833.82,120.97
			v14.49c0,5.65-11.6,5.81-11.6,5.81v-26.09L833.82,120.97z"/>
		<path class="st2" d="M967.19,145.13l23.19-15.46v-11.6l-23.19-11.6l-34.79,23.19v20.3c0,26.09,23.19,27.29,23.19,27.29h11.6
			c23.19,0,23.19-24.39,23.19-24.39h-23.19v8.7c0,0,0,5.8-5.8,5.8c-5.8,0-5.8-5.8-5.8-5.8v-16.42L967.19,145.13z M967.19,120.97
			v14.49c0,5.65-11.6,5.81-11.6,5.81v-26.09L967.19,120.97z"/>
		<path class="st2" d="M914.86,113.27l-20.16,20.16v-26.95l-31.89,21.26v0.89c3.44-0.89,8.7-0.97,8.7,6.84c0,11.6,0,40.59,0,40.59
			h23.19v-36.93c1-1.62,7.44-10.67,20.26,2.14l14-14L914.86,113.27z"/>
		<path class="st2" d="M393.62,107.01l-14,14c0,0,16.23,11.44,13.54,22.98l-5.84,23.37l-14.5-20.3v-31.89l-11.6-8.7l-20.3,10.15v0.6
			c3.44-0.47,8.7,0.72,8.7,12.44h0.04l-0.04,23.19l17.4,23.19l24.02-0.11l16.54-54.87L393.62,107.01z"/>
		<path class="st2" d="M703.88,107.01l-14,14c0,0,16.23,11.44,13.54,22.98l-5.84,23.37l-14.5-20.3v-31.89l-11.6-8.7l-20.33,10.16
			v0.59c3.43-0.48,8.73,0.68,8.73,12.44h0.04l-0.03,14.5l-0.05,0c0,0.02,0.02,0.03,0.05,0.04l-0.02,8.66l4.87,6.49l-2,8.01
			l-14.5-20.3v-31.89l-11.6-8.7l-20.3,10.15v0.6c3.44-0.47,8.7,0.72,8.7,12.44h0.04l-0.04,23.19l17.4,23.19l24.02-0.11l3.07-10.19
			l7.73,10.31l24.02-0.11l16.54-54.87L703.88,107.01z"/>
	</g>
	<g>
		<g>
			<path class="st2" d="M326.44,556.01v0.87c3-0.82,7.61-1.13,8.7,4.2v8.7l17.4-11.6v-20.3L326.44,556.01z"/>
			<path class="st2" d="M320.64,596.84v0.89c3.44-0.89,8.7-0.97,8.7,6.84c0,11.6,0,40.59,0,40.59h23.19v-69.58L320.64,596.84z"/>
		</g>
		<path class="st2" d="M845.53,633.56l-0.12-46.39l-23.19-11.6l-34.79,23.19v28.99c0,0,0,18.9,20.38,18.9
			c14.45,0,17.09-6.55,17.09-6.55s0.46,5.05,3.11,5.05c5.42,0,18.62,0,20.3,0v-2.91C845.42,642.25,845.53,633.56,845.53,633.56z
			 M822.22,630.66c0,0,0.12,5.8-5.68,5.8c-5.8,0-5.92-5.8-5.92-5.8v-46.39l11.6,5.8V630.66z"/>
		<path class="st2" d="M1274.53,598.8l0.01-11.6l-23.18-11.62l-34.81,23.16l-0.02,20.3c-0.03,26.09,23.17,27.62,23.17,27.62
			l11.6,0.01c23.19,0.02,23.22-24.67,23.22-24.67l-23.19-0.02l-0.01,8.7c0,0-0.01,5.8-5.8,5.79c-5.8-0.01-5.79-5.8-5.79-5.8
			l0.05-46.39l11.59,5.81l-0.02,24.16L1274.53,598.8z"/>
		<path class="st2" d="M772.93,598.77v-11.6l-23.19-11.6l-34.79,23.19v20.3c0,26.09,23.19,27.6,23.19,27.6h11.6
			c23.19,0,23.19-24.7,23.19-24.7h-23.19v8.7c0,0,0,5.8-5.8,5.8c-5.8,0-5.8-5.8-5.8-5.8v-46.39l11.6,5.8v24.16L772.93,598.77z"/>
		<path class="st2" d="M1280.31,547.55v0.89c3.44-0.89,8.7-0.97,8.7,6.84c0,11.6,0,89.88,0,89.88h23.19V526.29L1280.31,547.55z"/>
		<path class="st2" d="M923.7,547.55v0.89c3.44-0.89,8.7-0.97,8.7,6.84c0,11.6,0,89.88,0,89.88h23.19V526.29L923.7,547.55z"/>
		<path class="st2" d="M1425.28,548.95v0.89c3.44-0.89,8.7,1.93,8.7,9.74c0,8.28,0,25.13,0,25.13l-11.6-7.73l-23.19,11.6l0,40.59
			c0,0-0.12,18.9,20.27,18.9c14.45,0,14.53-10.2,14.53-10.2l0,0c0,2.78,0,5.68,0,8.7h23.19V527.68L1425.28,548.95z M1433.97,617.56
			c0,4.42,0,9.23,0,14.5c0,0,0,5.8-5.8,5.8s-5.8-5.8-5.8-5.8v-14.5v-4.77h0v-21.32l11.6-5.8c0,6.35,0,14.94,0,27.12
			C1433.97,614.33,1433.97,615.92,1433.97,617.56z"/>
		<path class="st2" d="M1567.34,547.55v0.89c3.44-0.89,8.7,1.93,8.7,9.74c0,8.28,0,25.13,0,25.13l-11.6-7.73l-23.19,11.6l0,40.59
			c0,0-0.12,18.9,20.27,18.9c14.45,0,14.53-10.2,14.53-10.2l0,0c0,2.78,0,5.68,0,8.7h23.19V526.29L1567.34,547.55z M1576.04,616.17
			c0,4.42,0,9.23,0,14.5c0,0,0,5.8-5.8,5.8c-5.8,0-5.8-5.8-5.8-5.8v-14.5v-4.77h0v-21.32l11.6-5.8c0,6.35,0,14.94,0,27.12
			C1576.04,612.93,1576.04,614.52,1576.04,616.17z"/>
		<path class="st2" d="M894.7,575.58l-11.6,7.73v-57.02l-31.89,21.26v0.89c3.44-0.89,8.7,1.93,8.7,9.74c0,6.43,0,86.98,0,86.98
			h23.19v-8.7l0,0c0,0,0.07,10.2,14.53,10.2c20.38,0,20.27-18.9,20.27-18.9l0-40.59L894.7,575.58z M894.7,630.66c0,0,0,5.8-5.8,5.8
			s-5.8-5.8-5.8-5.8v-46.39l11.6,5.8L894.7,630.66z"/>
		<path class="st2" d="M1112.15,614.23l23.19-15.46v-11.6l-23.19-11.6l-34.79,23.19v20.3c0,26.09,23.19,27.29,23.19,27.29h11.6
			c23.19,0,23.19-24.39,23.19-24.39h-23.19v8.7c0,0,0,5.8-5.8,5.8s-5.8-5.8-5.8-5.8v-16.42L1112.15,614.23z M1112.15,590.07v14.49
			c0,5.65-11.6,5.81-11.6,5.81v-26.09L1112.15,590.07z"/>
		<path class="st2" d="M538.09,614.23l23.19-15.46v-11.6l-23.19-11.6l-34.79,23.19v20.3c0,26.09,23.19,27.29,23.19,27.29h11.6
			c23.19,0,23.19-24.39,23.19-24.39h-23.19v8.7c0,0,0,5.8-5.8,5.8c-5.8,0-5.8-5.8-5.8-5.8v-16.42L538.09,614.23z M538.09,590.07
			v14.49c0,5.65-11.6,5.81-11.6,5.81v-26.09L538.09,590.07z"/>
		<path class="st2" d="M1001.98,575.58v57.99c-11.6,2.9-11.6-5.8-11.6-5.8v-43.49v-0.97l-23.19,15.46v34.79l11.6,11.6l23.19-8.7
			v40.59c0,0,0,5.8-5.8,5.8c-5.8,0-5.8-5.8-5.8-5.8v-17.4h-23.19v8.7c0,0,0,23.19,23.19,23.19h5.8h5.8
			c23.19,0,23.19-23.19,23.19-23.19v-81.18L1001.98,575.58z"/>
		<path class="st2" d="M1384.61,587.17l-23.19-11.59l0.07,55.09c0,0,0,5.8-5.8,5.8c-5.8,0-5.8-5.8-5.8-5.8l-0.07-47.36l-23.19,15.46
			l0.07,29c0,0-0.12,18.9,20.27,18.9c14.45,0,14.53-10.2,14.53-10.2l0,0v8.7h23.19L1384.61,587.17z"/>
		<path class="st2" d="M1182.84,600.57l-8.9-18.2l-6.25-3.2l-7.03-3.6l-16.61,16.99c0,0,6.64-3.4,9.97,3.4l14.25,29.15
			c-1.95,1.07-4.23,1.93-6.51,1.93h-15.1v18.12h15.1l8.25-16.49l8.06,16.49h26.58l-20.76-42.47c2.29-1.57,5.43-3.19,8.56-3.19h15.1
			v-18.12h-15.1L1182.84,600.57z"/>
		<path class="st2" d="M413.82,582.37l-20.16,20.16v-26.95l-31.89,21.26v0.89c3.44-0.89,8.7-0.97,8.7,6.84c0,11.6,0,40.59,0,40.59
			h23.19v-36.93c1-1.62,7.44-10.67,20.26,2.14l14-14L413.82,582.37z"/>
		<path class="st2" d="M482.86,582.37l-20.16,20.16v-26.95l-31.89,21.26v0.89c3.44-0.89,8.7-0.97,8.7,6.84c0,11.6,0,40.59,0,40.59
			h23.19v-36.93c1-1.62,7.44-10.67,20.26,2.14l14-14L482.86,582.37z"/>
		<path class="st2" d="M619.77,576.11l-14,14c0,0,16.23,11.44,13.54,22.98l-5.84,23.37l-14.5-20.3v-31.89l-11.6-8.7l-20.3,10.15v0.6
			c3.44-0.47,8.7,0.72,8.7,12.44h0.04l-0.04,23.19l17.4,23.19l24.02-0.11l16.54-54.87L619.77,576.11z"/>
		<path class="st2" d="M677.26,575.58l-34.79,23.19v24.58c0,0,0,23.19,23.19,23.19h5.8h5.8c23.19,0,23.19-23.19,23.19-23.19v-36.17
			L677.26,575.58z M677.26,632.04c0,0,0,5.8-5.8,5.8s-5.8-5.8-5.8-5.8v-47.77l11.6,5.8V632.04z"/>
		<path class="st2" d="M1506.46,614.23l23.19-15.46v-11.6l-23.19-11.6l-34.79,23.19v20.3c0,26.09,23.19,27.29,23.19,27.29h11.6
			c23.19,0,23.19-24.39,23.19-24.39h-23.19v8.7c0,0,0,5.8-5.8,5.8s-5.8-5.8-5.8-5.8v-16.42L1506.46,614.23z M1506.46,590.07v14.49
			c0,5.65-11.6,5.81-11.6,5.81v-26.09L1506.46,590.07z"/>
	</g>
	<g>
		<g>
			<path class="st2" d="M1039.67,321.45v0.87c3-0.82,7.61-1.13,8.7,4.2v8.7l17.4-11.6v-20.3L1039.67,321.45z"/>
			<path class="st2" d="M1033.87,362.27v0.89c3.44-0.89,8.7-0.97,8.7,6.84c0,11.6,0,40.59,0,40.59h23.19v-69.58L1033.87,362.27z"/>
		</g>
		<g>
			<path class="st2" d="M801.93,321.45v0.87c3-0.82,7.61-1.13,8.7,4.2v8.7l17.4-11.6v-20.3L801.93,321.45z"/>
			<path class="st2" d="M796.13,362.27v0.89c3.44-0.89,8.7-0.97,8.7,6.84c0,11.6,0,40.59,0,40.59h23.19v-69.58L796.13,362.27z"/>
		</g>
		<path class="st2" d="M1176.06,399l-0.12-46.39l-23.19-11.6l-34.79,23.19v28.99c0,0,0,18.9,20.38,18.9
			c14.45,0,17.09-6.55,17.09-6.55s0.46,5.05,3.11,5.05c5.42,0,18.62,0,20.3,0v-2.91C1175.94,407.69,1176.06,399,1176.06,399z
			 M1152.74,396.1c0,0,0.12,5.8-5.68,5.8c-5.8,0-5.92-5.8-5.92-5.8v-46.39l11.6,5.8V396.1z"/>
		<path class="st2" d="M1544.27,399l-0.12-46.39l-23.19-11.6l-34.79,23.19v28.99c0,0,0,18.9,20.38,18.9
			c14.45,0,17.09-6.55,17.09-6.55s0.46,5.05,3.11,5.05c5.42,0,18.62,0,20.3,0v-2.91C1544.15,407.69,1544.27,399,1544.27,399z
			 M1520.95,396.1c0,0,0.12,5.8-5.68,5.8s-5.92-5.8-5.92-5.8v-46.39l11.6,5.8V396.1z"/>
		<path class="st2" d="M900.5,364.21v-11.6l-23.19-11.6l-34.79,23.19v20.3c0,26.09,23.19,27.6,23.19,27.6h11.6
			c23.19,0,23.19-24.7,23.19-24.7h-23.19v8.7c0,0,0,5.8-5.8,5.8c-5.8,0-5.8-5.8-5.8-5.8v-46.39l11.6,5.8v24.16L900.5,364.21z"/>
		<path class="st2" d="M1184.64,312.98v0.89c3.44-0.89,8.7-0.97,8.7,6.84c0,11.6,0,89.88,0,89.88h23.19V291.72L1184.64,312.98z"/>
		<path class="st2" d="M1642.72,341.01l-25.32,9.47l-9.47-9.47l-23.19,8.7l-11.6-8.7l-20.3,10.15v0.6c3.44-0.47,8.7,0.72,8.7,12.44
			v46.39h23.19v-57.99c11.6-2.9,11.6,5.8,11.6,5.8v52.19h23.19v-57.99c11.6-2.9,11.6,5.8,11.6,5.8v52.19h23.19v-57.99
			L1642.72,341.01z"/>
		<path class="st2" d="M770.03,341.01l-20.3,12.92v-62.2l-31.89,21.26v0.89c3.44-0.89,8.7-0.97,8.7,6.84c0,11.6,0,89.88,0,89.88
			h23.19v-51.83c5.8-1.81,11.6-1.81,11.6,5.44v46.39h23.19v-46.39h5.8L770.03,341.01z"/>
		<path class="st2" d="M958.49,341.01l-20.3,12.92v-62.2l-31.89,21.26v0.89c3.44-0.89,8.7-0.97,8.7,6.84c0,11.6,0,89.88,0,89.88
			h23.19v-51.83c5.8-1.81,11.6-1.81,11.6,5.44v46.39h23.19v-46.39h5.8L958.49,341.01z"/>
		<path class="st2" d="M700.98,341.55l-14,14c0,0,16.23,11.44,13.54,22.98l-5.84,23.37l-14.5-20.3v-31.89l-11.6-8.7l-20.33,10.16
			v0.59c3.43-0.48,8.73,0.68,8.73,12.44h0.04l-0.03,14.5l-0.05,0c0,0.02,0.02,0.03,0.05,0.04l-0.02,8.66l4.87,6.49l-2,8.01
			l-14.5-20.3v-31.89l-11.6-8.7l-20.3,10.15v0.6c3.44-0.47,8.7,0.72,8.7,12.44h0.04l-0.04,23.19l17.4,23.19l24.02-0.11l3.07-10.19
			l7.73,10.31l24.02-0.11l16.54-54.87L700.98,341.55z"/>
		<path class="st2" d="M1352.79,341.01l-23.19,8.7l-11.6-8.7l-20.3,10.15v0.6c3.44-0.47,8.7,0.72,8.7,12.44v46.39h23.19v-57.99
			c11.6-2.9,11.6,5.8,11.6,5.8v52.19h23.19v-57.99L1352.79,341.01z"/>
		<path class="st2" d="M1410.78,379.67l23.19-15.46v-11.6l-23.19-11.6l-34.79,23.19v20.3c0,26.09,23.19,27.29,23.19,27.29h11.6
			c23.19,0,23.19-24.39,23.19-24.39h-23.19v8.7c0,0,0,5.8-5.8,5.8c-5.8,0-5.8-5.8-5.8-5.8v-16.42L1410.78,379.67z M1410.78,355.51
			v14.49c0,5.65-11.6,5.81-11.6,5.81v-26.09L1410.78,355.51z"/>
		<path class="st2" d="M1265.82,341.01l-34.79,23.19v24.58c0,0,0,23.19,23.19,23.19h5.8h5.8c23.19,0,23.19-23.19,23.19-23.19v-36.17
			L1265.82,341.01z M1265.82,397.48c0,0,0,5.8-5.8,5.8s-5.8-5.8-5.8-5.8v-47.77l11.6,5.8V397.48z"/>
		<path class="st2" d="M297.45,361.17v-57.85l11.6,5.8v20.3l11.6,8.7l20.3-10.15v-0.6c-3.44,0.47-8.7-0.72-8.7-12.44v-8.7
			l-23.19-11.6l-43.49,28.99v0.89c3.44-0.89,8.7-0.97,8.7,6.84c0,1.77,0,79.25,0,79.25h23.19v-43.73c1-1.62,7.44-10.67,20.26,2.14
			l14-14l-14.1-14L297.45,361.17z"/>
		<path class="st2" d="M558.39,341.01l-25.32,9.47l-9.47-9.47l-23.19,8.7l-11.6-8.7l-20.3,10.15v0.6c3.44-0.47,8.7,0.72,8.7,12.44
			v46.39h23.19v-57.99c11.6-2.9,11.6,5.8,11.6,5.8v52.19h23.19v-57.99c11.6-2.9,11.6,5.8,11.6,5.8v52.19h23.19v-57.99L558.39,341.01
			z"/>
		<path class="st2" d="M384.82,347.8l-20.16,20.16v-26.95l-31.89,21.26v0.89c3.44-0.89,8.7-0.97,8.7,6.84c0,11.6,0,40.59,0,40.59
			h23.19v-36.93c1-1.62,7.44-10.67,20.26,2.14l14-14L384.82,347.8z"/>
		<path class="st2" d="M439.51,341.01l-34.79,23.19v24.58c0,0,0,23.19,23.19,23.19h5.8h5.8c23.19,0,23.19-23.19,23.19-23.19v-36.17
			L439.51,341.01z M439.51,397.48c0,0,0,5.8-5.8,5.8s-5.8-5.8-5.8-5.8v-47.77l11.6,5.8V397.48z"/>
	</g>
</g>
</svg>
