<?xml version="1.0" encoding="utf-8"?>
<!-- Generator: Adobe Illustrator 25.2.3, SVG Export Plug-In . SVG Version: 6.00 Build 0)  -->
<svg version="1.1" id="Layer_1" xmlns="http://www.w3.org/2000/svg" xmlns:xlink="http://www.w3.org/1999/xlink" x="0px" y="0px"
	 viewBox="0 0 1920 231.02" style="enable-background:new 0 0 1920 231.02;" xml:space="preserve">
<style type="text/css">
	.st0{opacity:0;}
	.st1{fill:none;stroke:#FF3000;stroke-miterlimit:10;}
	.st2{fill:#FFFFFF;}
</style>
<g>
	<path d="M1035.9-2011.21l-23.19,8.7l-11.6-8.7l-20.3,10.15v0.6c3.44-0.47,8.7,0.72,8.7,12.44v46.39h23.19v-57.99
		c11.6-2.9,11.6,5.8,11.6,5.8v52.19h23.19v-57.99L1035.9-2011.21z"/>
	<path d="M812.65-2011.21l-23.19,8.7l-11.6-8.7l-20.3,10.15v0.6c3.44-0.47,8.7,0.72,8.7,12.44v46.39h23.19v-57.99
		c11.6-2.9,11.6,5.8,11.6,5.8v52.19h23.19v-57.99L812.65-2011.21z"/>
	<path d="M873.54-2011.21l-34.79,23.19v34.79l11.6,11.6l23.19-8.7v40.59c0,0,0,5.8-5.8,5.8c-5.8,0-5.8-5.8-5.8-5.8v-17.4h-23.19v8.7
		c0,0,0,23.19,23.19,23.19h11.6c23.19,0,23.19-23.19,23.19-23.19v-46.39v-34.79L873.54-2011.21z M873.54-1953.23
		c-11.6,2.9-11.6-5.8-11.6-5.8v-43.49l11.6,5.8V-1953.23z"/>
	<g>
		<path d="M946.02-2030.78v0.87c3-0.82,7.61-1.13,8.7,4.2v8.7l17.4-11.6v-20.3L946.02-2030.78z"/>
		<path d="M940.22-1989.95v0.89c3.44-0.89,8.7-0.97,8.7,6.84c0,11.6,0,40.59,0,40.59h23.19v-69.58L940.22-1989.95z"/>
	</g>
	<g>
		<path d="M722.78-2030.78v0.87c3-0.82,7.61-1.13,8.7,4.2v8.7l17.4-11.6v-20.3L722.78-2030.78z"/>
		<path d="M716.98-1989.95v0.89c3.44-0.89,8.7-0.97,8.7,6.84c0,11.6,0,40.59,0,40.59h23.19v-69.58L716.98-1989.95z"/>
	</g>
	<path d="M589.53-1953.23l-0.12-46.39l-23.19-11.6l-34.79,23.19v28.99c0,0,0,18.9,20.38,18.9c14.45,0,17.09-6.55,17.09-6.55
		s0.46,5.05,3.11,5.05c5.42,0,18.62,0,20.3,0v-2.91C589.41-1944.54,589.53-1953.23,589.53-1953.23z M566.21-1956.13
		c0,0,0.12,5.8-5.68,5.8s-5.92-5.8-5.92-5.8v-46.39l11.6,5.8V-1956.13z"/>
	<path d="M1186.66-2011.21l-20.3,12.92v-62.2l-31.89,21.26v0.89c3.44-0.89,8.7-0.97,8.7,6.84c0,11.6,0,89.88,0,89.88h23.19v-51.83
		c5.8-1.81,11.6-1.81,11.6,5.44v46.39h23.19v-46.39h5.8L1186.66-2011.21z"/>
	<path d="M711.18-1990.92l-17.4-20.3l-23.19,17.37v-55.06l-31.89,18.36v0.59c3.43-0.91,8.79-1.07,8.79,6.82
		c0,11.6-0.1,81.5-0.1,81.5h23.19v-27.34c11.59,2.15,11.6,15.75,11.6,15.75v11.6l23.19-0.14c0-28.94-23.19-28.85-23.19-28.85h-11.31
		l34.5-20.3H711.18z M670.59-1972.1v-18.94c3.75-1.3,9.45-2.13,11.6,3.03C684.49-1982.48,678.12-1977.64,670.59-1972.1z"/>
	<path d="M598.11-2039.24v0.89c3.44-0.89,8.7-0.97,8.7,6.84c0,11.6,0,89.88,0,89.88H630v-118.87L598.11-2039.24z"/>
	<path d="M1250.45-1972.56l23.19-15.46v-11.6l-23.19-11.6l-34.79,23.19v20.3c0,26.09,23.19,27.29,23.19,27.29h11.6
		c23.19,0,23.19-24.39,23.19-24.39h-23.19v8.7c0,0,0,5.8-5.8,5.8s-5.8-5.8-5.8-5.8v-16.42L1250.45-1972.56z M1250.45-1996.72v14.49
		c0,5.65-11.6,5.81-11.6,5.81v-26.09L1250.45-1996.72z"/>
	<path d="M1363.84-1949.63c-1.8,3.31-6.1,5.43-9.52,6.65l27.53-47.44c3.79-6.55,10.18-2.69,10.18-2.69l-15.39-18.11l-13.73,5.85
		c-11.63,0.23-22.76-5.83-22.76-5.83l-14.33,26.36l14.7,8l11.2-20.58c1.9-3.5,6.78-5.53,10.42-6.61l-36.2,62.4h52.59l11.2-20.58
		l-14.7-8L1363.84-1949.63z"/>
	<path d="M1122.88-2011.21v-37.69l-26.09,18.13v0.87c3-0.82,7.61-1.13,8.7,4.2v5.8c0,11.86-17.4,11.86-17.4,11.86v2.64h11.72v63.78
		h23.5c0.03-5.4,0.05-49.59,0.05-55.09c0-11.86,11.6-11.6,11.6-11.6v-2.9H1122.88z"/>
	<path d="M511.66-2010.68l-14,14c0,0,16.23,11.44,13.54,22.98l-5.84,23.37l-14.5-20.3v-31.89l-11.6-8.7l-20.33,10.16v0.59
		c3.43-0.48,8.73,0.68,8.73,12.44h0.04l-0.03,14.5l-0.05,0c0,0.02,0.02,0.03,0.05,0.04l-0.02,8.66l4.87,6.49l-2,8.01l-14.5-20.3
		v-31.89l-11.6-8.7l-20.3,10.15v0.6c3.44-0.47,8.7,0.72,8.7,12.44h0.04l-0.04,23.19l17.4,23.19l24.02-0.11l3.07-10.19l7.73,10.31
		l24.02-0.11l16.54-54.87L511.66-2010.68z"/>
	<path d="M1502.69-2011.21l-34.79,23.19v24.58c0,0,0,23.19,23.19,23.19h5.8h5.8c23.19,0,23.19-23.19,23.19-23.19v-36.17
		L1502.69-2011.21z M1502.69-1954.75c0,0,0,5.8-5.8,5.8s-5.8-5.8-5.8-5.8v-47.77l11.6,5.8V-1954.75z"/>
	<path d="M1433.11-2011.21l-34.79,23.19v24.58c0,0,0,23.19,23.19,23.19h5.8h5.8c23.19,0,23.19-23.19,23.19-23.19v-36.17
		L1433.11-2011.21z M1433.11-1954.75c0,0,0,5.8-5.8,5.8s-5.8-5.8-5.8-5.8v-47.77l11.6,5.8V-1954.75z"/>
</g>
<g>
	<path d="M441.31-1542.02l-23.19,8.7l-11.6-8.7l-20.3,10.15v0.6c3.44-0.47,8.7,0.72,8.7,12.44v46.39h23.19v-57.99
		c11.6-2.9,11.6,5.8,11.6,5.8v52.19h23.19v-57.99L441.31-1542.02z"/>
	<path d="M809.52-1542.02l-23.19,8.7l-11.6-8.7l-20.3,10.15v0.6c3.44-0.47,8.7,0.72,8.7,12.44v46.39h23.19v-57.99
		c11.6-2.9,11.6,5.8,11.6,5.8v52.19h23.19v-57.99L809.52-1542.02z"/>
	<path d="M377.64-1484.03l-0.12-46.39l-23.19-11.6l-34.79,23.19v28.99c0,0,0,18.9,20.38,18.9c14.45,0,17.09-6.55,17.09-6.55
		s0.46,5.05,3.11,5.05c5.42,0,18.62,0,20.3,0v-2.91C377.52-1475.34,377.64-1484.03,377.64-1484.03z M354.33-1486.93
		c0,0,0.12,5.8-5.68,5.8s-5.92-5.8-5.92-5.8v-46.39l11.6,5.8V-1486.93z"/>
	<path d="M960.76-1542.02l-20.3,12.92v-62.2l-31.89,21.26v0.89c3.44-0.89,8.7-0.97,8.7,6.84c0,11.6,0,89.88,0,89.88h23.19v-51.83
		c5.8-1.81,11.6-1.81,11.6,5.44v46.39h23.19v-46.39h5.8L960.76-1542.02z"/>
	<path d="M493.49-1570.04v0.89c3.44-0.89,8.7,1.93,8.7,9.74c0,8.28,0,25.13,0,25.13l-11.6-7.73l-23.19,11.6l0,40.59
		c0,0-0.12,18.9,20.27,18.9c14.45,0,14.52-10.2,14.52-10.2l0,0c0,2.78,0,5.68,0,8.7h23.19v-118.87L493.49-1570.04z M502.19-1501.43
		c0,4.42,0,9.23,0,14.5c0,0,0,5.8-5.8,5.8c-5.8,0-5.8-5.8-5.8-5.8v-14.5v-4.77h0v-21.32l11.6-5.8c0,6.35,0,14.94,0,27.12
		C502.19-1504.66,502.19-1503.07,502.19-1501.43z"/>
	<path d="M1021.64-1503.36l23.19-15.46v-11.6l-23.19-11.6l-34.79,23.19v20.3c0,26.09,23.19,27.29,23.19,27.29h11.6
		c23.19,0,23.19-24.39,23.19-24.39h-23.19v8.7c0,0,0,5.8-5.8,5.8s-5.8-5.8-5.8-5.8v-16.42L1021.64-1503.36z M1021.64-1527.52v14.49
		c0,5.65-11.6,5.81-11.6,5.81v-26.09L1021.64-1527.52z"/>
	<path d="M1155.01-1503.36l23.19-15.46v-11.6l-23.19-11.6l-34.79,23.19v20.3c0,26.09,23.19,27.29,23.19,27.29h11.6
		c23.19,0,23.19-24.39,23.19-24.39h-23.19v8.7c0,0,0,5.8-5.8,5.8c-5.8,0-5.8-5.8-5.8-5.8v-16.42L1155.01-1503.36z M1155.01-1527.52
		v14.49c0,5.65-11.6,5.81-11.6,5.81v-26.09L1155.01-1527.52z"/>
	<path d="M1102.68-1535.22l-20.16,20.16v-26.95l-31.89,21.26v0.89c3.44-0.89,8.7-0.97,8.7,6.84c0,11.6,0,40.59,0,40.59h23.19v-36.93
		c1-1.62,7.44-10.67,20.26,2.14l14-14L1102.68-1535.22z"/>
	<path d="M1363.76-1503.36l23.19-15.46v-11.6l-23.19-11.6l-34.79,23.19v20.3c0,26.09,23.19,27.29,23.19,27.29h11.6
		c23.19,0,23.19-24.39,23.19-24.39h-23.19v8.7c0,0,0,5.8-5.8,5.8s-5.8-5.8-5.8-5.8v-16.42L1363.76-1503.36z M1363.76-1527.52v14.49
		c0,5.65-11.6,5.81-11.6,5.81v-26.09L1363.76-1527.52z"/>
	<path d="M1497.13-1503.36l23.19-15.46v-11.6l-23.19-11.6l-34.79,23.19v20.3c0,26.09,23.19,27.29,23.19,27.29h11.6
		c23.19,0,23.19-24.39,23.19-24.39h-23.19v8.7c0,0,0,5.8-5.8,5.8c-5.8,0-5.8-5.8-5.8-5.8v-16.42L1497.13-1503.36z M1497.13-1527.52
		v14.49c0,5.65-11.6,5.81-11.6,5.81v-26.09L1497.13-1527.52z"/>
	<path d="M1444.8-1535.22l-20.16,20.16v-26.95l-31.89,21.26v0.89c3.44-0.89,8.7-0.97,8.7,6.84c0,11.6,0,40.59,0,40.59h23.19v-36.93
		c1-1.62,7.44-10.67,20.26,2.14l14-14L1444.8-1535.22z"/>
	<path d="M896.5-1542.02v-37.69l-26.09,18.13v0.87c3-0.82,7.61-1.13,8.7,4.2v5.8c0,11.86-17.4,11.86-17.4,11.86v2.64h11.72v63.78
		h23.5c0.03-5.4,0.05-49.59,0.05-55.09c0-11.86,11.6-11.6,11.6-11.6v-2.9H896.5z"/>
	<path d="M664.55-1542.02l-20.3,12.92v-62.2l-31.89,21.26v0.89c3.44-0.89,8.7-0.97,8.7,6.84c0,11.6,0,89.88,0,89.88h23.19v-51.83
		c5.8-1.81,11.6-1.81,11.6,5.44v46.39h23.19v-46.39h5.8L664.55-1542.02z"/>
	<path d="M725.44-1503.36l23.19-15.46v-11.6l-23.19-11.6l-34.79,23.19v20.3c0,26.09,23.19,27.29,23.19,27.29h11.6
		c23.19,0,23.19-24.39,23.19-24.39h-23.19v8.7c0,0,0,5.8-5.8,5.8c-5.8,0-5.8-5.8-5.8-5.8v-16.42L725.44-1503.36z M725.44-1527.52
		v14.49c0,5.65-11.6,5.81-11.6,5.81v-26.09L725.44-1527.52z"/>
	<path d="M600.3-1542.02v-37.69l-26.09,18.13v0.87c3-0.82,7.61-1.13,8.7,4.2v5.8c0,11.86-17.4,11.86-17.4,11.86v2.64h11.72v63.78
		h23.5c0.03-5.4,0.05-49.59,0.05-55.09c0-11.86,11.6-11.6,11.6-11.6v-2.9H600.3z"/>
	<path d="M1309.2-1541.48l-14,14c0,0,16.23,11.44,13.54,22.98l-5.84,23.37l-14.5-20.3v-31.89l-11.6-8.7l-20.33,10.16v0.59
		c3.43-0.48,8.73,0.68,8.73,12.44h0.04l-0.03,14.5l-0.05,0c0,0.02,0.02,0.03,0.05,0.04l-0.02,8.66l4.87,6.49l-2,8.01l-14.5-20.3
		v-31.89l-11.6-8.7l-20.3,10.15v0.6c3.44-0.47,8.7,0.72,8.7,12.44h0.04l-0.04,23.19l17.4,23.19l24.02-0.11l3.07-10.19l7.73,10.31
		l24.02-0.11l16.54-54.87L1309.2-1541.48z"/>
	<path d="M1630.49-1550.71v-17.4l-23.19-11.6l-34.79,23.19v20.3h23.19v-34.79l11.6,5.8v26.09c0,0,0,8.7-5.8,8.7v8.7
		c5.8,0,5.8,8.7,5.8,8.7v26.41c0,0,0,5.8-5.8,5.8s-5.8-5.8-5.8-5.8v-23.19h-23.19v14.5c0,0,0,24.72,23.19,24.72h11.6
		c23.19,0,23.2-24.72,23.2-24.72v-14.81c0,0,0-9.23-8.78-15.95C1630.49-1532.79,1630.49-1550.71,1630.49-1550.71z"/>
</g>
<g>
	<g>
		<path d="M1070.69-2265.34v0.87c3-0.82,7.61-1.13,8.7,4.2v8.7l17.4-11.6v-20.3L1070.69-2265.34z"/>
		<path d="M1064.89-2224.52v0.89c3.44-0.89,8.7-0.97,8.7,6.84c0,11.6,0,40.59,0,40.59h23.19v-69.58L1064.89-2224.52z"/>
	</g>
	<g>
		<path d="M548.82-2265.34v0.87c3-0.82,7.61-1.13,8.7,4.2v8.7l17.4-11.6v-20.3L548.82-2265.34z"/>
		<path d="M543.02-2224.52v0.89c3.44-0.89,8.7-0.97,8.7,6.84c0,11.6,0,40.59,0,40.59h23.19v-69.58L543.02-2224.52z"/>
	</g>
	<path d="M951.82-2273.81v0.89c3.44-0.89,8.7-0.97,8.7,6.84c0,11.6,0,89.88,0,89.88h23.19v-118.87L951.82-2273.81z"/>
	<path d="M502.43-2273.81v0.89c3.44-0.89,8.7-0.97,8.7,6.84c0,11.6,0,89.88,0,89.88h23.19v-118.87L502.43-2273.81z"/>
	<path d="M661.89-2273.81v0.89c3.44-0.89,8.7-0.97,8.7,6.84c0,11.6,0,89.88,0,89.88h23.19v-118.87L661.89-2273.81z"/>
	<path d="M1024.3-2273.81v0.89c3.44-0.89,8.7,1.93,8.7,9.74c0,8.28,0,25.13,0,25.13l-11.6-7.73l-23.19,11.6l0,40.59
		c0,0-0.12,18.9,20.27,18.9c14.45,0,14.52-10.2,14.52-10.2l0,0c0,2.78,0,5.68,0,8.7h23.19v-118.87L1024.3-2273.81z M1033-2205.19
		c0,4.42,0,9.23,0,14.5c0,0,0,5.8-5.8,5.8s-5.8-5.8-5.8-5.8v-14.5v-4.77h0v-21.32l11.6-5.8c0,6.35,0,14.94,0,27.12
		C1033-2208.43,1033-2206.84,1033-2205.19z"/>
	<path d="M1328.73-2245.78l-11.6,7.73v-57.02l-31.89,21.26v0.89c3.44-0.89,8.7,1.93,8.7,9.74c0,6.43,0,86.98,0,86.98h23.19v-8.7l0,0
		c0,0,0.07,10.2,14.53,10.2c20.38,0,20.27-18.9,20.27-18.9l0-40.59L1328.73-2245.78z M1328.73-2190.69c0,0,0,5.8-5.8,5.8
		s-5.8-5.8-5.8-5.8v-46.39l11.6,5.8L1328.73-2190.69z"/>
	<path d="M1146.07-2207.12l23.19-15.46v-11.6l-23.19-11.6l-34.79,23.19v20.3c0,26.09,23.19,27.29,23.19,27.29h11.6
		c23.19,0,23.19-24.39,23.19-24.39h-23.19v8.7c0,0,0,5.8-5.8,5.8s-5.8-5.8-5.8-5.8v-16.42L1146.07-2207.12z M1146.07-2231.28v14.49
		c0,5.65-11.6,5.81-11.6,5.81v-26.09L1146.07-2231.28z"/>
	<path d="M743.07-2207.12l23.19-15.46v-11.6l-23.19-11.6l-34.79,23.19v20.3c0,26.09,23.19,27.29,23.19,27.29h11.6
		c23.19,0,23.19-24.39,23.19-24.39h-23.19v8.7c0,0,0,5.8-5.8,5.8c-5.8,0-5.8-5.8-5.8-5.8v-16.42L743.07-2207.12z M743.07-2231.28
		v14.49c0,5.65-11.6,5.81-11.6,5.81v-26.09L743.07-2231.28z"/>
	<path d="M1473.7-2245.78v57.99c-11.6,2.9-11.6-5.8-11.6-5.8v-43.49v-0.97l-23.19,15.46v34.79l11.6,11.6l23.19-8.7v40.59
		c0,0,0,5.8-5.8,5.8s-5.8-5.8-5.8-5.8v-17.4h-23.19v8.7c0,0,0,23.19,23.19,23.19h5.8h5.8c23.19,0,23.19-23.19,23.19-23.19v-81.18
		L1473.7-2245.78z"/>
	<path d="M1569.37-2228.38v-5.8l-23.19-11.6l-34.79,23.19v2.9c0,14.5,14.5,14.5,14.5,14.5h14.5c5.8,0,5.8,5.8,5.8,5.8v8.7
		c0,0,0,5.8-5.8,5.8s-5.8-5.8-5.8-5.8l0-7.13h0v-1.56h-23.19v1.46h0c0,23.19,23.19,23.24,23.19,23.24h11.6
		c23.19,0,23.2-17.44,23.2-17.44l0-4.36c0-14.5-14.5-14.5-14.5-14.5h-14.5c-5.8,0-5.8-5.8-5.8-5.8v-20.3l11.6,2.9v18.85
		L1569.37-2228.38z"/>
	<path d="M876.44-2228.38v-5.8l-23.19-11.6l-34.79,23.19v2.9c0,14.5,14.5,14.5,14.5,14.5h14.5c5.8,0,5.8,5.8,5.8,5.8v8.7
		c0,0,0,5.8-5.8,5.8s-5.8-5.8-5.8-5.8l0-7.13h0v-1.56h-23.19v1.46h0c0,23.19,23.19,23.24,23.19,23.24h11.6
		c23.19,0,23.2-17.44,23.2-17.44l0-4.36c0-14.5-14.5-14.5-14.5-14.5h-14.5c-5.8,0-5.8-5.8-5.8-5.8v-20.3l11.6,2.9v18.85
		L876.44-2228.38z"/>
	<path d="M1227.12-2238.99l-20.16,20.16v-26.95l-31.89,21.26v0.89c3.44-0.89,8.7-0.97,8.7,6.84c0,11.6,0,40.59,0,40.59h23.19v-36.93
		c1-1.62,7.44-10.67,20.26,2.14l14-14L1227.12-2238.99z"/>
	<path d="M652.72-2245.78v-37.69l-26.09,18.13v0.87c3-0.82,7.61-1.13,8.7,4.2v2.9c0,11.11-15.26,11.58-17.19,11.6h-3.1v-37.69
		l-26.09,18.13v0.87c3-0.82,7.61-1.13,8.7,4.2v5.8c0,11.86-17.4,11.6-17.4,11.6v2.9h11.72v63.78h23.5
		c0.03-5.4,0.05-49.59,0.05-55.09c0-11.11,10.18-11.58,11.46-11.6h2.68v66.68h23.5c0.03-5.4,0.05-49.59,0.05-55.09
		c0-11.86,11.6-11.6,11.6-11.6v-2.9H652.72z"/>
	<path d="M1401.21-2245.78l-34.79,23.19v24.58c0,0,0,23.19,23.19,23.19h5.8h5.8c23.19,0,23.19-23.19,23.19-23.19v-36.17
		L1401.21-2245.78z M1401.21-2189.31c0,0,0,5.8-5.8,5.8s-5.8-5.8-5.8-5.8v-47.77l11.6,5.8V-2189.31z"/>
	<path d="M922.83-2247.16l-34.79,23.19v24.58c0,0,0,23.19,23.19,23.19h5.8h5.8c23.19,0,23.19-23.19,23.19-23.19v-36.17
		L922.83-2247.16z M922.83-2190.69c0,0,0,5.8-5.8,5.8c-5.8,0-5.8-5.8-5.8-5.8v-47.77l11.6,5.8V-2190.69z"/>
	<path d="M447.34-2213.89v-61.2l-11.6-8.7l-20.3,10.15v1.43c3.44,0.6,8.7,3.74,8.7,17.41v46.7l-11.6-5.8v-17.71v-17.4l-11.6-8.7
		l-20.3,10.15v1.23c3.44,0.18,8.7,2.05,8.7,11.82v23.51l23.19,11.6l11.6-7.73v30.93h23.19v-23.19l11.6-7.73v-0.97L447.34-2213.89z"
		/>
</g>
<g>
	<path d="M1559.22-1776.76l-23.19,8.7l-11.6-8.7l-20.3,10.15v0.6c3.44-0.47,8.7,0.72,8.7,12.44v46.39h23.19v-57.99
		c11.6-2.9,11.6,5.8,11.6,5.8v52.19h23.19v-57.99L1559.22-1776.76z"/>
	<path d="M1147.52-1776.76l-34.79,23.19v34.79l11.6,11.6l23.19-8.7v40.59c0,0,0,5.8-5.8,5.8s-5.8-5.8-5.8-5.8v-17.4h-23.19v8.7
		c0,0,0,23.19,23.19,23.19h11.6c23.19,0,23.19-23.19,23.19-23.19v-46.39v-34.79L1147.52-1776.76z M1147.52-1718.78
		c-11.6,2.9-11.6-5.8-11.6-5.8v-43.49l11.6,5.8V-1718.78z"/>
	<path d="M1220.01-1776.76l-34.79,23.19v34.79l11.6,11.6l23.19-8.7v40.59c0,0,0,5.8-5.8,5.8c-5.8,0-5.8-5.8-5.8-5.8v-17.4h-23.19
		v8.7c0,0,0,23.19,23.19,23.19h11.6c23.19,0,23.19-23.19,23.19-23.19v-46.39v-34.79L1220.01-1776.76z M1220.01-1718.78
		c-11.6,2.9-11.6-5.8-11.6-5.8v-43.49l11.6,5.8V-1718.78z"/>
	<g>
		<path d="M489.38-1796.32v0.87c3-0.82,7.61-1.13,8.7,4.2v8.7l17.4-11.6v-20.3L489.38-1796.32z"/>
		<path d="M483.58-1755.5v0.89c3.44-0.89,8.7-0.97,8.7,6.84c0,11.6,0,40.59,0,40.59h23.19v-69.58L483.58-1755.5z"/>
	</g>
	<path d="M840.85-1718.78l-0.12-46.39l-23.19-11.6l-34.79,23.19v28.99c0,0,0,18.9,20.38,18.9c14.45,0,17.09-6.55,17.09-6.55
		s0.46,5.05,3.11,5.05c5.42,0,18.62,0,20.3,0v-2.91C840.73-1710.09,840.85-1718.78,840.85-1718.78z M817.54-1721.67
		c0,0,0.12,5.8-5.68,5.8c-5.8,0-5.92-5.8-5.92-5.8v-46.39l11.6,5.8V-1721.67z"/>
	<path d="M364.83-1718.78l-0.12-46.39l-23.19-11.6l-34.79,23.19v28.99c0,0,0,18.9,20.38,18.9c14.45,0,17.09-6.55,17.09-6.55
		s0.46,5.05,3.11,5.05c5.42,0,18.62,0,20.3,0v-2.91C364.71-1710.09,364.83-1718.78,364.83-1718.78z M341.52-1721.67
		c0,0,0.12,5.8-5.68,5.8s-5.92-5.8-5.92-5.8v-46.39l11.6,5.8V-1721.67z"/>
	<path d="M1011.26-1776.76l-20.3,12.92v-62.2l-31.89,21.26v0.89c3.44-0.89,8.7-0.97,8.7,6.84c0,11.6,0,89.88,0,89.88h23.19V-1759
		c5.8-1.81,11.6-1.81,11.6,5.44v46.39h23.19v-46.39h5.8L1011.26-1776.76z"/>
	<path d="M1353.37-1804.79v0.89c3.44-0.89,8.7,1.93,8.7,9.74c0,8.28,0,25.13,0,25.13l-11.6-7.73l-23.19,11.6l0,40.59
		c0,0-0.12,18.9,20.27,18.9c14.45,0,14.53-10.2,14.53-10.2l0,0c0,2.78,0,5.68,0,8.7h23.19v-118.87L1353.37-1804.79z
		 M1362.07-1736.17c0,4.42,0,9.23,0,14.5c0,0,0,5.8-5.8,5.8s-5.8-5.8-5.8-5.8v-14.5v-4.77h0v-21.32l11.6-5.8c0,6.35,0,14.94,0,27.12
		C1362.07-1739.41,1362.07-1737.82,1362.07-1736.17z"/>
	<path d="M451.69-1776.76l-11.6,7.73v-57.02l-31.89,21.26v0.89c3.44-0.89,8.7,1.93,8.7,9.74c0,6.43,0,86.98,0,86.98h23.19v-8.7l0,0
		c0,0,0.07,10.2,14.52,10.2c20.38,0,20.27-18.9,20.27-18.9l0-40.59L451.69-1776.76z M451.69-1721.67c0,0,0,5.8-5.8,5.8
		s-5.8-5.8-5.8-5.8v-46.39l11.6,5.8L451.69-1721.67z"/>
	<path d="M747.42-1738.1l23.19-15.46v-11.6l-23.19-11.6l-34.79,23.19v20.3c0,26.09,23.19,27.29,23.19,27.29h11.6
		c23.19,0,23.19-24.39,23.19-24.39h-23.19v8.7c0,0,0,5.8-5.8,5.8c-5.8,0-5.8-5.8-5.8-5.8v-16.42L747.42-1738.1z M747.42-1762.26
		v14.49c0,5.65-11.6,5.81-11.6,5.81v-26.09L747.42-1762.26z"/>
	<path d="M1620.11-1738.1l23.19-15.46v-11.6l-23.19-11.6l-34.79,23.19v20.3c0,26.09,23.19,27.29,23.19,27.29h11.6
		c23.19,0,23.19-24.39,23.19-24.39h-23.19v8.7c0,0,0,5.8-5.8,5.8s-5.8-5.8-5.8-5.8v-16.42L1620.11-1738.1z M1620.11-1762.26v14.49
		c0,5.65-11.6,5.81-11.6,5.81v-26.09L1620.11-1762.26z"/>
	<path d="M1292.49-1738.1l23.19-15.46v-11.6l-23.19-11.6l-34.79,23.19v20.3c0,26.09,23.19,27.29,23.19,27.29h11.6
		c23.19,0,23.19-24.39,23.19-24.39h-23.19v8.7c0,0,0,5.8-5.8,5.8s-5.8-5.8-5.8-5.8v-16.42L1292.49-1738.1z M1292.49-1762.26v14.49
		c0,5.65-11.6,5.81-11.6,5.81v-26.09L1292.49-1762.26z"/>
	<path d="M1098.24-1765.17l-23.19-11.59l0.07,55.09c0,0,0,5.8-5.8,5.8c-5.8,0-5.8-5.8-5.8-5.8l-0.07-47.36l-23.19,15.46l0.07,29
		c0,0-0.12,18.9,20.27,18.9c14.45,0,14.53-10.2,14.53-10.2l0,0v8.7h23.19L1098.24-1765.17z"/>
	<path d="M901.48-1769.97l-20.16,20.16v-26.95l-31.89,21.26v0.89c3.44-0.89,8.7-0.97,8.7,6.84c0,11.6,0,40.59,0,40.59h23.19v-36.93
		c1-1.62,7.44-10.67,20.26,2.14l14-14L901.48-1769.97z"/>
	<path d="M1472.25-1776.76l-34.79,23.19v24.58c0,0,0,23.19,23.19,23.19h5.8h5.8c23.19,0,23.19-23.19,23.19-23.19v-36.17
		L1472.25-1776.76z M1472.25-1720.29c0,0,0,5.8-5.8,5.8c-5.8,0-5.8-5.8-5.8-5.8v-47.77l11.6,5.8V-1720.29z"/>
	<path d="M564.76-1776.76l-34.79,23.19v34.79l11.6,11.6l23.19-8.7v40.59c0,0,0,5.8-5.8,5.8s-5.8-5.8-5.8-5.8v-17.4h-23.19v8.7
		c0,0,0,23.19,23.19,23.19h11.6c23.19,0,23.19-23.19,23.19-23.19v-46.39v-34.79L564.76-1776.76z M564.76-1718.78
		c-11.6,2.9-11.6-5.8-11.6-5.8v-43.49l11.6,5.8V-1718.78z"/>
	<path d="M674.94-1776.76l-11.6,7.73v-57.02l-31.89,21.26v0.89c3.44-0.89,8.7,1.93,8.7,9.74c0,6.43,0,86.98,0,86.98h23.19v-8.7l0,0
		c0,0,0.07,10.2,14.52,10.2c20.38,0,20.27-18.9,20.27-18.9l0-40.59L674.94-1776.76z M674.94-1721.67c0,0,0,5.8-5.8,5.8
		s-5.8-5.8-5.8-5.8v-46.39l11.6,5.8L674.94-1721.67z"/>
</g>
<g class="st0">
	<g>
		<line class="st1" x1="1.11" y1="-83.52" x2="1918.76" y2="-83.52"/>
		<line class="st1" x1="1.11" y1="-37.13" x2="1918.76" y2="-37.13"/>
		<line class="st1" x1="1.11" y1="-153.1" x2="1918.76" y2="-153.1"/>
		<line class="st1" x1="1.11" y1="-202.39" x2="1918.76" y2="-202.39"/>
		<line class="st1" x1="1.11" y1="-190.79" x2="1918.76" y2="-190.79"/>
	</g>
	<rect x="1995.18" y="-37.13" class="st1" width="47.91" height="67.16"/>
	<g>
		<line class="st1" x1="1.11" y1="151.05" x2="1918.76" y2="151.05"/>
		<line class="st1" x1="1.11" y1="197.44" x2="1918.76" y2="197.44"/>
		<line class="st1" x1="1.11" y1="81.46" x2="1918.76" y2="81.46"/>
		<line class="st1" x1="1.11" y1="32.18" x2="1918.76" y2="32.18"/>
		<line class="st1" x1="1.11" y1="43.77" x2="1918.76" y2="43.77"/>
	</g>
	<rect x="1995.18" y="197.44" class="st1" width="47.91" height="67.16"/>
	<g>
		<line class="st1" x1="1.11" y1="385.61" x2="1918.76" y2="385.61"/>
		<line class="st1" x1="1.11" y1="432" x2="1918.76" y2="432"/>
		<line class="st1" x1="1.11" y1="316.03" x2="1918.76" y2="316.03"/>
		<line class="st1" x1="1.11" y1="266.74" x2="1918.76" y2="266.74"/>
		<line class="st1" x1="1.11" y1="278.34" x2="1918.76" y2="278.34"/>
	</g>
	<rect x="1995.18" y="432" class="st1" width="47.91" height="67.16"/>
</g>
<g>
	<path class="st2" d="M1708.02,83.6l-23.19,8.7l-11.6-8.7l-20.3,10.15v0.6c3.44-0.47,8.7,0.72,8.7,12.44v46.39h23.19V95.19
		c11.6-2.9,11.6,5.8,11.6,5.8v52.19h23.19V95.19L1708.02,83.6z"/>
	<path class="st2" d="M352.54,108.59l-8.9-18.2l-6.25-3.2l-7.03-3.6l-16.61,16.99c0,0,6.64-3.4,9.97,3.4l14.25,29.15
		c-1.95,1.07-4.23,1.93-6.51,1.93h-15.1v18.12h15.1l8.25-16.49l8.06,16.49h26.58l-20.76-42.47c2.29-1.57,5.43-3.19,8.56-3.19h15.1
		V89.4h-15.1L352.54,108.59z"/>
	<path class="st2" d="M258.37,100.99v-5.8l-23.19-11.6l-34.79,23.19v2.9c0,14.5,14.5,14.5,14.5,14.5h14.5c5.8,0,5.8,5.8,5.8,5.8v8.7
		c0,0,0,5.8-5.8,5.8c-5.8,0-5.8-5.8-5.8-5.8l0-7.13h0v-1.56h-23.19v1.46h0c0,23.19,23.19,23.24,23.19,23.24h11.6
		c23.19,0,23.2-17.44,23.2-17.44l0-4.36c0-14.5-14.5-14.5-14.5-14.5h-14.5c-5.8,0-5.8-5.8-5.8-5.8V92.3l11.6,2.9v18.85
		L258.37,100.99z"/>
	<path class="st2" d="M571.49,83.6l-34.79,23.19v34.79l11.6,11.6l23.19-8.7v40.59c0,0,0,5.8-5.8,5.8c-5.8,0-5.8-5.8-5.8-5.8v-17.4
		H536.7v8.7c0,0,0,23.19,23.19,23.19h11.6c23.19,0,23.19-23.19,23.19-23.19v-46.39V95.19L571.49,83.6z M571.49,141.58
		c-11.6,2.9-11.6-5.8-11.6-5.8V92.3l11.6,5.8V141.58z"/>
	<g>
		<path class="st2" d="M858.52,64.04v0.87c3-0.82,7.61-1.13,8.7,4.2v8.7l17.4-11.6v-20.3L858.52,64.04z"/>
		<path class="st2" d="M852.73,104.86v0.89c3.44-0.89,8.7-0.97,8.7,6.84c0,11.6,0,40.59,0,40.59h23.19V83.6L852.73,104.86z"/>
	</g>
	<g>
		<path class="st2" d="M496.11,64.04v0.87c3-0.82,7.61-1.13,8.7,4.2v8.7l17.4-11.6v-20.3L496.11,64.04z"/>
		<path class="st2" d="M490.31,104.86v0.89c3.44-0.89,8.7-0.97,8.7,6.84c0,11.6,0,40.59,0,40.59h23.19V83.6L490.31,104.86z"/>
	</g>
	<g>
		<path class="st2" d="M272.87,64.04v0.87c3-0.82,7.61-1.13,8.7,4.2v8.7l17.4-11.6v-20.3L272.87,64.04z"/>
		<path class="st2" d="M267.07,104.86v0.89c3.44-0.89,8.7-0.97,8.7,6.84c0,11.6,0,40.59,0,40.59h23.19V83.6L267.07,104.86z"/>
	</g>
	<g>
		<path class="st2" d="M1397.79,64.04v0.87c3-0.82,7.61-1.13,8.7,4.2v8.7l17.4-11.6v-20.3L1397.79,64.04z"/>
		<path class="st2" d="M1392,105.75c3.44-0.89,8.7-0.97,8.7,6.84c0,0.47,0,72.48,0,72.48s0,5.8-5.8,5.8c-5.8,0-5.8-5.8-5.8-5.8
			v-17.4h-23.19v8.7c0,0,0,23.19,23.19,23.19h11.6c23.19,0,23.19-23.19,23.19-23.19V83.6L1392,104.86V105.75z"/>
	</g>
	<path class="st2" d="M1644.35,141.58l-0.12-46.39l-23.19-11.6l-34.79,23.19v28.99c0,0,0,18.9,20.38,18.9
		c14.45,0,17.09-6.55,17.09-6.55s0.46,5.05,3.11,5.05c5.42,0,18.62,0,20.3,0v-2.91C1644.24,150.27,1644.35,141.58,1644.35,141.58z
		 M1621.04,138.68c0,0,0.12,5.8-5.68,5.8c-5.8,0-5.92-5.8-5.92-5.8V92.3l11.6,5.8V138.68z"/>
	<path class="st2" d="M1496.49,141.58l-0.12-46.39l-23.19-11.6l-34.79,23.19v28.99c0,0,0,18.9,20.38,18.9
		c14.45,0,17.09-6.55,17.09-6.55s0.46,5.05,3.11,5.05c5.42,0,18.62,0,20.3,0v-2.91C1496.37,150.27,1496.49,141.58,1496.49,141.58z
		 M1473.18,138.68c0,0,0.12,5.8-5.68,5.8s-5.92-5.8-5.92-5.8V92.3l11.6,5.8V138.68z"/>
	<path class="st2" d="M1075.97,103.75V45.91l11.6,5.8V72l11.6,8.7l20.3-10.15v-0.6c-3.44,0.47-8.7-0.72-8.7-12.44v-8.7l-23.19-11.6
		l-43.49,28.99v0.89c3.44-0.89,8.7-0.97,8.7,6.84c0,1.77,0,79.25,0,79.25h23.19v-43.73c1-1.62,7.44-10.67,20.26,2.14l14-14l-14.1-14
		L1075.97,103.75z"/>
	<path class="st2" d="M893.32,55.57v0.89c3.44-0.89,8.7-0.97,8.7,6.84c0,11.6,0,89.88,0,89.88h23.19V34.31L893.32,55.57z"/>
	<path class="st2" d="M1336.91,83.6l-25.32,9.47l-9.47-9.47l-23.19,8.7l-11.6-8.7l-20.3,10.15v0.6c3.44-0.47,8.7,0.72,8.7,12.44
		v46.39h23.19V95.19c11.6-2.9,11.6,5.8,11.6,5.8v52.19h23.19V95.19c11.6-2.9,11.6,5.8,11.6,5.8v52.19h23.19V95.19L1336.91,83.6z"/>
	<path class="st2" d="M670.07,55.57v0.89c3.44-0.89,8.7,1.93,8.7,9.74c0,8.28,0,25.13,0,25.13l-11.6-7.73l-23.19,11.6l0,40.59
		c0,0-0.12,18.9,20.27,18.9c14.45,0,14.53-10.2,14.53-10.2l0,0c0,2.78,0,5.68,0,8.7h23.19V34.31L670.07,55.57z M678.77,124.19
		c0,4.42,0,9.23,0,14.5c0,0,0,5.8-5.8,5.8s-5.8-5.8-5.8-5.8v-14.5v-4.77h0V98.09l11.6-5.8c0,6.35,0,14.94,0,27.12
		C678.77,120.95,678.77,122.54,678.77,124.19z"/>
	<path class="st2" d="M458.42,83.6l-11.6,7.73V34.31l-31.89,21.26v0.89c3.44-0.89,8.7,1.93,8.7,9.74c0,6.43,0,86.98,0,86.98h23.19
		v-8.7l0,0c0,0,0.07,10.2,14.52,10.2c20.38,0,20.27-18.9,20.27-18.9l0-40.59L458.42,83.6z M458.42,138.68c0,0,0,5.8-5.8,5.8
		c-5.8,0-5.8-5.8-5.8-5.8V92.29l11.6,5.8L458.42,138.68z"/>
	<path class="st2" d="M751.25,122.25l23.19-15.46v-11.6l-23.19-11.6l-34.79,23.19v20.3c0,26.09,23.19,27.29,23.19,27.29h11.6
		c23.19,0,23.19-24.39,23.19-24.39h-23.19v8.7c0,0,0,5.8-5.8,5.8c-5.8,0-5.8-5.8-5.8-5.8v-16.42L751.25,122.25z M751.25,98.09v14.49
		c0,5.65-11.6,5.81-11.6,5.81V92.3L751.25,98.09z"/>
	<path class="st2" d="M997.69,100.99v-5.8L974.5,83.6l-34.79,23.19v2.9c0,14.5,14.5,14.5,14.5,14.5h14.5c5.8,0,5.8,5.8,5.8,5.8v8.7
		c0,0,0,5.8-5.8,5.8c-5.8,0-5.8-5.8-5.8-5.8l0-7.13h0v-1.56H939.7v1.46h0c0,23.19,23.19,23.24,23.19,23.24h11.6
		c23.19,0,23.2-17.44,23.2-17.44l0-4.36c0-14.5-14.5-14.5-14.5-14.5h-14.5c-5.8,0-5.8-5.8-5.8-5.8V92.3l11.6,2.9v18.85
		L997.69,100.99z"/>
	<path class="st2" d="M1548.56,83.6l-11.6,7.73V80.7l-31.89,21.26v0.89c3.44-0.89,8.7-0.97,8.7,6.84c0,3.04,0,89.88,0,89.88h23.19
		v-46.39h11.6c23.19,0,23.19-23.19,23.19-23.19V95.19L1548.56,83.6z M1548.56,138.68c0,0,0,5.8-5.8,5.8s-5.8-5.8-5.8-5.8V92.3
		l11.6,5.8V138.68z"/>
	<path class="st2" d="M1163.35,90.39l-20.16,20.16V83.6l-31.89,21.26v0.89c3.44-0.89,8.7-0.97,8.7,6.84c0,11.6,0,40.59,0,40.59
		h23.19v-36.93c1-1.62,7.44-10.67,20.26,2.14l14-14L1163.35,90.39z"/>
	<path class="st2" d="M832.93,84.13l-14,14c0,0,16.23,11.44,13.54,22.98l-5.84,23.37l-14.5-20.3V92.3l-11.6-8.7l-20.3,10.15v0.6
		c3.44-0.47,8.7,0.72,8.7,12.44h0.04l-0.04,23.19l17.4,23.19l24.02-0.11L846.9,98.2L832.93,84.13z"/>
	<path class="st2" d="M1218.04,83.6l-34.79,23.19v24.58c0,0,0,23.19,23.19,23.19h5.8h5.8c23.19,0,23.19-23.19,23.19-23.19V95.19
		L1218.04,83.6z M1218.04,140.07c0,0,0,5.8-5.8,5.8s-5.8-5.8-5.8-5.8V92.3l11.6,5.8V140.07z"/>
</g>
<g>
	<g>
		<path class="st2" d="M271.18,296.46v0.87c3-0.82,7.61-1.13,8.7,4.2v8.7l17.4-11.6v-20.3L271.18,296.46z"/>
		<path class="st2" d="M265.38,337.28v0.89c3.44-0.89,8.7-0.97,8.7,6.84c0,11.6,0,40.59,0,40.59h23.19v-69.58L265.38,337.28z"/>
	</g>
	<path class="st2" d="M1631.54,374.01l-0.12-46.39l-23.19-11.6l-34.79,23.19v28.99c0,0,0,18.9,20.38,18.9
		c14.45,0,17.09-6.55,17.09-6.55s0.46,5.05,3.11,5.05c5.42,0,18.62,0,20.3,0v-2.91C1631.43,382.69,1631.54,374.01,1631.54,374.01z
		 M1608.23,371.11c0,0,0.12,5.8-5.68,5.8s-5.92-5.8-5.92-5.8v-46.39l11.6,5.8V371.11z"/>
	<path class="st2" d="M369.76,339.21v-11.6l-23.19-11.6l-34.79,23.19v20.3c0,26.09,23.19,27.6,23.19,27.6h11.6
		c23.19,0,23.19-24.7,23.19-24.7h-23.19v8.7c0,0,0,5.8-5.8,5.8c-5.8,0-5.8-5.8-5.8-5.8v-46.39l11.6,5.8v24.16L369.76,339.21z"/>
	<path class="st2" d="M628.27,336.18v-57.85l11.6,5.8v20.3l11.6,8.7l20.3-10.15v-0.6c-3.44,0.47-8.7-0.72-8.7-12.44v-8.7
		l-23.19-11.6l-43.49,28.99v0.89c3.44-0.89,8.7-0.97,8.7,6.84c0,1.77,0,79.25,0,79.25h23.19v-43.73c1-1.62,7.44-10.67,20.26,2.14
		l14-14l-14.1-14L628.27,336.18z"/>
	<path class="st2" d="M1071.86,316.02l-20.3,12.92v-62.2l-31.89,21.26v0.89c3.44-0.89,8.7-0.97,8.7,6.84c0,11.6,0,89.88,0,89.88
		h23.19v-51.83c5.8-1.81,11.6-1.81,11.6,5.44v46.39h23.19v-46.39h5.8L1071.86,316.02z"/>
	<path class="st2" d="M448.04,336.31l-17.4-20.3l-23.19,17.37v-55.06l-31.89,18.36v0.59c3.43-0.91,8.79-1.07,8.79,6.82
		c0,11.6-0.1,81.5-0.1,81.5h23.19v-27.34c11.59,2.15,11.6,15.75,11.6,15.75v11.6l23.19-0.14c0-28.94-23.19-28.85-23.19-28.85h-11.31
		l34.5-20.3H448.04z M407.45,355.13v-18.94c3.75-1.3,9.45-2.13,11.6,3.03C421.35,344.75,414.98,349.59,407.45,355.13z"/>
	<path class="st2" d="M448.04,287.99v0.89c3.44-0.89,8.7-0.97,8.7,6.84c0,11.6,0,89.88,0,89.88h23.19V266.73L448.04,287.99z"/>
	<path class="st2" d="M1640.12,287.99v0.89c3.44-0.89,8.7-0.97,8.7,6.84c0,11.6,0,89.88,0,89.88h23.19V266.73L1640.12,287.99z"/>
	<path class="st2" d="M161.01,316.02l-34.79,23.19v23.19c0,23.19,23.19,23.19,23.19,23.19h11.6v46.39h23.19V327.62L161.01,316.02z
		 M161.01,371.11c0,0,0,5.8-5.8,5.8s-5.8-5.8-5.8-5.8v-46.39l11.6,5.8V371.11z"/>
	<path class="st2" d="M529.22,316.02v57.99c-11.6,2.9-11.6-5.8-11.6-5.8v-43.49v-0.97l-23.19,15.46v34.79l11.6,11.6l23.19-8.7v40.59
		c0,0,0,5.8-5.8,5.8c-5.8,0-5.8-5.8-5.8-5.8v-17.4h-23.19v8.7c0,0,0,23.19,23.19,23.19h5.8h5.8c23.19,0,23.19-23.19,23.19-23.19
		v-81.18L529.22,316.02z"/>
	<path class="st2" d="M256.68,327.61l-23.19-11.59l0.07,55.09c0,0,0,5.8-5.8,5.8c-5.8,0-5.8-5.8-5.8-5.8l-0.07-47.36l-23.19,15.46
		l0.07,29c0,0-0.12,18.9,20.27,18.9c14.45,0,14.52-10.2,14.52-10.2l0,0v8.7h23.19L256.68,327.61z"/>
	<path class="st2" d="M1765.59,377.61c-1.8,3.31-6.1,5.43-9.52,6.65l27.53-47.44c3.79-6.55,10.18-2.69,10.18-2.69l-15.39-18.11
		l-13.73,5.85c-11.63,0.23-22.76-5.83-22.76-5.83l-14.33,26.36l14.7,8l11.2-20.58c1.9-3.5,6.78-5.53,10.42-6.61l-36.2,62.4h52.59
		l11.2-20.58l-14.7-8L1765.59,377.61z"/>
	<path class="st2" d="M1712.61,316.02v-37.69l-26.09,18.13v0.87c3-0.82,7.61-1.13,8.7,4.2v5.8c0,11.86-17.4,11.86-17.4,11.86v2.64
		h11.72v63.78h23.5c0.03-5.4,0.05-49.59,0.05-55.09c0-11.86,11.6-11.6,11.6-11.6v-2.9H1712.61z"/>
	<path class="st2" d="M1347.29,316.02v-37.69l-26.09,18.13v0.87c3-0.82,7.61-1.13,8.7,4.2v5.8c0,11.86-17.4,11.86-17.4,11.86v2.64
		h11.72v63.78h23.5c0.03-5.4,0.05-49.59,0.05-55.09c0-11.86,11.6-11.6,11.6-11.6v-2.9H1347.29z"/>
	<path class="st2" d="M976.18,316.02v-37.69l-26.09,18.13v0.87c3-0.82,7.61-1.13,8.7,4.2v5.8c0,11.86-17.4,11.86-17.4,11.86v2.64
		h11.72v63.78h23.5c0.03-5.4,0.05-49.59,0.05-55.09c0-11.86,11.6-11.6,11.6-11.6v-2.9H976.18z"/>
	<path class="st2" d="M1553.67,316.56l-14,14c0,0,16.23,11.44,13.54,22.98l-5.84,23.37l-14.5-20.3v-31.89l-11.6-8.7l-20.33,10.16
		v0.59c3.43-0.48,8.73,0.68,8.73,12.44h0.04l-0.03,14.5l-0.05,0c0,0.02,0.02,0.03,0.05,0.04l-0.02,8.66l4.87,6.49l-2,8.01
		l-14.5-20.3v-31.89l-11.6-8.7l-20.3,10.15v0.6c3.44-0.47,8.7,0.72,8.7,12.44h0.04l-0.04,23.19l17.4,23.19l24.02-0.11l3.07-10.19
		l7.73,10.31l24.02-0.11l16.54-54.87L1553.67,316.56z"/>
	<path class="st2" d="M1257.94,316.56l-14,14c0,0,16.23,11.44,13.54,22.98l-5.84,23.37l-14.5-20.3v-31.89l-11.6-8.7l-20.33,10.16
		v0.59c3.43-0.48,8.73,0.68,8.73,12.44h0.04l-0.03,14.5l-0.05,0c0,0.02,0.02,0.03,0.05,0.04l-0.02,8.66l4.87,6.49l-2,8.01
		l-14.5-20.3v-31.89l-11.6-8.7l-20.3,10.15v0.6c3.44-0.47,8.7,0.72,8.7,12.44h0.04l-0.04,23.19l17.4,23.19l24.02-0.11l3.07-10.19
		l7.73,10.31l24.02-0.11l16.54-54.87L1257.94,316.56z"/>
	<path class="st2" d="M1138.54,316.02l-34.79,23.19v24.58c0,0,0,23.19,23.19,23.19h5.8h5.8c23.19,0,23.19-23.19,23.19-23.19v-36.17
		L1138.54,316.02z M1138.54,372.49c0,0,0,5.8-5.8,5.8c-5.8,0-5.8-5.8-5.8-5.8v-47.77l11.6,5.8V372.49z"/>
	<path class="st2" d="M912.4,316.02l-34.79,23.19v24.58c0,0,0,23.19,23.19,23.19h5.8h5.8c23.19,0,23.19-23.19,23.19-23.19v-36.17
		L912.4,316.02z M912.4,372.49c0,0,0,5.8-5.8,5.8s-5.8-5.8-5.8-5.8v-47.77l11.6,5.8V372.49z"/>
	<path class="st2" d="M839.92,316.02l-34.79,23.19v34.79l11.6,11.6l23.19-8.7v40.59c0,0,0,5.8-5.8,5.8c-5.8,0-5.8-5.8-5.8-5.8v-17.4
		h-23.19v8.7c0,0,0,23.19,23.19,23.19h11.6c23.19,0,23.19-23.19,23.19-23.19v-46.39v-34.79L839.92,316.02z M839.92,374.01
		c-11.6,2.9-11.6-5.8-11.6-5.8v-43.49l11.6,5.8V374.01z"/>
	<path class="st2" d="M784.69,322.81l-20.16,20.16v-26.95l-31.89,21.26v0.89c3.44-0.89,8.7-0.97,8.7,6.84c0,11.6,0,40.59,0,40.59
		h23.19v-36.93c1-1.62,7.44-10.67,20.26,2.14l14-14L784.69,322.81z"/>
	<path class="st2" d="M700.75,316.02l-34.79,23.19v24.58c0,0,0,23.19,23.19,23.19h5.8h5.8c23.19,0,23.19-23.19,23.19-23.19v-36.17
		L700.75,316.02z M700.75,372.49c0,0,0,5.8-5.8,5.8c-5.8,0-5.8-5.8-5.8-5.8v-47.77l11.6,5.8V372.49z"/>
	<path class="st2" d="M1399.48,316.02l-34.79,23.19v24.58c0,0,0,23.19,23.19,23.19h5.8h5.8c23.19,0,23.19-23.19,23.19-23.19v-36.17
		L1399.48,316.02z M1399.48,372.49c0,0,0,5.8-5.8,5.8s-5.8-5.8-5.8-5.8v-47.77l11.6,5.8V372.49z"/>
</g>
</svg>
