<?xml version="1.0" encoding="utf-8"?>
<!-- Generator: Adobe Illustrator 25.2.3, SVG Export Plug-In . SVG Version: 6.00 Build 0)  -->
<svg version="1.1" id="Layer_1" xmlns="http://www.w3.org/2000/svg" xmlns:xlink="http://www.w3.org/1999/xlink" x="0px" y="0px"
	 viewBox="0 0 1920 225.22" style="enable-background:new 0 0 1920 225.22;" xml:space="preserve">
<style type="text/css">
	.st0{opacity:0;}
	.st1{fill:none;stroke:#FF3000;stroke-miterlimit:10;}
	.st2{fill:#FFFFFF;}
</style>
<g>
	<path d="M1035.9-2242.23l-23.19,8.7l-11.6-8.7l-20.3,10.15v0.6c3.44-0.47,8.7,0.72,8.7,12.44v46.39h23.19v-57.99
		c11.6-2.9,11.6,5.8,11.6,5.8v52.19h23.19v-57.99L1035.9-2242.23z"/>
	<path d="M812.65-2242.23l-23.19,8.7l-11.6-8.7l-20.3,10.15v0.6c3.44-0.47,8.7,0.72,8.7,12.44v46.39h23.19v-57.99
		c11.6-2.9,11.6,5.8,11.6,5.8v52.19h23.19v-57.99L812.65-2242.23z"/>
	<path d="M873.54-2242.23l-34.79,23.19v34.79l11.6,11.6l23.19-8.7v40.59c0,0,0,5.8-5.8,5.8c-5.8,0-5.8-5.8-5.8-5.8v-17.4h-23.19v8.7
		c0,0,0,23.19,23.19,23.19h11.6c23.19,0,23.19-23.19,23.19-23.19v-46.39v-34.79L873.54-2242.23z M873.54-2184.25
		c-11.6,2.9-11.6-5.8-11.6-5.8v-43.49l11.6,5.8V-2184.25z"/>
	<g>
		<path d="M946.02-2261.79v0.87c3-0.82,7.61-1.13,8.7,4.2v8.7l17.4-11.6v-20.29L946.02-2261.79z"/>
		<path d="M940.22-2220.97v0.89c3.44-0.89,8.7-0.97,8.7,6.84c0,11.6,0,40.59,0,40.59h23.19v-69.58L940.22-2220.97z"/>
	</g>
	<g>
		<path d="M722.78-2261.79v0.87c3-0.82,7.61-1.13,8.7,4.2v8.7l17.4-11.6v-20.29L722.78-2261.79z"/>
		<path d="M716.98-2220.97v0.89c3.44-0.89,8.7-0.97,8.7,6.84c0,11.6,0,40.59,0,40.59h23.19v-69.58L716.98-2220.97z"/>
	</g>
	<path d="M589.53-2184.25l-0.12-46.39l-23.19-11.6l-34.79,23.19v28.99c0,0,0,18.9,20.38,18.9c14.45,0,17.09-6.55,17.09-6.55
		s0.46,5.05,3.11,5.05c5.42,0,18.62,0,20.3,0v-2.91C589.41-2175.56,589.53-2184.25,589.53-2184.25z M566.21-2187.14
		c0,0,0.12,5.8-5.68,5.8s-5.92-5.8-5.92-5.8v-46.39l11.6,5.8V-2187.14z"/>
	<path d="M1186.66-2242.23l-20.3,12.92v-62.2l-31.89,21.26v0.89c3.44-0.89,8.7-0.97,8.7,6.84c0,11.6,0,89.88,0,89.88h23.19v-51.83
		c5.8-1.81,11.6-1.81,11.6,5.44v46.39h23.19v-46.39h5.8L1186.66-2242.23z"/>
	<path d="M711.18-2221.94l-17.4-20.29l-23.19,17.37v-55.06l-31.89,18.36v0.59c3.43-0.91,8.79-1.07,8.79,6.82
		c0,11.6-0.1,81.5-0.1,81.5h23.19v-27.34c11.59,2.15,11.6,15.75,11.6,15.75v11.6l23.19-0.14c0-28.94-23.19-28.85-23.19-28.85h-11.31
		l34.5-20.3H711.18z M670.59-2203.12v-18.94c3.75-1.3,9.45-2.13,11.6,3.03C684.49-2213.5,678.12-2208.66,670.59-2203.12z"/>
	<path d="M598.11-2270.26v0.89c3.44-0.89,8.7-0.97,8.7,6.84c0,11.6,0,89.88,0,89.88H630v-118.87L598.11-2270.26z"/>
	<path d="M1250.45-2203.57l23.19-15.46v-11.6l-23.19-11.6l-34.79,23.19v20.3c0,26.09,23.19,27.29,23.19,27.29h11.6
		c23.19,0,23.19-24.39,23.19-24.39h-23.19v8.7c0,0,0,5.8-5.8,5.8s-5.8-5.8-5.8-5.8v-16.42L1250.45-2203.57z M1250.45-2227.73v14.49
		c0,5.65-11.6,5.81-11.6,5.81v-26.09L1250.45-2227.73z"/>
	<path d="M1363.84-2180.65c-1.8,3.31-6.1,5.43-9.52,6.65l27.53-47.44c3.79-6.55,10.18-2.69,10.18-2.69l-15.39-18.11l-13.73,5.85
		c-11.63,0.23-22.76-5.83-22.76-5.83l-14.33,26.36l14.7,8l11.2-20.58c1.9-3.5,6.78-5.53,10.42-6.61l-36.2,62.4h52.59l11.2-20.58
		l-14.7-8L1363.84-2180.65z"/>
	<path d="M1122.88-2242.23v-37.69l-26.09,18.13v0.87c3-0.82,7.61-1.13,8.7,4.2v5.8c0,11.86-17.4,11.86-17.4,11.86v2.64h11.72v63.78
		h23.5c0.03-5.4,0.05-49.59,0.05-55.09c0-11.86,11.6-11.6,11.6-11.6v-2.9H1122.88z"/>
	<path d="M511.66-2241.7l-14,14c0,0,16.23,11.44,13.54,22.98l-5.84,23.37l-14.5-20.3v-31.89l-11.6-8.7l-20.33,10.16v0.59
		c3.43-0.48,8.73,0.68,8.73,12.44h0.04l-0.03,14.5h-0.05c0,0.02,0.02,0.03,0.05,0.04l-0.02,8.66l4.87,6.49l-2,8.01l-14.5-20.3
		v-31.89l-11.6-8.7l-20.3,10.15v0.6c3.44-0.47,8.7,0.72,8.7,12.44h0.04l-0.04,23.19l17.4,23.19l24.02-0.11l3.07-10.19l7.73,10.31
		l24.02-0.11l16.54-54.87L511.66-2241.7z"/>
	<path d="M1502.69-2242.23l-34.79,23.19v24.58c0,0,0,23.19,23.19,23.19h5.8h5.8c23.19,0,23.19-23.19,23.19-23.19v-36.17
		L1502.69-2242.23z M1502.69-2185.76c0,0,0,5.8-5.8,5.8s-5.8-5.8-5.8-5.8v-47.77l11.6,5.8V-2185.76z"/>
	<path d="M1433.11-2242.23l-34.79,23.19v24.58c0,0,0,23.19,23.19,23.19h5.8h5.8c23.19,0,23.19-23.19,23.19-23.19v-36.17
		L1433.11-2242.23z M1433.11-2185.76c0,0,0,5.8-5.8,5.8s-5.8-5.8-5.8-5.8v-47.77l11.6,5.8V-2185.76z"/>
</g>
<g>
	<path d="M441.31-1773.03l-23.19,8.7l-11.6-8.7l-20.3,10.15v0.6c3.44-0.47,8.7,0.72,8.7,12.44v46.39h23.19v-57.99
		c11.6-2.9,11.6,5.8,11.6,5.8v52.19h23.19v-57.99L441.31-1773.03z"/>
	<path d="M809.52-1773.03l-23.19,8.7l-11.6-8.7l-20.3,10.15v0.6c3.44-0.47,8.7,0.72,8.7,12.44v46.39h23.19v-57.99
		c11.6-2.9,11.6,5.8,11.6,5.8v52.19h23.19v-57.99L809.52-1773.03z"/>
	<path d="M377.64-1715.05l-0.12-46.39l-23.19-11.6l-34.79,23.19v28.99c0,0,0,18.9,20.38,18.9c14.45,0,17.09-6.55,17.09-6.55
		s0.46,5.05,3.11,5.05c5.42,0,18.62,0,20.3,0v-2.91C377.52-1706.36,377.64-1715.05,377.64-1715.05z M354.33-1717.95
		c0,0,0.12,5.8-5.68,5.8s-5.92-5.8-5.92-5.8v-46.39l11.6,5.8V-1717.95z"/>
	<path d="M960.76-1773.03l-20.3,12.92v-62.2l-31.89,21.26v0.89c3.44-0.89,8.7-0.97,8.7,6.84c0,11.6,0,89.88,0,89.88h23.19v-51.83
		c5.8-1.81,11.6-1.81,11.6,5.44v46.39h23.19v-46.39h5.8L960.76-1773.03z"/>
	<path d="M493.49-1801.06v0.89c3.44-0.89,8.7,1.93,8.7,9.74c0,8.28,0,25.13,0,25.13l-11.6-7.73l-23.19,11.6l0,40.59
		c0,0-0.12,18.9,20.27,18.9c14.45,0,14.52-10.2,14.52-10.2l0,0c0,2.78,0,5.68,0,8.7h23.19v-118.87L493.49-1801.06z M502.19-1732.44
		c0,4.42,0,9.23,0,14.5c0,0,0,5.8-5.8,5.8c-5.8,0-5.8-5.8-5.8-5.8v-14.5v-4.77h0v-21.32l11.6-5.8c0,6.35,0,14.94,0,27.12
		C502.19-1735.68,502.19-1734.09,502.19-1732.44z"/>
	<path d="M1021.64-1734.37l23.19-15.46v-11.6l-23.19-11.6l-34.79,23.19v20.3c0,26.09,23.19,27.29,23.19,27.29h11.6
		c23.19,0,23.19-24.39,23.19-24.39h-23.19v8.7c0,0,0,5.8-5.8,5.8s-5.8-5.8-5.8-5.8v-16.42L1021.64-1734.37z M1021.64-1758.54v14.49
		c0,5.65-11.6,5.81-11.6,5.81v-26.09L1021.64-1758.54z"/>
	<path d="M1155.01-1734.37l23.19-15.46v-11.6l-23.19-11.6l-34.79,23.19v20.3c0,26.09,23.19,27.29,23.19,27.29h11.6
		c23.19,0,23.19-24.39,23.19-24.39h-23.19v8.7c0,0,0,5.8-5.8,5.8c-5.8,0-5.8-5.8-5.8-5.8v-16.42L1155.01-1734.37z M1155.01-1758.54
		v14.49c0,5.65-11.6,5.81-11.6,5.81v-26.09L1155.01-1758.54z"/>
	<path d="M1102.68-1766.24l-20.16,20.16v-26.95l-31.89,21.26v0.89c3.44-0.89,8.7-0.97,8.7,6.84c0,11.6,0,40.59,0,40.59h23.19v-36.93
		c1-1.62,7.44-10.67,20.26,2.14l14-14L1102.68-1766.24z"/>
	<path d="M1363.76-1734.37l23.19-15.46v-11.6l-23.19-11.6l-34.79,23.19v20.3c0,26.09,23.19,27.29,23.19,27.29h11.6
		c23.19,0,23.19-24.39,23.19-24.39h-23.19v8.7c0,0,0,5.8-5.8,5.8s-5.8-5.8-5.8-5.8v-16.42L1363.76-1734.37z M1363.76-1758.54v14.49
		c0,5.65-11.6,5.81-11.6,5.81v-26.09L1363.76-1758.54z"/>
	<path d="M1497.13-1734.37l23.19-15.46v-11.6l-23.19-11.6l-34.79,23.19v20.3c0,26.09,23.19,27.29,23.19,27.29h11.6
		c23.19,0,23.19-24.39,23.19-24.39h-23.19v8.7c0,0,0,5.8-5.8,5.8c-5.8,0-5.8-5.8-5.8-5.8v-16.42L1497.13-1734.37z M1497.13-1758.54
		v14.49c0,5.65-11.6,5.81-11.6,5.81v-26.09L1497.13-1758.54z"/>
	<path d="M1444.8-1766.24l-20.16,20.16v-26.95l-31.89,21.26v0.89c3.44-0.89,8.7-0.97,8.7,6.84c0,11.6,0,40.59,0,40.59h23.19v-36.93
		c1-1.62,7.44-10.67,20.26,2.14l14-14L1444.8-1766.24z"/>
	<path d="M896.5-1773.03v-37.69l-26.09,18.13v0.87c3-0.82,7.61-1.13,8.7,4.2v5.8c0,11.86-17.4,11.86-17.4,11.86v2.64h11.72v63.78
		h23.5c0.03-5.4,0.05-49.59,0.05-55.09c0-11.86,11.6-11.6,11.6-11.6v-2.9H896.5z"/>
	<path d="M664.55-1773.03l-20.3,12.92v-62.2l-31.89,21.26v0.89c3.44-0.89,8.7-0.97,8.7,6.84c0,11.6,0,89.88,0,89.88h23.19v-51.83
		c5.8-1.81,11.6-1.81,11.6,5.44v46.39h23.19v-46.39h5.8L664.55-1773.03z"/>
	<path d="M725.44-1734.37l23.19-15.46v-11.6l-23.19-11.6l-34.79,23.19v20.3c0,26.09,23.19,27.29,23.19,27.29h11.6
		c23.19,0,23.19-24.39,23.19-24.39h-23.19v8.7c0,0,0,5.8-5.8,5.8c-5.8,0-5.8-5.8-5.8-5.8v-16.42L725.44-1734.37z M725.44-1758.54
		v14.49c0,5.65-11.6,5.81-11.6,5.81v-26.09L725.44-1758.54z"/>
	<path d="M600.3-1773.03v-37.69l-26.09,18.13v0.87c3-0.82,7.61-1.13,8.7,4.2v5.8c0,11.86-17.4,11.86-17.4,11.86v2.64h11.72v63.78
		h23.5c0.03-5.4,0.05-49.59,0.05-55.09c0-11.86,11.6-11.6,11.6-11.6v-2.9H600.3z"/>
	<path d="M1309.2-1772.5l-14,14c0,0,16.23,11.44,13.54,22.98l-5.84,23.37l-14.5-20.3v-31.89l-11.6-8.7l-20.33,10.16v0.59
		c3.43-0.48,8.73,0.68,8.73,12.44h0.04l-0.03,14.5l-0.05,0c0,0.02,0.02,0.03,0.05,0.04l-0.02,8.66l4.87,6.49l-2,8.01l-14.5-20.3
		v-31.89l-11.6-8.7l-20.3,10.15v0.6c3.44-0.47,8.7,0.72,8.7,12.44h0.04l-0.04,23.19l17.4,23.19l24.02-0.11l3.07-10.19l7.73,10.31
		l24.02-0.11l16.54-54.87L1309.2-1772.5z"/>
	<path d="M1630.49-1781.73v-17.4l-23.19-11.6l-34.79,23.19v20.3h23.19v-34.79l11.6,5.8v26.09c0,0,0,8.7-5.8,8.7v8.7
		c5.8,0,5.8,8.7,5.8,8.7v26.41c0,0,0,5.8-5.8,5.8s-5.8-5.8-5.8-5.8v-23.19h-23.19v14.5c0,0,0,24.72,23.19,24.72h11.6
		c23.19,0,23.2-24.72,23.2-24.72v-14.81c0,0,0-9.23-8.78-15.95C1630.49-1763.8,1630.49-1781.73,1630.49-1781.73z"/>
</g>
<g>
	<g>
		<path d="M1070.69-2496.36v0.87c3-0.82,7.61-1.13,8.7,4.2v8.7l17.4-11.6v-20.29L1070.69-2496.36z"/>
		<path d="M1064.89-2455.54v0.89c3.44-0.89,8.7-0.97,8.7,6.84c0,11.6,0,40.59,0,40.59h23.19v-69.58L1064.89-2455.54z"/>
	</g>
	<g>
		<path d="M548.82-2496.36v0.87c3-0.82,7.61-1.13,8.7,4.2v8.7l17.4-11.6v-20.29L548.82-2496.36z"/>
		<path d="M543.02-2455.54v0.89c3.44-0.89,8.7-0.97,8.7,6.84c0,11.6,0,40.59,0,40.59h23.19v-69.58L543.02-2455.54z"/>
	</g>
	<path d="M951.82-2504.82v0.89c3.44-0.89,8.7-0.97,8.7,6.84c0,11.6,0,89.88,0,89.88h23.19v-118.87L951.82-2504.82z"/>
	<path d="M502.43-2504.82v0.89c3.44-0.89,8.7-0.97,8.7,6.84c0,11.6,0,89.88,0,89.88h23.19v-118.87L502.43-2504.82z"/>
	<path d="M661.89-2504.82v0.89c3.44-0.89,8.7-0.97,8.7,6.84c0,11.6,0,89.88,0,89.88h23.19v-118.87L661.89-2504.82z"/>
	<path d="M1024.3-2504.82v0.89c3.44-0.89,8.7,1.93,8.7,9.74c0,8.28,0,25.13,0,25.13l-11.6-7.73l-23.19,11.6l0,40.59
		c0,0-0.12,18.9,20.27,18.9c14.45,0,14.52-10.2,14.52-10.2l0,0c0,2.78,0,5.68,0,8.7h23.19v-118.87L1024.3-2504.82z M1033-2436.21
		c0,4.42,0,9.23,0,14.5c0,0,0,5.8-5.8,5.8s-5.8-5.8-5.8-5.8v-14.5v-4.77h0v-21.32l11.6-5.8c0,6.35,0,14.94,0,27.12
		C1033-2439.44,1033-2437.85,1033-2436.21z"/>
	<path d="M1328.73-2476.8l-11.6,7.73v-57.02l-31.89,21.26v0.89c3.44-0.89,8.7,1.93,8.7,9.74c0,6.43,0,86.98,0,86.98h23.19v-8.7l0,0
		c0,0,0.07,10.2,14.53,10.2c20.38,0,20.27-18.9,20.27-18.9l0-40.59L1328.73-2476.8z M1328.73-2421.71c0,0,0,5.8-5.8,5.8
		s-5.8-5.8-5.8-5.8v-46.39l11.6,5.8L1328.73-2421.71z"/>
	<path d="M1146.07-2438.14l23.19-15.46v-11.6l-23.19-11.6l-34.79,23.19v20.3c0,26.09,23.19,27.29,23.19,27.29h11.6
		c23.19,0,23.19-24.39,23.19-24.39h-23.19v8.7c0,0,0,5.8-5.8,5.8s-5.8-5.8-5.8-5.8v-16.42L1146.07-2438.14z M1146.07-2462.3v14.49
		c0,5.65-11.6,5.81-11.6,5.81v-26.09L1146.07-2462.3z"/>
	<path d="M743.07-2438.14l23.19-15.46v-11.6l-23.19-11.6l-34.79,23.19v20.3c0,26.09,23.19,27.29,23.19,27.29h11.6
		c23.19,0,23.19-24.39,23.19-24.39h-23.19v8.7c0,0,0,5.8-5.8,5.8c-5.8,0-5.8-5.8-5.8-5.8v-16.42L743.07-2438.14z M743.07-2462.3
		v14.49c0,5.65-11.6,5.81-11.6,5.81v-26.09L743.07-2462.3z"/>
	<path d="M1473.7-2476.8v57.99c-11.6,2.9-11.6-5.8-11.6-5.8v-43.49v-0.97l-23.19,15.46v34.79l11.6,11.6l23.19-8.7v40.59
		c0,0,0,5.8-5.8,5.8s-5.8-5.8-5.8-5.8v-17.4h-23.19v8.7c0,0,0,23.19,23.19,23.19h5.8h5.8c23.19,0,23.19-23.19,23.19-23.19v-81.18
		L1473.7-2476.8z"/>
	<path d="M1569.37-2459.4v-5.8l-23.19-11.6l-34.79,23.19v2.9c0,14.5,14.5,14.5,14.5,14.5h14.5c5.8,0,5.8,5.8,5.8,5.8v8.7
		c0,0,0,5.8-5.8,5.8s-5.8-5.8-5.8-5.8l0-7.13h0v-1.56h-23.19v1.46h0c0,23.19,23.19,23.24,23.19,23.24h11.6
		c23.19,0,23.2-17.44,23.2-17.44l0-4.36c0-14.5-14.5-14.5-14.5-14.5h-14.5c-5.8,0-5.8-5.8-5.8-5.8v-20.3l11.6,2.9v18.85
		L1569.37-2459.4z"/>
	<path d="M876.44-2459.4v-5.8l-23.19-11.6l-34.79,23.19v2.9c0,14.5,14.5,14.5,14.5,14.5h14.5c5.8,0,5.8,5.8,5.8,5.8v8.7
		c0,0,0,5.8-5.8,5.8s-5.8-5.8-5.8-5.8l0-7.13h0v-1.56h-23.19v1.46h0c0,23.19,23.19,23.24,23.19,23.24h11.6
		c23.19,0,23.2-17.44,23.2-17.44l0-4.36c0-14.5-14.5-14.5-14.5-14.5h-14.5c-5.8,0-5.8-5.8-5.8-5.8v-20.3l11.6,2.9v18.85
		L876.44-2459.4z"/>
	<path d="M1227.12-2470l-20.16,20.16v-26.95l-31.89,21.26v0.89c3.44-0.89,8.7-0.97,8.7,6.84c0,11.6,0,40.59,0,40.59h23.19v-36.93
		c1-1.62,7.44-10.67,20.26,2.14l14-14L1227.12-2470z"/>
	<path d="M652.72-2476.8v-37.69l-26.09,18.13v0.87c3-0.82,7.61-1.13,8.7,4.2v2.9c0,11.11-15.26,11.58-17.19,11.6h-3.1v-37.69
		l-26.09,18.13v0.87c3-0.82,7.61-1.13,8.7,4.2v5.8c0,11.86-17.4,11.6-17.4,11.6v2.9h11.72v63.78h23.5
		c0.03-5.4,0.05-49.59,0.05-55.09c0-11.11,10.18-11.58,11.46-11.6h2.68v66.68h23.5c0.03-5.4,0.05-49.59,0.05-55.09
		c0-11.86,11.6-11.6,11.6-11.6v-2.9H652.72z"/>
	<path d="M1401.21-2476.8l-34.79,23.19v24.58c0,0,0,23.19,23.19,23.19h5.8h5.8c23.19,0,23.19-23.19,23.19-23.19v-36.17
		L1401.21-2476.8z M1401.21-2420.33c0,0,0,5.8-5.8,5.8s-5.8-5.8-5.8-5.8v-47.77l11.6,5.8V-2420.33z"/>
	<path d="M922.83-2478.18l-34.79,23.19v24.58c0,0,0,23.19,23.19,23.19h5.8h5.8c23.19,0,23.19-23.19,23.19-23.19v-36.17
		L922.83-2478.18z M922.83-2421.71c0,0,0,5.8-5.8,5.8c-5.8,0-5.8-5.8-5.8-5.8v-47.77l11.6,5.8V-2421.71z"/>
	<path d="M447.34-2444.9v-61.2l-11.6-8.7l-20.3,10.15v1.43c3.44,0.6,8.7,3.74,8.7,17.42v46.7l-11.6-5.8v-17.71v-17.4l-11.6-8.7
		l-20.3,10.15v1.23c3.44,0.18,8.7,2.05,8.7,11.82v23.51l23.19,11.6l11.6-7.73v30.93h23.19v-23.19l11.6-7.73v-0.97L447.34-2444.9z"/>
</g>
<g>
	<path d="M1559.22-2007.78l-23.19,8.7l-11.6-8.7l-20.3,10.15v0.6c3.44-0.47,8.7,0.72,8.7,12.44v46.39h23.19v-57.99
		c11.6-2.9,11.6,5.8,11.6,5.8v52.19h23.19v-57.99L1559.22-2007.78z"/>
	<path d="M1147.52-2007.78l-34.79,23.19v34.79l11.6,11.6l23.19-8.7v40.59c0,0,0,5.8-5.8,5.8s-5.8-5.8-5.8-5.8v-17.4h-23.19v8.7
		c0,0,0,23.19,23.19,23.19h11.6c23.19,0,23.19-23.19,23.19-23.19v-46.39v-34.79L1147.52-2007.78z M1147.52-1949.79
		c-11.6,2.9-11.6-5.8-11.6-5.8v-43.49l11.6,5.8V-1949.79z"/>
	<path d="M1220.01-2007.78l-34.79,23.19v34.79l11.6,11.6l23.19-8.7v40.59c0,0,0,5.8-5.8,5.8c-5.8,0-5.8-5.8-5.8-5.8v-17.4h-23.19
		v8.7c0,0,0,23.19,23.19,23.19h11.6c23.19,0,23.19-23.19,23.19-23.19v-46.39v-34.79L1220.01-2007.78z M1220.01-1949.79
		c-11.6,2.9-11.6-5.8-11.6-5.8v-43.49l11.6,5.8V-1949.79z"/>
	<g>
		<path d="M489.38-2027.34v0.87c3-0.82,7.61-1.13,8.7,4.2v8.7l17.4-11.6v-20.3L489.38-2027.34z"/>
		<path d="M483.58-1986.52v0.89c3.44-0.89,8.7-0.97,8.7,6.84c0,11.6,0,40.59,0,40.59h23.19v-69.58L483.58-1986.52z"/>
	</g>
	<path d="M840.85-1949.79l-0.12-46.39l-23.19-11.6l-34.79,23.19v28.99c0,0,0,18.9,20.38,18.9c14.45,0,17.09-6.55,17.09-6.55
		s0.46,5.05,3.11,5.05c5.42,0,18.62,0,20.3,0v-2.91C840.73-1941.1,840.85-1949.79,840.85-1949.79z M817.54-1952.69
		c0,0,0.12,5.8-5.68,5.8c-5.8,0-5.92-5.8-5.92-5.8v-46.39l11.6,5.8V-1952.69z"/>
	<path d="M364.83-1949.79l-0.12-46.39l-23.19-11.6l-34.79,23.19v28.99c0,0,0,18.9,20.38,18.9c14.45,0,17.09-6.55,17.09-6.55
		s0.46,5.05,3.11,5.05c5.42,0,18.62,0,20.3,0v-2.91C364.71-1941.1,364.83-1949.79,364.83-1949.79z M341.52-1952.69
		c0,0,0.12,5.8-5.68,5.8s-5.92-5.8-5.92-5.8v-46.39l11.6,5.8V-1952.69z"/>
	<path d="M1011.26-2007.78l-20.3,12.92v-62.2l-31.89,21.26v0.89c3.44-0.89,8.7-0.97,8.7,6.84c0,11.6,0,89.88,0,89.88h23.19v-51.83
		c5.8-1.81,11.6-1.81,11.6,5.44v46.39h23.19v-46.39h5.8L1011.26-2007.78z"/>
	<path d="M1353.37-2035.8v0.89c3.44-0.89,8.7,1.93,8.7,9.74c0,8.28,0,25.13,0,25.13l-11.6-7.73l-23.19,11.6l0,40.59
		c0,0-0.12,18.9,20.27,18.9c14.45,0,14.53-10.2,14.53-10.2l0,0c0,2.78,0,5.68,0,8.7h23.19v-118.87L1353.37-2035.8z M1362.07-1967.19
		c0,4.42,0,9.23,0,14.5c0,0,0,5.8-5.8,5.8s-5.8-5.8-5.8-5.8v-14.5v-4.77h0v-21.32l11.6-5.8c0,6.35,0,14.94,0,27.12
		C1362.07-1970.42,1362.07-1968.83,1362.07-1967.19z"/>
	<path d="M451.69-2007.78l-11.6,7.73v-57.02l-31.89,21.26v0.89c3.44-0.89,8.7,1.93,8.7,9.74c0,6.43,0,86.98,0,86.98h23.19v-8.7l0,0
		c0,0,0.07,10.2,14.52,10.2c20.38,0,20.27-18.9,20.27-18.9l0-40.59L451.69-2007.78z M451.69-1952.69c0,0,0,5.8-5.8,5.8
		s-5.8-5.8-5.8-5.8v-46.39l11.6,5.8L451.69-1952.69z"/>
	<path d="M747.42-1969.12l23.19-15.46v-11.6l-23.19-11.6l-34.79,23.19v20.3c0,26.09,23.19,27.29,23.19,27.29h11.6
		c23.19,0,23.19-24.39,23.19-24.39h-23.19v8.7c0,0,0,5.8-5.8,5.8c-5.8,0-5.8-5.8-5.8-5.8v-16.42L747.42-1969.12z M747.42-1993.28
		v14.49c0,5.65-11.6,5.81-11.6,5.81v-26.09L747.42-1993.28z"/>
	<path d="M1620.11-1969.12l23.19-15.46v-11.6l-23.19-11.6l-34.79,23.19v20.3c0,26.09,23.19,27.29,23.19,27.29h11.6
		c23.19,0,23.19-24.39,23.19-24.39h-23.19v8.7c0,0,0,5.8-5.8,5.8s-5.8-5.8-5.8-5.8v-16.42L1620.11-1969.12z M1620.11-1993.28v14.49
		c0,5.65-11.6,5.81-11.6,5.81v-26.09L1620.11-1993.28z"/>
	<path d="M1292.49-1969.12l23.19-15.46v-11.6l-23.19-11.6l-34.79,23.19v20.3c0,26.09,23.19,27.29,23.19,27.29h11.6
		c23.19,0,23.19-24.39,23.19-24.39h-23.19v8.7c0,0,0,5.8-5.8,5.8s-5.8-5.8-5.8-5.8v-16.42L1292.49-1969.12z M1292.49-1993.28v14.49
		c0,5.65-11.6,5.81-11.6,5.81v-26.09L1292.49-1993.28z"/>
	<path d="M1098.24-1996.18l-23.19-11.59l0.07,55.09c0,0,0,5.8-5.8,5.8c-5.8,0-5.8-5.8-5.8-5.8l-0.07-47.36l-23.19,15.46l0.07,29
		c0,0-0.12,18.9,20.27,18.9c14.45,0,14.53-10.2,14.53-10.2l0,0v8.7h23.19L1098.24-1996.18z"/>
	<path d="M901.48-2000.98l-20.16,20.16v-26.95l-31.89,21.26v0.89c3.44-0.89,8.7-0.97,8.7,6.84c0,11.6,0,40.59,0,40.59h23.19v-36.93
		c1-1.62,7.44-10.67,20.26,2.14l14-14L901.48-2000.98z"/>
	<path d="M1472.25-2007.78l-34.79,23.19v24.58c0,0,0,23.19,23.19,23.19h5.8h5.8c23.19,0,23.19-23.19,23.19-23.19v-36.17
		L1472.25-2007.78z M1472.25-1951.31c0,0,0,5.8-5.8,5.8c-5.8,0-5.8-5.8-5.8-5.8v-47.77l11.6,5.8V-1951.31z"/>
	<path d="M564.76-2007.78l-34.79,23.19v34.79l11.6,11.6l23.19-8.7v40.59c0,0,0,5.8-5.8,5.8s-5.8-5.8-5.8-5.8v-17.4h-23.19v8.7
		c0,0,0,23.19,23.19,23.19h11.6c23.19,0,23.19-23.19,23.19-23.19v-46.39v-34.79L564.76-2007.78z M564.76-1949.79
		c-11.6,2.9-11.6-5.8-11.6-5.8v-43.49l11.6,5.8V-1949.79z"/>
	<path d="M674.94-2007.78l-11.6,7.73v-57.02l-31.89,21.26v0.89c3.44-0.89,8.7,1.93,8.7,9.74c0,6.43,0,86.98,0,86.98h23.19v-8.7l0,0
		c0,0,0.07,10.2,14.52,10.2c20.38,0,20.27-18.9,20.27-18.9l0-40.59L674.94-2007.78z M674.94-1952.69c0,0,0,5.8-5.8,5.8
		s-5.8-5.8-5.8-5.8v-46.39l11.6,5.8L674.94-1952.69z"/>
</g>
<g class="st0">
	<g>
		<line class="st1" x1="1.11" y1="-314.54" x2="1918.76" y2="-314.54"/>
		<line class="st1" x1="1.11" y1="-268.15" x2="1918.76" y2="-268.15"/>
		<line class="st1" x1="1.11" y1="-384.12" x2="1918.76" y2="-384.12"/>
		<line class="st1" x1="1.11" y1="-433.41" x2="1918.76" y2="-433.41"/>
		<line class="st1" x1="1.11" y1="-421.81" x2="1918.76" y2="-421.81"/>
	</g>
	<rect x="1995.18" y="-268.15" class="st1" width="47.91" height="67.16"/>
	<g>
		<line class="st1" x1="1.11" y1="-79.97" x2="1918.76" y2="-79.97"/>
		<line class="st1" x1="1.11" y1="-33.58" x2="1918.76" y2="-33.58"/>
		<line class="st1" x1="1.11" y1="-149.55" x2="1918.76" y2="-149.55"/>
		<line class="st1" x1="1.11" y1="-198.84" x2="1918.76" y2="-198.84"/>
		<line class="st1" x1="1.11" y1="-187.24" x2="1918.76" y2="-187.24"/>
	</g>
	<rect x="1995.18" y="-33.58" class="st1" width="47.91" height="67.16"/>
	<g>
		<line class="st1" x1="1.11" y1="154.6" x2="1918.76" y2="154.6"/>
		<line class="st1" x1="1.11" y1="200.98" x2="1918.76" y2="200.98"/>
		<line class="st1" x1="1.11" y1="85.01" x2="1918.76" y2="85.01"/>
		<line class="st1" x1="1.11" y1="35.72" x2="1918.76" y2="35.72"/>
		<line class="st1" x1="1.11" y1="47.32" x2="1918.76" y2="47.32"/>
	</g>
	<rect x="1995.18" y="200.98" class="st1" width="47.91" height="67.16"/>
</g>
<g>
	<path class="st2" d="M1708.02-147.42l-23.19,8.7l-11.6-8.7l-20.3,10.15v0.6c3.44-0.47,8.7,0.72,8.7,12.44v46.39h23.19v-57.99
		c11.6-2.9,11.6,5.8,11.6,5.8v52.19h23.19v-57.99L1708.02-147.42z"/>
	<path class="st2" d="M352.54-122.42l-8.9-18.2l-6.25-3.2l-7.03-3.6l-16.61,16.99c0,0,6.64-3.4,9.97,3.4l14.25,29.15
		c-1.95,1.07-4.23,1.93-6.51,1.93h-15.1v18.12h15.1l8.25-16.49l8.06,16.49h26.58l-20.76-42.47c2.29-1.57,5.43-3.19,8.56-3.19h15.1
		v-18.12h-15.1L352.54-122.42z"/>
	<path class="st2" d="M258.37-130.02v-5.8l-23.19-11.6l-34.79,23.19v2.9c0,14.5,14.5,14.5,14.5,14.5h14.5c5.8,0,5.8,5.8,5.8,5.8v8.7
		c0,0,0,5.8-5.8,5.8c-5.8,0-5.8-5.8-5.8-5.8l0-7.13h0v-1.56h-23.19v1.46h0c0,23.19,23.19,23.24,23.19,23.24h11.6
		c23.19,0,23.2-17.44,23.2-17.44l0-4.36c0-14.5-14.5-14.5-14.5-14.5h-14.5c-5.8,0-5.8-5.8-5.8-5.8v-20.3l11.6,2.9v18.85
		L258.37-130.02z"/>
	<path class="st2" d="M571.49-147.42l-34.79,23.19v34.79l11.6,11.6l23.19-8.7v40.59c0,0,0,5.8-5.8,5.8c-5.8,0-5.8-5.8-5.8-5.8v-17.4
		H536.7v8.7c0,0,0,23.19,23.19,23.19h11.6c23.19,0,23.19-23.19,23.19-23.19v-46.39v-34.79L571.49-147.42z M571.49-89.43
		c-11.6,2.9-11.6-5.8-11.6-5.8v-43.49l11.6,5.8V-89.43z"/>
	<g>
		<path class="st2" d="M858.52-166.98v0.87c3-0.82,7.61-1.13,8.7,4.2v8.7l17.4-11.6v-20.3L858.52-166.98z"/>
		<path class="st2" d="M852.73-126.16v0.89c3.44-0.89,8.7-0.97,8.7,6.84c0,11.6,0,40.59,0,40.59h23.19v-69.58L852.73-126.16z"/>
	</g>
	<g>
		<path class="st2" d="M496.11-166.98v0.87c3-0.82,7.61-1.13,8.7,4.2v8.7l17.4-11.6v-20.3L496.11-166.98z"/>
		<path class="st2" d="M490.31-126.16v0.89c3.44-0.89,8.7-0.97,8.7,6.84c0,11.6,0,40.59,0,40.59h23.19v-69.58L490.31-126.16z"/>
	</g>
	<g>
		<path class="st2" d="M272.87-166.98v0.87c3-0.82,7.61-1.13,8.7,4.2v8.7l17.4-11.6v-20.3L272.87-166.98z"/>
		<path class="st2" d="M267.07-126.16v0.89c3.44-0.89,8.7-0.97,8.7,6.84c0,11.6,0,40.59,0,40.59h23.19v-69.58L267.07-126.16z"/>
	</g>
	<g>
		<path class="st2" d="M1397.79-166.98v0.87c3-0.82,7.61-1.13,8.7,4.2v8.7l17.4-11.6v-20.3L1397.79-166.98z"/>
		<path class="st2" d="M1392-125.27c3.44-0.89,8.7-0.97,8.7,6.84c0,0.47,0,72.48,0,72.48s0,5.8-5.8,5.8c-5.8,0-5.8-5.8-5.8-5.8
			v-17.4h-23.19v8.7c0,0,0,23.19,23.19,23.19h11.6c23.19,0,23.19-23.19,23.19-23.19v-92.78L1392-126.16V-125.27z"/>
	</g>
	<path class="st2" d="M1644.35-89.43l-0.12-46.39l-23.19-11.6l-34.79,23.19v28.99c0,0,0,18.9,20.38,18.9
		c14.45,0,17.09-6.55,17.09-6.55s0.46,5.05,3.11,5.05c5.42,0,18.62,0,20.3,0v-2.91C1644.24-80.74,1644.35-89.43,1644.35-89.43z
		 M1621.04-92.33c0,0,0.12,5.8-5.68,5.8c-5.8,0-5.92-5.8-5.92-5.8v-46.39l11.6,5.8V-92.33z"/>
	<path class="st2" d="M1496.49-89.43l-0.12-46.39l-23.19-11.6l-34.79,23.19v28.99c0,0,0,18.9,20.38,18.9
		c14.45,0,17.09-6.55,17.09-6.55s0.46,5.05,3.11,5.05c5.42,0,18.62,0,20.3,0v-2.91C1496.37-80.74,1496.49-89.43,1496.49-89.43z
		 M1473.18-92.33c0,0,0.12,5.8-5.68,5.8s-5.92-5.8-5.92-5.8v-46.39l11.6,5.8V-92.33z"/>
	<path class="st2" d="M1075.97-127.26v-57.85l11.6,5.8v20.3l11.6,8.7l20.3-10.15v-0.6c-3.44,0.47-8.7-0.72-8.7-12.44v-8.7
		l-23.19-11.6l-43.49,28.99v0.89c3.44-0.89,8.7-0.97,8.7,6.84c0,1.77,0,79.25,0,79.25h23.19v-43.73c1-1.62,7.44-10.67,20.26,2.14
		l14-14l-14.1-14L1075.97-127.26z"/>
	<path class="st2" d="M893.32-175.45v0.89c3.44-0.89,8.7-0.97,8.7,6.84c0,11.6,0,89.88,0,89.88h23.19v-118.87L893.32-175.45z"/>
	<path class="st2" d="M1336.91-147.42l-25.32,9.47l-9.47-9.47l-23.19,8.7l-11.6-8.7l-20.3,10.15v0.6c3.44-0.47,8.7,0.72,8.7,12.44
		v46.39h23.19v-57.99c11.6-2.9,11.6,5.8,11.6,5.8v52.19h23.19v-57.99c11.6-2.9,11.6,5.8,11.6,5.8v52.19h23.19v-57.99L1336.91-147.42
		z"/>
	<path class="st2" d="M670.07-175.45v0.89c3.44-0.89,8.7,1.93,8.7,9.74c0,8.28,0,25.13,0,25.13l-11.6-7.73l-23.19,11.6l0,40.59
		c0,0-0.12,18.9,20.27,18.9c14.45,0,14.53-10.2,14.53-10.2l0,0c0,2.78,0,5.68,0,8.7h23.19v-118.87L670.07-175.45z M678.77-106.83
		c0,4.42,0,9.23,0,14.5c0,0,0,5.8-5.8,5.8s-5.8-5.8-5.8-5.8v-14.5v-4.77h0v-21.32l11.6-5.8c0,6.35,0,14.94,0,27.12
		C678.77-110.06,678.77-108.47,678.77-106.83z"/>
	<path class="st2" d="M458.42-147.42l-11.6,7.73v-57.02l-31.89,21.26v0.89c3.44-0.89,8.7,1.93,8.7,9.74c0,6.43,0,86.98,0,86.98
		h23.19v-8.7l0,0c0,0,0.07,10.2,14.52,10.2c20.38,0,20.27-18.9,20.27-18.9l0-40.59L458.42-147.42z M458.42-92.33c0,0,0,5.8-5.8,5.8
		c-5.8,0-5.8-5.8-5.8-5.8v-46.39l11.6,5.8L458.42-92.33z"/>
	<path class="st2" d="M751.25-108.76l23.19-15.46v-11.6l-23.19-11.6l-34.79,23.19v20.3c0,26.09,23.19,27.29,23.19,27.29h11.6
		c23.19,0,23.19-24.39,23.19-24.39h-23.19v8.7c0,0,0,5.8-5.8,5.8c-5.8,0-5.8-5.8-5.8-5.8v-16.42L751.25-108.76z M751.25-132.92
		v14.49c0,5.65-11.6,5.81-11.6,5.81v-26.09L751.25-132.92z"/>
	<path class="st2" d="M997.69-130.02v-5.8l-23.19-11.6l-34.79,23.19v2.9c0,14.5,14.5,14.5,14.5,14.5h14.5c5.8,0,5.8,5.8,5.8,5.8v8.7
		c0,0,0,5.8-5.8,5.8c-5.8,0-5.8-5.8-5.8-5.8l0-7.13h0v-1.56H939.7v1.46h0c0,23.19,23.19,23.24,23.19,23.24h11.6
		c23.19,0,23.2-17.44,23.2-17.44l0-4.36c0-14.5-14.5-14.5-14.5-14.5h-14.5c-5.8,0-5.8-5.8-5.8-5.8v-20.3l11.6,2.9v18.85
		L997.69-130.02z"/>
	<path class="st2" d="M1548.56-147.42l-11.6,7.73v-10.63l-31.89,21.26v0.89c3.44-0.89,8.7-0.97,8.7,6.84c0,3.04,0,89.88,0,89.88
		h23.19v-46.39h11.6c23.19,0,23.19-23.19,23.19-23.19v-34.79L1548.56-147.42z M1548.56-92.33c0,0,0,5.8-5.8,5.8s-5.8-5.8-5.8-5.8
		v-46.39l11.6,5.8V-92.33z"/>
	<path class="st2" d="M1163.35-140.63l-20.16,20.16v-26.95l-31.89,21.26v0.89c3.44-0.89,8.7-0.97,8.7,6.84c0,11.6,0,40.59,0,40.59
		h23.19v-36.93c1-1.62,7.44-10.67,20.26,2.14l14-14L1163.35-140.63z"/>
	<path class="st2" d="M832.93-146.88l-14,14c0,0,16.23,11.44,13.54,22.98l-5.84,23.37l-14.5-20.3v-31.89l-11.6-8.7l-20.3,10.15v0.6
		c3.44-0.47,8.7,0.72,8.7,12.44h0.04l-0.04,23.19l17.4,23.19l24.02-0.11l16.54-54.87L832.93-146.88z"/>
	<path class="st2" d="M1218.04-147.42l-34.79,23.19v24.58c0,0,0,23.19,23.19,23.19h5.8h5.8c23.19,0,23.19-23.19,23.19-23.19v-36.17
		L1218.04-147.42z M1218.04-90.95c0,0,0,5.8-5.8,5.8s-5.8-5.8-5.8-5.8v-47.77l11.6,5.8V-90.95z"/>
</g>
<g>
	<g>
		<path class="st2" d="M271.18,65.44v0.87c3-0.82,7.61-1.13,8.7,4.2v8.7l17.4-11.6v-20.3L271.18,65.44z"/>
		<path class="st2" d="M265.38,106.27v0.89c3.44-0.89,8.7-0.97,8.7,6.84c0,11.6,0,40.59,0,40.59h23.19V85L265.38,106.27z"/>
	</g>
	<path class="st2" d="M1631.54,142.99l-0.12-46.39L1608.23,85l-34.79,23.19v28.99c0,0,0,18.9,20.38,18.9
		c14.45,0,17.09-6.55,17.09-6.55s0.46,5.05,3.11,5.05c5.42,0,18.62,0,20.3,0v-2.91C1631.43,151.68,1631.54,142.99,1631.54,142.99z
		 M1608.23,140.09c0,0,0.12,5.8-5.68,5.8s-5.92-5.8-5.92-5.8V93.7l11.6,5.8V140.09z"/>
	<path class="st2" d="M369.76,108.2V96.6L346.56,85l-34.79,23.19v20.3c0,26.09,23.19,27.6,23.19,27.6h11.6
		c23.19,0,23.19-24.7,23.19-24.7h-23.19v8.7c0,0,0,5.8-5.8,5.8c-5.8,0-5.8-5.8-5.8-5.8V93.7l11.6,5.8v24.16L369.76,108.2z"/>
	<path class="st2" d="M628.27,105.16V47.31l11.6,5.8v20.3l11.6,8.7l20.3-10.15v-0.6c-3.44,0.47-8.7-0.72-8.7-12.44v-8.7l-23.19-11.6
		l-43.49,28.99v0.89c3.44-0.89,8.7-0.97,8.7,6.84c0,1.77,0,79.25,0,79.25h23.19v-43.73c1-1.62,7.44-10.67,20.26,2.14l14-14l-14.1-14
		L628.27,105.16z"/>
	<path class="st2" d="M1071.86,85l-20.3,12.92v-62.2l-31.89,21.26v0.89c3.44-0.89,8.7-0.97,8.7,6.84c0,11.6,0,89.88,0,89.88h23.19
		v-51.83c5.8-1.81,11.6-1.81,11.6,5.44v46.39h23.19V108.2h5.8L1071.86,85z"/>
	<path class="st2" d="M448.04,105.3L430.64,85l-23.19,17.37V47.31l-31.89,18.36v0.59c3.43-0.91,8.79-1.07,8.79,6.82
		c0,11.6-0.1,81.5-0.1,81.5h23.19v-27.34c11.59,2.15,11.6,15.75,11.6,15.75v11.6l23.19-0.14c0-28.94-23.19-28.85-23.19-28.85h-11.31
		l34.5-20.3H448.04z M407.45,124.12v-18.94c3.75-1.3,9.45-2.13,11.6,3.03C421.35,113.74,414.98,118.58,407.45,124.12z"/>
	<path class="st2" d="M448.04,56.98v0.89c3.44-0.89,8.7-0.97,8.7,6.84c0,11.6,0,89.88,0,89.88h23.19V35.72L448.04,56.98z"/>
	<path class="st2" d="M1640.12,56.98v0.89c3.44-0.89,8.7-0.97,8.7,6.84c0,11.6,0,89.88,0,89.88h23.19V35.72L1640.12,56.98z"/>
	<path class="st2" d="M161.01,85l-34.79,23.19v23.19c0,23.19,23.19,23.19,23.19,23.19h11.6v46.39h23.19V96.6L161.01,85z
		 M161.01,140.09c0,0,0,5.8-5.8,5.8s-5.8-5.8-5.8-5.8V93.7l11.6,5.8V140.09z"/>
	<path class="st2" d="M529.22,85v57.99c-11.6,2.9-11.6-5.8-11.6-5.8V93.7v-0.97l-23.19,15.46v34.79l11.6,11.6l23.19-8.7v40.59
		c0,0,0,5.8-5.8,5.8c-5.8,0-5.8-5.8-5.8-5.8v-17.4h-23.19v8.7c0,0,0,23.19,23.19,23.19h5.8h5.8c23.19,0,23.19-23.19,23.19-23.19
		V96.6L529.22,85z"/>
	<path class="st2" d="M256.68,96.6L233.49,85l0.07,55.09c0,0,0,5.8-5.8,5.8c-5.8,0-5.8-5.8-5.8-5.8l-0.07-47.36L198.7,108.2l0.07,29
		c0,0-0.12,18.9,20.27,18.9c14.45,0,14.52-10.2,14.52-10.2l0,0v8.7h23.19L256.68,96.6z"/>
	<path class="st2" d="M1765.59,146.59c-1.8,3.31-6.1,5.43-9.52,6.65l27.53-47.44c3.79-6.55,10.18-2.69,10.18-2.69L1778.4,85
		l-13.73,5.85c-11.63,0.23-22.76-5.83-22.76-5.83l-14.33,26.36l14.7,8l11.2-20.58c1.9-3.5,6.78-5.53,10.42-6.61l-36.2,62.4h52.59
		l11.2-20.58l-14.7-8L1765.59,146.59z"/>
	<path class="st2" d="M1712.61,85V47.31l-26.09,18.13v0.87c3-0.82,7.61-1.13,8.7,4.2v5.8c0,11.86-17.4,11.86-17.4,11.86v2.64h11.72
		v63.78h23.5c0.03-5.4,0.05-49.59,0.05-55.09c0-11.86,11.6-11.6,11.6-11.6V85H1712.61z"/>
	<path class="st2" d="M1347.29,85V47.31l-26.09,18.13v0.87c3-0.82,7.61-1.13,8.7,4.2v5.8c0,11.86-17.4,11.86-17.4,11.86v2.64h11.72
		v63.78h23.5c0.03-5.4,0.05-49.59,0.05-55.09c0-11.86,11.6-11.6,11.6-11.6V85H1347.29z"/>
	<path class="st2" d="M976.18,85V47.31l-26.09,18.13v0.87c3-0.82,7.61-1.13,8.7,4.2v5.8c0,11.86-17.4,11.86-17.4,11.86v2.64h11.72
		v63.78h23.5c0.03-5.4,0.05-49.59,0.05-55.09c0-11.86,11.6-11.6,11.6-11.6V85H976.18z"/>
	<path class="st2" d="M1553.67,85.54l-14,14c0,0,16.23,11.44,13.54,22.98l-5.84,23.37l-14.5-20.3V93.7l-11.6-8.7l-20.33,10.16v0.59
		c3.43-0.48,8.73,0.68,8.73,12.44h0.04l-0.03,14.5l-0.05,0c0,0.02,0.02,0.03,0.05,0.04l-0.02,8.66l4.87,6.49l-2,8.01l-14.5-20.3
		V93.7l-11.6-8.7l-20.3,10.15v0.6c3.44-0.47,8.7,0.72,8.7,12.44h0.04l-0.04,23.19l17.4,23.19l24.02-0.11l3.07-10.19l7.73,10.31
		l24.02-0.11l16.54-54.87L1553.67,85.54z"/>
	<path class="st2" d="M1257.94,85.54l-14,14c0,0,16.23,11.44,13.54,22.98l-5.84,23.37l-14.5-20.3V93.7l-11.6-8.7l-20.33,10.16v0.59
		c3.43-0.48,8.73,0.68,8.73,12.44h0.04l-0.03,14.5l-0.05,0c0,0.02,0.02,0.03,0.05,0.04l-0.02,8.66l4.87,6.49l-2,8.01l-14.5-20.3
		V93.7l-11.6-8.7l-20.3,10.15v0.6c3.44-0.47,8.7,0.72,8.7,12.44h0.04l-0.04,23.19l17.4,23.19l24.02-0.11l3.07-10.19l7.73,10.31
		l24.02-0.11l16.54-54.87L1257.94,85.54z"/>
	<path class="st2" d="M1138.54,85l-34.79,23.19v24.58c0,0,0,23.19,23.19,23.19h5.8h5.8c23.19,0,23.19-23.19,23.19-23.19V96.6
		L1138.54,85z M1138.54,141.47c0,0,0,5.8-5.8,5.8c-5.8,0-5.8-5.8-5.8-5.8V93.7l11.6,5.8V141.47z"/>
	<path class="st2" d="M912.4,85l-34.79,23.19v24.58c0,0,0,23.19,23.19,23.19h5.8h5.8c23.19,0,23.19-23.19,23.19-23.19V96.6L912.4,85
		z M912.4,141.47c0,0,0,5.8-5.8,5.8s-5.8-5.8-5.8-5.8V93.7l11.6,5.8V141.47z"/>
	<path class="st2" d="M839.92,85l-34.79,23.19v34.79l11.6,11.6l23.19-8.7v40.59c0,0,0,5.8-5.8,5.8c-5.8,0-5.8-5.8-5.8-5.8v-17.4
		h-23.19v8.7c0,0,0,23.19,23.19,23.19h11.6c23.19,0,23.19-23.19,23.19-23.19v-46.39V96.6L839.92,85z M839.92,142.99
		c-11.6,2.9-11.6-5.8-11.6-5.8V93.7l11.6,5.8V142.99z"/>
	<path class="st2" d="M784.69,91.8l-20.16,20.16V85l-31.89,21.26v0.89c3.44-0.89,8.7-0.97,8.7,6.84c0,11.6,0,40.59,0,40.59h23.19
		v-36.93c1-1.62,7.44-10.67,20.26,2.14l14-14L784.69,91.8z"/>
	<path class="st2" d="M700.75,85l-34.79,23.19v24.58c0,0,0,23.19,23.19,23.19h5.8h5.8c23.19,0,23.19-23.19,23.19-23.19V96.6
		L700.75,85z M700.75,141.47c0,0,0,5.8-5.8,5.8c-5.8,0-5.8-5.8-5.8-5.8V93.7l11.6,5.8V141.47z"/>
	<path class="st2" d="M1399.48,85l-34.79,23.19v24.58c0,0,0,23.19,23.19,23.19h5.8h5.8c23.19,0,23.19-23.19,23.19-23.19V96.6
		L1399.48,85z M1399.48,141.47c0,0,0,5.8-5.8,5.8s-5.8-5.8-5.8-5.8V93.7l11.6,5.8V141.47z"/>
</g>
</svg>
