<?xml version="1.0" encoding="utf-8"?>
<!-- Generator: Adobe Illustrator 25.2.3, SVG Export Plug-In . SVG Version: 6.00 Build 0)  -->
<svg version="1.1" id="Layer_1" xmlns="http://www.w3.org/2000/svg" xmlns:xlink="http://www.w3.org/1999/xlink" x="0px" y="0px"
	 viewBox="0 0 1920 234.57" style="enable-background:new 0 0 1920 234.57;" xml:space="preserve">
<style type="text/css">
	.st0{fill:#FFFFFF;}
	.st1{display:none;}
	.st2{display:inline;}
	.st3{fill:none;stroke:#FF3000;stroke-miterlimit:10;}
	.st4{display:inline;fill:none;stroke:#FF3000;stroke-miterlimit:10;}
</style>
<g>
	<path class="st0" d="M1020.89-149.55l-23.19,8.7l-11.6-8.7l-20.3,10.15v0.6c3.44-0.47,8.7,0.72,8.7,12.44v46.39h23.19v-57.99
		c11.6-2.9,11.6,5.8,11.6,5.8v52.19h23.19v-57.99L1020.89-149.55z"/>
	<path class="st0" d="M797.64-149.55l-23.19,8.7l-11.6-8.7l-20.3,10.15v0.6c3.44-0.47,8.7,0.72,8.7,12.44v46.39h23.19v-57.99
		c11.6-2.9,11.6,5.8,11.6,5.8v52.19h23.19v-57.99L797.64-149.55z"/>
	<path class="st0" d="M858.52-149.55l-34.79,23.19v34.79l11.6,11.6l23.19-8.7v40.59c0,0,0,5.8-5.8,5.8c-5.8,0-5.8-5.8-5.8-5.8v-17.4
		h-23.19v8.7c0,0,0,23.19,23.19,23.19h11.6c23.19,0,23.19-23.19,23.19-23.19v-46.39v-34.79L858.52-149.55z M858.52-91.57
		c-11.6,2.9-11.6-5.8-11.6-5.8v-43.49l11.6,5.8V-91.57z"/>
	<g>
		<path class="st0" d="M931.01-169.11v0.87c3-0.82,7.61-1.13,8.7,4.2v8.7l17.4-11.6v-20.3L931.01-169.11z"/>
		<path class="st0" d="M925.21-128.29v0.89c3.44-0.89,8.7-0.97,8.7,6.84c0,11.6,0,40.59,0,40.59h23.19v-69.58L925.21-128.29z"/>
	</g>
	<g>
		<path class="st0" d="M707.76-169.11v0.87c3-0.82,7.61-1.13,8.7,4.2v8.7l17.4-11.6v-20.3L707.76-169.11z"/>
		<path class="st0" d="M701.96-128.29v0.89c3.44-0.89,8.7-0.97,8.7,6.84c0,11.6,0,40.59,0,40.59h23.19v-69.58L701.96-128.29z"/>
	</g>
	<path class="st0" d="M574.51-91.57l-0.12-46.39l-23.19-11.6l-34.79,23.19v28.99c0,0,0,18.9,20.38,18.9
		c14.45,0,17.09-6.55,17.09-6.55s0.46,5.05,3.11,5.05c5.42,0,18.62,0,20.3,0v-2.91C574.39-82.88,574.51-91.57,574.51-91.57z
		 M551.2-94.47c0,0,0.12,5.8-5.68,5.8s-5.92-5.8-5.92-5.8v-46.39l11.6,5.8V-94.47z"/>
	<path class="st0" d="M1171.65-149.55l-20.3,12.92v-62.2l-31.89,21.26v0.89c3.44-0.89,8.7-0.97,8.7,6.84c0,11.6,0,89.88,0,89.88
		h23.19v-51.83c5.8-1.81,11.6-1.81,11.6,5.44v46.39h23.19v-46.39h5.8L1171.65-149.55z"/>
	<path class="st0" d="M696.16-129.26l-17.4-20.3l-23.19,17.37v-55.06l-31.89,18.36v0.59c3.43-0.91,8.79-1.07,8.79,6.82
		c0,11.6-0.1,81.5-0.1,81.5h23.19v-27.34c11.59,2.15,11.6,15.75,11.6,15.75v11.6l23.19-0.14c0-28.94-23.19-28.85-23.19-28.85h-11.31
		l34.5-20.3H696.16z M655.57-110.44v-18.94c3.75-1.3,9.45-2.13,11.6,3.03C669.48-120.82,663.1-115.98,655.57-110.44z"/>
	<path class="st0" d="M583.09-177.58v0.89c3.44-0.89,8.7-0.97,8.7,6.84c0,11.6,0,89.88,0,89.88h23.19v-118.87L583.09-177.58z"/>
	<path class="st0" d="M1235.43-110.9l23.19-15.46v-11.6l-23.19-11.6l-34.79,23.19v20.3c0,26.09,23.19,27.29,23.19,27.29h11.6
		c23.19,0,23.19-24.39,23.19-24.39h-23.19v8.7c0,0,0,5.8-5.8,5.8c-5.8,0-5.8-5.8-5.8-5.8v-16.42L1235.43-110.9z M1235.43-135.06
		v14.49c0,5.65-11.6,5.81-11.6,5.81v-26.09L1235.43-135.06z"/>
	<path class="st0" d="M1348.83-87.97c-1.8,3.31-6.1,5.43-9.52,6.65l27.53-47.44c3.79-6.55,10.18-2.69,10.18-2.69l-15.39-18.11
		l-13.73,5.85c-11.63,0.23-22.76-5.83-22.76-5.83l-14.33,26.36l14.7,8l11.2-20.58c1.9-3.5,6.78-5.53,10.42-6.61l-36.2,62.4h52.59
		l11.2-20.58l-14.7-8L1348.83-87.97z"/>
	<path class="st0" d="M1107.86-149.55v-37.69l-26.09,18.13v0.87c3-0.82,7.61-1.13,8.7,4.2v5.8c0,11.86-17.4,11.86-17.4,11.86v2.64
		h11.72v63.78h23.5c0.03-5.4,0.05-49.59,0.05-55.09c0-11.86,11.6-11.6,11.6-11.6v-2.9H1107.86z"/>
	<path class="st0" d="M496.64-149.02l-14,14c0,0,16.23,11.44,13.54,22.98l-5.84,23.37l-14.5-20.3v-31.89l-11.6-8.7l-20.33,10.16
		v0.59c3.43-0.48,8.73,0.68,8.73,12.44h0.04l-0.03,14.5l-0.05,0c0,0.02,0.02,0.03,0.05,0.04l-0.02,8.66l4.87,6.49l-2,8.01
		l-14.5-20.3v-31.89l-11.6-8.7l-20.3,10.15v0.6c3.44-0.47,8.7,0.72,8.7,12.44h0.04l-0.04,23.19l17.4,23.19l24.02-0.11l3.07-10.19
		l7.73,10.31l24.02-0.11l16.54-54.87L496.64-149.02z"/>
	<path class="st0" d="M1487.67-149.55l-34.79,23.19v24.58c0,0,0,23.19,23.19,23.19h5.8h5.8c23.19,0,23.19-23.19,23.19-23.19v-36.17
		L1487.67-149.55z M1487.67-93.09c0,0,0,5.8-5.8,5.8c-5.8,0-5.8-5.8-5.8-5.8v-47.77l11.6,5.8V-93.09z"/>
	<path class="st0" d="M1418.09-149.55l-34.79,23.19v24.58c0,0,0,23.19,23.19,23.19h5.8h5.8c23.19,0,23.19-23.19,23.19-23.19v-36.17
		L1418.09-149.55z M1418.09-93.09c0,0,0,5.8-5.8,5.8s-5.8-5.8-5.8-5.8v-47.77l11.6,5.8V-93.09z"/>
</g>
<g>
	<path class="st0" d="M426.29,319.65l-23.19,8.7l-11.6-8.7l-20.3,10.15v0.6c3.44-0.47,8.7,0.72,8.7,12.44v46.39h23.19v-57.99
		c11.6-2.9,11.6,5.8,11.6,5.8v52.19h23.19v-57.99L426.29,319.65z"/>
	<path class="st0" d="M794.5,319.65l-23.19,8.7l-11.6-8.7l-20.3,10.15v0.6c3.44-0.47,8.7,0.72,8.7,12.44v46.39h23.19v-57.99
		c11.6-2.9,11.6,5.8,11.6,5.8v52.19h23.19v-57.99L794.5,319.65z"/>
	<path class="st0" d="M362.63,377.63l-0.12-46.39l-23.19-11.6l-34.79,23.19v28.99c0,0,0,18.9,20.38,18.9
		c14.45,0,17.09-6.55,17.09-6.55s0.46,5.05,3.11,5.05c5.42,0,18.62,0,20.3,0v-2.91C362.51,386.32,362.63,377.63,362.63,377.63z
		 M339.31,374.73c0,0,0.12,5.8-5.68,5.8s-5.92-5.8-5.92-5.8v-46.39l11.6,5.8V374.73z"/>
	<path class="st0" d="M945.74,319.65l-20.3,12.92v-62.2l-31.89,21.26v0.89c3.44-0.89,8.7-0.97,8.7,6.84c0,11.6,0,89.88,0,89.88
		h23.19V337.4c5.8-1.81,11.6-1.81,11.6,5.44v46.39h23.19v-46.39h5.8L945.74,319.65z"/>
	<path class="st0" d="M478.48,291.62v0.89c3.44-0.89,8.7,1.93,8.7,9.74c0,8.28,0,25.13,0,25.13l-11.6-7.73l-23.19,11.6l0,40.59
		c0,0-0.12,18.9,20.27,18.9c14.45,0,14.52-10.2,14.52-10.2l0,0c0,2.78,0,5.68,0,8.7h23.19V270.36L478.48,291.62z M487.18,360.24
		c0,4.42,0,9.23,0,14.5c0,0,0,5.8-5.8,5.8c-5.8,0-5.8-5.8-5.8-5.8v-14.5v-4.77h0v-21.32l11.6-5.8c0,6.35,0,14.94,0,27.12
		C487.18,357,487.18,358.59,487.18,360.24z"/>
	<path class="st0" d="M1006.63,358.3l23.19-15.46v-11.6l-23.19-11.6l-34.79,23.19v20.3c0,26.09,23.19,27.29,23.19,27.29h11.6
		c23.19,0,23.19-24.39,23.19-24.39h-23.19v8.7c0,0,0,5.8-5.8,5.8s-5.8-5.8-5.8-5.8v-16.42L1006.63,358.3z M1006.63,334.14v14.49
		c0,5.65-11.6,5.81-11.6,5.81v-26.09L1006.63,334.14z"/>
	<path class="st0" d="M1139.99,358.3l23.19-15.46v-11.6l-23.19-11.6l-34.79,23.19v20.3c0,26.09,23.19,27.29,23.19,27.29h11.6
		c23.19,0,23.19-24.39,23.19-24.39h-23.19v8.7c0,0,0,5.8-5.8,5.8s-5.8-5.8-5.8-5.8v-16.42L1139.99,358.3z M1139.99,334.14v14.49
		c0,5.65-11.6,5.81-11.6,5.81v-26.09L1139.99,334.14z"/>
	<path class="st0" d="M1087.67,326.44l-20.16,20.16v-26.95l-31.89,21.26v0.89c3.44-0.89,8.7-0.97,8.7,6.84c0,11.6,0,40.59,0,40.59
		h23.19V352.3c1-1.62,7.44-10.67,20.26,2.14l14-14L1087.67,326.44z"/>
	<path class="st0" d="M1348.74,358.3l23.19-15.46v-11.6l-23.19-11.6l-34.79,23.19v20.3c0,26.09,23.19,27.29,23.19,27.29h11.6
		c23.19,0,23.19-24.39,23.19-24.39h-23.19v8.7c0,0,0,5.8-5.8,5.8c-5.8,0-5.8-5.8-5.8-5.8v-16.42L1348.74,358.3z M1348.74,334.14
		v14.49c0,5.65-11.6,5.81-11.6,5.81v-26.09L1348.74,334.14z"/>
	<path class="st0" d="M1482.11,358.3l23.19-15.46v-11.6l-23.19-11.6l-34.79,23.19v20.3c0,26.09,23.19,27.29,23.19,27.29h11.6
		c23.19,0,23.19-24.39,23.19-24.39h-23.19v8.7c0,0,0,5.8-5.8,5.8s-5.8-5.8-5.8-5.8v-16.42L1482.11,358.3z M1482.11,334.14v14.49
		c0,5.65-11.6,5.81-11.6,5.81v-26.09L1482.11,334.14z"/>
	<path class="st0" d="M1429.78,326.44l-20.16,20.16v-26.95l-31.89,21.26v0.89c3.44-0.89,8.7-0.97,8.7,6.84c0,11.6,0,40.59,0,40.59
		h23.19V352.3c1-1.62,7.44-10.67,20.26,2.14l14-14L1429.78,326.44z"/>
	<path class="st0" d="M881.48,319.65v-37.69l-26.09,18.13v0.87c3-0.82,7.61-1.13,8.7,4.2v5.8c0,11.86-17.4,11.86-17.4,11.86v2.64
		h11.72v63.78h23.5c0.03-5.4,0.05-49.59,0.05-55.09c0-11.86,11.6-11.6,11.6-11.6v-2.9H881.48z"/>
	<path class="st0" d="M649.54,319.65l-20.3,12.92v-62.2l-31.89,21.26v0.89c3.44-0.89,8.7-0.97,8.7,6.84c0,11.6,0,89.88,0,89.88
		h23.19V337.4c5.8-1.81,11.6-1.81,11.6,5.44v46.39h23.19v-46.39h5.8L649.54,319.65z"/>
	<path class="st0" d="M710.42,358.3l23.19-15.46v-11.6l-23.19-11.6l-34.79,23.19v20.3c0,26.09,23.19,27.29,23.19,27.29h11.6
		c23.19,0,23.19-24.39,23.19-24.39h-23.19v8.7c0,0,0,5.8-5.8,5.8c-5.8,0-5.8-5.8-5.8-5.8v-16.42L710.42,358.3z M710.42,334.14v14.49
		c0,5.65-11.6,5.81-11.6,5.81v-26.09L710.42,334.14z"/>
	<path class="st0" d="M585.28,319.65v-37.69l-26.09,18.13v0.87c3-0.82,7.61-1.13,8.7,4.2v5.8c0,11.86-17.4,11.86-17.4,11.86v2.64
		h11.72v63.78h23.5c0.03-5.4,0.05-49.59,0.05-55.09c0-11.86,11.6-11.6,11.6-11.6v-2.9H585.28z"/>
	<path class="st0" d="M1294.19,320.18l-14,14c0,0,16.23,11.44,13.54,22.98l-5.84,23.37l-14.5-20.3v-31.89l-11.6-8.7l-20.33,10.16
		v0.59c3.43-0.48,8.73,0.68,8.73,12.44h0.04l-0.03,14.5l-0.05,0c0,0.02,0.02,0.03,0.05,0.04l-0.02,8.66l4.87,6.49l-2,8.01
		l-14.5-20.3v-31.89l-11.6-8.7l-20.3,10.15v0.6c3.44-0.47,8.7,0.72,8.7,12.44h0.04l-0.04,23.19l17.4,23.19l24.02-0.11l3.07-10.19
		l7.73,10.31l24.02-0.11l16.54-54.87L1294.19,320.18z"/>
	<path class="st0" d="M1615.48,310.95v-17.4l-23.19-11.6l-34.79,23.19v20.3h23.19v-34.79l11.6,5.8v26.09c0,0,0,8.7-5.8,8.7v8.7
		c5.8,0,5.8,8.7,5.8,8.7v26.41c0,0,0,5.8-5.8,5.8s-5.8-5.8-5.8-5.8v-23.19h-23.19v14.5c0,0,0,24.72,23.19,24.72h11.6
		c23.19,0,23.2-24.72,23.2-24.72v-14.81c0,0,0-9.23-8.78-15.95C1615.48,328.88,1615.48,310.95,1615.48,310.95z"/>
</g>
<g>
	<g>
		<path class="st0" d="M1055.68-403.68v0.87c3-0.82,7.61-1.13,8.7,4.2v8.7l17.4-11.6v-20.3L1055.68-403.68z"/>
		<path class="st0" d="M1049.88-362.86v0.89c3.44-0.89,8.7-0.97,8.7,6.84c0,11.6,0,40.59,0,40.59h23.19v-69.58L1049.88-362.86z"/>
	</g>
	<g>
		<path class="st0" d="M533.8-403.68v0.87c3-0.82,7.61-1.13,8.7,4.2v8.7l17.4-11.6v-20.3L533.8-403.68z"/>
		<path class="st0" d="M528-362.86v0.89c3.44-0.89,8.7-0.97,8.7,6.84c0,11.6,0,40.59,0,40.59h23.19v-69.58L528-362.86z"/>
	</g>
	<path class="st0" d="M936.81-412.15v0.89c3.44-0.89,8.7-0.97,8.7,6.84c0,11.6,0,89.88,0,89.88h23.19v-118.87L936.81-412.15z"/>
	<path class="st0" d="M487.41-412.15v0.89c3.44-0.89,8.7-0.97,8.7,6.84c0,11.6,0,89.88,0,89.88h23.19v-118.87L487.41-412.15z"/>
	<path class="st0" d="M646.88-412.15v0.89c3.44-0.89,8.7-0.97,8.7,6.84c0,11.6,0,89.88,0,89.88h23.19v-118.87L646.88-412.15z"/>
	<path class="st0" d="M1009.29-412.15v0.89c3.44-0.89,8.7,1.93,8.7,9.74c0,8.28,0,25.13,0,25.13l-11.6-7.73l-23.19,11.6l0,40.59
		c0,0-0.12,18.9,20.27,18.9c14.45,0,14.52-10.2,14.52-10.2l0,0c0,2.78,0,5.68,0,8.7h23.19v-118.87L1009.29-412.15z M1017.99-343.53
		c0,4.42,0,9.23,0,14.5c0,0,0,5.8-5.8,5.8c-5.8,0-5.8-5.8-5.8-5.8v-14.5v-4.77h0v-21.32l11.6-5.8c0,6.35,0,14.94,0,27.12
		C1017.99-346.76,1017.99-345.17,1017.99-343.53z"/>
	<path class="st0" d="M1313.71-384.12l-11.6,7.73v-57.02l-31.89,21.26v0.89c3.44-0.89,8.7,1.93,8.7,9.74c0,6.43,0,86.98,0,86.98
		h23.19v-8.7l0,0c0,0,0.07,10.2,14.52,10.2c20.38,0,20.27-18.9,20.27-18.9l0-40.59L1313.71-384.12z M1313.71-329.03
		c0,0,0,5.8-5.8,5.8c-5.8,0-5.8-5.8-5.8-5.8v-46.39l11.6,5.8L1313.71-329.03z"/>
	<path class="st0" d="M1131.06-345.46l23.19-15.46v-11.6l-23.19-11.6l-34.79,23.19v20.3c0,26.09,23.19,27.29,23.19,27.29h11.6
		c23.19,0,23.19-24.39,23.19-24.39h-23.19v8.7c0,0,0,5.8-5.8,5.8s-5.8-5.8-5.8-5.8v-16.42L1131.06-345.46z M1131.06-369.62v14.49
		c0,5.65-11.6,5.81-11.6,5.81v-26.09L1131.06-369.62z"/>
	<path class="st0" d="M728.06-345.46l23.19-15.46v-11.6l-23.19-11.6l-34.79,23.19v20.3c0,26.09,23.19,27.29,23.19,27.29h11.6
		c23.19,0,23.19-24.39,23.19-24.39h-23.19v8.7c0,0,0,5.8-5.8,5.8s-5.8-5.8-5.8-5.8v-16.42L728.06-345.46z M728.06-369.62v14.49
		c0,5.65-11.6,5.81-11.6,5.81v-26.09L728.06-369.62z"/>
	<path class="st0" d="M1458.68-384.12v57.99c-11.6,2.9-11.6-5.8-11.6-5.8v-43.49v-0.97l-23.19,15.46v34.79l11.6,11.6l23.19-8.7
		v40.59c0,0,0,5.8-5.8,5.8c-5.8,0-5.8-5.8-5.8-5.8v-17.4h-23.19v8.7c0,0,0,23.19,23.19,23.19h5.8h5.8
		c23.19,0,23.19-23.19,23.19-23.19v-81.18L1458.68-384.12z"/>
	<path class="st0" d="M1554.36-366.72v-5.8l-23.19-11.6l-34.79,23.19v2.9c0,14.5,14.5,14.5,14.5,14.5h14.5c5.8,0,5.8,5.8,5.8,5.8
		v8.7c0,0,0,5.8-5.8,5.8s-5.8-5.8-5.8-5.8l0-7.13h0v-1.56h-23.19v1.46h0c0,23.19,23.19,23.24,23.19,23.24h11.6
		c23.19,0,23.2-17.44,23.2-17.44l0-4.36c0-14.5-14.5-14.5-14.5-14.5h-14.5c-5.8,0-5.8-5.8-5.8-5.8v-20.3l11.6,2.9v18.85
		L1554.36-366.72z"/>
	<path class="st0" d="M861.42-366.72v-5.8l-23.19-11.6l-34.79,23.19v2.9c0,14.5,14.5,14.5,14.5,14.5h14.5c5.8,0,5.8,5.8,5.8,5.8v8.7
		c0,0,0,5.8-5.8,5.8s-5.8-5.8-5.8-5.8l0-7.13h0v-1.56h-23.19v1.46h0c0,23.19,23.19,23.24,23.19,23.24h11.6
		c23.19,0,23.2-17.44,23.2-17.44l0-4.36c0-14.5-14.5-14.5-14.5-14.5h-14.5c-5.8,0-5.8-5.8-5.8-5.8v-20.3l11.6,2.9v18.85
		L861.42-366.72z"/>
	<path class="st0" d="M1212.1-377.33l-20.16,20.16v-26.95l-31.89,21.26v0.89c3.44-0.89,8.7-0.97,8.7,6.84c0,11.6,0,40.59,0,40.59
		h23.19v-36.93c1-1.62,7.44-10.67,20.26,2.14l14-14L1212.1-377.33z"/>
	<path class="st0" d="M637.7-384.12v-37.69l-26.09,18.13v0.87c3-0.82,7.61-1.13,8.7,4.2v2.9c0,11.11-15.26,11.58-17.19,11.6h-3.1
		v-37.69l-26.09,18.13v0.87c3-0.82,7.61-1.13,8.7,4.2v5.8c0,11.86-17.4,11.6-17.4,11.6v2.9h11.72v63.78h23.5
		c0.03-5.4,0.05-49.59,0.05-55.09c0-11.11,10.18-11.58,11.46-11.6h2.68v66.68h23.5c0.03-5.4,0.05-49.59,0.05-55.09
		c0-11.86,11.6-11.6,11.6-11.6v-2.9H637.7z"/>
	<path class="st0" d="M1386.2-384.12l-34.79,23.19v24.58c0,0,0,23.19,23.19,23.19h5.8h5.8c23.19,0,23.19-23.19,23.19-23.19v-36.17
		L1386.2-384.12z M1386.2-327.65c0,0,0,5.8-5.8,5.8s-5.8-5.8-5.8-5.8v-47.77l11.6,5.8V-327.65z"/>
	<path class="st0" d="M907.81-385.5l-34.79,23.19v24.58c0,0,0,23.19,23.19,23.19h5.8h5.8c23.19,0,23.19-23.19,23.19-23.19v-36.17
		L907.81-385.5z M907.81-329.03c0,0,0,5.8-5.8,5.8c-5.8,0-5.8-5.8-5.8-5.8v-47.77l11.6,5.8V-329.03z"/>
	<path class="st0" d="M432.33-352.23v-61.2l-11.6-8.7l-20.3,10.15v1.43c3.44,0.6,8.7,3.74,8.7,17.41v46.7l-11.6-5.8v-17.71v-17.4
		l-11.6-8.7l-20.3,10.15v1.23c3.44,0.18,8.7,2.05,8.7,11.82v23.51l23.19,11.6l11.6-7.73v30.93h23.19v-23.19l11.6-7.73v-0.97
		L432.33-352.23z"/>
</g>
<g>
	<path class="st0" d="M1544.21,84.9l-23.19,8.7l-11.6-8.7l-20.3,10.15v0.6c3.44-0.47,8.7,0.72,8.7,12.44v46.39h23.19V96.5
		c11.6-2.9,11.6,5.8,11.6,5.8v52.19h23.19V96.5L1544.21,84.9z"/>
	<path class="st0" d="M1132.51,84.9l-34.79,23.19v34.79l11.6,11.6l23.19-8.7v40.59c0,0,0,5.8-5.8,5.8s-5.8-5.8-5.8-5.8v-17.4h-23.19
		v8.7c0,0,0,23.19,23.19,23.19h11.6c23.19,0,23.19-23.19,23.19-23.19v-46.39V96.5L1132.51,84.9z M1132.51,142.89
		c-11.6,2.9-11.6-5.8-11.6-5.8V93.6l11.6,5.8V142.89z"/>
	<path class="st0" d="M1204.99,84.9l-34.79,23.19v34.79l11.6,11.6l23.19-8.7v40.59c0,0,0,5.8-5.8,5.8s-5.8-5.8-5.8-5.8v-17.4h-23.19
		v8.7c0,0,0,23.19,23.19,23.19h11.6c23.19,0,23.19-23.19,23.19-23.19v-46.39V96.5L1204.99,84.9z M1204.99,142.89
		c-11.6,2.9-11.6-5.8-11.6-5.8V93.6l11.6,5.8V142.89z"/>
	<g>
		<path class="st0" d="M474.37,65.34v0.87c3-0.82,7.61-1.13,8.7,4.2v8.7l17.4-11.6v-20.3L474.37,65.34z"/>
		<path class="st0" d="M468.57,106.16v0.89c3.44-0.89,8.7-0.97,8.7,6.84c0,11.6,0,40.59,0,40.59h23.19V84.9L468.57,106.16z"/>
	</g>
	<path class="st0" d="M825.84,142.89l-0.12-46.39l-23.19-11.6l-34.79,23.19v28.99c0,0,0,18.9,20.38,18.9
		c14.45,0,17.09-6.55,17.09-6.55s0.46,5.05,3.11,5.05c5.42,0,18.62,0,20.3,0v-2.91C825.72,151.57,825.84,142.89,825.84,142.89z
		 M802.52,139.99c0,0,0.12,5.8-5.68,5.8s-5.92-5.8-5.92-5.8V93.6l11.6,5.8V139.99z"/>
	<path class="st0" d="M349.82,142.89L349.7,96.5L326.5,84.9l-34.79,23.19v28.99c0,0,0,18.9,20.38,18.9
		c14.45,0,17.09-6.55,17.09-6.55s0.46,5.05,3.11,5.05c5.42,0,18.62,0,20.3,0v-2.91C349.7,151.57,349.82,142.89,349.82,142.89z
		 M326.5,139.99c0,0,0.12,5.8-5.68,5.8s-5.92-5.8-5.92-5.8V93.6l11.6,5.8V139.99z"/>
	<path class="st0" d="M996.24,84.9l-20.3,12.92v-62.2l-31.89,21.26v0.89c3.44-0.89,8.7-0.97,8.7,6.84c0,11.6,0,89.88,0,89.88h23.19
		v-51.83c5.8-1.81,11.6-1.81,11.6,5.44v46.39h23.19v-46.39h5.8L996.24,84.9z"/>
	<path class="st0" d="M1338.36,56.87v0.89c3.44-0.89,8.7,1.93,8.7,9.74c0,8.28,0,25.13,0,25.13l-11.6-7.73l-23.19,11.6l0,40.59
		c0,0-0.12,18.9,20.27,18.9c14.45,0,14.53-10.2,14.53-10.2l0,0c0,2.78,0,5.68,0,8.7h23.19V35.61L1338.36,56.87z M1347.06,125.49
		c0,4.42,0,9.23,0,14.5c0,0,0,5.8-5.8,5.8s-5.8-5.8-5.8-5.8v-14.5v-4.77h0V99.4l11.6-5.8c0,6.35,0,14.94,0,27.12
		C1347.06,122.26,1347.06,123.85,1347.06,125.49z"/>
	<path class="st0" d="M436.68,84.9l-11.6,7.73V35.61l-31.89,21.26v0.89c3.44-0.89,8.7,1.93,8.7,9.74c0,6.43,0,86.98,0,86.98h23.19
		v-8.7l0,0c0,0,0.07,10.2,14.52,10.2c20.38,0,20.27-18.9,20.27-18.9l0-40.59L436.68,84.9z M436.68,139.99c0,0,0,5.8-5.8,5.8
		c-5.8,0-5.8-5.8-5.8-5.8V93.6l11.6,5.8L436.68,139.99z"/>
	<path class="st0" d="M732.4,123.56l23.19-15.46V96.5L732.4,84.9l-34.79,23.19v20.3c0,26.09,23.19,27.29,23.19,27.29h11.6
		c23.19,0,23.19-24.39,23.19-24.39H732.4v8.7c0,0,0,5.8-5.8,5.8c-5.8,0-5.8-5.8-5.8-5.8v-16.42L732.4,123.56z M732.4,99.4v14.49
		c0,5.65-11.6,5.81-11.6,5.81V93.6L732.4,99.4z"/>
	<path class="st0" d="M1605.09,123.56l23.19-15.46V96.5l-23.19-11.6l-34.79,23.19v20.3c0,26.09,23.19,27.29,23.19,27.29h11.6
		c23.19,0,23.19-24.39,23.19-24.39h-23.19v8.7c0,0,0,5.8-5.8,5.8c-5.8,0-5.8-5.8-5.8-5.8v-16.42L1605.09,123.56z M1605.09,99.4
		v14.49c0,5.65-11.6,5.81-11.6,5.81V93.6L1605.09,99.4z"/>
	<path class="st0" d="M1277.47,123.56l23.19-15.46V96.5l-23.19-11.6l-34.79,23.19v20.3c0,26.09,23.19,27.29,23.19,27.29h11.6
		c23.19,0,23.19-24.39,23.19-24.39h-23.19v8.7c0,0,0,5.8-5.8,5.8s-5.8-5.8-5.8-5.8v-16.42L1277.47,123.56z M1277.47,99.4v14.49
		c0,5.65-11.6,5.81-11.6,5.81V93.6L1277.47,99.4z"/>
	<path class="st0" d="M1083.22,96.5l-23.19-11.59l0.07,55.09c0,0,0,5.8-5.8,5.8s-5.8-5.8-5.8-5.8l-0.07-47.36l-23.19,15.46l0.07,29
		c0,0-0.12,18.9,20.27,18.9c14.45,0,14.53-10.2,14.53-10.2l0,0v8.7h23.19L1083.22,96.5z"/>
	<path class="st0" d="M886.46,91.69l-20.16,20.16V84.9l-31.89,21.26v0.89c3.44-0.89,8.7-0.97,8.7,6.84c0,11.6,0,40.59,0,40.59h23.19
		v-36.93c1-1.62,7.44-10.67,20.26,2.14l14-14L886.46,91.69z"/>
	<path class="st0" d="M1457.23,84.9l-34.79,23.19v24.58c0,0,0,23.19,23.19,23.19h5.8h5.8c23.19,0,23.19-23.19,23.19-23.19V96.5
		L1457.23,84.9z M1457.23,141.37c0,0,0,5.8-5.8,5.8s-5.8-5.8-5.8-5.8V93.6l11.6,5.8V141.37z"/>
	<path class="st0" d="M549.75,84.9l-34.79,23.19v34.79l11.6,11.6l23.19-8.7v40.59c0,0,0,5.8-5.8,5.8s-5.8-5.8-5.8-5.8v-17.4h-23.19
		v8.7c0,0,0,23.19,23.19,23.19h11.6c23.19,0,23.19-23.19,23.19-23.19v-46.39V96.5L549.75,84.9z M549.75,142.89
		c-11.6,2.9-11.6-5.8-11.6-5.8V93.6l11.6,5.8V142.89z"/>
	<path class="st0" d="M659.92,84.9l-11.6,7.73V35.61l-31.89,21.26v0.89c3.44-0.89,8.7,1.93,8.7,9.74c0,6.43,0,86.98,0,86.98h23.19
		v-8.7l0,0c0,0,0.07,10.2,14.52,10.2c20.38,0,20.27-18.9,20.27-18.9l0-40.59L659.92,84.9z M659.92,139.99c0,0,0,5.8-5.8,5.8
		c-5.8,0-5.8-5.8-5.8-5.8V93.6l11.6,5.8L659.92,139.99z"/>
</g>
<g class="st1">
	<g class="st2">
		<line class="st3" x1="1.11" y1="-79.97" x2="1918.76" y2="-79.97"/>
		<line class="st3" x1="1.11" y1="-33.58" x2="1918.76" y2="-33.58"/>
		<line class="st3" x1="1.11" y1="-149.55" x2="1918.76" y2="-149.55"/>
		<line class="st3" x1="1.11" y1="-198.84" x2="1918.76" y2="-198.84"/>
		<line class="st3" x1="1.11" y1="-187.24" x2="1918.76" y2="-187.24"/>
	</g>
	<rect x="1995.18" y="-33.58" class="st4" width="47.91" height="67.16"/>
	<g class="st2">
		<line class="st3" x1="1.11" y1="154.6" x2="1918.76" y2="154.6"/>
		<line class="st3" x1="1.11" y1="200.98" x2="1918.76" y2="200.98"/>
		<line class="st3" x1="1.11" y1="85.01" x2="1918.76" y2="85.01"/>
		<line class="st3" x1="1.11" y1="35.72" x2="1918.76" y2="35.72"/>
		<line class="st3" x1="1.11" y1="47.32" x2="1918.76" y2="47.32"/>
	</g>
	<rect x="1995.18" y="200.98" class="st4" width="47.91" height="67.16"/>
	<g class="st2">
		<line class="st3" x1="1.11" y1="389.16" x2="1918.76" y2="389.16"/>
		<line class="st3" x1="1.11" y1="435.55" x2="1918.76" y2="435.55"/>
		<line class="st3" x1="1.11" y1="319.58" x2="1918.76" y2="319.58"/>
		<line class="st3" x1="1.11" y1="270.29" x2="1918.76" y2="270.29"/>
		<line class="st3" x1="1.11" y1="281.89" x2="1918.76" y2="281.89"/>
	</g>
	<rect x="1995.18" y="435.55" class="st4" width="47.91" height="67.16"/>
</g>
<g>
	<path class="st0" d="M-711.01-1429.28l-23.19,8.7l-11.6-8.7l-20.3,10.15v0.6c3.44-0.47,8.7,0.72,8.7,12.44v46.39h23.19v-57.99
		c11.6-2.9,11.6,5.8,11.6,5.8v52.19h23.19v-57.99L-711.01-1429.28z"/>
	<path class="st0" d="M-2066.49-1404.28l-8.9-18.2l-6.25-3.2l-7.03-3.6l-16.61,16.99c0,0,6.64-3.4,9.97,3.4l14.25,29.15
		c-1.95,1.07-4.23,1.93-6.51,1.93h-15.1v18.12h15.1l8.25-16.49l8.06,16.49h26.58l-20.76-42.47c2.29-1.57,5.43-3.19,8.56-3.19h15.1
		v-18.12h-15.1L-2066.49-1404.28z"/>
	<path class="st0" d="M-2160.66-1411.88v-5.8l-23.19-11.6l-34.79,23.19v2.9c0,14.5,14.5,14.5,14.5,14.5h14.5c5.8,0,5.8,5.8,5.8,5.8
		v8.7c0,0,0,5.8-5.8,5.8s-5.8-5.8-5.8-5.8l0-7.13h0v-1.56h-23.19v1.46h0c0,23.19,23.19,23.24,23.19,23.24h11.6
		c23.19,0,23.2-17.44,23.2-17.44l0-4.36c0-14.5-14.5-14.5-14.5-14.5h-14.5c-5.8,0-5.8-5.8-5.8-5.8v-20.3l11.6,2.9v18.85
		L-2160.66-1411.88z"/>
	<path class="st0" d="M-1847.53-1429.28l-34.79,23.19v34.79l11.6,11.6l23.19-8.7v40.59c0,0,0,5.8-5.8,5.8c-5.8,0-5.8-5.8-5.8-5.8
		v-17.4h-23.19v8.7c0,0,0,23.19,23.19,23.19h11.6c23.19,0,23.19-23.19,23.19-23.19v-46.39v-34.79L-1847.53-1429.28z
		 M-1847.53-1371.29c-11.6,2.9-11.6-5.8-11.6-5.8v-43.49l11.6,5.8V-1371.29z"/>
	<g>
		<path class="st0" d="M-1560.5-1448.84v0.87c3-0.82,7.61-1.13,8.7,4.2v8.7l17.4-11.6v-20.3L-1560.5-1448.84z"/>
		<path class="st0" d="M-1566.3-1408.01v0.89c3.44-0.89,8.7-0.97,8.7,6.84c0,11.6,0,40.59,0,40.59h23.19v-69.58L-1566.3-1408.01z"/>
	</g>
	<g>
		<path class="st0" d="M-1922.92-1448.84v0.87c3-0.82,7.61-1.13,8.7,4.2v8.7l17.4-11.6v-20.3L-1922.92-1448.84z"/>
		<path class="st0" d="M-1928.72-1408.01v0.89c3.44-0.89,8.7-0.97,8.7,6.84c0,11.6,0,40.59,0,40.59h23.19v-69.58L-1928.72-1408.01z"
			/>
	</g>
	<g>
		<path class="st0" d="M-2146.16-1448.84v0.87c3-0.82,7.61-1.13,8.7,4.2v8.7l17.4-11.6v-20.3L-2146.16-1448.84z"/>
		<path class="st0" d="M-2151.96-1408.01v0.89c3.44-0.89,8.7-0.97,8.7,6.84c0,11.6,0,40.59,0,40.59h23.19v-69.58L-2151.96-1408.01z"
			/>
	</g>
	<g>
		<path class="st0" d="M-1021.23-1448.84v0.87c3-0.82,7.61-1.13,8.7,4.2v8.7l17.4-11.6v-20.3L-1021.23-1448.84z"/>
		<path class="st0" d="M-1027.03-1407.13c3.44-0.89,8.7-0.97,8.7,6.84c0,0.47,0,72.48,0,72.48s0,5.8-5.8,5.8c-5.8,0-5.8-5.8-5.8-5.8
			v-17.4h-23.19v8.7c0,0,0,23.19,23.19,23.19h11.6c23.19,0,23.19-23.19,23.19-23.19v-92.78l-31.89,21.26V-1407.13z"/>
	</g>
	<path class="st0" d="M-774.67-1371.29l-0.12-46.39l-23.19-11.6l-34.79,23.19v28.99c0,0,0,18.9,20.38,18.9
		c14.45,0,17.09-6.55,17.09-6.55s0.46,5.05,3.11,5.05c5.42,0,18.62,0,20.3,0v-2.91C-774.79-1362.6-774.67-1371.29-774.67-1371.29z
		 M-797.99-1374.19c0,0,0.12,5.8-5.68,5.8c-5.8,0-5.92-5.8-5.92-5.8v-46.39l11.6,5.8V-1374.19z"/>
	<path class="st0" d="M-922.54-1371.29l-0.12-46.39l-23.19-11.6l-34.79,23.19v28.99c0,0,0,18.9,20.38,18.9
		c14.45,0,17.09-6.55,17.09-6.55s0.46,5.05,3.11,5.05c5.42,0,18.62,0,20.3,0v-2.91C-922.66-1362.6-922.54-1371.29-922.54-1371.29z
		 M-945.85-1374.19c0,0,0.12,5.8-5.68,5.8c-5.8,0-5.92-5.8-5.92-5.8v-46.39l11.6,5.8V-1374.19z"/>
	<path class="st0" d="M-1343.06-1409.12v-57.85l11.6,5.8v20.3l11.6,8.7l20.3-10.15v-0.6c-3.44,0.47-8.7-0.72-8.7-12.44v-8.7
		l-23.19-11.6l-43.49,28.99v0.89c3.44-0.89,8.7-0.97,8.7,6.84c0,1.77,0,79.25,0,79.25h23.19v-43.73c1-1.62,7.44-10.67,20.26,2.14
		l14-14l-14.1-14L-1343.06-1409.12z"/>
	<path class="st0" d="M-1525.71-1457.3v0.89c3.44-0.89,8.7-0.97,8.7,6.84c0,11.6,0,89.88,0,89.88h23.19v-118.87L-1525.71-1457.3z"/>
	<path class="st0" d="M-1082.12-1429.28l-25.32,9.47l-9.47-9.47l-23.19,8.7l-11.6-8.7l-20.3,10.15v0.6c3.44-0.47,8.7,0.72,8.7,12.44
		v46.39h23.19v-57.99c11.6-2.9,11.6,5.8,11.6,5.8v52.19h23.19v-57.99c11.6-2.9,11.6,5.8,11.6,5.8v52.19h23.19v-57.99
		L-1082.12-1429.28z"/>
	<path class="st0" d="M-1748.96-1457.3v0.89c3.44-0.89,8.7,1.93,8.7,9.74c0,8.28,0,25.13,0,25.13l-11.6-7.73l-23.19,11.6l0,40.59
		c0,0-0.12,18.9,20.27,18.9c14.45,0,14.53-10.2,14.53-10.2l0,0c0,2.78,0,5.68,0,8.7h23.19v-118.87L-1748.96-1457.3z
		 M-1740.26-1388.68c0,4.42,0,9.23,0,14.5c0,0,0,5.8-5.8,5.8s-5.8-5.8-5.8-5.8v-14.5v-4.77h0v-21.32l11.6-5.8
		c0,6.35,0,14.94,0,27.12C-1740.26-1391.92-1740.26-1390.33-1740.26-1388.68z"/>
	<path class="st0" d="M-1960.61-1429.28l-11.6,7.73v-57.02l-31.89,21.26v0.89c3.44-0.89,8.7,1.93,8.7,9.74c0,6.43,0,86.98,0,86.98
		h23.19v-8.7l0,0c0,0,0.07,10.2,14.53,10.2c20.38,0,20.27-18.9,20.27-18.9l0-40.59L-1960.61-1429.28z M-1960.61-1374.19
		c0,0,0,5.8-5.8,5.8s-5.8-5.8-5.8-5.8v-46.39l11.6,5.8L-1960.61-1374.19z"/>
	<path class="st0" d="M-1667.78-1390.62l23.19-15.46v-11.6l-23.19-11.6l-34.79,23.19v20.3c0,26.09,23.19,27.29,23.19,27.29h11.6
		c23.19,0,23.19-24.39,23.19-24.39h-23.19v8.7c0,0,0,5.8-5.8,5.8s-5.8-5.8-5.8-5.8v-16.42L-1667.78-1390.62z M-1667.78-1414.78
		v14.49c0,5.65-11.6,5.81-11.6,5.81v-26.09L-1667.78-1414.78z"/>
	<path class="st0" d="M-1421.34-1411.88v-5.8l-23.19-11.6l-34.79,23.19v2.9c0,14.5,14.5,14.5,14.5,14.5h14.5c5.8,0,5.8,5.8,5.8,5.8
		v8.7c0,0,0,5.8-5.8,5.8s-5.8-5.8-5.8-5.8l0-7.13h0v-1.56h-23.19v1.46h0c0,23.19,23.19,23.24,23.19,23.24h11.6
		c23.19,0,23.2-17.44,23.2-17.44l0-4.36c0-14.5-14.5-14.5-14.5-14.5h-14.5c-5.8,0-5.8-5.8-5.8-5.8v-20.3l11.6,2.9v18.85
		L-1421.34-1411.88z"/>
	<path class="st0" d="M-870.47-1429.28l-11.6,7.73v-10.63l-31.89,21.26v0.89c3.44-0.89,8.7-0.97,8.7,6.84c0,3.04,0,89.88,0,89.88
		h23.19v-46.39h11.6c23.19,0,23.19-23.19,23.19-23.19v-34.79L-870.47-1429.28z M-870.47-1374.19c0,0,0,5.8-5.8,5.8s-5.8-5.8-5.8-5.8
		v-46.39l11.6,5.8V-1374.19z"/>
	<path class="st0" d="M-1255.68-1422.48l-20.16,20.16v-26.95l-31.89,21.26v0.89c3.44-0.89,8.7-0.97,8.7,6.84c0,11.6,0,40.59,0,40.59
		h23.19v-36.93c1-1.62,7.44-10.67,20.26,2.14l14-14L-1255.68-1422.48z"/>
	<path class="st0" d="M-1586.1-1428.74l-14,14c0,0,16.23,11.44,13.54,22.98l-5.84,23.37l-14.5-20.3v-31.89l-11.6-8.7l-20.3,10.15
		v0.6c3.44-0.47,8.7,0.72,8.7,12.44h0.04l-0.04,23.19l17.4,23.19l24.02-0.11l16.54-54.87L-1586.1-1428.74z"/>
	<path class="st0" d="M-1200.99-1429.28l-34.79,23.19v24.58c0,0,0,23.19,23.19,23.19h5.8h5.8c23.19,0,23.19-23.19,23.19-23.19
		v-36.17L-1200.99-1429.28z M-1200.99-1372.81c0,0,0,5.8-5.8,5.8c-5.8,0-5.8-5.8-5.8-5.8v-47.77l11.6,5.8V-1372.81z"/>
</g>
<g>
	<g>
		<path class="st0" d="M-2147.85-1216.41v0.87c3-0.82,7.61-1.13,8.7,4.2v8.7l17.4-11.6v-20.3L-2147.85-1216.41z"/>
		<path class="st0" d="M-2153.65-1175.59v0.89c3.44-0.89,8.7-0.97,8.7,6.84c0,11.6,0,40.59,0,40.59h23.19v-69.58L-2153.65-1175.59z"
			/>
	</g>
	<path class="st0" d="M-787.48-1138.87l-0.12-46.39l-23.19-11.6l-34.79,23.19v28.99c0,0,0,18.9,20.38,18.9
		c14.45,0,17.09-6.55,17.09-6.55s0.46,5.05,3.11,5.05c5.42,0,18.62,0,20.3,0v-2.91C-787.6-1130.18-787.48-1138.87-787.48-1138.87z
		 M-810.8-1141.77c0,0,0.12,5.8-5.68,5.8s-5.92-5.8-5.92-5.8v-46.39l11.6,5.8V-1141.77z"/>
	<path class="st0" d="M-2049.27-1173.66v-11.6l-23.19-11.6l-34.79,23.19v20.3c0,26.09,23.19,27.6,23.19,27.6h11.6
		c23.19,0,23.19-24.7,23.19-24.7h-23.19v8.7c0,0,0,5.8-5.8,5.8s-5.8-5.8-5.8-5.8v-46.39l11.6,5.8v24.16L-2049.27-1173.66z"/>
	<path class="st0" d="M-1790.76-1176.7v-57.85l11.6,5.8v20.3l11.6,8.7l20.3-10.15v-0.6c-3.44,0.47-8.7-0.72-8.7-12.44v-8.7
		l-23.19-11.6l-43.49,28.99v0.89c3.44-0.89,8.7-0.97,8.7,6.84c0,1.77,0,79.25,0,79.25h23.19V-1171c1-1.62,7.44-10.67,20.26,2.14
		l14-14l-14.1-14L-1790.76-1176.7z"/>
	<path class="st0" d="M-1347.17-1196.85l-20.3,12.92v-62.2l-31.89,21.26v0.89c3.44-0.89,8.7-0.97,8.7,6.84c0,11.6,0,89.88,0,89.88
		h23.19v-51.83c5.8-1.81,11.6-1.81,11.6,5.44v46.39h23.19v-46.39h5.8L-1347.17-1196.85z"/>
	<path class="st0" d="M-1970.99-1176.56l-17.4-20.3l-23.19,17.37v-55.06l-31.89,18.36v0.59c3.43-0.91,8.79-1.07,8.79,6.82
		c0,11.6-0.1,81.5-0.1,81.5h23.19v-27.34c11.59,2.15,11.6,15.75,11.6,15.75v11.6l23.19-0.14c0-28.94-23.19-28.85-23.19-28.85h-11.31
		l34.5-20.3H-1970.99z M-2011.58-1157.74v-18.94c3.75-1.3,9.45-2.13,11.6,3.03C-1997.68-1168.12-2004.05-1163.28-2011.58-1157.74z"
		/>
	<path class="st0" d="M-1970.99-1224.88v0.89c3.44-0.89,8.7-0.97,8.7,6.84c0,11.6,0,89.88,0,89.88h23.19v-118.87L-1970.99-1224.88z"
		/>
	<path class="st0" d="M-778.9-1224.88v0.89c3.44-0.89,8.7-0.97,8.7,6.84c0,11.6,0,89.88,0,89.88h23.19v-118.87L-778.9-1224.88z"/>
	<path class="st0" d="M-2258.02-1196.85l-34.79,23.19v23.19c0,23.19,23.19,23.19,23.19,23.19h11.6v46.39h23.19v-104.37
		L-2258.02-1196.85z M-2258.02-1141.77c0,0,0,5.8-5.8,5.8s-5.8-5.8-5.8-5.8v-46.39l11.6,5.8V-1141.77z"/>
	<path class="st0" d="M-1889.81-1196.85v57.99c-11.6,2.9-11.6-5.8-11.6-5.8v-43.49v-0.97l-23.19,15.46v34.79l11.6,11.6l23.19-8.7
		v40.59c0,0,0,5.8-5.8,5.8s-5.8-5.8-5.8-5.8v-17.4h-23.19v8.7c0,0,0,23.19,23.19,23.19h5.8h5.8c23.19,0,23.19-23.19,23.19-23.19
		v-81.18L-1889.81-1196.85z"/>
	<path class="st0" d="M-2162.35-1185.26l-23.19-11.59l0.07,55.09c0,0,0,5.8-5.8,5.8s-5.8-5.8-5.8-5.8l-0.07-47.36l-23.19,15.46
		l0.07,29c0,0-0.12,18.9,20.27,18.9c14.45,0,14.52-10.2,14.52-10.2l0,0v8.7h23.19L-2162.35-1185.26z"/>
	<path class="st0" d="M-653.44-1135.27c-1.8,3.31-6.1,5.43-9.52,6.65l27.53-47.44c3.79-6.55,10.18-2.69,10.18-2.69l-15.39-18.11
		l-13.73,5.85c-11.63,0.23-22.76-5.83-22.76-5.83l-14.33,26.36l14.7,8l11.2-20.58c1.9-3.5,6.78-5.53,10.42-6.61l-36.2,62.4h52.59
		l11.2-20.58l-14.7-8L-653.44-1135.27z"/>
	<path class="st0" d="M-706.42-1196.85v-37.69l-26.09,18.13v0.87c3-0.82,7.61-1.13,8.7,4.2v5.8c0,11.86-17.4,11.86-17.4,11.86v2.64
		h11.72v63.78h23.5c0.03-5.4,0.05-49.59,0.05-55.09c0-11.86,11.6-11.6,11.6-11.6v-2.9H-706.42z"/>
	<path class="st0" d="M-1071.73-1196.85v-37.69l-26.09,18.13v0.87c3-0.82,7.61-1.13,8.7,4.2v5.8c0,11.86-17.4,11.86-17.4,11.86v2.64
		h11.72v63.78h23.5c0.03-5.4,0.05-49.59,0.05-55.09c0-11.86,11.6-11.6,11.6-11.6v-2.9H-1071.73z"/>
	<path class="st0" d="M-1442.85-1196.85v-37.69l-26.09,18.13v0.87c3-0.82,7.61-1.13,8.7,4.2v5.8c0,11.86-17.4,11.86-17.4,11.86v2.64
		h11.72v63.78h23.5c0.03-5.4,0.05-49.59,0.05-55.09c0-11.86,11.6-11.6,11.6-11.6v-2.9H-1442.85z"/>
	<path class="st0" d="M-865.35-1196.32l-14,14c0,0,16.23,11.44,13.54,22.98l-5.84,23.37l-14.5-20.3v-31.89l-11.6-8.7l-20.33,10.16
		v0.59c3.43-0.48,8.73,0.68,8.73,12.44h0.04l-0.03,14.5l-0.05,0c0,0.02,0.02,0.03,0.05,0.04l-0.02,8.66l4.87,6.49l-2,8.01
		l-14.5-20.3v-31.89l-11.6-8.7l-20.3,10.15v0.6c3.44-0.47,8.7,0.72,8.7,12.44h0.04l-0.04,23.19l17.4,23.19l24.02-0.11l3.07-10.19
		l7.73,10.31l24.02-0.11l16.54-54.87L-865.35-1196.32z"/>
	<path class="st0" d="M-1161.08-1196.32l-14,14c0,0,16.23,11.44,13.54,22.98l-5.84,23.37l-14.5-20.3v-31.89l-11.6-8.7l-20.33,10.16
		v0.59c3.43-0.48,8.73,0.68,8.73,12.44h0.04l-0.03,14.5l-0.05,0c0,0.02,0.02,0.03,0.05,0.04l-0.02,8.66l4.87,6.49l-2,8.01
		l-14.5-20.3v-31.89l-11.6-8.7l-20.3,10.15v0.6c3.44-0.47,8.7,0.72,8.7,12.44h0.04l-0.04,23.19l17.4,23.19l24.02-0.11l3.07-10.19
		l7.73,10.31l24.02-0.11l16.54-54.87L-1161.08-1196.32z"/>
	<path class="st0" d="M-1280.48-1196.85l-34.79,23.19v24.58c0,0,0,23.19,23.19,23.19h5.8h5.8c23.19,0,23.19-23.19,23.19-23.19
		v-36.17L-1280.48-1196.85z M-1280.48-1140.39c0,0,0,5.8-5.8,5.8s-5.8-5.8-5.8-5.8v-47.77l11.6,5.8V-1140.39z"/>
	<path class="st0" d="M-1506.63-1196.85l-34.79,23.19v24.58c0,0,0,23.19,23.19,23.19h5.8h5.8c23.19,0,23.19-23.19,23.19-23.19
		v-36.17L-1506.63-1196.85z M-1506.63-1140.39c0,0,0,5.8-5.8,5.8s-5.8-5.8-5.8-5.8v-47.77l11.6,5.8V-1140.39z"/>
	<path class="st0" d="M-1579.11-1196.85l-34.79,23.19v34.79l11.6,11.6l23.19-8.7v40.59c0,0,0,5.8-5.8,5.8s-5.8-5.8-5.8-5.8v-17.4
		h-23.19v8.7c0,0,0,23.19,23.19,23.19h11.6c23.19,0,23.19-23.19,23.19-23.19v-46.39v-34.79L-1579.11-1196.85z M-1579.11-1138.87
		c-11.6,2.9-11.6-5.8-11.6-5.8v-43.49l11.6,5.8V-1138.87z"/>
	<path class="st0" d="M-1634.34-1190.06l-20.16,20.16v-26.95l-31.89,21.26v0.89c3.44-0.89,8.7-0.97,8.7,6.84c0,11.6,0,40.59,0,40.59
		h23.19v-36.93c1-1.62,7.44-10.67,20.26,2.14l14-14L-1634.34-1190.06z"/>
	<path class="st0" d="M-1718.28-1196.85l-34.79,23.19v24.58c0,0,0,23.19,23.19,23.19h5.8h5.8c23.19,0,23.19-23.19,23.19-23.19
		v-36.17L-1718.28-1196.85z M-1718.28-1140.39c0,0,0,5.8-5.8,5.8c-5.8,0-5.8-5.8-5.8-5.8v-47.77l11.6,5.8V-1140.39z"/>
	<path class="st0" d="M-1019.55-1196.85l-34.79,23.19v24.58c0,0,0,23.19,23.19,23.19h5.8h5.8c23.19,0,23.19-23.19,23.19-23.19
		v-36.17L-1019.55-1196.85z M-1019.55-1140.39c0,0,0,5.8-5.8,5.8c-5.8,0-5.8-5.8-5.8-5.8v-47.77l11.6,5.8V-1140.39z"/>
</g>
</svg>
