<?xml version="1.0" encoding="utf-8"?>
<!-- Generator: Adobe Illustrator 25.2.3, SVG Export Plug-In . SVG Version: 6.00 Build 0)  -->
<svg version="1.1" id="Layer_1" xmlns="http://www.w3.org/2000/svg" xmlns:xlink="http://www.w3.org/1999/xlink" x="0px" y="0px"
	 viewBox="0 0 1920 234.57" style="enable-background:new 0 0 1920 234.57;" xml:space="preserve">
<style type="text/css">
	.st0{fill:#FFFFFF;}
	.st1{display:none;}
	.st2{display:inline;}
	.st3{fill:none;stroke:#FF3000;stroke-miterlimit:10;}
	.st4{display:inline;fill:none;stroke:#FF3000;stroke-miterlimit:10;}
</style>
<g>
	<path class="st0" d="M1020.89-384.12l-23.19,8.7l-11.6-8.7l-20.3,10.15v0.6c3.44-0.47,8.7,0.72,8.7,12.44v46.39h23.19v-57.99
		c11.6-2.9,11.6,5.8,11.6,5.8v52.19h23.19v-57.99L1020.89-384.12z"/>
	<path class="st0" d="M797.64-384.12l-23.19,8.7l-11.6-8.7l-20.3,10.15v0.6c3.44-0.47,8.7,0.72,8.7,12.44v46.39h23.19v-57.99
		c11.6-2.9,11.6,5.8,11.6,5.8v52.19h23.19v-57.99L797.64-384.12z"/>
	<path class="st0" d="M858.52-384.12l-34.79,23.19v34.79l11.6,11.6l23.19-8.7v40.59c0,0,0,5.8-5.8,5.8c-5.8,0-5.8-5.8-5.8-5.8v-17.4
		h-23.19v8.7c0,0,0,23.19,23.19,23.19h11.6c23.19,0,23.19-23.19,23.19-23.19v-46.39v-34.79L858.52-384.12z M858.52-326.13
		c-11.6,2.9-11.6-5.8-11.6-5.8v-43.49l11.6,5.8V-326.13z"/>
	<g>
		<path class="st0" d="M931.01-403.68v0.87c3-0.82,7.61-1.13,8.7,4.2v8.7l17.4-11.6v-20.3L931.01-403.68z"/>
		<path class="st0" d="M925.21-362.86v0.89c3.44-0.89,8.7-0.97,8.7,6.84c0,11.6,0,40.59,0,40.59h23.19v-69.58L925.21-362.86z"/>
	</g>
	<g>
		<path class="st0" d="M707.76-403.68v0.87c3-0.82,7.61-1.13,8.7,4.2v8.7l17.4-11.6v-20.3L707.76-403.68z"/>
		<path class="st0" d="M701.96-362.86v0.89c3.44-0.89,8.7-0.97,8.7,6.84c0,11.6,0,40.59,0,40.59h23.19v-69.58L701.96-362.86z"/>
	</g>
	<path class="st0" d="M574.51-326.13l-0.12-46.39l-23.19-11.6l-34.79,23.19v28.99c0,0,0,18.9,20.38,18.9
		c14.45,0,17.09-6.55,17.09-6.55s0.46,5.05,3.11,5.05c5.42,0,18.62,0,20.3,0v-2.91C574.39-317.44,574.51-326.13,574.51-326.13z
		 M551.2-329.03c0,0,0.12,5.8-5.68,5.8s-5.92-5.8-5.92-5.8v-46.39l11.6,5.8V-329.03z"/>
	<path class="st0" d="M1171.65-384.12l-20.3,12.92v-62.2l-31.89,21.26v0.89c3.44-0.89,8.7-0.97,8.7,6.84c0,11.6,0,89.88,0,89.88
		h23.19v-51.83c5.8-1.81,11.6-1.81,11.6,5.44v46.39h23.19v-46.39h5.8L1171.65-384.12z"/>
	<path class="st0" d="M696.16-363.82l-17.4-20.3l-23.19,17.37v-55.06l-31.89,18.36v0.59c3.43-0.91,8.79-1.07,8.79,6.82
		c0,11.6-0.1,81.5-0.1,81.5h23.19v-27.34c11.59,2.15,11.6,15.75,11.6,15.75v11.6l23.19-0.14c0-28.94-23.19-28.85-23.19-28.85h-11.31
		l34.5-20.3H696.16z M655.57-345.01v-18.94c3.75-1.3,9.45-2.13,11.6,3.03C669.48-355.38,663.1-350.55,655.57-345.01z"/>
	<path class="st0" d="M583.09-412.15v0.89c3.44-0.89,8.7-0.97,8.7,6.84c0,11.6,0,89.88,0,89.88h23.19v-118.87L583.09-412.15z"/>
	<path class="st0" d="M1235.43-345.46l23.19-15.46v-11.6l-23.19-11.6l-34.79,23.19v20.3c0,26.09,23.19,27.29,23.19,27.29h11.6
		c23.19,0,23.19-24.39,23.19-24.39h-23.19v8.7c0,0,0,5.8-5.8,5.8c-5.8,0-5.8-5.8-5.8-5.8v-16.42L1235.43-345.46z M1235.43-369.62
		v14.49c0,5.65-11.6,5.81-11.6,5.81v-26.09L1235.43-369.62z"/>
	<path class="st0" d="M1348.83-322.53c-1.8,3.31-6.1,5.43-9.52,6.65l27.53-47.44c3.79-6.55,10.18-2.69,10.18-2.69l-15.39-18.11
		l-13.73,5.85c-11.63,0.23-22.76-5.83-22.76-5.83l-14.33,26.36l14.7,8l11.2-20.58c1.9-3.5,6.78-5.53,10.42-6.61l-36.2,62.4h52.59
		l11.2-20.58l-14.7-8L1348.83-322.53z"/>
	<path class="st0" d="M1107.86-384.12v-37.69l-26.09,18.13v0.87c3-0.82,7.61-1.13,8.7,4.2v5.8c0,11.86-17.4,11.86-17.4,11.86v2.64
		h11.72v63.78h23.5c0.03-5.4,0.05-49.59,0.05-55.09c0-11.86,11.6-11.6,11.6-11.6v-2.9H1107.86z"/>
	<path class="st0" d="M496.64-383.58l-14,14c0,0,16.23,11.44,13.54,22.98l-5.84,23.37l-14.5-20.3v-31.89l-11.6-8.7l-20.33,10.16
		v0.59c3.43-0.48,8.73,0.68,8.73,12.44h0.04l-0.03,14.5l-0.05,0c0,0.02,0.02,0.03,0.05,0.04l-0.02,8.66l4.87,6.49l-2,8.01
		l-14.5-20.3v-31.89l-11.6-8.7l-20.3,10.15v0.6c3.44-0.47,8.7,0.72,8.7,12.44h0.04l-0.04,23.19l17.4,23.19l24.02-0.11l3.07-10.19
		l7.73,10.31l24.02-0.11l16.54-54.87L496.64-383.58z"/>
	<path class="st0" d="M1487.67-384.12l-34.79,23.19v24.58c0,0,0,23.19,23.19,23.19h5.8h5.8c23.19,0,23.19-23.19,23.19-23.19v-36.17
		L1487.67-384.12z M1487.67-327.65c0,0,0,5.8-5.8,5.8c-5.8,0-5.8-5.8-5.8-5.8v-47.77l11.6,5.8V-327.65z"/>
	<path class="st0" d="M1418.09-384.12l-34.79,23.19v24.58c0,0,0,23.19,23.19,23.19h5.8h5.8c23.19,0,23.19-23.19,23.19-23.19v-36.17
		L1418.09-384.12z M1418.09-327.65c0,0,0,5.8-5.8,5.8s-5.8-5.8-5.8-5.8v-47.77l11.6,5.8V-327.65z"/>
</g>
<g>
	<path class="st0" d="M426.29,85.08l-23.19,8.7l-11.6-8.7l-20.3,10.15v0.6c3.44-0.47,8.7,0.72,8.7,12.44v46.39h23.19V96.68
		c11.6-2.9,11.6,5.8,11.6,5.8v52.19h23.19V96.68L426.29,85.08z"/>
	<path class="st0" d="M794.5,85.08l-23.19,8.7l-11.6-8.7l-20.3,10.15v0.6c3.44-0.47,8.7,0.72,8.7,12.44v46.39h23.19V96.68
		c11.6-2.9,11.6,5.8,11.6,5.8v52.19h23.19V96.68L794.5,85.08z"/>
	<path class="st0" d="M362.63,143.07l-0.12-46.39l-23.19-11.6l-34.79,23.19v28.99c0,0,0,18.9,20.38,18.9
		c14.45,0,17.09-6.55,17.09-6.55s0.46,5.05,3.11,5.05c5.42,0,18.62,0,20.3,0v-2.91C362.51,151.76,362.63,143.07,362.63,143.07z
		 M339.31,140.17c0,0,0.12,5.8-5.68,5.8s-5.92-5.8-5.92-5.8V93.78l11.6,5.8V140.17z"/>
	<path class="st0" d="M945.74,85.08L925.45,98v-62.2l-31.89,21.26v0.89c3.44-0.89,8.7-0.97,8.7,6.84c0,11.6,0,89.88,0,89.88h23.19
		v-51.83c5.8-1.81,11.6-1.81,11.6,5.44v46.39h23.19v-46.39h5.8L945.74,85.08z"/>
	<path class="st0" d="M478.48,57.05v0.89c3.44-0.89,8.7,1.93,8.7,9.74c0,8.28,0,25.13,0,25.13l-11.6-7.73l-23.19,11.6l0,40.59
		c0,0-0.12,18.9,20.27,18.9c14.45,0,14.52-10.2,14.52-10.2l0,0c0,2.78,0,5.68,0,8.7h23.19V35.79L478.48,57.05z M487.18,125.67
		c0,4.42,0,9.23,0,14.5c0,0,0,5.8-5.8,5.8c-5.8,0-5.8-5.8-5.8-5.8v-14.5v-4.77h0V99.58l11.6-5.8c0,6.35,0,14.94,0,27.12
		C487.18,122.44,487.18,124.03,487.18,125.67z"/>
	<path class="st0" d="M1006.63,123.74l23.19-15.46v-11.6l-23.19-11.6l-34.79,23.19v20.3c0,26.09,23.19,27.29,23.19,27.29h11.6
		c23.19,0,23.19-24.39,23.19-24.39h-23.19v8.7c0,0,0,5.8-5.8,5.8s-5.8-5.8-5.8-5.8v-16.42L1006.63,123.74z M1006.63,99.58v14.49
		c0,5.65-11.6,5.81-11.6,5.81V93.78L1006.63,99.58z"/>
	<path class="st0" d="M1139.99,123.74l23.19-15.46v-11.6l-23.19-11.6l-34.79,23.19v20.3c0,26.09,23.19,27.29,23.19,27.29h11.6
		c23.19,0,23.19-24.39,23.19-24.39h-23.19v8.7c0,0,0,5.8-5.8,5.8s-5.8-5.8-5.8-5.8v-16.42L1139.99,123.74z M1139.99,99.58v14.49
		c0,5.65-11.6,5.81-11.6,5.81V93.78L1139.99,99.58z"/>
	<path class="st0" d="M1087.67,91.87l-20.16,20.16V85.08l-31.89,21.26v0.89c3.44-0.89,8.7-0.97,8.7,6.84c0,11.6,0,40.59,0,40.59
		h23.19v-36.93c1-1.62,7.44-10.67,20.26,2.14l14-14L1087.67,91.87z"/>
	<path class="st0" d="M1348.74,123.74l23.19-15.46v-11.6l-23.19-11.6l-34.79,23.19v20.3c0,26.09,23.19,27.29,23.19,27.29h11.6
		c23.19,0,23.19-24.39,23.19-24.39h-23.19v8.7c0,0,0,5.8-5.8,5.8c-5.8,0-5.8-5.8-5.8-5.8v-16.42L1348.74,123.74z M1348.74,99.58
		v14.49c0,5.65-11.6,5.81-11.6,5.81V93.78L1348.74,99.58z"/>
	<path class="st0" d="M1482.11,123.74l23.19-15.46v-11.6l-23.19-11.6l-34.79,23.19v20.3c0,26.09,23.19,27.29,23.19,27.29h11.6
		c23.19,0,23.19-24.39,23.19-24.39h-23.19v8.7c0,0,0,5.8-5.8,5.8s-5.8-5.8-5.8-5.8v-16.42L1482.11,123.74z M1482.11,99.58v14.49
		c0,5.65-11.6,5.81-11.6,5.81V93.78L1482.11,99.58z"/>
	<path class="st0" d="M1429.78,91.87l-20.16,20.16V85.08l-31.89,21.26v0.89c3.44-0.89,8.7-0.97,8.7,6.84c0,11.6,0,40.59,0,40.59
		h23.19v-36.93c1-1.62,7.44-10.67,20.26,2.14l14-14L1429.78,91.87z"/>
	<path class="st0" d="M881.48,85.08V47.39l-26.09,18.13v0.87c3-0.82,7.61-1.13,8.7,4.2v5.8c0,11.86-17.4,11.86-17.4,11.86v2.64
		h11.72v63.78h23.5c0.03-5.4,0.05-49.59,0.05-55.09c0-11.86,11.6-11.6,11.6-11.6v-2.9H881.48z"/>
	<path class="st0" d="M649.54,85.08L629.24,98v-62.2l-31.89,21.26v0.89c3.44-0.89,8.7-0.97,8.7,6.84c0,11.6,0,89.88,0,89.88h23.19
		v-51.83c5.8-1.81,11.6-1.81,11.6,5.44v46.39h23.19v-46.39h5.8L649.54,85.08z"/>
	<path class="st0" d="M710.42,123.74l23.19-15.46v-11.6l-23.19-11.6l-34.79,23.19v20.3c0,26.09,23.19,27.29,23.19,27.29h11.6
		c23.19,0,23.19-24.39,23.19-24.39h-23.19v8.7c0,0,0,5.8-5.8,5.8c-5.8,0-5.8-5.8-5.8-5.8v-16.42L710.42,123.74z M710.42,99.58v14.49
		c0,5.65-11.6,5.81-11.6,5.81V93.78L710.42,99.58z"/>
	<path class="st0" d="M585.28,85.08V47.39l-26.09,18.13v0.87c3-0.82,7.61-1.13,8.7,4.2v5.8c0,11.86-17.4,11.86-17.4,11.86v2.64
		h11.72v63.78h23.5c0.03-5.4,0.05-49.59,0.05-55.09c0-11.86,11.6-11.6,11.6-11.6v-2.9H585.28z"/>
	<path class="st0" d="M1294.19,85.62l-14,14c0,0,16.23,11.44,13.54,22.98l-5.84,23.37l-14.5-20.3V93.78l-11.6-8.7l-20.33,10.16v0.59
		c3.43-0.48,8.73,0.68,8.73,12.44h0.04l-0.03,14.5l-0.05,0c0,0.02,0.02,0.03,0.05,0.04l-0.02,8.66l4.87,6.49l-2,8.01l-14.5-20.3
		V93.78l-11.6-8.7l-20.3,10.15v0.6c3.44-0.47,8.7,0.72,8.7,12.44h0.04l-0.04,23.19l17.4,23.19l24.02-0.11l3.07-10.19l7.73,10.31
		l24.02-0.11l16.54-54.87L1294.19,85.62z"/>
	<path class="st0" d="M1615.48,76.38v-17.4l-23.19-11.6l-34.79,23.19v20.3h23.19V56.09l11.6,5.8v26.09c0,0,0,8.7-5.8,8.7v8.7
		c5.8,0,5.8,8.7,5.8,8.7v26.41c0,0,0,5.8-5.8,5.8s-5.8-5.8-5.8-5.8v-23.19h-23.19v14.5c0,0,0,24.72,23.19,24.72h11.6
		c23.19,0,23.2-24.72,23.2-24.72v-14.81c0,0,0-9.23-8.78-15.95C1615.48,94.31,1615.48,76.38,1615.48,76.38z"/>
</g>
<g>
	<g>
		<path class="st0" d="M1055.68-638.25v0.87c3-0.82,7.61-1.13,8.7,4.2v8.7l17.4-11.6v-20.3L1055.68-638.25z"/>
		<path class="st0" d="M1049.88-597.42v0.89c3.44-0.89,8.7-0.97,8.7,6.84c0,11.6,0,40.59,0,40.59h23.19v-69.58L1049.88-597.42z"/>
	</g>
	<g>
		<path class="st0" d="M533.8-638.25v0.87c3-0.82,7.61-1.13,8.7,4.2v8.7l17.4-11.6v-20.3L533.8-638.25z"/>
		<path class="st0" d="M528-597.42v0.89c3.44-0.89,8.7-0.97,8.7,6.84c0,11.6,0,40.59,0,40.59h23.19v-69.58L528-597.42z"/>
	</g>
	<path class="st0" d="M936.81-646.71v0.89c3.44-0.89,8.7-0.97,8.7,6.84c0,11.6,0,89.88,0,89.88h23.19v-118.87L936.81-646.71z"/>
	<path class="st0" d="M487.41-646.71v0.89c3.44-0.89,8.7-0.97,8.7,6.84c0,11.6,0,89.88,0,89.88h23.19v-118.87L487.41-646.71z"/>
	<path class="st0" d="M646.88-646.71v0.89c3.44-0.89,8.7-0.97,8.7,6.84c0,11.6,0,89.88,0,89.88h23.19v-118.87L646.88-646.71z"/>
	<path class="st0" d="M1009.29-646.71v0.89c3.44-0.89,8.7,1.93,8.7,9.74c0,8.28,0,25.13,0,25.13l-11.6-7.73l-23.19,11.6l0,40.59
		c0,0-0.12,18.9,20.27,18.9c14.45,0,14.52-10.2,14.52-10.2l0,0c0,2.78,0,5.68,0,8.7h23.19v-118.87L1009.29-646.71z M1017.99-578.09
		c0,4.42,0,9.23,0,14.5c0,0,0,5.8-5.8,5.8c-5.8,0-5.8-5.8-5.8-5.8v-14.5v-4.77h0v-21.32l11.6-5.8c0,6.35,0,14.94,0,27.12
		C1017.99-581.33,1017.99-579.74,1017.99-578.09z"/>
	<path class="st0" d="M1313.71-618.68l-11.6,7.73v-57.02l-31.89,21.26v0.89c3.44-0.89,8.7,1.93,8.7,9.74c0,6.43,0,86.98,0,86.98
		h23.19v-8.7l0,0c0,0,0.07,10.2,14.52,10.2c20.38,0,20.27-18.9,20.27-18.9l0-40.59L1313.71-618.68z M1313.71-563.6
		c0,0,0,5.8-5.8,5.8c-5.8,0-5.8-5.8-5.8-5.8v-46.39l11.6,5.8L1313.71-563.6z"/>
	<path class="st0" d="M1131.06-580.03l23.19-15.46v-11.6l-23.19-11.6l-34.79,23.19v20.3c0,26.09,23.19,27.29,23.19,27.29h11.6
		c23.19,0,23.19-24.39,23.19-24.39h-23.19v8.7c0,0,0,5.8-5.8,5.8s-5.8-5.8-5.8-5.8v-16.42L1131.06-580.03z M1131.06-604.19v14.49
		c0,5.65-11.6,5.81-11.6,5.81v-26.09L1131.06-604.19z"/>
	<path class="st0" d="M728.06-580.03l23.19-15.46v-11.6l-23.19-11.6l-34.79,23.19v20.3c0,26.09,23.19,27.29,23.19,27.29h11.6
		c23.19,0,23.19-24.39,23.19-24.39h-23.19v8.7c0,0,0,5.8-5.8,5.8s-5.8-5.8-5.8-5.8v-16.42L728.06-580.03z M728.06-604.19v14.49
		c0,5.65-11.6,5.81-11.6,5.81v-26.09L728.06-604.19z"/>
	<path class="st0" d="M1458.68-618.68v57.99c-11.6,2.9-11.6-5.8-11.6-5.8v-43.49v-0.97l-23.19,15.46v34.79l11.6,11.6l23.19-8.7
		v40.59c0,0,0,5.8-5.8,5.8c-5.8,0-5.8-5.8-5.8-5.8v-17.4h-23.19v8.7c0,0,0,23.19,23.19,23.19h5.8h5.8
		c23.19,0,23.19-23.19,23.19-23.19v-81.18L1458.68-618.68z"/>
	<path class="st0" d="M1554.36-601.29v-5.8l-23.19-11.6l-34.79,23.19v2.9c0,14.5,14.5,14.5,14.5,14.5h14.5c5.8,0,5.8,5.8,5.8,5.8
		v8.7c0,0,0,5.8-5.8,5.8s-5.8-5.8-5.8-5.8l0-7.13h0v-1.56h-23.19v1.46h0c0,23.19,23.19,23.24,23.19,23.24h11.6
		c23.19,0,23.2-17.44,23.2-17.44l0-4.36c0-14.5-14.5-14.5-14.5-14.5h-14.5c-5.8,0-5.8-5.8-5.8-5.8v-20.3l11.6,2.9v18.85
		L1554.36-601.29z"/>
	<path class="st0" d="M861.42-601.29v-5.8l-23.19-11.6l-34.79,23.19v2.9c0,14.5,14.5,14.5,14.5,14.5h14.5c5.8,0,5.8,5.8,5.8,5.8v8.7
		c0,0,0,5.8-5.8,5.8s-5.8-5.8-5.8-5.8l0-7.13h0v-1.56h-23.19v1.46h0c0,23.19,23.19,23.24,23.19,23.24h11.6
		c23.19,0,23.2-17.44,23.2-17.44l0-4.36c0-14.5-14.5-14.5-14.5-14.5h-14.5c-5.8,0-5.8-5.8-5.8-5.8v-20.3l11.6,2.9v18.85
		L861.42-601.29z"/>
	<path class="st0" d="M1212.1-611.89l-20.16,20.16v-26.95l-31.89,21.26v0.89c3.44-0.89,8.7-0.97,8.7,6.84c0,11.6,0,40.59,0,40.59
		h23.19v-36.93c1-1.62,7.44-10.67,20.26,2.14l14-14L1212.1-611.89z"/>
	<path class="st0" d="M637.7-618.68v-37.69l-26.09,18.13v0.87c3-0.82,7.61-1.13,8.7,4.2v2.9c0,11.11-15.26,11.58-17.19,11.6h-3.1
		v-37.69l-26.09,18.13v0.87c3-0.82,7.61-1.13,8.7,4.2v5.8c0,11.86-17.4,11.6-17.4,11.6v2.9h11.72v63.78h23.5
		c0.03-5.4,0.05-49.59,0.05-55.09c0-11.11,10.18-11.58,11.46-11.6h2.68v66.68h23.5c0.03-5.4,0.05-49.59,0.05-55.09
		c0-11.86,11.6-11.6,11.6-11.6v-2.9H637.7z"/>
	<path class="st0" d="M1386.2-618.68l-34.79,23.19v24.58c0,0,0,23.19,23.19,23.19h5.8h5.8c23.19,0,23.19-23.19,23.19-23.19v-36.17
		L1386.2-618.68z M1386.2-562.22c0,0,0,5.8-5.8,5.8s-5.8-5.8-5.8-5.8v-47.77l11.6,5.8V-562.22z"/>
	<path class="st0" d="M907.81-620.07l-34.79,23.19v24.58c0,0,0,23.19,23.19,23.19h5.8h5.8c23.19,0,23.19-23.19,23.19-23.19v-36.17
		L907.81-620.07z M907.81-563.6c0,0,0,5.8-5.8,5.8c-5.8,0-5.8-5.8-5.8-5.8v-47.77l11.6,5.8V-563.6z"/>
	<path class="st0" d="M432.33-586.79v-61.2l-11.6-8.7l-20.3,10.15v1.43c3.44,0.6,8.7,3.74,8.7,17.41v46.7l-11.6-5.8v-17.71v-17.4
		l-11.6-8.7l-20.3,10.15v1.23c3.44,0.18,8.7,2.05,8.7,11.82v23.51l23.19,11.6l11.6-7.73v30.93h23.19v-23.19l11.6-7.73v-0.97
		L432.33-586.79z"/>
</g>
<g>
	<path class="st0" d="M1544.21-149.66l-23.19,8.7l-11.6-8.7l-20.3,10.15v0.6c3.44-0.47,8.7,0.72,8.7,12.44v46.39h23.19v-57.99
		c11.6-2.9,11.6,5.8,11.6,5.8v52.19h23.19v-57.99L1544.21-149.66z"/>
	<path class="st0" d="M1132.51-149.66l-34.79,23.19v34.79l11.6,11.6l23.19-8.7v40.59c0,0,0,5.8-5.8,5.8s-5.8-5.8-5.8-5.8v-17.4
		h-23.19v8.7c0,0,0,23.19,23.19,23.19h11.6c23.19,0,23.19-23.19,23.19-23.19v-46.39v-34.79L1132.51-149.66z M1132.51-91.68
		c-11.6,2.9-11.6-5.8-11.6-5.8v-43.49l11.6,5.8V-91.68z"/>
	<path class="st0" d="M1204.99-149.66l-34.79,23.19v34.79l11.6,11.6l23.19-8.7v40.59c0,0,0,5.8-5.8,5.8s-5.8-5.8-5.8-5.8v-17.4
		h-23.19v8.7c0,0,0,23.19,23.19,23.19h11.6c23.19,0,23.19-23.19,23.19-23.19v-46.39v-34.79L1204.99-149.66z M1204.99-91.68
		c-11.6,2.9-11.6-5.8-11.6-5.8v-43.49l11.6,5.8V-91.68z"/>
	<g>
		<path class="st0" d="M474.37-169.23v0.87c3-0.82,7.61-1.13,8.7,4.2v8.7l17.4-11.6v-20.3L474.37-169.23z"/>
		<path class="st0" d="M468.57-128.4v0.89c3.44-0.89,8.7-0.97,8.7,6.84c0,11.6,0,40.59,0,40.59h23.19v-69.58L468.57-128.4z"/>
	</g>
	<path class="st0" d="M825.84-91.68l-0.12-46.39l-23.19-11.6l-34.79,23.19v28.99c0,0,0,18.9,20.38,18.9
		c14.45,0,17.09-6.55,17.09-6.55s0.46,5.05,3.11,5.05c5.42,0,18.62,0,20.3,0v-2.91C825.72-82.99,825.84-91.68,825.84-91.68z
		 M802.52-94.58c0,0,0.12,5.8-5.68,5.8s-5.92-5.8-5.92-5.8v-46.39l11.6,5.8V-94.58z"/>
	<path class="st0" d="M349.82-91.68l-0.12-46.39l-23.19-11.6l-34.79,23.19v28.99c0,0,0,18.9,20.38,18.9
		c14.45,0,17.09-6.55,17.09-6.55s0.46,5.05,3.11,5.05c5.42,0,18.62,0,20.3,0v-2.91C349.7-82.99,349.82-91.68,349.82-91.68z
		 M326.5-94.58c0,0,0.12,5.8-5.68,5.8s-5.92-5.8-5.92-5.8v-46.39l11.6,5.8V-94.58z"/>
	<path class="st0" d="M996.24-149.66l-20.3,12.92v-62.2l-31.89,21.26v0.89c3.44-0.89,8.7-0.97,8.7,6.84c0,11.6,0,89.88,0,89.88
		h23.19v-51.83c5.8-1.81,11.6-1.81,11.6,5.44v46.39h23.19v-46.39h5.8L996.24-149.66z"/>
	<path class="st0" d="M1338.36-177.69v0.89c3.44-0.89,8.7,1.93,8.7,9.74c0,8.28,0,25.13,0,25.13l-11.6-7.73l-23.19,11.6l0,40.59
		c0,0-0.12,18.9,20.27,18.9c14.45,0,14.53-10.2,14.53-10.2l0,0c0,2.78,0,5.68,0,8.7h23.19v-118.87L1338.36-177.69z M1347.06-109.07
		c0,4.42,0,9.23,0,14.5c0,0,0,5.8-5.8,5.8s-5.8-5.8-5.8-5.8v-14.5v-4.77h0v-21.32l11.6-5.8c0,6.35,0,14.94,0,27.12
		C1347.06-112.31,1347.06-110.72,1347.06-109.07z"/>
	<path class="st0" d="M436.68-149.66l-11.6,7.73v-57.02l-31.89,21.26v0.89c3.44-0.89,8.7,1.93,8.7,9.74c0,6.43,0,86.98,0,86.98
		h23.19v-8.7l0,0c0,0,0.07,10.2,14.52,10.2c20.38,0,20.27-18.9,20.27-18.9l0-40.59L436.68-149.66z M436.68-94.58c0,0,0,5.8-5.8,5.8
		c-5.8,0-5.8-5.8-5.8-5.8v-46.39l11.6,5.8L436.68-94.58z"/>
	<path class="st0" d="M732.4-111.01l23.19-15.46v-11.6l-23.19-11.6l-34.79,23.19v20.3c0,26.09,23.19,27.29,23.19,27.29h11.6
		c23.19,0,23.19-24.39,23.19-24.39H732.4v8.7c0,0,0,5.8-5.8,5.8c-5.8,0-5.8-5.8-5.8-5.8V-111L732.4-111.01z M732.4-135.17v14.49
		c0,5.65-11.6,5.81-11.6,5.81v-26.09L732.4-135.17z"/>
	<path class="st0" d="M1605.09-111.01l23.19-15.46v-11.6l-23.19-11.6l-34.79,23.19v20.3c0,26.09,23.19,27.29,23.19,27.29h11.6
		c23.19,0,23.19-24.39,23.19-24.39h-23.19v8.7c0,0,0,5.8-5.8,5.8c-5.8,0-5.8-5.8-5.8-5.8V-111L1605.09-111.01z M1605.09-135.17
		v14.49c0,5.65-11.6,5.81-11.6,5.81v-26.09L1605.09-135.17z"/>
	<path class="st0" d="M1277.47-111.01l23.19-15.46v-11.6l-23.19-11.6l-34.79,23.19v20.3c0,26.09,23.19,27.29,23.19,27.29h11.6
		c23.19,0,23.19-24.39,23.19-24.39h-23.19v8.7c0,0,0,5.8-5.8,5.8s-5.8-5.8-5.8-5.8V-111L1277.47-111.01z M1277.47-135.17v14.49
		c0,5.65-11.6,5.81-11.6,5.81v-26.09L1277.47-135.17z"/>
	<path class="st0" d="M1083.22-138.07l-23.19-11.59l0.07,55.09c0,0,0,5.8-5.8,5.8s-5.8-5.8-5.8-5.8l-0.07-47.36l-23.19,15.46
		l0.07,29c0,0-0.12,18.9,20.27,18.9c14.45,0,14.53-10.2,14.53-10.2l0,0v8.7h23.19L1083.22-138.07z"/>
	<path class="st0" d="M886.46-142.87l-20.16,20.16v-26.95l-31.89,21.26v0.89c3.44-0.89,8.7-0.97,8.7,6.84c0,11.6,0,40.59,0,40.59
		h23.19v-36.93c1-1.62,7.44-10.67,20.26,2.14l14-14L886.46-142.87z"/>
	<path class="st0" d="M1457.23-149.66l-34.79,23.19v24.58c0,0,0,23.19,23.19,23.19h5.8h5.8c23.19,0,23.19-23.19,23.19-23.19v-36.17
		L1457.23-149.66z M1457.23-93.2c0,0,0,5.8-5.8,5.8s-5.8-5.8-5.8-5.8v-47.77l11.6,5.8V-93.2z"/>
	<path class="st0" d="M549.75-149.66l-34.79,23.19v34.79l11.6,11.6l23.19-8.7v40.59c0,0,0,5.8-5.8,5.8s-5.8-5.8-5.8-5.8v-17.4
		h-23.19v8.7c0,0,0,23.19,23.19,23.19h11.6c23.19,0,23.19-23.19,23.19-23.19v-46.39v-34.79L549.75-149.66z M549.75-91.68
		c-11.6,2.9-11.6-5.8-11.6-5.8v-43.49l11.6,5.8V-91.68z"/>
	<path class="st0" d="M659.92-149.66l-11.6,7.73v-57.02l-31.89,21.26v0.89c3.44-0.89,8.7,1.93,8.7,9.74c0,6.43,0,86.98,0,86.98
		h23.19v-8.7l0,0c0,0,0.07,10.2,14.52,10.2c20.38,0,20.27-18.9,20.27-18.9l0-40.59L659.92-149.66z M659.92-94.58c0,0,0,5.8-5.8,5.8
		c-5.8,0-5.8-5.8-5.8-5.8v-46.39l11.6,5.8L659.92-94.58z"/>
</g>
<g class="st1">
	<g class="st2">
		<line class="st3" x1="1.11" y1="-314.54" x2="1918.76" y2="-314.54"/>
		<line class="st3" x1="1.11" y1="-268.15" x2="1918.76" y2="-268.15"/>
		<line class="st3" x1="1.11" y1="-384.12" x2="1918.76" y2="-384.12"/>
		<line class="st3" x1="1.11" y1="-433.41" x2="1918.76" y2="-433.41"/>
		<line class="st3" x1="1.11" y1="-421.81" x2="1918.76" y2="-421.81"/>
	</g>
	<rect x="1995.18" y="-268.15" class="st4" width="47.91" height="67.16"/>
	<g class="st2">
		<line class="st3" x1="1.11" y1="-79.97" x2="1918.76" y2="-79.97"/>
		<line class="st3" x1="1.11" y1="-33.58" x2="1918.76" y2="-33.58"/>
		<line class="st3" x1="1.11" y1="-149.55" x2="1918.76" y2="-149.55"/>
		<line class="st3" x1="1.11" y1="-198.84" x2="1918.76" y2="-198.84"/>
		<line class="st3" x1="1.11" y1="-187.24" x2="1918.76" y2="-187.24"/>
	</g>
	<rect x="1995.18" y="-33.58" class="st4" width="47.91" height="67.16"/>
	<g class="st2">
		<line class="st3" x1="1.11" y1="154.6" x2="1918.76" y2="154.6"/>
		<line class="st3" x1="1.11" y1="200.98" x2="1918.76" y2="200.98"/>
		<line class="st3" x1="1.11" y1="85.01" x2="1918.76" y2="85.01"/>
		<line class="st3" x1="1.11" y1="35.72" x2="1918.76" y2="35.72"/>
		<line class="st3" x1="1.11" y1="47.32" x2="1918.76" y2="47.32"/>
	</g>
	<rect x="1995.18" y="200.98" class="st4" width="47.91" height="67.16"/>
</g>
<g>
	<path class="st0" d="M-711.01-1663.84l-23.19,8.7l-11.6-8.7l-20.3,10.15v0.6c3.44-0.47,8.7,0.72,8.7,12.44v46.39h23.19v-57.99
		c11.6-2.9,11.6,5.8,11.6,5.8v52.19h23.19v-57.99L-711.01-1663.84z"/>
	<path class="st0" d="M-2066.49-1638.85l-8.9-18.2l-6.25-3.2l-7.03-3.6l-16.61,16.99c0,0,6.64-3.4,9.97,3.4l14.25,29.15
		c-1.95,1.07-4.23,1.93-6.51,1.93h-15.1v18.12h15.1l8.25-16.49l8.06,16.49h26.58l-20.76-42.47c2.29-1.57,5.43-3.19,8.56-3.19h15.1
		v-18.12h-15.1L-2066.49-1638.85z"/>
	<path class="st0" d="M-2160.66-1646.44v-5.8l-23.19-11.6l-34.79,23.19v2.9c0,14.5,14.5,14.5,14.5,14.5h14.5c5.8,0,5.8,5.8,5.8,5.8
		v8.7c0,0,0,5.8-5.8,5.8s-5.8-5.8-5.8-5.8l0-7.13h0v-1.56h-23.19v1.46h0c0,23.19,23.19,23.24,23.19,23.24h11.6
		c23.19,0,23.2-17.44,23.2-17.44l0-4.36c0-14.5-14.5-14.5-14.5-14.5h-14.5c-5.8,0-5.8-5.8-5.8-5.8v-20.3l11.6,2.9v18.85
		L-2160.66-1646.44z"/>
	<path class="st0" d="M-1847.53-1663.84l-34.79,23.19v34.79l11.6,11.6l23.19-8.7v40.59c0,0,0,5.8-5.8,5.8c-5.8,0-5.8-5.8-5.8-5.8
		v-17.4h-23.19v8.7c0,0,0,23.19,23.19,23.19h11.6c23.19,0,23.19-23.19,23.19-23.19v-46.39v-34.79L-1847.53-1663.84z
		 M-1847.53-1605.85c-11.6,2.9-11.6-5.8-11.6-5.8v-43.49l11.6,5.8V-1605.85z"/>
	<g>
		<path class="st0" d="M-1560.5-1683.4v0.87c3-0.82,7.61-1.13,8.7,4.2v8.7l17.4-11.6v-20.3L-1560.5-1683.4z"/>
		<path class="st0" d="M-1566.3-1642.58v0.89c3.44-0.89,8.7-0.97,8.7,6.84c0,11.6,0,40.59,0,40.59h23.19v-69.58L-1566.3-1642.58z"/>
	</g>
	<g>
		<path class="st0" d="M-1922.92-1683.4v0.87c3-0.82,7.61-1.13,8.7,4.2v8.7l17.4-11.6v-20.3L-1922.92-1683.4z"/>
		<path class="st0" d="M-1928.72-1642.58v0.89c3.44-0.89,8.7-0.97,8.7,6.84c0,11.6,0,40.59,0,40.59h23.19v-69.58L-1928.72-1642.58z"
			/>
	</g>
	<g>
		<path class="st0" d="M-2146.16-1683.4v0.87c3-0.82,7.61-1.13,8.7,4.2v8.7l17.4-11.6v-20.3L-2146.16-1683.4z"/>
		<path class="st0" d="M-2151.96-1642.58v0.89c3.44-0.89,8.7-0.97,8.7,6.84c0,11.6,0,40.59,0,40.59h23.19v-69.58L-2151.96-1642.58z"
			/>
	</g>
	<g>
		<path class="st0" d="M-1021.23-1683.4v0.87c3-0.82,7.61-1.13,8.7,4.2v8.7l17.4-11.6v-20.3L-1021.23-1683.4z"/>
		<path class="st0" d="M-1027.03-1641.69c3.44-0.89,8.7-0.97,8.7,6.84c0,0.47,0,72.48,0,72.48s0,5.8-5.8,5.8c-5.8,0-5.8-5.8-5.8-5.8
			v-17.4h-23.19v8.7c0,0,0,23.19,23.19,23.19h11.6c23.19,0,23.19-23.19,23.19-23.19v-92.78l-31.89,21.26V-1641.69z"/>
	</g>
	<path class="st0" d="M-774.67-1605.85l-0.12-46.39l-23.19-11.6l-34.79,23.19v28.99c0,0,0,18.9,20.38,18.9
		c14.45,0,17.09-6.55,17.09-6.55s0.46,5.05,3.11,5.05c5.42,0,18.62,0,20.3,0v-2.91C-774.79-1597.17-774.67-1605.85-774.67-1605.85z
		 M-797.99-1608.75c0,0,0.12,5.8-5.68,5.8c-5.8,0-5.92-5.8-5.92-5.8v-46.39l11.6,5.8V-1608.75z"/>
	<path class="st0" d="M-922.54-1605.85l-0.12-46.39l-23.19-11.6l-34.79,23.19v28.99c0,0,0,18.9,20.38,18.9
		c14.45,0,17.09-6.55,17.09-6.55s0.46,5.05,3.11,5.05c5.42,0,18.62,0,20.3,0v-2.91C-922.66-1597.17-922.54-1605.85-922.54-1605.85z
		 M-945.85-1608.75c0,0,0.12,5.8-5.68,5.8c-5.8,0-5.92-5.8-5.92-5.8v-46.39l11.6,5.8V-1608.75z"/>
	<path class="st0" d="M-1343.06-1643.68v-57.85l11.6,5.8v20.3l11.6,8.7l20.3-10.15v-0.6c-3.44,0.47-8.7-0.72-8.7-12.44v-8.7
		l-23.19-11.6l-43.49,28.99v0.89c3.44-0.89,8.7-0.97,8.7,6.84c0,1.77,0,79.25,0,79.25h23.19v-43.73c1-1.62,7.44-10.67,20.26,2.14
		l14-14l-14.1-14L-1343.06-1643.68z"/>
	<path class="st0" d="M-1525.71-1691.87v0.89c3.44-0.89,8.7-0.97,8.7,6.84c0,11.6,0,89.88,0,89.88h23.19v-118.87L-1525.71-1691.87z"
		/>
	<path class="st0" d="M-1082.12-1663.84l-25.32,9.47l-9.47-9.47l-23.19,8.7l-11.6-8.7l-20.3,10.15v0.6c3.44-0.47,8.7,0.72,8.7,12.44
		v46.39h23.19v-57.99c11.6-2.9,11.6,5.8,11.6,5.8v52.19h23.19v-57.99c11.6-2.9,11.6,5.8,11.6,5.8v52.19h23.19v-57.99
		L-1082.12-1663.84z"/>
	<path class="st0" d="M-1748.96-1691.87v0.89c3.44-0.89,8.7,1.93,8.7,9.74c0,8.28,0,25.13,0,25.13l-11.6-7.73l-23.19,11.6l0,40.59
		c0,0-0.12,18.9,20.27,18.9c14.45,0,14.53-10.2,14.53-10.2l0,0c0,2.78,0,5.68,0,8.7h23.19v-118.87L-1748.96-1691.87z
		 M-1740.26-1623.25c0,4.42,0,9.23,0,14.5c0,0,0,5.8-5.8,5.8s-5.8-5.8-5.8-5.8v-14.5v-4.77h0v-21.32l11.6-5.8
		c0,6.35,0,14.94,0,27.12C-1740.26-1626.49-1740.26-1624.9-1740.26-1623.25z"/>
	<path class="st0" d="M-1960.61-1663.84l-11.6,7.73v-57.02l-31.89,21.26v0.89c3.44-0.89,8.7,1.93,8.7,9.74c0,6.43,0,86.98,0,86.98
		h23.19v-8.7l0,0c0,0,0.07,10.2,14.53,10.2c20.38,0,20.27-18.9,20.27-18.9l0-40.59L-1960.61-1663.84z M-1960.61-1608.75
		c0,0,0,5.8-5.8,5.8s-5.8-5.8-5.8-5.8v-46.39l11.6,5.8L-1960.61-1608.75z"/>
	<path class="st0" d="M-1667.78-1625.18l23.19-15.46v-11.6l-23.19-11.6l-34.79,23.19v20.3c0,26.09,23.19,27.29,23.19,27.29h11.6
		c23.19,0,23.19-24.39,23.19-24.39h-23.19v8.7c0,0,0,5.8-5.8,5.8s-5.8-5.8-5.8-5.8v-16.42L-1667.78-1625.18z M-1667.78-1649.34
		v14.49c0,5.65-11.6,5.81-11.6,5.81v-26.09L-1667.78-1649.34z"/>
	<path class="st0" d="M-1421.34-1646.44v-5.8l-23.19-11.6l-34.79,23.19v2.9c0,14.5,14.5,14.5,14.5,14.5h14.5c5.8,0,5.8,5.8,5.8,5.8
		v8.7c0,0,0,5.8-5.8,5.8s-5.8-5.8-5.8-5.8l0-7.13h0v-1.56h-23.19v1.46h0c0,23.19,23.19,23.24,23.19,23.24h11.6
		c23.19,0,23.2-17.44,23.2-17.44l0-4.36c0-14.5-14.5-14.5-14.5-14.5h-14.5c-5.8,0-5.8-5.8-5.8-5.8v-20.3l11.6,2.9v18.85
		L-1421.34-1646.44z"/>
	<path class="st0" d="M-870.47-1663.84l-11.6,7.73v-10.63l-31.89,21.26v0.89c3.44-0.89,8.7-0.97,8.7,6.84c0,3.04,0,89.88,0,89.88
		h23.19v-46.39h11.6c23.19,0,23.19-23.19,23.19-23.19v-34.79L-870.47-1663.84z M-870.47-1608.75c0,0,0,5.8-5.8,5.8s-5.8-5.8-5.8-5.8
		v-46.39l11.6,5.8V-1608.75z"/>
	<path class="st0" d="M-1255.68-1657.05l-20.16,20.16v-26.95l-31.89,21.26v0.89c3.44-0.89,8.7-0.97,8.7,6.84c0,11.6,0,40.59,0,40.59
		h23.19v-36.93c1-1.62,7.44-10.67,20.26,2.14l14-14L-1255.68-1657.05z"/>
	<path class="st0" d="M-1586.1-1663.3l-14,14c0,0,16.23,11.44,13.54,22.98l-5.84,23.37l-14.5-20.3v-31.89l-11.6-8.7l-20.3,10.15v0.6
		c3.44-0.47,8.7,0.72,8.7,12.44h0.04l-0.04,23.19l17.4,23.19l24.02-0.11l16.54-54.87L-1586.1-1663.3z"/>
	<path class="st0" d="M-1200.99-1663.84l-34.79,23.19v24.58c0,0,0,23.19,23.19,23.19h5.8h5.8c23.19,0,23.19-23.19,23.19-23.19
		v-36.17L-1200.99-1663.84z M-1200.99-1607.37c0,0,0,5.8-5.8,5.8c-5.8,0-5.8-5.8-5.8-5.8v-47.77l11.6,5.8V-1607.37z"/>
</g>
<g>
	<g>
		<path class="st0" d="M-2147.85-1450.98v0.87c3-0.82,7.61-1.13,8.7,4.2v8.7l17.4-11.6v-20.3L-2147.85-1450.98z"/>
		<path class="st0" d="M-2153.65-1410.16v0.89c3.44-0.89,8.7-0.97,8.7,6.84c0,11.6,0,40.59,0,40.59h23.19v-69.58L-2153.65-1410.16z"
			/>
	</g>
	<path class="st0" d="M-787.48-1373.43l-0.12-46.39l-23.19-11.6l-34.79,23.19v28.99c0,0,0,18.9,20.38,18.9
		c14.45,0,17.09-6.55,17.09-6.55s0.46,5.05,3.11,5.05c5.42,0,18.62,0,20.3,0v-2.91C-787.6-1364.74-787.48-1373.43-787.48-1373.43z
		 M-810.8-1376.33c0,0,0.12,5.8-5.68,5.8s-5.92-5.8-5.92-5.8v-46.39l11.6,5.8V-1376.33z"/>
	<path class="st0" d="M-2049.27-1408.22v-11.6l-23.19-11.6l-34.79,23.19v20.3c0,26.09,23.19,27.6,23.19,27.6h11.6
		c23.19,0,23.19-24.7,23.19-24.7h-23.19v8.7c0,0,0,5.8-5.8,5.8s-5.8-5.8-5.8-5.8v-46.39l11.6,5.8v24.16L-2049.27-1408.22z"/>
	<path class="st0" d="M-1790.76-1411.26v-57.85l11.6,5.8v20.3l11.6,8.7l20.3-10.15v-0.6c-3.44,0.47-8.7-0.72-8.7-12.44v-8.7
		l-23.19-11.6l-43.49,28.99v0.89c3.44-0.89,8.7-0.97,8.7,6.84c0,1.77,0,79.25,0,79.25h23.19v-43.73c1-1.62,7.44-10.67,20.26,2.14
		l14-14l-14.1-14L-1790.76-1411.26z"/>
	<path class="st0" d="M-1347.17-1431.42l-20.3,12.92v-62.2l-31.89,21.26v0.89c3.44-0.89,8.7-0.97,8.7,6.84c0,11.6,0,89.88,0,89.88
		h23.19v-51.83c5.8-1.81,11.6-1.81,11.6,5.44v46.39h23.19v-46.39h5.8L-1347.17-1431.42z"/>
	<path class="st0" d="M-1970.99-1411.12l-17.4-20.3l-23.19,17.37v-55.06l-31.89,18.36v0.59c3.43-0.91,8.79-1.07,8.79,6.82
		c0,11.6-0.1,81.5-0.1,81.5h23.19v-27.34c11.59,2.15,11.6,15.75,11.6,15.75v11.6l23.19-0.14c0-28.94-23.19-28.85-23.19-28.85h-11.31
		l34.5-20.3H-1970.99z M-2011.58-1392.31v-18.94c3.75-1.3,9.45-2.13,11.6,3.03C-1997.68-1402.68-2004.05-1397.85-2011.58-1392.31z"
		/>
	<path class="st0" d="M-1970.99-1459.45v0.89c3.44-0.89,8.7-0.97,8.7,6.84c0,11.6,0,89.88,0,89.88h23.19v-118.87L-1970.99-1459.45z"
		/>
	<path class="st0" d="M-778.9-1459.45v0.89c3.44-0.89,8.7-0.97,8.7,6.84c0,11.6,0,89.88,0,89.88h23.19v-118.87L-778.9-1459.45z"/>
	<path class="st0" d="M-2258.02-1431.42l-34.79,23.19v23.19c0,23.19,23.19,23.19,23.19,23.19h11.6v46.39h23.19v-104.38
		L-2258.02-1431.42z M-2258.02-1376.33c0,0,0,5.8-5.8,5.8s-5.8-5.8-5.8-5.8v-46.39l11.6,5.8V-1376.33z"/>
	<path class="st0" d="M-1889.81-1431.42v57.99c-11.6,2.9-11.6-5.8-11.6-5.8v-43.49v-0.97l-23.19,15.46v34.79l11.6,11.6l23.19-8.7
		v40.59c0,0,0,5.8-5.8,5.8s-5.8-5.8-5.8-5.8v-17.4h-23.19v8.7c0,0,0,23.19,23.19,23.19h5.8h5.8c23.19,0,23.19-23.19,23.19-23.19
		v-81.18L-1889.81-1431.42z"/>
	<path class="st0" d="M-2162.35-1419.82l-23.19-11.59l0.07,55.09c0,0,0,5.8-5.8,5.8s-5.8-5.8-5.8-5.8l-0.07-47.36l-23.19,15.46
		l0.07,29c0,0-0.12,18.9,20.27,18.9c14.45,0,14.52-10.2,14.52-10.2l0,0v8.7h23.19L-2162.35-1419.82z"/>
	<path class="st0" d="M-653.44-1369.83c-1.8,3.31-6.1,5.43-9.52,6.65l27.53-47.44c3.79-6.55,10.18-2.69,10.18-2.69l-15.39-18.11
		l-13.73,5.85c-11.63,0.23-22.76-5.83-22.76-5.83l-14.33,26.36l14.7,8l11.2-20.58c1.9-3.5,6.78-5.53,10.42-6.61l-36.2,62.4h52.59
		l11.2-20.58l-14.7-8L-653.44-1369.83z"/>
	<path class="st0" d="M-706.42-1431.42v-37.69l-26.09,18.13v0.87c3-0.82,7.61-1.13,8.7,4.2v5.8c0,11.86-17.4,11.86-17.4,11.86v2.64
		h11.72v63.78h23.5c0.03-5.4,0.05-49.59,0.05-55.09c0-11.86,11.6-11.6,11.6-11.6v-2.9H-706.42z"/>
	<path class="st0" d="M-1071.73-1431.42v-37.69l-26.09,18.13v0.87c3-0.82,7.61-1.13,8.7,4.2v5.8c0,11.86-17.4,11.86-17.4,11.86v2.64
		h11.72v63.78h23.5c0.03-5.4,0.05-49.59,0.05-55.09c0-11.86,11.6-11.6,11.6-11.6v-2.9H-1071.73z"/>
	<path class="st0" d="M-1442.85-1431.42v-37.69l-26.09,18.13v0.87c3-0.82,7.61-1.13,8.7,4.2v5.8c0,11.86-17.4,11.86-17.4,11.86v2.64
		h11.72v63.78h23.5c0.03-5.4,0.05-49.59,0.05-55.09c0-11.86,11.6-11.6,11.6-11.6v-2.9H-1442.85z"/>
	<path class="st0" d="M-865.35-1430.88l-14,14c0,0,16.23,11.44,13.54,22.98l-5.84,23.37l-14.5-20.3v-31.89l-11.6-8.7l-20.33,10.16
		v0.59c3.43-0.48,8.73,0.68,8.73,12.44h0.04l-0.03,14.5l-0.05,0c0,0.02,0.02,0.03,0.05,0.04l-0.02,8.66l4.87,6.49l-2,8.01
		l-14.5-20.3v-31.89l-11.6-8.7l-20.3,10.15v0.6c3.44-0.47,8.7,0.72,8.7,12.44h0.04l-0.04,23.19l17.4,23.19l24.02-0.11l3.07-10.19
		l7.73,10.31l24.02-0.11l16.54-54.87L-865.35-1430.88z"/>
	<path class="st0" d="M-1161.08-1430.88l-14,14c0,0,16.23,11.44,13.54,22.98l-5.84,23.37l-14.5-20.3v-31.89l-11.6-8.7l-20.33,10.16
		v0.59c3.43-0.48,8.73,0.68,8.73,12.44h0.04l-0.03,14.5l-0.05,0c0,0.02,0.02,0.03,0.05,0.04l-0.02,8.66l4.87,6.49l-2,8.01
		l-14.5-20.3v-31.89l-11.6-8.7l-20.3,10.15v0.6c3.44-0.47,8.7,0.72,8.7,12.44h0.04l-0.04,23.19l17.4,23.19l24.02-0.11l3.07-10.19
		l7.73,10.31l24.02-0.11l16.54-54.87L-1161.08-1430.88z"/>
	<path class="st0" d="M-1280.48-1431.42l-34.79,23.19v24.58c0,0,0,23.19,23.19,23.19h5.8h5.8c23.19,0,23.19-23.19,23.19-23.19
		v-36.17L-1280.48-1431.42z M-1280.48-1374.95c0,0,0,5.8-5.8,5.8s-5.8-5.8-5.8-5.8v-47.77l11.6,5.8V-1374.95z"/>
	<path class="st0" d="M-1506.63-1431.42l-34.79,23.19v24.58c0,0,0,23.19,23.19,23.19h5.8h5.8c23.19,0,23.19-23.19,23.19-23.19
		v-36.17L-1506.63-1431.42z M-1506.63-1374.95c0,0,0,5.8-5.8,5.8s-5.8-5.8-5.8-5.8v-47.77l11.6,5.8V-1374.95z"/>
	<path class="st0" d="M-1579.11-1431.42l-34.79,23.19v34.79l11.6,11.6l23.19-8.7v40.59c0,0,0,5.8-5.8,5.8s-5.8-5.8-5.8-5.8v-17.4
		h-23.19v8.7c0,0,0,23.19,23.19,23.19h11.6c23.19,0,23.19-23.19,23.19-23.19v-46.39v-34.79L-1579.11-1431.42z M-1579.11-1373.43
		c-11.6,2.9-11.6-5.8-11.6-5.8v-43.49l11.6,5.8V-1373.43z"/>
	<path class="st0" d="M-1634.34-1424.63l-20.16,20.16v-26.95l-31.89,21.26v0.89c3.44-0.89,8.7-0.97,8.7,6.84c0,11.6,0,40.59,0,40.59
		h23.19v-36.93c1-1.62,7.44-10.67,20.26,2.14l14-14L-1634.34-1424.63z"/>
	<path class="st0" d="M-1718.28-1431.42l-34.79,23.19v24.58c0,0,0,23.19,23.19,23.19h5.8h5.8c23.19,0,23.19-23.19,23.19-23.19
		v-36.17L-1718.28-1431.42z M-1718.28-1374.95c0,0,0,5.8-5.8,5.8c-5.8,0-5.8-5.8-5.8-5.8v-47.77l11.6,5.8V-1374.95z"/>
	<path class="st0" d="M-1019.55-1431.42l-34.79,23.19v24.58c0,0,0,23.19,23.19,23.19h5.8h5.8c23.19,0,23.19-23.19,23.19-23.19
		v-36.17L-1019.55-1431.42z M-1019.55-1374.95c0,0,0,5.8-5.8,5.8c-5.8,0-5.8-5.8-5.8-5.8v-47.77l11.6,5.8V-1374.95z"/>
</g>
</svg>
