<?xml version="1.0" encoding="utf-8"?>
<!-- Generator: Adobe Illustrator 25.2.3, SVG Export Plug-In . SVG Version: 6.00 Build 0)  -->
<svg version="1.1" id="Layer_1" xmlns="http://www.w3.org/2000/svg" xmlns:xlink="http://www.w3.org/1999/xlink" x="0px" y="0px"
	 viewBox="0 0 1920 243.91" style="enable-background:new 0 0 1920 243.91;" xml:space="preserve">
<style type="text/css">
	.st0{fill:#FFFFFF;}
	.st1{display:none;}
	.st2{display:inline;}
	.st3{fill:none;stroke:#FF3000;stroke-miterlimit:10;}
	.st4{display:inline;fill:none;stroke:#FF3000;stroke-miterlimit:10;}
</style>
<g>
	<path class="st0" d="M1020.89,94.36l-23.19,8.7l-11.6-8.7l-20.3,10.15v0.6c3.44-0.47,8.7,0.72,8.7,12.44v46.39h23.19v-57.99
		c11.6-2.9,11.6,5.8,11.6,5.8v52.19h23.19v-57.99L1020.89,94.36z"/>
	<path class="st0" d="M797.64,94.36l-23.19,8.7l-11.6-8.7l-20.3,10.15v0.6c3.44-0.47,8.7,0.72,8.7,12.44v46.39h23.19v-57.99
		c11.6-2.9,11.6,5.8,11.6,5.8v52.19h23.19v-57.99L797.64,94.36z"/>
	<path class="st0" d="M858.52,94.36l-34.79,23.19v34.79l11.6,11.6l23.19-8.7v40.59c0,0,0,5.8-5.8,5.8c-5.8,0-5.8-5.8-5.8-5.8v-17.4
		h-23.19v8.7c0,0,0,23.19,23.19,23.19h11.6c23.19,0,23.19-23.19,23.19-23.19v-46.39v-34.79L858.52,94.36z M858.52,152.34
		c-11.6,2.9-11.6-5.8-11.6-5.8v-43.49l11.6,5.8V152.34z"/>
	<g>
		<path class="st0" d="M931.01,74.8v0.87c3-0.82,7.61-1.13,8.7,4.2v8.7l17.4-11.6v-20.3L931.01,74.8z"/>
		<path class="st0" d="M925.21,115.62v0.89c3.44-0.89,8.7-0.97,8.7,6.84c0,11.6,0,40.59,0,40.59h23.19V94.36L925.21,115.62z"/>
	</g>
	<g>
		<path class="st0" d="M707.76,74.8v0.87c3-0.82,7.61-1.13,8.7,4.2v8.7l17.4-11.6v-20.3L707.76,74.8z"/>
		<path class="st0" d="M701.96,115.62v0.89c3.44-0.89,8.7-0.97,8.7,6.84c0,11.6,0,40.59,0,40.59h23.19V94.36L701.96,115.62z"/>
	</g>
	<path class="st0" d="M574.51,152.34l-0.12-46.39l-23.19-11.6l-34.79,23.19v28.99c0,0,0,18.9,20.38,18.9
		c14.45,0,17.09-6.55,17.09-6.55s0.46,5.05,3.11,5.05c5.42,0,18.62,0,20.3,0v-2.91C574.39,161.03,574.51,152.34,574.51,152.34z
		 M551.2,149.44c0,0,0.12,5.8-5.68,5.8s-5.92-5.8-5.92-5.8v-46.39l11.6,5.8V149.44z"/>
	<path class="st0" d="M1171.65,94.36l-20.3,12.92v-62.2l-31.89,21.26v0.89c3.44-0.89,8.7-0.97,8.7,6.84c0,11.6,0,89.88,0,89.88
		h23.19v-51.83c5.8-1.81,11.6-1.81,11.6,5.44v46.39h23.19v-46.39h5.8L1171.65,94.36z"/>
	<path class="st0" d="M696.16,114.65l-17.4-20.3l-23.19,17.37V56.67l-31.89,18.36v0.59c3.43-0.91,8.79-1.07,8.79,6.82
		c0,11.6-0.1,81.5-0.1,81.5h23.19V136.6c11.59,2.15,11.6,15.75,11.6,15.75v11.6l23.19-0.14c0-28.94-23.19-28.85-23.19-28.85h-11.31
		l34.5-20.3H696.16z M655.57,133.47v-18.94c3.75-1.3,9.45-2.13,11.6,3.03C669.48,123.09,663.1,127.93,655.57,133.47z"/>
	<path class="st0" d="M583.09,66.33v0.89c3.44-0.89,8.7-0.97,8.7,6.84c0,11.6,0,89.88,0,89.88h23.19V45.07L583.09,66.33z"/>
	<path class="st0" d="M1235.43,133.01l23.19-15.46v-11.6l-23.19-11.6l-34.79,23.19v20.3c0,26.09,23.19,27.29,23.19,27.29h11.6
		c23.19,0,23.19-24.39,23.19-24.39h-23.19v8.7c0,0,0,5.8-5.8,5.8c-5.8,0-5.8-5.8-5.8-5.8v-16.42L1235.43,133.01z M1235.43,108.85
		v14.49c0,5.65-11.6,5.81-11.6,5.81v-26.09L1235.43,108.85z"/>
	<path class="st0" d="M1348.83,155.94c-1.8,3.31-6.1,5.43-9.52,6.65l27.53-47.44c3.79-6.55,10.18-2.69,10.18-2.69l-15.39-18.11
		l-13.73,5.85c-11.63,0.23-22.76-5.83-22.76-5.83l-14.33,26.36l14.7,8l11.2-20.58c1.9-3.5,6.78-5.53,10.42-6.61l-36.2,62.4h52.59
		l11.2-20.58l-14.7-8L1348.83,155.94z"/>
	<path class="st0" d="M1107.86,94.36V56.67l-26.09,18.13v0.87c3-0.82,7.61-1.13,8.7,4.2v5.8c0,11.86-17.4,11.86-17.4,11.86v2.64
		h11.72v63.78h23.5c0.03-5.4,0.05-49.59,0.05-55.09c0-11.86,11.6-11.6,11.6-11.6v-2.9H1107.86z"/>
	<path class="st0" d="M496.64,94.89l-14,14c0,0,16.23,11.44,13.54,22.98l-5.84,23.37l-14.5-20.3v-31.89l-11.6-8.7l-20.33,10.16v0.59
		c3.43-0.48,8.73,0.68,8.73,12.44h0.04l-0.03,14.5l-0.05,0c0,0.02,0.02,0.03,0.05,0.04l-0.02,8.66l4.87,6.49l-2,8.01l-14.5-20.3
		v-31.89l-11.6-8.7l-20.3,10.15v0.6c3.44-0.47,8.7,0.72,8.7,12.44h0.04l-0.04,23.19l17.4,23.19l24.02-0.11l3.07-10.19l7.73,10.31
		l24.02-0.11l16.54-54.87L496.64,94.89z"/>
	<path class="st0" d="M1487.67,94.36l-34.79,23.19v24.58c0,0,0,23.19,23.19,23.19h5.8h5.8c23.19,0,23.19-23.19,23.19-23.19v-36.17
		L1487.67,94.36z M1487.67,150.82c0,0,0,5.8-5.8,5.8c-5.8,0-5.8-5.8-5.8-5.8v-47.77l11.6,5.8V150.82z"/>
	<path class="st0" d="M1418.09,94.36l-34.79,23.19v24.58c0,0,0,23.19,23.19,23.19h5.8h5.8c23.19,0,23.19-23.19,23.19-23.19v-36.17
		L1418.09,94.36z M1418.09,150.82c0,0,0,5.8-5.8,5.8s-5.8-5.8-5.8-5.8v-47.77l11.6,5.8V150.82z"/>
</g>
<g>
	<path class="st0" d="M426.29,563.56l-23.19,8.7l-11.6-8.7l-20.3,10.15v0.6c3.44-0.47,8.7,0.72,8.7,12.44v46.39h23.19v-57.99
		c11.6-2.9,11.6,5.8,11.6,5.8v52.19h23.19v-57.99L426.29,563.56z"/>
	<path class="st0" d="M794.5,563.56l-23.19,8.7l-11.6-8.7l-20.3,10.15v0.6c3.44-0.47,8.7,0.72,8.7,12.44v46.39h23.19v-57.99
		c11.6-2.9,11.6,5.8,11.6,5.8v52.19h23.19v-57.99L794.5,563.56z"/>
	<path class="st0" d="M362.63,621.54l-0.12-46.39l-23.19-11.6l-34.79,23.19v28.99c0,0,0,18.9,20.38,18.9
		c14.45,0,17.09-6.55,17.09-6.55s0.46,5.05,3.11,5.05c5.42,0,18.62,0,20.3,0v-2.91C362.51,630.23,362.63,621.54,362.63,621.54z
		 M339.31,618.64c0,0,0.12,5.8-5.68,5.8s-5.92-5.8-5.92-5.8v-46.39l11.6,5.8V618.64z"/>
	<path class="st0" d="M945.74,563.56l-20.3,12.92v-62.2l-31.89,21.26v0.89c3.44-0.89,8.7-0.97,8.7,6.84c0,11.6,0,89.88,0,89.88
		h23.19v-51.83c5.8-1.81,11.6-1.81,11.6,5.44v46.39h23.19v-46.39h5.8L945.74,563.56z"/>
	<path class="st0" d="M478.48,535.53v0.89c3.44-0.89,8.7,1.93,8.7,9.74c0,8.28,0,25.13,0,25.13l-11.6-7.73l-23.19,11.6l0,40.59
		c0,0-0.12,18.9,20.27,18.9c14.45,0,14.52-10.2,14.52-10.2l0,0c0,2.78,0,5.68,0,8.7h23.19V514.27L478.48,535.53z M487.18,604.15
		c0,4.42,0,9.23,0,14.5c0,0,0,5.8-5.8,5.8c-5.8,0-5.8-5.8-5.8-5.8v-14.5v-4.77h0v-21.32l11.6-5.8c0,6.35,0,14.94,0,27.12
		C487.18,600.91,487.18,602.5,487.18,604.15z"/>
	<path class="st0" d="M1006.63,602.21l23.19-15.46v-11.6l-23.19-11.6l-34.79,23.19v20.3c0,26.09,23.19,27.29,23.19,27.29h11.6
		c23.19,0,23.19-24.39,23.19-24.39h-23.19v8.7c0,0,0,5.8-5.8,5.8s-5.8-5.8-5.8-5.8v-16.42L1006.63,602.21z M1006.63,578.05v14.49
		c0,5.65-11.6,5.81-11.6,5.81v-26.09L1006.63,578.05z"/>
	<path class="st0" d="M1139.99,602.21l23.19-15.46v-11.6l-23.19-11.6l-34.79,23.19v20.3c0,26.09,23.19,27.29,23.19,27.29h11.6
		c23.19,0,23.19-24.39,23.19-24.39h-23.19v8.7c0,0,0,5.8-5.8,5.8s-5.8-5.8-5.8-5.8v-16.42L1139.99,602.21z M1139.99,578.05v14.49
		c0,5.65-11.6,5.81-11.6,5.81v-26.09L1139.99,578.05z"/>
	<path class="st0" d="M1087.67,570.35l-20.16,20.16v-26.95l-31.89,21.26v0.89c3.44-0.89,8.7-0.97,8.7,6.84c0,11.6,0,40.59,0,40.59
		h23.19v-36.93c1-1.62,7.44-10.67,20.26,2.14l14-14L1087.67,570.35z"/>
	<path class="st0" d="M1348.74,602.21l23.19-15.46v-11.6l-23.19-11.6l-34.79,23.19v20.3c0,26.09,23.19,27.29,23.19,27.29h11.6
		c23.19,0,23.19-24.39,23.19-24.39h-23.19v8.7c0,0,0,5.8-5.8,5.8c-5.8,0-5.8-5.8-5.8-5.8v-16.42L1348.74,602.21z M1348.74,578.05
		v14.49c0,5.65-11.6,5.81-11.6,5.81v-26.09L1348.74,578.05z"/>
	<path class="st0" d="M1482.11,602.21l23.19-15.46v-11.6l-23.19-11.6l-34.79,23.19v20.3c0,26.09,23.19,27.29,23.19,27.29h11.6
		c23.19,0,23.19-24.39,23.19-24.39h-23.19v8.7c0,0,0,5.8-5.8,5.8s-5.8-5.8-5.8-5.8v-16.42L1482.11,602.21z M1482.11,578.05v14.49
		c0,5.65-11.6,5.81-11.6,5.81v-26.09L1482.11,578.05z"/>
	<path class="st0" d="M1429.78,570.35l-20.16,20.16v-26.95l-31.89,21.26v0.89c3.44-0.89,8.7-0.97,8.7,6.84c0,11.6,0,40.59,0,40.59
		h23.19v-36.93c1-1.62,7.44-10.67,20.26,2.14l14-14L1429.78,570.35z"/>
	<path class="st0" d="M881.48,563.56v-37.69l-26.09,18.13v0.87c3-0.82,7.61-1.13,8.7,4.2v5.8c0,11.86-17.4,11.86-17.4,11.86v2.64
		h11.72v63.78h23.5c0.03-5.4,0.05-49.59,0.05-55.09c0-11.86,11.6-11.6,11.6-11.6v-2.9H881.48z"/>
	<path class="st0" d="M649.54,563.56l-20.3,12.92v-62.2l-31.89,21.26v0.89c3.44-0.89,8.7-0.97,8.7,6.84c0,11.6,0,89.88,0,89.88
		h23.19v-51.83c5.8-1.81,11.6-1.81,11.6,5.44v46.39h23.19v-46.39h5.8L649.54,563.56z"/>
	<path class="st0" d="M710.42,602.21l23.19-15.46v-11.6l-23.19-11.6l-34.79,23.19v20.3c0,26.09,23.19,27.29,23.19,27.29h11.6
		c23.19,0,23.19-24.39,23.19-24.39h-23.19v8.7c0,0,0,5.8-5.8,5.8c-5.8,0-5.8-5.8-5.8-5.8v-16.42L710.42,602.21z M710.42,578.05
		v14.49c0,5.65-11.6,5.81-11.6,5.81v-26.09L710.42,578.05z"/>
	<path class="st0" d="M585.28,563.56v-37.69l-26.09,18.13v0.87c3-0.82,7.61-1.13,8.7,4.2v5.8c0,11.86-17.4,11.86-17.4,11.86v2.64
		h11.72v63.78h23.5c0.03-5.4,0.05-49.59,0.05-55.09c0-11.86,11.6-11.6,11.6-11.6v-2.9H585.28z"/>
	<path class="st0" d="M1294.19,564.09l-14,14c0,0,16.23,11.44,13.54,22.98l-5.84,23.37l-14.5-20.3v-31.89l-11.6-8.7l-20.33,10.16
		v0.59c3.43-0.48,8.73,0.68,8.73,12.44h0.04l-0.03,14.5l-0.05,0c0,0.02,0.02,0.03,0.05,0.04l-0.02,8.66l4.87,6.49l-2,8.01
		l-14.5-20.3v-31.89l-11.6-8.7l-20.3,10.15v0.6c3.44-0.47,8.7,0.72,8.7,12.44h0.04l-0.04,23.19l17.4,23.19l24.02-0.11l3.07-10.19
		l7.73,10.31l24.02-0.11l16.54-54.87L1294.19,564.09z"/>
	<path class="st0" d="M1615.48,554.86v-17.4l-23.19-11.6l-34.79,23.19v20.3h23.19v-34.79l11.6,5.8v26.09c0,0,0,8.7-5.8,8.7v8.7
		c5.8,0,5.8,8.7,5.8,8.7v26.41c0,0,0,5.8-5.8,5.8s-5.8-5.8-5.8-5.8v-23.19h-23.19v14.5c0,0,0,24.72,23.19,24.72h11.6
		c23.19,0,23.2-24.72,23.2-24.72v-14.81c0,0,0-9.23-8.78-15.95C1615.48,572.79,1615.48,554.86,1615.48,554.86z"/>
</g>
<g>
	<g>
		<path class="st0" d="M1055.68-159.77v0.87c3-0.82,7.61-1.13,8.7,4.2v8.7l17.4-11.6v-20.3L1055.68-159.77z"/>
		<path class="st0" d="M1049.88-118.95v0.89c3.44-0.89,8.7-0.97,8.7,6.84c0,11.6,0,40.59,0,40.59h23.19v-69.58L1049.88-118.95z"/>
	</g>
	<g>
		<path class="st0" d="M533.8-159.77v0.87c3-0.82,7.61-1.13,8.7,4.2v8.7l17.4-11.6v-20.3L533.8-159.77z"/>
		<path class="st0" d="M528-118.95v0.89c3.44-0.89,8.7-0.97,8.7,6.84c0,11.6,0,40.59,0,40.59h23.19v-69.58L528-118.95z"/>
	</g>
	<path class="st0" d="M936.81-168.24v0.89c3.44-0.89,8.7-0.97,8.7,6.84c0,11.6,0,89.88,0,89.88h23.19V-189.5L936.81-168.24z"/>
	<path class="st0" d="M487.41-168.24v0.89c3.44-0.89,8.7-0.97,8.7,6.84c0,11.6,0,89.88,0,89.88h23.19V-189.5L487.41-168.24z"/>
	<path class="st0" d="M646.88-168.24v0.89c3.44-0.89,8.7-0.97,8.7,6.84c0,11.6,0,89.88,0,89.88h23.19V-189.5L646.88-168.24z"/>
	<path class="st0" d="M1009.29-168.24v0.89c3.44-0.89,8.7,1.93,8.7,9.74c0,8.28,0,25.13,0,25.13l-11.6-7.73l-23.19,11.6l0,40.59
		c0,0-0.12,18.9,20.27,18.9c14.45,0,14.52-10.2,14.52-10.2l0,0c0,2.78,0,5.68,0,8.7h23.19V-189.5L1009.29-168.24z M1017.99-99.62
		c0,4.42,0,9.23,0,14.5c0,0,0,5.8-5.8,5.8c-5.8,0-5.8-5.8-5.8-5.8v-14.5v-4.77h0v-21.32l11.6-5.8c0,6.35,0,14.94,0,27.12
		C1017.99-102.85,1017.99-101.26,1017.99-99.62z"/>
	<path class="st0" d="M1313.71-140.21l-11.6,7.73v-57.02l-31.89,21.26v0.89c3.44-0.89,8.7,1.93,8.7,9.74c0,6.43,0,86.98,0,86.98
		h23.19v-8.7l0,0c0,0,0.07,10.2,14.52,10.2c20.38,0,20.27-18.9,20.27-18.9l0-40.59L1313.71-140.21z M1313.71-85.12
		c0,0,0,5.8-5.8,5.8c-5.8,0-5.8-5.8-5.8-5.8v-46.39l11.6,5.8L1313.71-85.12z"/>
	<path class="st0" d="M1131.06-101.55l23.19-15.46v-11.6l-23.19-11.6l-34.79,23.19v20.3c0,26.09,23.19,27.29,23.19,27.29h11.6
		c23.19,0,23.19-24.39,23.19-24.39h-23.19v8.7c0,0,0,5.8-5.8,5.8s-5.8-5.8-5.8-5.8v-16.42L1131.06-101.55z M1131.06-125.71v14.49
		c0,5.65-11.6,5.81-11.6,5.81v-26.09L1131.06-125.71z"/>
	<path class="st0" d="M728.06-101.55l23.19-15.46v-11.6l-23.19-11.6l-34.79,23.19v20.3c0,26.09,23.19,27.29,23.19,27.29h11.6
		c23.19,0,23.19-24.39,23.19-24.39h-23.19v8.7c0,0,0,5.8-5.8,5.8s-5.8-5.8-5.8-5.8v-16.42L728.06-101.55z M728.06-125.71v14.49
		c0,5.65-11.6,5.81-11.6,5.81v-26.09L728.06-125.71z"/>
	<path class="st0" d="M1458.68-140.21v57.99c-11.6,2.9-11.6-5.8-11.6-5.8v-43.49v-0.97l-23.19,15.46v34.79l11.6,11.6l23.19-8.7
		v40.59c0,0,0,5.8-5.8,5.8c-5.8,0-5.8-5.8-5.8-5.8v-17.4h-23.19v8.7c0,0,0,23.19,23.19,23.19h5.8h5.8
		c23.19,0,23.19-23.19,23.19-23.19v-81.18L1458.68-140.21z"/>
	<path class="st0" d="M1554.36-122.81v-5.8l-23.19-11.6l-34.79,23.19v2.9c0,14.5,14.5,14.5,14.5,14.5h14.5c5.8,0,5.8,5.8,5.8,5.8
		v8.7c0,0,0,5.8-5.8,5.8s-5.8-5.8-5.8-5.8l0-7.13h0v-1.56h-23.19v1.46h0c0,23.19,23.19,23.24,23.19,23.24h11.6
		c23.19,0,23.2-17.44,23.2-17.44l0-4.36c0-14.5-14.5-14.5-14.5-14.5h-14.5c-5.8,0-5.8-5.8-5.8-5.8v-20.3l11.6,2.9v18.85
		L1554.36-122.81z"/>
	<path class="st0" d="M861.42-122.81v-5.8l-23.19-11.6l-34.79,23.19v2.9c0,14.5,14.5,14.5,14.5,14.5h14.5c5.8,0,5.8,5.8,5.8,5.8v8.7
		c0,0,0,5.8-5.8,5.8s-5.8-5.8-5.8-5.8l0-7.13h0v-1.56h-23.19v1.46h0c0,23.19,23.19,23.24,23.19,23.24h11.6
		c23.19,0,23.2-17.44,23.2-17.44l0-4.36c0-14.5-14.5-14.5-14.5-14.5h-14.5c-5.8,0-5.8-5.8-5.8-5.8v-20.3l11.6,2.9v18.85
		L861.42-122.81z"/>
	<path class="st0" d="M1212.1-133.42l-20.16,20.16v-26.95l-31.89,21.26v0.89c3.44-0.89,8.7-0.97,8.7,6.84c0,11.6,0,40.59,0,40.59
		h23.19v-36.93c1-1.62,7.44-10.67,20.26,2.14l14-14L1212.1-133.42z"/>
	<path class="st0" d="M637.7-140.21v-37.69l-26.09,18.13v0.87c3-0.82,7.61-1.13,8.7,4.2v2.9c0,11.11-15.26,11.58-17.19,11.6h-3.1
		v-37.69l-26.09,18.13v0.87c3-0.82,7.61-1.13,8.7,4.2v5.8c0,11.86-17.4,11.6-17.4,11.6v2.9h11.72v63.78h23.5
		c0.03-5.4,0.05-49.59,0.05-55.09c0-11.11,10.18-11.58,11.46-11.6h2.68v66.68h23.5c0.03-5.4,0.05-49.59,0.05-55.09
		c0-11.86,11.6-11.6,11.6-11.6v-2.9H637.7z"/>
	<path class="st0" d="M1386.2-140.21l-34.79,23.19v24.58c0,0,0,23.19,23.19,23.19h5.8h5.8c23.19,0,23.19-23.19,23.19-23.19v-36.17
		L1386.2-140.21z M1386.2-83.74c0,0,0,5.8-5.8,5.8s-5.8-5.8-5.8-5.8v-47.77l11.6,5.8V-83.74z"/>
	<path class="st0" d="M907.81-141.59l-34.79,23.19v24.58c0,0,0,23.19,23.19,23.19h5.8h5.8c23.19,0,23.19-23.19,23.19-23.19v-36.17
		L907.81-141.59z M907.81-85.12c0,0,0,5.8-5.8,5.8c-5.8,0-5.8-5.8-5.8-5.8v-47.77l11.6,5.8V-85.12z"/>
	<path class="st0" d="M432.33-108.32v-61.2l-11.6-8.7l-20.3,10.15v1.43c3.44,0.6,8.7,3.74,8.7,17.41v46.7l-11.6-5.8v-17.71v-17.4
		l-11.6-8.7l-20.3,10.15v1.23c3.44,0.18,8.7,2.05,8.7,11.82v23.51l23.19,11.6l11.6-7.73v30.93h23.19v-23.19l11.6-7.73v-0.97
		L432.33-108.32z"/>
</g>
<g>
	<path class="st0" d="M1544.21,328.81l-23.19,8.7l-11.6-8.7l-20.3,10.15v0.6c3.44-0.47,8.7,0.72,8.7,12.44v46.39h23.19v-57.99
		c11.6-2.9,11.6,5.8,11.6,5.8v52.19h23.19v-57.99L1544.21,328.81z"/>
	<path class="st0" d="M1132.51,328.81L1097.72,352v34.79l11.6,11.6l23.19-8.7v40.59c0,0,0,5.8-5.8,5.8s-5.8-5.8-5.8-5.8v-17.4
		h-23.19v8.7c0,0,0,23.19,23.19,23.19h11.6c23.19,0,23.19-23.19,23.19-23.19V375.2v-34.79L1132.51,328.81z M1132.51,386.8
		c-11.6,2.9-11.6-5.8-11.6-5.8v-43.49l11.6,5.8V386.8z"/>
	<path class="st0" d="M1204.99,328.81L1170.2,352v34.79l11.6,11.6l23.19-8.7v40.59c0,0,0,5.8-5.8,5.8s-5.8-5.8-5.8-5.8v-17.4h-23.19
		v8.7c0,0,0,23.19,23.19,23.19h11.6c23.19,0,23.19-23.19,23.19-23.19V375.2v-34.79L1204.99,328.81z M1204.99,386.8
		c-11.6,2.9-11.6-5.8-11.6-5.8v-43.49l11.6,5.8V386.8z"/>
	<g>
		<path class="st0" d="M474.37,309.25v0.87c3-0.82,7.61-1.13,8.7,4.2v8.7l17.4-11.6v-20.3L474.37,309.25z"/>
		<path class="st0" d="M468.57,350.07v0.89c3.44-0.89,8.7-0.97,8.7,6.84c0,11.6,0,40.59,0,40.59h23.19v-69.58L468.57,350.07z"/>
	</g>
	<path class="st0" d="M825.84,386.8l-0.12-46.39l-23.19-11.6L767.73,352V381c0,0,0,18.9,20.38,18.9c14.45,0,17.09-6.55,17.09-6.55
		s0.46,5.05,3.11,5.05c5.42,0,18.62,0,20.3,0v-2.91C825.72,395.48,825.84,386.8,825.84,386.8z M802.52,383.9c0,0,0.12,5.8-5.68,5.8
		s-5.92-5.8-5.92-5.8v-46.39l11.6,5.8V383.9z"/>
	<path class="st0" d="M349.82,386.8l-0.12-46.39l-23.19-11.6L291.71,352V381c0,0,0,18.9,20.38,18.9c14.45,0,17.09-6.55,17.09-6.55
		s0.46,5.05,3.11,5.05c5.42,0,18.62,0,20.3,0v-2.91C349.7,395.48,349.82,386.8,349.82,386.8z M326.5,383.9c0,0,0.12,5.8-5.68,5.8
		s-5.92-5.8-5.92-5.8v-46.39l11.6,5.8V383.9z"/>
	<path class="st0" d="M996.24,328.81l-20.3,12.92v-62.2l-31.89,21.26v0.89c3.44-0.89,8.7-0.97,8.7,6.84c0,11.6,0,89.88,0,89.88
		h23.19v-51.83c5.8-1.81,11.6-1.81,11.6,5.44v46.39h23.19V352h5.8L996.24,328.81z"/>
	<path class="st0" d="M1338.36,300.78v0.89c3.44-0.89,8.7,1.93,8.7,9.74c0,8.28,0,25.13,0,25.13l-11.6-7.73l-23.19,11.6l0,40.59
		c0,0-0.12,18.9,20.27,18.9c14.45,0,14.53-10.2,14.53-10.2l0,0c0,2.78,0,5.68,0,8.7h23.19V279.52L1338.36,300.78z M1347.06,369.4
		c0,4.42,0,9.23,0,14.5c0,0,0,5.8-5.8,5.8s-5.8-5.8-5.8-5.8v-14.5v-4.77h0v-21.32l11.6-5.8c0,6.35,0,14.94,0,27.12
		C1347.06,366.16,1347.06,367.75,1347.06,369.4z"/>
	<path class="st0" d="M436.68,328.81l-11.6,7.73v-57.02l-31.89,21.26v0.89c3.44-0.89,8.7,1.93,8.7,9.74c0,6.43,0,86.98,0,86.98
		h23.19v-8.7l0,0c0,0,0.07,10.2,14.52,10.2c20.38,0,20.27-18.9,20.27-18.9l0-40.59L436.68,328.81z M436.68,383.9c0,0,0,5.8-5.8,5.8
		c-5.8,0-5.8-5.8-5.8-5.8v-46.39l11.6,5.8L436.68,383.9z"/>
	<path class="st0" d="M732.4,367.47L755.6,352v-11.6l-23.19-11.6L697.61,352v20.3c0,26.09,23.19,27.29,23.19,27.29h11.6
		c23.19,0,23.19-24.39,23.19-24.39H732.4v8.7c0,0,0,5.8-5.8,5.8c-5.8,0-5.8-5.8-5.8-5.8v-16.42L732.4,367.47z M732.4,343.31v14.49
		c0,5.65-11.6,5.81-11.6,5.81v-26.09L732.4,343.31z"/>
	<path class="st0" d="M1605.09,367.47l23.19-15.46v-11.6l-23.19-11.6L1570.3,352v20.3c0,26.09,23.19,27.29,23.19,27.29h11.6
		c23.19,0,23.19-24.39,23.19-24.39h-23.19v8.7c0,0,0,5.8-5.8,5.8c-5.8,0-5.8-5.8-5.8-5.8v-16.42L1605.09,367.47z M1605.09,343.31
		v14.49c0,5.65-11.6,5.81-11.6,5.81v-26.09L1605.09,343.31z"/>
	<path class="st0" d="M1277.47,367.47l23.19-15.46v-11.6l-23.19-11.6L1242.68,352v20.3c0,26.09,23.19,27.29,23.19,27.29h11.6
		c23.19,0,23.19-24.39,23.19-24.39h-23.19v8.7c0,0,0,5.8-5.8,5.8s-5.8-5.8-5.8-5.8v-16.42L1277.47,367.47z M1277.47,343.31v14.49
		c0,5.65-11.6,5.81-11.6,5.81v-26.09L1277.47,343.31z"/>
	<path class="st0" d="M1083.22,340.4l-23.19-11.59l0.07,55.09c0,0,0,5.8-5.8,5.8s-5.8-5.8-5.8-5.8l-0.07-47.36L1025.23,352l0.07,29
		c0,0-0.12,18.9,20.27,18.9c14.45,0,14.53-10.2,14.53-10.2l0,0v8.7h23.19L1083.22,340.4z"/>
	<path class="st0" d="M886.46,335.6l-20.16,20.16v-26.95l-31.89,21.26v0.89c3.44-0.89,8.7-0.97,8.7,6.84c0,11.6,0,40.59,0,40.59
		h23.19v-36.93c1-1.62,7.44-10.67,20.26,2.14l14-14L886.46,335.6z"/>
	<path class="st0" d="M1457.23,328.81L1422.44,352v24.58c0,0,0,23.19,23.19,23.19h5.8h5.8c23.19,0,23.19-23.19,23.19-23.19v-36.17
		L1457.23,328.81z M1457.23,385.28c0,0,0,5.8-5.8,5.8s-5.8-5.8-5.8-5.8v-47.77l11.6,5.8V385.28z"/>
	<path class="st0" d="M549.75,328.81L514.96,352v34.79l11.6,11.6l23.19-8.7v40.59c0,0,0,5.8-5.8,5.8s-5.8-5.8-5.8-5.8v-17.4h-23.19
		v8.7c0,0,0,23.19,23.19,23.19h11.6c23.19,0,23.19-23.19,23.19-23.19V375.2v-34.79L549.75,328.81z M549.75,386.8
		c-11.6,2.9-11.6-5.8-11.6-5.8v-43.49l11.6,5.8V386.8z"/>
	<path class="st0" d="M659.92,328.81l-11.6,7.73v-57.02l-31.89,21.26v0.89c3.44-0.89,8.7,1.93,8.7,9.74c0,6.43,0,86.98,0,86.98
		h23.19v-8.7l0,0c0,0,0.07,10.2,14.52,10.2c20.38,0,20.27-18.9,20.27-18.9l0-40.59L659.92,328.81z M659.92,383.9c0,0,0,5.8-5.8,5.8
		c-5.8,0-5.8-5.8-5.8-5.8v-46.39l11.6,5.8L659.92,383.9z"/>
</g>
<g class="st1">
	<g class="st2">
		<line class="st3" x1="1.11" y1="163.94" x2="1918.76" y2="163.94"/>
		<line class="st3" x1="1.11" y1="210.33" x2="1918.76" y2="210.33"/>
		<line class="st3" x1="1.11" y1="94.36" x2="1918.76" y2="94.36"/>
		<line class="st3" x1="1.11" y1="45.07" x2="1918.76" y2="45.07"/>
		<line class="st3" x1="1.11" y1="56.67" x2="1918.76" y2="56.67"/>
	</g>
	<rect x="1995.18" y="210.33" class="st4" width="47.91" height="67.16"/>
	<g class="st2">
		<line class="st3" x1="1.11" y1="398.51" x2="1918.76" y2="398.51"/>
		<line class="st3" x1="1.11" y1="444.89" x2="1918.76" y2="444.89"/>
		<line class="st3" x1="1.11" y1="328.92" x2="1918.76" y2="328.92"/>
		<line class="st3" x1="1.11" y1="279.63" x2="1918.76" y2="279.63"/>
		<line class="st3" x1="1.11" y1="291.23" x2="1918.76" y2="291.23"/>
	</g>
	<rect x="1995.18" y="444.89" class="st4" width="47.91" height="67.16"/>
	<g class="st2">
		<line class="st3" x1="1.11" y1="633.07" x2="1918.76" y2="633.07"/>
		<line class="st3" x1="1.11" y1="679.46" x2="1918.76" y2="679.46"/>
		<line class="st3" x1="1.11" y1="563.49" x2="1918.76" y2="563.49"/>
		<line class="st3" x1="1.11" y1="514.2" x2="1918.76" y2="514.2"/>
		<line class="st3" x1="1.11" y1="525.8" x2="1918.76" y2="525.8"/>
	</g>
	<rect x="1995.18" y="679.46" class="st4" width="47.91" height="67.16"/>
</g>
<g>
	<path class="st0" d="M-711.01-1185.37l-23.19,8.7l-11.6-8.7l-20.3,10.15v0.6c3.44-0.47,8.7,0.72,8.7,12.44v46.39h23.19v-57.99
		c11.6-2.9,11.6,5.8,11.6,5.8v52.19h23.19v-57.99L-711.01-1185.37z"/>
	<path class="st0" d="M-2066.49-1160.37l-8.9-18.2l-6.25-3.2l-7.03-3.6l-16.61,16.99c0,0,6.64-3.4,9.97,3.4l14.25,29.15
		c-1.95,1.07-4.23,1.93-6.51,1.93h-15.1v18.12h15.1l8.25-16.49l8.06,16.49h26.58l-20.76-42.47c2.29-1.57,5.43-3.19,8.56-3.19h15.1
		v-18.12h-15.1L-2066.49-1160.37z"/>
	<path class="st0" d="M-2160.66-1167.97v-5.8l-23.19-11.6l-34.79,23.19v2.9c0,14.5,14.5,14.5,14.5,14.5h14.5c5.8,0,5.8,5.8,5.8,5.8
		v8.7c0,0,0,5.8-5.8,5.8s-5.8-5.8-5.8-5.8l0-7.13h0v-1.56h-23.19v1.46h0c0,23.19,23.19,23.24,23.19,23.24h11.6
		c23.19,0,23.2-17.44,23.2-17.44l0-4.36c0-14.5-14.5-14.5-14.5-14.5h-14.5c-5.8,0-5.8-5.8-5.8-5.8v-20.3l11.6,2.9v18.85
		L-2160.66-1167.97z"/>
	<path class="st0" d="M-1847.53-1185.37l-34.79,23.19v34.79l11.6,11.6l23.19-8.7v40.59c0,0,0,5.8-5.8,5.8c-5.8,0-5.8-5.8-5.8-5.8
		v-17.4h-23.19v8.7c0,0,0,23.19,23.19,23.19h11.6c23.19,0,23.19-23.19,23.19-23.19v-46.39v-34.79L-1847.53-1185.37z
		 M-1847.53-1127.38c-11.6,2.9-11.6-5.8-11.6-5.8v-43.49l11.6,5.8V-1127.38z"/>
	<g>
		<path class="st0" d="M-1560.5-1204.93v0.87c3-0.82,7.61-1.13,8.7,4.2v8.7l17.4-11.6v-20.3L-1560.5-1204.93z"/>
		<path class="st0" d="M-1566.3-1164.1v0.89c3.44-0.89,8.7-0.97,8.7,6.84c0,11.6,0,40.59,0,40.59h23.19v-69.58L-1566.3-1164.1z"/>
	</g>
	<g>
		<path class="st0" d="M-1922.92-1204.93v0.87c3-0.82,7.61-1.13,8.7,4.2v8.7l17.4-11.6v-20.3L-1922.92-1204.93z"/>
		<path class="st0" d="M-1928.72-1164.1v0.89c3.44-0.89,8.7-0.97,8.7,6.84c0,11.6,0,40.59,0,40.59h23.19v-69.58L-1928.72-1164.1z"/>
	</g>
	<g>
		<path class="st0" d="M-2146.16-1204.93v0.87c3-0.82,7.61-1.13,8.7,4.2v8.7l17.4-11.6v-20.3L-2146.16-1204.93z"/>
		<path class="st0" d="M-2151.96-1164.1v0.89c3.44-0.89,8.7-0.97,8.7,6.84c0,11.6,0,40.59,0,40.59h23.19v-69.58L-2151.96-1164.1z"/>
	</g>
	<g>
		<path class="st0" d="M-1021.23-1204.93v0.87c3-0.82,7.61-1.13,8.7,4.2v8.7l17.4-11.6v-20.3L-1021.23-1204.93z"/>
		<path class="st0" d="M-1027.03-1163.22c3.44-0.89,8.7-0.97,8.7,6.84c0,0.47,0,72.48,0,72.48s0,5.8-5.8,5.8c-5.8,0-5.8-5.8-5.8-5.8
			v-17.4h-23.19v8.7c0,0,0,23.19,23.19,23.19h11.6c23.19,0,23.19-23.19,23.19-23.19v-92.78l-31.89,21.26V-1163.22z"/>
	</g>
	<path class="st0" d="M-774.67-1127.38l-0.12-46.39l-23.19-11.6l-34.79,23.19v28.99c0,0,0,18.9,20.38,18.9
		c14.45,0,17.09-6.55,17.09-6.55s0.46,5.05,3.11,5.05c5.42,0,18.62,0,20.3,0v-2.91C-774.79-1118.69-774.67-1127.38-774.67-1127.38z
		 M-797.99-1130.28c0,0,0.12,5.8-5.68,5.8c-5.8,0-5.92-5.8-5.92-5.8v-46.39l11.6,5.8V-1130.28z"/>
	<path class="st0" d="M-922.54-1127.38l-0.12-46.39l-23.19-11.6l-34.79,23.19v28.99c0,0,0,18.9,20.38,18.9
		c14.45,0,17.09-6.55,17.09-6.55s0.46,5.05,3.11,5.05c5.42,0,18.62,0,20.3,0v-2.91C-922.66-1118.69-922.54-1127.38-922.54-1127.38z
		 M-945.85-1130.28c0,0,0.12,5.8-5.68,5.8c-5.8,0-5.92-5.8-5.92-5.8v-46.39l11.6,5.8V-1130.28z"/>
	<path class="st0" d="M-1343.06-1165.21v-57.85l11.6,5.8v20.3l11.6,8.7l20.3-10.15v-0.6c-3.44,0.47-8.7-0.72-8.7-12.44v-8.7
		l-23.19-11.6l-43.49,28.99v0.89c3.44-0.89,8.7-0.97,8.7,6.84c0,1.77,0,79.25,0,79.25h23.19v-43.73c1-1.62,7.44-10.67,20.26,2.14
		l14-14l-14.1-14L-1343.06-1165.21z"/>
	<path class="st0" d="M-1525.71-1213.39v0.89c3.44-0.89,8.7-0.97,8.7,6.84c0,11.6,0,89.88,0,89.88h23.19v-118.87L-1525.71-1213.39z"
		/>
	<path class="st0" d="M-1082.12-1185.37l-25.32,9.47l-9.47-9.47l-23.19,8.7l-11.6-8.7l-20.3,10.15v0.6c3.44-0.47,8.7,0.72,8.7,12.44
		v46.39h23.19v-57.99c11.6-2.9,11.6,5.8,11.6,5.8v52.19h23.19v-57.99c11.6-2.9,11.6,5.8,11.6,5.8v52.19h23.19v-57.99
		L-1082.12-1185.37z"/>
	<path class="st0" d="M-1748.96-1213.39v0.89c3.44-0.89,8.7,1.93,8.7,9.74c0,8.28,0,25.13,0,25.13l-11.6-7.73l-23.19,11.6l0,40.59
		c0,0-0.12,18.9,20.27,18.9c14.45,0,14.53-10.2,14.53-10.2l0,0c0,2.78,0,5.68,0,8.7h23.19v-118.87L-1748.96-1213.39z
		 M-1740.26-1144.78c0,4.42,0,9.23,0,14.5c0,0,0,5.8-5.8,5.8s-5.8-5.8-5.8-5.8v-14.5v-4.77h0v-21.32l11.6-5.8
		c0,6.35,0,14.94,0,27.12C-1740.26-1148.01-1740.26-1146.42-1740.26-1144.78z"/>
	<path class="st0" d="M-1960.61-1185.37l-11.6,7.73v-57.02l-31.89,21.26v0.89c3.44-0.89,8.7,1.93,8.7,9.74c0,6.43,0,86.98,0,86.98
		h23.19v-8.7l0,0c0,0,0.07,10.2,14.53,10.2c20.38,0,20.27-18.9,20.27-18.9l0-40.59L-1960.61-1185.37z M-1960.61-1130.28
		c0,0,0,5.8-5.8,5.8s-5.8-5.8-5.8-5.8v-46.39l11.6,5.8L-1960.61-1130.28z"/>
	<path class="st0" d="M-1667.78-1146.71l23.19-15.46v-11.6l-23.19-11.6l-34.79,23.19v20.3c0,26.09,23.19,27.29,23.19,27.29h11.6
		c23.19,0,23.19-24.39,23.19-24.39h-23.19v8.7c0,0,0,5.8-5.8,5.8s-5.8-5.8-5.8-5.8v-16.42L-1667.78-1146.71z M-1667.78-1170.87
		v14.49c0,5.65-11.6,5.81-11.6,5.81v-26.09L-1667.78-1170.87z"/>
	<path class="st0" d="M-1421.34-1167.97v-5.8l-23.19-11.6l-34.79,23.19v2.9c0,14.5,14.5,14.5,14.5,14.5h14.5c5.8,0,5.8,5.8,5.8,5.8
		v8.7c0,0,0,5.8-5.8,5.8s-5.8-5.8-5.8-5.8l0-7.13h0v-1.56h-23.19v1.46h0c0,23.19,23.19,23.24,23.19,23.24h11.6
		c23.19,0,23.2-17.44,23.2-17.44l0-4.36c0-14.5-14.5-14.5-14.5-14.5h-14.5c-5.8,0-5.8-5.8-5.8-5.8v-20.3l11.6,2.9v18.85
		L-1421.34-1167.97z"/>
	<path class="st0" d="M-870.47-1185.37l-11.6,7.73v-10.63l-31.89,21.26v0.89c3.44-0.89,8.7-0.97,8.7,6.84c0,3.04,0,89.88,0,89.88
		h23.19v-46.39h11.6c23.19,0,23.19-23.19,23.19-23.19v-34.79L-870.47-1185.37z M-870.47-1130.28c0,0,0,5.8-5.8,5.8s-5.8-5.8-5.8-5.8
		v-46.39l11.6,5.8V-1130.28z"/>
	<path class="st0" d="M-1255.68-1178.57l-20.16,20.16v-26.95l-31.89,21.26v0.89c3.44-0.89,8.7-0.97,8.7,6.84c0,11.6,0,40.59,0,40.59
		h23.19v-36.93c1-1.62,7.44-10.67,20.26,2.14l14-14L-1255.68-1178.57z"/>
	<path class="st0" d="M-1586.1-1184.83l-14,14c0,0,16.23,11.44,13.54,22.98l-5.84,23.37l-14.5-20.3v-31.89l-11.6-8.7l-20.3,10.15
		v0.6c3.44-0.47,8.7,0.72,8.7,12.44h0.04l-0.04,23.19l17.4,23.19l24.02-0.11l16.54-54.87L-1586.1-1184.83z"/>
	<path class="st0" d="M-1200.99-1185.37l-34.79,23.19v24.58c0,0,0,23.19,23.19,23.19h5.8h5.8c23.19,0,23.19-23.19,23.19-23.19
		v-36.17L-1200.99-1185.37z M-1200.99-1128.9c0,0,0,5.8-5.8,5.8c-5.8,0-5.8-5.8-5.8-5.8v-47.77l11.6,5.8V-1128.9z"/>
</g>
<g>
	<g>
		<path class="st0" d="M-2147.85-972.5v0.87c3-0.82,7.61-1.13,8.7,4.2v8.7l17.4-11.6v-20.3L-2147.85-972.5z"/>
		<path class="st0" d="M-2153.65-931.68v0.89c3.44-0.89,8.7-0.97,8.7,6.84c0,11.6,0,40.59,0,40.59h23.19v-69.58L-2153.65-931.68z"/>
	</g>
	<path class="st0" d="M-787.48-894.96l-0.12-46.39l-23.19-11.6l-34.79,23.19v28.99c0,0,0,18.9,20.38,18.9
		c14.45,0,17.09-6.55,17.09-6.55s0.46,5.05,3.11,5.05c5.42,0,18.62,0,20.3,0v-2.91C-787.6-886.27-787.48-894.96-787.48-894.96z
		 M-810.8-897.86c0,0,0.12,5.8-5.68,5.8s-5.92-5.8-5.92-5.8v-46.39l11.6,5.8V-897.86z"/>
	<path class="st0" d="M-2049.27-929.75v-11.6l-23.19-11.6l-34.79,23.19v20.3c0,26.09,23.19,27.6,23.19,27.6h11.6
		c23.19,0,23.19-24.7,23.19-24.7h-23.19v8.7c0,0,0,5.8-5.8,5.8s-5.8-5.8-5.8-5.8v-46.39l11.6,5.8v24.16L-2049.27-929.75z"/>
	<path class="st0" d="M-1790.76-932.79v-57.85l11.6,5.8v20.3l11.6,8.7l20.3-10.15v-0.6c-3.44,0.47-8.7-0.72-8.7-12.44v-8.7
		l-23.19-11.6l-43.49,28.99v0.89c3.44-0.89,8.7-0.97,8.7,6.84c0,1.77,0,79.25,0,79.25h23.19v-43.73c1-1.62,7.44-10.67,20.26,2.14
		l14-14l-14.1-14L-1790.76-932.79z"/>
	<path class="st0" d="M-1347.17-952.94l-20.3,12.92v-62.2l-31.89,21.26v0.89c3.44-0.89,8.7-0.97,8.7,6.84c0,11.6,0,89.88,0,89.88
		h23.19v-51.83c5.8-1.81,11.6-1.81,11.6,5.44v46.39h23.19v-46.39h5.8L-1347.17-952.94z"/>
	<path class="st0" d="M-1970.99-932.65l-17.4-20.3l-23.19,17.37v-55.06l-31.89,18.36v0.59c3.43-0.91,8.79-1.07,8.79,6.82
		c0,11.6-0.1,81.5-0.1,81.5h23.19v-27.34c11.59,2.15,11.6,15.75,11.6,15.75v11.6l23.19-0.14c0-28.94-23.19-28.85-23.19-28.85h-11.31
		l34.5-20.3H-1970.99z M-2011.58-913.83v-18.94c3.75-1.3,9.45-2.13,11.6,3.03C-1997.68-924.21-2004.05-919.37-2011.58-913.83z"/>
	<path class="st0" d="M-1970.99-980.97v0.89c3.44-0.89,8.7-0.97,8.7,6.84c0,11.6,0,89.88,0,89.88h23.19v-118.87L-1970.99-980.97z"/>
	<path class="st0" d="M-778.9-980.97v0.89c3.44-0.89,8.7-0.97,8.7,6.84c0,11.6,0,89.88,0,89.88h23.19v-118.87L-778.9-980.97z"/>
	<path class="st0" d="M-2258.02-952.94l-34.79,23.19v23.19c0,23.19,23.19,23.19,23.19,23.19h11.6v46.39h23.19v-104.37
		L-2258.02-952.94z M-2258.02-897.86c0,0,0,5.8-5.8,5.8s-5.8-5.8-5.8-5.8v-46.39l11.6,5.8V-897.86z"/>
	<path class="st0" d="M-1889.81-952.94v57.99c-11.6,2.9-11.6-5.8-11.6-5.8v-43.49v-0.97l-23.19,15.46v34.79l11.6,11.6l23.19-8.7
		v40.59c0,0,0,5.8-5.8,5.8s-5.8-5.8-5.8-5.8v-17.4h-23.19v8.7c0,0,0,23.19,23.19,23.19h5.8h5.8c23.19,0,23.19-23.19,23.19-23.19
		v-81.18L-1889.81-952.94z"/>
	<path class="st0" d="M-2162.35-941.35l-23.19-11.59l0.07,55.09c0,0,0,5.8-5.8,5.8s-5.8-5.8-5.8-5.8l-0.07-47.36l-23.19,15.46
		l0.07,29c0,0-0.12,18.9,20.27,18.9c14.45,0,14.52-10.2,14.52-10.2l0,0v8.7h23.19L-2162.35-941.35z"/>
	<path class="st0" d="M-653.44-891.36c-1.8,3.31-6.1,5.43-9.52,6.65l27.53-47.44c3.79-6.55,10.18-2.69,10.18-2.69l-15.39-18.11
		l-13.73,5.85c-11.63,0.23-22.76-5.83-22.76-5.83l-14.33,26.36l14.7,8l11.2-20.58c1.9-3.5,6.78-5.53,10.42-6.61l-36.2,62.4h52.59
		l11.2-20.58l-14.7-8L-653.44-891.36z"/>
	<path class="st0" d="M-706.42-952.94v-37.69l-26.09,18.13v0.87c3-0.82,7.61-1.13,8.7,4.2v5.8c0,11.86-17.4,11.86-17.4,11.86v2.64
		h11.72v63.78h23.5c0.03-5.4,0.05-49.59,0.05-55.09c0-11.86,11.6-11.6,11.6-11.6v-2.9H-706.42z"/>
	<path class="st0" d="M-1071.73-952.94v-37.69l-26.09,18.13v0.87c3-0.82,7.61-1.13,8.7,4.2v5.8c0,11.86-17.4,11.86-17.4,11.86v2.64
		h11.72v63.78h23.5c0.03-5.4,0.05-49.59,0.05-55.09c0-11.86,11.6-11.6,11.6-11.6v-2.9H-1071.73z"/>
	<path class="st0" d="M-1442.85-952.94v-37.69l-26.09,18.13v0.87c3-0.82,7.61-1.13,8.7,4.2v5.8c0,11.86-17.4,11.86-17.4,11.86v2.64
		h11.72v63.78h23.5c0.03-5.4,0.05-49.59,0.05-55.09c0-11.86,11.6-11.6,11.6-11.6v-2.9H-1442.85z"/>
	<path class="st0" d="M-865.35-952.41l-14,14c0,0,16.23,11.44,13.54,22.98l-5.84,23.37l-14.5-20.3v-31.89l-11.6-8.7l-20.33,10.16
		v0.59c3.43-0.48,8.73,0.68,8.73,12.44h0.04l-0.03,14.5l-0.05,0c0,0.02,0.02,0.03,0.05,0.04l-0.02,8.66l4.87,6.49l-2,8.01
		l-14.5-20.3v-31.89l-11.6-8.7l-20.3,10.15v0.6c3.44-0.47,8.7,0.72,8.7,12.44h0.04l-0.04,23.19l17.4,23.19l24.02-0.11l3.07-10.19
		l7.73,10.31l24.02-0.11l16.54-54.87L-865.35-952.41z"/>
	<path class="st0" d="M-1161.08-952.41l-14,14c0,0,16.23,11.44,13.54,22.98l-5.84,23.37l-14.5-20.3v-31.89l-11.6-8.7l-20.33,10.16
		v0.59c3.43-0.48,8.73,0.68,8.73,12.44h0.04l-0.03,14.5l-0.05,0c0,0.02,0.02,0.03,0.05,0.04l-0.02,8.66l4.87,6.49l-2,8.01
		l-14.5-20.3v-31.89l-11.6-8.7l-20.3,10.15v0.6c3.44-0.47,8.7,0.72,8.7,12.44h0.04l-0.04,23.19l17.4,23.19l24.02-0.11l3.07-10.19
		l7.73,10.31l24.02-0.11l16.54-54.87L-1161.08-952.41z"/>
	<path class="st0" d="M-1280.48-952.94l-34.79,23.19v24.58c0,0,0,23.19,23.19,23.19h5.8h5.8c23.19,0,23.19-23.19,23.19-23.19v-36.17
		L-1280.48-952.94z M-1280.48-896.48c0,0,0,5.8-5.8,5.8s-5.8-5.8-5.8-5.8v-47.77l11.6,5.8V-896.48z"/>
	<path class="st0" d="M-1506.63-952.94l-34.79,23.19v24.58c0,0,0,23.19,23.19,23.19h5.8h5.8c23.19,0,23.19-23.19,23.19-23.19v-36.17
		L-1506.63-952.94z M-1506.63-896.48c0,0,0,5.8-5.8,5.8s-5.8-5.8-5.8-5.8v-47.77l11.6,5.8V-896.48z"/>
	<path class="st0" d="M-1579.11-952.94l-34.79,23.19v34.79l11.6,11.6l23.19-8.7v40.59c0,0,0,5.8-5.8,5.8s-5.8-5.8-5.8-5.8v-17.4
		h-23.19v8.7c0,0,0,23.19,23.19,23.19h11.6c23.19,0,23.19-23.19,23.19-23.19v-46.39v-34.79L-1579.11-952.94z M-1579.11-894.96
		c-11.6,2.9-11.6-5.8-11.6-5.8v-43.49l11.6,5.8V-894.96z"/>
	<path class="st0" d="M-1634.34-946.15l-20.16,20.16v-26.95l-31.89,21.26v0.89c3.44-0.89,8.7-0.97,8.7,6.84c0,11.6,0,40.59,0,40.59
		h23.19v-36.93c1-1.62,7.44-10.67,20.26,2.14l14-14L-1634.34-946.15z"/>
	<path class="st0" d="M-1718.28-952.94l-34.79,23.19v24.58c0,0,0,23.19,23.19,23.19h5.8h5.8c23.19,0,23.19-23.19,23.19-23.19v-36.17
		L-1718.28-952.94z M-1718.28-896.48c0,0,0,5.8-5.8,5.8c-5.8,0-5.8-5.8-5.8-5.8v-47.77l11.6,5.8V-896.48z"/>
	<path class="st0" d="M-1019.55-952.94l-34.79,23.19v24.58c0,0,0,23.19,23.19,23.19h5.8h5.8c23.19,0,23.19-23.19,23.19-23.19v-36.17
		L-1019.55-952.94z M-1019.55-896.48c0,0,0,5.8-5.8,5.8c-5.8,0-5.8-5.8-5.8-5.8v-47.77l11.6,5.8V-896.48z"/>
</g>
</svg>
