<?xml version="1.0" encoding="utf-8"?>
<!-- Generator: Adobe Illustrator 25.2.3, SVG Export Plug-In . SVG Version: 6.00 Build 0)  -->
<svg version="1.1" id="Layer_1" xmlns="http://www.w3.org/2000/svg" xmlns:xlink="http://www.w3.org/1999/xlink" x="0px" y="0px"
	 viewBox="0 0 1920 225.22" style="enable-background:new 0 0 1920 225.22;" xml:space="preserve">
<style type="text/css">
	.st0{fill:#FFFFFF;}
	.st1{display:none;}
	.st2{display:inline;}
	.st3{fill:none;stroke:#FF3000;stroke-miterlimit:10;}
	.st4{display:inline;fill:none;stroke:#FF3000;stroke-miterlimit:10;}
</style>
<g>
	<path class="st0" d="M1020.89,319.58l-23.19,8.7l-11.6-8.7l-20.3,10.15v0.6c3.44-0.47,8.7,0.72,8.7,12.44v46.39h23.19v-57.99
		c11.6-2.9,11.6,5.8,11.6,5.8v52.19h23.19v-57.99L1020.89,319.58z"/>
	<path class="st0" d="M797.64,319.58l-23.19,8.7l-11.6-8.7l-20.3,10.15v0.6c3.44-0.47,8.7,0.72,8.7,12.44v46.39h23.19v-57.99
		c11.6-2.9,11.6,5.8,11.6,5.8v52.19h23.19v-57.99L797.64,319.58z"/>
	<path class="st0" d="M858.52,319.58l-34.79,23.19v34.79l11.6,11.6l23.19-8.7v40.59c0,0,0,5.8-5.8,5.8c-5.8,0-5.8-5.8-5.8-5.8v-17.4
		h-23.19v8.7c0,0,0,23.19,23.19,23.19h11.6c23.19,0,23.19-23.19,23.19-23.19v-46.39v-34.79L858.52,319.58z M858.52,377.56
		c-11.6,2.9-11.6-5.8-11.6-5.8v-43.49l11.6,5.8V377.56z"/>
	<g>
		<path class="st0" d="M931.01,300.02v0.87c3-0.82,7.61-1.13,8.7,4.2v8.7l17.4-11.6v-20.3L931.01,300.02z"/>
		<path class="st0" d="M925.21,340.84v0.89c3.44-0.89,8.7-0.97,8.7,6.84c0,11.6,0,40.59,0,40.59h23.19v-69.58L925.21,340.84z"/>
	</g>
	<g>
		<path class="st0" d="M707.76,300.02v0.87c3-0.82,7.61-1.13,8.7,4.2v8.7l17.4-11.6v-20.3L707.76,300.02z"/>
		<path class="st0" d="M701.96,340.84v0.89c3.44-0.89,8.7-0.97,8.7,6.84c0,11.6,0,40.59,0,40.59h23.19v-69.58L701.96,340.84z"/>
	</g>
	<path class="st0" d="M574.51,377.56l-0.12-46.39l-23.19-11.6l-34.79,23.19v28.99c0,0,0,18.9,20.38,18.9
		c14.45,0,17.09-6.55,17.09-6.55s0.46,5.05,3.11,5.05c5.42,0,18.62,0,20.3,0v-2.91C574.39,386.25,574.51,377.56,574.51,377.56z
		 M551.2,374.66c0,0,0.12,5.8-5.68,5.8s-5.92-5.8-5.92-5.8v-46.39l11.6,5.8V374.66z"/>
	<path class="st0" d="M1171.65,319.58l-20.3,12.92v-62.2l-31.89,21.26v0.89c3.44-0.89,8.7-0.97,8.7,6.84c0,11.6,0,89.88,0,89.88
		h23.19v-51.83c5.8-1.81,11.6-1.81,11.6,5.44v46.39h23.19v-46.39h5.8L1171.65,319.58z"/>
	<path class="st0" d="M696.16,339.87l-17.4-20.3l-23.19,17.37v-55.06l-31.89,18.36v0.59c3.43-0.91,8.79-1.07,8.79,6.82
		c0,11.6-0.1,81.5-0.1,81.5h23.19v-27.34c11.59,2.15,11.6,15.75,11.6,15.75v11.6l23.19-0.14c0-28.94-23.19-28.85-23.19-28.85h-11.31
		l34.5-20.3H696.16z M655.57,358.69v-18.94c3.75-1.3,9.45-2.13,11.6,3.03C669.48,348.31,663.1,353.15,655.57,358.69z"/>
	<path class="st0" d="M583.09,291.55v0.89c3.44-0.89,8.7-0.97,8.7,6.84c0,11.6,0,89.88,0,89.88h23.19V270.29L583.09,291.55z"/>
	<path class="st0" d="M1235.43,358.24l23.19-15.46v-11.6l-23.19-11.6l-34.79,23.19v20.3c0,26.09,23.19,27.29,23.19,27.29h11.6
		c23.19,0,23.19-24.39,23.19-24.39h-23.19v8.7c0,0,0,5.8-5.8,5.8c-5.8,0-5.8-5.8-5.8-5.8v-16.42L1235.43,358.24z M1235.43,334.07
		v14.49c0,5.65-11.6,5.81-11.6,5.81v-26.09L1235.43,334.07z"/>
	<path class="st0" d="M1348.83,381.16c-1.8,3.31-6.1,5.43-9.52,6.65l27.53-47.44c3.79-6.55,10.18-2.69,10.18-2.69l-15.39-18.11
		l-13.73,5.85c-11.63,0.23-22.76-5.83-22.76-5.83l-14.33,26.36l14.7,8l11.2-20.58c1.9-3.5,6.78-5.53,10.42-6.61l-36.2,62.4h52.59
		l11.2-20.58l-14.7-8L1348.83,381.16z"/>
	<path class="st0" d="M1107.86,319.58v-37.69l-26.09,18.13v0.87c3-0.82,7.61-1.13,8.7,4.2v5.8c0,11.86-17.4,11.86-17.4,11.86v2.64
		h11.72v63.78h23.5c0.03-5.4,0.05-49.59,0.05-55.09c0-11.86,11.6-11.6,11.6-11.6v-2.9H1107.86z"/>
	<path class="st0" d="M496.64,320.11l-14,14c0,0,16.23,11.44,13.54,22.98l-5.84,23.37l-14.5-20.3v-31.89l-11.6-8.7l-20.33,10.16
		v0.59c3.43-0.48,8.73,0.68,8.73,12.44h0.04l-0.03,14.5l-0.05,0c0,0.02,0.02,0.03,0.05,0.04l-0.02,8.66l4.87,6.49l-2,8.01
		l-14.5-20.3v-31.89l-11.6-8.7l-20.3,10.15v0.6c3.44-0.47,8.7,0.72,8.7,12.44h0.04l-0.04,23.19l17.4,23.19l24.02-0.11l3.07-10.19
		l7.73,10.31l24.02-0.11l16.54-54.87L496.64,320.11z"/>
	<path class="st0" d="M1487.67,319.58l-34.79,23.19v24.58c0,0,0,23.19,23.19,23.19h5.8h5.8c23.19,0,23.19-23.19,23.19-23.19v-36.17
		L1487.67,319.58z M1487.67,376.05c0,0,0,5.8-5.8,5.8c-5.8,0-5.8-5.8-5.8-5.8v-47.77l11.6,5.8V376.05z"/>
	<path class="st0" d="M1418.09,319.58l-34.79,23.19v24.58c0,0,0,23.19,23.19,23.19h5.8h5.8c23.19,0,23.19-23.19,23.19-23.19v-36.17
		L1418.09,319.58z M1418.09,376.05c0,0,0,5.8-5.8,5.8s-5.8-5.8-5.8-5.8v-47.77l11.6,5.8V376.05z"/>
</g>
<g>
	<path class="st0" d="M426.29,788.78l-23.19,8.7l-11.6-8.7l-20.3,10.15v0.6c3.44-0.47,8.7,0.72,8.7,12.44v46.39h23.19v-57.99
		c11.6-2.9,11.6,5.8,11.6,5.8v52.19h23.19v-57.99L426.29,788.78z"/>
	<path class="st0" d="M794.5,788.78l-23.19,8.7l-11.6-8.7l-20.3,10.15v0.6c3.44-0.47,8.7,0.72,8.7,12.44v46.39h23.19v-57.99
		c11.6-2.9,11.6,5.8,11.6,5.8v52.19h23.19v-57.99L794.5,788.78z"/>
	<path class="st0" d="M362.63,846.76l-0.12-46.39l-23.19-11.6l-34.79,23.19v28.99c0,0,0,18.9,20.38,18.9
		c14.45,0,17.09-6.55,17.09-6.55s0.46,5.05,3.11,5.05c5.42,0,18.62,0,20.3,0v-2.91C362.51,855.45,362.63,846.76,362.63,846.76z
		 M339.31,843.86c0,0,0.12,5.8-5.68,5.8s-5.92-5.8-5.92-5.8v-46.39l11.6,5.8V843.86z"/>
	<path class="st0" d="M945.74,788.78l-20.3,12.92v-62.2l-31.89,21.26v0.89c3.44-0.89,8.7-0.97,8.7,6.84c0,11.6,0,89.88,0,89.88
		h23.19v-51.83c5.8-1.81,11.6-1.81,11.6,5.44v46.39h23.19v-46.39h5.8L945.74,788.78z"/>
	<path class="st0" d="M478.48,760.75v0.89c3.44-0.89,8.7,1.93,8.7,9.74c0,8.28,0,25.13,0,25.13l-11.6-7.73l-23.19,11.6l0,40.59
		c0,0-0.12,18.9,20.27,18.9c14.45,0,14.52-10.2,14.52-10.2l0,0c0,2.78,0,5.68,0,8.7h23.19V739.49L478.48,760.75z M487.18,829.37
		c0,4.42,0,9.23,0,14.5c0,0,0,5.8-5.8,5.8c-5.8,0-5.8-5.8-5.8-5.8v-14.5v-4.77h0v-21.32l11.6-5.8c0,6.35,0,14.94,0,27.12
		C487.18,826.13,487.18,827.72,487.18,829.37z"/>
	<path class="st0" d="M1006.63,827.43l23.19-15.46v-11.6l-23.19-11.6l-34.79,23.19v20.3c0,26.09,23.19,27.29,23.19,27.29h11.6
		c23.19,0,23.19-24.39,23.19-24.39h-23.19v8.7c0,0,0,5.8-5.8,5.8s-5.8-5.8-5.8-5.8v-16.42L1006.63,827.43z M1006.63,803.27v14.49
		c0,5.65-11.6,5.81-11.6,5.81v-26.09L1006.63,803.27z"/>
	<path class="st0" d="M1139.99,827.43l23.19-15.46v-11.6l-23.19-11.6l-34.79,23.19v20.3c0,26.09,23.19,27.29,23.19,27.29h11.6
		c23.19,0,23.19-24.39,23.19-24.39h-23.19v8.7c0,0,0,5.8-5.8,5.8s-5.8-5.8-5.8-5.8v-16.42L1139.99,827.43z M1139.99,803.27v14.49
		c0,5.65-11.6,5.81-11.6,5.81v-26.09L1139.99,803.27z"/>
	<path class="st0" d="M1087.67,795.57l-20.16,20.16v-26.95l-31.89,21.26v0.89c3.44-0.89,8.7-0.97,8.7,6.84c0,11.6,0,40.59,0,40.59
		h23.19v-36.93c1-1.62,7.44-10.67,20.26,2.14l14-14L1087.67,795.57z"/>
	<path class="st0" d="M1348.74,827.43l23.19-15.46v-11.6l-23.19-11.6l-34.79,23.19v20.3c0,26.09,23.19,27.29,23.19,27.29h11.6
		c23.19,0,23.19-24.39,23.19-24.39h-23.19v8.7c0,0,0,5.8-5.8,5.8c-5.8,0-5.8-5.8-5.8-5.8v-16.42L1348.74,827.43z M1348.74,803.27
		v14.49c0,5.65-11.6,5.81-11.6,5.81v-26.09L1348.74,803.27z"/>
	<path class="st0" d="M1482.11,827.43l23.19-15.46v-11.6l-23.19-11.6l-34.79,23.19v20.3c0,26.09,23.19,27.29,23.19,27.29h11.6
		c23.19,0,23.19-24.39,23.19-24.39h-23.19v8.7c0,0,0,5.8-5.8,5.8s-5.8-5.8-5.8-5.8v-16.42L1482.11,827.43z M1482.11,803.27v14.49
		c0,5.65-11.6,5.81-11.6,5.81v-26.09L1482.11,803.27z"/>
	<path class="st0" d="M1429.78,795.57l-20.16,20.16v-26.95l-31.89,21.26v0.89c3.44-0.89,8.7-0.97,8.7,6.84c0,11.6,0,40.59,0,40.59
		h23.19v-36.93c1-1.62,7.44-10.67,20.26,2.14l14-14L1429.78,795.57z"/>
	<path class="st0" d="M881.48,788.78v-37.69l-26.09,18.13v0.87c3-0.82,7.61-1.13,8.7,4.2v5.8c0,11.86-17.4,11.86-17.4,11.86v2.64
		h11.72v63.78h23.5c0.03-5.4,0.05-49.59,0.05-55.09c0-11.86,11.6-11.6,11.6-11.6v-2.9H881.48z"/>
	<path class="st0" d="M649.54,788.78l-20.3,12.92v-62.2l-31.89,21.26v0.89c3.44-0.89,8.7-0.97,8.7,6.84c0,11.6,0,89.88,0,89.88
		h23.19v-51.83c5.8-1.81,11.6-1.81,11.6,5.44v46.39h23.19v-46.39h5.8L649.54,788.78z"/>
	<path class="st0" d="M710.42,827.43l23.19-15.46v-11.6l-23.19-11.6l-34.79,23.19v20.3c0,26.09,23.19,27.29,23.19,27.29h11.6
		c23.19,0,23.19-24.39,23.19-24.39h-23.19v8.7c0,0,0,5.8-5.8,5.8c-5.8,0-5.8-5.8-5.8-5.8v-16.42L710.42,827.43z M710.42,803.27
		v14.49c0,5.65-11.6,5.81-11.6,5.81v-26.09L710.42,803.27z"/>
	<path class="st0" d="M585.28,788.78v-37.69l-26.09,18.13v0.87c3-0.82,7.61-1.13,8.7,4.2v5.8c0,11.86-17.4,11.86-17.4,11.86v2.64
		h11.72v63.78h23.5c0.03-5.4,0.05-49.59,0.05-55.09c0-11.86,11.6-11.6,11.6-11.6v-2.9H585.28z"/>
	<path class="st0" d="M1294.19,789.31l-14,14c0,0,16.23,11.44,13.54,22.98l-5.84,23.37l-14.5-20.3v-31.89l-11.6-8.7l-20.33,10.16
		v0.59c3.43-0.48,8.73,0.68,8.73,12.44h0.04l-0.03,14.5l-0.05,0c0,0.02,0.02,0.03,0.05,0.04l-0.02,8.66l4.87,6.49l-2,8.01
		l-14.5-20.3v-31.89l-11.6-8.7l-20.3,10.15v0.6c3.44-0.47,8.7,0.72,8.7,12.44h0.04l-0.04,23.19l17.4,23.19l24.02-0.11l3.07-10.19
		l7.73,10.31l24.02-0.11l16.54-54.87L1294.19,789.31z"/>
	<path class="st0" d="M1615.48,780.08v-17.4l-23.19-11.6l-34.79,23.19v20.3h23.19v-34.79l11.6,5.8v26.09c0,0,0,8.7-5.8,8.7v8.7
		c5.8,0,5.8,8.7,5.8,8.7v26.41c0,0,0,5.8-5.8,5.8s-5.8-5.8-5.8-5.8v-23.19h-23.19v14.5c0,0,0,24.72,23.19,24.72h11.6
		c23.19,0,23.2-24.72,23.2-24.72v-14.81c0,0,0-9.23-8.78-15.95C1615.48,798.01,1615.48,780.08,1615.48,780.08z"/>
</g>
<g>
	<g>
		<path class="st0" d="M1055.68,65.45v0.87c3-0.82,7.61-1.13,8.7,4.2v8.7l17.4-11.6v-20.3L1055.68,65.45z"/>
		<path class="st0" d="M1049.88,106.27v0.89c3.44-0.89,8.7-0.97,8.7,6.84c0,11.6,0,40.59,0,40.59h23.19V85.01L1049.88,106.27z"/>
	</g>
	<g>
		<path class="st0" d="M533.8,65.45v0.87c3-0.82,7.61-1.13,8.7,4.2v8.7l17.4-11.6v-20.3L533.8,65.45z"/>
		<path class="st0" d="M528,106.27v0.89c3.44-0.89,8.7-0.97,8.7,6.84c0,11.6,0,40.59,0,40.59h23.19V85.01L528,106.27z"/>
	</g>
	<path class="st0" d="M936.81,56.99v0.89c3.44-0.89,8.7-0.97,8.7,6.84c0,11.6,0,89.88,0,89.88h23.19V35.72L936.81,56.99z"/>
	<path class="st0" d="M487.41,56.99v0.89c3.44-0.89,8.7-0.97,8.7,6.84c0,11.6,0,89.88,0,89.88h23.19V35.72L487.41,56.99z"/>
	<path class="st0" d="M646.88,56.99v0.89c3.44-0.89,8.7-0.97,8.7,6.84c0,11.6,0,89.88,0,89.88h23.19V35.72L646.88,56.99z"/>
	<path class="st0" d="M1009.29,56.99v0.89c3.44-0.89,8.7,1.93,8.7,9.74c0,8.28,0,25.13,0,25.13l-11.6-7.73l-23.19,11.6l0,40.59
		c0,0-0.12,18.9,20.27,18.9c14.45,0,14.52-10.2,14.52-10.2l0,0c0,2.78,0,5.68,0,8.7h23.19V35.72L1009.29,56.99z M1017.99,125.6
		c0,4.42,0,9.23,0,14.5c0,0,0,5.8-5.8,5.8c-5.8,0-5.8-5.8-5.8-5.8v-14.5v-4.77h0V99.51l11.6-5.8c0,6.35,0,14.94,0,27.12
		C1017.99,122.37,1017.99,123.96,1017.99,125.6z"/>
	<path class="st0" d="M1313.71,85.01l-11.6,7.73V35.72l-31.89,21.26v0.89c3.44-0.89,8.7,1.93,8.7,9.74c0,6.43,0,86.98,0,86.98h23.19
		v-8.7l0,0c0,0,0.07,10.2,14.52,10.2c20.38,0,20.27-18.9,20.27-18.9l0-40.59L1313.71,85.01z M1313.71,140.1c0,0,0,5.8-5.8,5.8
		c-5.8,0-5.8-5.8-5.8-5.8V93.71l11.6,5.8L1313.71,140.1z"/>
	<path class="st0" d="M1131.06,123.67l23.19-15.46v-11.6l-23.19-11.6l-34.79,23.19v20.3c0,26.09,23.19,27.29,23.19,27.29h11.6
		c23.19,0,23.19-24.39,23.19-24.39h-23.19v8.7c0,0,0,5.8-5.8,5.8s-5.8-5.8-5.8-5.8v-16.42L1131.06,123.67z M1131.06,99.51V114
		c0,5.65-11.6,5.81-11.6,5.81V93.71L1131.06,99.51z"/>
	<path class="st0" d="M728.06,123.67l23.19-15.46v-11.6l-23.19-11.6l-34.79,23.19v20.3c0,26.09,23.19,27.29,23.19,27.29h11.6
		c23.19,0,23.19-24.39,23.19-24.39h-23.19v8.7c0,0,0,5.8-5.8,5.8s-5.8-5.8-5.8-5.8v-16.42L728.06,123.67z M728.06,99.51V114
		c0,5.65-11.6,5.81-11.6,5.81V93.71L728.06,99.51z"/>
	<path class="st0" d="M1458.68,85.01V143c-11.6,2.9-11.6-5.8-11.6-5.8V93.71v-0.97l-23.19,15.46V143l11.6,11.6l23.19-8.7v40.59
		c0,0,0,5.8-5.8,5.8c-5.8,0-5.8-5.8-5.8-5.8v-17.4h-23.19v8.7c0,0,0,23.19,23.19,23.19h5.8h5.8c23.19,0,23.19-23.19,23.19-23.19
		V96.61L1458.68,85.01z"/>
	<path class="st0" d="M1554.36,102.41v-5.8l-23.19-11.6l-34.79,23.19v2.9c0,14.5,14.5,14.5,14.5,14.5h14.5c5.8,0,5.8,5.8,5.8,5.8
		v8.7c0,0,0,5.8-5.8,5.8s-5.8-5.8-5.8-5.8l0-7.13h0v-1.56h-23.19v1.46h0c0,23.19,23.19,23.24,23.19,23.24h11.6
		c23.19,0,23.2-17.44,23.2-17.44l0-4.36c0-14.5-14.5-14.5-14.5-14.5h-14.5c-5.8,0-5.8-5.8-5.8-5.8v-20.3l11.6,2.9v18.85
		L1554.36,102.41z"/>
	<path class="st0" d="M861.42,102.41v-5.8l-23.19-11.6l-34.79,23.19v2.9c0,14.5,14.5,14.5,14.5,14.5h14.5c5.8,0,5.8,5.8,5.8,5.8v8.7
		c0,0,0,5.8-5.8,5.8s-5.8-5.8-5.8-5.8l0-7.13h0v-1.56h-23.19v1.46h0c0,23.19,23.19,23.24,23.19,23.24h11.6
		c23.19,0,23.2-17.44,23.2-17.44l0-4.36c0-14.5-14.5-14.5-14.5-14.5h-14.5c-5.8,0-5.8-5.8-5.8-5.8v-20.3l11.6,2.9v18.85
		L861.42,102.41z"/>
	<path class="st0" d="M1212.1,91.81l-20.16,20.16V85.01l-31.89,21.26v0.89c3.44-0.89,8.7-0.97,8.7,6.84c0,11.6,0,40.59,0,40.59
		h23.19v-36.93c1-1.62,7.44-10.67,20.26,2.14l14-14L1212.1,91.81z"/>
	<path class="st0" d="M637.7,85.01V47.32l-26.09,18.13v0.87c3-0.82,7.61-1.13,8.7,4.2v2.9c0,11.11-15.26,11.58-17.19,11.6h-3.1
		V47.32l-26.09,18.13v0.87c3-0.82,7.61-1.13,8.7,4.2v5.8c0,11.86-17.4,11.6-17.4,11.6v2.9h11.72v63.78h23.5
		c0.03-5.4,0.05-49.59,0.05-55.09c0-11.11,10.18-11.58,11.46-11.6h2.68v66.68h23.5c0.03-5.4,0.05-49.59,0.05-55.09
		c0-11.86,11.6-11.6,11.6-11.6v-2.9H637.7z"/>
	<path class="st0" d="M1386.2,85.01l-34.79,23.19v24.58c0,0,0,23.19,23.19,23.19h5.8h5.8c23.19,0,23.19-23.19,23.19-23.19V96.61
		L1386.2,85.01z M1386.2,141.48c0,0,0,5.8-5.8,5.8s-5.8-5.8-5.8-5.8V93.71l11.6,5.8V141.48z"/>
	<path class="st0" d="M907.81,83.63l-34.79,23.19v24.58c0,0,0,23.19,23.19,23.19h5.8h5.8c23.19,0,23.19-23.19,23.19-23.19V95.23
		L907.81,83.63z M907.81,140.1c0,0,0,5.8-5.8,5.8c-5.8,0-5.8-5.8-5.8-5.8V92.33l11.6,5.8V140.1z"/>
	<path class="st0" d="M432.33,116.9V55.7l-11.6-8.7l-20.3,10.15v1.43c3.44,0.6,8.7,3.74,8.7,17.41v46.7l-11.6-5.8V99.19V81.8
		l-11.6-8.7l-20.3,10.15v1.23c3.44,0.18,8.7,2.05,8.7,11.82v23.51l23.19,11.6l11.6-7.73v30.93h23.19V131.4l11.6-7.73v-0.97
		L432.33,116.9z"/>
</g>
<g>
	<path class="st0" d="M1544.21,554.03l-23.19,8.7l-11.6-8.7l-20.3,10.15v0.6c3.44-0.47,8.7,0.72,8.7,12.44v46.39h23.19v-57.99
		c11.6-2.9,11.6,5.8,11.6,5.8v52.19h23.19v-57.99L1544.21,554.03z"/>
	<path class="st0" d="M1132.51,554.03l-34.79,23.19v34.79l11.6,11.6l23.19-8.7v40.59c0,0,0,5.8-5.8,5.8s-5.8-5.8-5.8-5.8v-17.4
		h-23.19v8.7c0,0,0,23.19,23.19,23.19h11.6c23.19,0,23.19-23.19,23.19-23.19v-46.39v-34.79L1132.51,554.03z M1132.51,612.02
		c-11.6,2.9-11.6-5.8-11.6-5.8v-43.49l11.6,5.8V612.02z"/>
	<path class="st0" d="M1204.99,554.03l-34.79,23.19v34.79l11.6,11.6l23.19-8.7v40.59c0,0,0,5.8-5.8,5.8s-5.8-5.8-5.8-5.8v-17.4
		h-23.19v8.7c0,0,0,23.19,23.19,23.19h11.6c23.19,0,23.19-23.19,23.19-23.19v-46.39v-34.79L1204.99,554.03z M1204.99,612.02
		c-11.6,2.9-11.6-5.8-11.6-5.8v-43.49l11.6,5.8V612.02z"/>
	<g>
		<path class="st0" d="M474.37,534.47v0.87c3-0.82,7.61-1.13,8.7,4.2v8.7l17.4-11.6v-20.3L474.37,534.47z"/>
		<path class="st0" d="M468.57,575.29v0.89c3.44-0.89,8.7-0.97,8.7,6.84c0,11.6,0,40.59,0,40.59h23.19v-69.58L468.57,575.29z"/>
	</g>
	<path class="st0" d="M825.84,612.02l-0.12-46.39l-23.19-11.6l-34.79,23.19v28.99c0,0,0,18.9,20.38,18.9
		c14.45,0,17.09-6.55,17.09-6.55s0.46,5.05,3.11,5.05c5.42,0,18.62,0,20.3,0v-2.91C825.72,620.71,825.84,612.02,825.84,612.02z
		 M802.52,609.12c0,0,0.12,5.8-5.68,5.8s-5.92-5.8-5.92-5.8v-46.39l11.6,5.8V609.12z"/>
	<path class="st0" d="M349.82,612.02l-0.12-46.39l-23.19-11.6l-34.79,23.19v28.99c0,0,0,18.9,20.38,18.9
		c14.45,0,17.09-6.55,17.09-6.55s0.46,5.05,3.11,5.05c5.42,0,18.62,0,20.3,0v-2.91C349.7,620.71,349.82,612.02,349.82,612.02z
		 M326.5,609.12c0,0,0.12,5.8-5.68,5.8s-5.92-5.8-5.92-5.8v-46.39l11.6,5.8V609.12z"/>
	<path class="st0" d="M996.24,554.03l-20.3,12.92v-62.2L944.05,526v0.89c3.44-0.89,8.7-0.97,8.7,6.84c0,11.6,0,89.88,0,89.88h23.19
		v-51.83c5.8-1.81,11.6-1.81,11.6,5.44v46.39h23.19v-46.39h5.8L996.24,554.03z"/>
	<path class="st0" d="M1338.36,526v0.89c3.44-0.89,8.7,1.93,8.7,9.74c0,8.28,0,25.13,0,25.13l-11.6-7.73l-23.19,11.6l0,40.59
		c0,0-0.12,18.9,20.27,18.9c14.45,0,14.53-10.2,14.53-10.2l0,0c0,2.78,0,5.68,0,8.7h23.19V504.74L1338.36,526z M1347.06,594.62
		c0,4.42,0,9.23,0,14.5c0,0,0,5.8-5.8,5.8s-5.8-5.8-5.8-5.8v-14.5v-4.77h0v-21.32l11.6-5.8c0,6.35,0,14.94,0,27.12
		C1347.06,591.39,1347.06,592.98,1347.06,594.62z"/>
	<path class="st0" d="M436.68,554.03l-11.6,7.73v-57.02L393.19,526v0.89c3.44-0.89,8.7,1.93,8.7,9.74c0,6.43,0,86.98,0,86.98h23.19
		v-8.7l0,0c0,0,0.07,10.2,14.52,10.2c20.38,0,20.27-18.9,20.27-18.9l0-40.59L436.68,554.03z M436.68,609.12c0,0,0,5.8-5.8,5.8
		c-5.8,0-5.8-5.8-5.8-5.8v-46.39l11.6,5.8L436.68,609.12z"/>
	<path class="st0" d="M732.4,592.69l23.19-15.46v-11.6l-23.19-11.6l-34.79,23.19v20.3c0,26.09,23.19,27.29,23.19,27.29h11.6
		c23.19,0,23.19-24.39,23.19-24.39H732.4v8.7c0,0,0,5.8-5.8,5.8c-5.8,0-5.8-5.8-5.8-5.8V592.7L732.4,592.69z M732.4,568.53v14.49
		c0,5.65-11.6,5.81-11.6,5.81v-26.09L732.4,568.53z"/>
	<path class="st0" d="M1605.09,592.69l23.19-15.46v-11.6l-23.19-11.6l-34.79,23.19v20.3c0,26.09,23.19,27.29,23.19,27.29h11.6
		c23.19,0,23.19-24.39,23.19-24.39h-23.19v8.7c0,0,0,5.8-5.8,5.8c-5.8,0-5.8-5.8-5.8-5.8V592.7L1605.09,592.69z M1605.09,568.53
		v14.49c0,5.65-11.6,5.81-11.6,5.81v-26.09L1605.09,568.53z"/>
	<path class="st0" d="M1277.47,592.69l23.19-15.46v-11.6l-23.19-11.6l-34.79,23.19v20.3c0,26.09,23.19,27.29,23.19,27.29h11.6
		c23.19,0,23.19-24.39,23.19-24.39h-23.19v8.7c0,0,0,5.8-5.8,5.8s-5.8-5.8-5.8-5.8V592.7L1277.47,592.69z M1277.47,568.53v14.49
		c0,5.65-11.6,5.81-11.6,5.81v-26.09L1277.47,568.53z"/>
	<path class="st0" d="M1083.22,565.63l-23.19-11.59l0.07,55.09c0,0,0,5.8-5.8,5.8s-5.8-5.8-5.8-5.8l-0.07-47.36l-23.19,15.46
		l0.07,29c0,0-0.12,18.9,20.27,18.9c14.45,0,14.53-10.2,14.53-10.2l0,0v8.7h23.19L1083.22,565.63z"/>
	<path class="st0" d="M886.46,560.82l-20.16,20.16v-26.95l-31.89,21.26v0.89c3.44-0.89,8.7-0.97,8.7,6.84c0,11.6,0,40.59,0,40.59
		h23.19v-36.93c1-1.62,7.44-10.67,20.26,2.14l14-14L886.46,560.82z"/>
	<path class="st0" d="M1457.23,554.03l-34.79,23.19v24.58c0,0,0,23.19,23.19,23.19h5.8h5.8c23.19,0,23.19-23.19,23.19-23.19v-36.17
		L1457.23,554.03z M1457.23,610.5c0,0,0,5.8-5.8,5.8s-5.8-5.8-5.8-5.8v-47.77l11.6,5.8V610.5z"/>
	<path class="st0" d="M549.75,554.03l-34.79,23.19v34.79l11.6,11.6l23.19-8.7v40.59c0,0,0,5.8-5.8,5.8s-5.8-5.8-5.8-5.8v-17.4
		h-23.19v8.7c0,0,0,23.19,23.19,23.19h11.6c23.19,0,23.19-23.19,23.19-23.19v-46.39v-34.79L549.75,554.03z M549.75,612.02
		c-11.6,2.9-11.6-5.8-11.6-5.8v-43.49l11.6,5.8V612.02z"/>
	<path class="st0" d="M659.92,554.03l-11.6,7.73v-57.02L616.43,526v0.89c3.44-0.89,8.7,1.93,8.7,9.74c0,6.43,0,86.98,0,86.98h23.19
		v-8.7l0,0c0,0,0.07,10.2,14.52,10.2c20.38,0,20.27-18.9,20.27-18.9l0-40.59L659.92,554.03z M659.92,609.12c0,0,0,5.8-5.8,5.8
		c-5.8,0-5.8-5.8-5.8-5.8v-46.39l11.6,5.8L659.92,609.12z"/>
</g>
<g class="st1">
	<g class="st2">
		<line class="st3" x1="1.11" y1="-314.54" x2="1918.76" y2="-314.54"/>
		<line class="st3" x1="1.11" y1="-268.15" x2="1918.76" y2="-268.15"/>
		<line class="st3" x1="1.11" y1="-384.12" x2="1918.76" y2="-384.12"/>
		<line class="st3" x1="1.11" y1="-433.41" x2="1918.76" y2="-433.41"/>
		<line class="st3" x1="1.11" y1="-421.81" x2="1918.76" y2="-421.81"/>
	</g>
	<rect x="1995.18" y="-268.15" class="st4" width="47.91" height="67.16"/>
	<g class="st2">
		<line class="st3" x1="1.11" y1="-79.97" x2="1918.76" y2="-79.97"/>
		<line class="st3" x1="1.11" y1="-33.58" x2="1918.76" y2="-33.58"/>
		<line class="st3" x1="1.11" y1="-149.55" x2="1918.76" y2="-149.55"/>
		<line class="st3" x1="1.11" y1="-198.84" x2="1918.76" y2="-198.84"/>
		<line class="st3" x1="1.11" y1="-187.24" x2="1918.76" y2="-187.24"/>
	</g>
	<rect x="1995.18" y="-33.58" class="st4" width="47.91" height="67.16"/>
	<g class="st2">
		<line class="st3" x1="1.11" y1="154.6" x2="1918.76" y2="154.6"/>
		<line class="st3" x1="1.11" y1="200.98" x2="1918.76" y2="200.98"/>
		<line class="st3" x1="1.11" y1="85.01" x2="1918.76" y2="85.01"/>
		<line class="st3" x1="1.11" y1="35.72" x2="1918.76" y2="35.72"/>
		<line class="st3" x1="1.11" y1="47.32" x2="1918.76" y2="47.32"/>
	</g>
	<rect x="1995.18" y="200.98" class="st4" width="47.91" height="67.16"/>
</g>
<g>
	<path class="st0" d="M-711.01-960.14l-23.19,8.7l-11.6-8.7l-20.3,10.15v0.6c3.44-0.47,8.7,0.72,8.7,12.44v46.39h23.19v-57.99
		c11.6-2.9,11.6,5.8,11.6,5.8v52.19h23.19v-57.99L-711.01-960.14z"/>
	<path class="st0" d="M-2066.49-935.15l-8.9-18.2l-6.25-3.2l-7.03-3.6l-16.61,16.99c0,0,6.64-3.4,9.97,3.4l14.25,29.15
		c-1.95,1.07-4.23,1.93-6.51,1.93h-15.1v18.12h15.1l8.25-16.49l8.06,16.49h26.58l-20.76-42.47c2.29-1.57,5.43-3.19,8.56-3.19h15.1
		v-18.12h-15.1L-2066.49-935.15z"/>
	<path class="st0" d="M-2160.66-942.75v-5.8l-23.19-11.6l-34.79,23.19v2.9c0,14.5,14.5,14.5,14.5,14.5h14.5c5.8,0,5.8,5.8,5.8,5.8
		v8.7c0,0,0,5.8-5.8,5.8s-5.8-5.8-5.8-5.8l0-7.13h0v-1.56h-23.19v1.46h0c0,23.19,23.19,23.24,23.19,23.24h11.6
		c23.19,0,23.2-17.44,23.2-17.44l0-4.36c0-14.5-14.5-14.5-14.5-14.5h-14.5c-5.8,0-5.8-5.8-5.8-5.8v-20.3l11.6,2.9v18.85
		L-2160.66-942.75z"/>
	<path class="st0" d="M-1847.53-960.14l-34.79,23.19v34.79l11.6,11.6l23.19-8.7v40.59c0,0,0,5.8-5.8,5.8c-5.8,0-5.8-5.8-5.8-5.8
		v-17.4h-23.19v8.7c0,0,0,23.19,23.19,23.19h11.6c23.19,0,23.19-23.19,23.19-23.19v-46.39v-34.79L-1847.53-960.14z M-1847.53-902.16
		c-11.6,2.9-11.6-5.8-11.6-5.8v-43.49l11.6,5.8V-902.16z"/>
	<g>
		<path class="st0" d="M-1560.5-979.71v0.87c3-0.82,7.61-1.13,8.7,4.2v8.7l17.4-11.6v-20.3L-1560.5-979.71z"/>
		<path class="st0" d="M-1566.3-938.88v0.89c3.44-0.89,8.7-0.97,8.7,6.84c0,11.6,0,40.59,0,40.59h23.19v-69.58L-1566.3-938.88z"/>
	</g>
	<g>
		<path class="st0" d="M-1922.92-979.71v0.87c3-0.82,7.61-1.13,8.7,4.2v8.7l17.4-11.6v-20.3L-1922.92-979.71z"/>
		<path class="st0" d="M-1928.72-938.88v0.89c3.44-0.89,8.7-0.97,8.7,6.84c0,11.6,0,40.59,0,40.59h23.19v-69.58L-1928.72-938.88z"/>
	</g>
	<g>
		<path class="st0" d="M-2146.16-979.71v0.87c3-0.82,7.61-1.13,8.7,4.2v8.7l17.4-11.6v-20.3L-2146.16-979.71z"/>
		<path class="st0" d="M-2151.96-938.88v0.89c3.44-0.89,8.7-0.97,8.7,6.84c0,11.6,0,40.59,0,40.59h23.19v-69.58L-2151.96-938.88z"/>
	</g>
	<g>
		<path class="st0" d="M-1021.23-979.71v0.87c3-0.82,7.61-1.13,8.7,4.2v8.7l17.4-11.6v-20.3L-1021.23-979.71z"/>
		<path class="st0" d="M-1027.03-938c3.44-0.89,8.7-0.97,8.7,6.84c0,0.47,0,72.48,0,72.48s0,5.8-5.8,5.8c-5.8,0-5.8-5.8-5.8-5.8
			v-17.4h-23.19v8.7c0,0,0,23.19,23.19,23.19h11.6c23.19,0,23.19-23.19,23.19-23.19v-92.78l-31.89,21.26V-938z"/>
	</g>
	<path class="st0" d="M-774.67-902.16l-0.12-46.39l-23.19-11.6l-34.79,23.19v28.99c0,0,0,18.9,20.38,18.9
		c14.45,0,17.09-6.55,17.09-6.55s0.46,5.05,3.11,5.05c5.42,0,18.62,0,20.3,0v-2.91C-774.79-893.47-774.67-902.16-774.67-902.16z
		 M-797.99-905.06c0,0,0.12,5.8-5.68,5.8c-5.8,0-5.92-5.8-5.92-5.8v-46.39l11.6,5.8V-905.06z"/>
	<path class="st0" d="M-922.54-902.16l-0.12-46.39l-23.19-11.6l-34.79,23.19v28.99c0,0,0,18.9,20.38,18.9
		c14.45,0,17.09-6.55,17.09-6.55s0.46,5.05,3.11,5.05c5.42,0,18.62,0,20.3,0v-2.91C-922.66-893.47-922.54-902.16-922.54-902.16z
		 M-945.85-905.06c0,0,0.12,5.8-5.68,5.8c-5.8,0-5.92-5.8-5.92-5.8v-46.39l11.6,5.8V-905.06z"/>
	<path class="st0" d="M-1343.06-939.99v-57.85l11.6,5.8v20.3l11.6,8.7l20.3-10.15v-0.6c-3.44,0.47-8.7-0.72-8.7-12.44v-8.7
		l-23.19-11.6l-43.49,28.99v0.89c3.44-0.89,8.7-0.97,8.7,6.84c0,1.77,0,79.25,0,79.25h23.19v-43.73c1-1.62,7.44-10.67,20.26,2.14
		l14-14l-14.1-14L-1343.06-939.99z"/>
	<path class="st0" d="M-1525.71-988.17v0.89c3.44-0.89,8.7-0.97,8.7,6.84c0,11.6,0,89.88,0,89.88h23.19v-118.87L-1525.71-988.17z"/>
	<path class="st0" d="M-1082.12-960.14l-25.32,9.47l-9.47-9.47l-23.19,8.7l-11.6-8.7L-1172-950v0.6c3.44-0.47,8.7,0.72,8.7,12.44
		v46.39h23.19v-57.99c11.6-2.9,11.6,5.8,11.6,5.8v52.19h23.19v-57.99c11.6-2.9,11.6,5.8,11.6,5.8v52.19h23.19v-57.99
		L-1082.12-960.14z"/>
	<path class="st0" d="M-1748.96-988.17v0.89c3.44-0.89,8.7,1.93,8.7,9.74c0,8.28,0,25.13,0,25.13l-11.6-7.73l-23.19,11.6l0,40.59
		c0,0-0.12,18.9,20.27,18.9c14.45,0,14.53-10.2,14.53-10.2l0,0c0,2.78,0,5.68,0,8.7h23.19v-118.87L-1748.96-988.17z
		 M-1740.26-919.55c0,4.42,0,9.23,0,14.5c0,0,0,5.8-5.8,5.8s-5.8-5.8-5.8-5.8v-14.5v-4.77h0v-21.32l11.6-5.8c0,6.35,0,14.94,0,27.12
		C-1740.26-922.79-1740.26-921.2-1740.26-919.55z"/>
	<path class="st0" d="M-1960.61-960.14l-11.6,7.73v-57.02l-31.89,21.26v0.89c3.44-0.89,8.7,1.93,8.7,9.74c0,6.43,0,86.98,0,86.98
		h23.19v-8.7l0,0c0,0,0.07,10.2,14.53,10.2c20.38,0,20.27-18.9,20.27-18.9l0-40.59L-1960.61-960.14z M-1960.61-905.06
		c0,0,0,5.8-5.8,5.8s-5.8-5.8-5.8-5.8v-46.39l11.6,5.8L-1960.61-905.06z"/>
	<path class="st0" d="M-1667.78-921.49l23.19-15.46v-11.6l-23.19-11.6l-34.79,23.19v20.3c0,26.09,23.19,27.29,23.19,27.29h11.6
		c23.19,0,23.19-24.39,23.19-24.39h-23.19v8.7c0,0,0,5.8-5.8,5.8s-5.8-5.8-5.8-5.8v-16.42L-1667.78-921.49z M-1667.78-945.65v14.49
		c0,5.65-11.6,5.81-11.6,5.81v-26.09L-1667.78-945.65z"/>
	<path class="st0" d="M-1421.34-942.75v-5.8l-23.19-11.6l-34.79,23.19v2.9c0,14.5,14.5,14.5,14.5,14.5h14.5c5.8,0,5.8,5.8,5.8,5.8
		v8.7c0,0,0,5.8-5.8,5.8s-5.8-5.8-5.8-5.8l0-7.13h0v-1.56h-23.19v1.46h0c0,23.19,23.19,23.24,23.19,23.24h11.6
		c23.19,0,23.2-17.44,23.2-17.44l0-4.36c0-14.5-14.5-14.5-14.5-14.5h-14.5c-5.8,0-5.8-5.8-5.8-5.8v-20.3l11.6,2.9v18.85
		L-1421.34-942.75z"/>
	<path class="st0" d="M-870.47-960.14l-11.6,7.73v-10.63l-31.89,21.26v0.89c3.44-0.89,8.7-0.97,8.7,6.84c0,3.04,0,89.88,0,89.88
		h23.19v-46.39h11.6c23.19,0,23.19-23.19,23.19-23.19v-34.79L-870.47-960.14z M-870.47-905.06c0,0,0,5.8-5.8,5.8s-5.8-5.8-5.8-5.8
		v-46.39l11.6,5.8V-905.06z"/>
	<path class="st0" d="M-1255.68-953.35l-20.16,20.16v-26.95l-31.89,21.26v0.89c3.44-0.89,8.7-0.97,8.7,6.84c0,11.6,0,40.59,0,40.59
		h23.19v-36.93c1-1.62,7.44-10.67,20.26,2.14l14-14L-1255.68-953.35z"/>
	<path class="st0" d="M-1586.1-959.61l-14,14c0,0,16.23,11.44,13.54,22.98l-5.84,23.37l-14.5-20.3v-31.89l-11.6-8.7l-20.3,10.15v0.6
		c3.44-0.47,8.7,0.72,8.7,12.44h0.04l-0.04,23.19l17.4,23.19l24.02-0.11l16.54-54.87L-1586.1-959.61z"/>
	<path class="st0" d="M-1200.99-960.14l-34.79,23.19v24.58c0,0,0,23.19,23.19,23.19h5.8h5.8c23.19,0,23.19-23.19,23.19-23.19v-36.17
		L-1200.99-960.14z M-1200.99-903.68c0,0,0,5.8-5.8,5.8c-5.8,0-5.8-5.8-5.8-5.8v-47.77l11.6,5.8V-903.68z"/>
</g>
<g>
	<g>
		<path class="st0" d="M-2147.85-747.28v0.87c3-0.82,7.61-1.13,8.7,4.2v8.7l17.4-11.6v-20.3L-2147.85-747.28z"/>
		<path class="st0" d="M-2153.65-706.46v0.89c3.44-0.89,8.7-0.97,8.7,6.84c0,11.6,0,40.59,0,40.59h23.19v-69.58L-2153.65-706.46z"/>
	</g>
	<path class="st0" d="M-787.48-669.74l-0.12-46.39l-23.19-11.6l-34.79,23.19v28.99c0,0,0,18.9,20.38,18.9
		c14.45,0,17.09-6.55,17.09-6.55s0.46,5.05,3.11,5.05c5.42,0,18.62,0,20.3,0v-2.91C-787.6-661.05-787.48-669.74-787.48-669.74z
		 M-810.8-672.64c0,0,0.12,5.8-5.68,5.8s-5.92-5.8-5.92-5.8v-46.39l11.6,5.8V-672.64z"/>
	<path class="st0" d="M-2049.27-704.53v-11.6l-23.19-11.6l-34.79,23.19v20.3c0,26.09,23.19,27.6,23.19,27.6h11.6
		c23.19,0,23.19-24.7,23.19-24.7h-23.19v8.7c0,0,0,5.8-5.8,5.8s-5.8-5.8-5.8-5.8v-46.39l11.6,5.8v24.16L-2049.27-704.53z"/>
	<path class="st0" d="M-1790.76-707.57v-57.85l11.6,5.8v20.3l11.6,8.7l20.3-10.15v-0.6c-3.44,0.47-8.7-0.72-8.7-12.44v-8.7
		l-23.19-11.6l-43.49,28.99v0.89c3.44-0.89,8.7-0.97,8.7,6.84c0,1.77,0,79.25,0,79.25h23.19v-43.73c1-1.62,7.44-10.67,20.26,2.14
		l14-14l-14.1-14L-1790.76-707.57z"/>
	<path class="st0" d="M-1347.17-727.72l-20.3,12.92v-62.2l-31.89,21.26v0.89c3.44-0.89,8.7-0.97,8.7,6.84c0,11.6,0,89.88,0,89.88
		h23.19v-51.83c5.8-1.81,11.6-1.81,11.6,5.44v46.39h23.19v-46.39h5.8L-1347.17-727.72z"/>
	<path class="st0" d="M-1970.99-707.43l-17.4-20.3l-23.19,17.37v-55.06l-31.89,18.36v0.59c3.43-0.91,8.79-1.07,8.79,6.82
		c0,11.6-0.1,81.5-0.1,81.5h23.19v-27.34c11.59,2.15,11.6,15.75,11.6,15.75v11.6l23.19-0.14c0-28.94-23.19-28.85-23.19-28.85h-11.31
		l34.5-20.3H-1970.99z M-2011.58-688.61v-18.94c3.75-1.3,9.45-2.13,11.6,3.03C-1997.68-698.99-2004.05-694.15-2011.58-688.61z"/>
	<path class="st0" d="M-1970.99-755.75v0.89c3.44-0.89,8.7-0.97,8.7,6.84c0,11.6,0,89.88,0,89.88h23.19v-118.87L-1970.99-755.75z"/>
	<path class="st0" d="M-778.9-755.75v0.89c3.44-0.89,8.7-0.97,8.7,6.84c0,11.6,0,89.88,0,89.88h23.19v-118.87L-778.9-755.75z"/>
	<path class="st0" d="M-2258.02-727.72l-34.79,23.19v23.19c0,23.19,23.19,23.19,23.19,23.19h11.6v46.39h23.19v-104.37
		L-2258.02-727.72z M-2258.02-672.64c0,0,0,5.8-5.8,5.8s-5.8-5.8-5.8-5.8v-46.39l11.6,5.8V-672.64z"/>
	<path class="st0" d="M-1889.81-727.72v57.99c-11.6,2.9-11.6-5.8-11.6-5.8v-43.49v-0.97l-23.19,15.46v34.79l11.6,11.6l23.19-8.7
		v40.59c0,0,0,5.8-5.8,5.8s-5.8-5.8-5.8-5.8v-17.4h-23.19v8.7c0,0,0,23.19,23.19,23.19h5.8h5.8c23.19,0,23.19-23.19,23.19-23.19
		v-81.18L-1889.81-727.72z"/>
	<path class="st0" d="M-2162.35-716.13l-23.19-11.59l0.07,55.09c0,0,0,5.8-5.8,5.8s-5.8-5.8-5.8-5.8l-0.07-47.36l-23.19,15.46
		l0.07,29c0,0-0.12,18.9,20.27,18.9c14.45,0,14.52-10.2,14.52-10.2l0,0v8.7h23.19L-2162.35-716.13z"/>
	<path class="st0" d="M-653.44-666.14c-1.8,3.31-6.1,5.43-9.52,6.65l27.53-47.44c3.79-6.55,10.18-2.69,10.18-2.69l-15.39-18.11
		l-13.73,5.85c-11.63,0.23-22.76-5.83-22.76-5.83l-14.33,26.36l14.7,8l11.2-20.58c1.9-3.5,6.78-5.53,10.42-6.61l-36.2,62.4h52.59
		l11.2-20.58l-14.7-8L-653.44-666.14z"/>
	<path class="st0" d="M-706.42-727.72v-37.69l-26.09,18.13v0.87c3-0.82,7.61-1.13,8.7,4.2v5.8c0,11.86-17.4,11.86-17.4,11.86v2.64
		h11.72v63.78h23.5c0.03-5.4,0.05-49.59,0.05-55.09c0-11.86,11.6-11.6,11.6-11.6v-2.9H-706.42z"/>
	<path class="st0" d="M-1071.73-727.72v-37.69l-26.09,18.13v0.87c3-0.82,7.61-1.13,8.7,4.2v5.8c0,11.86-17.4,11.86-17.4,11.86v2.64
		h11.72v63.78h23.5c0.03-5.4,0.05-49.59,0.05-55.09c0-11.86,11.6-11.6,11.6-11.6v-2.9H-1071.73z"/>
	<path class="st0" d="M-1442.85-727.72v-37.69l-26.09,18.13v0.87c3-0.82,7.61-1.13,8.7,4.2v5.8c0,11.86-17.4,11.86-17.4,11.86v2.64
		h11.72v63.78h23.5c0.03-5.4,0.05-49.59,0.05-55.09c0-11.86,11.6-11.6,11.6-11.6v-2.9H-1442.85z"/>
	<path class="st0" d="M-865.35-727.19l-14,14c0,0,16.23,11.44,13.54,22.98l-5.84,23.37l-14.5-20.3v-31.89l-11.6-8.7l-20.33,10.16
		v0.59c3.43-0.48,8.73,0.68,8.73,12.44h0.04l-0.03,14.5l-0.05,0c0,0.02,0.02,0.03,0.05,0.04l-0.02,8.66l4.87,6.49l-2,8.01
		l-14.5-20.3v-31.89l-11.6-8.7l-20.3,10.15v0.6c3.44-0.47,8.7,0.72,8.7,12.44h0.04l-0.04,23.19l17.4,23.19l24.02-0.11l3.07-10.19
		l7.73,10.31l24.02-0.11l16.54-54.87L-865.35-727.19z"/>
	<path class="st0" d="M-1161.08-727.19l-14,14c0,0,16.23,11.44,13.54,22.98l-5.84,23.37l-14.5-20.3v-31.89l-11.6-8.7l-20.33,10.16
		v0.59c3.43-0.48,8.73,0.68,8.73,12.44h0.04l-0.03,14.5l-0.05,0c0,0.02,0.02,0.03,0.05,0.04l-0.02,8.66l4.87,6.49l-2,8.01
		l-14.5-20.3v-31.89l-11.6-8.7l-20.3,10.15v0.6c3.44-0.47,8.7,0.72,8.7,12.44h0.04l-0.04,23.19l17.4,23.19l24.02-0.11l3.07-10.19
		l7.73,10.31l24.02-0.11l16.54-54.87L-1161.08-727.19z"/>
	<path class="st0" d="M-1280.48-727.72l-34.79,23.19v24.58c0,0,0,23.19,23.19,23.19h5.8h5.8c23.19,0,23.19-23.19,23.19-23.19v-36.17
		L-1280.48-727.72z M-1280.48-671.25c0,0,0,5.8-5.8,5.8s-5.8-5.8-5.8-5.8v-47.77l11.6,5.8V-671.25z"/>
	<path class="st0" d="M-1506.63-727.72l-34.79,23.19v24.58c0,0,0,23.19,23.19,23.19h5.8h5.8c23.19,0,23.19-23.19,23.19-23.19v-36.17
		L-1506.63-727.72z M-1506.63-671.25c0,0,0,5.8-5.8,5.8s-5.8-5.8-5.8-5.8v-47.77l11.6,5.8V-671.25z"/>
	<path class="st0" d="M-1579.11-727.72l-34.79,23.19v34.79l11.6,11.6l23.19-8.7v40.59c0,0,0,5.8-5.8,5.8s-5.8-5.8-5.8-5.8v-17.4
		h-23.19v8.7c0,0,0,23.19,23.19,23.19h11.6c23.19,0,23.19-23.19,23.19-23.19v-46.39v-34.79L-1579.11-727.72z M-1579.11-669.74
		c-11.6,2.9-11.6-5.8-11.6-5.8v-43.49l11.6,5.8V-669.74z"/>
	<path class="st0" d="M-1634.34-720.93l-20.16,20.16v-26.95l-31.89,21.26v0.89c3.44-0.89,8.7-0.97,8.7,6.84c0,11.6,0,40.59,0,40.59
		h23.19v-36.93c1-1.62,7.44-10.67,20.26,2.14l14-14L-1634.34-720.93z"/>
	<path class="st0" d="M-1718.28-727.72l-34.79,23.19v24.58c0,0,0,23.19,23.19,23.19h5.8h5.8c23.19,0,23.19-23.19,23.19-23.19v-36.17
		L-1718.28-727.72z M-1718.28-671.25c0,0,0,5.8-5.8,5.8c-5.8,0-5.8-5.8-5.8-5.8v-47.77l11.6,5.8V-671.25z"/>
	<path class="st0" d="M-1019.55-727.72l-34.79,23.19v24.58c0,0,0,23.19,23.19,23.19h5.8h5.8c23.19,0,23.19-23.19,23.19-23.19v-36.17
		L-1019.55-727.72z M-1019.55-671.25c0,0,0,5.8-5.8,5.8c-5.8,0-5.8-5.8-5.8-5.8v-47.77l11.6,5.8V-671.25z"/>
</g>
</svg>
