<?xml version="1.0" encoding="utf-8"?>
<!-- Generator: Adobe Illustrator 25.2.2, SVG Export Plug-In . SVG Version: 6.00 Build 0)  -->
<svg version="1.1" id="Layer_1" xmlns="http://www.w3.org/2000/svg" xmlns:xlink="http://www.w3.org/1999/xlink" x="0px" y="0px"
	 viewBox="0 0 1190.55 394.7" style="enable-background:new 0 0 1190.55 394.7;" xml:space="preserve">
<style type="text/css">
	.st0{fill:none;stroke:#FF3000;stroke-miterlimit:10;}
	.st1{opacity:0;fill:none;stroke:#FF3000;stroke-miterlimit:10;}
	.st2{fill:#FFFFFF;}
</style>
<g>
	<g>
		<g>
			<line class="st0" x1="0" y1="74.65" x2="1190.55" y2="74.65"/>
			<line class="st0" x1="0" y1="103.45" x2="1190.55" y2="103.45"/>
			<line class="st0" x1="0" y1="31.45" x2="1190.55" y2="31.45"/>
			<line class="st0" x1="0" y1="0.85" x2="1190.55" y2="0.85"/>
			<line class="st0" x1="0" y1="8.05" x2="1190.55" y2="8.05"/>
		</g>
		<rect x="1013.92" y="103.45" class="st1" width="29.75" height="41.7"/>
		<g>
			<line class="st0" x1="0" y1="220.27" x2="1190.55" y2="220.27"/>
			<line class="st0" x1="0" y1="249.07" x2="1190.55" y2="249.07"/>
			<line class="st0" x1="0" y1="177.07" x2="1190.55" y2="177.07"/>
			<line class="st0" x1="0" y1="146.47" x2="1190.55" y2="146.47"/>
			<line class="st0" x1="0" y1="153.67" x2="1190.55" y2="153.67"/>
		</g>
		<rect x="1013.92" y="249.07" class="st1" width="29.75" height="41.7"/>
		<g>
			<line class="st0" x1="0" y1="365.9" x2="1190.55" y2="365.9"/>
			<line class="st0" x1="0" y1="394.7" x2="1190.55" y2="394.7"/>
			<line class="st0" x1="0" y1="322.7" x2="1190.55" y2="322.7"/>
			<line class="st0" x1="0" y1="292.1" x2="1190.55" y2="292.1"/>
			<line class="st0" x1="0" y1="299.3" x2="1190.55" y2="299.3"/>
		</g>
	</g>
	<g>
		<g>
			<g>
				<path class="st2" d="M906.25,19.32v0.54c1.86-0.51,4.73-0.7,5.4,2.61v5.4l10.8-7.2V8.06L906.25,19.32z"/>
			</g>
			<g>
				<path class="st2" d="M902.65,44.66v0.55c2.13-0.55,5.4-0.6,5.4,4.25c0,7.2,0,25.2,0,25.2h14.4v-43.2L902.65,44.66z"/>
			</g>
		</g>
		<g>
			<g>
				<path class="st2" d="M634.45,19.32v0.54c1.86-0.51,4.73-0.7,5.4,2.61v5.4l10.8-7.2V8.06L634.45,19.32z"/>
			</g>
			<g>
				<path class="st2" d="M630.85,44.66v0.55c2.13-0.55,5.4-0.6,5.4,4.25c0,7.2,0,25.2,0,25.2h14.4v-43.2L630.85,44.66z"/>
			</g>
		</g>
		<g>
			<path class="st2" d="M877.45,14.06v0.55c2.13-0.55,5.4-0.6,5.4,4.25c0,7.2,0,55.8,0,55.8h14.4V0.86L877.45,14.06z"/>
		</g>
		<g>
			<path class="st2" d="M859.45,31.46l-7.2,4.8V0.86l-19.8,13.2v0.55c2.13-0.55,5.4,1.2,5.4,6.05c0,3.99,0,54,0,54h14.4v-5.4l0,0
				c0,0,0.04,6.33,9.02,6.33c12.66,0,12.58-11.73,12.58-11.73l0-25.2L859.45,31.46z M859.45,65.66c0,0,0,3.6-3.6,3.6
				c-3.6,0-3.6-3.6-3.6-3.6v-28.8l7.2,3.6L859.45,65.66z"/>
		</g>
		<g>
			<path class="st2" d="M182.65,55.46l14.4-9.6v-7.2l-14.4-7.2l-21.6,14.4v12.6c0,16.2,14.4,16.94,14.4,16.94h7.2
				c14.4,0,14.4-15.14,14.4-15.14h-14.4v5.4c0,0,0,3.6-3.6,3.6s-3.6-3.6-3.6-3.6V55.47L182.65,55.46z M182.65,40.46v8.99
				c0,3.51-7.2,3.61-7.2,3.61v-16.2L182.65,40.46z"/>
		</g>
		<g>
			<path class="st2" d="M267.25,55.46l14.4-9.6v-7.2l-14.4-7.2l-21.6,14.4v12.6c0,16.2,14.4,16.94,14.4,16.94h7.2
				c14.4,0,14.4-15.14,14.4-15.14h-14.4v5.4c0,0,0,3.6-3.6,3.6s-3.6-3.6-3.6-3.6V55.47L267.25,55.46z M267.25,40.46v8.99
				c0,3.51-7.2,3.61-7.2,3.61v-16.2L267.25,40.46z"/>
		</g>
		<g>
			<path class="st2" d="M791.05,55.46l14.4-9.6v-7.2l-14.4-7.2l-21.6,14.4v12.6c0,16.2,14.4,16.94,14.4,16.94h7.2
				c14.4,0,14.4-15.14,14.4-15.14h-14.4v5.4c0,0,0,3.6-3.6,3.6s-3.6-3.6-3.6-3.6V55.47L791.05,55.46z M791.05,40.46v8.99
				c0,3.51-7.2,3.61-7.2,3.61v-16.2L791.05,40.46z"/>
		</g>
		<g>
			<path class="st2" d="M747.85,55.46l14.4-9.6v-7.2l-14.4-7.2l-21.6,14.4v12.6c0,16.2,14.4,16.94,14.4,16.94h7.2
				c14.4,0,14.4-15.14,14.4-15.14h-14.4v5.4c0,0,0,3.6-3.6,3.6c-3.6,0-3.6-3.6-3.6-3.6V55.47L747.85,55.46z M747.85,40.46v8.99
				c0,3.51-7.2,3.61-7.2,3.61v-16.2L747.85,40.46z"/>
		</g>
		<g>
			<path class="st2" d="M351.85,31.46v36c-7.2,1.8-7.2-3.6-7.2-3.6v-27v-0.6l-14.4,9.6v21.6l7.2,7.2l14.4-5.4v25.2
				c0,0,0,3.6-3.6,3.6c-3.6,0-3.6-3.6-3.6-3.6v-10.8h-14.4v5.4c0,0,0,14.4,14.4,14.4h3.6h3.6c14.4,0,14.4-14.4,14.4-14.4v-50.4
				L351.85,31.46z"/>
		</g>
		<g>
			<path class="st2" d="M719.05,42.26v-3.6l-14.4-7.2l-21.6,14.4v1.8c0,9,9,9,9,9h9c3.6,0,3.6,3.6,3.6,3.6v5.4c0,0,0,3.6-3.6,3.6
				c-3.6,0-3.6-3.6-3.6-3.6l0-4.43h0v-0.97h-14.4v0.91h0c0,14.4,14.4,14.43,14.4,14.43h7.2c14.4,0,14.4-10.83,14.4-10.83l0-2.71
				c0-9-9-9-9-9h-9c-3.6,0-3.6-3.6-3.6-3.6v-12.6l7.2,1.8v11.7L719.05,42.26z"/>
		</g>
		<g>
			<path class="st2" d="M1008.85,42.26v-3.6l-14.4-7.2l-21.6,14.4v1.8c0,9,9,9,9,9h9c3.6,0,3.6,3.6,3.6,3.6v5.4c0,0,0,3.6-3.6,3.6
				c-3.6,0-3.6-3.6-3.6-3.6l0-4.43h0v-0.97h-14.4v0.91h0c0,14.4,14.4,14.43,14.4,14.43h7.2c14.4,0,14.4-10.83,14.4-10.83l0-2.71
				c0-9-9-9-9-9h-9c-3.6,0-3.6-3.6-3.6-3.6v-12.6l7.2,1.8v11.7L1008.85,42.26z"/>
		</g>
		<g>
			<path class="st2" d="M967.46,42.26v-3.6l-14.4-7.2l-21.6,14.4v1.8c0,9,9,9,9,9h9c3.6,0,3.6,3.6,3.6,3.6v5.4c0,0,0,3.6-3.6,3.6
				c-3.6,0-3.6-3.6-3.6-3.6l0-4.43h0v-0.97h-14.4v0.91h0c0,14.4,14.4,14.43,14.4,14.43h7.2c14.4,0,14.4-10.83,14.4-10.83l0-2.71
				c0-9-9-9-9-9h-9c-3.6,0-3.6-3.6-3.6-3.6v-12.6l7.2,1.8v11.7L967.46,42.26z"/>
		</g>
		<g>
			<path class="st2" d="M317.57,35.68l-12.51,12.51V31.46l-19.8,13.2v0.55c2.13-0.55,5.4-0.6,5.4,4.25c0,7.2,0,25.2,0,25.2h14.4
				V51.73c0.62-1.01,4.62-6.63,12.58,1.33l8.69-8.69L317.57,35.68z"/>
		</g>
		<g>
			<path class="st2" d="M468.85,31.46l-12.6,8.02V0.86l-19.8,13.2v0.55c2.13-0.55,5.4-0.6,5.4,4.25c0,7.2,0,55.8,0,55.8h14.4V42.49
				c3.6-1.13,7.2-1.13,7.2,3.38v28.8h14.4v-28.8h3.6L468.85,31.46z"/>
		</g>
		<g>
			<path class="st2" d="M506.65,55.46l14.4-9.6v-7.2l-14.4-7.2l-21.6,14.4v12.6c0,16.2,14.4,16.94,14.4,16.94h7.2
				c14.4,0,14.4-15.14,14.4-15.14h-14.4v5.4c0,0,0,3.6-3.6,3.6s-3.6-3.6-3.6-3.6V55.47L506.65,55.46z M506.65,40.46v8.99
				c0,3.51-7.2,3.61-7.2,3.61v-16.2L506.65,40.46z"/>
		</g>
		<g>
			<path class="st2" d="M589.45,55.46l14.4-9.6v-7.2l-14.4-7.2l-21.6,14.4v12.6c0,16.2,14.4,16.94,14.4,16.94h7.2
				c14.4,0,14.4-15.14,14.4-15.14h-14.4v5.4c0,0,0,3.6-3.6,3.6c-3.6,0-3.6-3.6-3.6-3.6V55.47L589.45,55.46z M589.45,40.46v8.99
				c0,3.51-7.2,3.61-7.2,3.61v-16.2L589.45,40.46z"/>
		</g>
		<g>
			<path class="st2" d="M556.97,35.68l-12.51,12.51V31.46l-19.8,13.2v0.55c2.13-0.55,5.4-0.6,5.4,4.25c0,7.2,0,25.2,0,25.2h14.4
				V51.73c0.62-1.01,4.62-6.63,12.58,1.33l8.69-8.69L556.97,35.68z"/>
		</g>
		<g>
			<path class="st2" d="M233.36,31.8l-8.69,8.69c0,0,10.08,7.1,8.41,14.27l-3.62,14.51l-9-12.6v-19.8l-7.2-5.4l-12.6,6.3v0.38
				c2.13-0.29,5.4,0.45,5.4,7.72h0.03l-0.03,14.4l10.8,14.4l14.91-0.07l10.27-34.06L233.36,31.8z"/>
		</g>
		<g>
			<path class="st2" d="M425.98,31.8l-8.69,8.69c0,0,10.08,7.1,8.41,14.27l-3.62,14.51l-9-12.6v-19.8l-7.2-5.4l-12.62,6.31v0.37
				c2.13-0.3,5.42,0.42,5.42,7.72h0.03l-0.02,9l-0.03,0c0,0.01,0.01,0.02,0.03,0.02l-0.01,5.38l3.02,4.03l-1.24,4.97l-9-12.6v-19.8
				l-7.2-5.4l-12.6,6.3v0.38c2.13-0.29,5.4,0.45,5.4,7.72h0.03l-0.03,14.4l10.8,14.4l14.91-0.07l1.91-6.33l4.8,6.4l14.91-0.07
				l10.27-34.06L425.98,31.8z"/>
		</g>
	</g>
	<g>
		<g>
			<g>
				<path class="st2" d="M164.65,310.56v0.54c1.86-0.51,4.73-0.7,5.4,2.61v5.4l10.8-7.2v-12.6L164.65,310.56z"/>
			</g>
			<g>
				<path class="st2" d="M161.05,335.9v0.55c2.13-0.55,5.4-0.6,5.4,4.25c0,7.2,0,25.2,0,25.2h14.4v-43.2L161.05,335.9z"/>
			</g>
		</g>
		<g>
			<path class="st2" d="M486.93,358.7l-0.07-28.8l-14.4-7.2l-21.6,14.4v18c0,0,0,11.73,12.66,11.73c8.97,0,10.61-4.07,10.61-4.07
				s0.29,3.14,1.93,3.14c3.37,0,11.56,0,12.6,0v-1.81C486.85,364.1,486.93,358.7,486.93,358.7z M472.45,356.9c0,0,0.07,3.6-3.53,3.6
				c-3.6,0-3.67-3.6-3.67-3.6v-28.8l7.2,3.6V356.9z"/>
		</g>
		<g>
			<path class="st2" d="M753.26,337.12l0.01-7.2l-14.39-7.21l-21.61,14.38l-0.01,12.6c-0.02,16.2,14.38,17.15,14.38,17.15l7.2,0.01
				c14.4,0.01,14.42-15.32,14.42-15.32l-14.4-0.01l-0.01,5.4c0,0,0,3.6-3.6,3.6c-3.6,0-3.6-3.6-3.6-3.6l0.03-28.8l7.2,3.61l-0.02,15
				L753.26,337.12z"/>
		</g>
		<g>
			<path class="st2" d="M441.85,337.1v-7.2l-14.4-7.2l-21.6,14.4v12.6c0,16.2,14.4,17.13,14.4,17.13h7.2
				c14.4,0,14.4-15.33,14.4-15.33h-14.4v5.4c0,0,0,3.6-3.6,3.6c-3.6,0-3.6-3.6-3.6-3.6v-28.8l7.2,3.6v15L441.85,337.1z"/>
		</g>
		<g>
			<path class="st2" d="M756.85,305.3v0.55c2.13-0.55,5.4-0.6,5.4,4.25c0,7.2,0,55.8,0,55.8h14.4v-73.8L756.85,305.3z"/>
		</g>
		<g>
			<path class="st2" d="M535.45,305.3v0.55c2.13-0.55,5.4-0.6,5.4,4.25c0,7.2,0,55.8,0,55.8h14.4v-73.8L535.45,305.3z"/>
		</g>
		<g>
			<path class="st2" d="M846.85,306.17v0.55c2.13-0.55,5.4,1.2,5.4,6.05c0,5.14,0,15.6,0,15.6l-7.2-4.8l-14.4,7.2l0,25.2
				c0,0-0.07,11.73,12.58,11.73c8.97,0,9.02-6.33,9.02-6.33l0,0c0,1.73,0,3.53,0,5.4h14.4v-73.8L846.85,306.17z M852.25,348.77
				c0,2.74,0,5.73,0,9c0,0,0,3.6-3.6,3.6c-3.6,0-3.6-3.6-3.6-3.6v-9v-2.96h0v-13.24l7.2-3.6c0,3.94,0,9.27,0,16.84
				C852.25,346.76,852.25,347.75,852.25,348.77z"/>
		</g>
		<g>
			<path class="st2" d="M935.05,305.3v0.55c2.13-0.55,5.4,1.2,5.4,6.05c0,5.14,0,15.6,0,15.6l-7.2-4.8l-14.4,7.2l0,25.2
				c0,0-0.07,11.73,12.58,11.73c8.97,0,9.02-6.33,9.02-6.33l0,0c0,1.73,0,3.53,0,5.4h14.4v-73.8L935.05,305.3z M940.45,347.9
				c0,2.74,0,5.73,0,9c0,0,0,3.6-3.6,3.6c-3.6,0-3.6-3.6-3.6-3.6v-9v-2.96h0V331.7l7.2-3.6c0,3.94,0,9.27,0,16.84
				C940.45,345.89,940.45,346.88,940.45,347.9z"/>
		</g>
		<g>
			<path class="st2" d="M517.45,322.7l-7.2,4.8v-35.4l-19.8,13.2v0.55c2.13-0.55,5.4,1.2,5.4,6.05c0,3.99,0,54,0,54h14.4v-5.4l0,0
				c0,0,0.04,6.33,9.02,6.33c12.66,0,12.58-11.73,12.58-11.73l0-25.2L517.45,322.7z M517.45,356.9c0,0,0,3.6-3.6,3.6
				c-3.6,0-3.6-3.6-3.6-3.6v-28.8l7.2,3.6L517.45,356.9z"/>
		</g>
		<g>
			<path class="st2" d="M652.45,346.7l14.4-9.6v-7.2l-14.4-7.2l-21.6,14.4v12.6c0,16.2,14.4,16.94,14.4,16.94h7.2
				c14.4,0,14.4-15.14,14.4-15.14h-14.4v5.4c0,0,0,3.6-3.6,3.6s-3.6-3.6-3.6-3.6v-10.19L652.45,346.7z M652.45,331.7v8.99
				c0,3.51-7.2,3.61-7.2,3.61v-16.2L652.45,331.7z"/>
		</g>
		<g>
			<path class="st2" d="M296.05,346.7l14.4-9.6v-7.2l-14.4-7.2l-21.6,14.4v12.6c0,16.2,14.4,16.94,14.4,16.94h7.2
				c14.4,0,14.4-15.14,14.4-15.14h-14.4v5.4c0,0,0,3.6-3.6,3.6s-3.6-3.6-3.6-3.6v-10.19L296.05,346.7z M296.05,331.7v8.99
				c0,3.51-7.2,3.61-7.2,3.61v-16.2L296.05,331.7z"/>
		</g>
		<g>
			<path class="st2" d="M584.05,322.7v36c-7.2,1.8-7.2-3.6-7.2-3.6v-27v-0.6l-14.4,9.6v21.6l7.2,7.2l14.4-5.4v25.2
				c0,0,0,3.6-3.6,3.6c-3.6,0-3.6-3.6-3.6-3.6v-10.8h-14.4v5.4c0,0,0,14.4,14.4,14.4h3.6h3.6c14.4,0,14.4-14.4,14.4-14.4v-50.4
				L584.05,322.7z"/>
		</g>
		<g>
			<path class="st2" d="M821.61,329.9l-14.4-7.2l0.04,34.2c0,0,0,3.6-3.6,3.6c-3.6,0-3.6-3.6-3.6-3.6l-0.05-29.4l-14.4,9.6l0.05,18
				c0,0-0.07,11.74,12.58,11.74c8.97,0,9.02-6.34,9.02-6.34l0,0v5.4h14.4L821.61,329.9z"/>
		</g>
		<g>
			<path class="st2" d="M696.34,338.22l-5.52-11.3l-3.88-1.99l-4.37-2.23l-10.31,10.55c0,0,4.13-2.11,6.19,2.11l8.85,18.1
				c-1.21,0.66-2.63,1.2-4.04,1.2h-9.38v11.25h9.38l5.12-10.24l5.01,10.24h16.5l-12.89-26.37c1.42-0.97,3.37-1.98,5.32-1.98h9.38
				V326.3h-9.38L696.34,338.22z"/>
		</g>
		<g>
			<path class="st2" d="M218.9,326.92l-12.51,12.51V322.7l-19.8,13.2v0.55c2.13-0.55,5.4-0.6,5.4,4.25c0,7.2,0,25.2,0,25.2h14.4
				v-22.93c0.62-1.01,4.62-6.63,12.58,1.33l8.69-8.69L218.9,326.92z"/>
		</g>
		<g>
			<path class="st2" d="M261.77,326.92l-12.51,12.51V322.7l-19.8,13.2v0.55c2.13-0.55,5.4-0.6,5.4,4.25c0,7.2,0,25.2,0,25.2h14.4
				v-22.93c0.62-1.01,4.62-6.63,12.58,1.33l8.69-8.69L261.77,326.92z"/>
		</g>
		<g>
			<path class="st2" d="M346.76,323.03l-8.69,8.69c0,0,10.08,7.1,8.41,14.27l-3.62,14.51l-9-12.6v-19.8l-7.2-5.4l-12.6,6.3v0.38
				c2.13-0.29,5.4,0.45,5.4,7.72h0.03l-0.03,14.4l10.8,14.4l14.91-0.07l10.27-34.06L346.76,323.03z"/>
		</g>
		<g>
			<path class="st2" d="M382.45,322.7l-21.6,14.4v15.26c0,0,0,14.4,14.4,14.4h3.6h3.6c14.4,0,14.4-14.4,14.4-14.4V329.9
				L382.45,322.7z M382.45,357.76c0,0,0,3.6-3.6,3.6c-3.6,0-3.6-3.6-3.6-3.6V328.1l7.2,3.6V357.76z"/>
		</g>
		<g>
			<path class="st2" d="M897.25,346.7l14.4-9.6v-7.2l-14.4-7.2l-21.6,14.4v12.6c0,16.2,14.4,16.94,14.4,16.94h7.2
				c14.4,0,14.4-15.14,14.4-15.14h-14.4v5.4c0,0,0,3.6-3.6,3.6c-3.6,0-3.6-3.6-3.6-3.6v-10.19L897.25,346.7z M897.25,331.7v8.99
				c0,3.51-7.2,3.61-7.2,3.61v-16.2L897.25,331.7z"/>
		</g>
	</g>
	<g>
		<g>
			<g>
				<path class="st2" d="M641.65,164.93v0.54c1.86-0.51,4.73-0.7,5.4,2.61v5.4l10.8-7.2v-12.6L641.65,164.93z"/>
			</g>
			<g>
				<path class="st2" d="M638.05,190.27v0.55c2.13-0.55,5.4-0.6,5.4,4.25c0,7.2,0,25.2,0,25.2h14.4v-43.2L638.05,190.27z"/>
			</g>
		</g>
		<g>
			<g>
				<path class="st2" d="M494.05,164.93v0.54c1.86-0.51,4.73-0.7,5.4,2.61v5.4l10.8-7.2v-12.6L494.05,164.93z"/>
			</g>
			<g>
				<path class="st2" d="M490.45,190.27v0.55c2.13-0.55,5.4-0.6,5.4,4.25c0,7.2,0,25.2,0,25.2h14.4v-43.2L490.45,190.27z"/>
			</g>
		</g>
		<g>
			<path class="st2" d="M726.33,213.07l-0.07-28.8l-14.4-7.2l-21.6,14.4v18c0,0,0,11.73,12.66,11.73c8.97,0,10.61-4.07,10.61-4.07
				s0.29,3.14,1.93,3.14c3.37,0,11.56,0,12.6,0v-1.81C726.25,218.47,726.33,213.07,726.33,213.07z M711.85,211.27
				c0,0,0.07,3.6-3.53,3.6c-3.6,0-3.67-3.6-3.67-3.6v-28.8l7.2,3.6V211.27z"/>
		</g>
		<g>
			<path class="st2" d="M954.93,213.07l-0.07-28.8l-14.4-7.2l-21.6,14.4v18c0,0,0,11.73,12.66,11.73c8.97,0,10.61-4.07,10.61-4.07
				s0.29,3.14,1.93,3.14c3.37,0,11.56,0,12.6,0v-1.81C954.85,218.47,954.93,213.07,954.93,213.07z M940.45,211.27
				c0,0,0.07,3.6-3.53,3.6c-3.6,0-3.67-3.6-3.67-3.6v-28.8l7.2,3.6V211.27z"/>
		</g>
		<g>
			<path class="st2" d="M555.25,191.47v-7.2l-14.4-7.2l-21.6,14.4v12.6c0,16.2,14.4,17.13,14.4,17.13h7.2
				c14.4,0,14.4-15.33,14.4-15.33h-14.4v5.4c0,0,0,3.6-3.6,3.6c-3.6,0-3.6-3.6-3.6-3.6v-28.8l7.2,3.6v15L555.25,191.47z"/>
		</g>
		<g>
			<path class="st2" d="M731.65,159.67v0.55c2.13-0.55,5.4-0.6,5.4,4.25c0,7.2,0,55.8,0,55.8h14.4v-73.8L731.65,159.67z"/>
		</g>
		<g>
			<path class="st2" d="M1016.05,177.07l-15.72,5.88l-5.88-5.88l-14.4,5.4l-7.2-5.4l-12.6,6.3v0.38c2.13-0.29,5.4,0.45,5.4,7.72
				v28.8h14.4v-36c7.2-1.8,7.2,3.6,7.2,3.6v32.4h14.4v-36c7.2-1.8,7.2,3.6,7.2,3.6v32.4h14.4v-36L1016.05,177.07z"/>
		</g>
		<g>
			<path class="st2" d="M474.25,177.07l-12.6,8.02v-38.62l-19.8,13.2v0.55c2.13-0.55,5.4-0.6,5.4,4.25c0,7.2,0,55.8,0,55.8h14.4
				V188.1c3.6-1.13,7.2-1.13,7.2,3.38v28.8h14.4v-28.8h3.6L474.25,177.07z"/>
		</g>
		<g>
			<path class="st2" d="M591.25,177.07l-12.6,8.02v-38.62l-19.8,13.2v0.55c2.13-0.55,5.4-0.6,5.4,4.25c0,7.2,0,55.8,0,55.8h14.4
				V188.1c3.6-1.13,7.2-1.13,7.2,3.38v28.8h14.4v-28.8h3.6L591.25,177.07z"/>
		</g>
		<g>
			<path class="st2" d="M431.38,177.41l-8.69,8.69c0,0,10.08,7.1,8.41,14.27l-3.62,14.51l-9-12.6v-19.8l-7.2-5.4l-12.62,6.31v0.37
				c2.13-0.3,5.42,0.42,5.42,7.72h0.03l-0.02,9l-0.03,0c0,0.01,0.01,0.02,0.03,0.02l-0.01,5.38l3.02,4.03l-1.24,4.97l-9-12.6v-19.8
				l-7.2-5.4l-12.6,6.3v0.38c2.13-0.29,5.4,0.45,5.4,7.72h0.03l-0.03,14.4l10.8,14.4l14.91-0.07l1.91-6.33l4.8,6.4l14.91-0.07
				l10.27-34.06L431.38,177.41z"/>
		</g>
		<g>
			<path class="st2" d="M836.05,177.07l-14.4,5.4l-7.2-5.4l-12.6,6.3v0.38c2.13-0.29,5.4,0.45,5.4,7.72v28.8h14.4v-36
				c7.2-1.8,7.2,3.6,7.2,3.6v32.4h14.4v-36L836.05,177.07z"/>
		</g>
		<g>
			<path class="st2" d="M872.05,201.07l14.4-9.6v-7.2l-14.4-7.2l-21.6,14.4v12.6c0,16.2,14.4,16.94,14.4,16.94h7.2
				c14.4,0,14.4-15.14,14.4-15.14h-14.4v5.4c0,0,0,3.6-3.6,3.6s-3.6-3.6-3.6-3.6v-10.19L872.05,201.07z M872.05,186.07v8.99
				c0,3.51-7.2,3.61-7.2,3.61v-16.2L872.05,186.07z"/>
		</g>
		<g>
			<path class="st2" d="M782.05,177.07l-21.6,14.4v15.26c0,0,0,14.4,14.4,14.4h3.6h3.6c14.4,0,14.4-14.4,14.4-14.4v-22.46
				L782.05,177.07z M782.05,212.13c0,0,0,3.6-3.6,3.6s-3.6-3.6-3.6-3.6v-29.66l7.2,3.6V212.13z"/>
		</g>
		<g>
			<path class="st2" d="M180.85,189.59v-35.91l7.2,3.6v12.6l7.2,5.4l12.6-6.3v-0.38c-2.13,0.29-5.4-0.45-5.4-7.72v-5.4l-14.4-7.2
				l-27,18v0.55c2.13-0.55,5.4-0.6,5.4,4.25c0,1.1,0,49.2,0,49.2h14.4v-27.15c0.62-1.01,4.62-6.63,12.58,1.33l8.69-8.69l-8.75-8.69
				L180.85,189.59z"/>
		</g>
		<g>
			<path class="st2" d="M342.85,177.07l-15.72,5.88l-5.88-5.88l-14.4,5.4l-7.2-5.4l-12.6,6.3v0.38c2.13-0.29,5.4,0.45,5.4,7.72v28.8
				h14.4v-36c7.2-1.8,7.2,3.6,7.2,3.6v32.4h14.4v-36c7.2-1.8,7.2,3.6,7.2,3.6v32.4h14.4v-36L342.85,177.07z"/>
		</g>
		<g>
			<path class="st2" d="M235.1,181.29l-12.51,12.51v-16.73l-19.8,13.2v0.55c2.13-0.55,5.4-0.6,5.4,4.25c0,7.2,0,25.2,0,25.2h14.4
				v-22.93c0.62-1.01,4.62-6.63,12.58,1.33l8.69-8.69L235.1,181.29z"/>
		</g>
		<g>
			<path class="st2" d="M269.05,177.07l-21.6,14.4v15.26c0,0,0,14.4,14.4,14.4h3.6h3.6c14.4,0,14.4-14.4,14.4-14.4v-22.46
				L269.05,177.07z M269.05,212.13c0,0,0,3.6-3.6,3.6s-3.6-3.6-3.6-3.6v-29.66l7.2,3.6V212.13z"/>
		</g>
	</g>
</g>
</svg>
