<?xml version="1.0" encoding="utf-8"?>
<!-- Generator: Adobe Illustrator 25.2.3, SVG Export Plug-In . SVG Version: 6.00 Build 0)  -->
<svg version="1.1" id="Layer_1" xmlns="http://www.w3.org/2000/svg" xmlns:xlink="http://www.w3.org/1999/xlink" x="0px" y="0px"
	 viewBox="0 0 1920 821.45" style="enable-background:new 0 0 1920 821.45;" xml:space="preserve">
<style type="text/css">
	.st0{fill:#44C030;}
	.st1{fill:#FFFFFF;}
	.st2{fill:none;stroke:#44C030;stroke-miterlimit:10;}
</style>
<rect x="-4006" y="-129.28" width="1920" height="1080"/>
<rect x="-3253.61" y="-1007.89" class="st0" width="1190.81" height="294.2"/>
<g>
	<path class="st1" d="M0.09-1449.27"/>
</g>
<path class="st1" d="M1157.02,322.82l-91.72,61.15v91.72l30.57,30.57l61.15-22.93v23.04v83.97c0,0,0,15.29-15.29,15.29
	s-15.29-15.29-15.29-15.29v-45.86h-61.15v22.93c0,0,0,61.15,61.15,61.15h30.57c61.15,0,61.15-61.15,61.15-61.15v-61.04v-61.26V353.4
	L1157.02,322.82z M1126.45,460.41V345.75l30.57,15.29v114.65C1126.45,483.34,1126.45,460.41,1126.45,460.41z"/>
<path class="st1" d="M536.09,383.97v76.44c0,0,0,49.82,53.74,49.82c38.11,0,45.06-17.28,45.06-17.28s1.22,13.32,8.21,13.32
	c14.29,0,49.09,0,53.5,0v-7.67c-7.64,0-7.33-22.91-7.33-22.91l-0.31-122.3l-61.15-30.57L536.09,383.97 M627.82,468.05
	c0,0,0.31,15.29-14.98,15.29s-15.6-15.29-15.6-15.29v-122.3l30.57,15.29V468.05z"/>
<path class="st1" d="M932.08,315.18l53.5-26.75v-1.59c-9.06,1.24-22.93-1.91-22.93-32.8V231.1l-61.15-30.57l-114.65,76.44v2.34
	c9.06-2.33,22.93-2.55,22.93,18.05c0,0.98,0,10.71,0,25.48c0,55.77,0,183.45,0,183.45h61.15V390.99c2.63-4.28,19.62-28.14,53.4,5.65
	l36.91-36.91l-37.17-36.91l-53.14,53.14v-52.85v-99.65l30.57,15.29v53.5L932.08,315.18z"/>
<path class="st1" d="M1431.13,388.72l-23.46-47.98l-16.49-8.43l-18.55-9.48l-43.79,44.79c0,0,17.52-8.96,26.27,8.96l37.57,76.85
	c-5.15,2.82-11.15,5.08-17.15,5.08h-39.81v47.77h39.81l21.74-43.48l21.26,43.48h70.07l-54.74-111.96c6.04-4.13,14.3-8.42,22.57-8.42
	h39.81v-47.77h-39.81L1431.13,388.72z"/>
<path class="st1" d="M4923.19,604.79l-1.02-401.12L4721.6,103.39l-300.84,200.56v250.7c0,0,0,163.41,176.26,163.41
	c124.99,0,147.8-56.66,147.8-56.66s4.01,43.67,26.91,43.67c46.87,0,161,0,175.49,0v-25.15
	C4922.16,679.91,4923.19,604.79,4923.19,604.79z M4721.6,579.72c0,0,1.02,50.14-49.12,50.14s-51.16-50.14-51.16-50.14V178.6
	l100.28,50.14V579.72z"/>
<path class="st1" d="M4923.19,604.79l-1.02-401.12L4721.6,103.39l-300.84,200.56v250.7c0,0,0,163.41,176.26,163.41
	c124.99,0,147.8-56.66,147.8-56.66s4.01,43.67,26.91,43.67c46.87,0,161,0,175.49,0v-25.15
	C4922.16,679.91,4923.19,604.79,4923.19,604.79z M4721.6,579.72c0,0,1.02,50.14-49.12,50.14s-51.16-50.14-51.16-50.14V178.6
	l100.28,50.14V579.72z"/>
<line class="st2" x1="3665.8" y1="807.26" x2="5476.57" y2="-399.92"/>
<line class="st2" x1="3741.02" y1="882.47" x2="5551.78" y2="-324.71"/>
<line class="st2" x1="4420.77" y1="-157.96" x2="4420.77" y2="1016.55"/>
<line class="st2" x1="4621.32" y1="-157.96" x2="4621.32" y2="1016.55"/>
<line class="st2" x1="4721.61" y1="-157.96" x2="4721.61" y2="1016.55"/>
<line class="st2" x1="4922.17" y1="-157.96" x2="4922.17" y2="1016.55"/>
<line class="st2" x1="3664.24" y1="705.07" x2="6054.74" y2="705.07"/>
<line class="st2" x1="3664.24" y1="103.39" x2="6054.74" y2="103.39"/>
<line class="st2" x1="3854.21" y1="-330.31" x2="5789.55" y2="637.37"/>
<line class="st2" x1="3854.89" y1="-204.64" x2="5790.23" y2="763.04"/>
<g>
	<path class="st1" d="M308.61-222.58c0-4.32,3.49-6.59,11.59-7.45c-0.07-1.98-0.94-3.49-3.42-3.49c-1.87,0-3.67,0.83-5.54,1.91
		l-1.91-3.49c2.38-1.48,5.25-2.66,8.42-2.66c5.11,0,7.74,3.06,7.74,8.89v11.77h-4.32l-0.4-2.16h-0.11
		c-1.76,1.51-3.78,2.66-6.08,2.66C310.99-216.61,308.61-219.16,308.61-222.58z M320.2-222.73v-4.07c-4.9,0.65-6.55,1.98-6.55,3.78
		c0,1.58,1.12,2.27,2.66,2.27C317.83-220.75,318.94-221.47,320.2-222.73z"/>
	<path class="st1" d="M328.99-219.45l2.41-3.31c1.8,1.4,3.53,2.2,5.4,2.2c2.02,0,2.92-0.86,2.92-2.12c0-1.51-2.09-2.2-4.21-3.02
		c-2.56-0.97-5.51-2.52-5.51-5.87c0-3.64,2.95-6.19,7.49-6.19c2.95,0,5.18,1.22,6.88,2.48l-2.38,3.2c-1.44-1.01-2.84-1.73-4.36-1.73
		c-1.8,0-2.66,0.79-2.66,1.94c0,1.48,1.98,2.02,4.1,2.81c2.66,1.01,5.62,2.34,5.62,6.08c0,3.53-2.77,6.37-8.03,6.37
		C333.95-216.61,330.97-217.8,328.99-219.45z"/>
	<path class="st1" d="M347.45-227.16c0-6.73,4.82-10.62,10.29-10.62c2.48,0,4.39,0.97,5.87,2.23l-2.52,3.42
		c-1.01-0.86-1.94-1.33-3.1-1.33c-3.06,0-5.15,2.48-5.15,6.3c0,3.78,2.09,6.23,5,6.23c1.44,0,2.81-0.68,3.92-1.62l2.09,3.49
		c-1.91,1.69-4.36,2.45-6.59,2.45C351.7-216.61,347.45-220.5,347.45-227.16z"/>
	<path class="st1" d="M365.35-227.16c0-6.55,4.57-10.62,9.39-10.62c5.54,0,8.42,4.07,8.42,9.65c0,0.97-0.11,1.94-0.25,2.41h-12.42
		c0.43,3.31,2.59,5.04,5.58,5.04c1.66,0,3.1-0.5,4.54-1.4l1.8,3.24c-1.98,1.37-4.54,2.23-7.05,2.23
		C369.74-216.61,365.35-220.53,365.35-227.16z M378.63-229.21c0-2.74-1.22-4.46-3.82-4.46c-2.12,0-4,1.51-4.39,4.46H378.63z"/>
	<path class="st1" d="M387.52-237.27h4.32l0.36,2.66h0.14c1.76-1.73,3.82-3.17,6.55-3.17c4.36,0,6.23,3.02,6.23,8.1v12.56h-5.29
		v-11.91c0-3.1-0.86-4.21-2.84-4.21c-1.66,0-2.7,0.79-4.21,2.27v13.86h-5.25V-237.27z"/>
	<path class="st1" d="M409.44-227.16c0-6.59,4.1-10.62,8.46-10.62c2.27,0,3.67,0.86,5.11,2.2l-0.22-3.17v-7.09h5.29v28.72h-4.28
		l-0.43-2.09h-0.11c-1.48,1.44-3.49,2.59-5.58,2.59C412.68-216.61,409.44-220.57,409.44-227.16z M422.8-223.05v-8.85
		c-1.22-1.12-2.48-1.51-3.74-1.51c-2.27,0-4.18,2.16-4.18,6.19c0,4.18,1.51,6.26,4.18,6.26
		C420.46-220.96,421.65-221.54,422.8-223.05z"/>
	<path class="st1" d="M432.52-227.16c0-6.55,4.57-10.62,9.39-10.62c5.54,0,8.42,4.07,8.42,9.65c0,0.97-0.11,1.94-0.25,2.41h-12.42
		c0.43,3.31,2.59,5.04,5.58,5.04c1.66,0,3.1-0.5,4.54-1.4l1.8,3.24c-1.98,1.37-4.54,2.23-7.05,2.23
		C436.91-216.61,432.52-220.53,432.52-227.16z M445.8-229.21c0-2.74-1.22-4.46-3.82-4.46c-2.12,0-4,1.51-4.39,4.46H445.8z"/>
	<path class="st1" d="M454.7-237.27h4.32l0.36,3.56h0.14c1.48-2.63,3.64-4.07,5.72-4.07c1.12,0,1.76,0.18,2.38,0.43l-0.94,4.57
		c-0.68-0.22-1.26-0.32-2.09-0.32c-1.58,0-3.49,1.04-4.64,3.96v12.02h-5.25V-237.27z"/>
</g>
<g>
	<path class="st1" d="M308.61-336.64c0-4.32,3.49-6.59,11.59-7.45c-0.07-1.98-0.94-3.49-3.42-3.49c-1.87,0-3.67,0.83-5.54,1.91
		l-1.91-3.49c2.38-1.48,5.25-2.66,8.42-2.66c5.11,0,7.74,3.06,7.74,8.89v11.77h-4.32l-0.4-2.16h-0.11
		c-1.76,1.51-3.78,2.66-6.08,2.66C310.99-330.67,308.61-333.22,308.61-336.64z M320.2-336.79v-4.07c-4.9,0.65-6.55,1.98-6.55,3.78
		c0,1.58,1.12,2.27,2.66,2.27C317.83-334.81,318.94-335.53,320.2-336.79z"/>
	<path class="st1" d="M330.89-351.33h4.32l0.36,2.09h0.14c1.69-1.44,3.78-2.59,5.94-2.59c4.97,0,7.92,4.07,7.92,10.26
		c0,6.91-4.14,10.91-8.57,10.91c-1.76,0-3.46-0.79-5-2.2l0.14,3.31v6.12h-5.25V-351.33z M344.14-341.5c0-3.85-1.22-5.98-4-5.98
		c-1.37,0-2.59,0.68-4,2.09v8.86c1.3,1.12,2.59,1.51,3.67,1.51C342.27-335.02,344.14-337.11,344.14-341.5z"/>
	<path class="st1" d="M352.82-341.21c0-6.55,4.57-10.62,9.39-10.62c5.54,0,8.42,4.07,8.42,9.65c0,0.97-0.11,1.94-0.25,2.41h-12.42
		c0.43,3.31,2.59,5.04,5.58,5.04c1.66,0,3.1-0.5,4.54-1.4l1.8,3.24c-1.98,1.37-4.54,2.23-7.05,2.23
		C357.21-330.67,352.82-334.59,352.82-341.21z M366.1-343.27c0-2.74-1.22-4.46-3.82-4.46c-2.12,0-4,1.51-4.39,4.46H366.1z"/>
	<path class="st1" d="M378.45-341.68l-5.9-9.65h5.69l2.02,3.6c0.58,1.12,1.19,2.27,1.8,3.38h0.14c0.47-1.12,1.01-2.27,1.48-3.38
		l1.69-3.6h5.47l-5.9,10.26l6.3,9.9h-5.69l-2.23-3.67c-0.65-1.19-1.3-2.41-1.94-3.56h-0.18c-0.58,1.15-1.12,2.34-1.69,3.56
		l-1.87,3.67h-5.47L378.45-341.68z"/>
</g>
<g>
	<path class="st1" d="M307.71-406.22l2.41-3.31c1.8,1.4,3.53,2.2,5.4,2.2c2.02,0,2.92-0.86,2.92-2.12c0-1.51-2.09-2.2-4.21-3.02
		c-2.56-0.97-5.51-2.52-5.51-5.87c0-3.64,2.95-6.19,7.49-6.19c2.95,0,5.18,1.22,6.88,2.48l-2.38,3.2c-1.44-1.01-2.84-1.73-4.36-1.73
		c-1.8,0-2.66,0.79-2.66,1.94c0,1.48,1.98,2.02,4.1,2.81c2.66,1.01,5.62,2.34,5.62,6.08c0,3.53-2.77,6.37-8.03,6.37
		C312.68-403.38,309.69-404.57,307.71-406.22z"/>
	<path class="st1" d="M327.37-410.94v-8.93h-2.84v-3.92l3.1-0.25l0.61-5.4h4.43v5.4h4.97v4.17h-4.97v8.93c0,2.3,0.94,3.38,2.74,3.38
		c0.65,0,1.44-0.22,1.98-0.43l0.86,3.85c-1.08,0.36-2.48,0.76-4.25,0.76C329.2-403.38,327.37-406.4,327.37-410.94z"/>
	<path class="st1" d="M339.79-413.93c0-6.55,4.57-10.62,9.39-10.62c5.54,0,8.42,4.07,8.42,9.65c0,0.97-0.11,1.94-0.25,2.41h-12.42
		c0.43,3.31,2.59,5.04,5.58,5.04c1.66,0,3.1-0.5,4.54-1.4l1.8,3.24c-1.98,1.37-4.54,2.23-7.05,2.23
		C344.18-403.38,339.79-407.3,339.79-413.93z M353.07-415.98c0-2.74-1.22-4.46-3.82-4.46c-2.12,0-4,1.51-4.39,4.46H353.07z"/>
	<path class="st1" d="M361.96-424.04h4.32l0.36,2.7h0.14c1.69-1.76,3.56-3.2,6.19-3.2c2.88,0,4.57,1.3,5.54,3.53
		c1.84-1.94,3.78-3.53,6.41-3.53c4.28,0,6.26,3.02,6.26,8.1v12.56h-5.29v-11.92c0-3.1-0.9-4.21-2.81-4.21
		c-1.15,0-2.45,0.76-3.89,2.27v13.86h-5.29v-11.92c0-3.1-0.9-4.21-2.81-4.21c-1.15,0-2.45,0.76-3.89,2.27v13.86h-5.25V-424.04z"/>
</g>
<g>
	<path class="st1" d="M308.36-502.32c0-6.73,4.82-10.62,10.29-10.62c2.48,0,4.39,0.97,5.87,2.23l-2.52,3.42
		c-1.01-0.86-1.94-1.33-3.1-1.33c-3.06,0-5.15,2.48-5.15,6.3c0,3.78,2.09,6.23,5,6.23c1.44,0,2.81-0.68,3.92-1.62l2.09,3.49
		c-1.91,1.69-4.36,2.45-6.59,2.45C312.61-491.78,308.36-495.66,308.36-502.32z"/>
	<path class="st1" d="M327.15-497.75c0-4.32,3.49-6.59,11.59-7.45c-0.07-1.98-0.94-3.49-3.42-3.49c-1.87,0-3.67,0.83-5.54,1.91
		l-1.91-3.49c2.38-1.48,5.25-2.66,8.42-2.66c5.11,0,7.74,3.06,7.74,8.89v11.77h-4.32l-0.4-2.16h-0.11
		c-1.76,1.51-3.78,2.66-6.08,2.66C329.53-491.78,327.15-494.33,327.15-497.75z M338.74-497.9v-4.07c-4.9,0.65-6.55,1.98-6.55,3.78
		c0,1.58,1.12,2.27,2.66,2.27C336.37-495.92,337.48-496.64,338.74-497.9z"/>
	<path class="st1" d="M349.43-512.44h4.32l0.36,2.09h0.14c1.69-1.44,3.78-2.59,5.94-2.59c4.97,0,7.92,4.07,7.92,10.26
		c0,6.91-4.14,10.91-8.57,10.91c-1.76,0-3.46-0.79-5-2.2l0.14,3.31v6.12h-5.25V-512.44z M362.68-502.61c0-3.85-1.22-5.98-4-5.98
		c-1.37,0-2.59,0.68-4,2.09v8.85c1.3,1.12,2.59,1.51,3.67,1.51C360.81-496.13,362.68-498.22,362.68-502.61z"/>
	<path class="st1" d="M380.79-521.01h5.25v7.24l-0.22,3.78c1.62-1.51,3.6-2.95,6.33-2.95c4.36,0,6.23,3.02,6.23,8.1v12.56h-5.29
		v-11.91c0-3.1-0.86-4.21-2.84-4.21c-1.66,0-2.7,0.79-4.21,2.27v13.86h-5.25V-521.01z"/>
	<path class="st1" d="M402.57-502.32c0-6.55,4.57-10.62,9.39-10.62c5.54,0,8.42,4.07,8.42,9.65c0,0.97-0.11,1.94-0.25,2.41h-12.42
		c0.43,3.31,2.59,5.04,5.58,5.04c1.66,0,3.1-0.5,4.54-1.4l1.8,3.24c-1.98,1.37-4.54,2.23-7.05,2.23
		C406.96-491.78,402.57-495.7,402.57-502.32z M415.85-504.38c0-2.74-1.22-4.46-3.82-4.46c-2.12,0-4,1.51-4.39,4.46H415.85z"/>
	<path class="st1" d="M424.24-518.56c0-1.73,1.33-2.88,3.17-2.88c1.8,0,3.13,1.15,3.13,2.88c0,1.66-1.33,2.88-3.13,2.88
		C425.57-515.68,424.24-516.9,424.24-518.56z M424.75-512.44H430v20.16h-5.25V-512.44z"/>
	<path class="st1" d="M434.36-488.72c0-1.69,1.04-3.13,2.88-4.18v-0.18c-1.04-0.68-1.84-1.73-1.84-3.38c0-1.51,1.04-2.92,2.23-3.78
		v-0.14c-1.37-1.01-2.66-2.92-2.66-5.26c0-4.75,3.85-7.31,8.13-7.31c1.12,0,2.2,0.22,3.02,0.5h7.27v3.89h-3.46
		c0.54,0.68,0.94,1.8,0.94,3.06c0,4.54-3.46,6.84-7.78,6.84c-0.79,0-1.73-0.18-2.59-0.47c-0.58,0.47-0.86,0.94-0.86,1.73
		c0,1.08,0.79,1.66,3.17,1.66h3.42c4.86,0,7.49,1.51,7.49,5.04c0,4.07-4.21,7.16-10.94,7.16
		C438.03-483.53,434.36-485.15,434.36-488.72z M448.68-489.8c0-1.44-1.19-1.8-3.35-1.8h-2.45c-1.22,0-2.09-0.11-2.81-0.29
		c-0.9,0.72-1.33,1.51-1.33,2.34c0,1.69,1.87,2.66,4.82,2.66C446.6-486.88,448.68-488.21,448.68-489.8z M446.24-505.64
		c0-2.38-1.33-3.71-3.13-3.71s-3.17,1.33-3.17,3.71c0,2.38,1.4,3.71,3.17,3.71S446.24-503.26,446.24-505.64z"/>
	<path class="st1" d="M457.18-521.01h5.25v7.24l-0.22,3.78c1.62-1.51,3.6-2.95,6.33-2.95c4.36,0,6.23,3.02,6.23,8.1v12.56h-5.29
		v-11.91c0-3.1-0.86-4.21-2.84-4.21c-1.66,0-2.7,0.79-4.21,2.27v13.86h-5.25V-521.01z"/>
	<path class="st1" d="M480.98-499.34v-8.93h-2.84v-3.92l3.1-0.25l0.61-5.4h4.43v5.4h4.97v4.18h-4.97v8.93c0,2.3,0.94,3.38,2.74,3.38
		c0.65,0,1.44-0.22,1.98-0.43l0.86,3.85c-1.08,0.36-2.48,0.76-4.25,0.76C482.81-491.78,480.98-494.8,480.98-499.34z"/>
</g>
<g>
	<path class="st1" d="M309.62-619.37h4.32l0.36,2.09h0.14c1.69-1.44,3.78-2.59,5.94-2.59c4.97,0,7.92,4.07,7.92,10.26
		c0,6.91-4.14,10.91-8.57,10.91c-1.76,0-3.46-0.79-5-2.2l0.14,3.31v6.12h-5.25V-619.37z M322.87-609.54c0-3.85-1.22-5.98-4-5.98
		c-1.37,0-2.59,0.68-4,2.09v8.85c1.3,1.12,2.59,1.51,3.67,1.51C320.99-603.06,322.87-605.15,322.87-609.54z"/>
	<path class="st1" d="M331.54-609.25c0-6.73,4.64-10.62,9.68-10.62s9.68,3.89,9.68,10.62c0,6.66-4.64,10.55-9.68,10.55
		S331.54-602.6,331.54-609.25z M345.51-609.25c0-3.82-1.55-6.3-4.28-6.3s-4.28,2.48-4.28,6.3c0,3.78,1.55,6.23,4.28,6.23
		S345.51-605.47,345.51-609.25z"/>
	<path class="st1" d="M354.84-625.49c0-1.73,1.33-2.88,3.17-2.88c1.8,0,3.13,1.15,3.13,2.88c0,1.66-1.33,2.88-3.13,2.88
		C356.17-622.61,354.84-623.83,354.84-625.49z M355.34-619.37h5.25v20.16h-5.25V-619.37z"/>
	<path class="st1" d="M366.28-619.37h4.32l0.36,2.66h0.14c1.76-1.73,3.82-3.17,6.55-3.17c4.36,0,6.23,3.02,6.23,8.1v12.56h-5.29
		v-11.91c0-3.1-0.86-4.21-2.84-4.21c-1.66,0-2.7,0.79-4.21,2.27v13.86h-5.25V-619.37z"/>
	<path class="st1" d="M390.11-606.27v-8.93h-2.84v-3.92l3.1-0.25l0.61-5.4h4.43v5.4h4.97v4.18h-4.97v8.93c0,2.3,0.94,3.38,2.74,3.38
		c0.65,0,1.44-0.22,1.98-0.43l0.86,3.85c-1.08,0.36-2.48,0.76-4.25,0.76C391.95-598.71,390.11-601.73,390.11-606.27z"/>
	<path class="st1" d="M410.74-601.55l2.41-3.31c1.8,1.4,3.53,2.2,5.4,2.2c2.02,0,2.92-0.86,2.92-2.12c0-1.51-2.09-2.2-4.21-3.02
		c-2.56-0.97-5.51-2.52-5.51-5.87c0-3.64,2.95-6.19,7.49-6.19c2.95,0,5.18,1.22,6.88,2.48l-2.38,3.2c-1.44-1.01-2.84-1.73-4.36-1.73
		c-1.8,0-2.66,0.79-2.66,1.94c0,1.48,1.98,2.02,4.1,2.81c2.66,1.01,5.62,2.34,5.62,6.08c0,3.53-2.77,6.37-8.03,6.37
		C415.71-598.71,412.72-599.9,410.74-601.55z"/>
	<path class="st1" d="M429.97-625.49c0-1.73,1.33-2.88,3.17-2.88c1.8,0,3.13,1.15,3.13,2.88c0,1.66-1.33,2.88-3.13,2.88
		C431.3-622.61,429.97-623.83,429.97-625.49z M430.47-619.37h5.25v20.16h-5.25V-619.37z"/>
	<path class="st1" d="M440.04-602.06l9-13.14h-7.99v-4.18h14.61v2.84l-9.04,13.14h9.32v4.18h-15.91V-602.06z"/>
	<path class="st1" d="M458.12-609.25c0-6.55,4.57-10.62,9.39-10.62c5.54,0,8.42,4.07,8.42,9.65c0,0.97-0.11,1.94-0.25,2.41h-12.42
		c0.43,3.31,2.59,5.04,5.58,5.04c1.66,0,3.1-0.5,4.54-1.4l1.8,3.24c-1.98,1.37-4.54,2.23-7.05,2.23
		C462.51-598.71,458.12-602.63,458.12-609.25z M471.4-611.31c0-2.74-1.22-4.46-3.82-4.46c-2.12,0-4,1.51-4.39,4.46H471.4z"/>
</g>
<g>
	<path class="st1" d="M308.47-729.02c0-6.59,4.1-10.62,8.46-10.62c2.27,0,3.67,0.86,5.11,2.2l-0.22-3.17v-7.09h5.29v28.72h-4.28
		l-0.43-2.09h-0.11c-1.48,1.44-3.49,2.59-5.58,2.59C311.71-718.47,308.47-722.43,308.47-729.02z M321.82-724.91v-8.85
		c-1.22-1.12-2.48-1.51-3.74-1.51c-2.27,0-4.18,2.16-4.18,6.19c0,4.18,1.51,6.26,4.18,6.26
		C319.48-722.83,320.67-723.4,321.82-724.91z"/>
	<path class="st1" d="M331.54-729.02c0-6.55,4.57-10.62,9.39-10.62c5.54,0,8.42,4.07,8.42,9.65c0,0.97-0.11,1.94-0.25,2.41h-12.42
		c0.43,3.31,2.59,5.04,5.58,5.04c1.66,0,3.1-0.5,4.54-1.4l1.8,3.24c-1.98,1.37-4.54,2.23-7.05,2.23
		C335.93-718.47,331.54-722.39,331.54-729.02z M344.83-731.07c0-2.74-1.22-4.46-3.82-4.46c-2.12,0-4,1.51-4.39,4.46H344.83z"/>
	<path class="st1" d="M351.81-721.31l2.41-3.31c1.8,1.4,3.53,2.2,5.4,2.2c2.02,0,2.92-0.86,2.92-2.12c0-1.51-2.09-2.2-4.21-3.02
		c-2.56-0.97-5.51-2.52-5.51-5.87c0-3.64,2.95-6.19,7.49-6.19c2.95,0,5.18,1.22,6.88,2.48l-2.38,3.2c-1.44-1.01-2.84-1.73-4.36-1.73
		c-1.8,0-2.66,0.79-2.66,1.94c0,1.48,1.98,2.02,4.1,2.81c2.66,1.01,5.62,2.34,5.62,6.08c0,3.53-2.77,6.37-8.03,6.37
		C356.78-718.47,353.79-719.66,351.81-721.31z"/>
	<path class="st1" d="M370.28-729.02c0-6.73,4.82-10.62,10.29-10.62c2.48,0,4.39,0.97,5.87,2.23l-2.52,3.42
		c-1.01-0.86-1.94-1.33-3.1-1.33c-3.06,0-5.15,2.48-5.15,6.3c0,3.78,2.09,6.23,5,6.23c1.44,0,2.81-0.68,3.92-1.62l2.09,3.49
		c-1.91,1.69-4.36,2.45-6.59,2.45C374.53-718.47,370.28-722.36,370.28-729.02z"/>
	<path class="st1" d="M388.17-729.02c0-6.55,4.57-10.62,9.39-10.62c5.54,0,8.42,4.07,8.42,9.65c0,0.97-0.11,1.94-0.25,2.41h-12.42
		c0.43,3.31,2.59,5.04,5.58,5.04c1.66,0,3.1-0.5,4.54-1.4l1.8,3.24c-1.98,1.37-4.54,2.23-7.05,2.23
		C392.56-718.47,388.17-722.39,388.17-729.02z M401.45-731.07c0-2.74-1.22-4.46-3.82-4.46c-2.12,0-4,1.51-4.39,4.46H401.45z"/>
	<path class="st1" d="M410.35-739.13h4.32l0.36,2.66h0.14c1.76-1.73,3.82-3.17,6.55-3.17c4.36,0,6.23,3.02,6.23,8.1v12.56h-5.29
		v-11.91c0-3.1-0.86-4.21-2.84-4.21c-1.66,0-2.7,0.79-4.21,2.27v13.86h-5.25V-739.13z"/>
	<path class="st1" d="M432.27-729.02c0-6.59,4.1-10.62,8.46-10.62c2.27,0,3.67,0.86,5.11,2.2l-0.22-3.17v-7.09h5.29v28.72h-4.28
		l-0.43-2.09h-0.11c-1.48,1.44-3.49,2.59-5.58,2.59C435.51-718.47,432.27-722.43,432.27-729.02z M445.62-724.91v-8.85
		c-1.22-1.12-2.48-1.51-3.74-1.51c-2.27,0-4.18,2.16-4.18,6.19c0,4.18,1.51,6.26,4.18,6.26
		C443.28-722.83,444.47-723.4,445.62-724.91z"/>
	<path class="st1" d="M455.34-729.02c0-6.55,4.57-10.62,9.39-10.62c5.54,0,8.42,4.07,8.42,9.65c0,0.97-0.11,1.94-0.25,2.41h-12.42
		c0.43,3.31,2.59,5.04,5.58,5.04c1.66,0,3.1-0.5,4.54-1.4l1.8,3.24c-1.98,1.37-4.54,2.23-7.05,2.23
		C459.74-718.47,455.34-722.39,455.34-729.02z M468.63-731.07c0-2.74-1.22-4.46-3.82-4.46c-2.12,0-4,1.51-4.39,4.46H468.63z"/>
	<path class="st1" d="M477.52-739.13h4.32l0.36,3.56h0.14c1.48-2.63,3.64-4.07,5.72-4.07c1.12,0,1.76,0.18,2.38,0.43l-0.94,4.57
		c-0.68-0.22-1.26-0.32-2.09-0.32c-1.58,0-3.49,1.04-4.64,3.96v12.02h-5.25V-739.13z"/>
</g>
<g>
	<path class="st1" d="M313.65-817.88l-5.9-9.65h5.69l2.02,3.6c0.58,1.12,1.19,2.27,1.8,3.38h0.14c0.47-1.12,1.01-2.27,1.48-3.38
		l1.69-3.6h5.47l-5.9,10.26l6.3,9.9h-5.69l-2.23-3.67c-0.65-1.19-1.3-2.41-1.94-3.56h-0.18c-0.58,1.15-1.12,2.34-1.69,3.56
		l-1.87,3.67h-5.47L313.65-817.88z"/>
	<path class="st1" d="M328.09-819.57h9.83v3.78h-9.83V-819.57z"/>
	<path class="st1" d="M342.49-836.09h5.25v7.24l-0.22,3.78c1.62-1.51,3.6-2.95,6.33-2.95c4.36,0,6.23,3.02,6.23,8.1v12.56h-5.29
		v-11.91c0-3.1-0.86-4.21-2.84-4.21c-1.66,0-2.7,0.79-4.21,2.27v13.86h-5.25V-836.09z"/>
	<path class="st1" d="M364.27-817.41c0-6.55,4.57-10.62,9.39-10.62c5.54,0,8.42,4.07,8.42,9.65c0,0.97-0.11,1.94-0.25,2.41h-12.42
		c0.43,3.31,2.59,5.04,5.58,5.04c1.66,0,3.1-0.5,4.54-1.4l1.8,3.24c-1.98,1.37-4.54,2.23-7.05,2.23
		C368.66-806.87,364.27-810.79,364.27-817.41z M377.55-819.46c0-2.74-1.22-4.46-3.82-4.46c-2.12,0-4,1.51-4.39,4.46H377.55z"/>
	<path class="st1" d="M385.94-833.65c0-1.73,1.33-2.88,3.17-2.88c1.8,0,3.13,1.15,3.13,2.88c0,1.66-1.33,2.88-3.13,2.88
		C387.27-830.77,385.94-831.99,385.94-833.65z M386.44-827.53h5.25v20.16h-5.25V-827.53z"/>
	<path class="st1" d="M396.05-803.81c0-1.69,1.04-3.13,2.88-4.18v-0.18c-1.04-0.68-1.84-1.73-1.84-3.38c0-1.51,1.04-2.92,2.23-3.78
		v-0.14c-1.37-1.01-2.66-2.92-2.66-5.26c0-4.75,3.85-7.31,8.13-7.31c1.12,0,2.2,0.22,3.02,0.5h7.27v3.89h-3.46
		c0.54,0.68,0.94,1.8,0.94,3.06c0,4.54-3.46,6.84-7.78,6.84c-0.79,0-1.73-0.18-2.59-0.47c-0.58,0.47-0.86,0.94-0.86,1.73
		c0,1.08,0.79,1.66,3.17,1.66h3.42c4.86,0,7.49,1.51,7.49,5.04c0,4.07-4.21,7.16-10.94,7.16
		C399.73-798.62,396.05-800.24,396.05-803.81z M410.38-804.89c0-1.44-1.19-1.8-3.35-1.8h-2.45c-1.22,0-2.09-0.11-2.81-0.29
		c-0.9,0.72-1.33,1.51-1.33,2.34c0,1.69,1.87,2.66,4.82,2.66C408.29-801.97,410.38-803.3,410.38-804.89z M407.93-820.72
		c0-2.38-1.33-3.71-3.13-3.71s-3.17,1.33-3.17,3.71c0,2.38,1.4,3.71,3.17,3.71S407.93-818.35,407.93-820.72z"/>
	<path class="st1" d="M418.88-836.09h5.25v7.24l-0.22,3.78c1.62-1.51,3.6-2.95,6.33-2.95c4.36,0,6.23,3.02,6.23,8.1v12.56h-5.29
		v-11.91c0-3.1-0.86-4.21-2.84-4.21c-1.66,0-2.7,0.79-4.21,2.27v13.86h-5.25V-836.09z"/>
	<path class="st1" d="M442.67-814.42v-8.93h-2.84v-3.92l3.1-0.25l0.61-5.4h4.43v5.4h4.97v4.18h-4.97v8.93c0,2.3,0.94,3.38,2.74,3.38
		c0.65,0,1.44-0.22,1.98-0.43l0.86,3.85c-1.08,0.36-2.48,0.76-4.25,0.76C444.51-806.87,442.67-809.89,442.67-814.42z"/>
</g>
<g>
	<path class="st1" d="M-898.13-925.31"/>
</g>
<g>
	<path class="st2" d="M1468.24,2632.37c34.99-4.39,60.01-9.89,75.08-16.49c27.02-11.43,40.53-29.24,40.53-53.43
		c0-29.45-10.37-49.8-31.09-61.01c-20.72-11.21-51.15-16.82-91.26-16.82c-45.02,0-76.89,11-95.61,32.98
		c-13.38,16.27-22.29,38.26-26.74,65.96h-181.38c3.97-62.88,21.63-114.54,52.99-155c49.9-63.32,135.57-94.98,257.03-94.98
		c79.05,0,149.26,15.61,210.65,46.83c61.38,31.23,92.07,90.15,92.07,176.77v329.79c0,22.87,0.43,50.57,1.32,83.11
		c1.32,24.63,5.05,41.34,11.21,50.13c6.15,8.8,15.39,16.06,27.7,21.77v27.7h-204.47c-5.72-14.51-9.68-28.14-11.87-40.89
		c-2.21-12.75-3.96-27.26-5.28-43.53c-26.09,28.15-56.18,52.11-90.23,71.89c-40.69,23.3-86.69,34.96-137.99,34.96
		c-65.46,0-119.53-18.58-162.2-55.73c-42.69-37.15-64.02-89.8-64.02-157.97c0-88.38,34.33-152.36,102.99-191.94
		c37.66-21.54,93.03-36.94,166.12-46.17L1468.24,2632.37z M1583.18,2720.09c-12.04,7.48-24.19,13.52-36.44,18.14
		c-12.26,4.62-29.08,8.9-50.48,12.86l-42.79,7.91c-40.11,7.04-68.91,15.61-86.4,25.72c-29.61,17.15-44.41,43.76-44.41,79.81
		c0,32.1,9.04,55.3,27.13,69.58c18.08,14.29,40.07,21.44,65.97,21.44c41.08,0,78.91-11.87,113.52-35.62
		c34.61-23.74,52.57-67.05,53.91-129.93V2720.09z"/>
</g>
<g>
	<path class="st2" d="M2768.08,2328.25c6.34,10.01,15.88,20.67,28.61,32.02c12.71,11.37,27.7,22.95,44.97,34.75
		c19.97,14.54,42.45,28.4,67.45,41.56c24.97,13.18,50.18,24.31,75.62,33.38c7.26,1.83,14.31,3.64,21.12,5.45
		c6.81,1.83,13.39,3.64,19.76,5.45v19.08h-17.71c-19.99-0.89-34.53,4.56-43.6,16.35c-9.09,11.82-13.63,25-13.63,39.51v298.41
		c0,25.44,3.41,43.84,10.22,55.19c6.81,11.37,17.48,17.03,32.02,17.03c7.26,0,15.44-1.36,24.53-4.09
		c9.07-2.73,19.08-6.81,29.98-12.26v19.08c-26.36,17.27-54.06,38.39-83.12,63.36c-29.08,25-62.23,50.65-99.47,76.99l-5.45-5.45
		c-0.92-0.92-2.28-1.83-4.09-2.73c-4.56-5.45-9.54-10.22-14.99-14.31c-5.45-4.09-10.9-8.39-16.35-12.94
		c-16.35-14.52-31.57-29.98-45.65-46.33c-14.09-16.35-21.59-34.51-22.48-54.5v-2.73c0-0.89,0.45-2.26,1.36-4.09v-5.45
		c-19.08,10.9-37.71,22.95-55.87,36.11c-18.18,13.18-35.9,27.04-53.14,41.56c-16.35,12.73-32.25,25-47.69,36.79
		c-15.46,11.82-30.89,23.16-46.33,34.07c-24.53-16.35-44.28-30.66-59.27-42.92c-14.99-12.26-27.04-24.29-36.11-36.11
		c-10.01-13.63-16.35-28.15-19.08-43.6c-2.73-15.44-4.09-34.96-4.09-58.59V2566.7c0-5.45,0.21-11.35,0.68-17.71
		c0.45-6.34,2.04-13.16,4.77-20.44c3.62-9.99,10.67-20.21,21.12-30.66c10.43-10.43,26.57-19.76,48.37-27.93
		c16.35-7.26,34.75-14.99,55.18-23.16c20.44-8.17,41.09-17.24,62-27.25c26.34-11.8,51.78-25.21,76.31-40.2
		c24.53-14.99,45.86-31.55,64.04-49.73V2328.25z M2629.09,2876.01c0,20.91,2.94,36.58,8.86,47.01c5.9,10.45,14.31,15.67,25.21,15.67
		c4.54,0,9.3-0.68,14.31-2.04c4.98-1.36,10.22-3.41,15.67-6.13l54.5-32.7v-365.17c-25.44-9.07-46.8-20.65-64.04-34.75
		c-17.27-14.07-33.62-28.83-49.05-44.29l-5.45-5.45V2876.01z"/>
</g>
</svg>
