<?xml version="1.0" encoding="utf-8"?>
<!-- Generator: Adobe Illustrator 25.2.3, SVG Export Plug-In . SVG Version: 6.00 Build 0)  -->
<svg version="1.1" id="Layer_1" xmlns="http://www.w3.org/2000/svg" xmlns:xlink="http://www.w3.org/1999/xlink" x="0px" y="0px"
	 viewBox="0 0 1080 1080" style="enable-background:new 0 0 1080 1080;" xml:space="preserve">
<style type="text/css">
	.st0{fill:#44C030;}
	.st1{fill:#FFFFFF;}
	.st2{fill:none;stroke:#44C030;stroke-miterlimit:10;}
	.st3{display:none;fill:none;stroke:#44C030;stroke-miterlimit:10;}
	.st4{fill:none;stroke:#44C030;stroke-width:3;stroke-miterlimit:10;}
</style>
<rect x="-8150" width="1920" height="1080"/>
<rect x="-7397.61" y="-878.62" class="st0" width="1190.81" height="294.2"/>
<g>
	<path class="st1" d="M-4143.91-1319.99"/>
</g>
<g>
	<line class="st2" x1="-4144" y1="635.54" x2="-2224" y2="635.54"/>
	<line class="st2" x1="-4144" y1="757.84" x2="-2224" y2="757.84"/>
	<line class="st2" x1="-4144" y1="452.1" x2="-2224" y2="452.1"/>
	<line class="st2" x1="-4144" y1="322.16" x2="-2224" y2="322.16"/>
	<line class="st2" x1="-4144" y1="352.73" x2="-2224" y2="352.73"/>
</g>
<path d="M-3127.83,545.12"/>
<path class="st1" d="M-2925.83,574.4v-91.72l-61.15-30.57l-91.72,61.15v91.72l30.57,30.57l61.15-22.93v23.04h61.15V574.4z
	 M-2986.98,604.97c-30.57,7.64-30.57-15.29-30.57-15.29V475.03l30.57,15.29V604.97z"/>
<path class="st0" d="M-2986.98,635.65v83.97c0,0,0,15.29-15.29,15.29s-15.29-15.29-15.29-15.29v-45.86h-61.15v22.93
	c0,0,0,61.15,61.15,61.15h30.57c61.15,0,61.15-61.15,61.15-61.15v-61.04H-2986.98z"/>
<path class="st1" d="M-3607.91,513.25v76.44c0,0,0,49.82,53.74,49.82c38.11,0,45.06-17.28,45.06-17.28s1.22,13.32,8.21,13.32
	c14.29,0,49.09,0,53.5,0v-7.67c-7.64,0-7.33-22.91-7.33-22.91l-0.31-122.3l-61.15-30.57L-3607.91,513.25 M-3516.18,597.33
	c0,0,0.31,15.29-14.98,15.29s-15.6-15.29-15.6-15.29v-122.3l30.57,15.29V597.33z"/>
<path class="st0" d="M-3273.07,452.39v-99.65l30.57,15.29v53.5l30.57,22.93l53.5-26.75v-1.59c-9.06,1.24-22.93-1.91-22.93-32.8
	v-22.93l-61.15-30.57l-114.65,76.44v2.34c9.06-2.33,22.93-2.55,22.93,18.05c0,0.98,0,10.71,0,25.48"/>
<path class="st1" d="M-3334.22,452.1c0,55.77,0,183.45,0,183.45h61.15V520.26c2.63-4.28,19.62-28.14,53.4,5.65l36.91-36.91
	l-37.17-36.91l-53.14,53.14v-52.85"/>
<path class="st1" d="M-2712.87,517.99l-23.46-47.98l-16.49-8.43l-18.55-9.48l-43.79,44.79c0,0,17.52-8.96,26.27,8.96l37.57,76.85
	c-5.15,2.82-11.15,5.08-17.15,5.08h-39.81v47.77h39.81l21.74-43.48l21.26,43.48h70.07l-54.74-111.96c6.04-4.13,14.3-8.42,22.57-8.42
	h39.81v-47.77h-39.81L-2712.87,517.99z"/>
<path class="st1" d="M779.19,734.07l-1.02-401.12L577.6,232.67L276.77,433.23v250.7c0,0,0,163.41,176.26,163.41
	c124.99,0,147.8-56.66,147.8-56.66s4.01,43.67,26.91,43.67c46.87,0,161,0,175.49,0v-25.15
	C778.16,809.19,779.19,734.07,779.19,734.07z M577.6,708.99c0,0,1.02,50.14-49.12,50.14c-50.14,0-51.16-50.14-51.16-50.14V307.88
	l100.28,50.14V708.99z"/>
<path class="st1" d="M779.19,734.07l-1.02-401.12L577.6,232.67L276.77,433.23v250.7c0,0,0,163.41,176.26,163.41
	c124.99,0,147.8-56.66,147.8-56.66s4.01,43.67,26.91,43.67c46.87,0,161,0,175.49,0v-25.15
	C778.16,809.19,779.19,734.07,779.19,734.07z M577.6,708.99c0,0,1.02,50.14-49.12,50.14c-50.14,0-51.16-50.14-51.16-50.14V307.88
	l100.28,50.14V708.99z"/>
<line class="st3" x1="-478.2" y1="936.54" x2="1332.57" y2="-270.64"/>
<line class="st3" x1="-402.98" y1="1011.75" x2="1407.78" y2="-195.43"/>
<line class="st3" x1="276.77" y1="-28.68" x2="276.77" y2="1145.83"/>
<line class="st3" x1="477.32" y1="-28.68" x2="477.32" y2="1145.83"/>
<line class="st3" x1="577.61" y1="-28.68" x2="577.61" y2="1145.83"/>
<line class="st3" x1="778.17" y1="-28.68" x2="778.17" y2="1145.83"/>
<line class="st3" x1="-479.76" y1="834.34" x2="1910.74" y2="834.34"/>
<line class="st3" x1="-479.76" y1="232.67" x2="1910.74" y2="232.67"/>
<line class="st3" x1="-289.79" y1="-201.03" x2="1645.55" y2="766.65"/>
<line class="st3" x1="-289.11" y1="-75.37" x2="1646.23" y2="892.31"/>
<rect x="-3516.18" y="490.23" class="st0" width="61.3" height="107.41"/>
<circle class="st4" cx="-3002.27" cy="465.88" r="42.04"/>
<g>
	<path class="st1" d="M-3835.39-93.31c0-4.32,3.49-6.59,11.59-7.45c-0.07-1.98-0.94-3.49-3.42-3.49c-1.87,0-3.67,0.83-5.54,1.91
		l-1.91-3.49c2.38-1.48,5.25-2.66,8.42-2.66c5.11,0,7.74,3.06,7.74,8.89v11.77h-4.32l-0.4-2.16h-0.11
		c-1.76,1.51-3.78,2.66-6.08,2.66C-3833.01-87.33-3835.39-89.89-3835.39-93.31z M-3823.8-93.45v-4.07c-4.9,0.65-6.55,1.98-6.55,3.78
		c0,1.58,1.12,2.27,2.66,2.27C-3826.17-91.47-3825.06-92.19-3823.8-93.45z"/>
	<path class="st1" d="M-3815.01-90.17l2.41-3.31c1.8,1.4,3.53,2.2,5.4,2.2c2.02,0,2.92-0.86,2.92-2.12c0-1.51-2.09-2.2-4.21-3.02
		c-2.56-0.97-5.51-2.52-5.51-5.87c0-3.64,2.95-6.19,7.49-6.19c2.95,0,5.18,1.22,6.88,2.48l-2.38,3.2c-1.44-1.01-2.84-1.73-4.36-1.73
		c-1.8,0-2.66,0.79-2.66,1.94c0,1.48,1.98,2.02,4.1,2.81c2.66,1.01,5.62,2.34,5.62,6.08c0,3.53-2.77,6.37-8.03,6.37
		C-3810.05-87.33-3813.03-88.52-3815.01-90.17z"/>
	<path class="st1" d="M-3796.55-97.88c0-6.73,4.82-10.62,10.29-10.62c2.48,0,4.39,0.97,5.87,2.23l-2.52,3.42
		c-1.01-0.86-1.94-1.33-3.1-1.33c-3.06,0-5.15,2.48-5.15,6.3c0,3.78,2.09,6.23,5,6.23c1.44,0,2.81-0.68,3.92-1.62l2.09,3.49
		c-1.91,1.69-4.36,2.45-6.59,2.45C-3792.3-87.33-3796.55-91.22-3796.55-97.88z"/>
	<path class="st1" d="M-3778.65-97.88c0-6.55,4.57-10.62,9.39-10.62c5.54,0,8.42,4.07,8.42,9.65c0,0.97-0.11,1.94-0.25,2.41h-12.42
		c0.43,3.31,2.59,5.04,5.58,5.04c1.66,0,3.1-0.5,4.54-1.4l1.8,3.24c-1.98,1.37-4.54,2.23-7.05,2.23
		C-3774.26-87.33-3778.65-91.25-3778.65-97.88z M-3765.37-99.93c0-2.74-1.22-4.46-3.82-4.46c-2.12,0-4,1.51-4.39,4.46H-3765.37z"/>
	<path class="st1" d="M-3756.48-107.99h4.32l0.36,2.66h0.14c1.76-1.73,3.82-3.17,6.55-3.17c4.36,0,6.23,3.02,6.23,8.1v12.56h-5.29
		v-11.91c0-3.1-0.86-4.21-2.84-4.21c-1.66,0-2.7,0.79-4.21,2.27v13.86h-5.25V-107.99z"/>
	<path class="st1" d="M-3734.56-97.88c0-6.59,4.1-10.62,8.46-10.62c2.27,0,3.67,0.86,5.11,2.2l-0.22-3.17v-7.09h5.29v28.72h-4.28
		l-0.43-2.09h-0.11c-1.48,1.44-3.49,2.59-5.58,2.59C-3731.32-87.33-3734.56-91.29-3734.56-97.88z M-3721.2-93.77v-8.85
		c-1.22-1.12-2.48-1.51-3.74-1.51c-2.27,0-4.18,2.16-4.18,6.19c0,4.18,1.51,6.26,4.18,6.26
		C-3723.54-91.69-3722.35-92.26-3721.2-93.77z"/>
	<path class="st1" d="M-3711.48-97.88c0-6.55,4.57-10.62,9.39-10.62c5.54,0,8.42,4.07,8.42,9.65c0,0.97-0.11,1.94-0.25,2.41h-12.42
		c0.43,3.31,2.59,5.04,5.58,5.04c1.66,0,3.1-0.5,4.54-1.4l1.8,3.24c-1.98,1.37-4.54,2.23-7.05,2.23
		C-3707.09-87.33-3711.48-91.25-3711.48-97.88z M-3698.2-99.93c0-2.74-1.22-4.46-3.82-4.46c-2.12,0-4,1.51-4.39,4.46H-3698.2z"/>
	<path class="st1" d="M-3689.3-107.99h4.32l0.36,3.56h0.14c1.48-2.63,3.64-4.07,5.72-4.07c1.12,0,1.76,0.18,2.38,0.43l-0.94,4.57
		c-0.68-0.22-1.26-0.32-2.09-0.32c-1.58,0-3.49,1.04-4.64,3.96v12.02h-5.25V-107.99z"/>
</g>
<g>
	<path class="st1" d="M-3835.39-207.37c0-4.32,3.49-6.59,11.59-7.45c-0.07-1.98-0.94-3.49-3.42-3.49c-1.87,0-3.67,0.83-5.54,1.91
		l-1.91-3.49c2.38-1.48,5.25-2.66,8.42-2.66c5.11,0,7.74,3.06,7.74,8.89v11.77h-4.32l-0.4-2.16h-0.11
		c-1.76,1.51-3.78,2.66-6.08,2.66C-3833.01-201.39-3835.39-203.95-3835.39-207.37z M-3823.8-207.51v-4.07
		c-4.9,0.65-6.55,1.98-6.55,3.78c0,1.58,1.12,2.27,2.66,2.27C-3826.17-205.53-3825.06-206.25-3823.8-207.51z"/>
	<path class="st1" d="M-3813.11-222.05h4.32l0.36,2.09h0.14c1.69-1.44,3.78-2.59,5.94-2.59c4.97,0,7.92,4.07,7.92,10.26
		c0,6.91-4.14,10.91-8.57,10.91c-1.76,0-3.46-0.79-5-2.2l0.14,3.31v6.12h-5.25V-222.05z M-3799.86-212.23c0-3.85-1.22-5.98-4-5.98
		c-1.37,0-2.59,0.68-4,2.09v8.86c1.3,1.12,2.59,1.51,3.67,1.51C-3801.73-205.75-3799.86-207.83-3799.86-212.23z"/>
	<path class="st1" d="M-3791.18-211.94c0-6.55,4.57-10.62,9.39-10.62c5.54,0,8.42,4.07,8.42,9.65c0,0.97-0.11,1.94-0.25,2.41h-12.42
		c0.43,3.31,2.59,5.04,5.58,5.04c1.66,0,3.1-0.5,4.54-1.4l1.8,3.24c-1.98,1.37-4.54,2.23-7.05,2.23
		C-3786.79-201.39-3791.18-205.31-3791.18-211.94z M-3777.9-213.99c0-2.74-1.22-4.46-3.82-4.46c-2.12,0-4,1.51-4.39,4.46H-3777.9z"
		/>
	<path class="st1" d="M-3765.55-212.4l-5.9-9.65h5.69l2.02,3.6c0.58,1.12,1.19,2.27,1.8,3.38h0.14c0.47-1.12,1.01-2.27,1.48-3.38
		l1.69-3.6h5.47l-5.9,10.26l6.3,9.9h-5.69l-2.23-3.67c-0.65-1.19-1.3-2.41-1.94-3.56h-0.18c-0.58,1.15-1.12,2.34-1.69,3.56
		l-1.87,3.67h-5.47L-3765.55-212.4z"/>
</g>
<g>
	<path class="st1" d="M-3836.29-276.95l2.41-3.31c1.8,1.4,3.53,2.2,5.4,2.2c2.02,0,2.92-0.86,2.92-2.12c0-1.51-2.09-2.2-4.21-3.02
		c-2.56-0.97-5.51-2.52-5.51-5.87c0-3.64,2.95-6.19,7.49-6.19c2.95,0,5.18,1.22,6.88,2.48l-2.38,3.2c-1.44-1.01-2.84-1.73-4.36-1.73
		c-1.8,0-2.66,0.79-2.66,1.94c0,1.48,1.98,2.02,4.1,2.81c2.66,1.01,5.62,2.34,5.62,6.08c0,3.53-2.77,6.37-8.03,6.37
		C-3831.32-274.1-3834.31-275.29-3836.29-276.95z"/>
	<path class="st1" d="M-3816.63-281.66v-8.93h-2.84v-3.92l3.1-0.25l0.61-5.4h4.43v5.4h4.97v4.17h-4.97v8.93
		c0,2.3,0.94,3.38,2.74,3.38c0.65,0,1.44-0.22,1.98-0.43l0.86,3.85c-1.08,0.36-2.48,0.76-4.25,0.76
		C-3814.8-274.1-3816.63-277.13-3816.63-281.66z"/>
	<path class="st1" d="M-3804.21-284.65c0-6.55,4.57-10.62,9.39-10.62c5.54,0,8.42,4.07,8.42,9.65c0,0.97-0.11,1.94-0.25,2.41h-12.42
		c0.43,3.31,2.59,5.04,5.58,5.04c1.66,0,3.1-0.5,4.54-1.4l1.8,3.24c-1.98,1.37-4.54,2.23-7.05,2.23
		C-3799.82-274.1-3804.21-278.03-3804.21-284.65z M-3790.93-286.7c0-2.74-1.22-4.46-3.82-4.46c-2.12,0-4,1.51-4.39,4.46H-3790.93z"
		/>
	<path class="st1" d="M-3782.04-294.76h4.32l0.36,2.7h0.14c1.69-1.76,3.56-3.2,6.19-3.2c2.88,0,4.57,1.3,5.54,3.53
		c1.84-1.94,3.78-3.53,6.41-3.53c4.28,0,6.26,3.02,6.26,8.1v12.56h-5.29v-11.92c0-3.1-0.9-4.21-2.81-4.21
		c-1.15,0-2.45,0.76-3.89,2.27v13.86h-5.29v-11.92c0-3.1-0.9-4.21-2.81-4.21c-1.15,0-2.45,0.76-3.89,2.27v13.86h-5.25V-294.76z"/>
</g>
<g>
	<path class="st1" d="M-3835.64-373.05c0-6.73,4.82-10.62,10.29-10.62c2.48,0,4.39,0.97,5.87,2.23l-2.52,3.42
		c-1.01-0.86-1.94-1.33-3.1-1.33c-3.06,0-5.15,2.48-5.15,6.3c0,3.78,2.09,6.23,5,6.23c1.44,0,2.81-0.68,3.92-1.62l2.09,3.49
		c-1.91,1.69-4.36,2.45-6.59,2.45C-3831.39-362.5-3835.64-366.39-3835.64-373.05z"/>
	<path class="st1" d="M-3816.85-368.47c0-4.32,3.49-6.59,11.59-7.45c-0.07-1.98-0.94-3.49-3.42-3.49c-1.87,0-3.67,0.83-5.54,1.91
		l-1.91-3.49c2.38-1.48,5.25-2.66,8.42-2.66c5.11,0,7.74,3.06,7.74,8.89V-363h-4.32l-0.4-2.16h-0.11c-1.76,1.51-3.78,2.66-6.08,2.66
		C-3814.47-362.5-3816.85-365.06-3816.85-368.47z M-3805.26-368.62v-4.07c-4.9,0.65-6.55,1.98-6.55,3.78c0,1.58,1.12,2.27,2.66,2.27
		C-3807.63-366.64-3806.52-367.36-3805.26-368.62z"/>
	<path class="st1" d="M-3794.57-383.16h4.32l0.36,2.09h0.14c1.69-1.44,3.78-2.59,5.94-2.59c4.97,0,7.92,4.07,7.92,10.26
		c0,6.91-4.14,10.91-8.57,10.91c-1.76,0-3.46-0.79-5-2.2l0.14,3.31v6.12h-5.25V-383.16z M-3781.32-373.33c0-3.85-1.22-5.98-4-5.98
		c-1.37,0-2.59,0.68-4,2.09v8.85c1.3,1.12,2.59,1.51,3.67,1.51C-3783.19-366.85-3781.32-368.94-3781.32-373.33z"/>
	<path class="st1" d="M-3763.21-391.73h5.25v7.24l-0.22,3.78c1.62-1.51,3.6-2.95,6.33-2.95c4.36,0,6.23,3.02,6.23,8.1V-363h-5.29
		v-11.91c0-3.1-0.86-4.21-2.84-4.21c-1.66,0-2.7,0.79-4.21,2.27V-363h-5.25V-391.73z"/>
	<path class="st1" d="M-3741.43-373.05c0-6.55,4.57-10.62,9.39-10.62c5.54,0,8.42,4.07,8.42,9.65c0,0.97-0.11,1.94-0.25,2.41h-12.42
		c0.43,3.31,2.59,5.04,5.58,5.04c1.66,0,3.1-0.5,4.54-1.4l1.8,3.24c-1.98,1.37-4.54,2.23-7.05,2.23
		C-3737.04-362.5-3741.43-366.42-3741.43-373.05z M-3728.15-375.1c0-2.74-1.22-4.46-3.82-4.46c-2.12,0-4,1.51-4.39,4.46H-3728.15z"
		/>
	<path class="st1" d="M-3719.76-389.28c0-1.73,1.33-2.88,3.17-2.88c1.8,0,3.13,1.15,3.13,2.88c0,1.66-1.33,2.88-3.13,2.88
		C-3718.43-386.4-3719.76-387.62-3719.76-389.28z M-3719.25-383.16h5.25V-363h-5.25V-383.16z"/>
	<path class="st1" d="M-3709.64-359.44c0-1.69,1.04-3.13,2.88-4.18v-0.18c-1.04-0.68-1.84-1.73-1.84-3.38
		c0-1.51,1.04-2.92,2.23-3.78v-0.14c-1.37-1.01-2.66-2.92-2.66-5.26c0-4.75,3.85-7.31,8.13-7.31c1.12,0,2.2,0.22,3.02,0.5h7.27v3.89
		h-3.46c0.54,0.68,0.94,1.8,0.94,3.06c0,4.54-3.46,6.84-7.78,6.84c-0.79,0-1.73-0.18-2.59-0.47c-0.58,0.47-0.86,0.94-0.86,1.73
		c0,1.08,0.79,1.66,3.17,1.66h3.42c4.86,0,7.49,1.51,7.49,5.04c0,4.07-4.21,7.16-10.94,7.16
		C-3705.97-354.26-3709.64-355.88-3709.64-359.44z M-3695.32-360.52c0-1.44-1.19-1.8-3.35-1.8h-2.45c-1.22,0-2.09-0.11-2.81-0.29
		c-0.9,0.72-1.33,1.51-1.33,2.34c0,1.69,1.87,2.66,4.82,2.66C-3697.4-357.6-3695.32-358.94-3695.32-360.52z M-3697.76-376.36
		c0-2.38-1.33-3.71-3.13-3.71s-3.17,1.33-3.17,3.71c0,2.38,1.4,3.71,3.17,3.71S-3697.76-373.98-3697.76-376.36z"/>
	<path class="st1" d="M-3686.82-391.73h5.25v7.24l-0.22,3.78c1.62-1.51,3.6-2.95,6.33-2.95c4.36,0,6.23,3.02,6.23,8.1V-363h-5.29
		v-11.91c0-3.1-0.86-4.21-2.84-4.21c-1.66,0-2.7,0.79-4.21,2.27V-363h-5.25V-391.73z"/>
	<path class="st1" d="M-3663.02-370.06v-8.93h-2.84v-3.92l3.1-0.25l0.61-5.4h4.43v5.4h4.97v4.18h-4.97v8.93
		c0,2.3,0.94,3.38,2.74,3.38c0.65,0,1.44-0.22,1.98-0.43l0.86,3.85c-1.08,0.36-2.48,0.76-4.25,0.76
		C-3661.19-362.5-3663.02-365.52-3663.02-370.06z"/>
</g>
<g>
	<path class="st1" d="M-3834.38-490.09h4.32l0.36,2.09h0.14c1.69-1.44,3.78-2.59,5.94-2.59c4.97,0,7.92,4.07,7.92,10.26
		c0,6.91-4.14,10.91-8.57,10.91c-1.76,0-3.46-0.79-5-2.2l0.14,3.31v6.12h-5.25V-490.09z M-3821.13-480.26c0-3.85-1.22-5.98-4-5.98
		c-1.37,0-2.59,0.68-4,2.09v8.85c1.3,1.12,2.59,1.51,3.67,1.51C-3823.01-473.79-3821.13-475.87-3821.13-480.26z"/>
	<path class="st1" d="M-3812.46-479.98c0-6.73,4.64-10.62,9.68-10.62s9.68,3.89,9.68,10.62c0,6.66-4.64,10.55-9.68,10.55
		S-3812.46-473.32-3812.46-479.98z M-3798.49-479.98c0-3.82-1.55-6.3-4.28-6.3s-4.28,2.48-4.28,6.3c0,3.78,1.55,6.23,4.28,6.23
		S-3798.49-476.2-3798.49-479.98z"/>
	<path class="st1" d="M-3789.17-496.21c0-1.73,1.33-2.88,3.17-2.88c1.8,0,3.13,1.15,3.13,2.88c0,1.66-1.33,2.88-3.13,2.88
		C-3787.83-493.33-3789.17-494.56-3789.17-496.21z M-3788.66-490.09h5.25v20.16h-5.25V-490.09z"/>
	<path class="st1" d="M-3777.72-490.09h4.32l0.36,2.66h0.14c1.76-1.73,3.82-3.17,6.55-3.17c4.36,0,6.23,3.02,6.23,8.1v12.56h-5.29
		v-11.91c0-3.1-0.86-4.21-2.84-4.21c-1.66,0-2.7,0.79-4.21,2.27v13.86h-5.25V-490.09z"/>
	<path class="st1" d="M-3753.89-476.99v-8.93h-2.84v-3.92l3.1-0.25l0.61-5.4h4.43v5.4h4.97v4.18h-4.97v8.93
		c0,2.3,0.94,3.38,2.74,3.38c0.65,0,1.44-0.22,1.98-0.43l0.86,3.85c-1.08,0.36-2.48,0.76-4.25,0.76
		C-3752.05-469.43-3753.89-472.45-3753.89-476.99z"/>
	<path class="st1" d="M-3733.26-472.27l2.41-3.31c1.8,1.4,3.53,2.2,5.4,2.2c2.02,0,2.92-0.86,2.92-2.12c0-1.51-2.09-2.2-4.21-3.02
		c-2.56-0.97-5.51-2.52-5.51-5.87c0-3.64,2.95-6.19,7.49-6.19c2.95,0,5.18,1.22,6.88,2.48l-2.38,3.2c-1.44-1.01-2.84-1.73-4.36-1.73
		c-1.8,0-2.66,0.79-2.66,1.94c0,1.48,1.98,2.02,4.1,2.81c2.66,1.01,5.62,2.34,5.62,6.08c0,3.53-2.77,6.37-8.03,6.37
		C-3728.29-469.43-3731.28-470.62-3733.26-472.27z"/>
	<path class="st1" d="M-3714.03-496.21c0-1.73,1.33-2.88,3.17-2.88c1.8,0,3.13,1.15,3.13,2.88c0,1.66-1.33,2.88-3.13,2.88
		C-3712.7-493.33-3714.03-494.56-3714.03-496.21z M-3713.53-490.09h5.25v20.16h-5.25V-490.09z"/>
	<path class="st1" d="M-3703.96-472.78l9-13.14h-7.99v-4.18h14.61v2.84l-9.04,13.14h9.32v4.18h-15.91V-472.78z"/>
	<path class="st1" d="M-3685.88-479.98c0-6.55,4.57-10.62,9.39-10.62c5.54,0,8.42,4.07,8.42,9.65c0,0.97-0.11,1.94-0.25,2.41h-12.42
		c0.43,3.31,2.59,5.04,5.58,5.04c1.66,0,3.1-0.5,4.54-1.4l1.8,3.24c-1.98,1.37-4.54,2.23-7.05,2.23
		C-3681.49-469.43-3685.88-473.35-3685.88-479.98z M-3672.6-482.03c0-2.74-1.22-4.46-3.82-4.46c-2.12,0-4,1.51-4.39,4.46H-3672.6z"
		/>
</g>
<g>
	<path class="st1" d="M-3835.53-599.74c0-6.59,4.1-10.62,8.46-10.62c2.27,0,3.67,0.86,5.11,2.2l-0.22-3.17v-7.09h5.29v28.72h-4.28
		l-0.43-2.09h-0.11c-1.48,1.44-3.49,2.59-5.58,2.59C-3832.29-589.19-3835.53-593.15-3835.53-599.74z M-3822.18-595.64v-8.85
		c-1.22-1.12-2.48-1.51-3.74-1.51c-2.27,0-4.18,2.16-4.18,6.19c0,4.18,1.51,6.26,4.18,6.26
		C-3824.52-593.55-3823.33-594.12-3822.18-595.64z"/>
	<path class="st1" d="M-3812.46-599.74c0-6.55,4.57-10.62,9.39-10.62c5.54,0,8.42,4.07,8.42,9.65c0,0.97-0.11,1.94-0.25,2.41h-12.42
		c0.43,3.31,2.59,5.04,5.58,5.04c1.66,0,3.1-0.5,4.54-1.4l1.8,3.24c-1.98,1.37-4.54,2.23-7.05,2.23
		C-3808.07-589.19-3812.46-593.12-3812.46-599.74z M-3799.17-601.79c0-2.74-1.22-4.46-3.82-4.46c-2.12,0-4,1.51-4.39,4.46H-3799.17z
		"/>
	<path class="st1" d="M-3792.19-592.04l2.41-3.31c1.8,1.4,3.53,2.2,5.4,2.2c2.02,0,2.92-0.86,2.92-2.12c0-1.51-2.09-2.2-4.21-3.02
		c-2.56-0.97-5.51-2.52-5.51-5.87c0-3.64,2.95-6.19,7.49-6.19c2.95,0,5.18,1.22,6.88,2.48l-2.38,3.2c-1.44-1.01-2.84-1.73-4.36-1.73
		c-1.8,0-2.66,0.79-2.66,1.94c0,1.48,1.98,2.02,4.1,2.81c2.66,1.01,5.62,2.34,5.62,6.08c0,3.53-2.77,6.37-8.03,6.37
		C-3787.22-589.19-3790.21-590.38-3792.19-592.04z"/>
	<path class="st1" d="M-3773.72-599.74c0-6.73,4.82-10.62,10.29-10.62c2.48,0,4.39,0.97,5.87,2.23l-2.52,3.42
		c-1.01-0.86-1.94-1.33-3.1-1.33c-3.06,0-5.15,2.48-5.15,6.3c0,3.78,2.09,6.23,5,6.23c1.44,0,2.81-0.68,3.92-1.62l2.09,3.49
		c-1.91,1.69-4.36,2.45-6.59,2.45C-3769.47-589.19-3773.72-593.08-3773.72-599.74z"/>
	<path class="st1" d="M-3755.83-599.74c0-6.55,4.57-10.62,9.39-10.62c5.54,0,8.42,4.07,8.42,9.65c0,0.97-0.11,1.94-0.25,2.41h-12.42
		c0.43,3.31,2.59,5.04,5.58,5.04c1.66,0,3.1-0.5,4.54-1.4l1.8,3.24c-1.98,1.37-4.54,2.23-7.05,2.23
		C-3751.44-589.19-3755.83-593.12-3755.83-599.74z M-3742.55-601.79c0-2.74-1.22-4.46-3.82-4.46c-2.12,0-4,1.51-4.39,4.46H-3742.55z
		"/>
	<path class="st1" d="M-3733.65-609.85h4.32l0.36,2.66h0.14c1.76-1.73,3.82-3.17,6.55-3.17c4.36,0,6.23,3.02,6.23,8.1v12.56h-5.29
		v-11.91c0-3.1-0.86-4.21-2.84-4.21c-1.66,0-2.7,0.79-4.21,2.27v13.86h-5.25V-609.85z"/>
	<path class="st1" d="M-3711.73-599.74c0-6.59,4.1-10.62,8.46-10.62c2.27,0,3.67,0.86,5.11,2.2l-0.22-3.17v-7.09h5.29v28.72h-4.28
		l-0.43-2.09h-0.11c-1.48,1.44-3.49,2.59-5.58,2.59C-3708.49-589.19-3711.73-593.15-3711.73-599.74z M-3698.38-595.64v-8.85
		c-1.22-1.12-2.48-1.51-3.74-1.51c-2.27,0-4.18,2.16-4.18,6.19c0,4.18,1.51,6.26,4.18,6.26
		C-3700.72-593.55-3699.53-594.12-3698.38-595.64z"/>
	<path class="st1" d="M-3688.66-599.74c0-6.55,4.57-10.62,9.39-10.62c5.54,0,8.42,4.07,8.42,9.65c0,0.97-0.11,1.94-0.25,2.41h-12.42
		c0.43,3.31,2.59,5.04,5.58,5.04c1.66,0,3.1-0.5,4.54-1.4l1.8,3.24c-1.98,1.37-4.54,2.23-7.05,2.23
		C-3684.26-589.19-3688.66-593.12-3688.66-599.74z M-3675.37-601.79c0-2.74-1.22-4.46-3.82-4.46c-2.12,0-4,1.51-4.39,4.46H-3675.37z
		"/>
	<path class="st1" d="M-3666.48-609.85h4.32l0.36,3.56h0.14c1.48-2.63,3.64-4.07,5.72-4.07c1.12,0,1.76,0.18,2.38,0.43l-0.94,4.57
		c-0.68-0.22-1.26-0.32-2.09-0.32c-1.58,0-3.49,1.04-4.64,3.96v12.02h-5.25V-609.85z"/>
</g>
<g>
	<path class="st1" d="M-3830.35-688.6l-5.9-9.65h5.69l2.02,3.6c0.58,1.12,1.19,2.27,1.8,3.38h0.14c0.47-1.12,1.01-2.27,1.48-3.38
		l1.69-3.6h5.47l-5.9,10.26l6.3,9.9h-5.69l-2.23-3.67c-0.65-1.19-1.3-2.41-1.94-3.56h-0.18c-0.58,1.15-1.12,2.34-1.69,3.56
		l-1.87,3.67h-5.47L-3830.35-688.6z"/>
	<path class="st1" d="M-3815.91-690.29h9.83v3.78h-9.83V-690.29z"/>
	<path class="st1" d="M-3801.51-706.82h5.25v7.24l-0.22,3.78c1.62-1.51,3.6-2.95,6.33-2.95c4.36,0,6.23,3.02,6.23,8.1v12.56h-5.29
		v-11.91c0-3.1-0.86-4.21-2.84-4.21c-1.66,0-2.7,0.79-4.21,2.27v13.86h-5.25V-706.82z"/>
	<path class="st1" d="M-3779.73-688.14c0-6.55,4.57-10.62,9.39-10.62c5.54,0,8.42,4.07,8.42,9.65c0,0.97-0.11,1.94-0.25,2.41h-12.42
		c0.43,3.31,2.59,5.04,5.58,5.04c1.66,0,3.1-0.5,4.54-1.4l1.8,3.24c-1.98,1.37-4.54,2.23-7.05,2.23
		C-3775.34-677.59-3779.73-681.51-3779.73-688.14z M-3766.45-690.19c0-2.74-1.22-4.46-3.82-4.46c-2.12,0-4,1.51-4.39,4.46H-3766.45z
		"/>
	<path class="st1" d="M-3758.06-704.37c0-1.73,1.33-2.88,3.17-2.88c1.8,0,3.13,1.15,3.13,2.88c0,1.66-1.33,2.88-3.13,2.88
		C-3756.73-701.49-3758.06-702.71-3758.06-704.37z M-3757.56-698.25h5.25v20.16h-5.25V-698.25z"/>
	<path class="st1" d="M-3747.95-674.53c0-1.69,1.04-3.13,2.88-4.18v-0.18c-1.04-0.68-1.84-1.73-1.84-3.38
		c0-1.51,1.04-2.92,2.23-3.78v-0.14c-1.37-1.01-2.66-2.92-2.66-5.26c0-4.75,3.85-7.31,8.13-7.31c1.12,0,2.2,0.22,3.02,0.5h7.27v3.89
		h-3.46c0.54,0.68,0.94,1.8,0.94,3.06c0,4.54-3.46,6.84-7.78,6.84c-0.79,0-1.73-0.18-2.59-0.47c-0.58,0.47-0.86,0.94-0.86,1.73
		c0,1.08,0.79,1.66,3.17,1.66h3.42c4.86,0,7.49,1.51,7.49,5.04c0,4.07-4.21,7.16-10.94,7.16
		C-3744.27-669.35-3747.95-670.97-3747.95-674.53z M-3733.62-675.61c0-1.44-1.19-1.8-3.35-1.8h-2.45c-1.22,0-2.09-0.11-2.81-0.29
		c-0.9,0.72-1.33,1.51-1.33,2.34c0,1.69,1.87,2.66,4.82,2.66C-3735.71-672.69-3733.62-674.02-3733.62-675.61z M-3736.07-691.45
		c0-2.38-1.33-3.71-3.13-3.71s-3.17,1.33-3.17,3.71c0,2.38,1.4,3.71,3.17,3.71S-3736.07-689.07-3736.07-691.45z"/>
	<path class="st1" d="M-3725.12-706.82h5.25v7.24l-0.22,3.78c1.62-1.51,3.6-2.95,6.33-2.95c4.36,0,6.23,3.02,6.23,8.1v12.56h-5.29
		v-11.91c0-3.1-0.86-4.21-2.84-4.21c-1.66,0-2.7,0.79-4.21,2.27v13.86h-5.25V-706.82z"/>
	<path class="st1" d="M-3701.33-685.15v-8.93h-2.84V-698l3.1-0.25l0.61-5.4h4.43v5.4h4.97v4.18h-4.97v8.93
		c0,2.3,0.94,3.38,2.74,3.38c0.65,0,1.44-0.22,1.98-0.43l0.86,3.85c-1.08,0.36-2.48,0.76-4.25,0.76
		C-3699.49-677.59-3701.33-680.61-3701.33-685.15z"/>
</g>
<g>
	<path class="st1" d="M-5042.13-796.03"/>
</g>
<g>
	<path class="st1" d="M-3351.5,249.17c0-4.25,3.71-6.33,12.06-7.27c0.04-2.63-0.79-5.22-4.14-5.22c-2.34,0-4.43,1.12-5.9,2.16
		l-1.19-2.05c1.69-1.12,4.43-2.56,7.56-2.56c4.71,0,6.59,3.2,6.59,7.88v12.06h-2.41l-0.25-2.38h-0.11c-1.87,1.58-4.1,2.84-6.55,2.84
		C-3349.05,254.64-3351.5,252.7-3351.5,249.17z M-3339.44,249.56v-5.69c-6.88,0.79-9.21,2.45-9.21,5.11c0,2.34,1.62,3.28,3.6,3.28
		C-3343.08,252.26-3341.42,251.33-3339.44,249.56z"/>
	<path class="st1" d="M-3332.39,251.97l1.48-1.98c1.69,1.4,3.42,2.34,5.87,2.34c2.7,0,4.03-1.44,4.03-3.24
		c0-2.09-2.34-3.02-4.54-3.82c-2.77-1.01-5.87-2.3-5.87-5.62c0-3.02,2.41-5.43,6.59-5.43c2.3,0,4.43,0.97,5.9,2.16l-1.4,1.91
		c-1.33-0.97-2.74-1.73-4.5-1.73c-2.59,0-3.78,1.37-3.78,2.95c0,1.94,2.16,2.7,4.39,3.49c2.84,1.12,6.01,2.23,6.01,5.94
		c0,3.1-2.45,5.69-6.95,5.69C-3327.92,254.64-3330.55,253.49-3332.39,251.97z"/>
	<path class="st1" d="M-3314.96,244.49c0-6.52,4.32-10.26,9.25-10.26c2.56,0,4.32,1.08,5.69,2.34l-1.55,1.94
		c-1.15-1.08-2.41-1.8-4.03-1.8c-3.64,0-6.33,3.13-6.33,7.78c0,4.61,2.52,7.7,6.26,7.7c1.84,0,3.49-0.9,4.72-1.98l1.3,1.94
		c-1.73,1.55-3.89,2.48-6.26,2.48C-3311.04,254.64-3314.96,250.9-3314.96,244.49z"/>
	<path class="st1" d="M-3297.57,244.49c0-6.34,4.21-10.26,8.67-10.26c4.86,0,7.67,3.49,7.67,9.11c0,0.65-0.04,1.3-0.14,1.76h-13.28
		c0.18,4.32,2.77,7.2,6.66,7.2c1.91,0,3.49-0.61,4.93-1.58l1.08,1.94c-1.69,1.08-3.67,1.98-6.37,1.98
		C-3293.47,254.64-3297.57,250.86-3297.57,244.49z M-3283.82,242.98c0-4.17-1.87-6.37-5.04-6.37c-2.88,0-5.44,2.34-5.83,6.37
		H-3283.82z"/>
	<path class="st1" d="M-3276.3,234.73h2.38l0.29,2.84h0.11c1.87-1.84,3.89-3.35,6.55-3.35c4.07,0,5.94,2.63,5.94,7.59v12.35h-2.95
		v-11.99c0-3.74-1.15-5.4-3.85-5.4c-2.05,0-3.53,1.08-5.54,3.17v14.22h-2.92V234.73z"/>
	<path class="st1" d="M-3256,244.49c0-6.3,4-10.26,8.46-10.26c2.3,0,3.82,0.86,5.58,2.3l-0.14-3.38v-7.63h2.92v28.65h-2.41
		l-0.29-2.34h-0.07c-1.55,1.55-3.64,2.81-6.01,2.81C-3252.86,254.64-3256,250.97-3256,244.49z M-3242.1,249.38v-10.51
		c-1.76-1.55-3.28-2.16-4.97-2.16c-3.31,0-5.87,3.2-5.87,7.74c0,4.79,2.02,7.7,5.58,7.7
		C-3245.48,252.16-3243.83,251.22-3242.1,249.38z"/>
	<path class="st1" d="M-3233.89,244.49c0-6.34,4.21-10.26,8.67-10.26c4.86,0,7.67,3.49,7.67,9.11c0,0.65-0.04,1.3-0.14,1.76h-13.28
		c0.18,4.32,2.77,7.2,6.66,7.2c1.91,0,3.49-0.61,4.93-1.58l1.08,1.94c-1.69,1.08-3.67,1.98-6.37,1.98
		C-3229.79,254.64-3233.89,250.86-3233.89,244.49z M-3220.14,242.98c0-4.17-1.87-6.37-5.04-6.37c-2.88,0-5.44,2.34-5.83,6.37
		H-3220.14z"/>
	<path class="st1" d="M-3212.62,234.73h2.38l0.29,3.56h0.11c1.33-2.45,3.31-4.07,5.51-4.07c0.83,0,1.4,0.11,2.05,0.43l-0.58,2.56
		c-0.65-0.22-1.08-0.32-1.84-0.32c-1.66,0-3.67,1.22-5,4.61v12.67h-2.92V234.73z"/>
</g>
<g>
	<path class="st1" d="M-3042.98,249.88c0-4.25,3.71-6.33,12.06-7.27c0.04-2.63-0.79-5.22-4.14-5.22c-2.34,0-4.43,1.12-5.9,2.16
		l-1.19-2.05c1.69-1.12,4.43-2.56,7.56-2.56c4.71,0,6.59,3.2,6.59,7.88v12.06h-2.41l-0.25-2.38h-0.11c-1.87,1.58-4.1,2.84-6.55,2.84
		C-3040.53,255.35-3042.98,253.41-3042.98,249.88z M-3030.92,250.28v-5.69c-6.88,0.79-9.21,2.45-9.21,5.11
		c0,2.34,1.62,3.28,3.6,3.28C-3034.56,252.98-3032.9,252.04-3030.92,250.28z"/>
	<path class="st1" d="M-3021.6,235.45h2.38l0.29,2.27h0.11c1.8-1.44,4-2.77,6.26-2.77c5.08,0,7.78,3.92,7.78,9.9
		c0,6.66-4,10.51-8.5,10.51c-1.8,0-3.64-0.83-5.47-2.27l0.07,3.42v6.73h-2.92V235.45z M-3007.85,244.88c0-4.39-1.51-7.45-5.4-7.45
		c-1.69,0-3.46,0.97-5.44,2.81v10.51c1.84,1.58,3.64,2.12,4.97,2.12C-3010.33,252.87-3007.85,249.81-3007.85,244.88z"/>
	<path class="st1" d="M-3000.97,245.2c0-6.33,4.21-10.26,8.67-10.26c4.86,0,7.67,3.49,7.67,9.11c0,0.65-0.04,1.3-0.14,1.76h-13.28
		c0.18,4.32,2.77,7.2,6.66,7.2c1.91,0,3.49-0.61,4.93-1.58l1.08,1.94c-1.69,1.08-3.67,1.98-6.37,1.98
		C-2996.87,255.35-3000.97,251.57-3000.97,245.2z M-2987.22,243.69c0-4.18-1.87-6.37-5.04-6.37c-2.88,0-5.44,2.34-5.83,6.37
		H-2987.22z"/>
	<path class="st1" d="M-2976.38,244.74l-5.94-9.29h3.17l2.74,4.43c0.61,1.08,1.3,2.16,1.98,3.24h0.14c0.61-1.08,1.19-2.16,1.8-3.24
		l2.56-4.43h3.02l-5.9,9.58l6.41,9.86h-3.2l-2.99-4.71c-0.68-1.19-1.4-2.38-2.12-3.53h-0.18c-0.72,1.15-1.37,2.34-2.05,3.53
		l-2.77,4.71h-3.1L-2976.38,244.74z"/>
</g>
<g>
	<path class="st1" d="M-3515.03,251.97l1.48-1.98c1.69,1.4,3.42,2.34,5.87,2.34c2.7,0,4.03-1.44,4.03-3.24
		c0-2.09-2.34-3.02-4.54-3.82c-2.77-1.01-5.87-2.3-5.87-5.62c0-3.02,2.41-5.43,6.59-5.43c2.3,0,4.43,0.97,5.9,2.16l-1.4,1.91
		c-1.33-0.97-2.74-1.73-4.5-1.73c-2.59,0-3.78,1.37-3.78,2.95c0,1.94,2.16,2.7,4.39,3.49c2.84,1.12,6.01,2.23,6.01,5.94
		c0,3.1-2.45,5.69-6.95,5.69C-3510.57,254.64-3513.2,253.49-3515.03,251.97z"/>
	<path class="st1" d="M-3496.35,248.3v-11.16h-2.95v-2.23l3.06-0.18l0.32-5.51h2.48v5.51h5.36v2.41h-5.36v11.27
		c0,2.38,0.72,3.82,3.06,3.82c0.72,0,1.62-0.25,2.27-0.5l0.58,2.2c-1.08,0.36-2.38,0.72-3.46,0.72
		C-3495.05,254.64-3496.35,252.12-3496.35,248.3z"/>
	<path class="st1" d="M-3485.65,244.49c0-6.34,4.21-10.26,8.67-10.26c4.86,0,7.67,3.49,7.67,9.11c0,0.65-0.04,1.3-0.14,1.76h-13.28
		c0.18,4.32,2.77,7.2,6.66,7.2c1.91,0,3.49-0.61,4.93-1.58l1.08,1.94c-1.69,1.08-3.67,1.98-6.37,1.98
		C-3481.55,254.64-3485.65,250.86-3485.65,244.49z M-3471.9,242.98c0-4.17-1.87-6.37-5.04-6.37c-2.88,0-5.44,2.34-5.83,6.37H-3471.9
		z"/>
	<path class="st1" d="M-3464.38,234.73h2.38l0.29,2.88h0.11c1.69-1.87,3.78-3.38,6.05-3.38c3.02,0,4.61,1.48,5.36,3.78
		c2.09-2.23,4.14-3.78,6.48-3.78c3.96,0,5.9,2.63,5.9,7.59v12.35h-2.95v-11.99c0-3.74-1.19-5.4-3.78-5.4
		c-1.58,0-3.24,1.04-5.11,3.17v14.22h-2.92v-11.99c0-3.74-1.19-5.4-3.82-5.4c-1.51,0-3.24,1.04-5.08,3.17v14.22h-2.92V234.73z"/>
</g>
<g>
	<path class="st1" d="M-3092.24,847.84c0-6.3,4-10.26,8.46-10.26c2.3,0,3.82,0.86,5.58,2.3l-0.14-3.38v-7.63h2.92v28.65h-2.41
		l-0.29-2.34h-0.07c-1.55,1.55-3.64,2.81-6.01,2.81C-3089.11,858-3092.24,854.32-3092.24,847.84z M-3078.34,852.74v-10.51
		c-1.76-1.55-3.28-2.16-4.97-2.16c-3.31,0-5.87,3.2-5.87,7.74c0,4.79,2.02,7.7,5.58,7.7
		C-3081.73,855.51-3080.07,854.58-3078.34,852.74z"/>
	<path class="st1" d="M-3070.13,847.84c0-6.34,4.21-10.26,8.67-10.26c4.86,0,7.67,3.49,7.67,9.11c0,0.65-0.04,1.3-0.14,1.76h-13.28
		c0.18,4.32,2.77,7.2,6.66,7.2c1.91,0,3.49-0.61,4.93-1.58l1.08,1.94c-1.69,1.08-3.67,1.98-6.37,1.98
		C-3066.03,858-3070.13,854.22-3070.13,847.84z M-3056.38,846.33c0-4.17-1.87-6.37-5.04-6.37c-2.88,0-5.44,2.34-5.83,6.37H-3056.38z
		"/>
	<path class="st1" d="M-3051.13,855.33l1.48-1.98c1.69,1.4,3.42,2.34,5.87,2.34c2.7,0,4.03-1.44,4.03-3.24
		c0-2.09-2.34-3.02-4.54-3.82c-2.77-1.01-5.87-2.3-5.87-5.62c0-3.02,2.41-5.43,6.59-5.43c2.3,0,4.43,0.97,5.9,2.16l-1.4,1.91
		c-1.33-0.97-2.74-1.73-4.5-1.73c-2.59,0-3.78,1.37-3.78,2.95c0,1.94,2.16,2.7,4.39,3.49c2.84,1.12,6.01,2.23,6.01,5.94
		c0,3.1-2.45,5.69-6.95,5.69C-3046.66,858-3049.29,856.84-3051.13,855.33z"/>
	<path class="st1" d="M-3033.7,847.84c0-6.52,4.32-10.26,9.25-10.26c2.56,0,4.32,1.08,5.69,2.34l-1.55,1.94
		c-1.15-1.08-2.41-1.8-4.03-1.8c-3.64,0-6.33,3.13-6.33,7.78c0,4.61,2.52,7.7,6.26,7.7c1.84,0,3.49-0.9,4.72-1.98l1.3,1.94
		c-1.73,1.55-3.89,2.48-6.26,2.48C-3029.78,858-3033.7,854.25-3033.7,847.84z"/>
	<path class="st1" d="M-3016.31,847.84c0-6.34,4.21-10.26,8.67-10.26c4.86,0,7.67,3.49,7.67,9.11c0,0.65-0.04,1.3-0.14,1.76h-13.28
		c0.18,4.32,2.77,7.2,6.66,7.2c1.91,0,3.49-0.61,4.93-1.58l1.08,1.94c-1.69,1.08-3.67,1.98-6.37,1.98
		C-3012.21,858-3016.31,854.22-3016.31,847.84z M-3002.56,846.33c0-4.17-1.87-6.37-5.04-6.37c-2.88,0-5.44,2.34-5.83,6.37H-3002.56z
		"/>
	<path class="st1" d="M-2995.04,838.09h2.38l0.29,2.84h0.11c1.87-1.84,3.89-3.35,6.55-3.35c4.07,0,5.94,2.63,5.94,7.59v12.35h-2.95
		v-11.99c0-3.74-1.15-5.4-3.85-5.4c-2.05,0-3.53,1.08-5.54,3.17v14.22h-2.92V838.09z"/>
	<path class="st1" d="M-2974.73,847.84c0-6.3,4-10.26,8.46-10.26c2.3,0,3.82,0.86,5.58,2.3l-0.14-3.38v-7.63h2.92v28.65h-2.41
		l-0.29-2.34h-0.07c-1.55,1.55-3.64,2.81-6.01,2.81C-2971.6,858-2974.73,854.32-2974.73,847.84z M-2960.84,852.74v-10.51
		c-1.76-1.55-3.28-2.16-4.97-2.16c-3.31,0-5.87,3.2-5.87,7.74c0,4.79,2.02,7.7,5.58,7.7
		C-2964.22,855.51-2962.57,854.58-2960.84,852.74z"/>
	<path class="st1" d="M-2952.63,847.84c0-6.34,4.21-10.26,8.67-10.26c4.86,0,7.67,3.49,7.67,9.11c0,0.65-0.04,1.3-0.14,1.76h-13.28
		c0.18,4.32,2.77,7.2,6.66,7.2c1.91,0,3.49-0.61,4.93-1.58l1.08,1.94c-1.69,1.08-3.67,1.98-6.37,1.98
		C-2948.53,858-2952.63,854.22-2952.63,847.84z M-2938.88,846.33c0-4.17-1.87-6.37-5.04-6.37c-2.88,0-5.44,2.34-5.83,6.37H-2938.88z
		"/>
	<path class="st1" d="M-2931.35,838.09h2.38l0.29,3.56h0.11c1.33-2.45,3.31-4.07,5.51-4.07c0.83,0,1.4,0.11,2.05,0.43l-0.58,2.56
		c-0.65-0.22-1.08-0.32-1.84-0.32c-1.66,0-3.67,1.22-5,4.61v12.67h-2.92V838.09z"/>
</g>
<line class="st4" x1="-3775.5" y1="322.16" x2="-3775.5" y2="635.54"/>
<line class="st4" x1="-2584.29" y1="452.1" x2="-2584.29" y2="635.54"/>
<line class="st4" x1="-3485.53" y1="267.14" x2="-3485.53" y2="452.1"/>
<line class="st4" x1="-3301.27" y1="267.14" x2="-3301.27" y2="375.93"/>
<line class="st4" x1="-3002.27" y1="267.14" x2="-3002.27" y2="424.36"/>
<line class="st4" x1="-3002.27" y1="745.12" x2="-3002.27" y2="828.87"/>
<line class="st4" x1="-3914.51" y1="322.16" x2="-3914.51" y2="757.84"/>
<rect x="-3787.62" y="495.09" width="135.92" height="95.42"/>
<rect x="-3929.84" y="495.09" width="135.92" height="95.42"/>
<rect x="-2610.67" y="513.87" width="135.92" height="57.85"/>
<g>
	<path class="st1" d="M-3917.09,514.89h2.38l0.29,2.27h0.11c1.8-1.44,4-2.77,6.26-2.77c5.08,0,7.78,3.92,7.78,9.9
		c0,6.66-4,10.51-8.5,10.51c-1.8,0-3.64-0.83-5.47-2.27l0.07,3.42v6.73h-2.92V514.89z M-3903.34,524.32c0-4.39-1.51-7.45-5.4-7.45
		c-1.69,0-3.46,0.97-5.44,2.81v10.51c1.84,1.58,3.64,2.12,4.97,2.12C-3905.83,532.32-3903.34,529.26-3903.34,524.32z"/>
	<path class="st1" d="M-3896.47,524.65c0-6.52,4.17-10.26,8.93-10.26c4.75,0,8.96,3.74,8.96,10.26c0,6.41-4.21,10.15-8.96,10.15
		C-3892.29,534.8-3896.47,531.06-3896.47,524.65z M-3881.6,524.65c0-4.64-2.45-7.78-5.94-7.78c-3.49,0-5.9,3.13-5.9,7.78
		c0,4.61,2.41,7.7,5.9,7.7C-3884.05,532.35-3881.6,529.26-3881.6,524.65z"/>
	<path class="st1" d="M-3873.93,508.74c0-1.26,0.9-2.02,2.12-2.02c1.15,0,2.12,0.76,2.12,2.02c0,1.15-0.97,1.98-2.12,1.98
		C-3873.03,510.72-3873.93,509.89-3873.93,508.74z M-3873.28,514.89h2.92v19.44h-2.92V514.89z"/>
	<path class="st1" d="M-3863.6,514.89h2.38l0.29,2.84h0.11c1.87-1.84,3.89-3.35,6.55-3.35c4.07,0,5.94,2.63,5.94,7.59v12.35h-2.95
		v-11.99c0-3.74-1.15-5.4-3.85-5.4c-2.05,0-3.53,1.08-5.54,3.17v14.22h-2.92V514.89z"/>
	<path class="st1" d="M-3841.28,528.46v-11.16h-2.95v-2.23l3.06-0.18l0.32-5.51h2.48v5.51h5.36v2.41h-5.36v11.27
		c0,2.38,0.72,3.82,3.06,3.82c0.72,0,1.62-0.25,2.27-0.5l0.58,2.2c-1.08,0.36-2.38,0.72-3.46,0.72
		C-3839.98,534.8-3841.28,532.28-3841.28,528.46z"/>
	<path class="st1" d="M-3919.36,575.34l1.48-1.98c1.69,1.4,3.42,2.34,5.87,2.34c2.7,0,4.03-1.44,4.03-3.24
		c0-2.09-2.34-3.02-4.54-3.82c-2.77-1.01-5.87-2.3-5.87-5.62c0-3.02,2.41-5.44,6.59-5.44c2.3,0,4.43,0.97,5.9,2.16l-1.4,1.91
		c-1.33-0.97-2.74-1.73-4.5-1.73c-2.59,0-3.78,1.37-3.78,2.95c0,1.94,2.16,2.7,4.39,3.49c2.84,1.12,6.01,2.23,6.01,5.94
		c0,3.1-2.45,5.69-6.95,5.69C-3914.9,578-3917.53,576.85-3919.36,575.34z"/>
	<path class="st1" d="M-3901.07,551.94c0-1.26,0.9-2.02,2.12-2.02c1.15,0,2.12,0.76,2.12,2.02c0,1.15-0.97,1.98-2.12,1.98
		C-3900.17,553.92-3901.07,553.09-3901.07,551.94z M-3900.43,558.09h2.92v19.44h-2.92V558.09z"/>
	<path class="st1" d="M-3892.94,575.95l10.51-15.44h-9.36v-2.41h13.1v1.55l-10.55,15.48h10.87v2.41h-14.58V575.95z"/>
	<path class="st1" d="M-3875.8,567.85c0-6.33,4.21-10.26,8.67-10.26c4.86,0,7.67,3.49,7.67,9.11c0,0.65-0.04,1.29-0.14,1.76h-13.28
		c0.18,4.32,2.77,7.2,6.66,7.2c1.91,0,3.49-0.61,4.93-1.58l1.08,1.94c-1.69,1.08-3.67,1.98-6.37,1.98
		C-3871.7,578-3875.8,574.22-3875.8,567.85z M-3862.05,566.34c0-4.17-1.87-6.37-5.04-6.37c-2.88,0-5.44,2.34-5.83,6.37H-3862.05z"/>
</g>
<g>
	<path class="st1" d="M-3779.59,520.72c0-6.52,4.32-10.26,9.25-10.26c2.56,0,4.32,1.08,5.69,2.34l-1.55,1.94
		c-1.15-1.08-2.41-1.8-4.03-1.8c-3.64,0-6.33,3.13-6.33,7.78c0,4.61,2.52,7.7,6.26,7.7c1.84,0,3.49-0.9,4.72-1.98l1.3,1.94
		c-1.73,1.55-3.89,2.48-6.26,2.48C-3775.67,530.87-3779.59,527.13-3779.59,520.72z"/>
	<path class="st1" d="M-3761.52,525.4c0-4.25,3.71-6.33,12.06-7.27c0.04-2.63-0.79-5.22-4.14-5.22c-2.34,0-4.43,1.12-5.9,2.16
		l-1.19-2.05c1.69-1.12,4.43-2.56,7.56-2.56c4.71,0,6.59,3.2,6.59,7.88v12.06h-2.41l-0.25-2.38h-0.11c-1.87,1.58-4.1,2.84-6.55,2.84
		C-3759.08,530.87-3761.52,528.93-3761.52,525.4z M-3749.46,525.79v-5.69c-6.88,0.79-9.21,2.45-9.21,5.11c0,2.34,1.62,3.28,3.6,3.28
		C-3753.1,528.49-3751.44,527.56-3749.46,525.79z"/>
	<path class="st1" d="M-3740.14,510.96h2.38l0.29,2.27h0.11c1.8-1.44,4-2.77,6.26-2.77c5.08,0,7.78,3.92,7.78,9.9
		c0,6.66-4,10.51-8.5,10.51c-1.8,0-3.64-0.83-5.47-2.27l0.07,3.42v6.73h-2.92V510.96z M-3726.39,520.39c0-4.39-1.51-7.45-5.4-7.45
		c-1.69,0-3.46,0.97-5.44,2.81v10.51c1.84,1.58,3.64,2.12,4.97,2.12C-3728.87,528.39-3726.39,525.33-3726.39,520.39z"/>
	<path class="st1" d="M-3778.08,544.95h2.92v7.96l-0.11,4.07c1.87-1.8,3.85-3.31,6.51-3.31c4.07,0,5.94,2.63,5.94,7.59v12.35h-2.95
		v-11.99c0-3.74-1.15-5.4-3.85-5.4c-2.05,0-3.53,1.08-5.54,3.17v14.22h-2.92V544.95z"/>
	<path class="st1" d="M-3757.92,563.92c0-6.34,4.21-10.26,8.67-10.26c4.86,0,7.67,3.49,7.67,9.11c0,0.65-0.04,1.3-0.14,1.76h-13.28
		c0.18,4.32,2.77,7.2,6.66,7.2c1.91,0,3.49-0.61,4.93-1.58l1.08,1.94c-1.69,1.08-3.67,1.98-6.37,1.98
		C-3753.82,574.07-3757.92,570.29-3757.92,563.92z M-3744.17,562.41c0-4.17-1.87-6.37-5.04-6.37c-2.88,0-5.44,2.34-5.83,6.37
		H-3744.17z"/>
	<path class="st1" d="M-3737.3,548.01c0-1.26,0.9-2.02,2.12-2.02c1.15,0,2.12,0.76,2.12,2.02c0,1.15-0.97,1.98-2.12,1.98
		C-3736.4,549.99-3737.3,549.16-3737.3,548.01z M-3736.65,554.16h2.92v19.44h-2.92V554.16z"/>
	<path class="st1" d="M-3728.51,577.38c0-1.66,1.08-3.28,2.88-4.46v-0.14c-1.01-0.61-1.76-1.66-1.76-3.2c0-1.62,1.19-2.88,2.16-3.6
		v-0.14c-1.26-1.01-2.52-2.92-2.52-5.22c0-4.21,3.28-6.95,7.2-6.95c1.08,0,2.02,0.25,2.7,0.5h6.73v2.27h-4.1
		c0.97,0.94,1.69,2.45,1.69,4.21c0,4.14-3.1,6.8-7.02,6.8c-0.97,0-2.09-0.25-2.99-0.72c-0.72,0.61-1.3,1.33-1.3,2.45
		c0,1.26,0.79,2.2,3.46,2.2h3.89c4.46,0,6.69,1.4,6.69,4.61c0,3.53-3.78,6.66-9.68,6.66
		C-3725.27,582.63-3728.51,580.73-3728.51,577.38z M-3713.68,576.41c0-1.91-1.4-2.56-4.07-2.56h-3.56c-0.61,0-1.58-0.11-2.48-0.32
		c-1.48,1.04-2.12,2.3-2.12,3.49c0,2.16,2.16,3.56,5.83,3.56C-3716.2,580.58-3713.68,578.5-3713.68,576.41z M-3716.2,560.61
		c0-2.95-1.98-4.75-4.36-4.75c-2.41,0-4.36,1.76-4.36,4.75c0,2.92,2.02,4.82,4.36,4.82C-3718.22,565.43-3716.2,563.52-3716.2,560.61
		z"/>
	<path class="st1" d="M-3706.91,544.95h2.92v7.96l-0.11,4.07c1.87-1.8,3.85-3.31,6.51-3.31c4.07,0,5.94,2.63,5.94,7.59v12.35h-2.95
		v-11.99c0-3.74-1.15-5.4-3.85-5.4c-2.05,0-3.53,1.08-5.54,3.17v14.22h-2.92V544.95z"/>
	<path class="st1" d="M-3684.7,567.73v-11.16h-2.95v-2.23l3.06-0.18l0.32-5.51h2.48v5.51h5.36v2.41h-5.36v11.27
		c0,2.38,0.72,3.82,3.06,3.82c0.72,0,1.62-0.25,2.27-0.5l0.58,2.2c-1.08,0.36-2.38,0.72-3.46,0.72
		C-3683.41,574.07-3684.7,571.55-3684.7,567.73z"/>
</g>
<g>
	<path class="st1" d="M-2585.15,541.88l-5.94-9.29h3.17l2.74,4.43c0.61,1.08,1.3,2.16,1.98,3.24h0.14c0.61-1.08,1.19-2.16,1.8-3.24
		l2.56-4.43h3.02l-5.9,9.57l6.41,9.86h-3.2l-2.99-4.72c-0.68-1.19-1.4-2.38-2.12-3.53h-0.18c-0.72,1.15-1.37,2.34-2.05,3.53
		l-2.77,4.72h-3.1L-2585.15,541.88z"/>
	<path class="st1" d="M-2573.52,540.83h9.11v2.3h-9.11V540.83z"/>
	<path class="st1" d="M-2559.41,523.37h2.92v7.96l-0.11,4.07c1.87-1.8,3.85-3.31,6.51-3.31c4.07,0,5.94,2.63,5.94,7.59v12.35h-2.95
		v-11.99c0-3.74-1.15-5.4-3.85-5.4c-2.05,0-3.53,1.08-5.54,3.17v14.22h-2.92V523.37z"/>
	<path class="st1" d="M-2539.25,542.34c0-6.34,4.21-10.26,8.67-10.26c4.86,0,7.67,3.49,7.67,9.11c0,0.65-0.04,1.3-0.14,1.76h-13.28
		c0.18,4.32,2.77,7.2,6.66,7.2c1.91,0,3.49-0.61,4.93-1.58l1.08,1.94c-1.69,1.08-3.67,1.98-6.37,1.98
		C-2535.15,552.5-2539.25,548.72-2539.25,542.34z M-2525.5,540.83c0-4.18-1.87-6.37-5.04-6.37c-2.88,0-5.44,2.34-5.83,6.37H-2525.5z
		"/>
	<path class="st1" d="M-2518.63,526.43c0-1.26,0.9-2.02,2.12-2.02c1.15,0,2.12,0.76,2.12,2.02c0,1.15-0.97,1.98-2.12,1.98
		C-2517.73,528.41-2518.63,527.59-2518.63,526.43z M-2517.98,532.59h2.92v19.44h-2.92V532.59z"/>
	<path class="st1" d="M-2509.84,555.81c0-1.66,1.08-3.28,2.88-4.46v-0.14c-1.01-0.61-1.76-1.66-1.76-3.2c0-1.62,1.19-2.88,2.16-3.6
		v-0.14c-1.26-1.01-2.52-2.92-2.52-5.22c0-4.21,3.28-6.95,7.2-6.95c1.08,0,2.02,0.25,2.7,0.5h6.73v2.27h-4.1
		c0.97,0.94,1.69,2.45,1.69,4.21c0,4.14-3.1,6.8-7.02,6.8c-0.97,0-2.09-0.25-2.99-0.72c-0.72,0.61-1.3,1.33-1.3,2.45
		c0,1.26,0.79,2.2,3.46,2.2h3.89c4.46,0,6.7,1.4,6.7,4.61c0,3.53-3.78,6.66-9.68,6.66C-2506.6,561.06-2509.84,559.15-2509.84,555.81
		z M-2495.01,554.83c0-1.91-1.4-2.56-4.07-2.56h-3.56c-0.61,0-1.58-0.11-2.48-0.32c-1.48,1.04-2.12,2.3-2.12,3.49
		c0,2.16,2.16,3.56,5.83,3.56C-2497.53,559.01-2495.01,556.92-2495.01,554.83z M-2497.53,539.03c0-2.95-1.98-4.75-4.36-4.75
		c-2.41,0-4.36,1.76-4.36,4.75c0,2.92,2.02,4.82,4.36,4.82C-2499.55,543.86-2497.53,541.95-2497.53,539.03z"/>
	<path class="st1" d="M-2488.24,523.37h2.92v7.96l-0.11,4.07c1.87-1.8,3.85-3.31,6.51-3.31c4.07,0,5.94,2.63,5.94,7.59v12.35h-2.95
		v-11.99c0-3.74-1.15-5.4-3.85-5.4c-2.05,0-3.53,1.08-5.54,3.17v14.22h-2.92V523.37z"/>
	<path class="st1" d="M-2466.03,546.16V535h-2.95v-2.23l3.06-0.18l0.32-5.51h2.48v5.51h5.36V535h-5.36v11.27
		c0,2.38,0.72,3.82,3.06,3.82c0.72,0,1.62-0.25,2.27-0.5l0.58,2.2c-1.08,0.36-2.38,0.72-3.46,0.72
		C-2464.74,552.5-2466.03,549.98-2466.03,546.16z"/>
</g>
<g>
	<path class="st2" d="M-2675.76,2761.65c34.99-4.39,60.01-9.89,75.08-16.49c27.02-11.43,40.53-29.24,40.53-53.43
		c0-29.45-10.37-49.8-31.09-61.01c-20.73-11.21-51.15-16.82-91.26-16.82c-45.02,0-76.89,11-95.61,32.98
		c-13.38,16.27-22.29,38.26-26.74,65.96h-181.38c3.97-62.88,21.63-114.54,52.99-155c49.9-63.32,135.57-94.98,257.03-94.98
		c79.05,0,149.26,15.61,210.65,46.83c61.38,31.23,92.07,90.14,92.07,176.77v329.79c0,22.87,0.43,50.57,1.32,83.11
		c1.32,24.63,5.05,41.34,11.21,50.13c6.15,8.8,15.39,16.06,27.7,21.77v27.7h-204.47c-5.72-14.51-9.68-28.14-11.87-40.89
		c-2.21-12.75-3.96-27.26-5.28-43.53c-26.09,28.15-56.18,52.11-90.23,71.89c-40.69,23.3-86.69,34.96-137.99,34.96
		c-65.46,0-119.53-18.58-162.2-55.73c-42.69-37.15-64.02-89.8-64.02-157.97c0-88.38,34.33-152.36,102.99-191.94
		c37.66-21.54,93.03-36.94,166.12-46.17L-2675.76,2761.65z M-2560.82,2849.37c-12.04,7.48-24.19,13.52-36.44,18.14
		c-12.26,4.62-29.08,8.9-50.48,12.86l-42.79,7.91c-40.11,7.04-68.92,15.61-86.4,25.72c-29.61,17.15-44.41,43.76-44.41,79.81
		c0,32.1,9.04,55.3,27.13,69.59c18.08,14.29,40.07,21.44,65.97,21.44c41.08,0,78.91-11.87,113.52-35.62
		c34.61-23.74,52.57-67.05,53.91-129.93V2849.37z"/>
</g>
<g>
	<path class="st2" d="M-1375.92,2457.53c6.34,10.01,15.88,20.67,28.61,32.02c12.71,11.37,27.7,22.95,44.97,34.75
		c19.97,14.54,42.45,28.4,67.45,41.56c24.97,13.18,50.18,24.31,75.62,33.38c7.26,1.83,14.31,3.64,21.12,5.45
		c6.81,1.83,13.39,3.64,19.76,5.45v19.08h-17.71c-19.99-0.89-34.53,4.56-43.6,16.35c-9.09,11.82-13.63,25-13.63,39.51v298.41
		c0,25.44,3.41,43.84,10.22,55.19c6.81,11.37,17.48,17.03,32.02,17.03c7.26,0,15.44-1.36,24.53-4.09
		c9.07-2.73,19.08-6.81,29.98-12.26v19.08c-26.36,17.27-54.06,38.39-83.12,63.36c-29.08,25-62.23,50.65-99.47,76.99l-5.45-5.45
		c-0.92-0.92-2.28-1.83-4.09-2.73c-4.56-5.45-9.54-10.22-14.99-14.31c-5.45-4.09-10.9-8.39-16.35-12.94
		c-16.35-14.52-31.57-29.98-45.65-46.33c-14.09-16.35-21.59-34.51-22.48-54.5v-2.73c0-0.89,0.45-2.26,1.36-4.09v-5.45
		c-19.08,10.9-37.7,22.95-55.87,36.11c-18.18,13.18-35.9,27.04-53.14,41.56c-16.35,12.73-32.25,25-47.69,36.79
		c-15.46,11.82-30.89,23.16-46.33,34.07c-24.53-16.35-44.28-30.66-59.27-42.92c-14.99-12.26-27.04-24.29-36.11-36.11
		c-10.01-13.63-16.35-28.15-19.08-43.6c-2.73-15.44-4.09-34.96-4.09-58.59v-321.57c0-5.45,0.21-11.35,0.68-17.71
		c0.45-6.34,2.04-13.16,4.77-20.44c3.62-9.99,10.67-20.21,21.12-30.66c10.43-10.43,26.57-19.76,48.37-27.93
		c16.35-7.26,34.75-14.99,55.18-23.16c20.44-8.17,41.09-17.24,62-27.25c26.34-11.8,51.78-25.21,76.31-40.2
		c24.53-14.99,45.86-31.55,64.04-49.73V2457.53z M-1514.91,3005.28c0,20.91,2.94,36.58,8.86,47.01
		c5.9,10.45,14.31,15.67,25.21,15.67c4.54,0,9.3-0.68,14.31-2.04c4.98-1.36,10.22-3.41,15.67-6.13l54.5-32.7v-365.17
		c-25.44-9.07-46.8-20.65-64.04-34.75c-17.27-14.07-33.62-28.83-49.05-44.29l-5.45-5.45V3005.28z"/>
</g>
</svg>
