<?xml version="1.0" encoding="utf-8"?>
<!-- Generator: Adobe Illustrator 25.2.3, SVG Export Plug-In . SVG Version: 6.00 Build 0)  -->
<svg version="1.1" id="Layer_1" xmlns="http://www.w3.org/2000/svg" xmlns:xlink="http://www.w3.org/1999/xlink" x="0px" y="0px"
	 viewBox="0 0 4439.37 1080" style="enable-background:new 0 0 4439.37 1080;" xml:space="preserve">
<style type="text/css">
	.st0{display:none;}
	.st1{stroke:#44C030;stroke-miterlimit:10;}
	.st2{fill:#44C030;}
	.st3{fill:#FFFFFF;}
	.st4{fill:none;stroke:#44C030;stroke-miterlimit:10;}
	.st5{fill:none;stroke:#44C030;stroke-width:3;stroke-miterlimit:10;}
	.st6{fill:none;stroke:#44C030;stroke-width:5;stroke-miterlimit:10;}
	.st7{fill:url(#SVGID_1_);}
	.st8{fill:url(#SVGID_2_);}
	.st9{display:inline;}
	.st10{fill:url(#SVGID_3_);}
</style>
<rect x="-1257.89" y="-1879.59" class="st0" width="1305.98" height="1251.8"/>
<rect x="1924.37" y="-4308.35" class="st1" width="1405.07" height="1603.96"/>
<rect x="-6118.71" y="-4089.03" width="1920" height="1080"/>
<rect x="-10449.57" y="-34.22" width="3930.69" height="4215.25"/>
<rect x="-5366.32" y="-4967.65" class="st2" width="1190.81" height="294.2"/>
<g>
	<path class="st3" d="M-2112.62-5409.02"/>
</g>
<g>
	<line class="st4" x1="-2112.71" y1="-3453.49" x2="-192.71" y2="-3453.49"/>
	<line class="st4" x1="-2112.71" y1="-3331.19" x2="-192.71" y2="-3331.19"/>
	<line class="st4" x1="-2112.71" y1="-3636.93" x2="-192.71" y2="-3636.93"/>
	<line class="st4" x1="-2112.71" y1="-3766.87" x2="-192.71" y2="-3766.87"/>
	<line class="st4" x1="-2112.71" y1="-3736.3" x2="-192.71" y2="-3736.3"/>
</g>
<path d="M-1096.54-3543.91"/>
<path class="st3" d="M-894.54-3514.63v-91.72l-61.15-30.57l-91.72,61.15v91.72l30.57,30.57l61.15-22.93v23.04h61.15V-3514.63z
	 M-955.69-3484.06c-30.57,7.64-30.57-15.29-30.57-15.29V-3614l30.57,15.29V-3484.06z"/>
<path class="st2" d="M-955.69-3453.38v83.97c0,0,0,15.29-15.29,15.29s-15.29-15.29-15.29-15.29v-45.86h-61.15v22.93
	c0,0,0,61.15,61.15,61.15h30.57c61.15,0,61.15-61.15,61.15-61.15v-61.04H-955.69z"/>
<path class="st3" d="M-1576.62-3575.78v76.44c0,0,0,49.82,53.74,49.82c38.11,0,45.06-17.28,45.06-17.28s1.22,13.32,8.21,13.32
	c14.29,0,49.09,0,53.5,0v-7.67c-7.64,0-7.33-22.91-7.33-22.91l-0.31-122.3l-61.15-30.57L-1576.62-3575.78 M-1484.9-3491.7
	c0,0,0.31,15.29-14.98,15.29s-15.6-15.29-15.6-15.29V-3614l30.57,15.29V-3491.7z"/>
<path class="st2" d="M-1241.78-3636.64v-99.65l30.57,15.29v53.5l30.57,22.93l53.51-26.75v-1.59c-9.06,1.24-22.93-1.91-22.93-32.8
	v-22.93l-61.15-30.57l-114.65,76.44v2.34c9.06-2.33,22.93-2.55,22.93,18.05c0,0.98,0,10.71,0,25.48"/>
<path class="st3" d="M-1302.93-3636.93c0,55.77,0,183.45,0,183.45h61.15v-115.28c2.63-4.28,19.62-28.14,53.4,5.65l36.91-36.91
	l-37.17-36.91l-53.14,53.14v-52.85"/>
<path class="st3" d="M-681.58-3571.04l-23.46-47.98l-16.49-8.43l-18.55-9.48l-43.79,44.79c0,0,17.52-8.96,26.27,8.96l37.57,76.85
	c-5.15,2.82-11.15,5.08-17.15,5.08h-39.81v47.77h39.81l21.74-43.48l21.26,43.48h70.07l-54.74-111.96c6.04-4.13,14.3-8.42,22.57-8.42
	h39.81v-47.77h-39.81L-681.58-3571.04z"/>
<path class="st3" d="M2810.47-3354.96l-1.02-401.12l-200.56-100.28l-300.84,200.56v250.7c0,0,0,163.41,176.26,163.41
	c124.99,0,147.8-56.66,147.8-56.66s4.01,43.67,26.91,43.67c46.87,0,161,0,175.49,0v-25.15
	C2809.45-3279.84,2810.47-3354.96,2810.47-3354.96z M2608.89-3380.03c0,0,1.02,50.14-49.12,50.14s-51.16-50.14-51.16-50.14v-401.12
	l100.28,50.14V-3380.03z"/>
<path class="st3" d="M2810.47-3354.96l-1.02-401.12l-200.56-100.28l-300.84,200.56v250.7c0,0,0,163.41,176.26,163.41
	c124.99,0,147.8-56.66,147.8-56.66s4.01,43.67,26.91,43.67c46.87,0,161,0,175.49,0v-25.15
	C2809.45-3279.84,2810.47-3354.96,2810.47-3354.96z M2608.89-3380.03c0,0,1.02,50.14-49.12,50.14s-51.16-50.14-51.16-50.14v-401.12
	l100.28,50.14V-3380.03z"/>
<line class="st4" x1="1553.09" y1="-3152.49" x2="3363.85" y2="-4359.67"/>
<line class="st4" x1="1628.3" y1="-3077.28" x2="3439.07" y2="-4284.46"/>
<line class="st4" x1="2308.05" y1="-4117.71" x2="2308.05" y2="-2943.2"/>
<line class="st4" x1="2508.61" y1="-4117.71" x2="2508.61" y2="-2943.2"/>
<line class="st4" x1="2608.89" y1="-4117.71" x2="2608.89" y2="-2943.2"/>
<line class="st4" x1="2809.46" y1="-4117.71" x2="2809.46" y2="-2943.2"/>
<line class="st4" x1="1551.52" y1="-3254.69" x2="3942.03" y2="-3254.69"/>
<line class="st4" x1="1551.52" y1="-3856.36" x2="3942.03" y2="-3856.36"/>
<line class="st4" x1="1741.5" y1="-4290.06" x2="3676.84" y2="-3322.38"/>
<line class="st4" x1="1742.18" y1="-4164.4" x2="3677.52" y2="-3196.72"/>
<rect x="-1484.9" y="-3598.8" class="st2" width="61.3" height="107.41"/>
<circle class="st5" cx="-970.98" cy="-3623.15" r="42.04"/>
<g>
	<path class="st3" d="M-1804.1-4182.34c0-4.32,3.49-6.59,11.59-7.45c-0.07-1.98-0.94-3.49-3.42-3.49c-1.87,0-3.67,0.83-5.54,1.91
		l-1.91-3.49c2.38-1.48,5.25-2.66,8.42-2.66c5.11,0,7.74,3.06,7.74,8.89v11.77h-4.32l-0.4-2.16h-0.11
		c-1.76,1.51-3.78,2.66-6.08,2.66C-1801.73-4176.36-1804.1-4178.92-1804.1-4182.34z M-1792.51-4182.48v-4.07
		c-4.9,0.65-6.55,1.98-6.55,3.78c0,1.58,1.12,2.27,2.66,2.27C-1794.89-4180.5-1793.77-4181.22-1792.51-4182.48z"/>
	<path class="st3" d="M-1783.73-4179.2l2.41-3.31c1.8,1.4,3.53,2.2,5.4,2.2c2.02,0,2.92-0.86,2.92-2.12c0-1.51-2.09-2.2-4.21-3.02
		c-2.56-0.97-5.51-2.52-5.51-5.87c0-3.64,2.95-6.19,7.49-6.19c2.95,0,5.18,1.22,6.88,2.48l-2.38,3.2c-1.44-1.01-2.84-1.73-4.36-1.73
		c-1.8,0-2.66,0.79-2.66,1.94c0,1.48,1.98,2.02,4.1,2.81c2.66,1.01,5.62,2.34,5.62,6.08c0,3.53-2.77,6.37-8.03,6.37
		C-1778.76-4176.36-1781.75-4177.55-1783.73-4179.2z"/>
	<path class="st3" d="M-1765.26-4186.91c0-6.73,4.82-10.62,10.29-10.62c2.48,0,4.39,0.97,5.87,2.23l-2.52,3.42
		c-1.01-0.86-1.94-1.33-3.1-1.33c-3.06,0-5.15,2.48-5.15,6.3c0,3.78,2.09,6.23,5,6.23c1.44,0,2.81-0.68,3.92-1.62l2.09,3.49
		c-1.91,1.69-4.36,2.45-6.59,2.45C-1761.01-4176.36-1765.26-4180.25-1765.26-4186.91z"/>
	<path class="st3" d="M-1747.37-4186.91c0-6.55,4.57-10.62,9.39-10.62c5.54,0,8.42,4.07,8.42,9.65c0,0.97-0.11,1.94-0.25,2.41
		h-12.42c0.43,3.31,2.59,5.04,5.58,5.04c1.66,0,3.1-0.5,4.54-1.4l1.8,3.24c-1.98,1.37-4.54,2.23-7.05,2.23
		C-1742.98-4176.36-1747.37-4180.28-1747.37-4186.91z M-1734.08-4188.96c0-2.74-1.22-4.46-3.82-4.46c-2.12,0-4,1.51-4.39,4.46
		H-1734.08z"/>
	<path class="st3" d="M-1725.19-4197.02h4.32l0.36,2.66h0.14c1.76-1.73,3.82-3.17,6.55-3.17c4.36,0,6.23,3.02,6.23,8.1v12.56h-5.29
		v-11.91c0-3.1-0.86-4.21-2.84-4.21c-1.66,0-2.7,0.79-4.21,2.27v13.86h-5.25V-4197.02z"/>
	<path class="st3" d="M-1703.27-4186.91c0-6.59,4.1-10.62,8.46-10.62c2.27,0,3.67,0.86,5.11,2.2l-0.22-3.17v-7.09h5.29v28.72h-4.28
		l-0.43-2.09h-0.11c-1.48,1.44-3.49,2.59-5.58,2.59C-1700.03-4176.36-1703.27-4180.32-1703.27-4186.91z M-1689.91-4182.8v-8.85
		c-1.22-1.12-2.48-1.51-3.74-1.51c-2.27,0-4.18,2.16-4.18,6.19c0,4.18,1.51,6.26,4.18,6.26
		C-1692.25-4180.72-1691.07-4181.29-1689.91-4182.8z"/>
	<path class="st3" d="M-1680.19-4186.91c0-6.55,4.57-10.62,9.39-10.62c5.54,0,8.42,4.07,8.42,9.65c0,0.97-0.11,1.94-0.25,2.41
		h-12.42c0.43,3.31,2.59,5.04,5.58,5.04c1.66,0,3.1-0.5,4.54-1.4l1.8,3.24c-1.98,1.37-4.54,2.23-7.05,2.23
		C-1675.8-4176.36-1680.19-4180.28-1680.19-4186.91z M-1666.91-4188.96c0-2.74-1.22-4.46-3.82-4.46c-2.12,0-4,1.51-4.39,4.46
		H-1666.91z"/>
	<path class="st3" d="M-1658.02-4197.02h4.32l0.36,3.56h0.14c1.48-2.63,3.64-4.07,5.72-4.07c1.12,0,1.76,0.18,2.38,0.43l-0.94,4.57
		c-0.68-0.22-1.26-0.32-2.09-0.32c-1.58,0-3.49,1.04-4.64,3.96v12.02h-5.25V-4197.02z"/>
</g>
<g>
	<path class="st3" d="M-1804.1-4296.4c0-4.32,3.49-6.59,11.59-7.45c-0.07-1.98-0.94-3.49-3.42-3.49c-1.87,0-3.67,0.83-5.54,1.91
		l-1.91-3.49c2.38-1.48,5.25-2.66,8.42-2.66c5.11,0,7.74,3.06,7.74,8.89v11.77h-4.32l-0.4-2.16h-0.11
		c-1.76,1.51-3.78,2.66-6.08,2.66C-1801.73-4290.42-1804.1-4292.98-1804.1-4296.4z M-1792.51-4296.54v-4.07
		c-4.9,0.65-6.55,1.98-6.55,3.78c0,1.58,1.12,2.27,2.66,2.27C-1794.89-4294.56-1793.77-4295.28-1792.51-4296.54z"/>
	<path class="st3" d="M-1781.82-4311.08h4.32l0.36,2.09h0.14c1.69-1.44,3.78-2.59,5.94-2.59c4.97,0,7.92,4.07,7.92,10.26
		c0,6.91-4.14,10.91-8.57,10.91c-1.76,0-3.46-0.79-5-2.2l0.14,3.31v6.12h-5.25V-4311.08z M-1768.57-4301.25c0-3.85-1.22-5.98-4-5.98
		c-1.37,0-2.59,0.68-4,2.09v8.86c1.3,1.12,2.59,1.51,3.67,1.51C-1770.44-4294.78-1768.57-4296.86-1768.57-4301.25z"/>
	<path class="st3" d="M-1759.89-4300.97c0-6.55,4.57-10.62,9.39-10.62c5.54,0,8.42,4.07,8.42,9.65c0,0.97-0.11,1.94-0.25,2.41
		h-12.42c0.43,3.31,2.59,5.04,5.58,5.04c1.66,0,3.1-0.5,4.54-1.4l1.8,3.24c-1.98,1.37-4.54,2.23-7.05,2.23
		C-1755.5-4290.42-1759.89-4294.34-1759.89-4300.97z M-1746.61-4303.02c0-2.74-1.22-4.46-3.82-4.46c-2.12,0-4,1.51-4.39,4.46
		H-1746.61z"/>
	<path class="st3" d="M-1734.26-4301.43l-5.9-9.65h5.69l2.02,3.6c0.58,1.12,1.19,2.27,1.8,3.38h0.14c0.47-1.12,1.01-2.27,1.48-3.38
		l1.69-3.6h5.47l-5.9,10.26l6.3,9.9h-5.69l-2.23-3.67c-0.65-1.19-1.3-2.41-1.94-3.56h-0.18c-0.58,1.15-1.12,2.34-1.69,3.56
		l-1.87,3.67h-5.47L-1734.26-4301.43z"/>
</g>
<g>
	<path class="st3" d="M-1805-4365.98l2.41-3.31c1.8,1.4,3.53,2.2,5.4,2.2c2.02,0,2.92-0.86,2.92-2.12c0-1.51-2.09-2.2-4.21-3.02
		c-2.56-0.97-5.51-2.52-5.51-5.87c0-3.64,2.95-6.19,7.49-6.19c2.95,0,5.18,1.22,6.88,2.48l-2.38,3.2c-1.44-1.01-2.84-1.73-4.36-1.73
		c-1.8,0-2.66,0.79-2.66,1.94c0,1.48,1.98,2.02,4.1,2.81c2.66,1.01,5.62,2.34,5.62,6.08c0,3.53-2.77,6.37-8.03,6.37
		C-1800.03-4363.13-1803.02-4364.32-1805-4365.98z"/>
	<path class="st3" d="M-1785.35-4370.69v-8.93h-2.84v-3.92l3.1-0.25l0.61-5.4h4.43v5.4h4.97v4.17h-4.97v8.93
		c0,2.3,0.94,3.38,2.74,3.38c0.65,0,1.44-0.22,1.98-0.43l0.86,3.85c-1.08,0.36-2.48,0.76-4.25,0.76
		C-1783.51-4363.13-1785.35-4366.16-1785.35-4370.69z"/>
	<path class="st3" d="M-1772.93-4373.68c0-6.55,4.57-10.62,9.39-10.62c5.54,0,8.42,4.07,8.42,9.65c0,0.97-0.11,1.94-0.25,2.41
		h-12.42c0.43,3.31,2.59,5.04,5.58,5.04c1.66,0,3.1-0.5,4.54-1.4l1.8,3.24c-1.98,1.37-4.54,2.23-7.05,2.23
		C-1768.53-4363.13-1772.93-4367.06-1772.93-4373.68z M-1759.64-4375.73c0-2.74-1.22-4.46-3.82-4.46c-2.12,0-4,1.51-4.39,4.46
		H-1759.64z"/>
	<path class="st3" d="M-1750.75-4383.79h4.32l0.36,2.7h0.14c1.69-1.76,3.56-3.2,6.19-3.2c2.88,0,4.57,1.3,5.54,3.53
		c1.84-1.94,3.78-3.53,6.41-3.53c4.28,0,6.26,3.02,6.26,8.1v12.56h-5.29v-11.92c0-3.1-0.9-4.21-2.81-4.21
		c-1.15,0-2.45,0.76-3.89,2.27v13.86h-5.29v-11.92c0-3.1-0.9-4.21-2.81-4.21c-1.15,0-2.45,0.76-3.89,2.27v13.86h-5.25V-4383.79z"/>
</g>
<g>
	<path class="st3" d="M-1804.35-4462.08c0-6.73,4.82-10.62,10.29-10.62c2.48,0,4.39,0.97,5.87,2.23l-2.52,3.42
		c-1.01-0.86-1.94-1.33-3.1-1.33c-3.06,0-5.15,2.48-5.15,6.3c0,3.78,2.09,6.23,5,6.23c1.44,0,2.81-0.68,3.92-1.62l2.09,3.49
		c-1.91,1.69-4.36,2.45-6.59,2.45C-1800.11-4451.53-1804.35-4455.42-1804.35-4462.08z"/>
	<path class="st3" d="M-1785.56-4457.5c0-4.32,3.49-6.59,11.59-7.45c-0.07-1.98-0.94-3.49-3.42-3.49c-1.87,0-3.67,0.83-5.54,1.91
		l-1.91-3.49c2.38-1.48,5.25-2.66,8.42-2.66c5.11,0,7.74,3.06,7.74,8.89v11.77h-4.32l-0.4-2.16h-0.11
		c-1.76,1.51-3.78,2.66-6.08,2.66C-1783.19-4451.53-1785.56-4454.08-1785.56-4457.5z M-1773.97-4457.65v-4.07
		c-4.9,0.65-6.55,1.98-6.55,3.78c0,1.58,1.12,2.27,2.66,2.27C-1776.35-4455.67-1775.23-4456.39-1773.97-4457.65z"/>
	<path class="st3" d="M-1763.28-4472.19h4.32l0.36,2.09h0.14c1.69-1.44,3.78-2.59,5.94-2.59c4.97,0,7.92,4.07,7.92,10.26
		c0,6.91-4.14,10.91-8.57,10.91c-1.76,0-3.46-0.79-5-2.2l0.14,3.31v6.12h-5.25V-4472.19z M-1750.03-4462.36c0-3.85-1.22-5.98-4-5.98
		c-1.37,0-2.59,0.68-4,2.09v8.85c1.3,1.12,2.59,1.51,3.67,1.51C-1751.9-4455.88-1750.03-4457.97-1750.03-4462.36z"/>
	<path class="st3" d="M-1731.92-4480.76h5.25v7.24l-0.22,3.78c1.62-1.51,3.6-2.95,6.33-2.95c4.36,0,6.23,3.02,6.23,8.1v12.56h-5.29
		v-11.91c0-3.1-0.86-4.21-2.84-4.21c-1.66,0-2.7,0.79-4.21,2.27v13.86h-5.25V-4480.76z"/>
	<path class="st3" d="M-1710.14-4462.08c0-6.55,4.57-10.62,9.39-10.62c5.54,0,8.42,4.07,8.42,9.65c0,0.97-0.11,1.94-0.25,2.41
		h-12.42c0.43,3.31,2.59,5.04,5.58,5.04c1.66,0,3.1-0.5,4.54-1.4l1.8,3.24c-1.98,1.37-4.54,2.23-7.05,2.23
		C-1705.75-4451.53-1710.14-4455.45-1710.14-4462.08z M-1696.86-4464.13c0-2.74-1.22-4.46-3.82-4.46c-2.12,0-4,1.51-4.39,4.46
		H-1696.86z"/>
	<path class="st3" d="M-1688.47-4478.31c0-1.73,1.33-2.88,3.17-2.88c1.8,0,3.13,1.15,3.13,2.88c0,1.66-1.33,2.88-3.13,2.88
		C-1687.14-4475.43-1688.47-4476.65-1688.47-4478.31z M-1687.97-4472.19h5.25v20.16h-5.25V-4472.19z"/>
	<path class="st3" d="M-1678.36-4448.47c0-1.69,1.04-3.13,2.88-4.18v-0.18c-1.04-0.68-1.84-1.73-1.84-3.38
		c0-1.51,1.04-2.92,2.23-3.78v-0.14c-1.37-1.01-2.66-2.92-2.66-5.26c0-4.75,3.85-7.31,8.13-7.31c1.12,0,2.2,0.22,3.02,0.5h7.27v3.89
		h-3.46c0.54,0.68,0.94,1.8,0.94,3.06c0,4.54-3.46,6.84-7.78,6.84c-0.79,0-1.73-0.18-2.59-0.47c-0.58,0.47-0.86,0.94-0.86,1.73
		c0,1.08,0.79,1.66,3.17,1.66h3.42c4.86,0,7.49,1.51,7.49,5.04c0,4.07-4.21,7.16-10.94,7.16
		C-1674.68-4443.29-1678.36-4444.91-1678.36-4448.47z M-1664.03-4449.55c0-1.44-1.19-1.8-3.35-1.8h-2.45
		c-1.22,0-2.09-0.11-2.81-0.29c-0.9,0.72-1.33,1.51-1.33,2.34c0,1.69,1.87,2.66,4.82,2.66
		C-1666.12-4446.63-1664.03-4447.97-1664.03-4449.55z M-1666.48-4465.39c0-2.38-1.33-3.71-3.13-3.71s-3.17,1.33-3.17,3.71
		c0,2.38,1.4,3.71,3.17,3.71S-1666.48-4463.01-1666.48-4465.39z"/>
	<path class="st3" d="M-1655.53-4480.76h5.25v7.24l-0.22,3.78c1.62-1.51,3.6-2.95,6.33-2.95c4.36,0,6.23,3.02,6.23,8.1v12.56h-5.29
		v-11.91c0-3.1-0.86-4.21-2.84-4.21c-1.66,0-2.7,0.79-4.21,2.27v13.86h-5.25V-4480.76z"/>
	<path class="st3" d="M-1631.74-4459.09v-8.93h-2.84v-3.92l3.1-0.25l0.61-5.4h4.43v5.4h4.97v4.18h-4.97v8.93
		c0,2.3,0.94,3.38,2.74,3.38c0.65,0,1.44-0.22,1.98-0.43l0.86,3.85c-1.08,0.36-2.48,0.76-4.25,0.76
		C-1629.9-4451.53-1631.74-4454.55-1631.74-4459.09z"/>
</g>
<g>
	<path class="st3" d="M-1803.09-4579.12h4.32l0.36,2.09h0.14c1.69-1.44,3.78-2.59,5.94-2.59c4.97,0,7.92,4.07,7.92,10.26
		c0,6.91-4.14,10.91-8.57,10.91c-1.76,0-3.46-0.79-5-2.2l0.14,3.31v6.12h-5.25V-4579.12z M-1789.85-4569.29c0-3.85-1.22-5.98-4-5.98
		c-1.37,0-2.59,0.68-4,2.09v8.85c1.3,1.12,2.59,1.51,3.67,1.51C-1791.72-4562.82-1789.85-4564.9-1789.85-4569.29z"/>
	<path class="st3" d="M-1781.17-4569.01c0-6.73,4.64-10.62,9.68-10.62s9.68,3.89,9.68,10.62c0,6.66-4.64,10.55-9.68,10.55
		S-1781.17-4562.35-1781.17-4569.01z M-1767.2-4569.01c0-3.82-1.55-6.3-4.28-6.3s-4.28,2.48-4.28,6.3c0,3.78,1.55,6.23,4.28,6.23
		S-1767.2-4565.23-1767.2-4569.01z"/>
	<path class="st3" d="M-1757.88-4585.24c0-1.73,1.33-2.88,3.17-2.88c1.8,0,3.13,1.15,3.13,2.88c0,1.66-1.33,2.88-3.13,2.88
		C-1756.55-4582.36-1757.88-4583.58-1757.88-4585.24z M-1757.37-4579.12h5.25v20.16h-5.25V-4579.12z"/>
	<path class="st3" d="M-1746.43-4579.12h4.32l0.36,2.66h0.14c1.76-1.73,3.82-3.17,6.55-3.17c4.36,0,6.23,3.02,6.23,8.1v12.56h-5.29
		v-11.91c0-3.1-0.86-4.21-2.84-4.21c-1.66,0-2.7,0.79-4.21,2.27v13.86h-5.25V-4579.12z"/>
	<path class="st3" d="M-1722.6-4566.02v-8.93h-2.84v-3.92l3.1-0.25l0.61-5.4h4.43v5.4h4.97v4.18h-4.97v8.93
		c0,2.3,0.94,3.38,2.74,3.38c0.65,0,1.44-0.22,1.98-0.43l0.86,3.85c-1.08,0.36-2.48,0.76-4.25,0.76
		C-1720.76-4558.46-1722.6-4561.48-1722.6-4566.02z"/>
	<path class="st3" d="M-1701.97-4561.3l2.41-3.31c1.8,1.4,3.53,2.2,5.4,2.2c2.02,0,2.92-0.86,2.92-2.12c0-1.51-2.09-2.2-4.21-3.02
		c-2.56-0.97-5.51-2.52-5.51-5.87c0-3.64,2.95-6.19,7.49-6.19c2.95,0,5.18,1.22,6.88,2.48l-2.38,3.2c-1.44-1.01-2.84-1.73-4.36-1.73
		c-1.8,0-2.66,0.79-2.66,1.94c0,1.48,1.98,2.02,4.1,2.81c2.66,1.01,5.62,2.34,5.62,6.08c0,3.53-2.77,6.37-8.03,6.37
		C-1697-4558.46-1699.99-4559.65-1701.97-4561.3z"/>
	<path class="st3" d="M-1682.75-4585.24c0-1.73,1.33-2.88,3.17-2.88c1.8,0,3.13,1.15,3.13,2.88c0,1.66-1.33,2.88-3.13,2.88
		C-1681.41-4582.36-1682.75-4583.58-1682.75-4585.24z M-1682.24-4579.12h5.25v20.16h-5.25V-4579.12z"/>
	<path class="st3" d="M-1672.67-4561.81l9-13.14h-7.99v-4.18h14.61v2.84l-9.04,13.14h9.32v4.18h-15.91V-4561.81z"/>
	<path class="st3" d="M-1654.6-4569.01c0-6.55,4.57-10.62,9.39-10.62c5.54,0,8.42,4.07,8.42,9.65c0,0.97-0.11,1.94-0.25,2.41h-12.42
		c0.43,3.31,2.59,5.04,5.58,5.04c1.66,0,3.1-0.5,4.54-1.4l1.8,3.24c-1.98,1.37-4.54,2.23-7.05,2.23
		C-1650.2-4558.46-1654.6-4562.38-1654.6-4569.01z M-1641.31-4571.06c0-2.74-1.22-4.46-3.82-4.46c-2.12,0-4,1.51-4.39,4.46H-1641.31
		z"/>
</g>
<g>
	<path class="st3" d="M-1804.25-4688.77c0-6.59,4.1-10.62,8.46-10.62c2.27,0,3.67,0.86,5.11,2.2l-0.22-3.17v-7.09h5.29v28.72h-4.28
		l-0.43-2.09h-0.11c-1.48,1.44-3.49,2.59-5.58,2.59C-1801.01-4678.22-1804.25-4682.18-1804.25-4688.77z M-1790.89-4684.67v-8.85
		c-1.22-1.12-2.48-1.51-3.74-1.51c-2.27,0-4.18,2.16-4.18,6.19c0,4.18,1.51,6.26,4.18,6.26
		C-1793.23-4682.58-1792.04-4683.15-1790.89-4684.67z"/>
	<path class="st3" d="M-1781.17-4688.77c0-6.55,4.57-10.62,9.39-10.62c5.54,0,8.42,4.07,8.42,9.65c0,0.97-0.11,1.94-0.25,2.41
		h-12.42c0.43,3.31,2.59,5.04,5.58,5.04c1.66,0,3.1-0.5,4.54-1.4l1.8,3.24c-1.98,1.37-4.54,2.23-7.05,2.23
		C-1776.78-4678.22-1781.17-4682.15-1781.17-4688.77z M-1767.89-4690.82c0-2.74-1.22-4.46-3.82-4.46c-2.12,0-4,1.51-4.39,4.46
		H-1767.89z"/>
	<path class="st3" d="M-1760.9-4681.07l2.41-3.31c1.8,1.4,3.53,2.2,5.4,2.2c2.02,0,2.92-0.86,2.92-2.12c0-1.51-2.09-2.2-4.21-3.02
		c-2.56-0.97-5.51-2.52-5.51-5.87c0-3.64,2.95-6.19,7.49-6.19c2.95,0,5.18,1.22,6.88,2.48l-2.38,3.2c-1.44-1.01-2.84-1.73-4.36-1.73
		c-1.8,0-2.66,0.79-2.66,1.94c0,1.48,1.98,2.02,4.1,2.81c2.66,1.01,5.62,2.34,5.62,6.08c0,3.53-2.77,6.37-8.03,6.37
		C-1755.93-4678.22-1758.92-4679.41-1760.9-4681.07z"/>
	<path class="st3" d="M-1742.43-4688.77c0-6.73,4.82-10.62,10.29-10.62c2.48,0,4.39,0.97,5.87,2.23l-2.52,3.42
		c-1.01-0.86-1.94-1.33-3.1-1.33c-3.06,0-5.15,2.48-5.15,6.3c0,3.78,2.09,6.23,5,6.23c1.44,0,2.81-0.68,3.92-1.62l2.09,3.49
		c-1.91,1.69-4.36,2.45-6.59,2.45C-1738.19-4678.22-1742.43-4682.11-1742.43-4688.77z"/>
	<path class="st3" d="M-1724.54-4688.77c0-6.55,4.57-10.62,9.39-10.62c5.54,0,8.42,4.07,8.42,9.65c0,0.97-0.11,1.94-0.25,2.41
		h-12.42c0.43,3.31,2.59,5.04,5.58,5.04c1.66,0,3.1-0.5,4.54-1.4l1.8,3.24c-1.98,1.37-4.54,2.23-7.05,2.23
		C-1720.15-4678.22-1724.54-4682.15-1724.54-4688.77z M-1711.26-4690.82c0-2.74-1.22-4.46-3.82-4.46c-2.12,0-4,1.51-4.39,4.46
		H-1711.26z"/>
	<path class="st3" d="M-1702.37-4698.88h4.32l0.36,2.66h0.14c1.76-1.73,3.82-3.17,6.55-3.17c4.36,0,6.23,3.02,6.23,8.1v12.56h-5.29
		v-11.91c0-3.1-0.86-4.21-2.84-4.21c-1.66,0-2.7,0.79-4.21,2.27v13.86h-5.25V-4698.88z"/>
	<path class="st3" d="M-1680.44-4688.77c0-6.59,4.1-10.62,8.46-10.62c2.27,0,3.67,0.86,5.11,2.2l-0.22-3.17v-7.09h5.29v28.72h-4.28
		l-0.43-2.09h-0.11c-1.48,1.44-3.49,2.59-5.58,2.59C-1677.2-4678.22-1680.44-4682.18-1680.44-4688.77z M-1667.09-4684.67v-8.85
		c-1.22-1.12-2.48-1.51-3.74-1.51c-2.27,0-4.18,2.16-4.18,6.19c0,4.18,1.51,6.26,4.18,6.26
		C-1669.43-4682.58-1668.24-4683.15-1667.09-4684.67z"/>
	<path class="st3" d="M-1657.37-4688.77c0-6.55,4.57-10.62,9.39-10.62c5.54,0,8.42,4.07,8.42,9.65c0,0.97-0.11,1.94-0.25,2.41
		h-12.42c0.43,3.31,2.59,5.04,5.58,5.04c1.66,0,3.1-0.5,4.54-1.4l1.8,3.24c-1.98,1.37-4.54,2.23-7.05,2.23
		C-1652.98-4678.22-1657.37-4682.15-1657.37-4688.77z M-1644.09-4690.82c0-2.74-1.22-4.46-3.82-4.46c-2.12,0-4,1.51-4.39,4.46
		H-1644.09z"/>
	<path class="st3" d="M-1635.19-4698.88h4.32l0.36,3.56h0.14c1.48-2.63,3.64-4.07,5.72-4.07c1.12,0,1.76,0.18,2.38,0.43l-0.94,4.57
		c-0.68-0.22-1.26-0.32-2.09-0.32c-1.58,0-3.49,1.04-4.64,3.96v12.02h-5.25V-4698.88z"/>
</g>
<g>
	<path class="st3" d="M-1799.06-4777.63l-5.9-9.65h5.69l2.02,3.6c0.58,1.12,1.19,2.27,1.8,3.38h0.14c0.47-1.12,1.01-2.27,1.48-3.38
		l1.69-3.6h5.47l-5.9,10.26l6.3,9.9h-5.69l-2.23-3.67c-0.65-1.19-1.3-2.41-1.94-3.56h-0.18c-0.58,1.15-1.12,2.34-1.69,3.56
		l-1.87,3.67h-5.47L-1799.06-4777.63z"/>
	<path class="st3" d="M-1784.63-4779.32h9.83v3.78h-9.83V-4779.32z"/>
	<path class="st3" d="M-1770.23-4795.85h5.25v7.24l-0.22,3.78c1.62-1.51,3.6-2.95,6.33-2.95c4.36,0,6.23,3.02,6.23,8.1v12.56h-5.29
		v-11.91c0-3.1-0.86-4.21-2.84-4.21c-1.66,0-2.7,0.79-4.21,2.27v13.86h-5.25V-4795.85z"/>
	<path class="st3" d="M-1748.45-4777.17c0-6.55,4.57-10.62,9.39-10.62c5.54,0,8.42,4.07,8.42,9.65c0,0.97-0.11,1.94-0.25,2.41
		h-12.42c0.43,3.31,2.59,5.04,5.58,5.04c1.66,0,3.1-0.5,4.54-1.4l1.8,3.24c-1.98,1.37-4.54,2.23-7.05,2.23
		C-1744.05-4766.62-1748.45-4770.54-1748.45-4777.17z M-1735.16-4779.22c0-2.74-1.22-4.46-3.82-4.46c-2.12,0-4,1.51-4.39,4.46
		H-1735.16z"/>
	<path class="st3" d="M-1726.77-4793.4c0-1.73,1.33-2.88,3.17-2.88c1.8,0,3.13,1.15,3.13,2.88c0,1.66-1.33,2.88-3.13,2.88
		C-1725.44-4790.52-1726.77-4791.74-1726.77-4793.4z M-1726.27-4787.28h5.25v20.16h-5.25V-4787.28z"/>
	<path class="st3" d="M-1716.66-4763.56c0-1.69,1.04-3.13,2.88-4.18v-0.18c-1.04-0.68-1.84-1.73-1.84-3.38
		c0-1.51,1.04-2.92,2.23-3.78v-0.14c-1.37-1.01-2.66-2.92-2.66-5.26c0-4.75,3.85-7.31,8.13-7.31c1.12,0,2.2,0.22,3.02,0.5h7.27v3.89
		h-3.46c0.54,0.68,0.94,1.8,0.94,3.06c0,4.54-3.46,6.84-7.78,6.84c-0.79,0-1.73-0.18-2.59-0.47c-0.58,0.47-0.86,0.94-0.86,1.73
		c0,1.08,0.79,1.66,3.17,1.66h3.42c4.86,0,7.49,1.51,7.49,5.04c0,4.07-4.21,7.16-10.94,7.16
		C-1712.99-4758.38-1716.66-4760-1716.66-4763.56z M-1702.33-4764.64c0-1.44-1.19-1.8-3.35-1.8h-2.45c-1.22,0-2.09-0.11-2.81-0.29
		c-0.9,0.72-1.33,1.51-1.33,2.34c0,1.69,1.87,2.66,4.82,2.66C-1704.42-4761.72-1702.33-4763.05-1702.33-4764.64z M-1704.78-4780.48
		c0-2.38-1.33-3.71-3.13-3.71s-3.17,1.33-3.17,3.71c0,2.38,1.4,3.71,3.17,3.71S-1704.78-4778.1-1704.78-4780.48z"/>
	<path class="st3" d="M-1693.83-4795.85h5.25v7.24l-0.22,3.78c1.62-1.51,3.6-2.95,6.33-2.95c4.36,0,6.23,3.02,6.23,8.1v12.56h-5.29
		v-11.91c0-3.1-0.86-4.21-2.84-4.21c-1.66,0-2.7,0.79-4.21,2.27v13.86h-5.25V-4795.85z"/>
	<path class="st3" d="M-1670.04-4774.18v-8.93h-2.84v-3.92l3.1-0.25l0.61-5.4h4.43v5.4h4.97v4.18h-4.97v8.93
		c0,2.3,0.94,3.38,2.74,3.38c0.65,0,1.44-0.22,1.98-0.43l0.86,3.85c-1.08,0.36-2.48,0.76-4.25,0.76
		C-1668.2-4766.62-1670.04-4769.64-1670.04-4774.18z"/>
</g>
<g>
	<path class="st3" d="M-3010.84-4885.06"/>
</g>
<g>
	<path class="st3" d="M-1320.21-3839.86c0-4.25,3.71-6.33,12.06-7.27c0.04-2.63-0.79-5.22-4.14-5.22c-2.34,0-4.43,1.12-5.9,2.16
		l-1.19-2.05c1.69-1.12,4.43-2.56,7.56-2.56c4.71,0,6.59,3.2,6.59,7.88v12.06h-2.41l-0.25-2.38h-0.11c-1.87,1.58-4.1,2.84-6.55,2.84
		C-1317.77-3834.39-1320.21-3836.33-1320.21-3839.86z M-1308.16-3839.47v-5.69c-6.88,0.79-9.21,2.45-9.21,5.11
		c0,2.34,1.62,3.28,3.6,3.28C-1311.79-3836.77-1310.14-3837.7-1308.16-3839.47z"/>
	<path class="st3" d="M-1301.1-3837.06l1.48-1.98c1.69,1.4,3.42,2.34,5.87,2.34c2.7,0,4.03-1.44,4.03-3.24
		c0-2.09-2.34-3.02-4.54-3.82c-2.77-1.01-5.87-2.3-5.87-5.62c0-3.02,2.41-5.43,6.59-5.43c2.3,0,4.43,0.97,5.9,2.16l-1.4,1.91
		c-1.33-0.97-2.74-1.73-4.5-1.73c-2.59,0-3.78,1.37-3.78,2.95c0,1.94,2.16,2.7,4.39,3.49c2.84,1.12,6.01,2.23,6.01,5.94
		c0,3.1-2.45,5.69-6.95,5.69C-1296.64-3834.39-1299.26-3835.54-1301.1-3837.06z"/>
	<path class="st3" d="M-1283.67-3844.54c0-6.52,4.32-10.26,9.25-10.26c2.56,0,4.32,1.08,5.69,2.34l-1.55,1.94
		c-1.15-1.08-2.41-1.8-4.03-1.8c-3.64,0-6.33,3.13-6.33,7.78c0,4.61,2.52,7.7,6.26,7.7c1.84,0,3.49-0.9,4.72-1.98l1.3,1.94
		c-1.73,1.55-3.89,2.48-6.26,2.48C-1279.75-3834.39-1283.67-3838.13-1283.67-3844.54z"/>
	<path class="st3" d="M-1266.29-3844.54c0-6.34,4.21-10.26,8.67-10.26c4.86,0,7.67,3.49,7.67,9.11c0,0.65-0.04,1.3-0.14,1.76h-13.28
		c0.18,4.32,2.77,7.2,6.66,7.2c1.91,0,3.49-0.61,4.93-1.58l1.08,1.94c-1.69,1.08-3.67,1.98-6.37,1.98
		C-1262.18-3834.39-1266.29-3838.17-1266.29-3844.54z M-1252.54-3846.05c0-4.17-1.87-6.37-5.04-6.37c-2.88,0-5.44,2.34-5.83,6.37
		H-1252.54z"/>
	<path class="st3" d="M-1245.01-3854.3h2.38l0.29,2.84h0.11c1.87-1.84,3.89-3.35,6.55-3.35c4.07,0,5.94,2.63,5.94,7.59v12.35h-2.95
		v-11.99c0-3.74-1.15-5.4-3.85-5.4c-2.05,0-3.53,1.08-5.54,3.17v14.22h-2.92V-3854.3z"/>
	<path class="st3" d="M-1224.71-3844.54c0-6.3,4-10.26,8.46-10.26c2.3,0,3.82,0.86,5.58,2.3l-0.14-3.38v-7.63h2.92v28.65h-2.41
		l-0.29-2.34h-0.07c-1.55,1.55-3.64,2.81-6.01,2.81C-1221.58-3834.39-1224.71-3838.06-1224.71-3844.54z M-1210.81-3839.65v-10.51
		c-1.76-1.55-3.28-2.16-4.97-2.16c-3.31,0-5.87,3.2-5.87,7.74c0,4.79,2.02,7.7,5.58,7.7
		C-1214.2-3836.87-1212.54-3837.81-1210.81-3839.65z"/>
	<path class="st3" d="M-1202.6-3844.54c0-6.34,4.21-10.26,8.67-10.26c4.86,0,7.67,3.49,7.67,9.11c0,0.65-0.04,1.3-0.14,1.76h-13.28
		c0.18,4.32,2.77,7.2,6.66,7.2c1.91,0,3.49-0.61,4.93-1.58l1.08,1.94c-1.69,1.08-3.67,1.98-6.37,1.98
		C-1198.5-3834.39-1202.6-3838.17-1202.6-3844.54z M-1188.85-3846.05c0-4.17-1.87-6.37-5.04-6.37c-2.88,0-5.44,2.34-5.83,6.37
		H-1188.85z"/>
	<path class="st3" d="M-1181.33-3854.3h2.38l0.29,3.56h0.11c1.33-2.45,3.31-4.07,5.51-4.07c0.83,0,1.4,0.11,2.05,0.43l-0.58,2.56
		c-0.65-0.22-1.08-0.32-1.84-0.32c-1.66,0-3.67,1.22-5,4.61v12.67h-2.92V-3854.3z"/>
</g>
<g>
	<path class="st3" d="M-1011.69-3839.15c0-4.25,3.71-6.33,12.06-7.27c0.04-2.63-0.79-5.22-4.14-5.22c-2.34,0-4.43,1.12-5.9,2.16
		l-1.19-2.05c1.69-1.12,4.43-2.56,7.56-2.56c4.71,0,6.59,3.2,6.59,7.88v12.06h-2.41l-0.25-2.38h-0.11c-1.87,1.58-4.1,2.84-6.55,2.84
		C-1009.25-3833.68-1011.69-3835.62-1011.69-3839.15z M-999.64-3838.75v-5.69c-6.88,0.79-9.21,2.45-9.21,5.11
		c0,2.34,1.62,3.28,3.6,3.28C-1003.27-3836.05-1001.62-3836.99-999.64-3838.75z"/>
	<path class="st3" d="M-990.31-3853.58h2.38l0.29,2.27h0.11c1.8-1.44,4-2.77,6.26-2.77c5.08,0,7.78,3.92,7.78,9.9
		c0,6.66-4,10.51-8.5,10.51c-1.8,0-3.64-0.83-5.47-2.27l0.07,3.42v6.73h-2.92V-3853.58z M-976.56-3844.15c0-4.39-1.51-7.45-5.4-7.45
		c-1.69,0-3.46,0.97-5.44,2.81v10.51c1.84,1.58,3.64,2.12,4.97,2.12C-979.04-3836.16-976.56-3839.22-976.56-3844.15z"/>
	<path class="st3" d="M-969.68-3843.83c0-6.33,4.21-10.26,8.67-10.26c4.86,0,7.67,3.49,7.67,9.11c0,0.65-0.04,1.3-0.14,1.76h-13.28
		c0.18,4.32,2.77,7.2,6.66,7.2c1.91,0,3.49-0.61,4.93-1.58l1.08,1.94c-1.69,1.08-3.67,1.98-6.37,1.98
		C-965.58-3833.68-969.68-3837.46-969.68-3843.83z M-955.93-3845.34c0-4.18-1.87-6.37-5.04-6.37c-2.88,0-5.44,2.34-5.83,6.37
		H-955.93z"/>
	<path class="st3" d="M-945.09-3844.29l-5.94-9.29h3.17l2.74,4.43c0.61,1.08,1.3,2.16,1.98,3.24h0.14c0.61-1.08,1.19-2.16,1.8-3.24
		l2.56-4.43h3.02l-5.9,9.58l6.41,9.86h-3.2l-2.99-4.71c-0.68-1.19-1.4-2.38-2.12-3.53h-0.18c-0.72,1.15-1.37,2.34-2.05,3.53
		l-2.77,4.71h-3.1L-945.09-3844.29z"/>
</g>
<g>
	<path class="st3" d="M-1483.74-3837.06l1.48-1.98c1.69,1.4,3.42,2.34,5.87,2.34c2.7,0,4.03-1.44,4.03-3.24
		c0-2.09-2.34-3.02-4.54-3.82c-2.77-1.01-5.87-2.3-5.87-5.62c0-3.02,2.41-5.43,6.59-5.43c2.3,0,4.43,0.97,5.9,2.16l-1.4,1.91
		c-1.33-0.97-2.74-1.73-4.5-1.73c-2.59,0-3.78,1.37-3.78,2.95c0,1.94,2.16,2.7,4.39,3.49c2.84,1.12,6.01,2.23,6.01,5.94
		c0,3.1-2.45,5.69-6.95,5.69C-1479.28-3834.39-1481.91-3835.54-1483.74-3837.06z"/>
	<path class="st3" d="M-1465.06-3840.73v-11.16h-2.95v-2.23l3.06-0.18l0.32-5.51h2.48v5.51h5.36v2.41h-5.36v11.27
		c0,2.38,0.72,3.82,3.06,3.82c0.72,0,1.62-0.25,2.27-0.5l0.58,2.2c-1.08,0.36-2.38,0.72-3.46,0.72
		C-1463.76-3834.39-1465.06-3836.91-1465.06-3840.73z"/>
	<path class="st3" d="M-1454.37-3844.54c0-6.34,4.21-10.26,8.67-10.26c4.86,0,7.67,3.49,7.67,9.11c0,0.65-0.04,1.3-0.14,1.76h-13.28
		c0.18,4.32,2.77,7.2,6.66,7.2c1.91,0,3.49-0.61,4.93-1.58l1.08,1.94c-1.69,1.08-3.67,1.98-6.37,1.98
		C-1450.26-3834.39-1454.37-3838.17-1454.37-3844.54z M-1440.62-3846.05c0-4.17-1.87-6.37-5.04-6.37c-2.88,0-5.44,2.34-5.83,6.37
		H-1440.62z"/>
	<path class="st3" d="M-1433.09-3854.3h2.38l0.29,2.88h0.11c1.69-1.87,3.78-3.38,6.05-3.38c3.02,0,4.61,1.48,5.36,3.78
		c2.09-2.23,4.14-3.78,6.48-3.78c3.96,0,5.9,2.63,5.9,7.59v12.35h-2.95v-11.99c0-3.74-1.19-5.4-3.78-5.4
		c-1.58,0-3.24,1.04-5.11,3.17v14.22h-2.92v-11.99c0-3.74-1.19-5.4-3.82-5.4c-1.51,0-3.24,1.04-5.08,3.17v14.22h-2.92V-3854.3z"/>
</g>
<g>
	<path class="st3" d="M-1060.95-3241.19c0-6.3,4-10.26,8.46-10.26c2.3,0,3.82,0.86,5.58,2.3l-0.14-3.38v-7.63h2.92v28.65h-2.41
		l-0.29-2.34h-0.07c-1.55,1.55-3.64,2.81-6.01,2.81C-1057.82-3231.03-1060.95-3234.71-1060.95-3241.19z M-1047.06-3236.29v-10.51
		c-1.76-1.55-3.28-2.16-4.97-2.16c-3.31,0-5.87,3.2-5.87,7.74c0,4.79,2.02,7.7,5.58,7.7
		C-1050.44-3233.52-1048.78-3234.45-1047.06-3236.29z"/>
	<path class="st3" d="M-1038.85-3241.19c0-6.34,4.21-10.26,8.67-10.26c4.86,0,7.67,3.49,7.67,9.11c0,0.65-0.04,1.3-0.14,1.76h-13.28
		c0.18,4.32,2.77,7.2,6.66,7.2c1.91,0,3.49-0.61,4.93-1.58l1.08,1.94c-1.69,1.08-3.67,1.98-6.37,1.98
		C-1034.74-3231.03-1038.85-3234.81-1038.85-3241.19z M-1025.1-3242.7c0-4.17-1.87-6.37-5.04-6.37c-2.88,0-5.44,2.34-5.83,6.37
		H-1025.1z"/>
	<path class="st3" d="M-1019.84-3233.7l1.48-1.98c1.69,1.4,3.42,2.34,5.87,2.34c2.7,0,4.03-1.44,4.03-3.24
		c0-2.09-2.34-3.02-4.54-3.82c-2.77-1.01-5.87-2.3-5.87-5.62c0-3.02,2.41-5.43,6.59-5.43c2.3,0,4.43,0.97,5.9,2.16l-1.4,1.91
		c-1.33-0.97-2.74-1.73-4.5-1.73c-2.59,0-3.78,1.37-3.78,2.95c0,1.94,2.16,2.7,4.39,3.49c2.84,1.12,6.01,2.23,6.01,5.94
		c0,3.1-2.45,5.69-6.95,5.69C-1015.38-3231.03-1018-3232.19-1019.84-3233.7z"/>
	<path class="st3" d="M-1002.41-3241.19c0-6.52,4.32-10.26,9.25-10.26c2.56,0,4.32,1.08,5.69,2.34l-1.55,1.94
		c-1.15-1.08-2.41-1.8-4.03-1.8c-3.64,0-6.33,3.13-6.33,7.78c0,4.61,2.52,7.7,6.26,7.7c1.84,0,3.49-0.9,4.72-1.98l1.3,1.94
		c-1.73,1.55-3.89,2.48-6.26,2.48C-998.49-3231.03-1002.41-3234.78-1002.41-3241.19z"/>
	<path class="st3" d="M-985.03-3241.19c0-6.34,4.21-10.26,8.67-10.26c4.86,0,7.67,3.49,7.67,9.11c0,0.65-0.04,1.3-0.14,1.76h-13.28
		c0.18,4.32,2.77,7.2,6.66,7.2c1.91,0,3.49-0.61,4.93-1.58l1.08,1.94c-1.69,1.08-3.67,1.98-6.37,1.98
		C-980.92-3231.03-985.03-3234.81-985.03-3241.19z M-971.28-3242.7c0-4.17-1.87-6.37-5.04-6.37c-2.88,0-5.44,2.34-5.83,6.37H-971.28
		z"/>
	<path class="st3" d="M-963.75-3250.94h2.38l0.29,2.84h0.11c1.87-1.84,3.89-3.35,6.55-3.35c4.07,0,5.94,2.63,5.94,7.59v12.35h-2.95
		v-11.99c0-3.74-1.15-5.4-3.85-5.4c-2.05,0-3.53,1.08-5.54,3.17v14.22h-2.92V-3250.94z"/>
	<path class="st3" d="M-943.45-3241.19c0-6.3,4-10.26,8.46-10.26c2.3,0,3.82,0.86,5.58,2.3l-0.14-3.38v-7.63h2.92v28.65h-2.41
		l-0.29-2.34h-0.07c-1.55,1.55-3.64,2.81-6.01,2.81C-940.32-3231.03-943.45-3234.71-943.45-3241.19z M-929.55-3236.29v-10.51
		c-1.76-1.55-3.28-2.16-4.97-2.16c-3.31,0-5.87,3.2-5.87,7.74c0,4.79,2.02,7.7,5.58,7.7
		C-932.94-3233.52-931.28-3234.45-929.55-3236.29z"/>
	<path class="st3" d="M-921.34-3241.19c0-6.34,4.21-10.26,8.67-10.26c4.86,0,7.67,3.49,7.67,9.11c0,0.65-0.04,1.3-0.14,1.76h-13.28
		c0.18,4.32,2.77,7.2,6.66,7.2c1.91,0,3.49-0.61,4.93-1.58l1.08,1.94c-1.69,1.08-3.67,1.98-6.37,1.98
		C-917.24-3231.03-921.34-3234.81-921.34-3241.19z M-907.59-3242.7c0-4.17-1.87-6.37-5.04-6.37c-2.88,0-5.44,2.34-5.83,6.37H-907.59
		z"/>
	<path class="st3" d="M-900.07-3250.94h2.38l0.29,3.56h0.11c1.33-2.45,3.31-4.07,5.51-4.07c0.83,0,1.4,0.11,2.05,0.43l-0.58,2.56
		c-0.65-0.22-1.08-0.32-1.84-0.32c-1.66,0-3.67,1.22-5,4.61v12.67h-2.92V-3250.94z"/>
</g>
<line class="st5" x1="-1744.22" y1="-3766.87" x2="-1744.22" y2="-3453.49"/>
<line class="st5" x1="-553.01" y1="-3636.93" x2="-553.01" y2="-3453.49"/>
<line class="st5" x1="-1454.24" y1="-3821.89" x2="-1454.24" y2="-3636.93"/>
<line class="st5" x1="-1269.98" y1="-3821.89" x2="-1269.98" y2="-3713.1"/>
<line class="st5" x1="-970.98" y1="-3821.89" x2="-970.98" y2="-3664.67"/>
<line class="st5" x1="-970.98" y1="-3343.91" x2="-970.98" y2="-3260.16"/>
<line class="st5" x1="-1883.23" y1="-3766.87" x2="-1883.23" y2="-3331.19"/>
<rect x="-1756.33" y="-3593.94" width="135.92" height="95.42"/>
<rect x="-1898.55" y="-3593.94" width="135.92" height="95.42"/>
<rect x="-579.38" y="-3575.16" width="135.92" height="57.85"/>
<g>
	<path class="st3" d="M-1885.81-3574.14h2.38l0.29,2.27h0.11c1.8-1.44,4-2.77,6.26-2.77c5.08,0,7.78,3.92,7.78,9.9
		c0,6.66-4,10.51-8.5,10.51c-1.8,0-3.64-0.83-5.47-2.27l0.07,3.42v6.73h-2.92V-3574.14z M-1872.06-3564.71
		c0-4.39-1.51-7.45-5.4-7.45c-1.69,0-3.46,0.97-5.44,2.81v10.51c1.84,1.58,3.64,2.12,4.97,2.12
		C-1874.54-3556.71-1872.06-3559.77-1872.06-3564.71z"/>
	<path class="st3" d="M-1865.18-3564.38c0-6.52,4.17-10.26,8.93-10.26c4.75,0,8.96,3.74,8.96,10.26c0,6.41-4.21,10.15-8.96,10.15
		C-1861-3554.23-1865.18-3557.97-1865.18-3564.38z M-1850.31-3564.38c0-4.64-2.45-7.78-5.94-7.78c-3.49,0-5.9,3.13-5.9,7.78
		c0,4.61,2.41,7.7,5.9,7.7C-1852.76-3556.68-1850.31-3559.77-1850.31-3564.38z"/>
	<path class="st3" d="M-1842.64-3580.29c0-1.26,0.9-2.02,2.12-2.02c1.15,0,2.12,0.76,2.12,2.02c0,1.15-0.97,1.98-2.12,1.98
		C-1841.74-3578.31-1842.64-3579.14-1842.64-3580.29z M-1842-3574.14h2.92v19.44h-2.92V-3574.14z"/>
	<path class="st3" d="M-1832.31-3574.14h2.38l0.29,2.84h0.11c1.87-1.84,3.89-3.35,6.55-3.35c4.07,0,5.94,2.63,5.94,7.59v12.35h-2.95
		v-11.99c0-3.74-1.15-5.4-3.85-5.4c-2.05,0-3.53,1.08-5.54,3.17v14.22h-2.92V-3574.14z"/>
	<path class="st3" d="M-1809.99-3560.57v-11.16h-2.95v-2.23l3.06-0.18l0.32-5.51h2.48v5.51h5.36v2.41h-5.36v11.27
		c0,2.38,0.72,3.82,3.06,3.82c0.72,0,1.62-0.25,2.27-0.5l0.58,2.2c-1.08,0.36-2.38,0.72-3.46,0.72
		C-1808.7-3554.23-1809.99-3556.75-1809.99-3560.57z"/>
	<path class="st3" d="M-1888.08-3513.69l1.48-1.98c1.69,1.4,3.42,2.34,5.87,2.34c2.7,0,4.03-1.44,4.03-3.24
		c0-2.09-2.34-3.02-4.54-3.82c-2.77-1.01-5.87-2.3-5.87-5.62c0-3.02,2.41-5.44,6.59-5.44c2.3,0,4.43,0.97,5.9,2.16l-1.4,1.91
		c-1.33-0.97-2.74-1.73-4.5-1.73c-2.59,0-3.78,1.37-3.78,2.95c0,1.94,2.16,2.7,4.39,3.49c2.84,1.12,6.01,2.23,6.01,5.94
		c0,3.1-2.45,5.69-6.95,5.69C-1883.61-3511.03-1886.24-3512.18-1888.08-3513.69z"/>
	<path class="st3" d="M-1869.79-3537.09c0-1.26,0.9-2.02,2.12-2.02c1.15,0,2.12,0.76,2.12,2.02c0,1.15-0.97,1.98-2.12,1.98
		C-1868.89-3535.11-1869.79-3535.94-1869.79-3537.09z M-1869.14-3530.94h2.92v19.44h-2.92V-3530.94z"/>
	<path class="st3" d="M-1861.65-3513.08l10.51-15.44h-9.36v-2.41h13.1v1.55l-10.55,15.48h10.87v2.41h-14.58V-3513.08z"/>
	<path class="st3" d="M-1844.51-3521.18c0-6.33,4.21-10.26,8.67-10.26c4.86,0,7.67,3.49,7.67,9.11c0,0.65-0.04,1.29-0.14,1.76
		h-13.28c0.18,4.32,2.77,7.2,6.66,7.2c1.91,0,3.49-0.61,4.93-1.58l1.08,1.94c-1.69,1.08-3.67,1.98-6.37,1.98
		C-1840.41-3511.03-1844.51-3514.81-1844.51-3521.18z M-1830.76-3522.69c0-4.17-1.87-6.37-5.04-6.37c-2.88,0-5.44,2.34-5.83,6.37
		H-1830.76z"/>
</g>
<g>
	<path class="st3" d="M-1748.31-3568.31c0-6.52,4.32-10.26,9.25-10.26c2.56,0,4.32,1.08,5.69,2.34l-1.55,1.94
		c-1.15-1.08-2.41-1.8-4.03-1.8c-3.64,0-6.33,3.13-6.33,7.78c0,4.61,2.52,7.7,6.26,7.7c1.84,0,3.49-0.9,4.72-1.98l1.3,1.94
		c-1.73,1.55-3.89,2.48-6.26,2.48C-1744.38-3558.16-1748.31-3561.9-1748.31-3568.31z"/>
	<path class="st3" d="M-1730.24-3563.63c0-4.25,3.71-6.33,12.06-7.27c0.04-2.63-0.79-5.22-4.14-5.22c-2.34,0-4.43,1.12-5.9,2.16
		l-1.19-2.05c1.69-1.12,4.43-2.56,7.56-2.56c4.71,0,6.59,3.2,6.59,7.88v12.06h-2.41l-0.25-2.38h-0.11c-1.87,1.58-4.1,2.84-6.55,2.84
		C-1727.79-3558.16-1730.24-3560.1-1730.24-3563.63z M-1718.18-3563.24v-5.69c-6.88,0.79-9.21,2.45-9.21,5.11
		c0,2.34,1.62,3.28,3.6,3.28C-1721.81-3560.54-1720.16-3561.47-1718.18-3563.24z"/>
	<path class="st3" d="M-1708.85-3578.07h2.38l0.29,2.27h0.11c1.8-1.44,4-2.77,6.26-2.77c5.08,0,7.78,3.92,7.78,9.9
		c0,6.66-4,10.51-8.5,10.51c-1.8,0-3.64-0.83-5.47-2.27l0.07,3.42v6.73h-2.92V-3578.07z M-1695.1-3568.64c0-4.39-1.51-7.45-5.4-7.45
		c-1.69,0-3.46,0.97-5.44,2.81v10.51c1.84,1.58,3.64,2.12,4.97,2.12C-1697.58-3560.64-1695.1-3563.7-1695.1-3568.64z"/>
	<path class="st3" d="M-1746.8-3544.08h2.92v7.96l-0.11,4.07c1.87-1.8,3.85-3.31,6.51-3.31c4.07,0,5.94,2.63,5.94,7.59v12.35h-2.95
		v-11.99c0-3.74-1.15-5.4-3.85-5.4c-2.05,0-3.53,1.08-5.54,3.17v14.22h-2.92V-3544.08z"/>
	<path class="st3" d="M-1726.64-3525.11c0-6.34,4.21-10.26,8.67-10.26c4.86,0,7.67,3.49,7.67,9.11c0,0.65-0.04,1.3-0.14,1.76h-13.28
		c0.18,4.32,2.77,7.2,6.66,7.2c1.91,0,3.49-0.61,4.93-1.58l1.08,1.94c-1.69,1.08-3.67,1.98-6.37,1.98
		C-1722.53-3514.96-1726.64-3518.74-1726.64-3525.11z M-1712.89-3526.62c0-4.17-1.87-6.37-5.04-6.37c-2.88,0-5.44,2.34-5.83,6.37
		H-1712.89z"/>
	<path class="st3" d="M-1706.01-3541.02c0-1.26,0.9-2.02,2.12-2.02c1.15,0,2.12,0.76,2.12,2.02c0,1.15-0.97,1.98-2.12,1.98
		C-1705.11-3539.04-1706.01-3539.87-1706.01-3541.02z M-1705.36-3534.87h2.92v19.44h-2.92V-3534.87z"/>
	<path class="st3" d="M-1697.22-3511.65c0-1.66,1.08-3.28,2.88-4.46v-0.14c-1.01-0.61-1.76-1.66-1.76-3.2c0-1.62,1.19-2.88,2.16-3.6
		v-0.14c-1.26-1.01-2.52-2.92-2.52-5.22c0-4.21,3.28-6.95,7.2-6.95c1.08,0,2.02,0.25,2.7,0.5h6.73v2.27h-4.1
		c0.97,0.94,1.69,2.45,1.69,4.21c0,4.14-3.1,6.8-7.02,6.8c-0.97,0-2.09-0.25-2.99-0.72c-0.72,0.61-1.3,1.33-1.3,2.45
		c0,1.26,0.79,2.2,3.46,2.2h3.89c4.46,0,6.69,1.4,6.69,4.61c0,3.53-3.78,6.66-9.68,6.66
		C-1693.99-3506.4-1697.22-3508.3-1697.22-3511.65z M-1682.39-3512.62c0-1.91-1.4-2.56-4.07-2.56h-3.56c-0.61,0-1.58-0.11-2.48-0.32
		c-1.48,1.04-2.12,2.3-2.12,3.49c0,2.16,2.16,3.56,5.83,3.56C-1684.91-3508.45-1682.39-3510.53-1682.39-3512.62z M-1684.91-3528.42
		c0-2.95-1.98-4.75-4.36-4.75c-2.41,0-4.36,1.76-4.36,4.75c0,2.92,2.02,4.82,4.36,4.82
		C-1686.93-3523.6-1684.91-3525.51-1684.91-3528.42z"/>
	<path class="st3" d="M-1675.63-3544.08h2.92v7.96l-0.11,4.07c1.87-1.8,3.85-3.31,6.51-3.31c4.07,0,5.94,2.63,5.94,7.59v12.35h-2.95
		v-11.99c0-3.74-1.15-5.4-3.85-5.4c-2.05,0-3.53,1.08-5.54,3.17v14.22h-2.92V-3544.08z"/>
	<path class="st3" d="M-1653.41-3521.3v-11.16h-2.95v-2.23l3.06-0.18l0.32-5.51h2.48v5.51h5.36v2.41h-5.36v11.27
		c0,2.38,0.72,3.82,3.06,3.82c0.72,0,1.62-0.25,2.27-0.5l0.58,2.2c-1.08,0.36-2.38,0.72-3.46,0.72
		C-1652.12-3514.96-1653.41-3517.48-1653.41-3521.3z"/>
</g>
<g>
	<path class="st3" d="M-553.87-3547.15l-5.94-9.29h3.17l2.74,4.43c0.61,1.08,1.3,2.16,1.98,3.24h0.14c0.61-1.08,1.19-2.16,1.8-3.24
		l2.56-4.43h3.02l-5.9,9.57l6.41,9.86h-3.2l-2.99-4.72c-0.68-1.19-1.4-2.38-2.12-3.53h-0.18c-0.72,1.15-1.37,2.34-2.05,3.53
		l-2.77,4.72h-3.1L-553.87-3547.15z"/>
	<path class="st3" d="M-542.24-3548.2h9.11v2.3h-9.11V-3548.2z"/>
	<path class="st3" d="M-528.13-3565.66h2.92v7.96l-0.11,4.07c1.87-1.8,3.85-3.31,6.51-3.31c4.07,0,5.94,2.63,5.94,7.59v12.35h-2.95
		v-11.99c0-3.74-1.15-5.4-3.85-5.4c-2.05,0-3.53,1.08-5.54,3.17v14.22h-2.92V-3565.66z"/>
	<path class="st3" d="M-507.97-3546.69c0-6.34,4.21-10.26,8.67-10.26c4.86,0,7.67,3.49,7.67,9.11c0,0.65-0.04,1.3-0.14,1.76h-13.28
		c0.18,4.32,2.77,7.2,6.66,7.2c1.91,0,3.49-0.61,4.93-1.58l1.08,1.94c-1.69,1.08-3.67,1.98-6.37,1.98
		C-503.86-3536.53-507.97-3540.31-507.97-3546.69z M-494.22-3548.2c0-4.18-1.87-6.37-5.04-6.37c-2.88,0-5.44,2.34-5.83,6.37H-494.22
		z"/>
	<path class="st3" d="M-487.34-3562.6c0-1.26,0.9-2.02,2.12-2.02c1.15,0,2.12,0.76,2.12,2.02c0,1.15-0.97,1.98-2.12,1.98
		C-486.44-3560.62-487.34-3561.44-487.34-3562.6z M-486.69-3556.44h2.92v19.44h-2.92V-3556.44z"/>
	<path class="st3" d="M-478.55-3533.22c0-1.66,1.08-3.28,2.88-4.46v-0.14c-1.01-0.61-1.76-1.66-1.76-3.2c0-1.62,1.19-2.88,2.16-3.6
		v-0.14c-1.26-1.01-2.52-2.92-2.52-5.22c0-4.21,3.28-6.95,7.2-6.95c1.08,0,2.02,0.25,2.7,0.5h6.73v2.27h-4.1
		c0.97,0.94,1.69,2.45,1.69,4.21c0,4.14-3.1,6.8-7.02,6.8c-0.97,0-2.09-0.25-2.99-0.72c-0.72,0.61-1.3,1.33-1.3,2.45
		c0,1.26,0.79,2.2,3.46,2.2h3.89c4.46,0,6.7,1.4,6.7,4.61c0,3.53-3.78,6.66-9.68,6.66
		C-475.32-3527.97-478.55-3529.88-478.55-3533.22z M-463.72-3534.19c0-1.91-1.4-2.56-4.07-2.56h-3.56c-0.61,0-1.58-0.11-2.48-0.32
		c-1.48,1.04-2.12,2.3-2.12,3.49c0,2.16,2.16,3.56,5.83,3.56C-466.24-3530.02-463.72-3532.11-463.72-3534.19z M-466.24-3550
		c0-2.95-1.98-4.75-4.36-4.75c-2.41,0-4.36,1.76-4.36,4.75c0,2.92,2.02,4.82,4.36,4.82C-468.26-3545.17-466.24-3547.08-466.24-3550z
		"/>
	<path class="st3" d="M-456.96-3565.66h2.92v7.96l-0.11,4.07c1.87-1.8,3.85-3.31,6.51-3.31c4.07,0,5.94,2.63,5.94,7.59v12.35h-2.95
		v-11.99c0-3.74-1.15-5.4-3.85-5.4c-2.05,0-3.53,1.08-5.54,3.17v14.22h-2.92V-3565.66z"/>
	<path class="st3" d="M-434.74-3542.87v-11.16h-2.95v-2.23l3.06-0.18l0.32-5.51h2.48v5.51h5.36v2.41h-5.36v11.27
		c0,2.38,0.72,3.82,3.06,3.82c0.72,0,1.62-0.25,2.27-0.5l0.58,2.2c-1.08,0.36-2.38,0.72-3.46,0.72
		C-433.45-3536.53-434.74-3539.05-434.74-3542.87z"/>
</g>
<g>
	<path class="st6" d="M-2715.01-1327.38c34.99-4.39,60.01-9.89,75.08-16.49c27.02-11.43,40.53-29.24,40.53-53.43
		c0-29.45-10.37-49.8-31.09-61.01c-20.72-11.21-51.15-16.82-91.26-16.82c-45.02,0-76.89,11-95.61,32.98
		c-13.38,16.27-22.29,38.26-26.74,65.96h-181.38c3.97-62.88,21.63-114.54,52.99-155c49.9-63.32,135.57-94.98,257.03-94.98
		c79.05,0,149.26,15.61,210.65,46.83c61.38,31.23,92.07,90.14,92.07,176.77v329.79c0,22.87,0.43,50.57,1.32,83.11
		c1.32,24.63,5.05,41.34,11.21,50.13c6.15,8.8,15.39,16.06,27.7,21.77v27.7h-204.47c-5.72-14.51-9.68-28.14-11.87-40.89
		c-2.21-12.75-3.96-27.26-5.28-43.53c-26.09,28.15-56.18,52.11-90.23,71.89c-40.69,23.3-86.69,34.96-137.99,34.96
		c-65.46,0-119.53-18.58-162.2-55.73c-42.69-37.15-64.02-89.8-64.02-157.97c0-88.38,34.33-152.36,102.99-191.94
		c37.66-21.54,93.03-36.94,166.12-46.17L-2715.01-1327.38z M-2600.07-1239.66c-12.04,7.48-24.19,13.52-36.44,18.14
		c-12.26,4.62-29.08,8.9-50.48,12.86l-42.79,7.91c-40.11,7.04-68.91,15.61-86.4,25.72c-29.61,17.15-44.41,43.76-44.41,79.81
		c0,32.1,9.04,55.3,27.13,69.59c18.08,14.29,40.07,21.44,65.97,21.44c41.08,0,78.91-11.87,113.52-35.62
		c34.61-23.74,52.57-67.05,53.91-129.93V-1239.66z"/>
</g>
<g>
	<linearGradient id="SVGID_1_" gradientUnits="userSpaceOnUse" x1="-5028.2935" y1="-753.0863" x2="-5028.2935" y2="-1511.5961">
		<stop  offset="0.2067" style="stop-color:#44C030"/>
		<stop  offset="0.2277" style="stop-color:#42B92E;stop-opacity:0.9736"/>
		<stop  offset="0.435" style="stop-color:#2A781E;stop-opacity:0.7123"/>
		<stop  offset="0.6232" style="stop-color:#184411;stop-opacity:0.475"/>
		<stop  offset="0.786" style="stop-color:#0B1F08;stop-opacity:0.2697"/>
		<stop  offset="0.9171" style="stop-color:#030802;stop-opacity:0.1045"/>
		<stop  offset="1" style="stop-color:#000000;stop-opacity:0"/>
	</linearGradient>
	<path class="st7" d="M-5032.77-1212.81c34.99-4.39,60.01-9.89,75.08-16.49c27.02-11.43,40.53-29.24,40.53-53.43
		c0-29.45-10.37-49.8-31.09-61.01c-20.72-11.21-51.15-16.82-91.26-16.82c-45.02,0-76.89,11-95.61,32.98
		c-13.38,16.27-22.29,38.26-26.74,65.96h-181.38c3.97-62.88,21.63-114.54,52.99-155c49.9-63.32,135.57-94.98,257.03-94.98
		c79.05,0,149.26,15.61,210.65,46.83c61.38,31.23,92.07,90.14,92.07,176.77v329.79c0,22.87,0.43,50.57,1.32,83.11
		c1.32,24.63,5.05,41.34,11.21,50.13c6.15,8.8,15.39,16.06,27.7,21.77v27.7h-204.47c-5.72-14.51-9.68-28.14-11.87-40.89
		c-2.21-12.75-3.96-27.26-5.28-43.53c-26.09,28.15-56.18,52.11-90.23,71.89c-40.69,23.3-86.69,34.96-138,34.96
		c-65.46,0-119.53-18.58-162.2-55.73c-42.69-37.15-64.02-89.8-64.02-157.97c0-88.38,34.33-152.36,102.99-191.94
		c37.66-21.54,93.03-36.94,166.12-46.17L-5032.77-1212.81z M-4917.83-1125.09c-12.04,7.48-24.19,13.52-36.44,18.14
		c-12.26,4.62-29.08,8.9-50.48,12.86l-42.79,7.91c-40.11,7.04-68.91,15.61-86.4,25.72c-29.61,17.15-44.41,43.76-44.41,79.81
		c0,32.1,9.04,55.3,27.13,69.58c18.08,14.29,40.07,21.44,65.97,21.44c41.08,0,78.91-11.87,113.52-35.62
		c34.61-23.74,52.57-67.05,53.91-129.93V-1125.09z"/>
</g>
<g>
	<linearGradient id="SVGID_2_" gradientUnits="userSpaceOnUse" x1="-640" y1="-1631.5034" x2="-640" y2="-890.258">
		<stop  offset="0.2067" style="stop-color:#44C030"/>
		<stop  offset="0.2277" style="stop-color:#42B92E;stop-opacity:0.9736"/>
		<stop  offset="0.435" style="stop-color:#2A781E;stop-opacity:0.7123"/>
		<stop  offset="0.6232" style="stop-color:#184411;stop-opacity:0.475"/>
		<stop  offset="0.786" style="stop-color:#0B1F08;stop-opacity:0.2697"/>
		<stop  offset="0.9171" style="stop-color:#030802;stop-opacity:0.1045"/>
		<stop  offset="1" style="stop-color:#000000;stop-opacity:0"/>
	</linearGradient>
	<path class="st8" d="M-613.43-1631.5c6.34,10.01,15.88,20.67,28.61,32.02c12.71,11.37,27.7,22.95,44.97,34.75
		c19.97,14.54,42.45,28.4,67.45,41.56c24.97,13.18,50.18,24.31,75.62,33.38c7.26,1.83,14.31,3.64,21.12,5.45
		c6.81,1.83,13.39,3.64,19.76,5.45v19.08h-17.71c-19.99-0.89-34.53,4.56-43.6,16.35c-9.09,11.82-13.63,25-13.63,39.51v298.41
		c0,25.44,3.41,43.84,10.22,55.19c6.81,11.37,17.48,17.03,32.02,17.03c7.26,0,15.44-1.36,24.53-4.09
		c9.07-2.73,19.08-6.81,29.98-12.26v19.08c-26.36,17.27-54.06,38.39-83.12,63.36c-29.08,25-62.23,50.65-99.47,76.99l-5.45-5.45
		c-0.92-0.92-2.28-1.83-4.09-2.73c-4.56-5.45-9.54-10.22-14.99-14.31c-5.45-4.09-10.9-8.39-16.35-12.94
		c-16.35-14.52-31.57-29.98-45.65-46.33c-14.09-16.35-21.59-34.51-22.48-54.5v-2.73c0-0.89,0.45-2.26,1.36-4.09v-5.45
		c-19.08,10.9-37.7,22.95-55.87,36.11c-18.18,13.18-35.9,27.04-53.14,41.56c-16.35,12.73-32.25,25-47.69,36.79
		c-15.46,11.82-30.89,23.16-46.33,34.07c-24.53-16.35-44.28-30.66-59.27-42.92s-27.04-24.29-36.11-36.11
		c-10.01-13.63-16.35-28.15-19.08-43.6c-2.73-15.44-4.09-34.96-4.09-58.59v-321.57c0-5.45,0.21-11.35,0.68-17.71
		c0.45-6.34,2.04-13.16,4.77-20.44c3.62-9.99,10.67-20.21,21.12-30.66c10.43-10.43,26.57-19.76,48.37-27.93
		c16.35-7.26,34.75-14.99,55.18-23.16c20.44-8.17,41.09-17.24,62-27.25c26.34-11.8,51.78-25.21,76.31-40.2
		c24.53-14.99,45.86-31.55,64.04-49.73V-1631.5z M-752.41-1083.75c0,20.91,2.94,36.58,8.86,47.01c5.9,10.45,14.31,15.67,25.21,15.67
		c4.54,0,9.3-0.68,14.31-2.04c4.98-1.36,10.22-3.41,15.67-6.13l54.5-32.7v-365.17c-25.44-9.07-46.8-20.65-64.04-34.75
		c-17.27-14.07-33.62-28.83-49.05-44.29l-5.45-5.45V-1083.75z"/>
</g>
<g>
	<path class="st3" d="M1776.45,957.11l-1.08-423.97l-211.98-105.99l-317.98,211.99v264.98c0,0,0,172.72,186.31,172.72
		c132.11,0,156.22-59.89,156.22-59.89s4.23,46.16,28.44,46.16c49.54,0,170.17,0,185.49,0v-26.59
		C1775.37,1036.51,1776.45,957.11,1776.45,957.11z M1563.39,930.61c0,0,1.08,52.99-51.91,52.99c-53,0-54.08-52.99-54.08-52.99
		V506.64l105.99,53V930.61z"/>
	<path class="st3" d="M905.83,673.45V427.14L614.35,621.46v8.1c31.39-8.09,79.49-8.84,79.49,62.56c0,105.99,0,370.97,0,370.97
		h211.98V725.54c9.12-14.83,68.01-97.55,185.14,19.58l127.94-127.94l-128.86-127.94L905.83,673.45z"/>
	<path class="st3" d="M291.48,611.36V82.67l105.99,53v185.48l105.99,79.5l185.49-92.74v-5.53c-31.39,4.29-79.49-6.61-79.49-113.71
		v-79.49L397.47,3.17L0,268.15v8.1c31.39-8.09,79.49-8.84,79.49,62.56c0,16.21,0,724.28,0,724.28h211.99V663.45
		c9.12-14.82,68.01-97.55,185.14,19.58l127.94-127.94L475.7,427.14L291.48,611.36z"/>
	<path class="st3" d="M2782.3,585.87V82.67l-291.48,167.84v5.42c31.37-8.3,80.37-9.75,80.37,62.33c0,105.99-0.87,744.83-0.87,744.83
		h211.98V813.2c105.96,19.66,105.98,143.91,105.98,143.91v105.99l211.99-1.31c0-264.47-211.99-263.67-211.99-263.67h-103.33
		l315.33-185.49h53l-158.99-185.49L2782.3,585.87z M2782.3,784.6V611.46c34.31-11.9,86.39-19.42,105.99,27.66
		C2909.37,689.76,2851.11,733.98,2782.3,784.6z"/>
	<path class="st3" d="M4080.71,506.64l-105.99-79.49l-185.49,92.74v5.53c31.39-4.29,79.49,6.61,79.49,113.71v423.97h211.98V533.14
		c105.99-26.5,105.99,52.99,105.99,52.99v476.97h211.98V533.14l-105.99-105.99L4080.71,506.64z"/>
	<path class="st3" d="M2119.85,506.64l-105.99-79.49l-185.49,92.74v5.53c31.39-4.29,79.49,6.61,79.49,113.71v423.97h211.98V533.14
		c105.99-26.5,105.99,52.99,105.99,52.99v476.97h211.99V533.14l-105.99-105.99L2119.85,506.64z"/>
	<path class="st3" d="M3206.27,639.13v185.49c0,238.48,211.98,249.41,211.98,249.41h105.99c211.99,0,211.99-222.92,211.99-222.92
		h-211.99v79.5c0,0,0,52.99-53,52.99c-53,0-53-52.99-53-52.99V780.54l105.99-0.09l211.99-141.32V533.14l-211.99-105.99
		L3206.27,639.13z M3524.25,692.03c0,51.61-105.99,53.08-105.99,53.08V506.64l105.99,53V692.03z"/>
</g>
<g>
	<g>
		<g>
			<path class="st3" d="M-8243.34,1766.13c132.11,0,156.22-59.89,156.22-59.89s4.23,46.16,28.45,46.16c49.54,0,170.17,0,185.49,0
				v-26.59c-26.5,0-25.42-79.41-25.42-79.41l-0.41-159.22h-212.66v132.72c0,0,1.08,52.99-51.91,52.99c-53,0-54.08-52.99-54.08-52.99
				v-132.72h-211.98v106.22C-8429.65,1593.41-8429.65,1766.13-8243.34,1766.13z"/>
		</g>
		<g>
			<path class="st3" d="M-8769.23,1752.4v-265.21h-211.98c0,118.72,0,265.21,0,265.21H-8769.23z"/>
		</g>
		<g>
			<path class="st3" d="M-9383.58,1752.4v-265.21h-211.98c0,143.58,0,265.21,0,265.21H-9383.58z"/>
		</g>
		<g>
			<rect x="-7449.22" y="1487.19" class="st3" width="211.99" height="265.21"/>
		</g>
		<g>
			<rect x="-7767.2" y="1487.19" class="st3" width="211.98" height="265.21"/>
		</g>
	</g>
	<g>
		<g>
			<path class="st3" d="M-8584.09,965.81l127.94-127.94l-128.86-127.94l-184.22,184.22V647.83l-291.48,194.32v8.1
				c31.39-8.09,79.49-8.84,79.49,62.56c0,27.17,0,64.84,0,105.77h211.98v-72.34C-8760.11,931.4-8701.22,848.68-8584.09,965.81z"/>
		</g>
		<g>
			<path class="st3" d="M-9198.45,903.71l127.94-127.94l-128.86-127.95l-184.22,184.22V303.35l105.99,53v185.48l105.99,79.5
				l185.49-92.74v-5.53c-31.39,4.29-79.49-6.61-79.49-113.71v-79.49l-211.99-105.99l-397.47,264.98v8.1
				c31.4-8.09,79.5-8.84,79.5,62.56c0,9.49,0,256.2,0,459.07h211.98V884.14C-9374.46,869.31-9315.58,786.59-9198.45,903.71z"/>
		</g>
		<g>
			<path class="st3" d="M-7343.23,647.83l-211.98,79.5l-105.99-79.5l-185.49,92.74v5.53c31.4-4.29,79.49,6.61,79.49,113.71v158.76
				h211.98V753.82c105.99-26.5,105.99,52.99,105.99,52.99v211.76h211.99V753.82L-7343.23,647.83z"/>
		</g>
		<g>
			<polygon class="st3" points="-8111.67,647.83 -8429.65,859.81 -8429.65,1018.57 -8217.67,1018.57 -8217.67,727.32 
				-8111.67,780.32 -8111.67,1018.57 -7899.01,1018.57 -7899.69,753.82 			"/>
		</g>
	</g>
	<rect x="-9595.57" y="1018.57" class="st2" width="211.99" height="478.25"/>
	<rect x="-8981.21" y="1018.57" class="st2" width="211.99" height="478.25"/>
	<rect x="-8429.65" y="1018.57" class="st2" width="211.99" height="478.25"/>
	<rect x="-8111.67" y="1018.57" class="st2" width="211.99" height="478.25"/>
	<rect x="-7767.2" y="1018.57" class="st2" width="211.99" height="478.25"/>
	<rect x="-7449.22" y="1018.57" class="st2" width="211.99" height="478.25"/>
</g>
<g class="st0">
	<g class="st9">
		<path class="st2" d="M1431.72,1545.44c132.11,0,156.22-59.89,156.22-59.89s4.23,46.16,28.44,46.16c49.54,0,170.17,0,185.49,0
			v-26.59c-26.5,0-25.42-79.41-25.42-79.41l-0.41-159.22h-212.66v132.72c0,0,1.08,52.99-51.91,52.99c-53,0-54.08-52.99-54.08-52.99
			V1266.5h-211.98v106.22C1245.41,1372.72,1245.41,1545.44,1431.72,1545.44z"/>
		<path class="st2" d="M905.84,1531.71V1266.5H693.85c0,118.72,0,265.21,0,265.21H905.84z"/>
		<path class="st2" d="M291.48,1531.71V1266.5H79.5c0,143.58,0,265.21,0,265.21H291.48z"/>
		<rect x="2225.84" y="1266.5" class="st2" width="211.99" height="265.21"/>
		<rect x="1907.87" y="1266.5" class="st2" width="211.98" height="265.21"/>
	</g>
	<g class="st9">
		<path class="st2" d="M1090.97,745.11l127.94-127.94l-128.86-127.94L905.84,673.44V427.13L614.36,621.45v8.1
			c31.39-8.09,79.49-8.84,79.49,62.56c0,27.17,0,64.84,0,105.77h211.98v-72.34C914.96,710.71,973.84,627.98,1090.97,745.11z"/>
		<path class="st2" d="M476.62,683.02l127.94-127.94L475.7,427.13L291.48,611.35V82.66l105.99,53v185.48l105.99,79.5l185.49-92.74
			v-5.53c-31.39,4.29-79.49-6.61-79.49-113.71v-79.49L397.47,3.16L0,268.14v8.1c31.39-8.09,79.49-8.84,79.49,62.56
			c0,9.49,0,256.2,0,459.07h211.99V663.44C300.6,648.62,359.49,565.89,476.62,683.02z"/>
		<path class="st2" d="M2331.83,427.13l-211.99,79.5l-105.99-79.5l-185.49,92.74v5.53c31.39-4.29,79.49,6.61,79.49,113.71v158.76
			h211.98V533.12c105.99-26.5,105.99,52.99,105.99,52.99v211.76h211.99V533.12L2331.83,427.13z"/>
		<polygon class="st2" points="1563.39,427.13 1245.41,639.12 1245.41,797.88 1457.4,797.88 1457.4,506.63 1563.39,559.62 
			1563.39,797.88 1776.05,797.88 1775.38,533.12 		"/>
	</g>
	<g class="st9">
		<g>
			<path class="st2" d="M281.48,807.88v458.25H89.5V807.88H281.48 M291.48,797.88H79.5v478.25h211.98V797.88L291.48,797.88z"/>
		</g>
	</g>
	<g class="st9">
		<g>
			<path class="st2" d="M895.84,807.88v458.25H703.85V807.88H895.84 M905.84,797.88H693.85v478.25h211.98V797.88L905.84,797.88z"/>
		</g>
	</g>
	<g class="st9">
		<g>
			<path class="st2" d="M1447.4,807.88v458.25h-191.99V807.88H1447.4 M1457.4,797.88h-211.99v478.25h211.99V797.88L1457.4,797.88z"
				/>
		</g>
	</g>
	<g class="st9">
		<g>
			<path class="st2" d="M1765.38,807.88v458.25h-191.98V807.88H1765.38 M1775.38,797.88h-211.98v478.25h211.98V797.88
				L1775.38,797.88z"/>
		</g>
	</g>
	<g class="st9">
		<g>
			<path class="st2" d="M2109.85,807.88v458.25h-191.99V807.88H2109.85 M2119.85,797.88h-211.99v478.25h211.99V797.88
				L2119.85,797.88z"/>
		</g>
	</g>
	<g class="st9">
		<g>
			<path class="st2" d="M2427.83,807.88v458.25h-191.98V807.88H2427.83 M2437.83,797.88h-211.98v478.25h211.98V797.88
				L2437.83,797.88z"/>
		</g>
	</g>
</g>
<g>
	<linearGradient id="SVGID_3_" gradientUnits="userSpaceOnUse" x1="-1793.3301" y1="182.0412" x2="-1793.3301" y2="923.2866">
		<stop  offset="0.2067" style="stop-color:#44C030"/>
		<stop  offset="0.2277" style="stop-color:#42B92E;stop-opacity:0.9736"/>
		<stop  offset="0.435" style="stop-color:#2A781E;stop-opacity:0.7123"/>
		<stop  offset="0.6232" style="stop-color:#184411;stop-opacity:0.475"/>
		<stop  offset="0.786" style="stop-color:#0B1F08;stop-opacity:0.2697"/>
		<stop  offset="0.9171" style="stop-color:#030802;stop-opacity:0.1045"/>
		<stop  offset="1" style="stop-color:#000000;stop-opacity:0"/>
	</linearGradient>
	<path class="st10" d="M-1766.76,182.04c6.34,10.01,15.88,20.67,28.61,32.02c12.71,11.37,27.7,22.95,44.97,34.75
		c19.97,14.54,42.45,28.4,67.45,41.56c24.97,13.18,50.18,24.31,75.62,33.38c7.26,1.83,14.31,3.64,21.12,5.45
		c6.81,1.83,13.39,3.64,19.76,5.45v19.08h-17.71c-19.99-0.89-34.53,4.56-43.6,16.35c-9.09,11.82-13.63,25-13.63,39.51V708
		c0,25.44,3.41,43.84,10.22,55.19c6.81,11.37,17.48,17.03,32.02,17.03c7.26,0,15.44-1.36,24.53-4.09
		c9.07-2.73,19.08-6.81,29.98-12.26v19.08c-26.36,17.27-54.06,38.39-83.12,63.36c-29.08,25-62.23,50.65-99.47,76.99l-5.45-5.45
		c-0.92-0.92-2.28-1.83-4.09-2.73c-4.56-5.45-9.54-10.22-14.99-14.31c-5.45-4.09-10.9-8.39-16.35-12.94
		c-16.35-14.52-31.57-29.98-45.65-46.33c-14.09-16.35-21.59-34.51-22.48-54.5v-2.73c0-0.89,0.45-2.26,1.36-4.09v-5.45
		c-19.08,10.9-37.7,22.95-55.87,36.11c-18.18,13.18-35.9,27.04-53.14,41.56c-16.35,12.73-32.25,25-47.69,36.79
		c-15.46,11.82-30.89,23.16-46.33,34.07c-24.53-16.35-44.28-30.66-59.27-42.92c-14.99-12.26-27.04-24.29-36.11-36.11
		c-10.01-13.63-16.35-28.15-19.08-43.6c-2.73-15.44-4.09-34.96-4.09-58.59V420.49c0-5.45,0.21-11.35,0.68-17.71
		c0.45-6.34,2.04-13.16,4.77-20.44c3.62-9.99,10.67-20.21,21.12-30.66c10.43-10.43,26.57-19.76,48.37-27.93
		c16.35-7.26,34.75-14.99,55.18-23.16c20.44-8.17,41.09-17.24,62-27.25c26.34-11.8,51.78-25.21,76.31-40.2
		c24.53-14.99,45.86-31.55,64.04-49.73V182.04z M-1905.74,729.8c0,20.91,2.94,36.58,8.86,47.01c5.9,10.45,14.31,15.67,25.21,15.67
		c4.54,0,9.3-0.68,14.31-2.04c4.98-1.36,10.22-3.41,15.67-6.13l54.5-32.7V386.43c-25.44-9.07-46.8-20.65-64.04-34.75
		c-17.27-14.07-33.62-28.83-49.05-44.29l-5.45-5.45V729.8z"/>
</g>
</svg>
