<?xml version="1.0" encoding="utf-8"?>
<!-- Generator: Adobe Illustrator 25.2.3, SVG Export Plug-In . SVG Version: 6.00 Build 0)  -->
<svg version="1.1" id="Layer_1" xmlns="http://www.w3.org/2000/svg" xmlns:xlink="http://www.w3.org/1999/xlink" x="0px" y="0px"
	 viewBox="0 0 1080 1080" style="enable-background:new 0 0 1080 1080;" xml:space="preserve">
<style type="text/css">
	.st0{display:none;}
	.st1{stroke:#44C030;stroke-miterlimit:10;}
	.st2{fill:#44C030;}
	.st3{fill:#FFFFFF;}
	.st4{fill:none;stroke:#44C030;stroke-miterlimit:10;}
	.st5{fill:none;stroke:#44C030;stroke-width:3;stroke-miterlimit:10;}
	.st6{fill:none;stroke:#44C030;stroke-width:5;stroke-miterlimit:10;}
	.st7{fill:url(#SVGID_1_);}
</style>
<rect x="-77.89" y="-66.05" class="st0" width="1305.98" height="1251.8"/>
<rect x="3104.37" y="-2494.8" class="st1" width="1405.07" height="1603.96"/>
<rect x="-4938.71" y="-2275.49" width="1920" height="1080"/>
<rect x="-4186.32" y="-3154.1" class="st2" width="1190.81" height="294.2"/>
<g>
	<path class="st3" d="M-932.62-3595.48"/>
</g>
<g>
	<line class="st4" x1="-932.71" y1="-1639.94" x2="987.29" y2="-1639.94"/>
	<line class="st4" x1="-932.71" y1="-1517.64" x2="987.29" y2="-1517.64"/>
	<line class="st4" x1="-932.71" y1="-1823.39" x2="987.29" y2="-1823.39"/>
	<line class="st4" x1="-932.71" y1="-1953.33" x2="987.29" y2="-1953.33"/>
	<line class="st4" x1="-932.71" y1="-1922.75" x2="987.29" y2="-1922.75"/>
</g>
<path d="M83.46-1730.36"/>
<path class="st3" d="M285.46-1701.09v-91.72l-61.15-30.57l-91.72,61.15v91.72l30.57,30.57l61.15-22.93v23.04h61.15V-1701.09z
	 M224.31-1670.51c-30.57,7.64-30.57-15.29-30.57-15.29v-114.65l30.57,15.29V-1670.51z"/>
<path class="st2" d="M224.31-1639.83v83.97c0,0,0,15.29-15.29,15.29s-15.29-15.29-15.29-15.29v-45.86h-61.15v22.93
	c0,0,0,61.15,61.15,61.15h30.57c61.15,0,61.15-61.15,61.15-61.15v-61.04H224.31z"/>
<path class="st3" d="M-396.62-1762.24v76.44c0,0,0,49.82,53.74,49.82c38.11,0,45.06-17.28,45.06-17.28s1.22,13.32,8.21,13.32
	c14.29,0,49.09,0,53.5,0v-7.67c-7.64,0-7.33-22.91-7.33-22.91l-0.31-122.3l-61.15-30.57L-396.62-1762.24 M-304.9-1678.16
	c0,0,0.31,15.29-14.98,15.29s-15.6-15.29-15.6-15.29v-122.3l30.57,15.29V-1678.16z"/>
<path class="st2" d="M-61.78-1823.1v-99.65l30.57,15.29v53.5l30.57,22.93l53.5-26.75v-1.59c-9.06,1.24-22.93-1.91-22.93-32.8v-22.93
	l-61.15-30.57l-114.65,76.44v2.34c9.06-2.33,22.93-2.55,22.93,18.05c0,0.98,0,10.71,0,25.48"/>
<path class="st3" d="M-122.93-1823.39c0,55.77,0,183.45,0,183.45h61.15v-115.28c2.63-4.28,19.62-28.14,53.4,5.65l36.91-36.91
	l-37.17-36.91l-53.14,53.14v-52.85"/>
<path class="st3" d="M498.42-1757.49l-23.46-47.98l-16.49-8.43l-18.55-9.48l-43.79,44.79c0,0,17.52-8.96,26.27,8.96l37.57,76.85
	c-5.15,2.82-11.15,5.08-17.15,5.08h-39.81v47.77h39.81l21.74-43.48l21.26,43.48h70.07l-54.74-111.96c6.04-4.13,14.3-8.42,22.57-8.42
	h39.81v-47.77h-39.81L498.42-1757.49z"/>
<path class="st3" d="M3990.47-1541.42l-1.02-401.12l-200.56-100.28l-300.84,200.56v250.7c0,0,0,163.41,176.26,163.41
	c124.99,0,147.8-56.66,147.8-56.66s4.01,43.67,26.91,43.67c46.87,0,161,0,175.49,0v-25.15
	C3989.45-1466.29,3990.47-1541.42,3990.47-1541.42z M3788.89-1566.49c0,0,1.02,50.14-49.12,50.14s-51.16-50.14-51.16-50.14v-401.12
	l100.28,50.14V-1566.49z"/>
<path class="st3" d="M3990.47-1541.42l-1.02-401.12l-200.56-100.28l-300.84,200.56v250.7c0,0,0,163.41,176.26,163.41
	c124.99,0,147.8-56.66,147.8-56.66s4.01,43.67,26.91,43.67c46.87,0,161,0,175.49,0v-25.15
	C3989.45-1466.29,3990.47-1541.42,3990.47-1541.42z M3788.89-1566.49c0,0,1.02,50.14-49.12,50.14s-51.16-50.14-51.16-50.14v-401.12
	l100.28,50.14V-1566.49z"/>
<line class="st4" x1="2733.09" y1="-1338.95" x2="4543.85" y2="-2546.13"/>
<line class="st4" x1="2808.3" y1="-1263.74" x2="4619.07" y2="-2470.92"/>
<line class="st4" x1="3488.05" y1="-2304.17" x2="3488.05" y2="-1129.65"/>
<line class="st4" x1="3688.61" y1="-2304.17" x2="3688.61" y2="-1129.65"/>
<line class="st4" x1="3788.89" y1="-2304.17" x2="3788.89" y2="-1129.65"/>
<line class="st4" x1="3989.46" y1="-2304.17" x2="3989.46" y2="-1129.65"/>
<line class="st4" x1="2731.52" y1="-1441.14" x2="5122.03" y2="-1441.14"/>
<line class="st4" x1="2731.52" y1="-2042.82" x2="5122.03" y2="-2042.82"/>
<line class="st4" x1="2921.5" y1="-2476.52" x2="4856.84" y2="-1508.84"/>
<line class="st4" x1="2922.18" y1="-2350.85" x2="4857.52" y2="-1383.17"/>
<rect x="-304.9" y="-1785.26" class="st2" width="61.3" height="107.41"/>
<circle class="st5" cx="209.02" cy="-1809.61" r="42.04"/>
<g>
	<path class="st3" d="M-624.1-2368.79c0-4.32,3.49-6.59,11.59-7.45c-0.07-1.98-0.94-3.49-3.42-3.49c-1.87,0-3.67,0.83-5.54,1.91
		l-1.91-3.49c2.38-1.48,5.25-2.66,8.42-2.66c5.11,0,7.74,3.06,7.74,8.89v11.77h-4.32l-0.4-2.16h-0.11
		c-1.76,1.51-3.78,2.66-6.08,2.66C-621.73-2362.82-624.1-2365.37-624.1-2368.79z M-612.51-2368.94v-4.07
		c-4.9,0.65-6.55,1.98-6.55,3.78c0,1.58,1.12,2.27,2.66,2.27C-614.89-2366.96-613.77-2367.68-612.51-2368.94z"/>
	<path class="st3" d="M-603.73-2365.66l2.41-3.31c1.8,1.4,3.53,2.2,5.4,2.2c2.02,0,2.92-0.86,2.92-2.12c0-1.51-2.09-2.2-4.21-3.02
		c-2.56-0.97-5.51-2.52-5.51-5.87c0-3.64,2.95-6.19,7.49-6.19c2.95,0,5.18,1.22,6.88,2.48l-2.38,3.2c-1.44-1.01-2.84-1.73-4.36-1.73
		c-1.8,0-2.66,0.79-2.66,1.94c0,1.48,1.98,2.02,4.1,2.81c2.66,1.01,5.62,2.34,5.62,6.08c0,3.53-2.77,6.37-8.03,6.37
		C-598.76-2362.82-601.75-2364-603.73-2365.66z"/>
	<path class="st3" d="M-585.26-2373.36c0-6.73,4.82-10.62,10.29-10.62c2.48,0,4.39,0.97,5.87,2.23l-2.52,3.42
		c-1.01-0.86-1.94-1.33-3.1-1.33c-3.06,0-5.15,2.48-5.15,6.3c0,3.78,2.09,6.23,5,6.23c1.44,0,2.81-0.68,3.92-1.62l2.09,3.49
		c-1.91,1.69-4.36,2.45-6.59,2.45C-581.01-2362.82-585.26-2366.7-585.26-2373.36z"/>
	<path class="st3" d="M-567.37-2373.36c0-6.55,4.57-10.62,9.39-10.62c5.54,0,8.42,4.07,8.42,9.65c0,0.97-0.11,1.94-0.25,2.41h-12.42
		c0.43,3.31,2.59,5.04,5.58,5.04c1.66,0,3.1-0.5,4.54-1.4l1.8,3.24c-1.98,1.37-4.54,2.23-7.05,2.23
		C-562.98-2362.82-567.37-2366.74-567.37-2373.36z M-554.08-2375.41c0-2.74-1.22-4.46-3.82-4.46c-2.12,0-4,1.51-4.39,4.46H-554.08z"
		/>
	<path class="st3" d="M-545.19-2383.48h4.32l0.36,2.66h0.14c1.76-1.73,3.82-3.17,6.55-3.17c4.36,0,6.23,3.02,6.23,8.1v12.56h-5.29
		v-11.91c0-3.1-0.86-4.21-2.84-4.21c-1.66,0-2.7,0.79-4.21,2.27v13.86h-5.25V-2383.48z"/>
	<path class="st3" d="M-523.27-2373.36c0-6.59,4.1-10.62,8.46-10.62c2.27,0,3.67,0.86,5.11,2.2l-0.22-3.17v-7.09h5.29v28.72h-4.28
		l-0.43-2.09h-0.11c-1.48,1.44-3.49,2.59-5.58,2.59C-520.03-2362.82-523.27-2366.78-523.27-2373.36z M-509.91-2369.26v-8.85
		c-1.22-1.12-2.48-1.51-3.74-1.51c-2.27,0-4.18,2.16-4.18,6.19c0,4.18,1.51,6.26,4.18,6.26
		C-512.25-2367.17-511.07-2367.75-509.91-2369.26z"/>
	<path class="st3" d="M-500.19-2373.36c0-6.55,4.57-10.62,9.39-10.62c5.54,0,8.42,4.07,8.42,9.65c0,0.97-0.11,1.94-0.25,2.41h-12.42
		c0.43,3.31,2.59,5.04,5.58,5.04c1.66,0,3.1-0.5,4.54-1.4l1.8,3.24c-1.98,1.37-4.54,2.23-7.05,2.23
		C-495.8-2362.82-500.19-2366.74-500.19-2373.36z M-486.91-2375.41c0-2.74-1.22-4.46-3.82-4.46c-2.12,0-4,1.51-4.39,4.46H-486.91z"
		/>
	<path class="st3" d="M-478.02-2383.48h4.32l0.36,3.56h0.14c1.48-2.63,3.64-4.07,5.72-4.07c1.12,0,1.76,0.18,2.38,0.43l-0.94,4.57
		c-0.68-0.22-1.26-0.32-2.09-0.32c-1.58,0-3.49,1.04-4.64,3.96v12.02h-5.25V-2383.48z"/>
</g>
<g>
	<path class="st3" d="M-624.1-2482.85c0-4.32,3.49-6.59,11.59-7.45c-0.07-1.98-0.94-3.49-3.42-3.49c-1.87,0-3.67,0.83-5.54,1.91
		l-1.91-3.49c2.38-1.48,5.25-2.66,8.42-2.66c5.11,0,7.74,3.06,7.74,8.89v11.77h-4.32l-0.4-2.16h-0.11
		c-1.76,1.51-3.78,2.66-6.08,2.66C-621.73-2476.88-624.1-2479.43-624.1-2482.85z M-612.51-2482.99v-4.07
		c-4.9,0.65-6.55,1.98-6.55,3.78c0,1.58,1.12,2.27,2.66,2.27C-614.89-2481.01-613.77-2481.73-612.51-2482.99z"/>
	<path class="st3" d="M-601.82-2497.54h4.32l0.36,2.09h0.14c1.69-1.44,3.78-2.59,5.94-2.59c4.97,0,7.92,4.07,7.92,10.26
		c0,6.91-4.14,10.91-8.57,10.91c-1.76,0-3.46-0.79-5-2.2l0.14,3.31v6.12h-5.25V-2497.54z M-588.57-2487.71c0-3.85-1.22-5.98-4-5.98
		c-1.37,0-2.59,0.68-4,2.09v8.86c1.3,1.12,2.59,1.51,3.67,1.51C-590.44-2481.23-588.57-2483.32-588.57-2487.71z"/>
	<path class="st3" d="M-579.89-2487.42c0-6.55,4.57-10.62,9.39-10.62c5.54,0,8.42,4.07,8.42,9.65c0,0.97-0.11,1.94-0.25,2.41h-12.42
		c0.43,3.31,2.59,5.04,5.58,5.04c1.66,0,3.1-0.5,4.54-1.4l1.8,3.24c-1.98,1.37-4.54,2.23-7.05,2.23
		C-575.5-2476.88-579.89-2480.8-579.89-2487.42z M-566.61-2489.47c0-2.74-1.22-4.46-3.82-4.46c-2.12,0-4,1.51-4.39,4.46H-566.61z"/>
	<path class="st3" d="M-554.26-2487.89l-5.9-9.65h5.69l2.02,3.6c0.58,1.12,1.19,2.27,1.8,3.38h0.14c0.47-1.12,1.01-2.27,1.48-3.38
		l1.69-3.6h5.47l-5.9,10.26l6.3,9.9h-5.69l-2.23-3.67c-0.65-1.19-1.3-2.41-1.94-3.56h-0.18c-0.58,1.15-1.12,2.34-1.69,3.56
		l-1.87,3.67h-5.47L-554.26-2487.89z"/>
</g>
<g>
	<path class="st3" d="M-625-2552.43l2.41-3.31c1.8,1.4,3.53,2.2,5.4,2.2c2.02,0,2.92-0.86,2.92-2.12c0-1.51-2.09-2.2-4.21-3.02
		c-2.56-0.97-5.51-2.52-5.51-5.87c0-3.64,2.95-6.19,7.49-6.19c2.95,0,5.18,1.22,6.88,2.48l-2.38,3.2c-1.44-1.01-2.84-1.73-4.36-1.73
		c-1.8,0-2.66,0.79-2.66,1.94c0,1.48,1.98,2.02,4.1,2.81c2.66,1.01,5.62,2.34,5.62,6.08c0,3.53-2.77,6.37-8.03,6.37
		C-620.03-2549.59-623.02-2550.78-625-2552.43z"/>
	<path class="st3" d="M-605.35-2557.15v-8.93h-2.84v-3.92l3.1-0.25l0.61-5.4h4.43v5.4h4.97v4.17h-4.97v8.93
		c0,2.3,0.94,3.38,2.74,3.38c0.65,0,1.44-0.22,1.98-0.43l0.86,3.85c-1.08,0.36-2.48,0.76-4.25,0.76
		C-603.51-2549.59-605.35-2552.61-605.35-2557.15z"/>
	<path class="st3" d="M-592.93-2560.14c0-6.55,4.57-10.62,9.39-10.62c5.54,0,8.42,4.07,8.42,9.65c0,0.97-0.11,1.94-0.25,2.41h-12.42
		c0.43,3.31,2.59,5.04,5.58,5.04c1.66,0,3.1-0.5,4.54-1.4l1.8,3.24c-1.98,1.37-4.54,2.23-7.05,2.23
		C-588.53-2549.59-592.93-2553.51-592.93-2560.14z M-579.64-2562.19c0-2.74-1.22-4.46-3.82-4.46c-2.12,0-4,1.51-4.39,4.46H-579.64z"
		/>
	<path class="st3" d="M-570.75-2570.25h4.32l0.36,2.7h0.14c1.69-1.76,3.56-3.2,6.19-3.2c2.88,0,4.57,1.3,5.54,3.53
		c1.84-1.94,3.78-3.53,6.41-3.53c4.28,0,6.26,3.02,6.26,8.1v12.56h-5.29v-11.92c0-3.1-0.9-4.21-2.81-4.21
		c-1.15,0-2.45,0.76-3.89,2.27v13.86h-5.29v-11.92c0-3.1-0.9-4.21-2.81-4.21c-1.15,0-2.45,0.76-3.89,2.27v13.86h-5.25V-2570.25z"/>
</g>
<g>
	<path class="st3" d="M-624.35-2648.53c0-6.73,4.82-10.62,10.29-10.62c2.48,0,4.39,0.97,5.87,2.23l-2.52,3.42
		c-1.01-0.86-1.94-1.33-3.1-1.33c-3.06,0-5.15,2.48-5.15,6.3c0,3.78,2.09,6.23,5,6.23c1.44,0,2.81-0.68,3.92-1.62l2.09,3.49
		c-1.91,1.69-4.36,2.45-6.59,2.45C-620.11-2637.98-624.35-2641.87-624.35-2648.53z"/>
	<path class="st3" d="M-605.56-2643.96c0-4.32,3.49-6.59,11.59-7.45c-0.07-1.98-0.94-3.49-3.42-3.49c-1.87,0-3.67,0.83-5.54,1.91
		l-1.91-3.49c2.38-1.48,5.25-2.66,8.42-2.66c5.11,0,7.74,3.06,7.74,8.89v11.77H-593l-0.4-2.16h-0.11c-1.76,1.51-3.78,2.66-6.08,2.66
		C-603.19-2637.98-605.56-2640.54-605.56-2643.96z M-593.97-2644.1v-4.07c-4.9,0.65-6.55,1.98-6.55,3.78c0,1.58,1.12,2.27,2.66,2.27
		C-596.35-2642.12-595.23-2642.84-593.97-2644.1z"/>
	<path class="st3" d="M-583.28-2658.65h4.32l0.36,2.09h0.14c1.69-1.44,3.78-2.59,5.94-2.59c4.97,0,7.92,4.07,7.92,10.26
		c0,6.91-4.14,10.91-8.57,10.91c-1.76,0-3.46-0.79-5-2.2l0.14,3.31v6.12h-5.25V-2658.65z M-570.03-2648.82c0-3.85-1.22-5.98-4-5.98
		c-1.37,0-2.59,0.68-4,2.09v8.85c1.3,1.12,2.59,1.51,3.67,1.51C-571.9-2642.34-570.03-2644.43-570.03-2648.82z"/>
	<path class="st3" d="M-551.92-2667.21h5.25v7.24l-0.22,3.78c1.62-1.51,3.6-2.95,6.33-2.95c4.36,0,6.23,3.02,6.23,8.1v12.56h-5.29
		v-11.91c0-3.1-0.86-4.21-2.84-4.21c-1.66,0-2.7,0.79-4.21,2.27v13.86h-5.25V-2667.21z"/>
	<path class="st3" d="M-530.14-2648.53c0-6.55,4.57-10.62,9.39-10.62c5.54,0,8.42,4.07,8.42,9.65c0,0.97-0.11,1.94-0.25,2.41H-525
		c0.43,3.31,2.59,5.04,5.58,5.04c1.66,0,3.1-0.5,4.54-1.4l1.8,3.24c-1.98,1.37-4.54,2.23-7.05,2.23
		C-525.75-2637.98-530.14-2641.91-530.14-2648.53z M-516.86-2650.58c0-2.74-1.22-4.46-3.82-4.46c-2.12,0-4,1.51-4.39,4.46H-516.86z"
		/>
	<path class="st3" d="M-508.47-2664.77c0-1.73,1.33-2.88,3.17-2.88c1.8,0,3.13,1.15,3.13,2.88c0,1.66-1.33,2.88-3.13,2.88
		C-507.14-2661.89-508.47-2663.11-508.47-2664.77z M-507.97-2658.65h5.25v20.16h-5.25V-2658.65z"/>
	<path class="st3" d="M-498.36-2634.93c0-1.69,1.04-3.13,2.88-4.18v-0.18c-1.04-0.68-1.84-1.73-1.84-3.38
		c0-1.51,1.04-2.92,2.23-3.78v-0.14c-1.37-1.01-2.66-2.92-2.66-5.26c0-4.75,3.85-7.31,8.13-7.31c1.12,0,2.2,0.22,3.02,0.5h7.27v3.89
		h-3.46c0.54,0.68,0.94,1.8,0.94,3.06c0,4.54-3.46,6.84-7.78,6.84c-0.79,0-1.73-0.18-2.59-0.47c-0.58,0.47-0.86,0.94-0.86,1.73
		c0,1.08,0.79,1.66,3.17,1.66h3.42c4.86,0,7.49,1.51,7.49,5.04c0,4.07-4.21,7.16-10.94,7.16
		C-494.68-2629.74-498.36-2631.36-498.36-2634.93z M-484.03-2636c0-1.44-1.19-1.8-3.35-1.8h-2.45c-1.22,0-2.09-0.11-2.81-0.29
		c-0.9,0.72-1.33,1.51-1.33,2.34c0,1.69,1.87,2.66,4.82,2.66C-486.12-2633.09-484.03-2634.42-484.03-2636z M-486.48-2651.84
		c0-2.38-1.33-3.71-3.13-3.71s-3.17,1.33-3.17,3.71c0,2.38,1.4,3.71,3.17,3.71S-486.48-2649.47-486.48-2651.84z"/>
	<path class="st3" d="M-475.53-2667.21h5.25v7.24l-0.22,3.78c1.62-1.51,3.6-2.95,6.33-2.95c4.36,0,6.23,3.02,6.23,8.1v12.56h-5.29
		v-11.91c0-3.1-0.86-4.21-2.84-4.21c-1.66,0-2.7,0.79-4.21,2.27v13.86h-5.25V-2667.21z"/>
	<path class="st3" d="M-451.74-2645.54v-8.93h-2.84v-3.92l3.1-0.25l0.61-5.4h4.43v5.4h4.97v4.18h-4.97v8.93
		c0,2.3,0.94,3.38,2.74,3.38c0.65,0,1.44-0.22,1.98-0.43l0.86,3.85c-1.08,0.36-2.48,0.76-4.25,0.76
		C-449.9-2637.98-451.74-2641.01-451.74-2645.54z"/>
</g>
<g>
	<path class="st3" d="M-623.09-2765.58h4.32l0.36,2.09h0.14c1.69-1.44,3.78-2.59,5.94-2.59c4.97,0,7.92,4.07,7.92,10.26
		c0,6.91-4.14,10.91-8.57,10.91c-1.76,0-3.46-0.79-5-2.2l0.14,3.31v6.12h-5.25V-2765.58z M-609.85-2755.75c0-3.85-1.22-5.98-4-5.98
		c-1.37,0-2.59,0.68-4,2.09v8.85c1.3,1.12,2.59,1.51,3.67,1.51C-611.72-2749.27-609.85-2751.36-609.85-2755.75z"/>
	<path class="st3" d="M-601.17-2755.46c0-6.73,4.64-10.62,9.68-10.62s9.68,3.89,9.68,10.62c0,6.66-4.64,10.55-9.68,10.55
		S-601.17-2748.8-601.17-2755.46z M-587.2-2755.46c0-3.82-1.55-6.3-4.28-6.3s-4.28,2.48-4.28,6.3c0,3.78,1.55,6.23,4.28,6.23
		S-587.2-2751.68-587.2-2755.46z"/>
	<path class="st3" d="M-577.88-2771.7c0-1.73,1.33-2.88,3.17-2.88c1.8,0,3.13,1.15,3.13,2.88c0,1.66-1.33,2.88-3.13,2.88
		C-576.55-2768.82-577.88-2770.04-577.88-2771.7z M-577.37-2765.58h5.25v20.16h-5.25V-2765.58z"/>
	<path class="st3" d="M-566.43-2765.58h4.32l0.36,2.66h0.14c1.76-1.73,3.82-3.17,6.55-3.17c4.36,0,6.23,3.02,6.23,8.1v12.56h-5.29
		v-11.91c0-3.1-0.86-4.21-2.84-4.21c-1.66,0-2.7,0.79-4.21,2.27v13.86h-5.25V-2765.58z"/>
	<path class="st3" d="M-542.6-2752.47v-8.93h-2.84v-3.92l3.1-0.25l0.61-5.4h4.43v5.4h4.97v4.18h-4.97v8.93
		c0,2.3,0.94,3.38,2.74,3.38c0.65,0,1.44-0.22,1.98-0.43l0.86,3.85c-1.08,0.36-2.48,0.76-4.25,0.76
		C-540.76-2744.92-542.6-2747.94-542.6-2752.47z"/>
	<path class="st3" d="M-521.97-2747.76l2.41-3.31c1.8,1.4,3.53,2.2,5.4,2.2c2.02,0,2.92-0.86,2.92-2.12c0-1.51-2.09-2.2-4.21-3.02
		c-2.56-0.97-5.51-2.52-5.51-5.87c0-3.64,2.95-6.19,7.49-6.19c2.95,0,5.18,1.22,6.88,2.48l-2.38,3.2c-1.44-1.01-2.84-1.73-4.36-1.73
		c-1.8,0-2.66,0.79-2.66,1.94c0,1.48,1.98,2.02,4.1,2.81c2.66,1.01,5.62,2.34,5.62,6.08c0,3.53-2.77,6.37-8.03,6.37
		C-517-2744.92-519.99-2746.1-521.97-2747.76z"/>
	<path class="st3" d="M-502.75-2771.7c0-1.73,1.33-2.88,3.17-2.88c1.8,0,3.13,1.15,3.13,2.88c0,1.66-1.33,2.88-3.13,2.88
		C-501.41-2768.82-502.75-2770.04-502.75-2771.7z M-502.24-2765.58h5.25v20.16h-5.25V-2765.58z"/>
	<path class="st3" d="M-492.67-2748.26l9-13.14h-7.99v-4.18h14.61v2.84l-9.04,13.14h9.32v4.18h-15.91V-2748.26z"/>
	<path class="st3" d="M-474.6-2755.46c0-6.55,4.57-10.62,9.39-10.62c5.54,0,8.42,4.07,8.42,9.65c0,0.97-0.11,1.94-0.25,2.41h-12.42
		c0.43,3.31,2.59,5.04,5.58,5.04c1.66,0,3.1-0.5,4.54-1.4l1.8,3.24c-1.98,1.37-4.54,2.23-7.05,2.23
		C-470.2-2744.92-474.6-2748.84-474.6-2755.46z M-461.31-2757.51c0-2.74-1.22-4.46-3.82-4.46c-2.12,0-4,1.51-4.39,4.46H-461.31z"/>
</g>
<g>
	<path class="st3" d="M-624.25-2875.22c0-6.59,4.1-10.62,8.46-10.62c2.27,0,3.67,0.86,5.11,2.2l-0.22-3.17v-7.09h5.29v28.72h-4.28
		l-0.43-2.09h-0.11c-1.48,1.44-3.49,2.59-5.58,2.59C-621.01-2864.68-624.25-2868.64-624.25-2875.22z M-610.89-2871.12v-8.85
		c-1.22-1.12-2.48-1.51-3.74-1.51c-2.27,0-4.18,2.16-4.18,6.19c0,4.18,1.51,6.26,4.18,6.26
		C-613.23-2869.03-612.04-2869.61-610.89-2871.12z"/>
	<path class="st3" d="M-601.17-2875.22c0-6.55,4.57-10.62,9.39-10.62c5.54,0,8.42,4.07,8.42,9.65c0,0.97-0.11,1.94-0.25,2.41h-12.42
		c0.43,3.31,2.59,5.04,5.58,5.04c1.66,0,3.1-0.5,4.54-1.4l1.8,3.24c-1.98,1.37-4.54,2.23-7.05,2.23
		C-596.78-2864.68-601.17-2868.6-601.17-2875.22z M-587.89-2877.28c0-2.74-1.22-4.46-3.82-4.46c-2.12,0-4,1.51-4.39,4.46H-587.89z"
		/>
	<path class="st3" d="M-580.9-2867.52l2.41-3.31c1.8,1.4,3.53,2.2,5.4,2.2c2.02,0,2.92-0.86,2.92-2.12c0-1.51-2.09-2.2-4.21-3.02
		c-2.56-0.97-5.51-2.52-5.51-5.87c0-3.64,2.95-6.19,7.49-6.19c2.95,0,5.18,1.22,6.88,2.48l-2.38,3.2c-1.44-1.01-2.84-1.73-4.36-1.73
		c-1.8,0-2.66,0.79-2.66,1.94c0,1.48,1.98,2.02,4.1,2.81c2.66,1.01,5.62,2.34,5.62,6.08c0,3.53-2.77,6.37-8.03,6.37
		C-575.93-2864.68-578.92-2865.87-580.9-2867.52z"/>
	<path class="st3" d="M-562.43-2875.22c0-6.73,4.82-10.62,10.29-10.62c2.48,0,4.39,0.97,5.87,2.23l-2.52,3.42
		c-1.01-0.86-1.94-1.33-3.1-1.33c-3.06,0-5.15,2.48-5.15,6.3c0,3.78,2.09,6.23,5,6.23c1.44,0,2.81-0.68,3.92-1.62l2.09,3.49
		c-1.91,1.69-4.36,2.45-6.59,2.45C-558.19-2864.68-562.43-2868.57-562.43-2875.22z"/>
	<path class="st3" d="M-544.54-2875.22c0-6.55,4.57-10.62,9.39-10.62c5.54,0,8.42,4.07,8.42,9.65c0,0.97-0.11,1.94-0.25,2.41h-12.42
		c0.43,3.31,2.59,5.04,5.58,5.04c1.66,0,3.1-0.5,4.54-1.4l1.8,3.24c-1.98,1.37-4.54,2.23-7.05,2.23
		C-540.15-2864.68-544.54-2868.6-544.54-2875.22z M-531.26-2877.28c0-2.74-1.22-4.46-3.82-4.46c-2.12,0-4,1.51-4.39,4.46H-531.26z"
		/>
	<path class="st3" d="M-522.37-2885.34h4.32l0.36,2.66h0.14c1.76-1.73,3.82-3.17,6.55-3.17c4.36,0,6.23,3.02,6.23,8.1v12.56h-5.29
		v-11.91c0-3.1-0.86-4.21-2.84-4.21c-1.66,0-2.7,0.79-4.21,2.27v13.86h-5.25V-2885.34z"/>
	<path class="st3" d="M-500.44-2875.22c0-6.59,4.1-10.62,8.46-10.62c2.27,0,3.67,0.86,5.11,2.2l-0.22-3.17v-7.09h5.29v28.72h-4.28
		l-0.43-2.09h-0.11c-1.48,1.44-3.49,2.59-5.58,2.59C-497.2-2864.68-500.44-2868.64-500.44-2875.22z M-487.09-2871.12v-8.85
		c-1.22-1.12-2.48-1.51-3.74-1.51c-2.27,0-4.18,2.16-4.18,6.19c0,4.18,1.51,6.26,4.18,6.26
		C-489.43-2869.03-488.24-2869.61-487.09-2871.12z"/>
	<path class="st3" d="M-477.37-2875.22c0-6.55,4.57-10.62,9.39-10.62c5.54,0,8.42,4.07,8.42,9.65c0,0.97-0.11,1.94-0.25,2.41h-12.42
		c0.43,3.31,2.59,5.04,5.58,5.04c1.66,0,3.1-0.5,4.54-1.4l1.8,3.24c-1.98,1.37-4.54,2.23-7.05,2.23
		C-472.98-2864.68-477.37-2868.6-477.37-2875.22z M-464.09-2877.28c0-2.74-1.22-4.46-3.82-4.46c-2.12,0-4,1.51-4.39,4.46H-464.09z"
		/>
	<path class="st3" d="M-455.19-2885.34h4.32l0.36,3.56h0.14c1.48-2.63,3.64-4.07,5.72-4.07c1.12,0,1.76,0.18,2.38,0.43l-0.94,4.57
		c-0.68-0.22-1.26-0.32-2.09-0.32c-1.58,0-3.49,1.04-4.64,3.96v12.02h-5.25V-2885.34z"/>
</g>
<g>
	<path class="st3" d="M-619.06-2964.09l-5.9-9.65h5.69l2.02,3.6c0.58,1.12,1.19,2.27,1.8,3.38h0.14c0.47-1.12,1.01-2.27,1.48-3.38
		l1.69-3.6h5.47l-5.9,10.26l6.3,9.9h-5.69l-2.23-3.67c-0.65-1.19-1.3-2.41-1.94-3.56h-0.18c-0.58,1.15-1.12,2.34-1.69,3.56
		l-1.87,3.67h-5.47L-619.06-2964.09z"/>
	<path class="st3" d="M-604.63-2965.78h9.83v3.78h-9.83V-2965.78z"/>
	<path class="st3" d="M-590.23-2982.3h5.25v7.24l-0.22,3.78c1.62-1.51,3.6-2.95,6.33-2.95c4.36,0,6.23,3.02,6.23,8.1v12.56h-5.29
		v-11.91c0-3.1-0.86-4.21-2.84-4.21c-1.66,0-2.7,0.79-4.21,2.27v13.86h-5.25V-2982.3z"/>
	<path class="st3" d="M-568.45-2963.62c0-6.55,4.57-10.62,9.39-10.62c5.54,0,8.42,4.07,8.42,9.65c0,0.97-0.11,1.94-0.25,2.41h-12.42
		c0.43,3.31,2.59,5.04,5.58,5.04c1.66,0,3.1-0.5,4.54-1.4l1.8,3.24c-1.98,1.37-4.54,2.23-7.05,2.23
		C-564.05-2953.07-568.45-2957-568.45-2963.62z M-555.16-2965.67c0-2.74-1.22-4.46-3.82-4.46c-2.12,0-4,1.51-4.39,4.46H-555.16z"/>
	<path class="st3" d="M-546.77-2979.85c0-1.73,1.33-2.88,3.17-2.88c1.8,0,3.13,1.15,3.13,2.88c0,1.66-1.33,2.88-3.13,2.88
		C-545.44-2976.97-546.77-2978.2-546.77-2979.85z M-546.27-2973.73h5.25v20.16h-5.25V-2973.73z"/>
	<path class="st3" d="M-536.66-2950.01c0-1.69,1.04-3.13,2.88-4.18v-0.18c-1.04-0.68-1.84-1.73-1.84-3.38
		c0-1.51,1.04-2.92,2.23-3.78v-0.14c-1.37-1.01-2.66-2.92-2.66-5.26c0-4.75,3.85-7.31,8.13-7.31c1.12,0,2.2,0.22,3.02,0.5h7.27v3.89
		h-3.46c0.54,0.68,0.94,1.8,0.94,3.06c0,4.54-3.46,6.84-7.78,6.84c-0.79,0-1.73-0.18-2.59-0.47c-0.58,0.47-0.86,0.94-0.86,1.73
		c0,1.08,0.79,1.66,3.17,1.66h3.42c4.86,0,7.49,1.51,7.49,5.04c0,4.07-4.21,7.16-10.94,7.16
		C-532.99-2944.83-536.66-2946.45-536.66-2950.01z M-522.33-2951.09c0-1.44-1.19-1.8-3.35-1.8h-2.45c-1.22,0-2.09-0.11-2.81-0.29
		c-0.9,0.72-1.33,1.51-1.33,2.34c0,1.69,1.87,2.66,4.82,2.66C-524.42-2948.18-522.33-2949.51-522.33-2951.09z M-524.78-2966.93
		c0-2.38-1.33-3.71-3.13-3.71s-3.17,1.33-3.17,3.71c0,2.38,1.4,3.71,3.17,3.71S-524.78-2964.56-524.78-2966.93z"/>
	<path class="st3" d="M-513.83-2982.3h5.25v7.24l-0.22,3.78c1.62-1.51,3.6-2.95,6.33-2.95c4.36,0,6.23,3.02,6.23,8.1v12.56h-5.29
		v-11.91c0-3.1-0.86-4.21-2.84-4.21c-1.66,0-2.7,0.79-4.21,2.27v13.86h-5.25V-2982.3z"/>
	<path class="st3" d="M-490.04-2960.63v-8.93h-2.84v-3.92l3.1-0.25l0.61-5.4h4.43v5.4h4.97v4.18h-4.97v8.93
		c0,2.3,0.94,3.38,2.74,3.38c0.65,0,1.44-0.22,1.98-0.43l0.86,3.85c-1.08,0.36-2.48,0.76-4.25,0.76
		C-488.2-2953.07-490.04-2956.1-490.04-2960.63z"/>
</g>
<g>
	<path class="st3" d="M-1830.84-3071.51"/>
</g>
<g>
	<path class="st3" d="M-140.21-2026.32c0-4.25,3.71-6.33,12.06-7.27c0.04-2.63-0.79-5.22-4.14-5.22c-2.34,0-4.43,1.12-5.9,2.16
		l-1.19-2.05c1.69-1.12,4.43-2.56,7.56-2.56c4.71,0,6.59,3.2,6.59,7.88v12.06h-2.41l-0.25-2.38h-0.11c-1.87,1.58-4.1,2.84-6.55,2.84
		C-137.77-2020.85-140.21-2022.79-140.21-2026.32z M-128.16-2025.92v-5.69c-6.88,0.79-9.21,2.45-9.21,5.11
		c0,2.34,1.62,3.28,3.6,3.28C-131.79-2023.22-130.14-2024.16-128.16-2025.92z"/>
	<path class="st3" d="M-121.1-2023.51l1.48-1.98c1.69,1.4,3.42,2.34,5.87,2.34c2.7,0,4.03-1.44,4.03-3.24
		c0-2.09-2.34-3.02-4.54-3.82c-2.77-1.01-5.87-2.3-5.87-5.62c0-3.02,2.41-5.43,6.59-5.43c2.3,0,4.43,0.97,5.9,2.16l-1.4,1.91
		c-1.33-0.97-2.74-1.73-4.5-1.73c-2.59,0-3.78,1.37-3.78,2.95c0,1.94,2.16,2.7,4.39,3.49c2.84,1.12,6.01,2.23,6.01,5.94
		c0,3.1-2.45,5.69-6.95,5.69C-116.64-2020.85-119.26-2022-121.1-2023.51z"/>
	<path class="st3" d="M-103.67-2031c0-6.52,4.32-10.26,9.25-10.26c2.56,0,4.32,1.08,5.69,2.34l-1.55,1.94
		c-1.15-1.08-2.41-1.8-4.03-1.8c-3.64,0-6.33,3.13-6.33,7.78c0,4.61,2.52,7.7,6.26,7.7c1.84,0,3.49-0.9,4.72-1.98l1.3,1.94
		c-1.73,1.55-3.89,2.48-6.26,2.48C-99.75-2020.85-103.67-2024.59-103.67-2031z"/>
	<path class="st3" d="M-86.29-2031c0-6.34,4.21-10.26,8.67-10.26c4.86,0,7.67,3.49,7.67,9.11c0,0.65-0.04,1.3-0.14,1.76h-13.28
		c0.18,4.32,2.77,7.2,6.66,7.2c1.91,0,3.49-0.61,4.93-1.58l1.08,1.94c-1.69,1.08-3.67,1.98-6.37,1.98
		C-82.18-2020.85-86.29-2024.63-86.29-2031z M-72.54-2032.51c0-4.17-1.87-6.37-5.04-6.37c-2.88,0-5.44,2.34-5.83,6.37H-72.54z"/>
	<path class="st3" d="M-65.01-2040.75h2.37l0.29,2.84h0.11c1.87-1.84,3.89-3.35,6.55-3.35c4.07,0,5.94,2.63,5.94,7.59v12.35h-2.95
		v-11.99c0-3.74-1.15-5.4-3.85-5.4c-2.05,0-3.53,1.08-5.54,3.17v14.22h-2.92V-2040.75z"/>
	<path class="st3" d="M-44.71-2031c0-6.3,4-10.26,8.46-10.26c2.3,0,3.82,0.86,5.58,2.3l-0.14-3.38v-7.63h2.92v28.65h-2.41
		l-0.29-2.34h-0.07c-1.55,1.55-3.64,2.81-6.01,2.81C-41.58-2020.85-44.71-2024.52-44.71-2031z M-30.81-2026.1v-10.51
		c-1.76-1.55-3.28-2.16-4.97-2.16c-3.31,0-5.87,3.2-5.87,7.74c0,4.79,2.02,7.7,5.58,7.7C-34.2-2023.33-32.54-2024.27-30.81-2026.1z"
		/>
	<path class="st3" d="M-22.6-2031c0-6.34,4.21-10.26,8.67-10.26c4.86,0,7.67,3.49,7.67,9.11c0,0.65-0.04,1.3-0.14,1.76h-13.28
		c0.18,4.32,2.77,7.2,6.66,7.2c1.91,0,3.49-0.61,4.93-1.58l1.08,1.94c-1.69,1.08-3.67,1.98-6.37,1.98
		C-18.5-2020.85-22.6-2024.63-22.6-2031z M-8.85-2032.51c0-4.17-1.87-6.37-5.04-6.37c-2.88,0-5.44,2.34-5.83,6.37H-8.85z"/>
	<path class="st3" d="M-1.33-2040.75h2.38l0.29,3.56h0.11c1.33-2.45,3.31-4.07,5.51-4.07c0.83,0,1.4,0.11,2.05,0.43l-0.58,2.56
		c-0.65-0.22-1.08-0.32-1.84-0.32c-1.66,0-3.67,1.22-5,4.61v12.67h-2.92V-2040.75z"/>
</g>
<g>
	<path class="st3" d="M168.31-2025.6c0-4.25,3.71-6.33,12.06-7.27c0.04-2.63-0.79-5.22-4.14-5.22c-2.34,0-4.43,1.12-5.9,2.16
		l-1.19-2.05c1.69-1.12,4.43-2.56,7.56-2.56c4.71,0,6.59,3.2,6.59,7.88v12.06h-2.41l-0.25-2.38h-0.11c-1.87,1.58-4.1,2.84-6.55,2.84
		C170.75-2020.13,168.31-2022.07,168.31-2025.6z M180.36-2025.21v-5.69c-6.88,0.79-9.21,2.45-9.21,5.11c0,2.34,1.62,3.28,3.6,3.28
		C176.73-2022.51,178.38-2023.44,180.36-2025.21z"/>
	<path class="st3" d="M189.69-2040.04h2.38l0.29,2.27h0.11c1.8-1.44,4-2.77,6.26-2.77c5.08,0,7.78,3.92,7.78,9.9
		c0,6.66-4,10.51-8.5,10.51c-1.8,0-3.64-0.83-5.47-2.27l0.07,3.42v6.73h-2.92V-2040.04z M203.44-2030.61c0-4.39-1.51-7.45-5.4-7.45
		c-1.69,0-3.46,0.97-5.44,2.81v10.51c1.84,1.58,3.64,2.12,4.97,2.12C200.96-2022.61,203.44-2025.67,203.44-2030.61z"/>
	<path class="st3" d="M210.32-2030.28c0-6.33,4.21-10.26,8.67-10.26c4.86,0,7.67,3.49,7.67,9.11c0,0.65-0.04,1.3-0.14,1.76h-13.28
		c0.18,4.32,2.77,7.2,6.66,7.2c1.91,0,3.49-0.61,4.93-1.58l1.08,1.94c-1.69,1.08-3.67,1.98-6.37,1.98
		C214.42-2020.13,210.32-2023.91,210.32-2030.28z M224.07-2031.79c0-4.18-1.87-6.37-5.04-6.37c-2.88,0-5.44,2.34-5.83,6.37H224.07z"
		/>
	<path class="st3" d="M234.91-2030.75l-5.94-9.29h3.17l2.74,4.43c0.61,1.08,1.3,2.16,1.98,3.24h0.14c0.61-1.08,1.19-2.16,1.8-3.24
		l2.56-4.43h3.02l-5.9,9.58l6.41,9.86h-3.2l-2.99-4.71c-0.68-1.19-1.4-2.38-2.12-3.53h-0.18c-0.72,1.15-1.37,2.34-2.05,3.53
		l-2.77,4.71h-3.1L234.91-2030.75z"/>
</g>
<g>
	<path class="st3" d="M-303.74-2023.51l1.48-1.98c1.69,1.4,3.42,2.34,5.87,2.34c2.7,0,4.03-1.44,4.03-3.24
		c0-2.09-2.34-3.02-4.54-3.82c-2.77-1.01-5.87-2.3-5.87-5.62c0-3.02,2.41-5.43,6.59-5.43c2.3,0,4.43,0.97,5.9,2.16l-1.4,1.91
		c-1.33-0.97-2.74-1.73-4.5-1.73c-2.59,0-3.78,1.37-3.78,2.95c0,1.94,2.16,2.7,4.39,3.49c2.84,1.12,6.01,2.23,6.01,5.94
		c0,3.1-2.45,5.69-6.95,5.69C-299.28-2020.85-301.91-2022-303.74-2023.51z"/>
	<path class="st3" d="M-285.06-2027.18v-11.16h-2.95v-2.23l3.06-0.18l0.32-5.51h2.48v5.51h5.36v2.41h-5.36v11.27
		c0,2.38,0.72,3.82,3.06,3.82c0.72,0,1.62-0.25,2.27-0.5l0.58,2.2c-1.08,0.36-2.38,0.72-3.46,0.72
		C-283.76-2020.85-285.06-2023.37-285.06-2027.18z"/>
	<path class="st3" d="M-274.37-2031c0-6.34,4.21-10.26,8.67-10.26c4.86,0,7.67,3.49,7.67,9.11c0,0.65-0.04,1.3-0.14,1.76h-13.28
		c0.18,4.32,2.77,7.2,6.66,7.2c1.91,0,3.49-0.61,4.93-1.58l1.08,1.94c-1.69,1.08-3.67,1.98-6.37,1.98
		C-270.26-2020.85-274.37-2024.63-274.37-2031z M-260.62-2032.51c0-4.17-1.87-6.37-5.04-6.37c-2.88,0-5.44,2.34-5.83,6.37H-260.62z"
		/>
	<path class="st3" d="M-253.09-2040.75h2.38l0.29,2.88h0.11c1.69-1.87,3.78-3.38,6.05-3.38c3.02,0,4.61,1.48,5.36,3.78
		c2.09-2.23,4.14-3.78,6.48-3.78c3.96,0,5.9,2.63,5.9,7.59v12.35h-2.95v-11.99c0-3.74-1.19-5.4-3.78-5.4
		c-1.58,0-3.24,1.04-5.11,3.17v14.22h-2.92v-11.99c0-3.74-1.19-5.4-3.82-5.4c-1.51,0-3.24,1.04-5.08,3.17v14.22h-2.92V-2040.75z"/>
</g>
<g>
	<path class="st3" d="M119.05-1427.64c0-6.3,4-10.26,8.46-10.26c2.3,0,3.82,0.86,5.58,2.3l-0.14-3.38v-7.63h2.92v28.65h-2.41
		l-0.29-2.34h-0.07c-1.55,1.55-3.64,2.81-6.01,2.81C122.18-1417.49,119.05-1421.16,119.05-1427.64z M132.94-1422.75v-10.51
		c-1.76-1.55-3.28-2.16-4.97-2.16c-3.31,0-5.87,3.2-5.87,7.74c0,4.79,2.02,7.7,5.58,7.7
		C129.56-1419.97,131.22-1420.91,132.94-1422.75z"/>
	<path class="st3" d="M141.15-1427.64c0-6.34,4.21-10.26,8.67-10.26c4.86,0,7.67,3.49,7.67,9.11c0,0.65-0.04,1.3-0.14,1.76h-13.28
		c0.18,4.32,2.77,7.2,6.66,7.2c1.91,0,3.49-0.61,4.93-1.58l1.08,1.94c-1.69,1.08-3.67,1.98-6.37,1.98
		C145.26-1417.49,141.15-1421.27,141.15-1427.64z M154.9-1429.15c0-4.17-1.87-6.37-5.04-6.37c-2.88,0-5.44,2.34-5.83,6.37H154.9z"/>
	<path class="st3" d="M160.16-1420.15l1.48-1.98c1.69,1.4,3.42,2.34,5.87,2.34c2.7,0,4.03-1.44,4.03-3.24
		c0-2.09-2.34-3.02-4.54-3.82c-2.77-1.01-5.87-2.3-5.87-5.62c0-3.02,2.41-5.43,6.59-5.43c2.3,0,4.43,0.97,5.9,2.16l-1.4,1.91
		c-1.33-0.97-2.74-1.73-4.5-1.73c-2.59,0-3.78,1.37-3.78,2.95c0,1.94,2.16,2.7,4.39,3.49c2.84,1.12,6.01,2.23,6.01,5.94
		c0,3.1-2.45,5.69-6.95,5.69C164.63-1417.49,162-1418.64,160.16-1420.15z"/>
	<path class="st3" d="M177.59-1427.64c0-6.52,4.32-10.26,9.25-10.26c2.56,0,4.32,1.08,5.69,2.34l-1.55,1.94
		c-1.15-1.08-2.41-1.8-4.03-1.8c-3.64,0-6.33,3.13-6.33,7.78c0,4.61,2.52,7.7,6.26,7.7c1.84,0,3.49-0.9,4.72-1.98l1.3,1.94
		c-1.73,1.55-3.89,2.48-6.26,2.48C181.51-1417.49,177.59-1421.23,177.59-1427.64z"/>
	<path class="st3" d="M194.97-1427.64c0-6.34,4.21-10.26,8.67-10.26c4.86,0,7.67,3.49,7.67,9.11c0,0.65-0.04,1.3-0.14,1.76h-13.28
		c0.18,4.32,2.77,7.2,6.66,7.2c1.91,0,3.49-0.61,4.93-1.58l1.08,1.94c-1.69,1.08-3.67,1.98-6.37,1.98
		C199.08-1417.49,194.97-1421.27,194.97-1427.64z M208.72-1429.15c0-4.17-1.87-6.37-5.04-6.37c-2.88,0-5.44,2.34-5.83,6.37H208.72z"
		/>
	<path class="st3" d="M216.25-1437.4h2.38l0.29,2.84h0.11c1.87-1.84,3.89-3.35,6.55-3.35c4.07,0,5.94,2.63,5.94,7.59v12.35h-2.95
		v-11.99c0-3.74-1.15-5.4-3.85-5.4c-2.05,0-3.53,1.08-5.54,3.17v14.22h-2.92V-1437.4z"/>
	<path class="st3" d="M236.55-1427.64c0-6.3,4-10.26,8.46-10.26c2.3,0,3.82,0.86,5.58,2.3l-0.14-3.38v-7.63h2.92v28.65h-2.41
		l-0.29-2.34h-0.07c-1.55,1.55-3.64,2.81-6.01,2.81C239.68-1417.49,236.55-1421.16,236.55-1427.64z M250.45-1422.75v-10.51
		c-1.76-1.55-3.28-2.16-4.97-2.16c-3.31,0-5.87,3.2-5.87,7.74c0,4.79,2.02,7.7,5.58,7.7
		C247.06-1419.97,248.72-1420.91,250.45-1422.75z"/>
	<path class="st3" d="M258.66-1427.64c0-6.34,4.21-10.26,8.67-10.26c4.86,0,7.67,3.49,7.67,9.11c0,0.65-0.04,1.3-0.14,1.76h-13.28
		c0.18,4.32,2.77,7.2,6.66,7.2c1.91,0,3.49-0.61,4.93-1.58l1.08,1.94c-1.69,1.08-3.67,1.98-6.37,1.98
		C262.76-1417.49,258.66-1421.27,258.66-1427.64z M272.41-1429.15c0-4.17-1.87-6.37-5.04-6.37c-2.88,0-5.44,2.34-5.83,6.37H272.41z"
		/>
	<path class="st3" d="M279.93-1437.4h2.38l0.29,3.56h0.11c1.33-2.45,3.31-4.07,5.51-4.07c0.83,0,1.4,0.11,2.05,0.43l-0.58,2.56
		c-0.65-0.22-1.08-0.32-1.84-0.32c-1.66,0-3.67,1.22-5,4.61v12.67h-2.92V-1437.4z"/>
</g>
<line class="st5" x1="-564.22" y1="-1953.33" x2="-564.22" y2="-1639.94"/>
<line class="st5" x1="626.99" y1="-1823.39" x2="626.99" y2="-1639.94"/>
<line class="st5" x1="-274.24" y1="-2008.34" x2="-274.24" y2="-1823.39"/>
<line class="st5" x1="-89.98" y1="-2008.34" x2="-89.98" y2="-1899.55"/>
<line class="st5" x1="209.02" y1="-2008.34" x2="209.02" y2="-1851.12"/>
<line class="st5" x1="209.02" y1="-1530.36" x2="209.02" y2="-1446.61"/>
<line class="st5" x1="-703.23" y1="-1953.33" x2="-703.23" y2="-1517.64"/>
<rect x="-576.33" y="-1780.4" width="135.92" height="95.42"/>
<rect x="-718.55" y="-1780.4" width="135.92" height="95.42"/>
<rect x="600.62" y="-1761.61" width="135.92" height="57.85"/>
<g>
	<path class="st3" d="M-705.81-1760.59h2.38l0.29,2.27h0.11c1.8-1.44,4-2.77,6.26-2.77c5.08,0,7.78,3.92,7.78,9.9
		c0,6.66-4,10.51-8.5,10.51c-1.8,0-3.64-0.83-5.47-2.27l0.07,3.42v6.73h-2.92V-1760.59z M-692.06-1751.16c0-4.39-1.51-7.45-5.4-7.45
		c-1.69,0-3.46,0.97-5.44,2.81v10.51c1.84,1.58,3.64,2.12,4.97,2.12C-694.54-1743.17-692.06-1746.23-692.06-1751.16z"/>
	<path class="st3" d="M-685.18-1750.84c0-6.52,4.17-10.26,8.93-10.26c4.75,0,8.96,3.74,8.96,10.26c0,6.41-4.21,10.15-8.96,10.15
		C-681-1740.69-685.18-1744.43-685.18-1750.84z M-670.31-1750.84c0-4.64-2.45-7.78-5.94-7.78c-3.49,0-5.9,3.13-5.9,7.78
		c0,4.61,2.41,7.7,5.9,7.7C-672.76-1743.13-670.31-1746.23-670.31-1750.84z"/>
	<path class="st3" d="M-662.64-1766.75c0-1.26,0.9-2.02,2.12-2.02c1.15,0,2.12,0.76,2.12,2.02c0,1.15-0.97,1.98-2.12,1.98
		C-661.74-1764.77-662.64-1765.59-662.64-1766.75z M-662-1760.59h2.92v19.44H-662V-1760.59z"/>
	<path class="st3" d="M-652.31-1760.59h2.38l0.29,2.84h0.11c1.87-1.84,3.89-3.35,6.55-3.35c4.07,0,5.94,2.63,5.94,7.59v12.35H-640
		v-11.99c0-3.74-1.15-5.4-3.85-5.4c-2.05,0-3.53,1.08-5.54,3.17v14.22h-2.92V-1760.59z"/>
	<path class="st3" d="M-629.99-1747.02v-11.16h-2.95v-2.23l3.06-0.18l0.32-5.51h2.48v5.51h5.36v2.41h-5.36v11.27
		c0,2.38,0.72,3.82,3.06,3.82c0.72,0,1.62-0.25,2.27-0.5l0.58,2.2c-1.08,0.36-2.38,0.72-3.46,0.72
		C-628.7-1740.69-629.99-1743.21-629.99-1747.02z"/>
	<path class="st3" d="M-708.08-1700.15l1.48-1.98c1.69,1.4,3.42,2.34,5.87,2.34c2.7,0,4.03-1.44,4.03-3.24
		c0-2.09-2.34-3.02-4.54-3.82c-2.77-1.01-5.87-2.3-5.87-5.62c0-3.02,2.41-5.44,6.59-5.44c2.3,0,4.43,0.97,5.9,2.16l-1.4,1.91
		c-1.33-0.97-2.74-1.73-4.5-1.73c-2.59,0-3.78,1.37-3.78,2.95c0,1.94,2.16,2.7,4.39,3.49c2.84,1.12,6.01,2.23,6.01,5.94
		c0,3.1-2.45,5.69-6.95,5.69C-703.61-1697.49-706.24-1698.64-708.08-1700.15z"/>
	<path class="st3" d="M-689.79-1723.55c0-1.26,0.9-2.02,2.12-2.02c1.15,0,2.12,0.76,2.12,2.02c0,1.15-0.97,1.98-2.12,1.98
		C-688.89-1721.57-689.79-1722.4-689.79-1723.55z M-689.14-1717.39h2.92v19.44h-2.92V-1717.39z"/>
	<path class="st3" d="M-681.65-1699.54l10.51-15.44h-9.36v-2.41h13.1v1.55l-10.55,15.48h10.87v2.41h-14.58V-1699.54z"/>
	<path class="st3" d="M-664.51-1707.64c0-6.33,4.21-10.26,8.67-10.26c4.86,0,7.67,3.49,7.67,9.11c0,0.65-0.04,1.29-0.14,1.76h-13.28
		c0.18,4.32,2.77,7.2,6.66,7.2c1.91,0,3.49-0.61,4.93-1.58l1.08,1.94c-1.69,1.08-3.67,1.98-6.37,1.98
		C-660.41-1697.49-664.51-1701.27-664.51-1707.64z M-650.76-1709.15c0-4.17-1.87-6.37-5.04-6.37c-2.88,0-5.44,2.34-5.83,6.37
		H-650.76z"/>
</g>
<g>
	<path class="st3" d="M-568.31-1754.77c0-6.52,4.32-10.26,9.25-10.26c2.56,0,4.32,1.08,5.69,2.34l-1.55,1.94
		c-1.15-1.08-2.41-1.8-4.03-1.8c-3.64,0-6.33,3.13-6.33,7.78c0,4.61,2.52,7.7,6.26,7.7c1.84,0,3.49-0.9,4.72-1.98l1.3,1.94
		c-1.73,1.55-3.89,2.48-6.26,2.48C-564.38-1744.62-568.31-1748.36-568.31-1754.77z"/>
	<path class="st3" d="M-550.24-1750.09c0-4.25,3.71-6.33,12.06-7.27c0.04-2.63-0.79-5.22-4.14-5.22c-2.34,0-4.43,1.12-5.9,2.16
		l-1.19-2.05c1.69-1.12,4.43-2.56,7.56-2.56c4.71,0,6.59,3.2,6.59,7.88v12.06h-2.41l-0.25-2.38h-0.11c-1.87,1.58-4.1,2.84-6.55,2.84
		C-547.79-1744.62-550.24-1746.56-550.24-1750.09z M-538.18-1749.69v-5.69c-6.88,0.79-9.21,2.45-9.21,5.11
		c0,2.34,1.62,3.28,3.6,3.28C-541.81-1746.99-540.16-1747.93-538.18-1749.69z"/>
	<path class="st3" d="M-528.85-1764.52h2.38l0.29,2.27h0.11c1.8-1.44,4-2.77,6.26-2.77c5.08,0,7.78,3.92,7.78,9.9
		c0,6.66-4,10.51-8.5,10.51c-1.8,0-3.64-0.83-5.47-2.27l0.07,3.42v6.73h-2.92V-1764.52z M-515.1-1755.09c0-4.39-1.51-7.45-5.4-7.45
		c-1.69,0-3.46,0.97-5.44,2.81v10.51c1.84,1.58,3.64,2.12,4.97,2.12C-517.58-1747.1-515.1-1750.16-515.1-1755.09z"/>
	<path class="st3" d="M-566.8-1730.54h2.92v7.96l-0.11,4.07c1.87-1.8,3.85-3.31,6.51-3.31c4.07,0,5.94,2.63,5.94,7.59v12.35h-2.95
		v-11.99c0-3.74-1.15-5.4-3.85-5.4c-2.05,0-3.53,1.08-5.54,3.17v14.22h-2.92V-1730.54z"/>
	<path class="st3" d="M-546.64-1711.57c0-6.34,4.21-10.26,8.67-10.26c4.86,0,7.67,3.49,7.67,9.11c0,0.65-0.04,1.3-0.14,1.76h-13.28
		c0.18,4.32,2.77,7.2,6.66,7.2c1.91,0,3.49-0.61,4.93-1.58l1.08,1.94c-1.69,1.08-3.67,1.98-6.37,1.98
		C-542.53-1701.42-546.64-1705.2-546.64-1711.57z M-532.89-1713.08c0-4.17-1.87-6.37-5.04-6.37c-2.88,0-5.44,2.34-5.83,6.37H-532.89
		z"/>
	<path class="st3" d="M-526.01-1727.48c0-1.26,0.9-2.02,2.12-2.02c1.15,0,2.12,0.76,2.12,2.02c0,1.15-0.97,1.98-2.12,1.98
		C-525.11-1725.5-526.01-1726.33-526.01-1727.48z M-525.36-1721.32h2.92v19.44h-2.92V-1721.32z"/>
	<path class="st3" d="M-517.22-1698.11c0-1.66,1.08-3.28,2.88-4.46v-0.14c-1.01-0.61-1.76-1.66-1.76-3.2c0-1.62,1.19-2.88,2.16-3.6
		v-0.14c-1.26-1.01-2.52-2.92-2.52-5.22c0-4.21,3.28-6.95,7.2-6.95c1.08,0,2.02,0.25,2.7,0.5h6.73v2.27h-4.1
		c0.97,0.94,1.69,2.45,1.69,4.21c0,4.14-3.1,6.8-7.02,6.8c-0.97,0-2.09-0.25-2.99-0.72c-0.72,0.61-1.3,1.33-1.3,2.45
		c0,1.26,0.79,2.2,3.46,2.2h3.89c4.46,0,6.69,1.4,6.69,4.61c0,3.53-3.78,6.66-9.68,6.66
		C-513.99-1692.85-517.22-1694.76-517.22-1698.11z M-502.39-1699.08c0-1.91-1.4-2.56-4.07-2.56h-3.56c-0.61,0-1.58-0.11-2.48-0.32
		c-1.48,1.04-2.12,2.3-2.12,3.49c0,2.16,2.16,3.56,5.83,3.56C-504.91-1694.9-502.39-1696.99-502.39-1699.08z M-504.91-1714.88
		c0-2.95-1.98-4.75-4.36-4.75c-2.41,0-4.36,1.76-4.36,4.75c0,2.92,2.02,4.82,4.36,4.82
		C-506.93-1710.06-504.91-1711.96-504.91-1714.88z"/>
	<path class="st3" d="M-495.62-1730.54h2.92v7.96l-0.11,4.07c1.87-1.8,3.85-3.31,6.51-3.31c4.07,0,5.94,2.63,5.94,7.59v12.35h-2.95
		v-11.99c0-3.74-1.15-5.4-3.85-5.4c-2.05,0-3.53,1.08-5.54,3.17v14.22h-2.92V-1730.54z"/>
	<path class="st3" d="M-473.41-1707.75v-11.16h-2.95v-2.23l3.06-0.18l0.32-5.51h2.48v5.51h5.36v2.41h-5.36v11.27
		c0,2.38,0.72,3.82,3.06,3.82c0.72,0,1.62-0.25,2.27-0.5l0.58,2.2c-1.08,0.36-2.38,0.72-3.46,0.72
		C-472.12-1701.42-473.41-1703.94-473.41-1707.75z"/>
</g>
<g>
	<path class="st3" d="M626.13-1733.61l-5.94-9.29h3.17l2.74,4.43c0.61,1.08,1.3,2.16,1.98,3.24h0.14c0.61-1.08,1.19-2.16,1.8-3.24
		l2.56-4.43h3.02l-5.9,9.57l6.41,9.86h-3.2l-2.99-4.72c-0.68-1.19-1.4-2.38-2.12-3.53h-0.18c-0.72,1.15-1.37,2.34-2.05,3.53
		l-2.77,4.72h-3.1L626.13-1733.61z"/>
	<path class="st3" d="M637.76-1734.65h9.11v2.3h-9.11V-1734.65z"/>
	<path class="st3" d="M651.87-1752.11h2.92v7.96l-0.11,4.07c1.87-1.8,3.85-3.31,6.51-3.31c4.07,0,5.94,2.63,5.94,7.59v12.35h-2.95
		v-11.99c0-3.74-1.15-5.4-3.85-5.4c-2.05,0-3.53,1.08-5.54,3.17v14.22h-2.92V-1752.11z"/>
	<path class="st3" d="M672.03-1733.14c0-6.34,4.21-10.26,8.67-10.26c4.86,0,7.67,3.49,7.67,9.11c0,0.65-0.04,1.3-0.14,1.76h-13.28
		c0.18,4.32,2.77,7.2,6.66,7.2c1.91,0,3.49-0.61,4.93-1.58l1.08,1.94c-1.69,1.08-3.67,1.98-6.37,1.98
		C676.14-1722.99,672.03-1726.77,672.03-1733.14z M685.78-1734.65c0-4.18-1.87-6.37-5.04-6.37c-2.88,0-5.44,2.34-5.83,6.37H685.78z"
		/>
	<path class="st3" d="M692.66-1749.05c0-1.26,0.9-2.02,2.12-2.02c1.15,0,2.12,0.76,2.12,2.02c0,1.15-0.97,1.98-2.12,1.98
		C693.56-1747.07,692.66-1747.9,692.66-1749.05z M693.31-1742.9h2.92v19.44h-2.92V-1742.9z"/>
	<path class="st3" d="M701.45-1719.68c0-1.66,1.08-3.28,2.88-4.46v-0.14c-1.01-0.61-1.76-1.66-1.76-3.2c0-1.62,1.19-2.88,2.16-3.6
		v-0.14c-1.26-1.01-2.52-2.92-2.52-5.22c0-4.21,3.28-6.95,7.2-6.95c1.08,0,2.02,0.25,2.7,0.5h6.73v2.27h-4.1
		c0.97,0.94,1.69,2.45,1.69,4.21c0,4.14-3.1,6.8-7.02,6.8c-0.97,0-2.09-0.25-2.99-0.72c-0.72,0.61-1.3,1.33-1.3,2.45
		c0,1.26,0.79,2.2,3.46,2.2h3.89c4.46,0,6.7,1.4,6.7,4.61c0,3.53-3.78,6.66-9.68,6.66C704.68-1714.42,701.45-1716.33,701.45-1719.68
		z M716.28-1720.65c0-1.91-1.4-2.56-4.07-2.56h-3.56c-0.61,0-1.58-0.11-2.48-0.32c-1.48,1.04-2.12,2.3-2.12,3.49
		c0,2.16,2.16,3.56,5.83,3.56C713.76-1716.48,716.28-1718.56,716.28-1720.65z M713.76-1736.45c0-2.95-1.98-4.75-4.36-4.75
		c-2.41,0-4.36,1.76-4.36,4.75c0,2.92,2.02,4.82,4.36,4.82C711.74-1731.63,713.76-1733.54,713.76-1736.45z"/>
	<path class="st3" d="M723.04-1752.11h2.92v7.96l-0.11,4.07c1.87-1.8,3.85-3.31,6.51-3.31c4.07,0,5.94,2.63,5.94,7.59v12.35h-2.95
		v-11.99c0-3.74-1.15-5.4-3.85-5.4c-2.05,0-3.53,1.08-5.54,3.17v14.22h-2.92V-1752.11z"/>
	<path class="st3" d="M745.26-1729.32v-11.16h-2.95v-2.23l3.06-0.18l0.32-5.51h2.48v5.51h5.36v2.41h-5.36v11.27
		c0,2.38,0.72,3.82,3.06,3.82c0.72,0,1.62-0.25,2.27-0.5l0.58,2.2c-1.08,0.36-2.38,0.72-3.46,0.72
		C746.55-1722.99,745.26-1725.51,745.26-1729.32z"/>
</g>
<g>
	<path class="st6" d="M535.53,486.16c34.99-4.39,60.01-9.89,75.08-16.49c27.02-11.43,40.53-29.24,40.53-53.43
		c0-29.45-10.37-49.8-31.09-61.01c-20.72-11.21-51.15-16.82-91.26-16.82c-45.02,0-76.89,11-95.61,32.98
		c-13.38,16.27-22.29,38.26-26.74,65.96H225.05c3.97-62.88,21.63-114.54,52.99-155c49.9-63.32,135.57-94.98,257.03-94.98
		c79.05,0,149.26,15.61,210.65,46.83c61.38,31.23,92.07,90.14,92.07,176.77v329.79c0,22.87,0.43,50.57,1.32,83.11
		c1.32,24.63,5.05,41.34,11.21,50.13c6.15,8.8,15.39,16.06,27.7,21.77v27.7H673.56c-5.72-14.51-9.68-28.14-11.87-40.89
		c-2.21-12.75-3.96-27.26-5.28-43.53c-26.09,28.15-56.18,52.11-90.23,71.89c-40.69,23.3-86.69,34.96-137.99,34.96
		c-65.46,0-119.53-18.58-162.2-55.73c-42.69-37.15-64.02-89.8-64.02-157.97c0-88.38,34.33-152.36,102.99-191.94
		c37.66-21.54,93.03-36.94,166.12-46.17L535.53,486.16z M650.47,573.89c-12.04,7.48-24.19,13.52-36.44,18.14
		c-12.26,4.62-29.08,8.9-50.48,12.86l-42.79,7.91c-40.11,7.04-68.91,15.61-86.4,25.72c-29.61,17.15-44.41,43.76-44.41,79.81
		c0,32.1,9.04,55.3,27.13,69.59c18.08,14.29,40.07,21.44,65.97,21.44c41.08,0,78.91-11.87,113.52-35.62
		c34.61-23.74,52.57-67.05,53.91-129.93V573.89z"/>
</g>
<g>
	<linearGradient id="SVGID_1_" gradientUnits="userSpaceOnUse" x1="-3848.2935" y1="1060.4583" x2="-3848.2935" y2="301.9485">
		<stop  offset="0.2067" style="stop-color:#44C030"/>
		<stop  offset="0.2277" style="stop-color:#42B92E;stop-opacity:0.9736"/>
		<stop  offset="0.435" style="stop-color:#2A781E;stop-opacity:0.7123"/>
		<stop  offset="0.6232" style="stop-color:#184411;stop-opacity:0.475"/>
		<stop  offset="0.786" style="stop-color:#0B1F08;stop-opacity:0.2697"/>
		<stop  offset="0.9171" style="stop-color:#030802;stop-opacity:0.1045"/>
		<stop  offset="1" style="stop-color:#000000;stop-opacity:0"/>
	</linearGradient>
	<path class="st7" d="M-3852.77,600.73c34.99-4.39,60.01-9.89,75.08-16.49c27.02-11.43,40.53-29.24,40.53-53.43
		c0-29.45-10.37-49.8-31.09-61.01c-20.72-11.21-51.15-16.82-91.26-16.82c-45.02,0-76.89,11-95.61,32.98
		c-13.38,16.27-22.29,38.26-26.74,65.96h-181.38c3.97-62.88,21.63-114.54,52.99-155c49.9-63.32,135.57-94.98,257.03-94.98
		c79.05,0,149.26,15.61,210.65,46.83c61.38,31.23,92.07,90.14,92.07,176.77v329.79c0,22.87,0.43,50.57,1.32,83.11
		c1.32,24.63,5.05,41.34,11.21,50.13c6.15,8.8,15.39,16.06,27.7,21.77v27.7h-204.47c-5.72-14.51-9.68-28.14-11.87-40.89
		c-2.21-12.75-3.96-27.26-5.28-43.53c-26.09,28.15-56.18,52.11-90.23,71.89c-40.69,23.3-86.69,34.96-137.99,34.96
		c-65.46,0-119.53-18.58-162.2-55.73c-42.69-37.15-64.02-89.8-64.02-157.97c0-88.38,34.33-152.36,102.99-191.94
		c37.66-21.54,93.03-36.94,166.12-46.17L-3852.77,600.73z M-3737.83,688.46c-12.04,7.48-24.19,13.52-36.44,18.14
		c-12.26,4.62-29.08,8.9-50.48,12.86l-42.79,7.91c-40.11,7.04-68.92,15.61-86.4,25.72c-29.61,17.15-44.41,43.76-44.41,79.81
		c0,32.1,9.04,55.3,27.13,69.58c18.08,14.29,40.07,21.44,65.97,21.44c41.08,0,78.91-11.87,113.52-35.62
		c34.61-23.74,52.57-67.05,53.91-129.93V688.46z"/>
</g>
<g>
	<path class="st4" d="M1835.36,182.04c6.34,10.01,15.88,20.67,28.61,32.02c12.71,11.37,27.7,22.95,44.97,34.75
		c19.97,14.54,42.45,28.4,67.45,41.56c24.97,13.18,50.18,24.31,75.62,33.38c7.26,1.83,14.31,3.64,21.12,5.45
		c6.81,1.83,13.39,3.64,19.76,5.45v19.08h-17.71c-19.99-0.89-34.53,4.56-43.6,16.35c-9.09,11.82-13.63,25-13.63,39.51V708
		c0,25.44,3.41,43.84,10.22,55.19c6.81,11.37,17.48,17.03,32.02,17.03c7.26,0,15.44-1.36,24.53-4.09
		c9.07-2.73,19.08-6.81,29.98-12.26v19.08c-26.36,17.27-54.06,38.39-83.12,63.36c-29.08,25-62.23,50.65-99.47,76.99l-5.45-5.45
		c-0.92-0.92-2.28-1.83-4.09-2.73c-4.56-5.45-9.54-10.22-14.99-14.31c-5.45-4.09-10.9-8.39-16.35-12.94
		c-16.35-14.52-31.57-29.98-45.65-46.33c-14.09-16.35-21.59-34.51-22.48-54.5v-2.73c0-0.89,0.45-2.26,1.36-4.09v-5.45
		c-19.08,10.9-37.7,22.95-55.87,36.11c-18.18,13.18-35.9,27.04-53.14,41.56c-16.35,12.73-32.25,25-47.69,36.79
		c-15.46,11.82-30.89,23.16-46.33,34.07c-24.53-16.35-44.28-30.66-59.27-42.92c-14.99-12.26-27.04-24.29-36.11-36.11
		c-10.01-13.63-16.35-28.15-19.08-43.6c-2.73-15.44-4.09-34.96-4.09-58.59V420.49c0-5.45,0.21-11.35,0.68-17.71
		c0.45-6.34,2.04-13.16,4.77-20.44c3.62-9.99,10.67-20.21,21.12-30.66c10.43-10.43,26.57-19.76,48.37-27.93
		c16.35-7.26,34.75-14.99,55.18-23.16c20.44-8.17,41.09-17.24,62-27.25c26.34-11.8,51.78-25.21,76.31-40.2
		c24.53-14.99,45.86-31.55,64.04-49.73V182.04z M1696.38,729.8c0,20.91,2.94,36.58,8.86,47.01c5.9,10.45,14.31,15.67,25.21,15.67
		c4.54,0,9.3-0.68,14.31-2.04c4.98-1.36,10.22-3.41,15.67-6.13l54.5-32.7V386.43c-25.44-9.07-46.8-20.65-64.04-34.75
		c-17.27-14.07-33.62-28.83-49.05-44.29l-5.45-5.45V729.8z"/>
</g>
</svg>
