<?xml version="1.0" encoding="utf-8"?>
<!-- Generator: Adobe Illustrator 25.2.2, SVG Export Plug-In . SVG Version: 6.00 Build 0)  -->
<svg version="1.1" id="Layer_1" xmlns="http://www.w3.org/2000/svg" xmlns:xlink="http://www.w3.org/1999/xlink" x="0px" y="0px"
	 viewBox="0 0 1190.55 180.84" style="enable-background:new 0 0 1190.55 180.84;" xml:space="preserve">
<style type="text/css">
	.st0{fill:none;stroke:#FF3000;stroke-miterlimit:10;}
	.st1{fill:#FFFFFF;}
</style>
<path d="M590.19-33.38"/>
<g>
	<g>
		<line class="st0" x1="0" y1="129.8" x2="1190.55" y2="129.8"/>
		<line class="st0" x1="0" y1="180.2" x2="1190.55" y2="180.2"/>
		<line class="st0" x1="0" y1="54.2" x2="1190.55" y2="54.2"/>
		<line class="st0" x1="0" y1="0.65" x2="1190.55" y2="0.65"/>
		<line class="st0" x1="0" y1="13.25" x2="1190.55" y2="13.25"/>
	</g>
	<g>
		<g>
			<path class="st1" d="M261.38,35.63c0,0,22.05-3.15,25.2-22.05h12.6v116.55h-25.2v-81.9h-12.6V35.63z"/>
		</g>
		<g>
			<path class="st1" d="M349.58,95.48c0,0,0-9.45,6.3-9.45h6.3c25.2,0,25.2-22.05,25.2-22.05v-37.8l-25.2-12.6l-37.8,25.2v22.05
				h25.2v-37.8l12.6,6.3v37.8c0,0,0,9.45-6.3,9.45h-6.3c-25.2,0-25.2,31.15-25.2,31.15v22.4h63v-9.11v-12.94h-37.8V95.48z"/>
		</g>
		<g>
			<path class="st1" d="M475.58,44.74v-18.9l-25.2-12.6l-37.8,25.2v22.05h25.2v-37.8l12.6,6.3v28.35c0,0,0,9.45-6.3,9.45v9.45
				c6.3,0,6.3,9.45,6.3,9.45v28.69c0,0,0,6.3-6.3,6.3s-6.3-6.3-6.3-6.3v-25.2h-25.2v15.75c0,0,0,26.85,25.2,26.85h12.6
				c25.2,0,25.2-26.85,25.2-26.85V88.84c0,0,0-10.03-9.53-17.32C475.57,64.21,475.58,44.74,475.58,44.74z"/>
		</g>
		<g>
			<path class="st1" d="M985.88,13.24l-37.8,25.2v37.8l12.6,12.6l25.2-9.45v34.99c0,0,0,6.3-6.3,6.3c-6.3,0-6.3-6.3-6.3-6.3v-18.9
				h-25.2l0,10.5c0,0-0.02,25.8,25.18,25.8h12.6c25.2,0,25.22-25.8,25.22-25.8l0-80.14L985.88,13.24z M985.88,76.24
				c-12.6,3.15-12.6-6.3-12.6-6.3V22.69l12.6,6.3V76.24z"/>
		</g>
		<g>
			<path class="st1" d="M563.78,89.52V23.03l-12.6-9.45L529.13,24.6v1.55c3.73,0.65,9.45,4.07,9.45,18.92v50.74l-12.6-6.3V70.28
				v-18.9l-12.6-9.45l-22.05,11.02v1.34c3.73,0.2,9.45,2.23,9.45,12.84v25.54l25.2,12.6l12.6-8.4v33.6h25.2v-25.2l12.6-8.4v-1.05
				L563.78,89.52z"/>
		</g>
		<g>
			<path class="st1" d="M658.28,104.93v-25.2c0,0,0-19.24-25.2-19.24h-12.6V38.44c2.42-2.6,5.93-5.54,9.45-5.54h28.35V13.24h-28.35
				l-9.45,22.05v-25.2l-34.65,23.1v0.96c3.73-0.96,9.45-1.05,9.45,7.44c0,12.6,0,28.35,0,28.35h31.5c6.3,0,6.3,9.45,6.3,9.45v34.99
				c0,0,0,6.3-6.3,6.3s-6.3-6.3-6.3-6.3v-25.2h-25.2v15.75c0,0,0.27,26.85,25.47,26.85h12.6
				C658.54,131.78,658.28,104.93,658.28,104.93z"/>
		</g>
		<g>
			<polygon class="st1" points="809.47,13.24 771.67,38.44 771.68,63.63 796.87,75.78 796.87,22.69 809.47,28.99 809.47,130.13 
				834.67,130.13 834.67,25.84 			"/>
		</g>
		<g>
			<path class="st1" d="M217.28,13.58l-37.8,25.2v67.78c0,0,0,25.2,25.2,25.2h6.3h6.3c25.2,0,25.2-25.2,25.2-25.2V26.18
				L217.28,13.58z M204.68,23.03l12.6,6.3v40.95l-12.6,5.25V23.03z M217.28,116.01c0,0,0,6.3-6.3,6.3c-6.3,0-6.3-6.3-6.3-6.3V79.73
				l12.6,6.3V116.01z"/>
		</g>
		<g>
			<path class="st1" d="M746.48,51.04v-25.2l-25.2-12.6l-37.8,25.2l0,68.13c0,0,0,25.2,25.2,25.2h12.6c25.2,0,25.2-25.2,25.2-25.2
				l0-30.33l-25.2-12.6l-12.6,5.25v-46.2l12.6,6.3v22.05H746.48z M721.28,79.39l0,36.63c0,0,0,6.3-6.3,6.3s-6.3-6.3-6.3-6.3l0-33.48
				v-9.45L721.28,79.39z"/>
		</g>
		<g>
			<path class="st1" d="M922.88,25.84l-25.2-12.6l-37.8,25.2v25.2l24.3,12.15l-24.3,16.2l0,14.6c0,0,0,25.2,25.2,25.2h6.3h6.3
				c25.2,0,25.2-25.2,25.2-25.2l0-27.2l-24.3-12.15l24.3-16.2V25.84z M885.08,22.69l12.6,6.3v37.8l-12.6-6.3V22.69z M897.67,116.03
				c0,0,0,6.3-6.3,6.3c-6.3,0-6.3-6.3-6.3-6.3l0-39.8l12.6,6.3L897.67,116.03z"/>
		</g>
	</g>
</g>
</svg>
