<?xml version="1.0" encoding="utf-8"?>
<!-- Generator: Adobe Illustrator 25.2.2, SVG Export Plug-In . SVG Version: 6.00 Build 0)  -->
<svg version="1.1" id="Layer_1" xmlns="http://www.w3.org/2000/svg" xmlns:xlink="http://www.w3.org/1999/xlink" x="0px" y="0px"
	 viewBox="0 0 1190.55 434.64" style="enable-background:new 0 0 1190.55 434.64;" xml:space="preserve">
<style type="text/css">
	.st0{fill:none;stroke:#FF3000;stroke-miterlimit:10;}
	.st1{fill:#FFFFFF;}
</style>
<g>
	<line class="st0" x1="0" y1="382.61" x2="1190.55" y2="382.61"/>
	<line class="st0" x1="0" y1="433.01" x2="1190.55" y2="433.01"/>
	<line class="st0" x1="0" y1="307.01" x2="1190.55" y2="307.01"/>
	<line class="st0" x1="0" y1="253.46" x2="1190.55" y2="253.46"/>
	<line class="st0" x1="0" y1="266.06" x2="1190.55" y2="266.06"/>
</g>
<g>
	<line class="st0" x1="0" y1="130.78" x2="1190.55" y2="130.78"/>
	<line class="st0" x1="0" y1="181.18" x2="1190.55" y2="181.18"/>
	<line class="st0" x1="0" y1="55.18" x2="1190.55" y2="55.18"/>
	<line class="st0" x1="0" y1="1.63" x2="1190.55" y2="1.63"/>
	<line class="st0" x1="0" y1="14.23" x2="1190.55" y2="14.23"/>
</g>
<path d="M590.19,93.51"/>
<g>
	<g>
		<path class="st1" d="M1104,55.18l-25.2,9.45l-12.6-9.45l-22.05,11.02v0.66c3.73-0.51,9.45,0.79,9.45,13.52v50.4h25.2v-63
			c12.6-3.15,12.6,6.3,12.6,6.3v56.7h25.2v-63L1104,55.18z"/>
	</g>
	<path class="st1" d="M839.4,99.18"/>
	<g>
		<path class="st1" d="M587.4,55.18l-37.8,25.2v37.8l12.6,12.6l25.2-9.45v44.1c0,0,0,6.3-6.3,6.3s-6.3-6.3-6.3-6.3v-18.9h-25.2v9.45
			c0,0,0,25.2,25.2,25.2h12.6c25.2,0,25.2-25.2,25.2-25.2v-50.4v-37.8L587.4,55.18z M587.4,118.18c-12.6,3.15-12.6-6.3-12.6-6.3
			V64.63l12.6,6.3V118.18z"/>
	</g>
	<g>
		<g>
			<path class="st1" d="M713.4,33.92v0.94c3.26-0.9,8.27-1.23,9.45,4.56v9.45l18.9-12.6V14.23L713.4,33.92z"/>
		</g>
		<g>
			<path class="st1" d="M707.1,78.28v0.96c3.73-0.96,9.45-1.05,9.45,7.44c0,12.6,0,44.1,0,44.1h25.2v-75.6L707.1,78.28z"/>
		</g>
	</g>
	<g>
		<g>
			<path class="st1" d="M760.65,33.92v0.94c3.26-0.9,8.27-1.23,9.45,4.56v9.45l18.9-12.6V14.23L760.65,33.92z"/>
		</g>
		<g>
			<path class="st1" d="M754.35,79.24c3.73-0.96,9.45-1.05,9.45,7.44c0,0.51,0,78.75,0,78.75s0,6.3-6.3,6.3c-6.3,0-6.3-6.3-6.3-6.3
				v-18.9H726v9.45c0,0,0,25.2,25.2,25.2h12.6c25.2,0,25.2-25.2,25.2-25.2V55.18l-34.65,23.1V79.24z"/>
		</g>
	</g>
	<g>
		<path class="st1" d="M137.08,118.18l-0.13-50.4l-25.2-12.6l-37.8,25.2v31.5c0,0,0,20.53,22.15,20.53c15.7,0,18.57-7.12,18.57-7.12
			s0.5,5.49,3.38,5.49c5.89,0,20.23,0,22.05,0v-3.16C136.95,127.62,137.08,118.18,137.08,118.18z M111.75,115.03
			c0,0,0.13,6.3-6.17,6.3c-6.3,0-6.43-6.3-6.43-6.3v-50.4l12.6,6.3V115.03z"/>
	</g>
	<g>
		<path class="st1" d="M300.75,80.38v-12.6l-25.2-12.6l-37.8,25.2v22.05c0,28.35,25.2,29.98,25.2,29.98h12.6
			c25.2,0,25.2-26.83,25.2-26.83h-25.2v9.45c0,0,0,6.3-6.3,6.3c-6.3,0-6.3-6.3-6.3-6.3v-50.4l12.6,6.3v26.25L300.75,80.38z"/>
	</g>
	<g>
		<path class="st1" d="M508.65,77.08V14.23l12.6,6.3v22.05l12.6,9.45L555.9,41v-0.66c-3.73,0.51-9.45-0.79-9.45-13.52v-9.45
			l-25.2-12.6L474,36.28v0.96c3.73-0.96,9.45-1.05,9.45,7.44c0,1.93,0,86.1,0,86.1h25.2V83.27c1.08-1.76,8.08-11.6,22.01,2.33
			l15.21-15.21l-15.32-15.21L508.65,77.08z"/>
	</g>
	<g>
		<path class="st1" d="M678.75,55.18L656.7,69.21V1.63l-34.65,23.1v0.96c3.73-0.96,9.45-1.05,9.45,7.44c0,12.6,0,97.65,0,97.65h25.2
			V74.47c6.3-1.97,12.6-1.97,12.6,5.91v50.4h25.2v-50.4h6.3L678.75,55.18z"/>
	</g>
	<g>
		<path class="st1" d="M877.2,77.23l-18.9-22.05l-25.2,18.87V14.23l-34.65,19.95v0.64c3.73-0.99,9.55-1.16,9.55,7.41
			c0,12.6-0.1,88.54-0.1,88.54h25.2v-29.71c12.6,2.34,12.6,17.11,12.6,17.11v12.6l25.2-0.16c0-31.44-25.2-31.34-25.2-31.34h-12.28
			l37.49-22.05H877.2z M833.1,97.67V77.09c4.08-1.41,10.27-2.31,12.6,3.29C848.21,86.4,841.28,91.65,833.1,97.67z"/>
	</g>
	<g>
		<path class="st1" d="M880.35,24.73v0.96c3.73-0.96,9.45-1.05,9.45,7.44c0,12.6,0,97.65,0,97.65H915V1.63L880.35,24.73z"/>
	</g>
	<g>
		<path class="st1" d="M1022.1,55.18l-27.51,10.29L984.3,55.18l-25.2,9.45l-12.6-9.45L924.45,66.2v0.66
			c3.73-0.51,9.45,0.79,9.45,13.52v50.4h25.2v-63c12.6-3.15,12.6,6.3,12.6,6.3v56.7h25.2v-63c12.6-3.15,12.6,6.3,12.6,6.3v56.7h25.2
			v-63L1022.1,55.18z"/>
	</g>
	<g>
		<path class="st1" d="M348,24.73v0.96c3.73-0.96,9.45,2.1,9.45,10.59c0,8.99,0,27.3,0,27.3l-12.6-8.4l-25.2,12.6l0,44.1
			c0,0-0.13,20.53,22.02,20.53c15.7,0,15.78-11.08,15.78-11.08l0,0c0,3.02,0,6.17,0,9.45h25.2V1.63L348,24.73z M357.45,99.28
			c0,4.8,0,10.03,0,15.75c0,0,0,6.3-6.3,6.3c-6.3,0-6.3-6.3-6.3-6.3V99.28v-5.18h0V70.93l12.6-6.3c0,6.9,0,16.23,0,29.47
			C357.45,95.76,357.45,97.49,357.45,99.28z"/>
	</g>
	<g>
		<path class="st1" d="M193.65,55.18l-12.6,8.4V1.63l-34.65,23.1v0.96c3.73-0.96,9.45,2.1,9.45,10.59c0,6.99,0,94.5,0,94.5h25.2
			v-9.45l0,0c0,0,0.08,11.08,15.78,11.08c22.15,0,22.02-20.53,22.02-20.53l0-44.1L193.65,55.18z M193.65,115.03c0,0,0,6.3-6.3,6.3
			c-6.3,0-6.3-6.3-6.3-6.3v-50.4l12.6,6.3L193.65,115.03z"/>
	</g>
	<g>
		<path class="st1" d="M439.35,97.18l25.2-16.8v-12.6l-25.2-12.6l-37.8,25.2v22.05c0,28.35,25.2,29.65,25.2,29.65h12.6
			c25.2,0,25.2-26.5,25.2-26.5h-25.2v9.45c0,0,0,6.3-6.3,6.3c-6.3,0-6.3-6.3-6.3-6.3V97.19L439.35,97.18z M439.35,70.93v15.74
			c0,6.14-12.6,6.31-12.6,6.31V64.63L439.35,70.93z"/>
	</g>
</g>
<g>
	<g>
		<path class="st1" d="M319.93,307.13l-37.8,25.2v25.2c0,25.2,25.2,25.2,25.2,25.2h12.6v50.4h25.2v-113.4L319.93,307.13z
			 M319.93,366.98c0,0,0,6.3-6.3,6.3c-6.3,0-6.3-6.3-6.3-6.3v-50.4l12.6,6.3V366.98z"/>
	</g>
	<g>
		<path class="st1" d="M962.49,307.13v63c-12.6,3.15-12.6-6.3-12.6-6.3v-47.25v-1.05l-25.2,16.8v37.8l12.6,12.6l25.2-9.45v44.1
			c0,0,0,6.3-6.3,6.3s-6.3-6.3-6.3-6.3v-18.9h-25.2v9.45c0,0,0,25.2,25.2,25.2h6.3h6.3c25.2,0,25.2-25.2,25.2-25.2v-88.2
			L962.49,307.13z"/>
	</g>
	<g>
		<path class="st1" d="M629.15,319.73l-25.19-12.6l0.07,59.85c0,0,0,6.3-6.3,6.3s-6.3-6.3-6.3-6.3l-0.08-51.45l-25.2,16.8l0.08,31.5
			c0,0-0.13,20.54,22.02,20.54c15.7,0,15.78-11.09,15.78-11.09l0,0v9.45h25.2L629.15,319.73z"/>
	</g>
	<g>
		<path class="st1" d="M1044.74,374.04c-1.96,3.6-6.63,5.9-10.34,7.23l29.91-51.54c4.12-7.11,11.06-2.93,11.06-2.93l-16.72-19.67
			l-14.92,6.36c-12.64,0.26-24.73-6.34-24.73-6.34l-15.57,28.64l15.97,8.69l12.17-22.36c2.07-3.8,7.37-6.01,11.32-7.18l-39.33,67.8
			h57.13l12.17-22.36l-15.97-8.69L1044.74,374.04z"/>
	</g>
	<g>
		<path class="st1" d="M881.79,334.29l-9.67-19.77l-6.79-3.47l-7.64-3.91l-18.05,18.46c0,0,7.22-3.69,10.83,3.69l15.48,31.67
			c-2.12,1.16-4.6,2.09-7.07,2.09h-16.41v19.69h16.41l8.96-17.92l8.76,17.92h28.88l-22.56-46.14c2.49-1.7,5.89-3.47,9.3-3.47h16.41
			v-19.69h-16.41L881.79,334.29z"/>
	</g>
	<g>
		<path class="st1" d="M500,326.03v-6.3l-25.2-12.6l-37.8,25.2v3.15c0,15.75,15.75,15.75,15.75,15.75h15.75c6.3,0,6.3,6.3,6.3,6.3
			v9.45c0,0,0,6.3-6.3,6.3c-6.3,0-6.3-6.3-6.3-6.3l0-7.75h0v-1.7H437v1.59h0c0,25.2,25.2,25.25,25.2,25.25h12.6
			c25.2,0,25.2-18.95,25.2-18.95l0-4.74c0-15.75-15.75-15.75-15.75-15.75H468.5c-6.3,0-6.3-6.3-6.3-6.3v-22.05l12.6,3.15v20.48
			L500,326.03z"/>
	</g>
	<g>
		<path class="st1" d="M238.03,307.13l-12.6,8.4v-11.55l-34.65,23.1v0.96c3.73-0.96,9.45-1.05,9.45,7.44c0,3.31,0,97.65,0,97.65
			h25.2v-50.4h12.6c25.2,0,25.2-25.2,25.2-25.2v-37.8L238.03,307.13z M238.03,366.98c0,0,0,6.3-6.3,6.3s-6.3-6.3-6.3-6.3v-50.4
			l12.6,6.3V366.98z"/>
	</g>
	<g>
		<path class="st1" d="M414.28,314.51l-21.9,21.9v-29.28l-34.65,23.1v0.96c3.73-0.96,9.45-1.05,9.45,7.44c0,12.6,0,44.1,0,44.1h25.2
			v-40.13c1.08-1.76,8.08-11.6,22.01,2.33l15.21-15.21L414.28,314.51z"/>
	</g>
	<g>
		<path class="st1" d="M546.73,307.13v-40.95l-28.35,19.7v0.94c3.26-0.9,8.27-1.23,9.45,4.56v6.3c0,12.89-18.9,12.89-18.9,12.89
			v2.86h12.73v69.3h25.53c0.03-5.86,0.06-53.88,0.06-59.85c0-12.89,12.6-12.6,12.6-12.6v-3.15H546.73z"/>
	</g>
	<g>
		<path class="st1" d="M698.47,307.72l-15.21,15.21c0,0,17.63,12.43,14.71,24.96l-6.34,25.39l-15.75-22.05v-34.65l-12.6-9.45
			l-22.05,11.02v0.66c3.73-0.51,9.45,0.79,9.45,13.52h0.05l-0.05,25.2l18.9,25.2l26.1-0.12L713.64,323L698.47,307.72z"/>
	</g>
	<g>
		<path class="st1" d="M815.02,307.72l-15.21,15.21c0,0,17.63,12.43,14.71,24.96l-6.34,25.39l-15.75-22.05v-34.65l-12.6-9.45
			l-22.08,11.04v0.64c3.73-0.52,9.48,0.74,9.48,13.51h0.05l-0.03,15.75l-0.05,0c0,0.02,0.02,0.03,0.05,0.04l-0.02,9.41l5.29,7.05
			l-2.17,8.7l-15.75-22.05v-34.65l-12.6-9.45l-22.05,11.02v0.66c3.73-0.51,9.45,0.79,9.45,13.52h0.05l-0.05,25.2l18.9,25.2
			l26.1-0.12l3.34-11.07l8.4,11.2l26.1-0.12L830.19,323L815.02,307.72z"/>
	</g>
	<g>
		<path class="st1" d="M152.98,307.13l-37.8,25.2v26.7c0,0,0,25.2,25.2,25.2h6.3h6.3c25.2,0,25.2-25.2,25.2-25.2v-39.3
			L152.98,307.13z M152.98,368.48c0,0,0,6.3-6.3,6.3s-6.3-6.3-6.3-6.3v-51.9l12.6,6.3V368.48z"/>
	</g>
</g>
</svg>
